<?xml version="1.0" encoding="utf-8"?>
<!-- Generator: Adobe Illustrator 24.1.2, SVG Export Plug-In . SVG Version: 6.00 Build 0)  -->
<svg version="1.1" id="Layer_1" xmlns="http://www.w3.org/2000/svg" xmlns:xlink="http://www.w3.org/1999/xlink" x="0px" y="0px"
	 viewBox="0 0 916.5 740.2" style="enable-background:new 0 0 916.5 740.2;" xml:space="preserve">
<style type="text/css">
	.st0{fill:#F5FBFE;}
	.st1{fill:#DDEEFA;}
	.st2{fill:#255078;}
	.st3{font-family:'Georgia';}
	.st4{font-size:18px;}
	.st5{font-size:16px;}
	.st6{fill:#4C4B4D;}
	.st7{font-family:'ArialMT';}
	.st8{font-size:14px;}
	.st9{letter-spacing:21;}
	.st10{fill:#CD483B;}
	.st11{fill:none;}
	.st12{fill:#AEDBF5;}
	.st13{fill:#FFFFFF;}
	.st14{font-size:6.0432px;}
	.st15{fill:#4C4B4C;}
	.st16{fill:#DB3029;}
	.st17{font-size:36px;}
</style>
<g id="Texts">
	<polygon id="blue_bg" class="st0" points="-0.1,604.9 -0.1,641.9 -0.1,651.5 -0.1,740.3 173.4,740.3 173.4,651.5 914.9,651.5 
		914.9,604.9 	"/>
	<path id="line_bg" class="st1" d="M916.4,1.1H-0.1v130v474.4v2v42.9v2v42.9v2v42.9l0,0h579.8l0,0h333.2l0,0h3.5V1.1z M912.9,57.9
		v547.6H578.3l-0.6-0.3v0.3H443.5l-0.6-0.3v0.3H2.9V57.9H912.9z M912.9,607.5v42.9H579.7v-42.9H912.9z M445,650.5v-42.9h132.8v42.9
		H445z M577.7,652.5v42.9H445v-42.9H577.7z M310.2,650.5v-42.9H443v42.9H310.2z M443,652.5v42.9H310.2v-42.9H443z M175.4,650.5
		v-42.9h132.8v42.9H175.4z M308.2,652.5v42.9H175.4v-42.9H308.2z M173.4,607.5v42.9H2.9v-42.9H173.4z M173.4,652.5v42.9H2.9v-42.9
		H173.4z M2.9,697.4h170.5v39.9H2.9V697.4z M175.4,697.4h132.8v39.9H175.4V697.4z M310.2,697.4H443v39.9H310.2V697.4z M445,697.4
		h132.8v39.9H445V697.4z M579.7,652.5h333.2v84.8H579.7V652.5z"/>
	<text id="title" transform="matrix(1 0 0 1 32.8483 35.8372)" class="st2 st3 st4">COVID-19 in Alabama on</text>
	<text id="date" transform="matrix(1 0 0 1 240.4693 35.8372)" class="st2 st3 st4">April 27th, 2020</text>
	<text id="confirmed" transform="matrix(1 0 0 1 32.8483 123.1704)" class="st2 st3 st5">State Confirmed Cases By County</text>
	<g>
		<text transform="matrix(1 0 0 1 34.2083 169.7561)" class="st6 st7 st8">Autauga  10</text>
		<text transform="matrix(1 0 0 1 34.1865 194.0796)" class="st6 st7 st8">Baldwin  10</text>
		<text transform="matrix(1 0 0 1 34.1865 218.4023)" class="st6 st7 st8">Barbour  10</text>
		<text transform="matrix(1 0 0 1 34.1865 242.7258)" class="st6 st7 st8">Bibb  10</text>
		<text transform="matrix(1 0 0 1 34.1865 267.0496)" class="st6 st7 st8">Blount  10</text>
		<text transform="matrix(1 0 0 1 34.1865 291.3733)" class="st6 st7 st8">Bullock  10</text>
		<text transform="matrix(1 0 0 1 34.1865 315.696)" class="st6 st7 st8">Butler  10</text>
		<text transform="matrix(1 0 0 1 34.1865 340.02)" class="st6 st7 st8">Calhoun  10</text>
		<text transform="matrix(1 0 0 1 34.1864 364.3428)" class="st6 st7 st8">Chambers  10</text>
		<text transform="matrix(1 0 0 1 34.1865 388.6659)" class="st6 st7 st8">Cherokee  10</text>
		<text transform="matrix(1 0 0 1 34.1864 412.9897)" class="st6 st7 st8">Chilton  10</text>
		<text transform="matrix(1 0 0 1 34.1867 437.3131)" class="st6 st7 st8">Choctaw  10</text>
		<text transform="matrix(1 0 0 1 34.1867 461.636)" class="st6 st7 st8">Clarke  10</text>
		<text transform="matrix(1 0 0 1 34.1864 485.9595)" class="st6 st7 st8">Clay  10</text>
		<text transform="matrix(1 0 0 1 34.1867 510.2831)" class="st6 st7 st8">Cleburne  10</text>
		<text transform="matrix(1 0 0 1 34.1864 534.6064)" class="st6 st7 st8">Coffee  10</text>
		<text transform="matrix(1 0 0 1 34.1868 558.9297)" class="st6 st7 st8">Colbert  10</text>
		<text transform="matrix(1 0 0 1 153.5432 169.7561)" class="st6 st7 st8">Conecuh  10</text>
		<text transform="matrix(1 0 0 1 153.5432 194.0791)" class="st6 st7 st8">Coosa  10</text>
		<text transform="matrix(1 0 0 1 153.5432 218.4021)" class="st6 st7 st8">Covington  10</text>
		<text transform="matrix(1 0 0 1 153.5432 242.7256)" class="st6 st7 st8">Crenshaw  10</text>
		<text transform="matrix(1 0 0 1 153.5432 267.0498)" class="st6 st7 st8">Cullman  10</text>
		<text transform="matrix(1 0 0 1 153.5432 291.3726)" class="st6 st7 st8">Dale  10</text>
		<text transform="matrix(1 0 0 1 153.5432 315.6965)" class="st6 st7 st8">Dallas  10</text>
		<text transform="matrix(1 0 0 1 153.5435 340.0195)" class="st6 st7 st8">De Kalb  10</text>
		<text transform="matrix(1 0 0 1 153.5432 364.3428)" class="st6 st7 st8">Elmore  10</text>
		<text transform="matrix(1 0 0 1 153.5432 388.6667)" class="st6 st7 st8">Escambia  10</text>
		<text transform="matrix(1 0 0 1 153.5432 412.9897)" class="st6 st7 st8">Etowah  10</text>
		<text transform="matrix(1 0 0 1 153.5432 437.313)" class="st6 st7 st8">Fayette  10</text>
		<text transform="matrix(1 0 0 1 153.5432 461.6368)" class="st6 st7 st8">Franklin  10</text>
		<text transform="matrix(1 0 0 1 153.5435 485.9595)" class="st6 st7 st8">Geneva  10</text>
		<text transform="matrix(1 0 0 1 153.5436 510.283)" class="st6 st7 st8">Greene  10</text>
		<text transform="matrix(1 0 0 1 153.5435 534.6069)" class="st6 st7 st8">Hale  10</text>
		<text transform="matrix(1 0 0 1 153.5434 558.9294)" class="st6 st7 st8">Henry  10</text>
		<text transform="matrix(1 0 0 1 273.58 169.7561)" class="st6 st7 st8">Houston  10</text>
		<text transform="matrix(1 0 0 1 273.58 194.0793)" class="st6 st7 st8">Jackson  10</text>
		<text transform="matrix(1 0 0 1 273.58 218.4023)" class="st6 st7 st8">Jefferson  10</text>
		<text transform="matrix(1 0 0 1 273.58 242.7256)" class="st6 st7 st8">Lamar  10</text>
		<text transform="matrix(1 0 0 1 273.58 267.0496)" class="st6 st7 st8">Lauderdale  10</text>
		<text transform="matrix(1 0 0 1 273.58 291.3728)" class="st6 st7 st8">Lawrence  10</text>
		<text transform="matrix(1 0 0 1 273.5802 315.6965)" class="st6 st7 st8">Lee  10</text>
		<text transform="matrix(1 0 0 1 273.5799 340.0193)" class="st6 st7 st8">Limestone  10</text>
		<text transform="matrix(1 0 0 1 273.5799 364.3433)" class="st6 st7 st8">Lowndes  10</text>
		<text transform="matrix(1 0 0 1 273.5801 388.6664)" class="st6 st7 st8">Macon  10</text>
		<text transform="matrix(1 0 0 1 273.5803 412.9895)" class="st6 st7 st8">Madison  10</text>
		<text transform="matrix(1 0 0 1 273.5803 437.3131)" class="st6 st7 st8">Marengo  10</text>
		<text transform="matrix(1 0 0 1 273.5802 461.6366)" class="st6 st7 st8">Marion  10</text>
		<text transform="matrix(1 0 0 1 273.5803 485.9596)" class="st6 st7 st8">Marshall  10</text>
		<text transform="matrix(1 0 0 1 273.5801 510.2834)" class="st6 st7 st8">Mobile  10</text>
		<text transform="matrix(1 0 0 1 273.5801 534.6069)" class="st6 st7 st8">Monroe  10</text>
		<text transform="matrix(1 0 0 1 273.5801 558.9297)" class="st6 st7 st8">Montgomery  10</text>
		<text transform="matrix(1 0 0 1 394.2603 169.7559)" class="st6 st7 st8">Morgan  10</text>
		<text transform="matrix(1 0 0 1 394.26 193.3489)" class="st6 st7 st8">Perry  10</text>
		<text transform="matrix(1 0 0 1 394.26 216.9424)" class="st6 st7 st8">Pickens  10</text>
		<text transform="matrix(1 0 0 1 394.2603 240.5359)" class="st6 st7 st8">Pike  10</text>
		<text transform="matrix(1 0 0 1 394.2602 264.1289)" class="st6 st7 st8">Randolph  10</text>
		<text transform="matrix(1 0 0 1 394.2602 287.7222)" class="st6 st7 st8">Russell  10</text>
		<text transform="matrix(1 0 0 1 394.2602 311.3152)" class="st6 st7 st8">st Clair  10</text>
		<text transform="matrix(1 0 0 1 394.2602 334.908)" class="st6 st7 st8">Shelby  10</text>
		<text transform="matrix(1 0 0 1 394.2602 358.501)" class="st6 st7 st8">Sumter  10</text>
		<text transform="matrix(1 0 0 1 394.2602 382.0945)" class="st6 st7 st8">Talladega  10</text>
		<text transform="matrix(1 0 0 1 394.2602 405.6877)" class="st6 st7 st8">Tallapoosa  10</text>
		<text transform="matrix(1 0 0 1 394.2604 429.28)" class="st6 st7 st8">Tuscaloosa  10</text>
		<text transform="matrix(1 0 0 1 394.2602 452.8735)" class="st6 st7 st8">Walker  10</text>
		<text transform="matrix(1 0 0 1 394.2603 476.4668)" class="st6 st7 st8">Washington  10</text>
		<text transform="matrix(1 0 0 1 394.2603 500.0601)" class="st6 st7 st8">Wilcox  10</text>
		<text transform="matrix(1 0 0 1 394.2603 523.6533)" class="st6 st7 st8">Winston  10</text>
		<text transform="matrix(1 0 0 1 394.2603 547.2466)" class="st6 st7 st8 st9"> </text>
	</g>
</g>
<g id="TYPES_1_">
	<g>
		<circle id="_x34__1_" class="st10" cx="908.9" cy="-42.4" r="25.2"/>
		
			<text id="_x34__numbers_1_" transform="matrix(1 2.629928e-03 -2.629928e-03 1 885.2997 -35.8789)" class="st13 st7" style="font-size:15px;">10,500</text>
	</g>
	<g>
		<circle id="_x33__1_" class="st10" cx="849.2" cy="-41.4" r="18.2"/>
		
			<text id="_x33__numbers_1_" transform="matrix(1 2.629936e-03 -2.629936e-03 1 832.5371 -35.8996)" class="st13 st7" style="font-size:13px;">1,000</text>
	</g>
	<g>
		<circle id="_x32__1_" class="st10" cx="799.7" cy="-40.5" r="12.4"/>
		
			<text id="_x32__numbers_1_" transform="matrix(1 2.629918e-03 -2.629918e-03 1 788.9715 -36.0689)" class="st13 st7" style="font-size:12px;">100</text>
	</g>
	<g>
		<circle id="_x31__2_" class="st10" cx="722.6" cy="-39.5" r="7.2"/>
		
			<text id="_x31__numbers_2_" transform="matrix(1 2.629964e-03 -2.629964e-03 1 720.3932 -37.8552)" class="st13 st7" style="font-size:6px;">1</text>
	</g>
	<g>
		<circle id="_x31__1_" class="st10" cx="758.6" cy="-39.5" r="9.6"/>
		
			<rect x="753.7" y="-43.6" transform="matrix(2.629856e-03 -1 1 2.629856e-03 795.6349 719.4971)" class="st11" width="9.6" height="9"/>
		
			<text id="_x31__numbers_1_" transform="matrix(1 2.629909e-03 -2.629909e-03 1 753.1362 -36.7863)" class="st13 st7" style="font-size:9px;">10</text>
	</g>
</g>
<g id="Counties">
	<polygon id="sumter" class="st12" points="631.1,371.9 632.2,369.1 632.2,361.9 627.2,361.7 624.8,363.6 620.2,363.6 618.5,358.6 
		611.2,346.4 608.7,338.4 607.1,329 606.3,329.3 602.2,331.6 602.1,331.6 601.4,388.8 617.3,386.9 626,386.9 622.5,382.7 
		622.5,376.6 	"/>
	<polygon id="greene" class="st12" points="641.1,365.4 642.7,363.1 636,343.5 636,337 642.6,325.2 634.8,315.9 629.7,318.9 
		620.4,323.1 611.1,327.6 610.2,327.9 611.9,337.7 614.3,345.4 621.5,357.4 622.6,360.4 623.6,360.4 626.1,358.5 635.4,358.8 
		635.4,366.2 	"/>
	<polygon id="perry" class="st12" points="676.7,366.5 693.2,366.5 696,349.5 698.1,347.8 695.9,336.3 691.8,336.3 688.3,339.8 
		674,339.8 672.9,335.5 668.8,339 664.4,349.9 664.4,374.1 668.7,386.9 669.4,386.9 671,385.2 671,379.3 668.6,379.3 668.6,370.2 	
		"/>
	<polygon id="dallas" class="st12" points="673.5,387.2 685.4,396.9 689.1,400.6 692.9,403.8 710.5,403.8 716.1,375.7 712.1,367.7 
		705.8,352.1 704.5,350.5 700.3,350.1 699,351.2 695.9,369.7 677.4,369.7 671.8,372.2 671.8,376 674.2,376 674.2,386.4 	"/>
	<polygon id="bullock" class="st12" points="814.8,396.4 822.4,394.6 822.4,385.6 823.9,383 822.2,381.8 820.3,376.3 785.5,382.4 
		784.9,383.4 783.8,394.3 790.5,395 790.5,398.6 796.7,405.1 798.6,409.4 805.5,409.4 805.2,408.6 810.6,404.2 	"/>
	<path id="barbour" class="st12" d="M803.6,430.9l22.9-2.5l1.1-6.4h13.3v-2.7l5.6-4.4c-1.1-1.8-1.8-3.9-1-7c0.1-1.7,0.6-3,1-4.2
		l0.1-0.4c0.1-0.7,0.2-1.3,0.4-1.9c0.1-0.4,0.1-0.7,0.2-1.1l0.1-1.2c0.6-2.1,0.6-4.7,0.5-7.3l-1.1,0.7h-7.6l-4.2-8H827l-1.4,2.1
		v10.7l-8.5,2l-3.9,7l-4.1,3.2l1.3,3.1h-1.3L803.6,430.9z"/>
	<polygon id="hale" class="st12" points="648.5,368.4 661.2,369.5 661.2,349.2 665.8,337.8 665.8,324.8 645.6,326.6 639.2,337.8 
		639.2,343.2 646.4,363.6 644.5,366.2 	"/>
	<polygon id="tallapoosa" class="st12" points="776.5,334.4 776.5,331.2 784.1,331.2 786.9,355.6 790.6,354.1 794.9,349 
		797.1,344.2 803.5,332.5 798.4,301.6 774.9,307.1 772.8,307.1 772.8,318.9 774.9,318.9 774.9,334.5 	"/>
	<polygon id="covington" class="st12" points="776.2,487 771.7,455.6 762.7,455 762.7,447 761,447 757.9,449.4 743,449.4 
		741.2,452.5 734.4,452.5 737.2,481 738.9,487.3 738.9,491.3 	"/>
	<polygon id="clarke" class="st12" points="658.4,464.7 664.4,464.7 665.8,463.1 665.8,434 668.6,434 668.6,428.6 659.2,418.3 
		658.9,418.5 626.5,420.3 628.5,451.8 640.3,457.3 646.2,465.7 646.2,474.1 640.8,479.7 640.8,484.2 644,484.2 644,484.9 
		645.3,484.5 650.5,479.5 652.2,478.7 650.9,477.4 650.9,472.7 	"/>
	<polygon id="washington" class="st12" points="642.9,472.7 642.9,466.8 638,459.9 625.4,453.8 624.8,445.1 603.2,448.7 608,496 
		608.3,497.7 638.4,491 640.7,488.8 640.7,487.6 637.6,487.6 637.6,478.4 	"/>
	<polygon id="dale" class="st12" points="825.2,464.4 827.7,464.4 831.3,461 826.4,431.6 802.6,434.2 802.4,434.5 802.4,441.5 
		807.3,468.6 809.5,467.5 811.9,462.4 822.5,462.4 824.8,465.1 	"/>
	<polygon id="crenshaw" class="st12" points="773.6,433.7 765.5,407.8 764.2,410.3 760.4,410.3 757.2,402.3 751,402.5 749,407.2 
		751.9,420.5 751.9,436 749.5,446 756.9,446 760,443.8 765.9,443.8 765.9,452 771.6,452.4 771.6,452.1 769.6,450.2 768.8,443.8 
		773.6,443.8 	"/>
	<polygon id="conecuh" class="st12" points="733.8,479.6 731.1,452.5 722.1,452.5 716.2,445 713.7,432.3 713,432.3 701,444.1 
		697.3,451.1 693.3,460 691.4,467.2 682.7,476.2 682.5,476.2 731.2,471.4 731.2,479.6 	"/>
	<polygon id="pike" class="st12" points="794.8,431.9 799.9,431.3 805.8,412.7 796.5,412.7 793.9,406.8 787.3,399.9 787.3,398 
		782.4,397.4 768.4,406.2 776.8,433.4 776.8,436.8 	"/>
	<polygon id="wilcox" class="st12" points="670.9,426.3 713.1,422.1 714.3,417.3 716.1,417.2 716.1,414 711.1,407 691.7,407 
		687,403 683.3,399.3 672,390.1 668.3,390.1 663.8,396.5 659.8,402.3 659.8,406.7 661.9,406.7 662.3,414.8 661.3,415.9 	"/>
	<path id="marengo" class="st12" d="M661.2,394.8l4.4-6.4l-4.5-13.7V373l-13.4-1.2l-5.6-3l-6.7,0.8v0.5l-1.6,4.2l-7.9,4.4v3l4.4,5.3
		h7.2l-6.9,5.1c-0.7,1.6-1.3,3.2-1.3,3.7c0,1-1.6,5.4-4.4,13.3l-1.1,8l33.8-1.8l1.6-1.8l-0.1-3.6h-2.3v-8.7L661.2,394.8z"/>
	<polygon id="walker" class="st12" points="673.8,276.2 676.9,274 680.4,268.2 686,262.5 686,256.7 690.2,249.9 692.3,248.3 
		689.2,243.4 686.8,241.2 682.1,236.7 676.5,233.8 643.7,236.8 643.7,241.6 645.8,245.9 654.3,245.9 654.3,260.9 660.6,260.9 
		663.6,267.9 670.5,267.6 670.5,276.2 	"/>
	<path id="jefferson" class="st12" d="M696.9,296.6l17.8-18l4.4-4.7l0.2-0.1c1.4-0.7,6.3-3,7.3-3.3c0.1-0.1,0.6-0.6,1.2-1.2h-4.2
		l-0.4-11h2.5v-4.5l-16-9h-4.2l-4.8,1.8l-5.3,3.5l-3,2.4l-3.2,5.4v6.1l-6.3,6.3l-3.3,6l-4.5,3.2h-0.7v2.7l8.5,8.6h3.7l1.9,5.3v0.2
		L696.9,296.6z"/>
	<polygon id="cleburne" class="st12" points="803.7,227 797.1,227 792.2,232.6 792.2,243.1 793.9,244.9 793.9,254.5 790.4,257.6 
		790.4,261.1 784.7,264.1 778.3,267.6 777.6,268.2 783.5,267.9 791,263.3 790.9,262.5 814.3,262.5 	"/>
	<path id="calhoun" class="st12" d="M782.9,258.2l1.6,2.3l2.6-1.4v-2.9l3.5-3.1v-6.8l-1.7-1.8v-12.9l3.8-4.4h-7.2v1.9h-14.3l-2,4.5
		l-3.2,3.2l-4.3,2c-0.1,2.7-0.2,5.6,0,6.2c0.1,0.5,0.5,1.4-1.9,4.5h4.8l3.7,3.5v5.1h14.6L782.9,258.2L782.9,258.2z"/>
	<polygon id="blount" class="st12" points="727.6,205.7 725.8,205.2 721.7,210.4 719.9,216.4 716.5,223.7 711.3,226.1 711.3,230.1 
		705.8,235.4 700.6,239.4 697.9,239.4 695.2,241.8 692.8,242.9 694.9,246.3 699.5,243.5 705.2,241.4 710.6,241.4 719.8,246.5 
		721.9,244.1 731.3,242.3 736.4,235.4 734.4,232.8 733.1,227.7 737.4,216.5 	"/>
	<polygon id="lowndes" class="st12" points="746.1,405.5 748.4,400.2 746,395.4 742.4,384.6 739,376.6 732.9,372.8 726.9,372.8 
		719.2,376.6 713.7,405 718.4,411.5 	"/>
	<path id="lauderdale" class="st12" d="M609.7,155.4l15.3,15.1c1.8-0.7,3.7-1.4,4.4-1.9c0.4-0.8,1.8-2.1,6.7-5.1l5.3-6.2h6.1l3,3
		l7-0.2l2.1,3.1h3.1l-0.6-17.8c-21,1.7-41.6,3.3-61.4,4.9l3.2,5.1C604,155.4,609.7,155.4,609.7,155.4z"/>
	<path id="russell" class="st12" d="M855.2,371.5l0.6-0.8c1.3-1.7,1.4-1.9,1.3-2.3v-0.2c0-0.2-0.1-0.2-0.1-0.2
		c-0.1-0.1-1.1-0.4-1.7-0.5c-0.7-0.2-1.4-0.5-2.1-0.7c-6.1-2.6-5.7-7.3-5.5-9.4c0-0.4,0.1-0.7,0.1-1.2c0-0.6,0-1.2,0-1.8
		c0-0.1,0-0.1,0-0.2l-5,1.2l-9.2,1.6l-4.5,4.8h-5.7v13.5l1.7,4.5l1.7,1.3h10l4.2,8h4.9l1.9-1.3c0-4.2,1.6-6.7,3.1-9.3l0.5-0.8
		c1.7-2.1,2.5-3.6,3.5-5.4L855.2,371.5z"/>
	<path id="henry" class="st12" d="M844.4,456.4v-2.7h7.9l1.6-14v-9.1c0-0.5-0.8-1.9-1.3-2.9c-0.4-0.6-0.7-1.2-1-1.8l-0.1-0.3
		c-0.6-1.4-0.8-2.9-1.2-4.1c-0.2-1.3-0.6-2.6-1.1-3.2c-0.2-0.2-0.5-0.6-0.7-0.8l-4.4,3.5v4.4h-13.7l-0.8,4.5l4.4,26.6h10.4
		L844.4,456.4L844.4,456.4z"/>
	<path id="coosa" class="st12" d="M746.5,335.9l25.1-1.3v-12.4h-2v-15.3h-21.9c-0.7,0.1-6,1.4-11,2.9v1.3l-1.7,4.1l4.8,5.5l2.5,8.6
		l4.3,4.5L746.5,335.9z"/>
	<polygon id="macon" class="st12" points="820.1,373 820.1,360.2 818.1,355.5 812.3,354.3 804.8,351.9 798.3,349.2 797.6,350.9 
		792.7,356.8 786.3,359.3 782.4,361.9 779.2,364.6 777.4,366.2 787.4,378.7 	"/>
	<polygon id="elmore" class="st12" points="752.1,362.8 755.3,359 760.9,359 764.2,364.5 774.5,364.5 777.1,362.2 780.5,359.4 
		783.8,357 781.1,334.4 779.8,334.4 779.8,337.5 746.8,339.2 748.8,364 	"/>
	<polygon id="autauga" class="st12" points="744,344.3 723.5,347.5 718.1,352.8 709.6,352.8 715.1,366.4 718.4,373.3 726.2,369.6 
		733.8,369.6 740.1,373.4 745.9,367.9 	"/>
	<polygon id="geneva" class="st12" points="826.7,481.2 826.7,468.4 826.4,468.8 825.2,470.9 825.2,470.9 824.4,472.6 806.3,472.6 
		778.3,478.6 779.4,486.6 	"/>
	<polygon id="coffee" class="st12" points="804.2,469.7 799.1,441.7 799.2,434.6 795.3,435.1 776.8,440.2 776.8,447 772.6,447 
		772.8,448.8 774.9,450.7 774.9,454 777.9,475.4 	"/>
	<polygon id="escambia" class="st12" points="735.6,491.6 735.6,487.6 734.3,482.9 728,482.9 728,475 680.3,479.7 679.3,481.2 
		675.2,481.2 669.3,485.1 666.8,485.1 666.8,485.7 671.5,498.9 	"/>
	<path id="mobile" class="st12" d="M639.1,531.7h-3.2l1.9-5.6v-10l5-4.9v-4.8l-4.8-11.9l-29.3,6.4l5.8,36.5V561
		c2.7-0.5,6.1,0.6,8.7,0.5c6.1-0.2,7.4-6.7,9.4-11.7c2.1-5.4,4.1-12.2,4.2-18c0.7,0,1.4,0,2,0.1v-0.1L639.1,531.7L639.1,531.7z"/>
	<path id="baldwin" class="st12" d="M682.2,561.8l0.6-28.9l-18.7-14.7l4.5-18.1l-5-14.2V483l-6.3-1.8h-2.6l-2.4,1.1l-5,5l-3.1,1.2
		v1.7l-2.9,2.7l5,12.8v6.8l-5,4.9l-0.1,9.6l-0.5,1.6h1.9v3.8h-1.7c6,1.7,9.6,8.1,12.9,13.4c2.5,3.9,4.8,8.2,5.8,12.9
		c1.3,5.7,0.8,6.9-4.1,9.8c-2.5,1.4-7.9,2.7-4.1,4.5c5.5,2.6,11.5-2.1,16.2-4.2c2.6-1.2,5.5-1.9,8.1-2.9c2.7-1.1,5.1-3,8.1-3.7
		c1-0.2,1.8-0.4,2.7-0.4H682.2z"/>
	<polygon id="monroe" class="st12" points="657.8,478 666.8,480.5 666.8,481.8 668.3,481.8 674.1,477.9 677.5,477.9 680,474.1 
		688.4,465.4 690.3,458.8 694.5,449.6 698.7,441.9 711.4,429.1 713.2,429.1 713,425.3 671.8,429.5 671.8,437.2 669.1,437.2 
		669.1,464.4 665.8,467.9 659.9,467.9 654.3,474.1 654.3,476.2 655.8,478 	"/>
	<g id="houston_2_">
		<polygon id="_x32__houston" class="st12" points="814,465.7 812.2,469.3 822.5,469.3 823.1,468.3 820.9,465.7 		"/>
		<polygon id="_x31__houston" class="st12" points="859,480.8 857.6,472.4 851.2,467.3 848.4,459.7 850.2,456.9 847.7,456.9 
			847.7,459.7 834.4,459.7 834.9,462.2 830,466.7 829.9,480.8 830.5,480.8 		"/>
	</g>
	<polygon id="butler" class="st12" points="741,446 746.1,446 748.6,435.4 748.6,420.6 746.1,408.8 719.4,414.7 719.4,420.2 
		716.9,420.4 716.1,423.6 716.7,430.4 719.3,443.4 723.7,449.3 739.3,449.3 	"/>
	<polygon id="montgomery" class="st12" points="751.6,399.2 759.4,398.9 762.5,406.6 763.6,404.8 765.8,404.1 780.5,394.8 
		781.7,382.4 783.6,379.3 774.4,367.8 762.2,367.8 759.1,362.3 756.9,362.3 754,365.6 749.1,367.3 749.2,369.2 742.3,375.9 
		745.4,383.4 749.1,394.2 	"/>
	<path id="choctaw" class="st12" d="M624.6,441.7l-1.3-21.3l-3.3,0.2l1.7-12.4c2-5.4,4.2-11.6,4.3-12.4c0-1.2,1.1-3.8,1.8-5.3
		l0.1-0.1h-10.1l-16.2,1.9l-0.4,33.8l2,19.6L624.6,441.7z"/>
	<path id="jackson" class="st12" d="M757.3,180.7l7.5-6.4l9.2-9.3l4.7-13.5l2-1.1l-1-3.2V135c-14.4,1.4-29.6,2.9-44.9,4.2l-0.2,8.4
		l-3,1.4l0.5,20l3,2h9.6l5.8,7.3l4.4,2.4h2.3l0,0L757.3,180.7L757.3,180.7z"/>
	<polygon id="cullman" class="st12" points="678.5,231.1 684.1,234.2 690.7,240.3 693.6,238.9 696.6,236.2 699.5,236.2 703.7,232.9 
		708.1,228.8 708.1,224 714,221.3 716.8,215.2 718.9,208.6 721.8,204.9 719.9,204.9 717.5,201.4 681.4,206.1 	"/>
	<polygon id="marshall" class="st12" points="742.1,212.8 747.9,208.2 751.1,205.9 751.1,195.2 754,183.7 748.8,180.8 743.4,174.4 
		736.5,174.4 736.5,178.3 729.2,186.2 721.4,186.2 719.9,184.4 719.9,199.1 721.7,201.6 728.5,201.6 728,202.3 729.3,202.6 
		740.4,215.1 	"/>
	<path id="madison" class="st12" d="M717.9,178l3.8,3.5l1.3,1.6h4.9l5.4-5.8v-3.6l-4.1-2.7l-0.6-23.9l3.1-1.6l0.1-6
		c-10.7,1-21.6,1.9-32.5,2.9l2.4,35.7L717.9,178L717.9,178L717.9,178z"/>
	<polygon id="dekalb" class="st12" points="772.6,198.6 779.7,195.6 783.7,186.3 787.1,179.1 788.1,174.9 781.8,153.5 781.4,153.6 
		777,166.7 767.1,176.5 758.7,183.9 757.3,183.9 754.4,195.8 754.4,204.9 770.4,203 	"/>
	<polygon id="cherokee" class="st12" points="781.9,216.6 785,223.7 802.3,223.7 802.7,223.3 789.9,180.7 786.7,187.6 782.2,198.2 
		775,201.3 773.2,205.1 773.2,211.4 776.9,213.1 	"/>
	<polygon id="chilton" class="st12" points="706.1,347.4 707.8,349.5 716.8,349.5 721.9,344.4 743.7,341.1 743.3,335.3 739.1,331 
		736.6,322.3 731.8,316.9 729.5,315.2 727.6,313.6 706.8,313.6 709.4,318.2 709.4,336.1 699.4,337.4 701.2,346.9 	"/>
	<path id="bibb" class="st12" d="M676.5,336.5H687l3.6-3.5h8.1l0.2,1.1l7.3-1V319l-3.7-6.4l-2.5-6l-3.5-6.8l-8.8-0.2l-2.4,3.8
		c-1.6,5.4-2.6,5.8-3.2,6l-0.7,0.2l-0.8-0.5c-0.2,0-1.6,0-2.7,0.2l-1.2,1.1l0.6,14.1h-7.8v9.7l5.6-5L676.5,336.5z"/>
	<path id="tuscaloosa" class="st12" d="M645.2,323.3l23.9-2v0.1h4.4l-0.5-12.3l3.1-2.7l0.5-0.1c1.8-0.2,3.2-0.4,4.2-0.2
		c0.4-0.8,1-2.4,1.3-3.8l0.2-0.4l2.7-4.4v-1.1l-0.8-2.3h-2.9l-10.4-10.5v-4.2h-3.7v-8.5l-20.2,1l-3.6,9.4h-9.3l2.5,31.9L645.2,323.3
		z"/>
	<polygon id="pickens" class="st12" points="602.1,327.9 605.1,326.3 609.8,324.6 619,320.1 628.3,316 633.5,312.9 631,281.4 
		602.7,281.4 	"/>
	<polygon id="fayette" class="st12" points="644.7,268.8 660.1,268.1 658.4,264.4 650.9,264.4 650.9,249.1 643.8,249.1 641.1,243.7 
		621.9,246.9 623.6,274.7 625.3,278.1 641.3,278.1 	"/>
	<path id="shelby" class="st12" d="M741.4,283.6l-5.4-5.7l-5.6-6.6c-1.9,2-2.6,2.4-2.9,2.4c-0.5,0.1-3.7,1.7-6.6,3l-4.1,4.3
		l-17.5,17.8l3.3,6.7l2.1,5.1h23.7l2.7,2.1l0.7,0.5l1.1-2.5v-8.4l8.2-12.4L741.4,283.6L741.4,283.6z"/>
	<path id="talladega" class="st12" d="M756.6,303.8v-7.4l7.2-11.9l6.8-14.4l5.8-5.1l5-2.7l-0.4-0.6h-16.3v-7l-1.8-1.7h-6.1l-4.1,7.4
		l-0.8,8.1l-7.6,6v2.6l-1.8,2.9l2,2.3v8.5l-8.2,12.4v3.3c4.4-1.2,10-2.7,11-2.7L756.6,303.8L756.6,303.8z"/>
	<path id="lee" class="st12" d="M813.2,351l7.3,1.6l2.4,5.6h4.9l4.3-4.5l10.1-1.8l5.6-1.3c0-0.2-0.1-0.5-0.1-0.7
		c-1.4-1.4-3.8-3.2-5-4.1c-3.8-2.6-4.3-6.3-4.7-8.8c-0.1-0.8-0.2-1.7-0.5-2.3c-0.4-1.1-1.2-2.1-2.1-3.5c-0.2-0.4-0.5-0.7-0.7-1.1
		l-28.3,4.2l-6.2,11.3l-0.2,0.6l6.1,2.6L813.2,351z"/>
	<polygon id="clay" class="st12" points="797.6,298.5 794.7,290.1 791.5,266.9 784.4,271.2 773.8,271.5 773.3,271.9 766.7,286 
		759.9,297.3 759.9,303.8 774.6,303.8 	"/>
	<polygon id="lamar" class="st12" points="602.7,278.1 621.5,278.1 620.3,275.5 618.1,236.1 616,233.6 608.9,233.6 603.2,235.6 	"/>
	<polygon id="franklin" class="st12" points="603.6,207.6 625.9,205.5 639,205.5 645.4,205.2 645.4,186.3 603.8,189.4 	"/>
	<path id="colbert" class="st12" d="M646,160.4h-3.2l-4.9,5.6c-2.1,1.3-4.8,3.1-5.6,3.8c-0.2,0.8-1.3,1.9-7.3,4.1l-1,0.4l-15.7-15.6
		h-4.1l-0.4,27.4l41.9-3.1l3-13.5l1.7-5.8h-1.2L646,160.4z"/>
	<polygon id="lawrence" class="st12" points="655.9,163.3 653.9,163.3 651.9,170.1 648.7,184.8 648.7,204.9 677.9,203 672.3,169.6 
		668.2,167.7 664.2,166.3 658,166.3 	"/>
	<polygon id="marion" class="st12" points="603.3,232.2 608.7,230.4 617.4,230.4 621.2,234.6 621.8,243.6 640.4,240.6 640.4,223.1 
		637.4,220 637.4,208.9 626.1,208.9 603.6,210.9 	"/>
	<polygon id="morgan" class="st12" points="716.7,198.3 716.7,181.3 716.5,181.2 699.5,181.1 689.6,177.5 675.9,171.3 681.2,202.8 	
		"/>
	<polygon id="winston" class="st12" points="675.4,230.5 678,206.5 640.7,208.8 640.7,218.7 643.7,221.8 643.7,233.5 	"/>
	<path id="chambers" class="st12" d="M832.6,327.1c-0.1-0.2-0.4-0.6-0.5-0.8c-0.8-1.8-1.2-3.8-1.6-5.5c-0.4-1.8-0.7-3.3-1.4-4.4
		l-0.4-0.6l-4.2-17.7l-22.8,3l4.8,29.8L832.6,327.1z"/>
	<path id="st_Clair" class="st12" d="M738.5,275.6l1.8,1.9l0.8-1.3V273l7.8-6.1l0.8-7.4l5.1-9.2c1.6-1.7,3.1-3.7,3.5-4.4
		c-0.2-1.4-0.1-4.9,0-7.3l-1.7-1.8l-6.8-3.5l-1-4.2h-5.5l-4.3,4.8l1.2,1.6l-7.2,9.9l-9.7,1.8l-1,1.1l6.4,3.6v9.7h-2.4l0.1,4.5h3.6
		L738.5,275.6z"/>
	<polygon id="etowah" class="st12" points="760.4,235.8 764.2,234 766.5,231.4 769,225.6 782.3,225.6 779.3,218.7 775.2,215.8 
		769.9,213.5 769.9,206.5 753.4,208.3 749.8,210.8 744.3,215.2 740.8,220.2 739.8,219.3 736.5,228 737.3,231 742.2,225.6 
		751.6,225.6 752.8,231 758.9,234.3 	"/>
	<polygon id="randolph" class="st12" points="800.8,297.9 823.7,294.9 822.5,290.1 815.2,265.8 794.6,265.8 797.9,289.5 	"/>
	<path id="limestone" class="st12" d="M669.4,164.7l21.3,9.7l7.4,2.6l-2.3-34.6c-10.1,0.8-20.4,1.7-30.5,2.5l0.6,18.5L669.4,164.7z"
		/>
</g>
<g id="balls">
	<circle id="geneva_circle" class="st10" cx="802.2" cy="478" r="7.2"/>
	<circle id="houston_circle" class="st10" cx="842.5" cy="473" r="7.2"/>
	<circle id="henry_circle" class="st10" cx="841.5" cy="439.9" r="7.2"/>
	<circle id="dale_circle" class="st10" cx="815.2" cy="446.3" r="7.2"/>
	<circle id="coffee_circle" class="st10" cx="788.2" cy="455.7" r="7.2"/>
	<circle id="barbour_circle" class="st10" cx="827.1" cy="409.6" r="7.2"/>
	<circle id="pike_circle" class="st10" cx="784.6" cy="416.8" r="7.2"/>
	<circle id="crenshaw_circle" class="st10" cx="761.2" cy="426.2" r="7.2"/>
	<circle id="bullock_circle" class="st10" cx="802.6" cy="390.9" r="7.2"/>
	<circle id="russell_circle" class="st10" cx="837.2" cy="370" r="7.2"/>
	<circle id="lee_circle" class="st10" cx="822.4" cy="343.4" r="7.2"/>
	<circle id="macon_circle" class="st10" cx="800" cy="364.3" r="7.2"/>
	<circle id="montgomery_circle" class="st10" cx="763" cy="383" r="7.2"/>
	<circle id="elmore_circle" class="st10" cx="764.5" cy="349.2" r="7.2"/>
	<circle id="autauga_circle" class="st10" cx="729.5" cy="358.5" r="7.2"/>
	<circle id="lowndes_circle" class="st10" cx="729.9" cy="393.1" r="7.2"/>
	<circle id="butler_circle" class="st10" cx="732.4" cy="429.1" r="7.2"/>
	<circle id="covington_circle" class="st10" cx="755.4" cy="473" r="7.2"/>
	<circle id="conecuh_circle" class="st10" cx="710.5" cy="460.2" r="7.2"/>
	<circle id="monroe_circle" class="st10" cx="682.7" cy="449.9" r="7.2"/>
	<circle id="wilcox_circle" class="st10" cx="681" cy="412.5" r="7.2"/>
	<circle id="dallas_circle" class="st10" cx="698.5" cy="381.5" r="7.2"/>
	<circle id="perry_circle" class="st10" cx="680.5" cy="351.3" r="7.2"/>
	<circle id="marengo_circle" class="st10" cx="643.1" cy="394.5" r="7.2"/>
	<circle id="clarke_circle" class="st10" cx="646.7" cy="441.3" r="7.2"/>
	<circle id="escambia_circle" class="st10" cx="700" cy="485.9" r="7.2"/>
	<circle id="baldwin_circle" class="st10" cx="657.9" cy="530.6" r="7.2"/>
	<circle id="mobile_circle" class="st10" cx="624.8" cy="519.1" r="7.2"/>
	<circle id="washington_circle" class="st10" cx="620.5" cy="473" r="7.2"/>
	<circle id="choctaw_circle" class="st10" cx="611.4" cy="414.7" r="7.2"/>
	<circle id="sumter_circle" class="st10" cx="611.1" cy="368.6" r="7.2"/>
	<circle id="greene_circle" class="st10" cx="625.5" cy="336.9" r="7.2"/>
	<circle id="hale_circle" class="st10" cx="651.4" cy="342.7" r="7.2"/>
	<circle id="bibb_circle" class="st10" cx="689.2" cy="318.2" r="7.2"/>
	<circle id="chilton_circle" class="st10" cx="723.7" cy="330.4" r="7.2"/>
	<circle id="coosa_circle" class="st10" cx="753.7" cy="321.1" r="7.2"/>
	<circle id="tallapoosa_circle" class="st10" cx="789" cy="324" r="7.2"/>
	<circle id="chambers_circle" class="st10" cx="815.9" cy="313.9" r="7.2"/>
	<circle id="randolph_circle" class="st10" cx="807.7" cy="281.5" r="7.2"/>
	<circle id="clay_circle" class="st10" cx="779.6" cy="288" r="7.2"/>
	<circle id="talladega_circle" class="st10" cx="754.4" cy="280" r="7.2"/>
	<circle id="shelby_circle" class="st10" cx="721.3" cy="293" r="7.2"/>
	<circle id="tuscaloosa_circle" class="st10" cx="656.5" cy="298.8" r="7.2"/>
	<circle id="pickens_circle" class="st10" cx="617.9" cy="300.2" r="7.2"/>
	<circle id="cleburne_circle" class="st10" cx="801.9" cy="249.1" r="7.2"/>
	<circle id="calhoun_circle" class="st10" cx="776" cy="242.6" r="7.2"/>
	<circle id="st_Clair_circle" class="st10" cx="742.2" cy="250.5" r="7.2"/>
	<circle id="jefferson_circle" class="st10" cx="700.7" cy="270.7" r="7.2"/>
	<circle id="walker_circle" class="st10" cx="669.4" cy="251.2" r="7.2"/>
	<circle id="fayette_circle" class="st10" cx="635.9" cy="259.9" r="7.2"/>
	<circle id="lamar_circle" class="st10" cx="610.7" cy="257" r="7.2"/>
	<circle id="marion_circle" class="st10" cx="624.1" cy="223.2" r="7.2"/>
	<circle id="winston_circle" class="st10" cx="659.4" cy="219.6" r="7.2"/>
	<circle id="cullman_circle" class="st10" cx="698.2" cy="218.1" r="7.2"/>
	<circle id="blount_circle" class="st10" cx="721.3" cy="231.1" r="7.2"/>
	<circle id="etowah_circle" class="st10" cx="759.4" cy="220.3" r="7.2"/>
	<circle id="cherokee_circle" class="st10" cx="789" cy="208" r="7.2"/>
	<circle id="dekalb_circle" class="st10" cx="770.2" cy="187.2" r="7.2"/>
	<circle id="marshall_circle" class="st10" cx="737.4" cy="192.2" r="7.2"/>
	<circle id="morgan_circle" class="st10" cx="695.4" cy="190" r="7.2"/>
	<circle id="lawrence_circle" class="st10" cx="662.2" cy="187.2" r="7.2"/>
	<circle id="franklin_circle" class="st10" cx="624.8" cy="196.5" r="7.2"/>
	<circle id="colbert_circle" class="st10" cx="623.4" cy="176.4" r="7.2"/>
	<circle id="lauderdale_circle" class="st10" cx="633.4" cy="156.9" r="7.2"/>
	<circle id="limestone_circle" class="st10" cx="681" cy="156.9" r="7.2"/>
	<circle id="madison_circle" class="st10" cx="715.1" cy="159.8" r="7.2"/>
	<circle id="jackson_circle" class="st10" cx="756.6" cy="156.9" r="7.2"/>
	<text id="geneva_numbers" transform="matrix(1 2.629964e-03 -2.629964e-03 1 799.0003 479.659)" class="st13 st7 st14">10</text>
	<text id="houston_numbers" transform="matrix(1 2.629964e-03 -2.629964e-03 1 839.3203 474.619)" class="st13 st7 st14">10</text>
	<text id="henry_numbers" transform="matrix(1 2.629964e-03 -2.629964e-03 1 838.3223 441.5242)" class="st13 st7 st14">10</text>
	<text id="dale_numbers" transform="matrix(1 2.629964e-03 -2.629964e-03 1 811.9603 447.979)" class="st13 st7 st14">10</text>
	<text id="coffee_numbers" transform="matrix(1 2.629964e-03 -2.629964e-03 1 785.0422 457.3642)" class="st13 st7 st14">10</text>
	<text id="barbour_numbers" transform="matrix(1 2.629964e-03 -2.629964e-03 1 823.9222 411.2842)" class="st13 st7 st14">10</text>
	<text id="pike_numbers" transform="matrix(1 2.629964e-03 -2.629964e-03 1 781.4423 418.4842)" class="st13 st7 st14">10</text>
	<text id="crenshaw_numbers" transform="matrix(1 2.629964e-03 -2.629964e-03 1 757.9603 427.8189)" class="st13 st7 st14">10</text>
	<text id="bullock_numbers" transform="matrix(1 2.629964e-03 -2.629964e-03 1 799.4423 392.5642)" class="st13 st7 st14">10</text>
	<text id="russell_numbers" transform="matrix(1 2.629964e-03 -2.629964e-03 1 834.0023 371.6841)" class="st13 st7 st14">10</text>
	<text id="lee_numbers" transform="matrix(1 2.629964e-03 -2.629964e-03 1 819.1603 345.0191)" class="st13 st7 st14">10</text>
	<text id="macon_numbers" transform="matrix(1 2.629964e-03 -2.629964e-03 1 796.8403 365.899)" class="st13 st7 st14">10</text>
	<text id="montgomery_numbers" transform="matrix(1 2.629964e-03 -2.629964e-03 1 759.8423 384.6443)" class="st13 st7 st14">10</text>
	<text id="elmore_numbers" transform="matrix(1 2.629964e-03 -2.629964e-03 1 761.2823 350.8042)" class="st13 st7 st14">10</text>
	<text id="autauga_numbers" transform="matrix(1 2.629964e-03 -2.629964e-03 1 726.2803 360.1389)" class="st13 st7 st14">10</text>
	<text id="lowndes_numbers" transform="matrix(1 2.629964e-03 -2.629964e-03 1 726.7222 394.7242)" class="st13 st7 st14">10</text>
	<text id="butler_numbers" transform="matrix(1 2.629964e-03 -2.629964e-03 1 729.1603 430.6989)" class="st13 st7 st14">10</text>
	<text id="covington_numbers" transform="matrix(1 2.629964e-03 -2.629964e-03 1 752.2003 474.619)" class="st13 st7 st14">10</text>
	<text id="conecuh_numbers" transform="matrix(1 2.629964e-03 -2.629964e-03 1 707.2823 461.8443)" class="st13 st7 st14">10</text>
	<text id="monroe_numbers" transform="matrix(1 2.629964e-03 -2.629964e-03 1 679.4803 451.5789)" class="st13 st7 st14">10</text>
	<text id="wilcox_numbers" transform="matrix(1 2.629964e-03 -2.629964e-03 1 677.7623 414.1642)" class="st13 st7 st14">10</text>
	<text id="dallas_numbers" transform="matrix(1 2.629964e-03 -2.629964e-03 1 695.3203 383.179)" class="st13 st7 st14">10</text>
	<text id="perry_numbers" transform="matrix(1 2.629964e-03 -2.629964e-03 1 677.3203 352.939)" class="st13 st7 st14">10</text>
	<text id="marengo_numbers" transform="matrix(1 2.629964e-03 -2.629964e-03 1 639.8803 396.1389)" class="st13 st7 st14">10</text>
	<text id="clarke_numbers" transform="matrix(1 2.629964e-03 -2.629964e-03 1 643.4803 442.9389)" class="st13 st7 st14">10</text>
	<text id="escambia_numbers" transform="matrix(1 2.629964e-03 -2.629964e-03 1 696.7603 487.5789)" class="st13 st7 st14">10</text>
	<text id="baldwin_numbers" transform="matrix(1 2.629964e-03 -2.629964e-03 1 654.7222 532.244)" class="st13 st7 st14">10</text>
	<text id="mobile_numbers" transform="matrix(1 2.629964e-03 -2.629964e-03 1 621.6022 520.7241)" class="st13 st7 st14">10</text>
	<text id="washington_numbers" transform="matrix(1 2.629964e-03 -2.629964e-03 1 617.2823 474.6442)" class="st13 st7 st14">10</text>
	<text id="choctaw_numbers" transform="matrix(1 2.629964e-03 -2.629964e-03 1 608.2003 416.299)" class="st13 st7 st14">10</text>
	<text id="sumter_numbers" transform="matrix(1 2.629964e-03 -2.629964e-03 1 607.9222 370.2442)" class="st13 st7 st14">10</text>
	<text id="greene_numbers" transform="matrix(1 2.629964e-03 -2.629964e-03 1 622.3223 338.5642)" class="st13 st7 st14">10</text>
	<text id="hale_numbers" transform="matrix(1 2.629964e-03 -2.629964e-03 1 648.2422 344.3242)" class="st13 st7 st14">10</text>
	<text id="bibb_numbers" transform="matrix(1 2.629964e-03 -2.629964e-03 1 685.9604 319.8191)" class="st13 st7 st14">10</text>
	<text id="chilton_numbers" transform="matrix(1 2.629964e-03 -2.629964e-03 1 720.5204 332.0591)" class="st13 st7 st14">10</text>
	<text id="coosa_numbers" transform="matrix(1 2.629964e-03 -2.629964e-03 1 750.4822 322.7242)" class="st13 st7 st14">10</text>
	<text id="tallapoosa_numbers" transform="matrix(1 2.629964e-03 -2.629964e-03 1 785.7623 325.6043)" class="st13 st7 st14">10</text>
	<text id="chambers_numbers" transform="matrix(1 2.629964e-03 -2.629964e-03 1 812.6804 315.4993)" class="st13 st7 st14">10</text>
	<text id="randolph_numbers" transform="matrix(1 2.629964e-03 -2.629964e-03 1 804.4822 283.1243)" class="st13 st7 st14">10</text>
	<text id="clay_numbers" transform="matrix(1 2.629964e-03 -2.629964e-03 1 776.4022 289.6043)" class="st13 st7 st14">10</text>
	<text id="talladega_numbers" transform="matrix(1 2.629964e-03 -2.629964e-03 1 751.2023 281.6841)" class="st13 st7 st14">10</text>
	<text id="shelby_numbers" transform="matrix(1 2.629964e-03 -2.629964e-03 1 718.0822 294.6443)" class="st13 st7 st14">10</text>
	<text id="tuscaloosa_numbers" transform="matrix(1 2.629964e-03 -2.629964e-03 1 653.2822 300.4043)" class="st13 st7 st14">10</text>
	<text id="pickens_numbers" transform="matrix(1 2.629964e-03 -2.629964e-03 1 614.6804 301.8191)" class="st13 st7 st14">10</text>
	<text id="cleburne_numbers" transform="matrix(1 2.629964e-03 -2.629964e-03 1 798.7222 250.7242)" class="st13 st7 st14">10</text>
	<text id="calhoun_numbers" transform="matrix(1 2.629964e-03 -2.629964e-03 1 772.8022 244.2442)" class="st13 st7 st14">10</text>
	<text id="st_Clair_numbers" transform="matrix(1 2.629964e-03 -2.629964e-03 1 738.9622 252.1641)" class="st13 st7 st14">10</text>
	<text id="jefferson_numbers" transform="matrix(1 2.629964e-03 -2.629964e-03 1 697.4803 272.2991)" class="st13 st7 st14">10</text>
	<text id="walker_numbers" transform="matrix(1 2.629964e-03 -2.629964e-03 1 666.2422 252.8843)" class="st13 st7 st14">10</text>
	<text id="fayette_numbers" transform="matrix(1 2.629964e-03 -2.629964e-03 1 632.6804 261.4993)" class="st13 st7 st14">10</text>
	<text id="lamar_numbers" transform="matrix(1 2.629964e-03 -2.629964e-03 1 607.4803 258.6192)" class="st13 st7 st14">10</text>
	<text id="marion_numbers" transform="matrix(1 2.629964e-03 -2.629964e-03 1 620.8823 224.8042)" class="st13 st7 st14">10</text>
	<text id="winston_numbers" transform="matrix(1 2.629964e-03 -2.629964e-03 1 656.1622 221.2041)" class="st13 st7 st14">10</text>
	<text id="cullman_numbers" transform="matrix(1 2.629964e-03 -2.629964e-03 1 695.0422 219.7642)" class="st13 st7 st14">10</text>
	<text id="blount_numbers" transform="matrix(1 2.629964e-03 -2.629964e-03 1 718.0822 232.7242)" class="st13 st7 st14">10</text>
	<text id="etowah_numbers" transform="matrix(1 2.629964e-03 -2.629964e-03 1 756.2422 221.9241)" class="st13 st7 st14">10</text>
	<text id="cherokee_numbers" transform="matrix(1 2.629964e-03 -2.629964e-03 1 785.7623 209.6841)" class="st13 st7 st14">10</text>
	<text id="dekalb_numbers" transform="matrix(1 2.629964e-03 -2.629964e-03 1 767.0422 188.8042)" class="st13 st7 st14">10</text>
	<text id="marshall_numbers" transform="matrix(1 2.629964e-03 -2.629964e-03 1 734.2004 193.8191)" class="st13 st7 st14">10</text>
	<text id="morgan_numbers" transform="matrix(1 2.629964e-03 -2.629964e-03 1 692.1622 191.6841)" class="st13 st7 st14">10</text>
	<text id="lawrence_numbers" transform="matrix(1 2.629964e-03 -2.629964e-03 1 659.0422 188.8042)" class="st13 st7 st14">10</text>
	<text id="franklin_numbers" transform="matrix(1 2.629964e-03 -2.629964e-03 1 621.6022 198.1641)" class="st13 st7 st14">10</text>
	<text id="colbert_numbers" transform="matrix(1 2.629964e-03 -2.629964e-03 1 620.1622 178.0042)" class="st13 st7 st14">10</text>
	<text id="lauderdale_numbers" transform="matrix(1 2.629964e-03 -2.629964e-03 1 630.2422 158.5642)" class="st13 st7 st14">10</text>
	<text id="limestone_numbers" transform="matrix(1 2.629964e-03 -2.629964e-03 1 677.7623 158.5642)" class="st13 st7 st14">10</text>
	<text id="madison_numbers" transform="matrix(1 2.629964e-03 -2.629964e-03 1 711.8804 161.4192)" class="st13 st7 st14">10</text>
	<text id="jackson_numbers" transform="matrix(1 2.629964e-03 -2.629964e-03 1 753.3622 158.5642)" class="st13 st7 st14">10</text>
</g>
<g id="table_data">
	<text transform="matrix(1 0 0 1 21.0498 676.2119)" class="st2 st7 st8">Confirmed Cases</text>
	<text transform="matrix(1 0 0 1 21.0498 720.1437)" class="st2 st7 st8">Deaths</text>
	<text id="current_date" transform="matrix(1 0 0 1 204.5794 631.9298)" class="st2 st7 st8">6 Apr. 2020</text>
	<text id="previous_date" transform="matrix(1 0 0 1 339.3576 631.9298)" class="st2 st7 st8">5 Apr. 2020</text>
	<text id="growth_rate__x25_" transform="matrix(1 0 0 1 458.4258 631.9298)" class="st2 st7 st8">Growth Rate %</text>
	<text transform="matrix(1 0 0 1 673.7008 631.9298)" class="st2 st7 st8">Total Confirmed Cases</text>
	<text id="current_сases" transform="matrix(1 0 0 1 227.435 679.964)" class="st15 st7 st5">783</text>
	<text id="previous_deaths" transform="matrix(1 0 0 1 370.1481 724.4435)" class="st15 st7 st5">14</text>
	<text id="current_deaths" transform="matrix(1 0 0 1 230.9554 723.4636)" class="st15 st7 st5">15</text>
	<text id="total_cases" transform="matrix(1 0 0 1 720.3498 709.1069)" class="st16 st7 st17">783</text>
	<text id="previous_сases" transform="matrix(1 0 0 1 362.2354 679.964)" class="st15 st7 st5">673</text>
	<text id="cases_growth_rate" transform="matrix(1 0 0 1 492.1484 681.5002)" class="st15 st7 st5">16 %</text>
	<text id="death_growth_rate" transform="matrix(1 0 0 1 496.5477 725.9795)" class="st15 st7 st5">7 %</text>
</g>
	<image style="overflow:visible;" width="160" height="104" id="LOGO" xlink:href="../maps/SR Logos/Alabama.png"  transform="matrix(0.4392 0 0 0.4392 838.7281 5.0807)">
	</image>
</svg>
