<?xml version="1.0" encoding="utf-8"?>
<!-- Generator: Adobe Illustrator 24.1.2, SVG Export Plug-In . SVG Version: 6.00 Build 0)  -->
<svg version="1.1" id="Layer_1" xmlns="http://www.w3.org/2000/svg" xmlns:xlink="http://www.w3.org/1999/xlink" x="0px" y="0px"
	 viewBox="0 0 916.5 672.6" style="enable-background:new 0 0 916.5 672.6;" xml:space="preserve">
<style type="text/css">
	.st0{fill:#CD483B;}
	.st1{fill:#F5FBFE;}
	.st2{fill:#DDEEFA;}
	.st3{fill:#255078;}
	.st4{font-family:'Georgia';}
	.st5{font-size:18px;}
	.st6{font-size:16px;}
	.st7{fill:#4C4B4D;}
	.st8{font-family:'ArialMT';}
	.st9{font-size:14px;}
	.st10{fill:#AED9F4;}
	.st11{fill:#FFFFFF;}
	.st12{font-size:8.3954px;}
	.st13{fill:#4C4B4C;}
	.st14{fill:#DB3029;}
	.st15{font-size:36px;}
</style>
<g id="texts">
	<g id="TYPES">
		<g>
			<circle id="_x31_" class="st0" cx="531.8" cy="-80.8" r="6.1"/>
			
				<text id="_x31__numbers" transform="matrix(1 2.630000e-03 -2.630000e-03 1 529.5825 -78.4743)" class="st11 st8" style="font-size:7.0557px;">1</text>
		</g>
		<g>
			<circle id="_x32_" class="st0" cx="605.8" cy="-79.5" r="7.4"/>
			
				<text id="_x32__numbers" transform="matrix(1 2.630000e-03 -2.630000e-03 1 601.637 -76.8188)" class="st11 st8" style="font-size:8px;">60</text>
		</g>
		<g>
			<circle id="b2" class="st0" cx="685.7" cy="-79.7" r="12"/>
			
				<text id="b2_numbers" transform="matrix(1 2.629991e-03 -2.629991e-03 1 677.2222 -76.9397)" class="st11 st8" style="font-size:10.3178px;">100</text>
		</g>
		<g>
			<circle id="_x34_" class="st0" cx="783.5" cy="-82.1" r="18.4"/>
			
				<text id="_x34__numbers" transform="matrix(1 2.630000e-03 -2.630000e-03 1 766.7838 -78.4736)" class="st11 st8" style="font-size:13px;">1,000</text>
		</g>
		<g>
			<circle id="_x35_" class="st0" cx="888" cy="-84.1" r="28"/>
			<text id="_x35__numbers" transform="matrix(1 2.630000e-03 -2.630000e-03 1 863.2479 -76.9269)" class="st11 st8 st6">15,000</text>
		</g>
	</g>
	<polygon id="blue_bg" class="st1" points="0,537.2 0,574.2 0,583.8 0,672.6 173.5,672.6 173.5,583.8 915,583.8 915,537.2 	"/>
	<path id="line_bg" class="st2" d="M916.5,0H0l0,0v537.8v2v42.9v2v42.9v2v42.9l0,0h579.8l0,0H913l0,0h3.5V0z M913,56.8v481H578.4
		l-0.6-0.3v0.3H443.6l-0.6-0.3v0.3H3v-481L913,56.8L913,56.8z M913,539.8v42.9H579.8v-42.9H913z M445.1,582.8v-42.9h132.8v42.9
		H445.1z M577.8,584.8v42.9H445.1v-42.9H577.8z M310.3,582.8v-42.9h132.8v42.9H310.3z M443.1,584.8v42.9H310.3v-42.9H443.1z
		 M175.5,582.8v-42.9h132.8v42.9H175.5z M308.3,584.8v42.9H175.5v-42.9H308.3z M173.5,539.8v42.9H3v-42.9H173.5z M173.5,584.8v42.9
		H3v-42.9H173.5z M3,629.7h170.5v39.9H3V629.7z M175.5,629.7h132.8v39.9H175.5V629.7z M310.3,629.7h132.8v39.9H310.3V629.7z
		 M445.1,629.7h132.8v39.9H445.1V629.7z M579.8,584.8H913v84.8H579.8V584.8z"/>
	<text id="title" transform="matrix(1 0 0 1 32.8483 35.8369)" class="st3 st4 st5">COVID-19 in Arkansas on</text>
	<text id="date" transform="matrix(1 0 0 1 242.48 35.8369)" class="st3 st4 st5">April 27th, 2020</text>
	<text id="confirmed" transform="matrix(1 0 0 1 32.8481 108.9587)" class="st3 st4 st6">State Confirmed Cases By County</text>
	<text transform="matrix(1 0 0 1 32.8483 143.6016)" class="st7 st8 st9">Arkansas 15,048</text>
	<text transform="matrix(1 0 0 1 32.8481 169.8169)" class="st7 st8 st9">Ashley 13,606</text>
	<text transform="matrix(1 0 0 1 32.8481 196.0325)" class="st7 st8 st9">Baxter 9,362</text>
	<text transform="matrix(1 0 0 1 32.8481 222.2471)" class="st7 st8 st9">Benton 6,187</text>
	<text transform="matrix(1 0 0 1 32.8481 248.4629)" class="st7 st8 st9">Boone 6,129</text>
	<text transform="matrix(1 0 0 1 32.8481 274.6785)" class="st7 st8 st9">Bradley 5,409</text>
	<text transform="matrix(1 0 0 1 32.8481 300.8931)" class="st7 st8 st9">Calhoun 4,003</text>
	<text transform="matrix(1 0 0 1 32.8481 327.1096)" class="st7 st8 st9">Carroll  3,916</text>
	<text transform="matrix(1 0 0 1 32.8485 351.4031)" class="st7 st8 st9">Chicot 3,916</text>
	<text transform="matrix(1 0 0 1 32.8485 374.4365)" class="st7 st8 st9">Clark 3,916</text>
	<text transform="matrix(1 0 0 1 32.8485 398.0277)" class="st7 st8 st9">Clay 3,916</text>
	<text transform="matrix(1 0 0 1 32.8485 421.0613)" class="st7 st8 st9">Cleburne 3,916</text>
	<text transform="matrix(1 0 0 1 32.8485 447.1439)" class="st7 st8 st9">Cleveland 3,916</text>
	<text transform="matrix(1 0 0 1 32.8485 470.1775)" class="st7 st8 st9">Columbia 3,916</text>
	<text id="Yuma_53_x09__1_" transform="matrix(1 0 0 1 156.6366 145.0935)" class="st7 st8 st9">Conway  937</text>
	<text transform="matrix(1 0 0 1 156.6366 171.3086)" class="st7 st8 st9">Craighead 549</text>
	<text transform="matrix(1 0 0 1 156.6364 197.5239)" class="st7 st8 st9">Crawford 448</text>
	<text transform="matrix(1 0 0 1 156.6365 223.7383)" class="st7 st8 st9">Crittenden 263</text>
	<text transform="matrix(1 0 0 1 156.6365 249.9541)" class="st7 st8 st9">Cross 18</text>
	<text transform="matrix(1 0 0 1 156.6365 276.1699)" class="st7 st8 st9">Dallas 11</text>
	<text transform="matrix(1 0 0 1 156.6362 302.3848)" class="st7 st8 st9">Desha 11</text>
	<text transform="matrix(1 0 0 1 156.6362 328.6018)" class="st7 st8 st9">Drew 11</text>
	<text transform="matrix(1 0 0 1 156.6354 352.895)" class="st7 st8 st9">Faulkner 11</text>
	<text transform="matrix(1 0 0 1 156.6351 375.9287)" class="st7 st8 st9">Franklin 11</text>
	<text transform="matrix(1 0 0 1 156.6357 399.5201)" class="st7 st8 st9">Fulton 11</text>
	<text transform="matrix(1 0 0 1 156.6358 422.5536)" class="st7 st8 st9">Garland 11</text>
	<text transform="matrix(1 0 0 1 156.6355 448.6362)" class="st7 st8 st9">Grant 11</text>
	<text transform="matrix(1 0 0 1 156.6356 471.6698)" class="st7 st8 st9">Greene 11</text>
	<text transform="matrix(1 0 0 1 280.6503 169.8167)" class="st7 st8 st9">Hot Spring 549</text>
	<text transform="matrix(1 0 0 1 280.65 196.032)" class="st7 st8 st9">Howard 448</text>
	<text transform="matrix(1 0 0 1 280.6502 222.2466)" class="st7 st8 st9">Independence 263</text>
	<text transform="matrix(1 0 0 1 280.6502 248.4622)" class="st7 st8 st9">Izard 18</text>
	<text transform="matrix(1 0 0 1 280.6502 274.6777)" class="st7 st8 st9">Jackson 11</text>
	<text transform="matrix(1 0 0 1 280.6498 300.8931)" class="st7 st8 st9">Jefferson 11</text>
	<text transform="matrix(1 0 0 1 280.6498 327.1101)" class="st7 st8 st9">Johnson 11</text>
	<text transform="matrix(1 0 0 1 280.649 351.4031)" class="st7 st8 st9">Lafayette 11</text>
	<text transform="matrix(1 0 0 1 280.6487 374.4368)" class="st7 st8 st9">Lawrence 11</text>
	<text transform="matrix(1 0 0 1 280.6494 398.0284)" class="st7 st8 st9">Lee 11</text>
	<text transform="matrix(1 0 0 1 280.6495 421.0618)" class="st7 st8 st9">Lincoln 11</text>
	<text transform="matrix(1 0 0 1 280.6491 447.1445)" class="st7 st8 st9">Little River 11</text>
	<text transform="matrix(1 0 0 1 280.6492 470.1781)" class="st7 st8 st9">Logan 11</text>
	<text transform="matrix(1 0 0 1 280.6496 143.6018)" class="st7 st8 st9">Hempstead 11</text>
	<text transform="matrix(1 0 0 1 405.2103 169.8164)" class="st7 st8 st9">Madison 549</text>
	<text transform="matrix(1 0 0 1 405.2101 196.0315)" class="st7 st8 st9">Marion 448</text>
	<text transform="matrix(1 0 0 1 405.2102 222.2461)" class="st7 st8 st9">Miller 263</text>
	<text transform="matrix(1 0 0 1 405.2102 248.4619)" class="st7 st8 st9">Mississippi 18</text>
	<text transform="matrix(1 0 0 1 405.2102 274.6775)" class="st7 st8 st9">Monroe 11</text>
	<text transform="matrix(1 0 0 1 405.2098 300.8928)" class="st7 st8 st9">Montgomery 11</text>
	<text transform="matrix(1 0 0 1 405.2098 327.1096)" class="st7 st8 st9">Nevada 11</text>
	<text transform="matrix(1 0 0 1 405.2091 351.4028)" class="st7 st8 st9">Newton 11</text>
	<text transform="matrix(1 0 0 1 405.2087 374.4365)" class="st7 st8 st9">Ouachita 11</text>
	<text transform="matrix(1 0 0 1 405.2094 398.0281)" class="st7 st8 st9">Perry 11</text>
	<text transform="matrix(1 0 0 1 405.2095 421.0613)" class="st7 st8 st9">Phillips 11</text>
	<text transform="matrix(1 0 0 1 405.2092 447.144)" class="st7 st8 st9">Pike 11</text>
	<text transform="matrix(1 0 0 1 405.2092 470.1777)" class="st7 st8 st9">Poinsett 11</text>
	<text transform="matrix(1 0 0 1 405.2097 143.6016)" class="st7 st8 st9">Lonoke 11</text>
	<text transform="matrix(1 0 0 1 528.9836 169.8164)" class="st7 st8 st9">Pope 549</text>
	<text transform="matrix(1 0 0 1 528.9835 196.0317)" class="st7 st8 st9">Prairie 448</text>
	<text transform="matrix(1 0 0 1 528.9836 222.2463)" class="st7 st8 st9">Pulaski 263</text>
	<text transform="matrix(1 0 0 1 528.9836 248.4622)" class="st7 st8 st9">Randolph 18</text>
	<text transform="matrix(1 0 0 1 528.9836 274.6777)" class="st7 st8 st9">st Francis 11</text>
	<text transform="matrix(1 0 0 1 528.9833 300.8931)" class="st7 st8 st9">Saline 11</text>
	<text transform="matrix(1 0 0 1 528.9833 327.1099)" class="st7 st8 st9">Scott 11</text>
	<text transform="matrix(1 0 0 1 528.9825 351.4028)" class="st7 st8 st9">Searcy 11</text>
	<text transform="matrix(1 0 0 1 528.9822 374.4365)" class="st7 st8 st9">Sebastian 11</text>
	<text transform="matrix(1 0 0 1 528.9828 398.0282)" class="st7 st8 st9">Sevier 11</text>
	<text transform="matrix(1 0 0 1 528.9828 421.0615)" class="st7 st8 st9">Sharp 11</text>
	<text transform="matrix(1 0 0 1 528.9825 447.1443)" class="st7 st8 st9">Stone 11</text>
	<text transform="matrix(1 0 0 1 528.9827 470.1779)" class="st7 st8 st9">Union 11</text>
	<text transform="matrix(1 0 0 1 528.9831 143.6018)" class="st7 st8 st9">Polk 11</text>
	<text transform="matrix(1 0 0 1 156.6368 495.2651)" class="st7 st8 st9">Washington 549</text>
	<text transform="matrix(1 0 0 1 280.65 493.7732)" class="st7 st8 st9">White 448</text>
	<text transform="matrix(1 0 0 1 405.2087 493.7729)" class="st7 st8 st9">Woodruff 263</text>
	<text transform="matrix(1 0 0 1 528.9838 493.7733)" class="st7 st8 st9">Yell 18</text>
	<text transform="matrix(1 0 0 1 32.8486 493.7729)" class="st7 st8 st9">Van Buren 11</text>
</g>
<g id="Counties">
	<polygon id="Poinsett" class="st10" points="878.9,233.6 842.9,235.9 843,251.9 851.3,251.9 851.3,249.2 881.5,249.2 881.5,243.2 
		879.5,243.2 	"/>
	<path id="crittenden_1_" class="st10" d="M890.2,257.1c-0.2-0.7-0.7-2.1-1.4-3.4c-0.6-1.4-1.4-2.9-1.8-4.3l-3,2.2h-13.5v7.2h2.9
		v10.3l4.7-0.2l-0.3,15.8c1-0.4,2.2-0.9,2.6-1.4c-0.1-0.2-0.2-0.6-0.3-1c-0.5-1.6-1.3-4.2,0.6-7.2c1.8-2.8,4.5-3.9,6.6-4.7
		c2.6-1,3.4-1.5,3.8-3.4c0.4-2.6-0.2-5.5-0.6-8.4L890.2,257.1z"/>
	<path id="monroe" class="st10" d="M830,309.4l2.4,2.7l10.3,12.3h2.9v-7H843l-1.1-15.8l-3.8-1.4l0.5-13c-0.5-0.1-0.6-0.3-0.8-0.5
		c-0.5-0.5-0.7-1.9-0.9-3.3h-5.3l-0.6,1.1v4.7h-4.4l1.3,20.2L830,309.4L830,309.4z"/>
	<path id="woodruff" class="st10" d="M826.1,286.8h2.2v-2.9l1.8-2.8h6.5c0.2-0.6,0.9-2.3,4.1-7.8l0.2-1.9l-0.2-12h-11.6v-5.2h-4.7
		l-2,5l0.6,2.2l1.6,8.8l-2.8,5.5l-1.5,1.3l0.1,0.2l5.1,0.8L826.1,286.8z"/>
	<path id="boone" class="st10" d="M739.6,186.7c-0.7,0-1.5,0.1-2.2,0.1c-6.1,0.2-12,0.3-17.9,0.5v23.1l20,0.6L739.6,186.7
		L739.6,186.7z"/>
	<polygon id="garland" class="st10" points="717.9,303.8 717.9,326.4 739.2,326.4 739.2,321.1 743.2,316.7 748.9,316.7 748.9,315.4 
		743.1,311.2 737.4,307.6 737.2,302.6 721.3,301.9 	"/>
	<polygon id="perry" class="st10" points="731.3,284 723.5,292.8 722.4,299.5 732,300 732,294.5 748.9,294.5 748.9,291.7 
		752.3,288.7 758.1,288.7 758.4,287.8 758.4,282.6 759.8,281.2 759.8,281 759.7,281.1 757.5,281.6 735,281.6 	"/>
	<polygon id="conway" class="st10" points="741.2,276.4 739.6,279.2 757.2,279.2 758.6,278.8 759.9,277.9 763.5,260.2 761.7,255.8 
		745.5,255.8 743.3,276.4 	"/>
	<path id="pulaski" class="st10" d="M790,317v-7.9l-3.9-6.4l-0.2-19.9h-2.2l-4.7,2.3l-2.2,5.9h-12.6l-0.3-0.3
		c-0.7-0.6-1.6-1.1-1.8-1.2c-0.3,0.1-1.1-0.1-1.8-0.2l-0.7,1.7h-6.3l-1.9,1.7v1.7h1.1l4.2,4.2l7.4,7.2l9.8,3.3l5.3,2.8v1.8l2.7,3.3
		H790L790,317z"/>
	<path id="marion" class="st10" d="M742.1,211.1l23.6,0.6l-0.1-3.1l-3.4-5.3l-4.1-4l-0.1-13.2c-5.3,0.2-10.8,0.4-16.1,0.5
		L742.1,211.1z"/>
	<polygon id="white" class="st10" points="805.4,279.3 815.9,275.8 818.3,275.8 819.9,274.5 822.1,270 820.7,262.1 819.7,259.2 
		821.9,254 815.8,248.6 801.1,248.6 801.1,256.4 799,261.3 784.9,261.3 784.7,280.5 787.2,280.5 	"/>
	<polygon id="cleburne" class="st10" points="784.9,258.9 797.4,258.9 798.7,255.9 798.7,241.6 797.2,240.6 797.4,236 777.7,238 
		777.3,258.9 783.7,258.9 	"/>
	<path id="faulkner" class="st10" d="M762.3,282.2l-1.5,1.4v3.4c0.6,0.1,1.3,0.2,1.5,0.2c0.3,0,0.9,0,2.9,1.5h10l1.9-5.2l5.1-2.6
		l0.2-19.6h-16.7l-3.5,17.4L762.3,282.2L762.3,282.2L762.3,282.2z"/>
	<path id="lawrence" class="st10" d="M847.9,212.7c0.2-0.6,2.2-4,4.1-7.5h-13v5.1l-5.6-5.3l-3.5-1.9l-4.7-3.5v-0.3h-1.3v21.1
		l15.6,1.4l8.4-5.2C847.6,214.4,847.7,213.1,847.9,212.7z"/>
	<path id="baxter" class="st10" d="M768,211.9L768,211.9v6.4h4.3l4.2-5.2v-2.7c-0.2-0.1-0.5-0.2-0.6-0.5c-0.3-0.3-0.6-0.9-0.3-1.9
		c0.5-1.3,1-3.3,1-3.3l0.1-0.5l2.2-1.5v-10.1l-1.8-7c-5.5,0.2-11.1,0.3-16.7,0.5v12.3l3.6,3.6l3.8,6L768,211.9z"/>
	<path id="greene" class="st10" d="M876.8,199l-2.7-2.9l-21.9,1.9v4.9h4l-1.1,1.8c-2.3,3.9-4.8,8.3-5.1,8.8c-0.1,0.2,0,1.3,0,2.5
		h10.6v-0.9l11.4-1l1.4-4.1c1.4-3.9,3.3-7,5.4-9.9L876.8,199z"/>
	<path id="greene_4_" class="st10" d="M850.1,216"/>
	<path id="clay_1_" class="st10" d="M852.1,183.4c3.6-2,14.2-2.5,18.9-4.3l7.7,6.7l-4.6,8.3l-21.9,1.9L852.1,183.4z"/>
	<path id="randolph" class="st10" d="M831.2,201l3.7,2.1l1.6,1.6v-1.8h13.3v-19.4c-9.7,0.5-19.3,0.7-29,1.1l0.1,0.3l5.2,5.2l1.6,2.9
		v5.4L831.2,201z"/>
	<polygon id="stone" class="st10" points="779.4,210 779.2,209.7 779.2,213.9 773.5,220.6 768.1,220.6 768.1,230.4 776.8,235.6 
		797.4,233.6 797.4,232.6 795.5,230.2 795.5,226.4 784.2,220.3 782.5,217.2 783.7,214.9 	"/>
	<polygon id="independence" class="st10" points="816.3,246.2 816.8,246.2 821.7,246.2 829.7,223.2 805,221.1 797.9,226.3 
		797.9,229.3 799.9,231.8 799.9,235.8 799.8,235.8 799.7,239.4 801.1,240.4 801.1,246.2 	"/>
	<path id="izard" class="st10" d="M803.5,201.4h-21.9v2.8L779,206c-0.1,0.1-0.1,0.3-0.1,0.5l2.3,2.1l5.4,6.2l-1.3,2.7l0.7,1.4
		l10.7,5.7l6.8-5L803.5,201.4L803.5,201.4z"/>
	<path id="fulton" class="st10" d="M781.5,198.9h21.9v-1.4h5l5.7-8.2v-4.7c-11.5,0.4-22.9,0.6-34.5,1l1.8,6.8L781.5,198.9
		L781.5,198.9z"/>
	<path id="sharp" class="st10" d="M825.2,193.4l-1.2-2.2l-5.3-5.3l-0.3-1.4c-0.6,0-1.2,0.1-1.8,0.1v5.5l-6.8,9.9H806v18.8l15.6,1.4
		v-23.5h3.8L825.2,193.4L825.2,193.4z"/>
	<path id="union" class="st10" d="M790,413.3V412l-2.2-2.1v-2.8h-3l-7.3-5.8h-8.3v-1.9l-3.1-3.5h-24.3l1.8,18.3
		C758.4,414.3,774.5,413.9,790,413.3z"/>
	<polygon id="drew" class="st10" points="798.5,389.8 823.2,389.8 823.2,376.6 817.7,366.1 798,366.1 797.8,370.3 797.8,381.6 
		796,382.8 796,389.8 797.2,389.8 	"/>
	<polygon id="bradley" class="st10" points="796.5,395.5 797.2,394.4 797.2,392.2 793.6,392.2 793.6,381.5 795.4,380.2 795.4,371.4 
		777.2,371.4 777.2,372 779.3,374 779.3,389.6 775.7,393.8 775.7,396.1 777.5,399 778.4,399 785.6,404.7 787.9,404.7 787.9,402.2 
		793.2,398.6 	"/>
	<path id="ouachita" class="st10" d="M757.4,391.9c-0.1-0.1-1.9-1.8-2.2-1.9c-0.2-0.2-0.4-0.4-1.5-2.8l-2.9-1.4v-4l2.1-5.2l5.3-2.9
		l1.4-2.1l2.2-5.6H743l-8.6,4.1l-0.1,18.3l6.6,5.1h18.9L757.4,391.9z"/>
	<path id="columbia" class="st10" d="M741.1,414.4l-1.8-18.9l-6.6-5.1H727l-0.6,1.8h-6.7l-2,4.8l-3.4,17.3
		C722.2,414.4,731.4,414.4,741.1,414.4z"/>
	<path id="mississippi" class="st10" d="M906.2,211.9l-1.8,0.2h-1.8c-0.9,0-1.8,0-2.7,0c-3.5,3-11.1,2.9-19.8,2.3l1.6,26.3h2.1v7.9
		l2.9-2.1c0.1-0.6,0.3-1.4,0.6-2c1.1-1.8,3.2-2.5,5.7-3.3c1.1-0.4,3.3-1.1,3.9-1.6c1-1.3,1.3-2.9,1.6-5.4c0.1-0.8,0.2-1.7,0.3-2.5
		c0.8-5.1,3.7-13.4,8.2-18.1C906.7,213.2,906.5,212.6,906.2,211.9z"/>
	<polygon id="pope" class="st10" points="722.8,265.3 726.7,267.3 735.8,274 741.1,274 743.2,254.5 743.2,247.6 745.1,247.6 
		744.9,239.4 737.4,239.4 737.4,239.3 726.9,239.1 726.7,240.9 728.8,243.1 728.8,247.3 727.1,249.3 726.5,252.2 722.5,255.6 
		721.3,255.6 720.8,263.4 722.6,265.1 	"/>
	<polygon id="yell" class="st10" points="707.7,276.3 705.5,278.4 699.8,278.4 698.7,279.2 698.7,284.8 700.7,284.8 700.7,303.5 
		716.3,302 719.8,300 721.3,291.7 729.8,282 734.8,278.8 737.8,277.6 738.4,276.4 735,276.4 725.4,269.3 723.3,268.2 723.3,272.7 
		719.7,272.7 	"/>
	<path id="carroll" class="st10" d="M700.4,198.9l2.1,7.7l3.3,3.3l1.5,0.1l0,0l9.9,0.3v-22.9c-9.6,0.3-18.9,0.6-28.1,0.7l2.6,10.9
		L700.4,198.9L700.4,198.9z"/>
	<path id="desha" class="st10" d="M851.3,342.3l-0.2-0.2c-0.1-0.1-0.3-0.2-0.5-0.4c0,0,0,0-0.1,0H841l-0.8,1.5h-1.3v2.2l3.1,4
		c0.1,0.9,0.2,1.8,0.3,2.6c-0.6,0.9-1.1,1.8-1.6,2.8l-7.2-1.8l-4.1-3.8h-4v1.3l-2.4,2.6h-3.4l0.2,12.4l5.6,10.7v0.3h4.5l3,4.5
		l3.7-0.3c-0.2-0.2-0.3-0.5-0.5-0.6c-1.1-1.8-1-3.2-0.7-4.2c0.4-1.4,1.3-2.6,2.7-3.4c0.2-0.1,0.3-0.3,0.5-0.4
		c-0.1-0.1-0.1-0.2-0.2-0.3c-0.5-0.7-1-1.7-1.4-2.8l-0.2-0.6v-0.6c0-1.8,0.7-3.2,1.3-4.2c0.3-0.5,0.5-0.8,0.6-1.2l0.2-0.5
		c0.3-0.6,0.7-1.5,0.7-1.8v-0.6l0.2-0.6c0.2-0.6,0.3-1.3,0.5-1.9c0.1-0.2,0.1-0.5,0.1-0.6c0.6-0.3,1.1-0.6,1.6-0.8
		c0.7-2.8,1.6-5.6,2.4-8.4c0.9-0.4,1.8-0.7,2.8-1.1C848.6,345.3,849.8,344.2,851.3,342.3C851.3,342.4,851.4,342.4,851.3,342.3
		L851.3,342.3z"/>
	<polygon id="dallas" class="st10" points="765.3,363.6 774.7,363.6 773.2,359.6 767.5,353.9 767.5,346.6 771.3,346.6 767.9,343.1 
		745.1,343.1 745.1,363.6 763.5,363.6 	"/>
	<polygon id="montgomery" class="st10" points="687.9,309.7 687.8,330 711.2,330 715.5,330 715.5,304.5 700.7,306 700.7,306.1 
		696.2,306.1 	"/>
	<polygon id="hot_spring" class="st10" points="754.3,324.4 749.6,319 744.3,319 741.7,322 741.7,328.9 717.9,328.9 717.9,330.7 
		719.9,333.5 723.4,335.4 730.1,335.9 737.3,337.5 739.5,340.6 754.3,340.6 	"/>
	<polygon id="nevada" class="st10" points="713.6,387.9 717.9,387.9 717.9,389.8 724.6,389.8 725.1,387.9 731.8,387.9 731.9,367.9 
		727.1,365.9 720,363.9 718.5,359.1 717.9,359.1 716.8,359.1 716.2,359.1 716.2,384.9 713.6,384.9 	"/>
	<polygon id="logan" class="st10" points="676.1,282.7 677.8,284.8 696.3,284.8 696.3,278 699,276.1 704.4,276.1 706.4,274.2 
		719.6,270.3 720.8,270.3 720.8,266.8 720.1,266.2 718.2,264.5 718.4,262.9 718.4,262.7 710.5,259.3 705.1,263.1 697.8,263.3 
		694.2,265 690.9,269.4 687.9,269.4 684.6,272.7 681.7,272.7 681.7,280.2 676.1,280.2 	"/>
	<polygon id="madison" class="st10" points="705.8,234.6 705.9,226.1 709.6,222.2 709.6,218.4 707.4,218.4 707.3,212.4 704.7,212.3 
		700.3,208 698.6,201.4 691.1,201.4 687,204.1 687.3,207.4 685.8,209.6 685.6,234.9 688.5,234.9 	"/>
	<polygon id="lincoln" class="st10" points="823.2,349.4 823.2,347.8 823.2,346.6 823.2,345.5 817,345.1 808.9,341.2 808.9,345.1 
		798,345.1 798,345.8 798,356.5 796,356.5 796,363.6 817.6,363.6 817.3,350.6 822.2,350.6 	"/>
	<polygon id="arkansas" class="st10" points="825.6,346.6 830.6,346.6 834.9,350.6 840.2,351.9 840.2,350.7 836.5,346.2 
		836.5,340.6 838.9,340.6 840.5,338.1 843.4,326.9 841.7,326.9 830.6,313.7 828.9,311.9 827.6,311.9 827.6,314.4 815.9,314.4 
		815.9,319.4 809.3,319.4 810.8,333.5 819.2,333.5 826.2,340.1 825.6,344.5 	"/>
	<polygon id="jefferson" class="st10" points="823.6,341.1 818.3,335.9 808.6,335.9 806.8,319.4 792.5,319.4 791.2,319.4 
		783.9,319.4 784,319.5 782.7,319.5 782.8,339.8 781.5,339.8 781.4,344 783.1,346.6 787.9,346.6 787.9,344.6 795.6,344.6 
		795.6,342.7 806.5,342.7 806.5,335.9 810.2,339.2 817.7,342.7 823.4,343 	"/>
	<polygon id="cleveland" class="st10" points="795.6,354.1 795.6,347 790.2,347 790.2,349.1 784.7,349.1 782.4,349.1 774.2,349.1 
		773.6,349.1 769.8,349.1 769.8,352.9 775.2,358.3 777.2,363.4 777.2,369.1 795.5,369.1 795.5,367.7 793.6,367.7 793.6,354.1 	"/>
	<polygon id="johnson" class="st10" points="698.7,237.1 698.7,260.8 704.3,260.6 710.3,256.4 718.5,260.1 719,253.2 721.7,253.2 
		724.3,250.9 724.9,248.2 726.4,246.5 726.4,244.1 724.3,241.9 724.4,239.1 715.5,238.8 715.5,237 707,237 707,237 	"/>
	<polygon id="newton" class="st10" points="708.4,227.1 708.2,234.6 717.9,234.6 717.9,236.5 737.5,236.9 737.8,225.7 735.6,225.7 
		735.8,213.3 709.8,212.5 709.8,216 712.1,216 712.1,223.2 	"/>
	<polygon id="clark" class="st10" points="742.4,363.6 742.6,363.6 742.6,343.1 738.3,343.1 735.9,339.7 729.8,338.3 722.7,337.7 
		718.3,335.4 716.1,332.4 713.6,332.4 713.8,341.7 714.9,347.4 720.6,356.7 720.4,356.7 721.9,361.9 727.8,363.6 734.4,366.2 
		734.4,367.5 	"/>
	<path id="calhoun" class="st10" d="M776.8,388.7v-13.6l-2.1-2.1v-7h-10.5l-2.7,6.8l-1.8,2.7l-5.1,2.8l-1.6,3.9v1.8l2.4,1.1l0.2,0.5
		c0.5,1,1,2.2,1.3,2.6c0.5,0.4,1.9,1.8,1.9,1.8l5,3.5h3.2l4.5,5v0.5h2.9l-1.4-2.1v-4.1L776.8,388.7z"/>
	<path id="st_Francis" class="st10" d="M842.9,274.2c-1.8,3-3.7,6.5-4,7.4c0.1,0.6,0.3,2.2,0.6,3.2h0.1l1.5-0.3l-0.1,2.3h20v-2.1
		h14.5l0.3-13.3l-32.6,1l-0.2,1.4L842.9,274.2z"/>
	<path id="craighead" class="st10" d="M877.7,214.3c-0.5-0.1-0.7-0.1-1.1-0.1l-0.7,1.8l-12.8,1.1v1.1h-13.8l-8.2,5.1l1.7,4.8
		l0.1,5.2l35.9-2.2L877.7,214.3z"/>
	<polygon id="cross" class="st10" points="853.8,251.6 853.8,254.4 843.1,254.4 843.3,270.1 871,269.2 871,261.3 868,261.3 
		868,251.6 	"/>
	<polygon id="jackson" class="st10" points="840.7,257 840.3,228.5 838.8,224.1 832.2,223.4 823.6,248.6 819.5,248.6 823.1,251.9 
		831.6,251.9 831.6,257 	"/>
	<polygon id="van_buren" class="st10" points="745.6,253.3 763.3,253.3 765.5,258.9 774.8,258.9 775.2,237.5 766.6,232.4 
		756.7,233.5 756.7,239.4 747.3,239.4 747.5,250 745.6,250 	"/>
	<path id="phillips" class="st10" d="M851.5,330.5c0.5-0.5,1.2-1.1,1.4-1.4l0.3-0.5c0.5-0.6,0.9-1.1,1.4-1.8
		c1.3-1.6,2.7-3.3,3.4-5.1c0.1-1.4,0.4-3.5,2.5-4.8c1.8-1.5,4-1.3,5.3-1.2c0.3,0.1,0.6,0.1,1,0.1s1.2,0,1.8-0.1
		c0.1-0.2,0.1-0.3,0.1-0.5l-0.1-0.2c-0.1-0.3-0.3-0.6-0.6-0.9c-0.5-0.6-1.1-1.5-1.3-2.8c-0.5-1.6-0.6-3.3-0.3-5l-21.7-0.5l0.6,8.8
		h2.9v11.9H846l-3.4,12.3v0.1h6c-0.2-0.3-0.4-0.6-0.5-1l-0.1-0.5C847.4,334.3,849.8,332,851.5,330.5z"/>
	<polygon id="prairie" class="st10" points="825.2,310.7 823.3,280.4 819,279.6 818.1,278.2 816.1,278.2 805.8,281.6 803.1,281.8 
		803.1,286.8 809.4,286.8 813.1,311.9 825.2,311.9 	"/>
	<path id="lee" class="st10" d="M875.3,288.1v-0.9h-12v2.1h-22.5l-0.3,9.2l3.6,1.4l0.3,3.9l22.5,0.5l0.1-0.2
		c0.5-0.7,0.9-1.5,1.4-2.1c0.3-0.5,0.6-0.9,0.7-1.1c1.7-3.3,2.6-6.4,3.5-9.9l0,0l0.7-3L875.3,288.1z"/>
	<polygon id="grant" class="st10" points="780.4,337.4 780.2,319.4 770.1,319 760.5,325 756.7,325.1 756.7,340.6 768.9,340.6 
		774.7,346.6 780.3,346.6 778.9,344.6 779.2,337.4 	"/>
	<polygon id="searcy" class="st10" points="746.1,236.9 747.3,236.9 754.3,236.9 754.3,231.3 765.7,230.1 765.7,218.2 765.7,214.2 
		738.3,213.3 738.1,223.3 740.3,223.3 739.9,236.9 	"/>
	<polygon id="lonoke" class="st10" points="807.2,289.2 800.7,289.2 800.7,281.9 788.4,282.8 788.5,302.1 792.5,308.5 792.5,317 
		809.9,317 809,316.6 810.7,312.9 	"/>
	<polygon id="saline" class="st10" points="756,322.7 759.6,322.6 769.5,316.6 778.8,316.9 776.8,314.6 776.8,313.4 772.9,311.3 
		762.8,308 755,300.4 751.5,296.8 734.4,296.8 734.4,300 739.6,300.2 739.8,306.2 744.4,309.2 751.3,314.2 751.3,317.4 	"/>
	<path id="miller" class="st10" d="M701.3,402.7l0.6-3.5l-7.5-16.3l-1.1-2.2h-1l-2.1,1.8l-4.5,1.8V414c2,0.1,4.9,0.1,8.6,0.2v-3.8
		l3.7-1.8L701.3,402.7z"/>
	<polygon id="sebastian" class="st10" points="662,259 660.9,259 660.9,291 662.5,291 663.2,288.7 668.4,288.7 668.4,281.3 
		671,281.3 671,278.7 673.7,278.7 673.7,277.8 679.3,277.8 679.3,266.4 677.2,266.4 677.4,259 676.1,259 676.1,262.9 674.5,263 
		674.5,265.3 665.3,265.3 662.8,263 662.8,259.7 	"/>
	<polygon id="polk" class="st10" points="685.3,330 685.5,310.2 664.9,310.2 660.9,309.1 660.9,340.6 669.6,340.6 668.4,338.9 
		668.4,330 	"/>
	<polygon id="scott" class="st10" points="695.6,303.7 698.2,303.7 698.2,287.2 676.6,287.2 673.7,283.5 673.7,281.2 673.4,281.2 
		673.4,283.7 670.8,283.7 670.8,291.1 665,291.1 664.4,293.4 660.9,293.4 660.9,306.5 665.5,307.8 686.4,307.8 	"/>
	<path id="chicot" class="st10" d="M844.2,402.9c0-1.8-0.4-2.4-1.5-4.1c-0.2-0.3-0.5-0.6-0.6-1c-1.4-1.5-2.1-3-2.7-4.8
		c-0.2-0.5-0.5-1-0.7-1.7c-0.6-1.1-1.1-2.5-1.6-4.1l-0.1-0.4v-0.4c0-1.6,0.6-2.8,1.4-3.7l-6.4,0.6l-3.1-4.6h-3.2V402l2.5,1.3v7.6
		c3.3-0.3,6.4-0.6,9.4-1v-0.3h6.7v-6.7H844.2L844.2,402.9z"/>
	<polygon id="franklin" class="st10" points="679.7,263.9 681.7,263.9 681.7,270.3 683.4,270.3 686.9,267 689.6,267 692.7,263 
		696.3,261.3 696.3,237.1 689.1,237.2 681.9,243.6 682.2,255 679.9,257.3 	"/>
	<path id="benton" class="st10" d="M689.3,199.6l-2.7-11.5c-11.9,0.3-25.3,0.6-36.6,0.9l5.4,22.4l3.8-0.2l3.9-7.5h11.3l10.9-1.6
		L689.3,199.6z"/>
	<polygon id="washington" class="st10" points="664.6,206.3 660.8,213.7 655.9,213.9 659.4,236.5 670.5,236.5 670.5,234.9 
		683.3,234.9 683.4,208.8 684.8,206.8 684.6,204.8 674.5,206.3 	"/>
	<polygon id="pike" class="st10" points="715.2,356.7 715.5,356.7 715.5,354.2 716.2,354.2 712.5,348.1 711.4,341.9 711.2,332.4 
		687.7,332.4 687.7,337 688.6,340.6 695.1,340.6 695.1,351.8 	"/>
	<path id="little_river" class="st10" d="M689.1,380.2l1.6-1.4l0.1-1.7l-3.3-2l-2.5-3.8h-5.2l-8.8-1.9l-10-6.1v15.1
		c1.8,0.9,3.7,1.6,5,1.6c0.5,0,1.5-0.8,2.2-1.3c1.4-1,2.9-2.1,5-2.2c2.9-0.1,4.7,1.6,5.7,2.6c0.9,0.9,1,0.8,1.3,0.8l1.5-0.1l2.5,2.5
		L689.1,380.2z"/>
	<polygon id="crawford" class="st10" points="660.9,256.6 662.9,256.6 665.2,258.6 665.2,261.9 666.2,262.8 672.1,262.8 672.1,261 
		673.7,260.8 673.7,260.5 671.9,260 671.9,256.6 677.5,256.6 677.5,256.3 679.7,254 679.5,242.5 685.4,237.3 684.5,237.3 
		683.2,237.3 672.9,237.3 672.9,238.9 659.8,238.9 660.9,246.4 	"/>
	<polygon id="sevier" class="st10" points="680.2,369.1 683.5,369.1 677.3,355.7 677.3,343.1 660.9,343.1 660.9,360.5 672.1,367.2 	
		"/>
	<polygon id="howard" class="st10" points="692.7,369.1 692.7,343.1 686.8,343.1 685.3,337.3 685.3,332.4 670.8,332.4 670.8,338.2 
		672.7,340.6 679.7,340.6 679.7,355.2 686.3,369.1 	"/>
	<polygon id="hempstead" class="st10" points="693.2,376 693.1,378.3 694.8,378.3 696.6,381.8 699.4,387.9 711.2,387.9 711.2,382.5 
		713.8,382.5 713.8,358.8 695.1,354.3 695.1,371.4 687.9,371.4 689.2,373.5 	"/>
	<path id="lafayette" class="st10" d="M715.3,396.2l1.8-4h-1.5v-1.8h-15l3.9,8.5l-0.7,4.7l-4,6.8l-2.9,1.5v2.3
		c4.2,0.1,9.4,0.1,15,0.2L715.3,396.2z"/>
	<path id="ashley" class="st10" d="M825.7,404.8l-2.5-1.3v-11.4h-23.6v3l-1.4,2l-3.7,3.4l-4.3,2.9v1.3v1.2v2.9l2.2,2.1v2.2
		c11.6-0.5,22.9-1.1,33.2-2.1L825.7,404.8L825.7,404.8z"/>
</g>
<g id="Balls">
	<circle id="little_river_circle" class="st0" cx="672.2" cy="374.5" r="9.8"/>
	<text id="little_river_numbers" transform="matrix(1 2.629991e-03 -2.629991e-03 1 665.3268 376.7302)" class="st11 st8 st12">100</text>
	<circle id="sevier_circle" class="st0" cx="665.3" cy="351.6" r="9.8"/>
	<text id="sevier_numbers" transform="matrix(1 2.629991e-03 -2.629991e-03 1 658.3763 353.8169)" class="st11 st8 st12">100</text>
	<circle id="howard_circle" class="st0" cx="686.5" cy="351.6" r="9.8"/>
	<text id="howard_numbers" transform="matrix(1 2.629991e-03 -2.629991e-03 1 679.5288 353.8167)" class="st11 st8 st12">100</text>
	<circle id="pike_circle" class="st0" cx="703" cy="343.6" r="9.8"/>
	<text id="pike_numbers" transform="matrix(1 2.629991e-03 -2.629991e-03 1 696.0389 345.9153)" class="st11 st8 st12">100</text>
	<circle id="hempstead_circle" class="st0" cx="702" cy="371" r="9.8"/>
	<text id="hempstead_numbers" transform="matrix(1 2.629991e-03 -2.629991e-03 1 695.0344 373.2664)" class="st11 st8 st12">100</text>
	<circle id="clark_circle" class="st0" cx="729.8" cy="350.7" r="9.8"/>
	<text id="clark_numbers" transform="matrix(1 2.629991e-03 -2.629991e-03 1 722.8116 352.9634)" class="st11 st8 st12">100</text>
	<circle id="nevada_circle" class="st0" cx="723.5" cy="376.5" r="9.8"/>
	<text id="nevada_numbers" transform="matrix(1 2.629991e-03 -2.629991e-03 1 716.5777 378.7644)" class="st11 st8 st12">100</text>
	<circle id="miller_circle" class="st0" cx="689.1" cy="397.3" r="9.8"/>
	<text id="miller_numbers" transform="matrix(1 2.629991e-03 -2.629991e-03 1 682.169 399.6428)" class="st11 st8 st12">100</text>
	<circle id="lafayette_circle" class="st0" cx="708.8" cy="402.7" r="9.8"/>
	<text id="lafayette_numbers" transform="matrix(1 2.629991e-03 -2.629991e-03 1 701.8778 404.9722)" class="st11 st8 st12">100</text>
	<circle id="ouachita_circle" class="st0" cx="744.4" cy="378.8" r="9.8"/>
	<text id="ouachita_numbers" transform="matrix(1 2.629991e-03 -2.629991e-03 1 737.4935 381.1116)" class="st11 st8 st12">100</text>
	<circle id="columbia_circle" class="st0" cx="728.1" cy="404.7" r="9.8"/>
	<text id="columbia_numbers" transform="matrix(1 2.629991e-03 -2.629991e-03 1 721.1558 406.9985)" class="st11 st8 st12">100</text>
	<circle id="calhoun_circle" class="st0" cx="766.2" cy="381" r="9.8"/>
	<text id="calhoun_numbers" transform="matrix(1 2.629991e-03 -2.629991e-03 1 759.1987 383.3464)" class="st11 st8 st12">100</text>
	<circle id="union_circle" class="st0" cx="761.7" cy="405.6" r="9.8"/>
	<text id="union_numbers" transform="matrix(1 2.629991e-03 -2.629991e-03 1 754.7883 407.9385)" class="st11 st8 st12">100</text>
	<circle id="bradley_circle" class="st0" cx="785.9" cy="386.2" r="9.8"/>
	<text id="bradley_numbers" transform="matrix(1 2.629991e-03 -2.629991e-03 1 778.9568 388.489)" class="st11 st8 st12">100</text>
	<circle id="dallas_circle" class="st0" cx="756.8" cy="353.4" r="9.8"/>
	<text id="dallas_numbers" transform="matrix(1 2.629991e-03 -2.629991e-03 1 749.8799 355.6401)" class="st11 st8 st12">100</text>
	<circle id="hot_spring_circle" class="st0" cx="743.4" cy="331.9" r="9.8"/>
	<text id="hot_spring_numbers" transform="matrix(1 2.629991e-03 -2.629991e-03 1 736.4871 334.1709)" class="st11 st8 st12">100</text>
	<circle id="cleveland_circle" class="st0" cx="783.6" cy="359.1" r="9.8"/>
	<text id="cleveland_numbers" transform="matrix(1 2.629991e-03 -2.629991e-03 1 776.6151 361.3579)" class="st11 st8 st12">100</text>
	<circle id="ashley_circle" class="st0" cx="809.6" cy="402.7" r="9.8"/>
	<text id="ashley_numbers" transform="matrix(1 2.629991e-03 -2.629991e-03 1 802.691 404.9717)" class="st11 st8 st12">100</text>
	<circle id="drew_circle" class="st0" cx="810" cy="378.8" r="9.8"/>
	<text id="drew_numbers" transform="matrix(1 2.629991e-03 -2.629991e-03 1 803.119 381.1123)" class="st11 st8 st12">100</text>
	<circle id="chicot_circle" class="st0" cx="834.9" cy="396" r="9.8"/>
	<text id="chicot_numbers" transform="matrix(1 2.629991e-03 -2.629991e-03 1 827.9287 398.2136)" class="st11 st8 st12">100</text>
	<circle id="grant_circle" class="st0" cx="769.8" cy="330.7" r="9.8"/>
	<text id="grant_numbers" transform="matrix(1 2.629991e-03 -2.629991e-03 1 762.8721 333.0178)" class="st11 st8 st12">100</text>
	<circle id="jefferson_circle" class="st0" cx="794.8" cy="330" r="9.8"/>
	<text id="jefferson_numbers" transform="matrix(1 2.629991e-03 -2.629991e-03 1 787.9017 332.248)" class="st11 st8 st12">100</text>
	<circle id="lincoln_circle" class="st0" cx="808" cy="353.4" r="9.8"/>
	<text id="lincoln_numbers" transform="matrix(1 2.629991e-03 -2.629991e-03 1 801.0532 355.6404)" class="st11 st8 st12">100</text>
	<circle id="desha_circle" class="st0" cx="832.6" cy="361.2" r="9.8"/>
	<text id="desha_numbers" transform="matrix(1 2.629991e-03 -2.629991e-03 1 825.6693 363.5415)" class="st11 st8 st12">100</text>
	<circle id="arkansas_circle" class="st0" cx="826.3" cy="329.8" r="9.8"/>
	<text id="arkansas_numbers" transform="matrix(1 2.629991e-03 -2.629991e-03 1 819.3516 332.0701)" class="st11 st8 st12">100</text>
	<circle id="monroe_circle" class="st0" cx="832.6" cy="304.5" r="9.8"/>
	<text id="monroe_numbers" transform="matrix(1 2.629991e-03 -2.629991e-03 1 825.6691 306.7766)" class="st11 st8 st12">100</text>
	<circle id="phillips_circle" class="st0" cx="855.6" cy="317" r="9.8"/>
	<text id="phillips_numbers" transform="matrix(1 2.629991e-03 -2.629991e-03 1 848.6696 319.3042)" class="st11 st8 st12">100</text>
	<circle id="lee_circle" class="st0" cx="848.8" cy="294.5" r="9.8"/>
	<text id="lee_numbers" transform="matrix(1 2.629991e-03 -2.629991e-03 1 841.8655 296.7439)" class="st11 st8 st12">100</text>
	<circle id="st_Francis_circle" class="st0" cx="867" cy="278.2" r="9.8"/>
	<text id="st_Francis_numbers" transform="matrix(1 2.629991e-03 -2.629991e-03 1 860.0831 280.5256)" class="st11 st8 st12">100</text>
	<circle id="prairie_circle" class="st0" cx="817.4" cy="291" r="9.8"/>
	<text id="prairie_numbers" transform="matrix(1 2.629991e-03 -2.629991e-03 1 810.4702 293.2607)" class="st11 st8 st12">100</text>
	<circle id="lonoke_circle" class="st0" cx="797.9" cy="300" r="9.8"/>
	<text id="lonoke_numbers" transform="matrix(1 2.629991e-03 -2.629991e-03 1 791.0207 302.2278)" class="st11 st8 st12">100</text>
	<circle id="garland_circle" class="st0" cx="728.1" cy="313.3" r="9.8"/>
	<text id="garland_numbers" transform="matrix(1 2.629991e-03 -2.629991e-03 1 721.1559 315.5999)" class="st11 st8 st12">100</text>
	<circle id="saline_circle" class="st0" cx="753.2" cy="308.7" r="9.8"/>
	<text id="saline_numbers" transform="matrix(1 2.629991e-03 -2.629991e-03 1 746.2113 310.9631)" class="st11 st8 st12">100</text>
	<circle id="pulaski_circle" class="st0" cx="773.4" cy="299.5" r="9.8"/>
	<text id="pulaski_numbers" transform="matrix(1 2.629991e-03 -2.629991e-03 1 766.556 301.76)" class="st11 st8 st12">100</text>
	<circle id="perry_circle" class="st0" cx="739.5" cy="288.7" r="9.8"/>
	<text id="perry_numbers" transform="matrix(1 2.629991e-03 -2.629991e-03 1 732.5364 290.9216)" class="st11 st8 st12">100</text>
	<circle id="montgomery_circle" class="st0" cx="703" cy="319" r="9.8"/>
	<text id="montgomery_numbers" transform="matrix(1 2.629991e-03 -2.629991e-03 1 696.0393 321.28)" class="st11 st8 st12">100</text>
	<circle id="polk_circle" class="st0" cx="672.2" cy="320.1" r="9.8"/>
	<text id="polk_numbers" transform="matrix(1 2.629991e-03 -2.629991e-03 1 665.3263 322.3452)" class="st11 st8 st12">100</text>
	<circle id="scott_circle" class="st0" cx="680" cy="296.9" r="9.8"/>
	<text id="scott_numbers" transform="matrix(1 2.629991e-03 -2.629991e-03 1 673.1539 299.1873)" class="st11 st8 st12">100</text>
	<circle id="sebastian_circle" class="st0" cx="667.8" cy="274" r="9.8"/>
	<text id="sebastian_numbers" transform="matrix(1 2.629991e-03 -2.629991e-03 1 660.8967 276.2627)" class="st11 st8 st12">100</text>
	<circle id="logan_circle" class="st0" cx="699.1" cy="271.1" r="9.8"/>
	<text id="logan_numbers" transform="matrix(1 2.629991e-03 -2.629991e-03 1 692.1537 273.3035)" class="st11 st8 st12">100</text>
	<circle id="yell_circle" class="st0" cx="715.5" cy="284.8" r="9.8"/>
	<text id="yell_numbers" transform="matrix(1 2.629991e-03 -2.629991e-03 1 708.5766 287.0747)" class="st11 st8 st12">100</text>
	<circle id="conway_circle" class="st0" cx="751.9" cy="267.5" r="9.8"/>
	<text id="conway_numbers" transform="matrix(1 2.629991e-03 -2.629991e-03 1 744.9379 269.7388)" class="st11 st8 st12">100</text>
	<circle id="faulkner_circle" class="st0" cx="772.2" cy="274" r="9.8"/>
	<text id="faulkner_numbers" transform="matrix(1 2.629991e-03 -2.629991e-03 1 765.3417 276.2627)" class="st11 st8 st12">100</text>
	<circle id="white_circle" class="st0" cx="805.3" cy="267.1" r="9.8"/>
	<text id="white_numbers" transform="matrix(1 2.629991e-03 -2.629991e-03 1 798.4059 269.4009)" class="st11 st8 st12">100</text>
	<circle id="woodruff_circle" class="st0" cx="830.6" cy="270.1" r="9.8"/>
	<text id="woodruff_numbers" transform="matrix(1 2.629991e-03 -2.629991e-03 1 823.6394 272.416)" class="st11 st8 st12">100</text>
	<circle id="cross_circle" class="st0" cx="854.8" cy="261.3" r="9.8"/>
	<text id="cross_numbers" transform="matrix(1 2.629991e-03 -2.629991e-03 1 847.822 263.5791)" class="st11 st8 st12">100</text>
	<circle id="crittenden_circle" class="st0" cx="881.5" cy="261.3" r="9.8"/>
	<text id="crittenden_numbers" transform="matrix(1 2.629991e-03 -2.629991e-03 1 874.5565 263.5791)" class="st11 st8 st12">100</text>
	<circle id="Poinsett_circle" class="st0" cx="868.5" cy="241.5" r="9.8"/>
	<text id="Poinsett_numbers" transform="matrix(1 2.629991e-03 -2.629991e-03 1 861.6135 243.7217)" class="st11 st8 st12">100</text>
	<circle id="mississippi_circle" class="st0" cx="889.9" cy="226.9" r="9.8"/>
	<text id="mississippi_numbers" transform="matrix(1 2.629991e-03 -2.629991e-03 1 882.9821 229.166)" class="st11 st8 st12">100</text>
	<circle id="craighead_circle" class="st0" cx="852" cy="226" r="9.8"/>
	<text id="craighead_numbers" transform="matrix(1 2.629991e-03 -2.629991e-03 1 845.0827 228.3083)" class="st11 st8 st12">100</text>
	<circle id="jackson_circle" class="st0" cx="832.6" cy="241.5" r="9.8"/>
	<text id="jackson_numbers" transform="matrix(1 2.629991e-03 -2.629991e-03 1 825.6689 243.7212)" class="st11 st8 st12">100</text>
	<circle id="independence_circle" class="st0" cx="812.6" cy="233.4" r="9.8"/>
	<text id="independence_numbers" transform="matrix(1 2.629991e-03 -2.629991e-03 1 805.6794 235.612)" class="st11 st8 st12">100</text>
	<circle id="cleburne_circle" class="st0" cx="788" cy="248.1" r="9.8"/>
	<text id="cleburne_numbers" transform="matrix(1 2.629991e-03 -2.629991e-03 1 781.0339 250.4038)" class="st11 st8 st12">100</text>
	<circle id="Benton_circle" class="st0" cx="670.4" cy="196" r="9.8"/>
	<text id="Benton_numbers" transform="matrix(1 2.629991e-03 -2.629991e-03 1 663.429 198.289)" class="st11 st8 st12">100</text>
	<circle id="carroll_circle" class="st0" cx="706.9" cy="196" r="9.8"/>
	<text id="carroll_numbers" transform="matrix(1 2.629991e-03 -2.629991e-03 1 699.9731 198.2888)" class="st11 st8 st12">100</text>
	<circle id="van_buren_circle" class="st0" cx="763.8" cy="244.6" r="9.8"/>
	<text id="van_buren_numbers" transform="matrix(1 2.629991e-03 -2.629991e-03 1 756.831 246.9075)" class="st11 st8 st12">100</text>
	<circle id="pope_circle" class="st0" cx="733.2" cy="254.6" r="9.8"/>
	<text id="pope_numbers" transform="matrix(1 2.629991e-03 -2.629991e-03 1 726.3028 256.8208)" class="st11 st8 st12">100</text>
	<circle id="johnson_circle" class="st0" cx="709.9" cy="246.2" r="9.8"/>
	<text id="johnson_numbers" transform="matrix(1 2.629991e-03 -2.629991e-03 1 702.9907 248.4519)" class="st11 st8 st12">100</text>
	<circle id="franklin_circle" class="st0" cx="689.3" cy="252.4" r="9.8"/>
	<text id="franklin_numbers" transform="matrix(1 2.629991e-03 -2.629991e-03 1 682.4294 254.5859)" class="st11 st8 st12">100</text>
	<circle id="crawford_circle" class="st0" cx="670.1" cy="248.9" r="9.8"/>
	<text id="crawford_numbers" transform="matrix(1 2.629991e-03 -2.629991e-03 1 663.1697 251.1806)" class="st11 st8 st12">100</text>
	<circle id="washington_circle" class="st0" cx="670.6" cy="221.1" r="9.8"/>
	<text id="washington_numbers" transform="matrix(1 2.629991e-03 -2.629991e-03 1 663.7408 223.3965)" class="st11 st8 st12">100</text>
	<circle id="madison_circle" class="st0" cx="696.2" cy="220.1" r="9.8"/>
	<text id="madison_numbers" transform="matrix(1 2.629991e-03 -2.629991e-03 1 689.2534 222.4087)" class="st11 st8 st12">100</text>
	<circle id="newton_circle" class="st0" cx="722.7" cy="224.6" r="9.8"/>
	<text id="newton_numbers" transform="matrix(1 2.629991e-03 -2.629991e-03 1 715.7387 226.9311)" class="st11 st8 st12">100</text>
	<circle id="searcy_circle" class="st0" cx="749.2" cy="223.8" r="9.8"/>
	<text id="searcy_numbers" transform="matrix(1 2.629991e-03 -2.629991e-03 1 742.2607 226.0735)" class="st11 st8 st12">100</text>
	<circle id="stone_circle" class="st0" cx="778.6" cy="226.6" r="9.8"/>
	<text id="stone_numbers" transform="matrix(1 2.629991e-03 -2.629991e-03 1 771.7086 228.8655)" class="st11 st8 st12">100</text>
	<circle id="izard_circle" class="st0" cx="792.2" cy="211.9" r="9.8"/>
	<text id="izard_numbers" transform="matrix(1 2.629991e-03 -2.629991e-03 1 785.3411 214.1955)" class="st11 st8 st12">100</text>
	<circle id="greene_circle" class="st0" cx="862.1" cy="208" r="9.8"/>
	<text id="greene_numbers" transform="matrix(1 2.629991e-03 -2.629991e-03 1 855.2455 210.248)" class="st11 st8 st12">100</text>
	<circle id="lawrence_circle" class="st0" cx="835.5" cy="213.3" r="9.8"/>
	<text id="lawrence_numbers" transform="matrix(1 2.629991e-03 -2.629991e-03 1 828.6296 215.5991)" class="st11 st8 st12">100</text>
	<circle id="clay_circle" class="st0" cx="864.5" cy="186.3" r="9.8"/>
	<text id="clay_numbers" transform="matrix(1 2.629991e-03 -2.629991e-03 1 857.5467 188.5642)" class="st11 st8 st12">100</text>
	<circle id="randolph_circle" class="st0" cx="837.6" cy="191.7" r="9.8"/>
	<text id="randolph_numbers" transform="matrix(1 2.629991e-03 -2.629991e-03 1 830.7244 194.0522)" class="st11 st8 st12">100</text>
	<circle id="sharp_circle" class="st0" cx="813.8" cy="206" r="9.8"/>
	<text id="sharp_numbers" transform="matrix(1 2.629991e-03 -2.629991e-03 1 806.9018 208.2434)" class="st11 st8 st12">100</text>
	<circle id="fulton_circle" class="st0" cx="795.6" cy="191.7" r="9.8"/>
	<text id="fulton_numbers" transform="matrix(1 2.629991e-03 -2.629991e-03 1 788.6812 194.052)" class="st11 st8 st12">100</text>
	<circle id="baxter_circle" class="st0" cx="770.7" cy="198.3" r="9.8"/>
	<text id="baxter_numbers" transform="matrix(1 2.629991e-03 -2.629991e-03 1 763.7822 200.5237)" class="st11 st8 st12">100</text>
	<circle id="marion_circle" class="st0" cx="751.3" cy="199.8" r="9.8"/>
	<text id="marion_numbers" transform="matrix(1 2.629991e-03 -2.629991e-03 1 744.444 202.0315)" class="st11 st8 st12">100</text>
	<circle id="boone_circle" class="st0" cx="729.6" cy="199.2" r="9.8"/>
	<text id="boone_numbers_1_" transform="matrix(1 2.629991e-03 -2.629991e-03 1 722.6896 201.4599)" class="st11 st8 st12">100</text>
</g>
<g id="table_data">
	<text transform="matrix(1 0 0 1 23.0476 609.1669)" class="st3 st8 st9">Confirmed Cases</text>
	<text transform="matrix(1 0 0 1 23.0476 653.0985)" class="st3 st8 st9">Deaths</text>
	<text id="current_date" transform="matrix(1 0 0 1 206.5772 564.8845)" class="st3 st8 st9">6 Apr. 2020</text>
	<text id="previous_date" transform="matrix(1 0 0 1 341.3554 564.8845)" class="st3 st8 st9">5 Apr. 2020</text>
	<text id="growth_rate__x25_" transform="matrix(1 0 0 1 460.4236 564.8845)" class="st3 st8 st9">Growth Rate %</text>
	<text transform="matrix(1 0 0 1 675.6986 564.8845)" class="st3 st8 st9">Total Confirmed Cases</text>
	<text id="current_сases" transform="matrix(1 0 0 1 229.4328 612.9188)" class="st13 st8 st6">783</text>
	<text id="previous_deaths" transform="matrix(1 0 0 1 372.1459 657.3983)" class="st13 st8 st6">14</text>
	<text id="current_deaths" transform="matrix(1 0 0 1 232.9531 656.4186)" class="st13 st8 st6">15</text>
	<text id="total_cases" transform="matrix(1 0 0 1 716.3204 642.062)" class="st14 st8 st15">783</text>
	<text id="previous_сases" transform="matrix(1 0 0 1 364.2331 612.9188)" class="st13 st8 st6">673</text>
	<text id="cases_growth_rate" transform="matrix(1 0 0 1 494.1462 614.4551)" class="st13 st8 st6">16 %</text>
	<text id="death_growth_rate" transform="matrix(1 0 0 1 498.5455 658.9343)" class="st13 st8 st6">7 %</text>
</g>
</svg>
