<?xml version="1.0" encoding="utf-8"?>
<!-- Generator: Adobe Illustrator 24.1.2, SVG Export Plug-In . SVG Version: 6.00 Build 0)  -->
<svg version="1.1" id="Layer" xmlns="http://www.w3.org/2000/svg" xmlns:xlink="http://www.w3.org/1999/xlink" x="0px" y="0px"
	 viewBox="0 0 916.5 740.2" style="enable-background:new 0 0 916.5 740.2;" xml:space="preserve">
<style type="text/css">
	.st0{fill:#F5FBFE;}
	.st1{fill:#DDEEFA;}
	.st2{fill:#255078;}
	.st3{font-family:'Georgia';}
	.st4{font-size:18px;}
	.st5{font-size:16px;}
	.st6{fill:#4C4B4D;}
	.st7{font-family:'ArialMT';}
	.st8{font-size:14px;}
	.st9{fill:#CD483B;}
	.st10{fill:none;}
	.st11{fill:#AEDBF5;}
	.st12{fill:#FFFFFF;}
	.st13{font-size:6.2616px;}
	.st14{fill:#4C4B4C;}
	.st15{fill:#DB3029;}
	.st16{font-size:36px;}
</style>
<g id="Texts">
	<polygon id="blue_bg" class="st0" points="0,604.8 0,641.8 0,651.4 0,740.2 173.5,740.2 173.5,651.4 915,651.4 915,604.8 	"/>
	<path id="line_bg" class="st1" d="M916.5-0.3H0v130.2v475.3v2v43v2v43v2v43l0,0h579.8l0,0H913l0,0h3.5V-0.3z M913,56.6v548.5H578.4
		l-0.6-0.3v0.3H443.6l-0.6-0.3v0.3H3V56.6H913z M913,607.2v43H579.8v-43H913z M445.1,650.2v-43h132.8v43H445.1z M577.8,652.2v43
		H445.1v-43H577.8z M310.3,650.2v-43h132.8v43H310.3z M443.1,652.2v43H310.3v-43H443.1z M175.5,650.2v-43h132.8v43H175.5z
		 M308.3,652.2v43H175.5v-43H308.3z M173.5,607.2v43H3v-43H173.5z M173.5,652.2v43H3v-43H173.5z M3,697.2h170.5v40H3V697.2z
		 M175.5,697.2h132.8v40H175.5V697.2z M310.3,697.2h132.8v40H310.3V697.2z M445.1,697.2h132.8v40H445.1V697.2z M579.8,652.2H913v85
		H579.8V652.2z"/>
	<text id="title" transform="matrix(1 0 0 1 22.167 35.8372)" class="st2 st3 st4">COVID-19 in California on</text>
	<text id="date" transform="matrix(1 0 0 1 241.4693 35.8372)" class="st2 st3 st4">April 7th, 2020</text>
	<text transform="matrix(1 0 0 1 30.4982 117.2645)" class="st2 st3 st5">State Confirmed Cases By County</text>
	<g>
		<text transform="matrix(1 0 0 1 30.5198 160.1023)" class="st6 st7 st8">Alameda  10</text>
		<text transform="matrix(1 0 0 1 30.5198 186.4476)" class="st6 st7 st8">Alpine  10</text>
		<text transform="matrix(1 0 0 1 30.5198 212.7928)" class="st6 st7 st8">Amador  10</text>
		<text transform="matrix(1 0 0 1 30.4983 239.1378)" class="st6 st7 st8">Butte  10</text>
		<text transform="matrix(1 0 0 1 30.4983 265.483)" class="st6 st7 st8">Calaveras  10</text>
		<text transform="matrix(1 0 0 1 30.4983 291.8286)" class="st6 st7 st8">Colusa  10</text>
		<text transform="matrix(1 0 0 1 30.4983 318.174)" class="st6 st7 st8">Contra Costa  10</text>
		<text transform="matrix(1 0 0 1 30.4983 344.5194)" class="st6 st7 st8">Del Norte  10</text>
		<text transform="matrix(1 0 0 1 30.4983 370.8639)" class="st6 st7 st8">El Dorado  10</text>
		<text transform="matrix(1 0 0 1 30.4984 397.2096)" class="st6 st7 st8">Fresno  10</text>
		<text transform="matrix(1 0 0 1 30.4984 423.5549)" class="st6 st7 st8">Glenn  10</text>
		<text transform="matrix(1 0 0 1 30.4985 449.8997)" class="st6 st7 st8">Humboldt   10</text>
		<text transform="matrix(1 0 0 1 30.4985 476.2451)" class="st6 st7 st8">Imperial  10</text>
		<text transform="matrix(1 0 0 1 30.4985 502.5902)" class="st6 st7 st8">Inyo  10</text>
		<text transform="matrix(1 0 0 1 30.4985 528.9355)" class="st6 st7 st8">Kern  10</text>
		<text transform="matrix(1 0 0 1 171.1994 160.1021)" class="st6 st7 st8">Kings  10</text>
		<text transform="matrix(1 0 0 1 171.1994 186.4468)" class="st6 st7 st8">Lake  10</text>
		<text transform="matrix(1 0 0 1 171.1994 212.7924)" class="st6 st7 st8">Lassen  10</text>
		<text transform="matrix(1 0 0 1 171.1995 239.1375)" class="st6 st7 st8">Los Angeles  10</text>
		<text transform="matrix(1 0 0 1 171.1995 265.4827)" class="st6 st7 st8">Madera  10</text>
		<text transform="matrix(1 0 0 1 171.1994 291.8284)" class="st6 st7 st8">Marin  10</text>
		<text transform="matrix(1 0 0 1 171.1994 318.1733)" class="st6 st7 st8">Mariposa  10</text>
		<text transform="matrix(1 0 0 1 171.1995 344.5188)" class="st6 st7 st8">Mendocino  10</text>
		<text transform="matrix(1 0 0 1 171.1995 370.8639)" class="st6 st7 st8">Merced  10</text>
		<text transform="matrix(1 0 0 1 171.1995 397.2095)" class="st6 st7 st8">Modoc  10</text>
		<text transform="matrix(1 0 0 1 171.1996 423.5551)" class="st6 st7 st8">Mono  10</text>
		<text transform="matrix(1 0 0 1 171.1997 449.8999)" class="st6 st7 st8">Monterey  10</text>
		<text transform="matrix(1 0 0 1 171.1997 476.2455)" class="st6 st7 st8">Napa  10</text>
		<text transform="matrix(1 0 0 1 171.1997 502.5903)" class="st6 st7 st8">Nevada  10</text>
		<text transform="matrix(1 0 0 1 171.1997 528.9355)" class="st6 st7 st8">Orange  10</text>
		<text transform="matrix(1 0 0 1 305.3997 160.1022)" class="st6 st7 st8">Placer  10</text>
		<text transform="matrix(1 0 0 1 305.3997 186.4471)" class="st6 st7 st8">Plumas  10</text>
		<text transform="matrix(1 0 0 1 305.3997 212.7927)" class="st6 st7 st8">Riverside  10</text>
		<text transform="matrix(1 0 0 1 305.3997 239.1379)" class="st6 st7 st8">Sacramento  10</text>
		<text transform="matrix(1 0 0 1 305.3997 265.4829)" class="st6 st7 st8">San Benito  10</text>
		<text transform="matrix(1 0 0 1 305.3997 291.828)" class="st6 st7 st8">San Bernardino  10</text>
		<text transform="matrix(1 0 0 1 305.3997 318.1736)" class="st6 st7 st8">San Diego  10</text>
		<text transform="matrix(1 0 0 1 305.3997 344.5186)" class="st6 st7 st8">San Francisco  10</text>
		<text transform="matrix(1 0 0 1 305.3997 370.8635)" class="st6 st7 st8">San Joaquin  10</text>
		<text transform="matrix(1 0 0 1 305.3997 397.2092)" class="st6 st7 st8">San Luis Obispo  10</text>
		<text transform="matrix(1 0 0 1 305.3997 423.5542)" class="st6 st7 st8">San Mateo  10</text>
		<text transform="matrix(1 0 0 1 305.3997 449.8994)" class="st6 st7 st8">Santa Barbara  10</text>
		<text transform="matrix(1 0 0 1 305.3995 476.2444)" class="st6 st7 st8">Santa Clara  10</text>
		<text transform="matrix(1 0 0 1 305.3995 502.5897)" class="st6 st7 st8">Santa Cruz  10</text>
		<text transform="matrix(1 0 0 1 305.3997 528.9351)" class="st6 st7 st8">Shasta  10</text>
		<text transform="matrix(1 0 0 1 452.4396 160.1023)" class="st6 st7 st8">Sierra  10</text>
		<text transform="matrix(1 0 0 1 452.4395 186.4476)" class="st6 st7 st8">Siskiyou  10</text>
		<text transform="matrix(1 0 0 1 452.4395 212.793)" class="st6 st7 st8">Solano  10</text>
		<text transform="matrix(1 0 0 1 452.4395 239.1383)" class="st6 st7 st8">Sonoma  10</text>
		<text transform="matrix(1 0 0 1 452.4398 265.4838)" class="st6 st7 st8">Stanislaus  10</text>
		<text transform="matrix(1 0 0 1 452.4398 291.829)" class="st6 st7 st8">Sutter  10</text>
		<text transform="matrix(1 0 0 1 452.4398 318.1741)" class="st6 st7 st8">Tehama  10</text>
		<text transform="matrix(1 0 0 1 452.4395 344.5194)" class="st6 st7 st8">Trinity  10</text>
		<text transform="matrix(1 0 0 1 452.4396 370.865)" class="st6 st7 st8">Tulare  10</text>
		<text transform="matrix(1 0 0 1 452.4396 397.2106)" class="st6 st7 st8">Tuolumne  10</text>
		<text transform="matrix(1 0 0 1 452.4396 423.5553)" class="st6 st7 st8">Ventura  10</text>
		<text transform="matrix(1 0 0 1 452.4396 449.9009)" class="st6 st7 st8">Yolo  10</text>
		<text transform="matrix(1 0 0 1 452.4396 476.2459)" class="st6 st7 st8">Yuba  10</text>
	</g>
</g>
<g id="TYPES_2_">
	<g>
		<circle id="_x34__1_" class="st9" cx="898.2" cy="-38.8" r="25.2"/>
		
			<text id="_x34__numbers_2_" transform="matrix(1 2.629928e-03 -2.629928e-03 1 874.5497 -33.2453)" class="st12 st7" style="font-size:15px;">10,000</text>
	</g>
	<g>
		<circle id="_x33__1_" class="st9" cx="838.5" cy="-37.8" r="18.2"/>
		
			<text id="_x33__numbers_2_" transform="matrix(1 2.629936e-03 -2.629936e-03 1 821.7871 -33.266)" class="st12 st7" style="font-size:13px;">1,000</text>
	</g>
	<g>
		<circle id="_x32__1_" class="st9" cx="789" cy="-36.9" r="12.4"/>
		
			<text id="_x32__numbers_2_" transform="matrix(1 2.629918e-03 -2.629918e-03 1 778.2215 -32.4353)" class="st12 st7" style="font-size:12px;">100</text>
	</g>
	<g>
		<circle id="_x31__2_" class="st9" cx="711.8" cy="-35.9" r="7.2"/>
		
			<text id="_x31__numbers_3_" transform="matrix(1 2.629955e-03 -2.629955e-03 1 709.6745 -33.0324)" class="st12 st7" style="font-size:7.3546px;">1</text>
	</g>
	<g>
		<circle id="_x31__1_" class="st9" cx="747.8" cy="-35.9" r="9.6"/>
		
			<rect x="743" y="-40" transform="matrix(2.629838e-03 -1 1 2.629838e-03 781.2803 712.3473)" class="st10" width="9.6" height="9"/>
		
			<text id="_x31__numbers_2_" transform="matrix(1 2.629909e-03 -2.629909e-03 1 742.3862 -33.1527)" class="st12 st7" style="font-size:9px;">10</text>
	</g>
</g>
<g id="Counties">
	<polygon id="lassen" class="st11" points="733.2,215.4 732.3,211.5 730.8,209.9 728,206.3 725.2,202.9 722,200.5 719.3,198 
		714.8,197.5 713.6,199.1 712.2,201.2 708,198.5 710.2,190.9 702.2,187.2 707.4,167.5 710.2,158.7 746.8,168.4 733.6,219.8 	"/>
	<polygon id="mariposa" class="st11" points="705.3,327.4 704.5,325.1 700.6,309.3 702.4,306.9 709.6,304.3 711.5,304.3 713.1,306 
		718.1,309.7 722.8,309.7 725.9,307.8 727.7,307 731.1,307 733.2,308 734,310.6 734.6,312.4 732.9,312.2 730.7,314.6 727.3,316.4 
		724,319.5 721.2,322.3 715.9,323.5 710.2,327.6 706.4,329.8 	"/>
	<polygon id="tuolumne" class="st11" points="735.9,312.5 735,310.3 734.1,307.3 731.3,306 727.5,306 725.4,306.9 722.5,308.6 
		718.5,308.6 713.8,305.2 711.9,303.2 709.6,303.2 701.8,306.1 700.2,308 699.8,306.2 693.6,297.7 698.5,297 711.1,284.2 712.4,283 
		715.6,280.8 720.5,280.8 723.3,284.1 725.2,284.1 725.9,283.1 728.7,282.7 729.8,285.8 729.8,289 728.5,289 728.5,292.6 
		731.5,295.7 733.6,297 737.4,299.3 739.5,306.5 739.5,309 737.5,312.7 	"/>
	<polygon id="yuba" class="st11" points="678.1,238.4 680.3,231.8 681.3,231.8 681.3,233 685.5,233 689.7,230.7 694.6,227.6 
		699,226.2 700.1,224.6 702.3,223.4 702.3,224.2 700.2,229.3 698.7,232.3 695,232.3 690,235.4 686.8,245 683.8,245 679.4,244.9 
		678.1,245.6 	"/>
	<path id="napa" class="st11" d="M644.7,271.3L644,271c0.2,0.3,0.3,0.6,0.3,1.2v-0.7h2.8l1.1,0.8h1.3c0.2-1.4,0.2-2.6,0.1-3
		c-0.3-0.3-0.7-1.1,1-4l0.6-1.1l1.3,2l1,0.6h0.9v-2.2l-1.6-1.6l3.2-3.5V251l-1.3-4.4l-1.4-2.3l-0.6-0.3l-1,1.5l-4,4.2l-4.8-0.4
		l-0.8,3.5l0.9,0.9l2.6,9.3v6.6L644.7,271.3z"/>
	<path id="tehama" class="st11" d="M669.8,206.7l-23.4-7.7l0.3-2.5l1.8-1.2v-2.5l-1.4-0.5l2.9-6.4v-4.4l-2.2-1.4l0.1-0.2
		c0.2-0.3,0.4-0.5,0.4-0.8l0.1-0.2l11.9,0.7l8.6,3.4l18.4,1.5l3.6,1.4l4.1,1.9l0.3,2.7l3.1,2.8v0.1c0.1,0.4,0.3,1,0.4,1.4v0.1
		l-0.1,0.1c-0.2,0.4-0.8,0.9-1.7,1.8l-2,2l-4.5,0.5l-2.7,1.2l-5.4,3.6l-1.5,2h-1.1l-4.7-2.1h-1.9l-1.3,1.6v2.3L669.8,206.7z"/>
	<polygon id="santa_clara" class="st11" points="654,325.8 654,327.1 656.2,326 659.3,326 659.3,327.4 662.2,327.4 663.7,328.2 
		665,328.2 667.4,322.5 663.6,319.4 662.1,305.3 653.8,302.9 652.2,302.9 649.2,304 645,302.2 643.5,305.5 641.6,309.2 644,314.4 
		650,317.6 650,320.3 	"/>
	<path id="contra_costa" class="st11" d="M647.4,285.7l4.7,5.2l12.8,0.6l0.5-2.1l1.4-8.4h-1.9l-1.5,1h-3.5l-9.5-3.1l-4.7-1.9
		l-0.8-0.2l0.2-0.7c-0.5,1.2-3.4,0.6-4.4,0.7c-0.5,1.9,0.6,4.2,1.5,5.8v-0.7h3.2L647.4,285.7z"/>
	<path id="del_norte" class="st11" d="M640.6,129.2l-0.4-2.6l-4.6-2.2l-4.3-1.9L631,123l-0.5-0.2c0.7-3.3,0.8-6.7,0.9-10.1
		c0-1.2,0.1-2.4,0.1-3.5c0-0.8,0.3-1.4,0.5-2c0.1-0.4,0.3-0.6,0.4-1.1c0.2-0.7,0.3-1.5,0.3-2.2s0.1-1.5,0.3-2.2l0.1-0.3l0.3,0.1
		c6.1,2,12.4,4,18.9,6l0.3,0.1l-0.9,1.5l-2.6,1.2l-0.1,0.1c-0.5,0.6-2.1,2.7-2.4,3.1c-0.3,0.5-1,3.1-0.7,4c0,0.4-0.3,1.2-0.7,2.4
		c-0.4,0.8-0.5,1.3-0.5,1.5c0,0.5-0.5,5.1-0.6,6.8v0.1l-1.1,1.6L640.6,129.2z"/>
	<polygon id="kern" class="st11" points="722.6,435.3 715,433.9 709,431.3 707.8,429.2 703.6,426.2 702.1,426.2 703.2,417.9 
		702,414.8 697.9,410.1 694,409 693.1,404.5 685.7,391.6 685.7,388.9 687,387.7 687.1,385.1 752,402.1 759.9,403.3 768.7,405.2 
		767.4,417.4 759.8,444.3 	"/>
	<path id="lake_1_" class="st11" d="M642.4,248l-2.7-5.9l-2.5-3.2v-1.8l-2.3-2.7l-2.3-5.5v-1.5l4.5-5.3v-8.3c0.3-1.1,0.7-2.4,1-2.9
		l0.1-0.1h2.3v1.4l3.4-0.4l1.3-1.3l0.1-0.9l3.7,1.5l-1.4,6.9H647l-2.9,2.6v1.5l3.4,4.1l2.4,4.4v5.5l1.8,3.5l1.6,1.3l-2.7,3.8
		l-3.5,3.7L642.4,248z"/>
	<path id="solano" class="st11" d="M660,280.7l-9.4-3l-4.8-1.9l-0.7-0.2l-0.5,2.4v-2.3c0-0.3-0.2-0.5-0.4-0.6
		c-0.2-0.3-0.5-0.5-0.5-0.9c-0.1-0.5,0.1-0.8,0.2-1.2c0.1-0.3,0.2-0.5,0.2-0.7v-0.2h0.5c0,0.1,0,0.5,0,0.5h2.1l1.1,0.8h2.9l0.1-0.5
		c0.5-3.3,0.2-4.3-0.1-4.6l-0.1-0.1v-0.1c0-0.4,0.3-1,0.5-1.3l0.2-0.4l0.3,0.5l1.6,1h2.5v-4l-1.2-1.2l2.7-3v-0.4l11.4,2.9l-2.7,8.9
		l2.5,1l-4.1,5.1l-0.2,2.5l-1.2,0.8L660,280.7L660,280.7z"/>
	<polygon id="inyo" class="st11" points="760.2,402.2 757.7,401.8 760.7,398.1 758.9,377.8 755.9,363.4 755.9,360.1 756.5,360.1 
		757,347.2 754.8,346.3 754.8,345.1 749.8,342.5 749,330.3 749.7,329.7 777.5,336.4 832.6,418.4 	"/>
	<polygon id="mono" class="st11" points="749.8,328.6 742.8,321.9 742.8,316.1 738.5,313.1 740.6,309.3 740.6,306.4 738.3,298.6 
		734.2,296.1 732.2,295 729.5,292.1 729.5,290.1 730.9,290.1 730.9,286.5 733.8,286.9 736.1,280.1 735,278.2 735,274.5 735.2,274 
		735.3,273.6 776.6,335.1 	"/>
	<path id="merced" class="st11" d="M670.6,336.6l-2.7-2.1l-0.7-2l-1.2-1.3v-0.7h1.7l-1-2.1h-0.5l2.5-5.8l1.9-1.5
		c0.5-0.4,5-2.9,5.6-3.4s2.5-2.6,3-3.3l0.1-0.1l14-3.3l6.4-1.2l3.9,15.6l0.8,2.5l0.9,1.9l-3.4-0.1l-5.4-1.1l-6.4,1.5l-2.3,2.3
		l-4.2,1.5l-5.4,3.4l-4.1,2.3L670.6,336.6z"/>
	<polygon id="colusa" class="st11" points="657.1,241.4 654.3,240.2 652.5,238.7 650.9,235.7 650.9,230.1 648.4,225.5 645.1,221.6 
		645.1,221 647.2,219.1 672,226.1 671.4,228.6 666.8,235.8 669.7,240.8 668.6,245.1 	"/>
	<path id="plumas" class="st11" d="M728.8,227c-0.4-0.1-0.5-0.2-0.7-0.2c-0.4-0.3-1.2-0.6-3.1-1.3c-1.7-0.5-3-0.9-3.2-0.9
		c-0.5-0.1-4.2-1.2-6.5-1.8l-4.7-2.5l-3-2.5l-3,2.3l-2,2.4H702l-2.1,1.2l-1.2-1l-5.5-11.9V210l2.9-5.3l-0.1-5.1l2-1.9
		c2-1.9,2.3-2.5,2.1-2.9c-0.1-0.4-0.5-1.7-0.5-1.7v-0.2l-3-2.8l-0.2-1.9l5.5,0.7l0.2-0.6l7,3.3l-2.2,7.4l4.4,2.8l1.3,1l2.1-3
		l0.8-1.2l3.4,0.5l2.5,2.3l3.2,2.3l2.7,3.3l2.7,3.6l1.4,1.5l0.7,3.5l0.6,5.8L728.8,227L728.8,227z"/>
	<path id="tulare" class="st11" d="M752.2,401.1L708,389.6l3.7-13.7l1.9-2.5l3-5v-3.1l-1.3-3.4l0.2-0.1c0.8-0.5,1.5-0.9,1.5-0.9
		c0.4-0.2,3.1-1.5,4.4-2.3l2.4-0.7l8.3,2.2l2.4-1.2l0.9-1h3.5l11.3,2.4l4.4,2.3v1l3.1,14.4l1.8,19.8l-3.3,4L752.2,401.1z"/>
	<path id="stanislaus" class="st11" d="M681.5,300.9l-1-1.2h-2.8l-4.8,2.2l-3.4,1.7l-3.2,1.5v2.3h-2.5l1.2,11.4l3.2,2.6l1.6-1.4
		c2-1.2,5.1-3,5.5-3.4s2-2.2,2.9-3.3l0.2-0.2l14.4-3.4l6.1-1.1l-0.5-1.7l-6.6-9.2l-4-8.7l-3.6,12L681.5,300.9L681.5,300.9
		L681.5,300.9z"/>
	<path id="modoc" class="st11" d="M710,157.6l-3.2-1.4l8.3-30.1l0.2,0.1c12.7,3.5,26,7,39.4,10.4l0.2,0.1l-7.8,30.7L710,157.6z"/>
	<polygon id="yolo" class="st11" points="655.8,246 657.3,250.9 657.3,258.4 670.1,261.6 667.4,270.6 669,271.2 673.5,267.8 
		674.4,263.8 675.4,262.7 675.4,260.1 673.5,258.4 673.5,254.8 668.5,246.4 656.7,242.6 654.2,241.6 653.4,242.7 654.1,243.1 	"/>
	<path id="shasta" class="st11" d="M687.4,152.7l-10.7-3.2l-1.5,3.8l-3.7,2.9l-3.5,2.3l-4.4,6.3l-4.3,5.4l-2.6,3.8l-6.1,2.8
		c-0.3,0.3-0.5,0.6-0.8,0.9l11.1,0.6l8.6,3.4l18.5,1.5l3.7,1.5l4.3,2l5,0.6l5.2-20.1l2.7-8.6l-2.9-1.3L687.4,152.7z"/>
	<polygon id="sacramento" class="st11" points="672.9,275.5 679.8,277 682.5,277 686.8,275.7 688.8,270.6 689.6,269.3 687.9,262.4 
		686.7,260.4 679.4,256.7 675,255.6 675,257.7 676.9,259.4 676.9,263.3 675.9,264.5 674.9,268.7 669.6,272.7 665.5,278 665.4,279.4 
		667.4,279.4 	"/>
	<polygon id="sutter" class="st11" points="674.6,254.2 669.5,245.6 670.9,240.7 668.1,235.8 672.1,229.5 679.2,231.6 677.1,238.1 
		677.1,247.3 679.6,245.9 682.6,246.1 679.5,249.1 677.3,254.8 	"/>
	<polygon id="butte" class="st11" points="682.4,232 682.4,230.8 680,230.8 672.5,228.5 673.1,226 675.7,221.9 673.2,208.8 
		673.2,206.1 673.9,205.2 675.1,205.2 679.8,207.3 681.6,207.3 683.2,205.1 688.3,201.5 690.8,200.5 694.9,200 695,204.4 692,209.6 
		692,211 697.8,223.3 699,224.3 698.4,225.3 694.2,226.5 689.1,229.8 685.2,232 	"/>
	<path id="sierra" class="st11" d="M714.8,233.9v-3.4l-3.8-0.8l-5.4,2.5h-5.8l1.3-2.5l2.3-5.4V223l1.9-2.2l2.4-1.8l2.4,2l5,2.6h0.1
		c5.9,1.7,6.6,1.9,6.7,1.9c0.5,0.1,4.4,1.4,5.4,1.8h0.1l0,0c0.2,0.3,1.3,0.5,3.9,1h0.3l-2.5,10L714.8,233.9z"/>
	<path id="nevada" class="st11" d="M694.8,247.2c-0.9,0-2.2,0-3.3-0.1h-0.1l-3.5-1.8l3-9.2l4.4-2.8h10.5l5.3-2.5l2.6,0.5v3.4
		l14.7,4.9l-1.1,4.1l-15.1-4.2h-5.9l-5.5,2.4h-2.2l-0.2,0.3c-0.9,1.9-2.1,4.4-2.5,5l-0.1,0.1h-0.1
		C695.7,247.2,695.3,247.2,694.8,247.2z"/>
	<path id="placer" class="st11" d="M678.6,254.9l1.5,0.4l7,3.6l3.6-3.8l1.5-2.5l3-1.7l4.4-1.5h2.7l2.9,1.4l1.2,2.1l1.5,2.2l3.1-0.1
		l1.5-2.3h2.6l1.2,1.5l5.3-0.2l3.2-1.1l0.9-0.8v-2.2l1.3-5.1l-14.7-4.2h-5.4l-5.6,2.4h-1.5c-2.4,5-2.8,5.2-3.2,5.3
		c-0.3,0.1-1,0.1-1.9,0.1c-1,0-2.2,0-3.3-0.1H691l-4.1-2H684l-3.4,3.4L678.6,254.9z"/>
	<polygon id="alpine" class="st11" points="730.8,285.4 729.4,281.6 725.3,282.1 724.6,283 723.8,283 721.1,279.9 720,277.2 
		720,275.5 721.1,269.8 729.1,264.8 729.3,264.6 729.4,264.8 734.6,272.5 733.9,274.3 734,278.5 734.9,280.2 733.1,285.8 	"/>
	<path id="calaveras" class="st11" d="M688.1,287.1l1.1,0.8l3.9,8.6l4.7-0.7l12.3-12.6l1.5-1.3l3.5-2.5h4.4l-0.8-2V277h-13.8
		c-0.8,0.3-5.2,1.7-6.4,2.4c-1.4,0.6-6.6,2.5-6.9,2.5h-0.1h-3.4V287.1z"/>
	<path id="el_dorado" class="st11" d="M704,272.5c-1,0-5.5-1.8-9.3-3.5l-0.1-0.1h-3.8l-1.8-7l-1.2-2l3.8-4l1.4-2.4l2.5-1.5l3.9-1.5
		h2.4l2.3,1.1l1,1.8l1.8,2.8l4.4-0.2l1.5-2.2h1.4l1.2,1.5l6.1-0.2l3.7-1.3l0.1-0.1l0.4-0.4v5.8l2.9,4.3l-0.3,0.2l-6.8,4.3l-1.3,0.9
		l-6.2,3.4l0,0c-1.2,0-4.2-0.2-6.6-0.2C705.1,272.3,704.3,272.4,704,272.5L704,272.5L704,272.5z"/>
	<path id="amador" class="st11" d="M687.9,280.7v-4.3l2-5.1l0.8-1.3h3.7l0,0c5,2.3,8.4,3.5,9.7,3.5c0.1,0,0.2,0,0.3,0
		c0.3-0.1,1.3-0.1,3-0.1c1.9,0,4.4,0.1,6.9,0.2h0.2l5.4-3.1l-1,4.8v0.5h-14.2h-0.2c-0.5,0.2-5.3,1.8-6.5,2.5
		c-1.2,0.5-5.7,2.2-6.6,2.5l0,0L687.9,280.7L687.9,280.7z"/>
	<path id="madera" class="st11" d="M695.2,344.6h14.3c0.2-1.2,0.7-3.2,1.8-3.7c0.5-0.3,1.5-0.5,2.4-0.8c0.6-0.2,1.6-0.5,1.8-0.6
		c0.5-0.4,4.2-2.5,5.8-3.4l0.2-0.1h4.2l2.4-1.6l1.5-4.7c1.5-2.5,2.1-2.6,2.3-2.7c0.4-0.1,3.3-1.3,5.4-2.1l0.8-1.4l3.4-1.9v-5l-4-2.7
		l-4.2-0.5l-2,2.2l-3.4,1.7l-3.2,3l-3,3l-5.4,1.2l-5.6,4l-4.2,2.4l-5.1-0.2l-5.1-1l-5.8,1.4l-1.3,1.3l1.5,9.6L695.2,344.6z"/>
	<path id="san_mateo" class="st11" d="M632.5,310.5c-0.3-0.5-0.5-1-0.6-1.5c-0.5-2-0.5-4.4-0.4-6.6c0-0.6,0-1.3,0-1.9
		c0-2.9,0.3-5.5,0.9-8.7c0.1-0.6,0.5-2,0.9-3.4l0.5-1.3v1.9h4.6l-0.1,0.3c-0.2,0.8-0.4,1.5-0.2,2.7c0.2,1.5,0.7,2.5,1.9,3.8
		c1,1.2,3.1,2.9,4.2,3v0.5l-0.5,0.1l0.3,1.9l-1.7,3.9l-2.5,4.9h-6.9v1.5L632.5,310.5z"/>
	<path id="ventura" class="st11" d="M709.1,464.3l6.5-3h2.8l1,0.6l2.2-3l-3.8-23.2l-3.4-0.6l-6.4-2.6l-1.4-2.3l-3.6-2.5h-1l-0.3,1.8
		l-4.2,19.6l-0.7-0.2c0.8,0.8,1.6,1.5,2.4,2.5c0.9,1.1,1.4,2.5,2.2,3.5c1.1,1.5,2,2.8,2.7,4.6c0.6,1.6,1.2,3.2,2.5,4.4
		c0.7,0.7,1.9,0.8,2.8,1.2L709.1,464.3z"/>
	<path id="monterey" class="st11" d="M652,374.9l-2.3-1.7l-0.5,0.7l-0.2-0.4c-0.2-0.5-0.4-0.8-0.6-1.3c-0.3-0.5-0.5-0.9-0.8-1.5
		c-0.5-1-0.6-2.1-0.7-3.2c-0.1-0.7-0.2-1.5-0.5-2.3c-0.6-2-1.5-4-2.2-5.7c-0.2-0.5-0.4-0.9-0.5-1.4c-0.3-0.7-0.5-1.4-0.9-2
		s-0.9-1-1.5-1.5c-0.4-0.3-0.8-0.6-1.2-1c-1.8-2.1-2.6-4.4-2.6-7.8c0-1.1,0.3-1.8,0.5-2.6c0.1-0.5,0.3-0.9,0.4-1.4
		c0.1-0.4,0.1-0.8,0.1-1.3c0.1-1,0.1-2.1,0.6-2.7s1.3-0.9,2.1-1.2c0.5-0.2,0.8-0.3,1.2-0.5c1.6-0.8,2.5-1.7,3.4-3.4
		c0.6-1.4,1-2.8,0.9-4.2v-0.3l6.2-0.1v2.6l2.1,4.4l4.3,7.8c0.9,2.5,1.9,5.4,2,5.7c0,0.2,0,0.7,3,4.9c0.9,1.5,2,3.2,2.2,3.4
		c0.1,0.4,0.5,1.2,1.7,3.3l0.1,0.1l3.1,1.8l4.2,2.2l-0.8,2.2l2,3l1.8,2.2l1.2,2.4l2.4,2.4l2,2.5l2.4,4.4L652,374.9z"/>
	<path id="santa_cruz" class="st11" d="M639.8,321.8c1.9,0.4,3.5-0.6,4.8,0.8c0.6,0.7,1.1,2.2,1.5,3.1c0.4,0.8,0.5,1.5,0.7,2.4v-0.7
		l5.7-0.1v-0.9l-4-5.4v-2.4l-5.7-3l-2.1-4.6l-0.2,0.3h-7.4c0.5,0.7,0.9,1.4,1.3,2.1C635.6,315.7,636.6,321.1,639.8,321.8z"/>
	<path id="los_angeles" class="st11" d="M733.1,483.9l7.7-6.4h4.6v1h0.8l0.5-0.8l2.1-1.1l2.5-3.8l2.8-5.4l5.2-22l-37-8.9l-2.8-0.5
		l3.8,23.3l-3.3,4.6l-1.5-0.8l-0.5-0.3h-2l-5.8,2.7c1.1,1,0.7,2,2.5,2.4c0.7,0.1,1.6,0.1,2.4,0c0.5-0.1,1.6-1,1.8-1
		c1.1-0.2,1.9,0.6,3.2,1c0.7,0.3,2.3,0.4,2.8,0.9c1.2,1,1.5,4.1,1.6,5.5c1.8,0.6,1.8,2.1,1.4,3.6c-0.5,2.1-1.6,1.5-3.1,2.7
		c1.4,2,5.6,3.1,7.9,3.5c0.9,0.2,1.9,0.1,2.8,0.2L733.1,483.9z"/>
	<path id="santa_barbara" class="st11" d="M696.1,448.3c-0.7-0.6-1.3-1.3-1.7-1.9c-1.1-1.5-1.3-1.5-3.3-1.6c-0.3,0-0.6,0-1,0
		c-1.2,0-2.5-0.1-3.4-0.3c-1.7-0.5-3.2-1.6-4.6-2.8c-1-0.8-1.9-1.5-2.9-2c-2.3-1.2-4.6-1.5-7.2-2c-0.6-0.1-1.2-0.2-1.8-0.4
		c-0.5-0.1-1.1-0.2-1.7-0.2c-1.6-0.2-3.3-0.3-4.4-1.4c-0.4-0.3-0.5-0.6-0.7-1s-0.4-0.6-0.6-0.9c-0.3-0.3-0.6-0.5-1-0.7
		c-0.5-0.3-1.1-0.6-1.5-1.2c-0.8-1.2-0.4-1.9,0.1-2.7c0.2-0.3,0.4-0.6,0.5-1c0.6-1.7,0.9-3.8,1.1-5.8c0.1-0.8,0.2-1.5,0.3-2.3
		c0.3-2,0.8-4,1.5-6.4l0.5,0.1l-0.1,0.4l6.7,1.9l1.5,2.3h1.9l2.4-2.2l3.5-2l4.2,0.6l2.9,3.3l3.7,3.2l4.1,3.1l4.4,2.9h1.8l-0.3,1.8
		l-4.2,19.5L696.1,448.3z"/>
	<path id="san_diego" class="st11" d="M791.1,544.6l-0.7-0.3l6.1-16.2L798,515l0.5-0.6l-2.4-0.5l-6.8-1.5l-14-3.4l-7.9-2.7l-4.8-1
		l-2.5-1.1l-2.9-3.2l-4.1-1.1l-3.6,3.5l-0.5-0.5c0.4,0.6,0.6,1.2,1.3,1.8c0.9,1,1.9,2.2,2.4,3.4c0.5,1.2,0.7,2.5,1.1,3.6
		c1.5,4.7,1,9.9,1,14.9c0,3.6,0,7.3,0,10.9h1.3v2.5L791.1,544.6z"/>
	<path id="orange_1_" class="st11" d="M752.2,498.7v-1l4.3-4.5l-3.3-1.9l-3.3-7.2v-0.8l-3.6-3.3h-2.5v-1h-2.5l-6.8,5.7
		c0.3,0.1,0.5,0.2,0.8,0.4c1.2,0.6,2,1.7,2.7,2.8c1.5,2.1,3.1,4.2,4.5,6.4c0.9,1.5,1.5,2.5,2.7,3.6c1.3,1.1,2.4,2.2,3.1,3.6
		c0.2,0.4,0.3,0.6,0.5,0.9L752.2,498.7z"/>
	<path id="imperial" class="st11" d="M791.6,544.8l6.2-16.4l1.5-12.9l0.8-1.1l34.9,6.9l8.3,1.1l-0.1,0.3c0,0.2-0.1,0.4-0.1,0.5v9.4
		l0.1,0.2c0,0,0.2,0.5,0.2,0.6l0.1,0.1l-0.1,0.2c0,0.1-0.1,0.2-0.2,0.3c-1.9,2-1.4,3.8-0.9,4.6c0.5,1.2,1.5,1.7,2.9,1.7
		c0.2,0,0.4,0,0.5,0c0.2,0,0.2,0,0.3,0h0.3l0.6-0.2c0.3-0.1,1-0.3,1.5-0.4h0.3v0.3c0,0.7-0.2,1.3-0.4,1.5L848,542l-0.4,4.4l-3,2.2
		h-5v2.1L791.6,544.8z"/>
	<path id="alameda" class="st11" d="M645.2,300.6l4,1.7l2.8-1h2.1l7.4,2.1l0.5-2.8l1.3-2.1l1.1-5.6l-13.2-0.7l-5.3-5.8l-2-3.2h-2
		c0.5,1.3,0.6,2.8,0.9,4.2c0.5,2.1,1.2,3.1,1.2,5.4c0,2,0.1,4,0,5.9l0.7-0.1L645.2,300.6z"/>
	<path id="san_francisco" class="st11" d="M636.2,284.4c-1,0.5-1.8,1.8-2.4,3.3h4.5v0.7c0.1-0.4,0.2-0.6,0.3-1
		C639,285.7,638.2,283.5,636.2,284.4z"/>
	<path id="mendocino" class="st11" d="M624.5,236l-8.7-0.7l-0.1,1.5l-0.4-0.8c-0.5-1.3-1.1-2.2-1.8-3.1c-2-2.5-3.5-4.4-2.4-7.7
		c0.8-2.3,0.8-4.1,0.8-6.5c0-1.3,0.2-2.4,0.5-3.4c0.2-0.9,0.4-1.9,0.5-3c0.1-2.4,0.9-5,2.3-7.3c0.3-0.5,0.6-0.8,1-1.2s0.6-0.6,0.8-1
		c0.4-0.6,0.4-1.4,0.5-2.1c0-0.4,0-0.8,0.1-1.2c0.3-1.3,0.4-2.5,0.4-4.3c0-2.6-0.4-5.4-1-8c-0.3-1-0.6-2.2-1.3-3.5l-0.2-0.5
		l32.1,10.4v1.1l-1.7,1.1l-1.5,14.2l-0.7,0.7l-1.8,0.2v-1.1h-3.5c-0.4,0-0.8,0-1.9,3.8v8.2l-4.5,5.3v2.1l2.4,5.8l2.2,2.7v0.4h-0.3
		L624.5,236z"/>
	<path id="humboldt" class="st11" d="M615.3,182.7l0.3-0.7l13,4.3l3.2-8.3l2.6-10.2l3.1-12.3l1.3-2.7l2-1.4l4.5-3.9l2.1-10.1v-3.8
		l-4.4-2.3l-3.4-1l-0.4-2.7l-4-1.9l-4.4-1.9c-0.1,0.2-0.1,0.4-0.2,0.5c-0.6,2.3-2.3,4.4-3.4,6.8c-1.3,2.7-2,5.7-3.4,8.5
		c-1.2,2.5-2.4,4.8-4.2,7c-1.9,2.3-3.2,4.6-5.3,6.6s-4.4,4.6-5.5,7.3c-1.6,3.5-1.4,6.9,0.1,10.3c1.3,2.9,3.1,5.7,4.5,8.6
		C614.2,180.3,614.7,181.5,615.3,182.7z"/>
	<path id="san_luis_obispo" class="st11" d="M699.4,426.2l-4.1-2.7l-4-3.1l-3.6-3l-3.1-3.5l-4.9-0.7l-3.9,2.2l-2.3,2h-0.9l-1.5-2.1
		l-7.5-2.1l0.2-0.5c0.5-1.3,0.6-2.8,0.7-4.2c0.2-1.5-0.1-1.8-0.8-2.5c-0.3-0.3-0.6-0.5-1-1c-0.7-0.9-0.8-1.8-1-2.8
		c0-0.3-0.1-0.5-0.1-0.9c-0.5-2.7-1.5-4.3-2.8-6.4l-0.4-0.6c-0.5-0.7-0.6-1.5-0.9-2.4c-0.2-0.7-0.4-1.4-0.6-1.9
		c-0.4-0.6-0.8-1.2-1.3-1.7s-0.9-1-1.2-1.5c-0.4-0.6-0.5-1.3-0.7-1.9c-0.2-0.5-0.3-1-0.5-1.5c-0.5-0.9-1.1-1.8-1.7-2.6
		c-1.1-1.5-2.3-3.1-2.3-5.4c0-0.3,0-0.5,0-0.7l-0.1-0.5l2.4,1.7l34.4,9l-0.1,2.3l-1.3,1.3v3.4l7.4,13l1.1,5l4.1,1.2l3.8,4.3l1.1,2.7
		l-1.1,8.3L699.4,426.2L699.4,426.2z"/>
	<path id="siskiyou" class="st11" d="M687.8,151.5l-12.1-3.5v-4.3c0-0.4,0-0.9-4.4-2.5l-0.2-0.1l-4.7,2.5l-0.2,0.1
		c-2.1,2.1-5.7,5.5-6.1,5.8c-0.4,0.3-0.5,1-0.4,2.1v0.3h-1.3L652,145c-1.6-2.2-2.2-2.7-2.4-2.8c-0.3-0.2-1.3-1.1-1.9-1.6l-0.1-0.1
		l0.5-2.7V133l-4.6-2.5l1.2-1.6v-0.1c0.3-3.2,0.6-6.7,0.6-7c0-0.2,0.2-0.5,0.5-1.2c0.5-1.4,1-2.4,0.8-3c-0.2-0.5,0.4-2.7,0.6-3.1
		c0.2-0.3,1.5-2,2.2-2.9v-0.1l2.7-1.2l1.3-2l0.2,0.1c19,5.9,39.2,11.8,60.2,17.6l0.2,0.1l-8.3,30.1L687.8,151.5z"/>
	<path id="san_benito" class="st11" d="M660.3,342.8c1.3,3.4,2,5.5,2.1,6.1c0.2,0.5,1.5,2.5,2.8,4.3c1.7,2.7,2.2,3.4,2.4,3.7
		c0.1,0.3,0.8,1.6,1.5,2.8l2.7,1.6l3.8,2l0.6-1.6l3.8-9.3l-2.4-3.3l-4.3-7.3v-1.5l-3.5-2.8l-3-2.3l-0.8-2.1l-1.4-1.5v-2h-1.4
		l-1.5-0.7h-4v-1.5h-1.3l-2.2,1.2H654v2.2l2,4.1L660.3,342.8z"/>
	<path id="fresno" class="st11" d="M679.4,371.6l1.1,2.3l2.2,2.2l1.3,1.5c2-1,5.5-2.8,5.9-2.9c0.4-0.2,3.3-1.7,3.5-1.9
		c0.2-0.2,2.9-1.9,3.7-2.5l1.5-5.4l1.5-3.7l3.4,0.9v0.8l6.9,0.2c0.2-0.5,0.6-1.1,1.5-1.3c0.8-0.1,3.7-1.9,4.4-2.4
		c0.4-0.3,3.7-1.9,4.7-2.4h0.1l2.7-0.8l8.3,2.2l1.6-0.8l1.2-1.3h4.4l11.7,2.5l3.6,1.9v-2.1h0.6l0.5-10.8l-2.2-0.9v-1.1l-5.1-2.6
		l-0.8-13.4l0.7-0.7l-6.3-6l-2.9,1.6l-0.9,1.5l-0.3,0.1c-0.5,0.2-5.2,2.1-5.6,2.3c-0.2,0.1-0.8,1.1-1.4,2l-1.6,4.9l-3.1,2.2H722
		c-2.5,1.4-5.1,2.8-5.4,3.1c-0.3,0.3-0.9,0.5-2.4,0.9c-0.8,0.3-1.7,0.5-2.2,0.7c-0.4,0.2-0.9,1.7-1.1,3.2l-0.1,0.6h-0.6h-15.3
		l-5.3-3l-1.5-9.5l-3.9,1.4l-5.3,3.4l-4,2.3v1.2l4,6.9l2.7,3.9l-4.1,10.1l-1.6,4.4l1.5,2.4L679.4,371.6z"/>
	<polygon id="san_joaquin" class="st11" points="663,304 663.6,304.1 663.7,305.7 664.7,305.7 664.7,304 668.8,302.2 672.3,300.5 
		677.4,298.2 681.2,298.2 682.2,299.4 683.2,299.4 686.6,288.3 686.6,277.3 682.6,278.6 679.5,278.6 673.3,277 668.3,280.6 
		666.8,289.7 664.8,299.3 663.6,301.5 	"/>
	<path id="trinity" class="st11" d="M629.6,186.8l3.3-8.6l2.7-10.3l3.1-12.1l1.1-2.4l1.7-1.3l4.9-4.2l1.4-6.6l0.3,0.3
		c0.9,0.8,1.3,1.1,1.4,1.2c0.3,0.3,1.5,1.7,2.1,2.6l6.6,7.4h3.1l-0.2-0.6c-0.2-0.6-0.3-1.5-0.2-1.8v-0.1l0.1-0.1
		c0.8-0.7,5.2-4.9,6-5.8l4.3-2.2h0.1c1.2,0.5,2.8,1.2,3.4,1.5l0.1,0.1v5.4h0.8l-1.4,3.4l-3.4,2.7l-3.7,2.4l-4.4,6.4l-4.3,5.4
		L656,173l-6,2.8v0.1c-1.5,1.6-2.4,2.6-2.4,3c-0.1,0.3-0.5,0.8-0.7,1.2l-0.4,0.5l2.6,1.7v3.5l-2.9,6.4L629.6,186.8z"/>
	<polygon id="glenn" class="st11" points="648.6,218.3 650.1,210.5 645.3,208.5 646.2,200.1 669.4,207.7 672.2,209.3 674.6,221.7 
		672.4,225.1 	"/>
	<path id="kings" class="st11" d="M687.1,384v-0.7l-2.5-4.4l0.2-0.1c0.8-0.5,5.1-2.5,5.4-2.7c0.5-0.2,3.7-2,3.8-2.1
		c0.3-0.2,4.2-2.7,4.2-2.7l1.5-5.9l1-2.5l1.4,0.4v1.1l8.8,0.3h0.5V364c0-0.5,0.4-0.7,0.5-0.7c0.3,0,0.9-0.2,2.2-0.9l0.2-0.1l1.1,3
		v2.7l-2.8,4.6l-2,2.7l-3.8,14L687.1,384z"/>
	<path id="san_bernardino" class="st11" d="M840.8,493.1l-12.5-1l-23.5-4l-39.3-7.4l-7.6-4h-3.2l-2,2.6l-2,2.8l-3.4-3l0.3-0.5l2-1
		l2.8-4.2l2.9-5.4l5.4-22.9l7.7-27.4l1.4-12.3l63.7,14.2l25.6,38.2v0.1c-0.7,2.2-0.5,5-0.2,6.8c0.4,1.5,1,2.7,1.5,4
		c0.3,0.6,0.6,1.3,0.9,1.9c0.4,0.9,0.8,1.7,1.3,2.5s0.9,1.6,1.2,2.5c0.3,0.7,0.4,1.6,0.5,2.5c0.1,0.6,0.2,1.4,0.4,2.1
		c0.1,0.5,0.2,1.3,0.2,2c0,0.9,0.1,1.9,0.4,2.8c0.5,1.6,1.1,2.4,2.4,2.7l0.2,0.1c0,0,0.2,0.1,0.3,0.3c0.5,0.5,0.5,1,0.3,1.5
		c-0.9,2.2-5.4,4.7-8.3,5.2l-1.4,0.2l-0.2,1.4c0,0.2-0.1,0.4-0.2,0.6l-0.1,0.2L840.8,493.1z"/>
	<path id="riverside" class="st11" d="M758.8,492.8l-5.2,5.4v0.2l4.4,1.2l3,3.3l2.2,0.9l4.6,1l7.9,2.7l13.9,3.3l6.8,1.5l38.7,7.6
		l8.5,1.2c0.8-1,2.2-1.7,3.6-2.5c0.7-0.5,2-1.1,2.3-1.5c1.9-2.4,2.9-5.6,3.8-8.9l0.3-0.9c0.2-0.7,0.4-1.5,0.5-2.4
		c0.3-1.5,0.5-3.1,1.3-4.6c0.5-1,1.2-1.6,1.7-2.3l-16.6-3.9l-12.4-1l-23.6-4l-39.5-7.5l-7.4-3.9h-2.4l-1.5,2.1l-2.2,3.1v0.6l2.9,6.4
		L758.8,492.8z"/>
	<path id="sonoma" class="st11" d="M641.4,254.4l-1.2-1.2l1.1-4.7l-2.7-5.8l-2.8-3.6l-11.3-1.8l-8.5-0.7c0.5,1.5,1,3.1,1.7,4.5
		c1.1,2.4,3,4.5,4.3,6.9c1,1.9,2,3.8,2.6,5.8c0.5,1.3,1.6,2.6,1.8,4h0.1v0.5h3.1l5,4.4l1.5,2.5l2.7,3.9l1.8,2.5
		c0.4-0.5,0.7-0.8,1.3-1c0.6-0.3,1.1-0.3,1.5-0.1l0.5-1.2V263L641.4,254.4z"/>
	<path id="narin" class="st11" d="M637.5,270l-2.7-4l-1.5-2.5l-4.3-3.7h-2.5l0,0c-0.1,1.6-0.4,3.6-0.7,4.8c-0.6,2-1,3.7-0.2,5.8
		c0.9,2.3,2.5,3.1,4.1,4.8c1.4,1.4,2.1,3.3,3.7,4.7c0.5,0.5,1.2,0.6,1.6,1.3c0.3,0.4,0.5,1.5,0.8,1.6c0.7,0.4,3.1-0.8,3.3-1.5
		c0.3-1.3-1.7-1.9-1.5-3.4c0.1-1.2,1.4-2.4,1.9-3.6c0.3-0.6,0.5-1.3,0.8-1.9l-0.6,0.5L637.5,270z"/>
</g>
<g id="balls">
	<circle id="kern_circle" class="st9" cx="731.3" cy="418.4" r="5.7"/>
	<circle id="imperial_circle" class="st9" cx="819.7" cy="534.3" r="5.7"/>
	<circle id="riverside_circle" class="st9" cx="804.3" cy="502.4" r="5.7"/>
	<circle id="san_diego_circle" class="st9" cx="774.6" cy="526.1" r="5.7"/>
	<circle id="orange_circle" class="st9" cx="746.6" cy="490.3" r="5.7"/>
	<circle id="san_bernardino_circle" class="st9" cx="804.3" cy="449.3" r="5.7"/>
	<circle id="los_angeles_circle" class="st9" cx="738.7" cy="457.6" r="5.7"/>
	<circle id="ventura_circle" class="st9" cx="710.1" cy="448.2" r="5.7"/>
	<circle id="santa_barbara_circle" class="st9" cx="682" cy="429.1" r="5.7"/>
	<circle id="inyo_circle" class="st9" cx="780.9" cy="375.1" r="5.7"/>
	<circle id="tulare_circle" class="st9" cx="734.9" cy="377.5" r="5.7"/>
	<circle id="san_luis_obispo_circle" class="st9" cx="674.1" cy="400.3" r="5.7"/>
	<circle id="kings_circle" class="st9" cx="702.6" cy="375.8" r="5.7"/>
	<circle id="fresno_circle" class="st9" cx="709.3" cy="354" r="5.7"/>
	<circle id="monterey_circle" class="st9" cx="655" cy="357.9" r="5.7"/>
	<circle id="san_benito_circle" class="st9" cx="667.4" cy="344.6" r="5.7"/>
	<circle id="madera_circle" class="st9" cx="717.4" cy="332.1" r="5.7"/>
	<circle id="mono_circle" class="st9" cx="752.4" cy="311.6" r="5.7"/>
	<circle id="mariposa_circle" class="st9" cx="711.8" cy="316" r="5.7"/>
	<circle id="merced_circle" class="st9" cx="685.6" cy="324.7" r="5.7"/>
	<circle id="santa_cruz_circle" class="st9" cx="643.7" cy="320.1" r="5.7"/>
	<circle id="santa_clara_circle" class="st9" cx="655.3" cy="313.6" r="5.7"/>
	<circle id="san_mateo_circle" class="st9" cx="637.5" cy="303.6" r="5.7"/>
	<circle id="alameda_circle" class="st9" cx="654.3" cy="297.5" r="5.7"/>
	<circle id="stanislaus_circle" class="st9" cx="679.1" cy="307.6" r="5.7"/>
	<circle id="tuolumne_circle" class="st9" cx="716.3" cy="295.8" r="5.7"/>
	<circle id="alpine_circle" class="st9" cx="727.5" cy="274.8" r="5.7"/>
	<circle id="calaveras_circle" class="st9" cx="699.6" cy="286.8" r="5.7"/>
	<circle id="san_joaquin_circle" class="st9" cx="677" cy="289.3" r="5.7"/>
	<circle id="contra_costa_circle" class="st9" cx="656.1" cy="285.8" r="5.7"/>
	<circle id="san_francisco_circle" class="st9" cx="637.2" cy="288.4" r="5.7"/>
	<circle id="amador_circle" class="st9" cx="702" cy="276.1" r="5.7"/>
	<circle id="sacramento_circle" class="st9" cx="681.3" cy="270" r="5.7"/>
	<circle id="solano_circle" class="st9" cx="659.7" cy="270.4" r="5.7"/>
	<circle id="narin_circle" class="st9" cx="632.7" cy="271.2" r="5.7"/>
	<circle id="el_dorado_circle" class="st9" cx="708.3" cy="263.9" r="5.7"/>
	<circle id="placer_circle" class="st9" cx="711.6" cy="248.4" r="5.7"/>
	<circle id="yolo_circle" class="st9" cx="665" cy="253" r="5.7"/>
	<circle id="napa_circle" class="st9" cx="649.6" cy="255.6" r="5.7"/>
	<circle id="sonoma_circle" class="st9" cx="632.4" cy="250.8" r="5.7"/>
	<circle id="lake_circle" class="st9" cx="642.1" cy="232.4" r="5.7"/>
	<circle id="colusa_circle" class="st9" cx="659.9" cy="232.4" r="5.7"/>
	<circle id="sutter_circle" class="st9" cx="674.6" cy="242.3" r="5.7"/>
	<circle id="yuba_circle" class="st9" cx="687" cy="236.6" r="5.7"/>
	<circle id="nevada_circle" class="st9" cx="702.8" cy="238.1" r="5.7"/>
	<circle id="sierra_circle" class="st9" cx="717.2" cy="229.5" r="5.7"/>
	<circle id="plumas_circle" class="st9" cx="711.5" cy="209.5" r="5.7"/>
	<circle id="butte_circle" class="st9" cx="686.3" cy="217.2" r="5.7"/>
	<circle id="glenn_circle" class="st9" cx="659.3" cy="212.9" r="5.7"/>
	<circle id="mendocino_circle" class="st9" cx="625.6" cy="210.3" r="5.7"/>
	<circle id="tehama_circle" class="st9" cx="666.9" cy="195.1" r="5.7"/>
	<circle id="lassen_circle" class="st9" cx="724.9" cy="179.8" r="5.7"/>
	<circle id="shasta_circle" class="st9" cx="685.5" cy="168.4" r="5.7"/>
	<circle id="trinity_circle" class="st9" cx="650.2" cy="162.1" r="5.7"/>
	<circle id="humboldt_circle" class="st9" cx="625.8" cy="155.3" r="5.7"/>
	<circle id="modoc_circle" class="st9" cx="729.5" cy="145.3" r="5.7"/>
	<circle id="siskiyou_circle" class="st9" cx="678.1" cy="132.3" r="5.7"/>
	<circle id="del_norte_circle" class="st9" cx="638.5" cy="113.2" r="5.7"/>
	<text id="imperial_numbers" transform="matrix(0.986 2.629912e-03 -2.593122e-03 1 816.3693 536.3512)" class="st12 st7 st13">10</text>
	<text id="san_diego_numbers" transform="matrix(0.986 2.629912e-03 -2.593122e-03 1 771.2485 528.1907)" class="st12 st7 st13">10</text>
	<text id="riverside_numbers" transform="matrix(0.986 2.629912e-03 -2.593122e-03 1 801.0092 504.1909)" class="st12 st7 st13">10</text>
	<text id="orange_numbers" transform="matrix(0.986 2.629912e-03 -2.593122e-03 1 743.4088 492.671)" class="st12 st7 st13">10</text>
	
		<text id="san_bernardino_numbers" transform="matrix(0.986 2.629912e-03 -2.593122e-03 1 801.0084 451.3907)" class="st12 st7 st13">10</text>
	<text id="los_angeles_numbers" transform="matrix(0.986 2.629912e-03 -2.593122e-03 1 735.2473 460.0308)" class="st12 st7 st13">10</text>
	<text id="ventura_numbers" transform="matrix(0.986 2.629912e-03 -2.593122e-03 1 706.4478 450.431)" class="st12 st7 st13">10</text>
	<text id="santa_barbaranumbers" transform="matrix(0.986 2.629912e-03 -2.593122e-03 1 678.6077 431.2311)" class="st12 st7 st13">10</text>
	<text id="kern_numbers" transform="matrix(0.986 2.629912e-03 -2.593122e-03 1 727.7928 420.5956)" class="st12 st7 st13">10</text>
	<text id="inyo_numbers" transform="matrix(0.986 2.629912e-03 -2.593122e-03 1 777.4893 376.991)" class="st12 st7 st13">10</text>
	<text id="tulare_numbers" transform="matrix(0.986 2.629912e-03 -2.593122e-03 1 731.4085 379.3911)" class="st12 st7 st13">10</text>
	<text id="kings_numbers" transform="matrix(0.986 2.629912e-03 -2.593122e-03 1 699.2473 377.4708)" class="st12 st7 st13">10</text>
	
		<text id="san_luis_obispo_numbers" transform="matrix(0.986 2.629912e-03 -2.593122e-03 1 670.4473 401.9508)" class="st12 st7 st13">10</text>
	<text id="fresno_numbers" transform="matrix(0.986 2.629912e-03 -2.593122e-03 1 705.9671 356.3509)" class="st12 st7 st13">10</text>
	<text id="madera_numbers" transform="matrix(0.986 2.629912e-03 -2.593122e-03 1 713.6475 334.2707)" class="st12 st7 st13">10</text>
	<text id="monterey_numbers" transform="matrix(0.986 2.629912e-03 -2.593122e-03 1 651.7273 360.1906)" class="st12 st7 st13">10</text>
	<text id="san_benito_numbers" transform="matrix(0.986 2.629912e-03 -2.593122e-03 1 663.7279 346.8109)" class="st12 st7 st13">10</text>
	<text id="merced_numbers" transform="matrix(0.986 2.629912e-03 -2.593122e-03 1 682.0173 326.7399)" class="st12 st7 st13">10</text>
	<text id="mariposa_numbers" transform="matrix(0.986 2.629912e-03 -2.593122e-03 1 708.1917 317.9508)" class="st12 st7 st13">10</text>
	<text id="mono_numbers" transform="matrix(0.986 2.629912e-03 -2.593122e-03 1 748.6885 313.6311)" class="st12 st7 st13">10</text>
	<text id="tuolumne_numbers" transform="matrix(0.986 2.629912e-03 -2.593122e-03 1 712.6884 297.7908)" class="st12 st7 st13">10</text>
	<text id="alpine_numbers" transform="matrix(0.986 2.629912e-03 -2.593122e-03 1 724.208 276.671)" class="st12 st7 st13">10</text>
	<text id="stanislaus_numbers" transform="matrix(0.986 2.629912e-03 -2.593122e-03 1 675.7275 309.3109)" class="st12 st7 st13">10</text>
	<text id="calaveras_numbers" transform="matrix(0.986 2.629912e-03 -2.593122e-03 1 696.3671 288.671)" class="st12 st7 st13">10</text>
	<text id="amador_numbers" transform="matrix(0.986 2.629912e-03 -2.593122e-03 1 698.2881 278.1111)" class="st12 st7 st13">10</text>
	<text id="san_joaquin_numbers" transform="matrix(0.986 2.629912e-03 -2.593122e-03 1 673.3273 291.551)" class="st12 st7 st13">10</text>
	<text id="santa_cruz_numbers" transform="matrix(0.986 2.629912e-03 -2.593122e-03 1 640.2073 322.271)" class="st12 st7 st13">10</text>
	<text id="santa_clara_numbers" transform="matrix(0.986 2.629912e-03 -2.593122e-03 1 651.7275 316.0312)" class="st12 st7 st13">10</text>
	<text id="alameda_numbers" transform="matrix(0.986 2.629912e-03 -2.593122e-03 1 650.5256 299.3501)" class="st12 st7 st13">10</text>
	<text id="san_mateo_numbers" transform="matrix(0.986 2.629912e-03 -2.593122e-03 1 633.9674 305.951)" class="st12 st7 st13">10</text>
	
		<text id="san_francisco_numbers" transform="matrix(0.986 2.629912e-03 -2.593122e-03 1 633.6785 290.4696)" class="st12 st7 st13">10</text>
	<text id="contra_costa_numbers" transform="matrix(0.986 2.629912e-03 -2.593122e-03 1 652.6877 287.7108)" class="st12 st7 st13">10</text>
	<text id="solano_numbers" transform="matrix(0.986 2.629912e-03 -2.593122e-03 1 656.0469 272.351)" class="st12 st7 st13">10</text>
	<text id="el_dorado_numbers" transform="matrix(0.986 2.629912e-03 -2.593122e-03 1 704.5275 265.6311)" class="st12 st7 st13">10</text>
	<text id="sacramento_numbers" transform="matrix(0.986 2.629912e-03 -2.593122e-03 1 677.6479 271.871)" class="st12 st7 st13">10</text>
	<text id="placer_numbers" transform="matrix(0.986 2.629912e-03 -2.593122e-03 1 708.3679 250.7511)" class="st12 st7 st13">10</text>
	<text id="nevada_numbers" transform="matrix(0.986 2.629912e-03 -2.593122e-03 1 699.248 239.7111)" class="st12 st7 st13">10</text>
	<text id="sierra_numbers" transform="matrix(0.986 2.629912e-03 -2.593122e-03 1 713.1675 232.0309)" class="st12 st7 st13">10</text>
	<text id="yuba_numbers" transform="matrix(0.986 2.629912e-03 -2.593122e-03 1 683.4077 238.7509)" class="st12 st7 st13">10</text>
	<text id="sutter_numbers" transform="matrix(0.986 2.629912e-03 -2.593122e-03 1 670.9271 244.0311)" class="st12 st7 st13">10</text>
	<text id="yolo_numbers" transform="matrix(0.986 2.629912e-03 -2.593122e-03 1 661.3271 255.071)" class="st12 st7 st13">10</text>
	<text id="napa_numbers" transform="matrix(0.986 2.629912e-03 -2.593122e-03 1 645.967 257.9509)" class="st12 st7 st13">10</text>
	<text id="narin_numbers" transform="matrix(0.986 2.629912e-03 -2.593122e-03 1 629.1675 272.831)" class="st12 st7 st13">10</text>
	<text id="sonoma_numbers" transform="matrix(0.986 2.629912e-03 -2.593122e-03 1 628.6876 252.6709)" class="st12 st7 st13">10</text>
	<text id="colusa_numbers" transform="matrix(0.986 2.629912e-03 -2.593122e-03 1 656.527 234.4311)" class="st12 st7 st13">10</text>
	<text id="lake_numbers" transform="matrix(0.986 2.629912e-03 -2.593122e-03 1 638.5906 234.353)" class="st12 st7 st13">10</text>
	<text id="glenn_numbers" transform="matrix(0.986 2.629912e-03 -2.593122e-03 1 655.8701 215.1133)" class="st12 st7 st13">10</text>
	<text id="butte_numbers" transform="matrix(0.986 2.629912e-03 -2.593122e-03 1 682.7506 219.4731)" class="st12 st7 st13">10</text>
	<text id="plumas_numbers" transform="matrix(0.986 2.629912e-03 -2.593122e-03 1 708.1906 211.7933)" class="st12 st7 st13">10</text>
	<text id="tehama_numbers" transform="matrix(0.986 2.629912e-03 -2.593122e-03 1 663.0704 197.3931)" class="st12 st7 st13">10</text>
	<text id="mendocino_numbers" transform="matrix(0.986 2.629912e-03 -2.593122e-03 1 621.7903 212.2733)" class="st12 st7 st13">10</text>
	<text id="humboldt_numbers" transform="matrix(0.986 2.629912e-03 -2.593122e-03 1 622.2701 157.553)" class="st12 st7 st13">10</text>
	<text id="trinity_numbers" transform="matrix(0.986 2.629912e-03 -2.593122e-03 1 646.7499 164.2732)" class="st12 st7 st13">10</text>
	<text id="shasta_numbers" transform="matrix(0.986 2.629912e-03 -2.593122e-03 1 682.2701 170.513)" class="st12 st7 st13">10</text>
	<text id="lassen_numbers" transform="matrix(0.986 2.629912e-03 -2.593122e-03 1 721.6312 182.0331)" class="st12 st7 st13">10</text>
	<text id="modoc_numbers" transform="matrix(0.986 2.629912e-03 -2.593122e-03 1 725.9503 147.4731)" class="st12 st7 st13">10</text>
	<text id="siskiyou_numbers" transform="matrix(0.986 2.629912e-03 -2.593122e-03 1 674.1108 134.033)" class="st12 st7 st13">10</text>
	<text id="del_norte_numbers" transform="matrix(0.986 2.629912e-03 -2.593122e-03 1 634.7499 115.3131)" class="st12 st7 st13">10</text>
</g>
<g id="table_data">
	<text transform="matrix(1 0 0 1 22.167 676.069)" class="st2 st7 st8">Confirmed Cases</text>
	<text transform="matrix(1 0 0 1 22.167 720.0007)" class="st2 st7 st8">Deaths</text>
	<text id="current_date" transform="matrix(1 0 0 1 205.6966 631.7867)" class="st2 st7 st8">6 Apr. 2020</text>
	<text id="previous_date" transform="matrix(1 0 0 1 340.4748 631.7867)" class="st2 st7 st8">5 Apr. 2020</text>
	<text id="growth_rate__x25_" transform="matrix(1 0 0 1 459.543 631.7867)" class="st2 st7 st8">Growth Rate %</text>
	<text transform="matrix(1 0 0 1 674.818 631.7867)" class="st2 st7 st8">Total Confirmed Cases</text>
	<text id="current_сases" transform="matrix(1 0 0 1 228.5522 679.821)" class="st14 st7 st5">783</text>
	<text id="previous_deaths" transform="matrix(1 0 0 1 371.2653 724.3005)" class="st14 st7 st5">14</text>
	<text id="current_deaths" transform="matrix(1 0 0 1 232.0725 723.3207)" class="st14 st7 st5">15</text>
	<text id="total_cases" transform="matrix(1 0 0 1 733.2673 708.9642)" class="st15 st7 st16">783</text>
	<text id="previous_сases" transform="matrix(1 0 0 1 363.3525 679.821)" class="st14 st7 st5">673</text>
	<text id="cases_growth_rate" transform="matrix(1 0 0 1 493.2656 681.3572)" class="st14 st7 st5">16 %</text>
	<text id="death_growth_rate" transform="matrix(1 0 0 1 497.6649 725.8365)" class="st14 st7 st5">7 %</text>
</g>
</svg>
