<?xml version="1.0" encoding="utf-8"?>
<!-- Generator: Adobe Illustrator 24.1.2, SVG Export Plug-In . SVG Version: 6.00 Build 0)  -->
<svg version="1.1" id="Layer_1" xmlns="http://www.w3.org/2000/svg" xmlns:xlink="http://www.w3.org/1999/xlink" x="0px" y="0px"
	 viewBox="0 0 916.5 740.2" style="enable-background:new 0 0 916.5 740.2;" xml:space="preserve">
<style type="text/css">
	.st0{fill:#F5FBFE;}
	.st1{fill:#DDEEFA;}
	.st2{fill:#255078;}
	.st3{font-family:'Georgia';}
	.st4{font-size:18px;}
	.st5{font-size:16px;}
	.st6{fill:#4C4B4D;}
	.st7{font-family:'ArialMT';}
	.st8{font-size:14px;}
	.st9{fill:#CD483B;}
	.st10{fill:none;}
	.st11{fill:#AED9F4;}
	.st12{fill:#AEDBF5;stroke:#FFFFFF;stroke-width:0.5;stroke-miterlimit:10;}
	.st13{fill:#FFFFFF;}
	.st14{font-size:6.0432px;}
	.st15{fill:#4C4B4C;}
	.st16{fill:#DB3029;}
	.st17{font-size:36px;}
</style>
<g id="Texts">
	<polygon id="blue_bg" class="st0" points="-0.1,604.9 -0.1,641.9 -0.1,651.5 -0.1,740.3 173.4,740.3 173.4,651.5 914.9,651.5 
		914.9,604.9 	"/>
	<path id="line_bg" class="st1" d="M916.4,1.1H-0.1v130v474.4v2v42.9v2v42.9v2v42.9l0,0h579.8l0,0h333.2l0,0h3.5V1.1z M912.9,57.9
		v547.6H578.3l-0.6-0.3v0.3H443.5l-0.6-0.3v0.3H2.9V57.9H912.9z M912.9,607.5v42.9H579.7v-42.9H912.9z M445,650.5v-42.9h132.8v42.9
		H445z M577.7,652.5v42.9H445v-42.9H577.7z M310.2,650.5v-42.9H443v42.9H310.2z M443,652.5v42.9H310.2v-42.9H443z M175.4,650.5
		v-42.9h132.8v42.9H175.4z M308.2,652.5v42.9H175.4v-42.9H308.2z M173.4,607.5v42.9H2.9v-42.9H173.4z M173.4,652.5v42.9H2.9v-42.9
		H173.4z M2.9,697.4h170.5v39.9H2.9V697.4z M175.4,697.4h132.8v39.9H175.4V697.4z M310.2,697.4H443v39.9H310.2V697.4z M445,697.4
		h132.8v39.9H445V697.4z M579.7,652.5h333.2v84.8H579.7V652.5z"/>
	<text id="title" transform="matrix(1 0 0 1 32.8483 35.8372)" class="st2 st3 st4">COVID-19 in Florida on</text>
	<text id="date" transform="matrix(1 0 0 1 228.4693 35.8372)" class="st2 st3 st4">April 27th, 2020</text>
	<text id="confirmed" transform="matrix(1 0 0 1 32.8481 125.0051)" class="st2 st3 st5">State Confirmed Cases By County</text>
	<g>
		<text transform="matrix(1 0 0 1 34.2081 171.5908)" class="st6 st7 st8">Alachua  10</text>
		<text transform="matrix(1 0 0 1 34.1868 195.9143)" class="st6 st7 st8">Baker  10</text>
		<text transform="matrix(1 0 0 1 34.1868 220.2373)" class="st6 st7 st8">Bay  10</text>
		<text transform="matrix(1 0 0 1 34.1868 244.5608)" class="st6 st7 st8">Bradford  10</text>
		<text transform="matrix(1 0 0 1 34.1868 268.8843)" class="st6 st7 st8">Brevard  10</text>
		<text transform="matrix(1 0 0 1 34.1868 293.208)" class="st6 st7 st8">Broward  10</text>
		<text transform="matrix(1 0 0 1 34.1868 317.5308)" class="st6 st7 st8">Calhoun  10</text>
		<text transform="matrix(1 0 0 1 34.1868 341.8547)" class="st6 st7 st8">Charlotte  10</text>
		<text transform="matrix(1 0 0 1 34.1866 366.1777)" class="st6 st7 st8">Citrus  10</text>
		<text transform="matrix(1 0 0 1 34.1868 390.5007)" class="st6 st7 st8">Clay  10</text>
		<text transform="matrix(1 0 0 1 34.1866 414.8245)" class="st6 st7 st8">Collier  10</text>
		<text transform="matrix(1 0 0 1 34.1869 439.1479)" class="st6 st7 st8">Columbia  10</text>
		<text transform="matrix(1 0 0 1 34.1869 463.4708)" class="st6 st7 st8">DeSoto  10</text>
		<text transform="matrix(1 0 0 1 34.1866 487.7942)" class="st6 st7 st8">Dixie  10</text>
		<text transform="matrix(1 0 0 1 34.1869 512.1179)" class="st6 st7 st8">Duval  10</text>
		<text transform="matrix(1 0 0 1 34.1866 536.4413)" class="st6 st7 st8">Escambia  10</text>
		<text transform="matrix(1 0 0 1 34.1865 560.7645)" class="st6 st7 st8">Flagler  10</text>
		<text transform="matrix(1 0 0 1 154.5435 171.5908)" class="st6 st7 st8">Franklin  10</text>
		<text transform="matrix(1 0 0 1 154.5435 195.9138)" class="st6 st7 st8">Gadsden  10</text>
		<text transform="matrix(1 0 0 1 154.5435 220.2371)" class="st6 st7 st8">Gilchrist  10</text>
		<text transform="matrix(1 0 0 1 154.5435 244.5605)" class="st6 st7 st8">Glades  10</text>
		<text transform="matrix(1 0 0 1 154.5435 268.8845)" class="st6 st7 st8">Gulf  10</text>
		<text transform="matrix(1 0 0 1 154.5435 293.2073)" class="st6 st7 st8">Hamilton  10</text>
		<text transform="matrix(1 0 0 1 154.5435 317.5312)" class="st6 st7 st8">Hardee  10</text>
		<text transform="matrix(1 0 0 1 154.5438 341.8542)" class="st6 st7 st8">Hendry  10</text>
		<text transform="matrix(1 0 0 1 154.5435 366.1777)" class="st6 st7 st8">Hernando  10</text>
		<text transform="matrix(1 0 0 1 154.5435 390.5015)" class="st6 st7 st8">Highlands  10</text>
		<text transform="matrix(1 0 0 1 154.5435 414.8245)" class="st6 st7 st8">Hillsborough  10</text>
		<text transform="matrix(1 0 0 1 154.5435 439.1478)" class="st6 st7 st8">Holmes  10</text>
		<text transform="matrix(1 0 0 1 154.5435 463.4716)" class="st6 st7 st8">Indian River  10</text>
		<text transform="matrix(1 0 0 1 154.5438 487.7943)" class="st6 st7 st8">Jackson  10</text>
		<text transform="matrix(1 0 0 1 154.5434 512.1178)" class="st6 st7 st8">Jefferson  10</text>
		<text transform="matrix(1 0 0 1 154.5437 536.4417)" class="st6 st7 st8">Lafayette  10</text>
		<text transform="matrix(1 0 0 1 154.5436 560.7642)" class="st6 st7 st8">Lake  10</text>
		<text transform="matrix(1 0 0 1 274.5798 171.5911)" class="st6 st7 st8">Lee  10</text>
		<text transform="matrix(1 0 0 1 274.5798 195.9143)" class="st6 st7 st8">Leon  10</text>
		<text transform="matrix(1 0 0 1 274.5798 220.2373)" class="st6 st7 st8">Levy  10</text>
		<text transform="matrix(1 0 0 1 274.5798 244.5605)" class="st6 st7 st8">Liberty  10</text>
		<text transform="matrix(1 0 0 1 274.5798 268.8843)" class="st6 st7 st8">Madison  10</text>
		<text transform="matrix(1 0 0 1 274.5798 293.2075)" class="st6 st7 st8">Manatee  10</text>
		<text transform="matrix(1 0 0 1 274.5795 317.5315)" class="st6 st7 st8">Marion  10</text>
		<text transform="matrix(1 0 0 1 274.5797 341.854)" class="st6 st7 st8">Martin  10</text>
		<text transform="matrix(1 0 0 1 274.5797 366.178)" class="st6 st7 st8">Miami-Dade  10</text>
		<text transform="matrix(1 0 0 1 274.5799 390.5012)" class="st6 st7 st8">Monroe  10</text>
		<text transform="matrix(1 0 0 1 274.5795 414.8243)" class="st6 st7 st8">Nassau  10</text>
		<text transform="matrix(1 0 0 1 274.5795 439.1479)" class="st6 st7 st8">Okaloosa  10</text>
		<text transform="matrix(1 0 0 1 274.5799 463.4714)" class="st6 st7 st8">Okeechobee  10</text>
		<text transform="matrix(1 0 0 1 274.5795 487.7944)" class="st6 st7 st8">Orange  10</text>
		<text transform="matrix(1 0 0 1 274.5799 512.1182)" class="st6 st7 st8">Osceola  10</text>
		<text transform="matrix(1 0 0 1 274.5799 536.4417)" class="st6 st7 st8">Palm Beach  10</text>
		<text transform="matrix(1 0 0 1 274.5799 560.7645)" class="st6 st7 st8">Pasco  10</text>
		<text transform="matrix(1 0 0 1 393.26 171.5906)" class="st6 st7 st8">Pinellas  10</text>
		<text transform="matrix(1 0 0 1 393.2603 195.9138)" class="st6 st7 st8">Polk  10</text>
		<text transform="matrix(1 0 0 1 393.2598 220.2373)" class="st6 st7 st8">Putnam  10</text>
		<text transform="matrix(1 0 0 1 393.26 244.5608)" class="st6 st7 st8">st Johns  10</text>
		<text transform="matrix(1 0 0 1 393.2599 268.884)" class="st6 st7 st8">st Lucie  10</text>
		<text transform="matrix(1 0 0 1 393.2599 293.2075)" class="st6 st7 st8">Santa Rosa  10</text>
		<text transform="matrix(1 0 0 1 393.2599 317.531)" class="st6 st7 st8">Sarasota  10</text>
		<text transform="matrix(1 0 0 1 393.2599 341.8545)" class="st6 st7 st8">Seminole  10</text>
		<text transform="matrix(1 0 0 1 393.2599 366.1777)" class="st6 st7 st8">Sumter  10</text>
		<text transform="matrix(1 0 0 1 393.2599 390.501)" class="st6 st7 st8">Talladega  10</text>
		<text transform="matrix(1 0 0 1 393.2599 414.8248)" class="st6 st7 st8">Suwannee  10</text>
		<text transform="matrix(1 0 0 1 393.2602 439.1479)" class="st6 st7 st8">Taylor  10</text>
		<text transform="matrix(1 0 0 1 393.2599 463.4711)" class="st6 st7 st8">Union  10</text>
		<text transform="matrix(1 0 0 1 393.26 487.795)" class="st6 st7 st8">Volusia  10</text>
		<text transform="matrix(1 0 0 1 393.2601 512.1179)" class="st6 st7 st8">Wakulla  10</text>
		<text transform="matrix(1 0 0 1 393.2601 536.4412)" class="st6 st7 st8">Walton  10</text>
		<text transform="matrix(1 0 0 1 393.2601 560.7651)" class="st6 st7 st8">Washington  10</text>
	</g>
</g>
<g id="TYPES_1_">
	<g>
		<circle id="_x34__1_" class="st9" cx="816.2" cy="-42.4" r="21.1"/>
		
			<text id="_x34__numbers_1_" transform="matrix(1 2.629928e-03 -2.629928e-03 1 798.6997 -36.9954)" class="st13 st7" style="font-size:13px;">1,200</text>
	</g>
	<g>
		<circle id="_x33__1_" class="st9" cx="760.7" cy="-38.6" r="15.3"/>
		
			<text id="_x33__numbers_1_" transform="matrix(1 2.629936e-03 -2.629936e-03 1 750.0069 -35.0161)" class="st13 st7" style="font-size:13px;">500</text>
	</g>
	<g>
		<circle id="_x31__2_" class="st9" cx="680.4" cy="-38.6" r="7.2"/>
		
			<text id="_x31__numbers_2_" transform="matrix(1 2.629964e-03 -2.629964e-03 1 679.1932 -36.9716)" class="st13 st7" style="font-size:6px;">1</text>
	</g>
	<g>
		<circle id="_x31__1_" class="st9" cx="716.4" cy="-38.6" r="9.6"/>
		
			<rect x="711.5" y="-42.7" transform="matrix(2.629856e-03 -1 1 2.629856e-03 752.6624 678.1784)" class="st10" width="9.6" height="9"/>
		
			<text id="_x31__numbers_1_" transform="matrix(1 2.629909e-03 -2.629909e-03 1 711.9363 -35.9027)" class="st13 st7" style="font-size:8px;">20</text>
	</g>
	<g>
		<circle id="_x34__2_" class="st9" cx="867.1" cy="-38.6" r="23.9"/>
		
			<text id="_x34__numbers_2_" transform="matrix(1 2.629928e-03 -2.629928e-03 1 846.8077 -33.3953)" class="st13 st7" style="font-size:13px;">25,000</text>
	</g>
</g>
<g id="Counties">
	<path id="brevard" class="st11" d="M830.4,363.5l3.7-0.1l1.8,0.5l14.7,1.7l5-2l0.5,1.1c-0.4-2-0.9-3.9-1.9-5.6
		c-1.6-2.8-2.8-4.7-3.3-8.1c-0.7-4.4-1.6-9.3-2.1-13.9c-0.5-4.4,1.8-8.8,4.1-12.4c2-3.2,1.2-9.7-0.6-13.1c-1.9-3.7-4.4-7.4-6.4-11.2
		l-0.2,1.2l-14-2.4l-0.4,0.6l1.1,1.9l-1.2,3.4l1.8,2.8l-0.7,2.4l-1.9,0.1l4,15.1l-1,2.8l1.2,6.9c-0.4,2.9-0.9,6.4-0.8,7
		c0.2,1.1-0.7,2.1-1.6,3.1c-0.3,0.3-0.7,0.7-0.7,0.9l-0.5,1.7l1.5,3.9l-1.7,6.2L830.4,363.5z"/>
	<path id="st_johns" class="st11" d="M806.3,208l-0.9-2l-3.9-1.1l-0.5,1.8c3.1,12.1,3.3,14.8,3,15.6c0,1.4,1.7,9.7,3.5,17
		c0,0.3,0.1,0.6,0.1,0.8l15.7-2.3l0.2,1.4c-0.3-2.6-0.6-5.2-0.9-7.5c-0.8-4.7-0.7-9.2-0.9-13.8c-0.2-4.2-0.9-8.7-1.2-12.8
		c-0.2-2.4-0.5-4.6-0.4-7l0,0v1.2h-3.4l-0.1,0.3l1.4,4.2l-4.1,4.2L806.3,208z"/>
	<polygon id="seminole" class="st11" points="804.1,305.2 816.9,308.8 827.1,308.2 825.7,303.2 823.2,297.4 819.4,298.6 
		809.5,293.4 809.3,294.2 805.8,296.9 807.1,298.5 803.4,300.5 	"/>
	<path id="volusia" class="st11" d="M845,299c-0.6-1.1-1.1-2.2-1.5-3.3c-1-2.7-1.8-5.8-2.8-8.3c-1.2-3-3.5-5.7-4.8-8.7
		c-2-4.8-3.3-8.9-4.5-13.9c-0.6-2.3-1.3-4.6-2.1-6.8l-1.6,1.2l-2.7,9.5l-7.3,0.7l-10.6-3l-1.1-8.8l-7.9,1.2L798,259l-0.3,1.2l-0.8,3
		l8.7,15.5l2.7,0.8l3.2,6.6l-1.4,5.1l9.5,4.9l5-1.5l3.5,8.1l0.5,2l0.9-2.5l-1.2-2.2l1.9-3.3L845,299z"/>
	<path id="broward" class="st11" d="M818.7,463.7l-0.8,2.9l-1.5,18.9l46.4,4.2c0-1.4,0.1-2.9,0.4-4.3c0.9-3.8,2.1-7.5,3.1-11.2
		c0.4-1.4,0.7-2.8,1.1-4.2l-20.7-3.5L818.7,463.7z"/>
	<path id="palm_beach" class="st11" d="M871.3,425.6l-0.1,1.2l-47.5-3.7l-1.5,2.8l-3,35.4l27.9,2.9l20.9,3.5l-0.2,1.2
		c2.8-11.5,4.6-24,4.6-35.5C872.3,430.7,871.8,428.1,871.3,425.6z"/>
	<path id="hillsborough" class="st11" d="M726.9,363.8l6.8-1.4l23.2,3l3.7-31.9l-33.6-4l0.8,2.8l-1.4,5l1,2.8l-1.2,0.4
		c1.3-0.1,2.6-0.1,3.6,0.2c3.6,1,9.4,2.9,9.1,7.5c-0.2,4.1-5.1,7.7-7.6,10.5C729.8,360.3,728.4,362.1,726.9,363.8z"/>
	<polygon id="desoto" class="st11" points="754,407.5 780,410.7 782.4,392.3 756.6,388.9 755.6,398 754.3,397.7 	"/>
	<polygon id="polk" class="st11" points="785.6,369 785.6,369 810.1,372.5 811,369.1 810.4,367.6 807.2,362.6 806.7,360 
		803.6,357.1 801.4,351.7 799.3,349.7 794.3,341 793.2,340.7 791.8,337.4 788.9,334.1 785.2,329.5 786.4,325.2 763.7,323 759,330.2 
		758.1,330.7 763.2,331.3 759.3,365.6 	"/>
	<polygon id="gilchrist" class="st11" points="737.6,234 740.1,218.7 733.2,211.6 729.7,213.6 728,215.6 726.1,216.6 726.1,225.3 
		724.6,230.7 	"/>
	<path id="marion_1_" class="st11" d="M744,270.6l1.8,2.3l6.5,4.6l2,0.6l19.4,1.2v-0.2l1.3,0.3c6.4,1.4,13.5,2.8,15.8,3l3.4-12.2
		l-1.8-0.5l2.1-6.8l0.6-2.3l-3.4-1l-3.3-6.9l0.6-2.2l-3.4-3.4l-4.9-2.7l-6.2,1.5l-1.7,2.2l-4.2,2.5l-3.3-0.5l-1.7-2.6l-2-2.6
		l-4.4,0.8l-5-1.2l0.4,3.1l0.2,8.9l-0.9,3.1l-5.9,1.5l-1.5-0.4l-0.9,3.1l1.3,2.4l-1.2,4.2L744,270.6z"/>
	<path id="sumter_1_" class="st11" d="M760.7,308l3.5,1l0.1,11.7l3.4,0.3l5.5-39.4l-17.1-1.1c1.4,2.6,3.5,6.6,3.7,7.3
		c0.4,1.1,0.3,4,0.2,4.9l-0.1,1l-3.1,0.4l-1.1,4.1l1.5,5.4l2.1,0.6L760.7,308z"/>
	<path id="hernando" class="st11" d="M734.4,311.1c0.8-0.4,2.1-0.9,3.1-0.7c0.6,0.1,5.5,0.8,10,1.4c2.1,0,4.6-0.2,5.4-0.5
		c0.7-0.8,2.1-2,2.4-2.3l0.2-0.2l2.7-0.7l-0.6-1.9l-2.2-0.6l-1.8-6.3L743,298l0.9-3.1l-3.9-1.1l-2.9,2.3l-6.4-1.8
		c-0.1,0.2-0.1,0.5-0.2,0.7c-1,5.1-2,10.3-4,15.1L734.4,311.1z"/>
	<path id="lafayette" class="st11" d="M703.1,212.7L722,216l2-1l2-2.9l0.9-3.2l-2.6-3.8l-4.7-5.1l-2.3-3.3l-4.4,1.9l-2.2-4.4
		l-3.6-2.4l1.8-6.5l-4.3,1.1c-1.8,16.3-2.5,19.6-2.8,20.5C701.7,207.5,702.4,210.2,703.1,212.7z"/>
	<path id="hamilton" class="st11" d="M714.1,160.5c-0.1,2.3-0.1,5.5-0.1,5.9c0.1,0.6,0,2.7-0.1,4.1l3.3,2.4l3.2-0.9l11.1,3.1
		l5.9,6.5l5.9,1.6l2.8-1.4l0.7-2.4l-1.7-2.9l-2.6-4.1l0.5-5.6L714.1,160.5z"/>
	<polygon id="columbia" class="st11" points="745.5,166.9 745,171.8 747.2,175.3 749.4,179.1 748.2,183.5 743.6,185.9 737.8,184.3 
		734.7,209.6 741.4,216.6 747.8,210.1 751.7,204.2 754.5,199.8 753.7,195.8 756.6,169.2 	"/>
	<polyline id="baker" class="st11" points="759.1,169 756.2,195.8 756.8,198.7 770.3,197.8 773.6,198.7 778,199.1 779.2,188.6 
		773.7,186.7 771.3,182.2 773.7,175.4 771.7,172.8 759.1,169 	"/>
	<path id="madison_1_" class="st11" d="M696,156.9l-1.3,4.8l-0.5,0.2c-3.3,1.8-7.1,3.9-7.6,4.4c-0.1,0.1-0.5,0.7-1.1,1.4
		c-0.7,0.9-2.1,2.6-2.3,3c-0.1,0.3-0.5,1-1.7,3.4c-0.2,0.4-0.4,0.8-0.6,1.3l17.7,2.2l0.7,3.4l4.4,3l6.2-1.6c0.4-0.5,1.4-1.6,2.3-2.5
		c1-1.1,2.5-3.3,3-3.9l0.4-1.3l-4.2-3V171c0.1-1.7,0.2-3.9,0.1-4.3c-0.1-0.4,0.3-4.1,0.4-6.6L696,156.9z"/>
	<path id="jefferson_1_" class="st11" d="M672,152.2l-2.6,9.1l-2.7,3.9l-1.9,6.9l0.3,4.1l0.3,0.1l-3,10.9h-0.1
		c1.7,0.6,2.8,1.2,3.6,2l-0.7-0.7l6.8-7.2c2.2-1.4,4.7-3.1,5.3-3.6c0.2-0.6,0.9-1.8,2.3-4.7c0.7-1.3,1.5-2.9,1.6-3.2
		s0.4-0.8,2.7-3.7c0.5-0.6,0.9-1.1,1.1-1.4c0.2-0.2,0.6-0.9,7.9-4.8l0.9-3.1L672,152.2z"/>
	<polygon id="leon" class="st11" points="669.6,151.5 667.2,160.1 664.5,164 662.3,171.6 662.4,174.9 653.8,170.6 648.4,169.4 
		630.1,167.7 630.4,166.7 632.6,164.4 634.6,164.3 640.3,164.6 643.2,163.3 648.1,161.3 655,148.6 	"/>
	<polygon id="holmes" class="st11" points="566.8,124.3 575,126.6 574.4,128.6 579.1,129.9 581.7,123.4 585.5,117 585.7,116.7 
		558.8,112.4 556.5,129.4 559.3,130.2 559.8,128.4 563.5,129.3 563.5,129.2 565.9,129.9 	"/>
	<polygon id="washington_1_" class="st11" points="587.4,142.2 588.8,137.5 589.1,131.1 587.3,126.6 586.2,126.3 582.7,127.6 
		580.6,132.9 571.4,130.3 571.9,128.3 568.8,127.4 567.9,133 565.4,132.3 564.7,136.2 562.5,136.9 564,137.3 563,143.2 559.6,144.7 
		558.2,148 562.1,147.2 583.5,151.3 583.8,149.3 582,148.8 583.7,143.9 	"/>
	<path id="suwannee" class="st11" d="M728.6,211.4l3.6-2.1l3.2-26.2l-5.3-5.8l-9.7-2.7l-2.5,0.7l-0.6,2c-0.1,0.1-2,2.9-3.3,4.3
		c-1,1-1.9,2.1-2.3,2.6l-1.9,6.6l2.7,1.8l1.5,2.9l4.2-1.8l3.4,4.9l4.7,5.1l3.3,4.8L728.6,211.4z"/>
	<path id="liberty" class="st11" d="M627.6,167.7l0.6-2.2l2.1-2.3l-2.8-2.7l-2.1-3.8l-2.9-3.9l-2.7-3.1l-2.6-0.7l-0.8,0.5
		c-2.1,4.4-7.1,14.9-7.3,15.3c-0.1,0.4-4.4,5.3-6.6,6.9c0.3,1.8,2.6,7.7,4.8,12.8l9,2.5l4.8-1.5l7.5,2.1l-1.2-2.3l-1.3-4.7l-0.9-2.8
		l-2.1-2v-4.2l2.2-3.4L627.6,167.7z"/>
	<path id="putnam" class="st11" d="M793.4,257.6l2.4,0.7l0.5-1.7l10.1-1.6c0.4-0.7,0.7-1.5,0.6-1.8c-0.5-1-1.4-7.8-2-13.3
		c-1.8-7.4-2.7-11.7-3.1-14.3l-0.9,1.3l-7.3-2.1l-6.6,0.5l-2.8,3.9l-7.7,1.3l-1.5,12.9l5.8-1.4l6.2,3.4l4.6,4.5l-0.7,2.7
		L793.4,257.6z"/>
	<path id="bradford" class="st11" d="M771.7,219.5l3.2,5l2.8-23l-3.4-0.3l-0.1,0.3l-2.8,3.3c-6.3,7.9-6.7,7.8-7.4,7.7h-0.1
		c-0.6,0.2-2.1,0.8-3.2,1.4l-2.3,0.8l1.2,1.2L771.7,219.5z"/>
	<path id="union" class="st11" d="M769.5,203.4l2.2-2.6l-1.9-0.5l-13.3,1l-2.8,4.3l-3.2,4.9l5.5,2.7l3.6-1.3c2-1,3.2-1.5,4.1-1.6
		C764.7,209.2,767.3,206.1,769.5,203.4z"/>
	<path id="Duval" class="st11" d="M809.4,175.3l-2.7-0.8l-3.5,1.9l-4.4,1.7l-2.6,4.6l-4.7,2.3l-10.2,7.5l-0.5,3.8l10.8,1.5l9.4,2.6
		l0.6,1.8l5.5,1.6l0.8,1.6l4.8,0.1l2.3-2.4l-1.1-3.4l0.8-2.9l5.2,0.1c-0.1-4.6-0.9-9.3-1.4-14l-0.9,0.8l-3.7-4.3L809.4,175.3z"/>
	<path id="indian_river" class="st11" d="M830.3,375.4l1.9-1.3l2.7,0.8v4.3l18.6,4.7l7.2-2.3l0.4,1.2c-1-4.5-3.2-8.7-4.2-13.3
		c-0.3-1.1-0.5-2.3-0.7-3.5l-5.3,2.2l-15.6-1.8l-1.7-0.5l-3.4,0.2l-0.7,9.4L830.3,375.4z"/>
	<path id="flagler" class="st11" d="M808.4,256.3l1,8l8.6,2.4l5.1-0.5l2.4-8.7l2.5-1.9l0.7,1c-1.5-3.7-3.1-7.4-4.2-11.3
		c-0.5-1.5-0.8-3.2-1-5l-15.7,2.3c0.5,4.5,1.1,8.7,1.4,9.4C810,253.3,809.1,255.3,808.4,256.3z"/>
	<path id="calhoun_1_" class="st11" d="M589.6,169.5l11.6,0.2c0.9-0.6,5-5.2,5.8-6.1c0.4-0.8,1.7-3.7,7.4-15.5l0.1-0.3l1.5-1v-0.1
		l-9.9-1l-4.5,2.7l-8.2-1.9l-1.5,13.1L589.6,169.5z"/>
	<polygon id="gadsden" class="st11" points="623.5,139.8 619,145.1 618.5,146.8 621.2,147.5 624.4,151.2 627.5,155.4 629.6,159.1 
		632.5,161.9 634.6,161.8 639.8,162.1 642.2,161 646.3,159.4 652.6,148 624.1,141.6 	"/>
	<polygon id="alachua" class="st11" points="741.4,234.9 749.7,241.5 757.1,243.4 762.5,242.3 765.5,246.2 766.6,248 768,248.2 
		771.1,246.4 772.5,244.5 774.6,227.2 773.5,226.8 770.2,221.6 758.3,218.3 755.4,215.4 749,212.4 742.6,218.9 740,234.6 	"/>
	<polygon id="hardee" class="st11" points="782.8,389.9 785.2,371.5 759,368.1 756.9,386.5 	"/>
	<polygon id="hendry" class="st11" points="795.1,447.1 796.2,451.5 795.4,464.4 815.8,465.1 816.6,462.2 819.5,428.1 817.7,429.4 
		816.3,434.5 779.9,430 777.7,445.9 	"/>
	<polygon id="highlands" class="st11" points="794,412.4 798.8,412.6 799,412.1 798,410.4 798.8,407.7 807.2,401 815.6,401 
		815.4,400 811.5,392.8 807.8,380.7 809.4,374.9 787.7,371.8 782.4,411 	"/>
	<polygon id="glades" class="st11" points="814.5,431.8 815.6,427.9 819.8,424.8 820.3,419.4 818.9,404.1 816.9,403.5 808.1,403.5 
		800.9,409.1 800.7,410.1 801.6,411.8 800.7,415.1 793.8,414.9 782.1,413.4 780.2,427.5 	"/>
	<path id="santa_rosa" class="st11" d="M513.6,105.1l-23.7-3.8l-1.7,5.6l-2-0.6l-2.2,7.9l2.9,11.9l-0.8,2.8l2.3,3.6l1.1,4.2l1.4,2.7
		l2.3,0.6l-0.3,1.2c1.8,0,3.6,0.1,5.5,0.3c2.4,0.2,4.7,0.2,7,0.5c0.7,0.1,1.4,0.3,2,0.4L513.6,105.1z"/>
	<path id="charlotte" class="st11" d="M746.5,411.9c3.1,0.7,3.9,0.8,4.8,3.6c0.9,3,0.2,5.6-0.8,8.3l27.3,3.4l1.9-14.1l-37.8-4.6
		l-2.9,5.2l-4.8-1.4c1.3,3.4,1.6,9.3,5.6,10.3C745.3,423.9,744.2,415.1,746.5,411.9z"/>
	<path id="dixie" class="st11" d="M707.5,248.5l4.6-3.4l2.4-2.7l6.9-9.8l0.4-1.4l0.3-1.1l1.5-5.4l-0.1-6.9l-1.3,0.6l-19.4-3.4
		l-0.3,1l-5.1,5.5l-1.7,6.1l-1.2-0.3c0,0.5,0.1,1.1,0.2,1.5c0.6,3.4,2.8,4.4,5.3,5.9c5,2.9,5.8,8.7,6.5,13.8c0.5,0.3,1,0.6,1.5,0.9
		L707.5,248.5z"/>
	<path id="wakulla" class="st11" d="M651.7,186.3c3.1,0.1,6-0.2,9.1,0.5l-0.9-0.3l2.5-8.9l-9.3-4.7l-5-1.1l-19.4-1.8l-1.9,0.4
		l-1.2,1.9v2.4l1.8,1.7l1.1,3.5l1.3,4.6l2.1,4l7.4,2.1l2.9,5.5l-1.1,0.6c2.2,0.5,4.1,0.4,4.1-2.4c0-1-0.9-1.5-0.6-3.1
		C645.3,187.2,648,186.1,651.7,186.3z"/>
	<path id="levy" class="st11" d="M728.7,267.9l9.2,2.6l1.5-1.2l1.8,0.5l0.9-3.2l-1.3-2.4l1.8-6.5l3.3,0.9l3.9-1l0.4-1.5l-0.2-8.2
		l-0.5-3.9l-1-0.2l-8.3-6.7l-16.4-4.1l-0.3,0.8l-7.2,10.1l-2.8,3l-4.4,3.3c1.3,1.1,2.6,2.2,4.2,3.1c2,1.1,4.3,1.9,6.3,3
		c1.9,1,5.6,2.9,6.9,4.5c1.2,1.5,1.4,4.2,1.6,5.9c0.1,0.8,0.1,1.6,0.2,2.3L728.7,267.9z"/>
	<path id="franklin_1_" class="st11" d="M637.5,192.6l-16.4-4.6l-4.8,1.5l-9.1-2.5l-3.2,11.2l-6.8,3.8c4.2,0.6,7.9,2.6,12.1,2.6
		c9.1,0.1,16.6-7.1,25-9.3c1.3-0.3,3.2,0.3,5.1,0.8L637.5,192.6z"/>
	<path id="bay" class="st11" d="M589.4,159.1l1.5-13.4l-2.5-1.2l-2.7,1.3l-0.5,1.4l1.4,0.4l-1.2,6.6l-23.3-4.5l-5,1.1l-3.4,8.2
		l-1.1-0.5c1.2,0.7,2.4,1.4,3.7,2.1c4.4,2.6,6.6,6.6,10.2,9.9c2,1.8,4.3,3.2,6.2,5c1.8,1.8,2.4,3.9,4,5.9c1.2,1.4,1.7,1.3,3.5,2.1
		c1.2,0.5,2.3,1.3,3.2,2.2L589.4,159.1z"/>
	<path id="gulf" class="st11" d="M602,196.6l3.1-11c-3.4-8.1-4.6-11.7-4.9-13.4l-11.1-0.2l-3.5,15.1l-1.2-0.3
		c0.3,0.4,0.6,0.8,0.9,1.3c3.1,5.2,0.8,9.3,0.8,14.9c1.5,0.7,4.6,1,6.1,0.6l-0.6-1.1L602,196.6z"/>
	<path id="manatee" class="st11" d="M721.9,377.3l22.8,3.2l-0.4,12.9l9.2,1.6l3.1-27.3l-23-3l-7.9,1.7l-0.3-1.1
		c-0.2,0.2-0.5,0.5-0.7,0.7c-1.7,1.7-3.9,2.3-5.6,3.9c-2.5,2.3,0.2,3.9,1.5,6c0.5,0.8,0.8,1.7,1.2,2.6L721.9,377.3z"/>
	<path id="sarasota" class="st11" d="M733.9,409.7l3.8,1.1l2.8-5l11,1.4l0.3-9.9l-10.1-1.8l0.4-12.8l-20-2.8c0.9,3,1.5,6.1,3.4,9.1
		c2.3,3.7,2.6,7.5,4.3,11.4c1.6,3.6,2.4,7.1,3.7,10.6L733.9,409.7z"/>
	<path id="pinellas" class="st11" d="M728.6,348.1c-0.1-1.4-3.7-2.1-4.6-2.8c-3.3-2.5-1.7-4.1,1-4.7l-1.2-3.3l1.4-5.1l-0.9-3.1
		l-5.5-0.7l0.1-1.2c-0.7,3.8-2.6,7.2-3,11.1c-0.3,3.5,0.4,6.8,1.1,10.2c0.5,2.3,1,4.5,1.4,6.8c0.4,2,0.3,4.8,1.2,6.3
		c1.9-3,4.2-5.5,5.7-8.7C725.8,352,728.6,348.3,728.6,348.1z"/>
	<path id="pasco" class="st11" d="M726.1,326.8l27.8,3.3l3.4-1.8l4.6-7l-0.1-10.5l-2-0.6l-3.1,0.8c-0.8,0.6-1.7,1.5-1.9,1.8
		c-0.3,0.4-0.9,1.3-7.3,1.4h-0.2c-2.2-0.3-9.6-1.2-10.4-1.5c-0.2,0-1,0.3-1.6,0.6l-0.3,0.2l-9-1l0.1-1.2c-0.6,1.3-1.2,2.6-1.9,3.8
		c-1.1,1.8-2.3,3.5-3.4,5.4c-1.2,2.1-1.3,3.5-1.5,5.5L726.1,326.8z"/>
	<path id="citrus" class="st11" d="M731.3,292l5.2,1.4l2.9-2.3l7.5,2.1l-0.8,2.7l7.5,0.9l1.4-5l2.6-0.3c0-1.3,0-2.5-0.1-2.8
		c-0.2-0.6-2.7-5.4-4.4-8.5l-2.2-0.7l-7-5l-1.4-1.8L740,272l-1.5,1.2l-9.9-2.8c0.1,0.8,0.3,1.7,0.7,2.4c0.9,2,2.7,3.6,3.6,5.6
		C734.8,282.4,732.7,287.6,731.3,292z"/>
	<path id="taylor" class="st11" d="M695.4,220.4l5.1-5.5l0.3-1.1c-1.9-6.3-1.6-7.6-1.3-8.1c0.4-1.4,1.6-11,2.6-19.7l-5.1-3.5
		l-0.5-2.7l-16.8-2.1c-0.2,0.4-0.4,0.8-0.4,0.9c-0.1,0.4-0.3,1.1-6.1,4.7l-6.4,6.9l-0.9-0.9c0.8,0.8,1.4,1.7,2.4,2.8
		c1.6,1.8,4.3,3.2,6.1,4.6c6.5,4.8,14.3,12.1,15.3,20.6c1.8,1.1,3.2,2.7,4.9,3.8c0,0.7,0,1.5,0,2.3L695.4,220.4z"/>
	<path id="walton" class="st11" d="M557.7,142.9l3.1-1.4l0.4-2.4l-2.3-0.6l0.9-3.3l2.8-0.9l0.5-2.6l-1.6-0.4l-0.5,1.9l-7.2-2
		l2.7-19.2l-17.6-2.8l-6.8,37.2l-1.2-0.2c4.1,1.8,7.8,4.1,11.7,6.5c3,1.9,6,3.5,9.1,5.2L557.7,142.9z"/>
	<path id="okaloosa" class="st11" d="M536.4,108.8l-20.4-3.3l-6.2,37.5l-1.2-0.2c1.2,0.4,2.4,0.7,3.5,0.8c2.3,0.2,4.4-1,6.7-1
		c2,0,4.1,0.8,6.1,1.4c1.6,0.5,3.2,1,4.7,1.6L536.4,108.8z"/>
	<path id="escambia_1_" class="st11" d="M487.2,137.4l-1.1-4.1l-2.6-4l0.9-3.2l-3-11.9l3-10.9l2,0.6l0.9-3l-13.4-2.2l-2.9,5.1
		l10,13.7l-7,23.8c0.5,0.1,0.9,0.1,1.4,0.1c4.5,0,9.1-0.2,13.7-0.2L487.2,137.4z"/>
	<path id="lee" class="st11" d="M760.2,457.1l7.9-0.6c1.5-0.1,3.1-0.3,3.7-0.5c0.3-0.5,1.2-1.8,3.9-4.7l-0.8-2.2v-0.3l2.6-19.1
		l-27.5-3.5l0.2-1.2c-0.4,1.1-0.8,2.2-1.1,3.4c-0.6,2.4-0.6,3.9-0.2,6.2c0.2,1.3,1.8,4.6,1.7,5.7c-0.1,1.3-3,3.6-4.2,3.7
		c-2.8,0.3-3.9-2.6-4.7-4.6s-1.4-4.1-1.8-6.2c-0.4-2.2-0.2-5.4-2.4-6.7c-0.1,0.2-0.1,0.6-0.3,0.8c-0.5,0.9,0.9,5,1.2,6.1
		c0.6,2.1,1.3,4.2,1.6,6.5c0.3,2.1,0.5,4,2.6,5.4c1.6,1,4.7,1.4,6.4,0.8c2.7-1,2.8-3.1,5.6-0.6c1.7,1.5,2.6,3.4,3.6,5.5
		C759.2,453.2,760,454.9,760.2,457.1L760.2,457.1z"/>
	<path id="miamidade" class="st11" d="M819.4,540.2c5-0.1,9.2-1.4,13.9-2.7c2-0.5,3.8-0.9,5.7-1.9c1.5-0.9,3.1-3.1,4.9-2.9
		c0.9,3.7-7.1,11.8-9.5,14c-2.6,2.4-5.9,3.8-8.9,5.6c-2.6,1.6-4.5,3.7-7.1,5.1c-6.4,3.5-13.8,6.1-21,6.9c-0.2,0.3-11.1,3.6-5.4,4.8
		c1.2,0.3,3.2-1.2,4.2-1.7c1.7-0.8,2.9-0.9,4.7-1.2c3.1-0.5,6.4-2.2,9.5-3.2c2.9-1,5.3-3,8.1-4.1c2.1-0.8,4.4-0.8,6.5-1.9
		c2.9-1.5,5-4.1,7.4-6.4c3.7-3.7,7.6-7.2,10.8-11.4c2.8-3.6,4.3-7.5,8.1-10.2c3.4-2.4,2.6-5.1,4-8.8c-1,1.4-2.9,2.5-4.3,3.8
		c-0.9,0.9-2,3.9-2.9,4.4c-4.7,2.4-4-6-3.2-8.1c1.2-3.1,7.1-17.5,12.3-13.3c1.9-3.6,4.2-7.6,5.2-11.5c0.4-1.5,0.5-3.1,0.5-4.6
		l-0.1,1.2l-46.5-4.2l-5,50.7C811.1,538.7,815.4,540.4,819.4,540.2z"/>
	<path id="monroe_1_" class="st11" d="M806.4,538.9c-4.1,1-8.2,3-11.3-0.6c-4-4.5-1.8-7.8-0.1-12.9c1.7-5.1,0.1-8.7-1.6-13.5
		c-1.5-3.9-2.5-8.5-4.4-12.4c-0.6-1.2-1.3-2.8-2.1-4.3l25.8,3.5l-4,39.8L806.4,538.9z"/>
	<path id="collier" class="st11" d="M782.9,489.4c1.2,1,2.3,2.7,3.2,4.5l0.2-1.2l26.5,3.6l1-9.7l0,0l1.6-19l-22.6-0.9l0.9-15.2
		l-0.6-2.1l-15.8-1.1l-0.1,0.5l1.2,3l-0.5,0.6c-1.7,1.8-3.8,4.2-4.1,4.7c-0.1,0.5-0.4,1.6-5.7,1.8l-7.8,0.6l-0.1-1.2
		c0.1,3.1-0.9,6.2-0.5,9.2c0.4,3.3,2.1,6.5,2.8,9.7c0.5,2.1,0.3,4.6,1.2,6.5c1.7,3.5,2.9,1.3,5.6,1.4
		C772.9,485.1,780.3,487.1,782.9,489.4z"/>
	<path id="martin" class="st11" d="M870.6,422.2c-1.2-6-3.3-11.4-5.1-17.1l-3,3l-6.1,2.7l-19-3.4v0.7l-3.7,2l-7.8,8.7l-1.1,2
		l46.1,3.6C870.9,423.6,870.8,422.9,870.6,422.2z"/>
	<polygon id="okeechobee" class="st11" points="817.8,399.3 818.2,401.3 821.2,402.2 822.7,419.5 822.7,419.9 824.2,417.2 
		832.5,408 835,406.6 834.8,403.6 836.2,382.1 832.5,381.1 832.5,376.9 830.9,378 811.9,375.3 810.3,380.7 813.8,391.9 	"/>
	<polygon id="orange" class="st11" points="789.6,323 831.3,326.9 831.6,325.5 827.7,310.6 816.7,311.3 801.9,307.1 800.7,299.2 
		803.1,297.9 791.6,297.6 790.5,319.7 	"/>
	<path id="clay_1_" class="st11" d="M782.9,226.9l2.9-4l8.4-0.6l5.8,1.6l1.7-2.4c0-1.5-1.6-8.4-3.1-14.5l-0.1-0.3l0.9-3.3l-0.3-0.9
		l-8.1-2.3l-10.5-1.5l-3.5,29L782.9,226.9z"/>
	<path id="lake" class="st11" d="M770.2,321.2l16.9,1.6l1-3.6l1.1-24.1l14.5,0.4l3.4-2.7l1.9-6.6l-2.3-4.7l-2.6-0.7l-6.9-12.2
		l-4.3,15.3c-0.4,1.2-0.5,1.9-17.2-1.8L770.2,321.2z"/>
	<path id="osceola" class="st11" d="M794,336.3l1,2.4l1,0.3l5.4,9.3l2.1,2l2.2,5.4l3.3,3.1l0.5,2.9l3.1,4.9l1,2.4l-1.1,3.9L827,375
		l1.4-17.6l1.5-5.5l-1.5-3.9l0.7-2.5c0.2-0.6,0.7-1.2,1.2-1.8c0.3-0.3,0.8-0.9,1-1.2c-0.1-1.2,0.4-5.1,0.8-7.5l-1-5.7l-42.2-3.9
		l-1,3.5l2.9,3.6L794,336.3z"/>
	<path id="st_lucie" class="st11" d="M861.4,383.9l-7.7,2.5l-15-3.8l-1.3,21l0.1,1.3l18.8,3.4l5-2.2l3.1-3.2l0.9,0.9
		c-0.5-1.8-1-3.7-1.4-5.7C862.8,393.3,862.3,388.6,861.4,383.9z"/>
	<polygon id="jackson_1_" class="st11" points="619.5,129.1 616.8,125.9 590.2,117.6 588.4,117.3 587.5,118.6 583.9,124.7 
		586.1,123.9 589,124.8 591.6,130.9 591.1,138.2 589.9,142.6 592.6,144 601.1,146 605.4,143.4 616.3,144.6 622,137.9 	"/>
	<path id="nassau" class="st12" d="M783.3,184.9l-0.3,3.7l2.3-1.8l5.8-4.4l3.9-2.1l2.4-4.5l4.9-2.1l3.9-2.3l4.1,1l4.9,4.4l2.6,2.8
		c-0.1-1.1-0.3-2.1-0.4-3.1c-0.2-2.2-0.2-4.4-0.1-6.7l-13.4-5.2l-7.5-1.9l-3.1-2.9l-5.9,2l-0.9,3.6l1.9,5.5l-0.6,4.9l-2.3,5.4
		L783.3,184.9"/>
</g>
<g id="balls">
	<circle id="miamidade_circle" class="st9" cx="834.7" cy="512.7" r="7.2"/>
	<circle id="broward_circle" class="st9" cx="841.9" cy="477.7" r="7.2"/>
	<circle id="palm_beach_circle" class="st9" cx="847.7" cy="444.1" r="7.2"/>
	<circle id="martin_circle" class="st9" cx="849.7" cy="415.9" r="7.2"/>
	<circle id="st_lucie_circle" class="st9" cx="850.6" cy="396.5" r="7.2"/>
	<circle id="monroe_circle" class="st9" cx="803" cy="515.1" r="7.2"/>
	<circle id="collier_circle" class="st9" cx="787.7" cy="475.7" r="7.2"/>
	<circle id="hendry_circle" class="st9" cx="801.6" cy="441.7" r="7.2"/>
	<circle id="lee_circle" class="st9" cx="762.7" cy="439.3" r="7.2"/>
	<circle id="glades_circle" class="st9" cx="803.5" cy="422" r="7.2"/>
	<circle id="charlotte_circle" class="st9" cx="766.1" cy="418.6" r="7.2"/>
	<circle id="sarasota_circle" class="st9" cx="737.3" cy="395.6" r="7.2"/>
	<circle id="desoto_circle" class="st9" cx="768.5" cy="400.4" r="7.2"/>
	<circle id="hardee_circle" class="st9" cx="771.4" cy="379.3" r="7.2"/>
	<circle id="manatee_circle" class="st9" cx="741.6" cy="374" r="7.2"/>
	<circle id="highlands_circle" class="st9" cx="796.8" cy="392.2" r="7.2"/>
	<circle id="okeechobee_circle" class="st9" cx="826.1" cy="392.2" r="7.2"/>
	<circle id="indian_river_circle" class="st9" cx="846.7" cy="374.5" r="7.2"/>
	<circle id="osceola_circle" class="st9" cx="814.7" cy="345.8" r="7.2"/>
	<circle id="polk_circle" class="st9" cx="778.1" cy="349.5" r="7.2"/>
	<circle id="hillsborough_circle" class="st9" cx="748.8" cy="348.1" r="7.2"/>
	<circle id="pinellas_circle" class="st9" cx="720" cy="343.7" r="7.2"/>
	<circle id="pasco_circle" class="st9" cx="740.2" cy="320.7" r="7.2"/>
	<circle id="orange_circle" class="st9" cx="807.8" cy="316.9" r="7.2"/>
	<circle id="brevard_circle" class="st9" cx="841.9" cy="335.1" r="7.2"/>
	<circle id="seminole_circle" class="st9" cx="816" cy="302.9" r="7.2"/>
	<circle id="sumter_circle" class="st9" cx="764.6" cy="297.2" r="7.2"/>
	<circle id="lake_circle" class="st9" cx="781.4" cy="296.7" r="7.2"/>
	<circle id="volusia_circle" class="st9" cx="822.7" cy="280.4" r="7.2"/>
	<circle id="flagler_circle" class="st9" cx="818.4" cy="253" r="7.2"/>
	<circle id="hernando_circle" class="st9" cx="742.1" cy="304.4" r="7.2"/>
	<circle id="citrus_circle" class="st9" cx="742.1" cy="284.7" r="7.2"/>
	<circle id="marion_circle" class="st9" cx="771.6" cy="262.4" r="7.2"/>
	<circle id="putnam_circle" class="st9" cx="793.2" cy="238.6" r="7.2"/>
	<circle id="st_johns_circle" class="st9" cx="812.3" cy="221.7" r="7.2"/>
	<circle id="bradford_circle" class="st9" cx="771.6" cy="213.4" r="7.2"/>
	<circle id="clay_circle" class="st9" cx="788.5" cy="210.9" r="7.2"/>
	<circle id="Duval_circle" class="st9" cx="803.3" cy="191.1" r="7.2"/>
	<circle id="nassau_circle" class="st9" cx="797.5" cy="170.9" r="7.2"/>
	<circle id="levy_circle" class="st9" cx="733.4" cy="248.7" r="7.2"/>
	<circle id="alachua_circle" class="st9" cx="755.8" cy="229.3" r="7.2"/>
	<circle id="baker_circle" class="st9" cx="766.2" cy="187.1" r="7.2"/>
	<circle id="union_circle" class="st9" cx="760.4" cy="205.9" r="7.2"/>
	<circle id="gilchrist_circle" class="st9" cx="733.4" cy="222.8" r="7.2"/>
	<circle id="columbia_circle" class="st9" cx="745.7" cy="195.4" r="7.2"/>
	<circle id="suwannee_circle" class="st9" cx="724.4" cy="187.9" r="7.2"/>
	<circle id="hamilton_circle" class="st9" cx="728.8" cy="169.1" r="7.2"/>
	<circle id="dixie_circle" class="st9" cx="711.5" cy="228.2" r="7.2"/>
	<circle id="lafayette_circle" class="st9" cx="713.6" cy="205.1" r="7.2"/>
	<circle id="madison_circle" class="st9" cx="699.6" cy="169.5" r="7.2"/>
	<circle id="taylor_circle" class="st9" cx="687.4" cy="193.3" r="7.2"/>
	<circle id="jefferson_circle" class="st9" cx="675.1" cy="166.6" r="7.2"/>
	<circle id="leon_circle" class="st9" cx="657.5" cy="161.2" r="7.2"/>
	<circle id="wakulla_circle" class="st9" cx="643.1" cy="179.2" r="7.2"/>
	<circle id="gadsden_circle" class="st9" cx="634.1" cy="151.5" r="7.2"/>
	<circle id="liberty_circle" class="st9" cx="614.6" cy="171.7" r="7.2"/>
	<circle id="franklin_circle" class="st9" cx="616.4" cy="195.1" r="7.2"/>
	<circle id="gulf_circle" class="st9" cx="594.5" cy="188.2" r="7.2"/>
	<circle id="calhoun_circle" class="st9" cx="600.6" cy="157.6" r="7.2"/>
	<circle id="jackson_circle" class="st9" cx="603.8" cy="132.8" r="7.2"/>
	<circle id="bay_circle" class="st9" cx="574.7" cy="162.7" r="7.2"/>
	<circle id="washington_circle" class="st9" cx="575.2" cy="139" r="7.2"/>
	<circle id="holmes_circle" class="st9" cx="568.6" cy="121.3" r="7.2"/>
	<circle id="walton_circle" class="st9" cx="546.6" cy="131.7" r="7.2"/>
	<circle id="okaloosa_circle" class="st9" cx="523.6" cy="125.2" r="7.2"/>
	<circle id="santa_rosa_circle" class="st9" cx="499.4" cy="121.3" r="7.2"/>
	<circle id="escambia_circle" class="st9" cx="479.3" cy="122.7" r="7.2"/>
	<text id="broward_numbers" transform="matrix(1 2.629964e-03 -2.629964e-03 1 838.7199 479.2995)" class="st13 st7 st14">10</text>
	<text id="miamidade_numbers" transform="matrix(1 2.629964e-03 -2.629964e-03 1 831.52 514.3394)" class="st13 st7 st14">10</text>
	<text id="palm_beach_numbers" transform="matrix(1 2.629964e-03 -2.629964e-03 1 844.4799 445.6995)" class="st13 st7 st14">10</text>
	<text id="martin_numbers" transform="matrix(1 2.629964e-03 -2.629964e-03 1 846.5194 417.4992)" class="st13 st7 st14">10</text>
	<text id="st_lucie_numbers" transform="matrix(1 2.629964e-03 -2.629964e-03 1 847.3599 398.1795)" class="st13 st7 st14">10</text>
	<text id="monroe_numbers" transform="matrix(1 2.629964e-03 -2.629964e-03 1 799.84 516.7394)" class="st13 st7 st14">10</text>
	<text id="collier_numbers" transform="matrix(1 2.629964e-03 -2.629964e-03 1 784.4799 477.3795)" class="st13 st7 st14">10</text>
	<text id="hendry_numbers" transform="matrix(1 2.629964e-03 -2.629964e-03 1 798.4 443.2995)" class="st13 st7 st14">10</text>
	<text id="lee_numbers" transform="matrix(1 2.629964e-03 -2.629964e-03 1 759.52 440.8994)" class="st13 st7 st14">10</text>
	<text id="glades_numbers" transform="matrix(1 2.629964e-03 -2.629964e-03 1 800.3199 423.6195)" class="st13 st7 st14">10</text>
	<text id="charlotte_numbers" transform="matrix(1 2.629964e-03 -2.629964e-03 1 762.8799 420.2597)" class="st13 st7 st14">10</text>
	<text id="sarasota_numbers" transform="matrix(1 2.629964e-03 -2.629964e-03 1 734.08 397.2195)" class="st13 st7 st14">10</text>
	<text id="desoto_numbers" transform="matrix(1 2.629964e-03 -2.629964e-03 1 765.2799 402.0196)" class="st13 st7 st14">10</text>
	<text id="hardee_numbers" transform="matrix(1 2.629964e-03 -2.629964e-03 1 768.1599 380.8994)" class="st13 st7 st14">10</text>
	<text id="manatee_numbers" transform="matrix(1 2.629964e-03 -2.629964e-03 1 738.4 375.6194)" class="st13 st7 st14">10</text>
	<text id="highlands_numbers" transform="matrix(1 2.629964e-03 -2.629964e-03 1 793.5999 393.8594)" class="st13 st7 st14">10</text>
	<text id="okeechobee_numbers" transform="matrix(1 2.629964e-03 -2.629964e-03 1 822.8799 393.8594)" class="st13 st7 st14">10</text>
	<text id="indian_river_numbers" transform="matrix(1 2.629964e-03 -2.629964e-03 1 843.52 376.0994)" class="st13 st7 st14">10</text>
	<text id="osceola_numbers" transform="matrix(1 2.629964e-03 -2.629964e-03 1 811.4795 347.4192)" class="st13 st7 st14">10</text>
	<text id="polk_numbers" transform="matrix(1 2.629964e-03 -2.629964e-03 1 774.8799 351.1394)" class="st13 st7 st14">10</text>
	<text id="hillsborough_numbers" transform="matrix(1 2.629964e-03 -2.629964e-03 1 745.5999 349.6995)" class="st13 st7 st14">10</text>
	<text id="pinellas_numbers" transform="matrix(1 2.629964e-03 -2.629964e-03 1 716.7999 345.3794)" class="st13 st7 st14">10</text>
	<text id="pasco_numbers" transform="matrix(1 2.629964e-03 -2.629964e-03 1 736.96 322.3394)" class="st13 st7 st14">10</text>
	<text id="orange_numbers" transform="matrix(1 2.629964e-03 -2.629964e-03 1 804.64 318.5396)" class="st13 st7 st14">10</text>
	<text id="brevard_numbers" transform="matrix(1 2.629964e-03 -2.629964e-03 1 838.6799 336.7395)" class="st13 st7 st14">10</text>
	<text id="seminole_numbers" transform="matrix(1 2.629964e-03 -2.629964e-03 1 812.7999 304.5794)" class="st13 st7 st14">10</text>
	<text id="sumter_numbers" transform="matrix(1 2.629964e-03 -2.629964e-03 1 761.4399 298.8194)" class="st13 st7 st14">10</text>
	<text id="lake_numbers" transform="matrix(1 2.629964e-03 -2.629964e-03 1 778.1599 298.2996)" class="st13 st7 st14">10</text>
	<text id="volusia_numbers" transform="matrix(1 2.629964e-03 -2.629964e-03 1 819.52 282.0193)" class="st13 st7 st14">10</text>
	<text id="flagler_numbers" transform="matrix(1 2.629964e-03 -2.629964e-03 1 815.2 254.6595)" class="st13 st7 st14">10</text>
	<text id="hernando_numbers" transform="matrix(1 2.629964e-03 -2.629964e-03 1 738.8799 306.0193)" class="st13 st7 st14">10</text>
	<text id="citrus_numbers" transform="matrix(1 2.629964e-03 -2.629964e-03 1 738.8799 286.3396)" class="st13 st7 st14">10</text>
	<text id="marion_numbers" transform="matrix(1 2.629964e-03 -2.629964e-03 1 768.4 264.0196)" class="st13 st7 st14">10</text>
	<text id="putnam_numbers" transform="matrix(1 2.629964e-03 -2.629964e-03 1 790 240.2596)" class="st13 st7 st14">10</text>
	<text id="st_johns_numbers" transform="matrix(1 2.629964e-03 -2.629964e-03 1 809.0803 223.3391)" class="st13 st7 st14">10</text>
	<text id="bradford_numbers" transform="matrix(1 2.629964e-03 -2.629964e-03 1 768.4 215.0596)" class="st13 st7 st14">10</text>
	<text id="clay_numbers" transform="matrix(1 2.629964e-03 -2.629964e-03 1 785.3195 212.5391)" class="st13 st7 st14">10</text>
	<text id="Duval_numbers" transform="matrix(1 2.629964e-03 -2.629964e-03 1 800.08 192.7393)" class="st13 st7 st14">10</text>
	<text id="nassau_numbers" transform="matrix(1 2.629964e-03 -2.629964e-03 1 794.32 172.5796)" class="st13 st7 st14">10</text>
	<text id="levy_numbers" transform="matrix(1 2.629964e-03 -2.629964e-03 1 730.24 250.3394)" class="st13 st7 st14">10</text>
	<text id="alachua_numbers" transform="matrix(1 2.629964e-03 -2.629964e-03 1 752.56 230.8994)" class="st13 st7 st14">10</text>
	<text id="baker_numbers" transform="matrix(1 2.629964e-03 -2.629964e-03 1 762.9995 188.7791)" class="st13 st7 st14">10</text>
	<text id="union_numbers" transform="matrix(1 2.629964e-03 -2.629964e-03 1 757.2394 207.4991)" class="st13 st7 st14">10</text>
	<text id="gilchrist_numbers" transform="matrix(1 2.629964e-03 -2.629964e-03 1 730.24 224.4195)" class="st13 st7 st14">10</text>
	<text id="columbia_numbers" transform="matrix(1 2.629964e-03 -2.629964e-03 1 742.48 197.0596)" class="st13 st7 st14">10</text>
	<text id="suwannee_numbers" transform="matrix(1 2.629964e-03 -2.629964e-03 1 721.2394 189.4991)" class="st13 st7 st14">10</text>
	<text id="hamilton_numbers" transform="matrix(1 2.629964e-03 -2.629964e-03 1 725.5594 170.7791)" class="st13 st7 st14">10</text>
	<text id="dixie_numbers" transform="matrix(1 2.629964e-03 -2.629964e-03 1 708.2795 229.8191)" class="st13 st7 st14">10</text>
	<text id="lafayette_numbers" transform="matrix(1 2.629964e-03 -2.629964e-03 1 710.4395 206.7791)" class="st13 st7 st14">10</text>
	<text id="madison_numbers" transform="matrix(1 2.629964e-03 -2.629964e-03 1 696.4 171.1394)" class="st13 st7 st14">10</text>
	<text id="taylor_numbers" transform="matrix(1 2.629964e-03 -2.629964e-03 1 684.16 194.8994)" class="st13 st7 st14">10</text>
	<text id="jefferson_numbers" transform="matrix(1 2.629964e-03 -2.629964e-03 1 671.92 168.2593)" class="st13 st7 st14">10</text>
	<text id="leon_numbers" transform="matrix(1 2.629964e-03 -2.629964e-03 1 654.2795 162.8589)" class="st13 st7 st14">10</text>
	<text id="wakulla_numbers" transform="matrix(1 2.629964e-03 -2.629964e-03 1 639.8795 180.8589)" class="st13 st7 st14">10</text>
	<text id="gadsden_numbers" transform="matrix(1 2.629964e-03 -2.629964e-03 1 630.88 153.1394)" class="st13 st7 st14">10</text>
	<text id="liberty_numbers" transform="matrix(1 2.629964e-03 -2.629964e-03 1 611.44 173.2996)" class="st13 st7 st14">10</text>
	<text id="franklin_numbers" transform="matrix(1 2.629964e-03 -2.629964e-03 1 613.2394 196.699)" class="st13 st7 st14">10</text>
	<text id="gulf_numbers" transform="matrix(1 2.629964e-03 -2.629964e-03 1 591.28 189.8594)" class="st13 st7 st14">10</text>
	<text id="calhoun_numbers" transform="matrix(1 2.629964e-03 -2.629964e-03 1 597.3995 159.2591)" class="st13 st7 st14">10</text>
	<text id="jackson_numbers" transform="matrix(1 2.629964e-03 -2.629964e-03 1 600.64 134.4195)" class="st13 st7 st14">10</text>
	<text id="bay_numbers" transform="matrix(1 2.629964e-03 -2.629964e-03 1 571.4794 164.2991)" class="st13 st7 st14">10</text>
	<text id="washington_numbers" transform="matrix(1 2.629964e-03 -2.629964e-03 1 571.96 140.6194)" class="st13 st7 st14">10</text>
	<text id="holmes_numbers" transform="matrix(1 2.629964e-03 -2.629964e-03 1 565.36 122.8994)" class="st13 st7 st14">10</text>
	<text id="walton_numbers" transform="matrix(1 2.629964e-03 -2.629964e-03 1 543.3995 133.3391)" class="st13 st7 st14">10</text>
	<text id="okaloosa_numbers" transform="matrix(1 2.629964e-03 -2.629964e-03 1 520.3594 126.8589)" class="st13 st7 st14">10</text>
	<text id="santa_rosa_numbers" transform="matrix(1 2.629964e-03 -2.629964e-03 1 496.24 122.8994)" class="st13 st7 st14">10</text>
	<text id="escambia_numbers" transform="matrix(1 2.629964e-03 -2.629964e-03 1 476.08 124.3394)" class="st13 st7 st14">10</text>
</g>
<g id="table_data">
	<text transform="matrix(1 0 0 1 21.0498 679.1664)" class="st2 st7 st8">Confirmed Cases</text>
	<text transform="matrix(1 0 0 1 21.0498 723.098)" class="st2 st7 st8">Deaths</text>
	<text id="current_date" transform="matrix(1 0 0 1 204.5794 634.8843)" class="st2 st7 st8">6 Apr. 2020</text>
	<text id="previous_date" transform="matrix(1 0 0 1 339.3576 634.8843)" class="st2 st7 st8">5 Apr. 2020</text>
	<text id="growth_rate__x25_" transform="matrix(1 0 0 1 458.4258 634.8843)" class="st2 st7 st8">Growth Rate %</text>
	<text transform="matrix(1 0 0 1 673.7008 634.8843)" class="st2 st7 st8">Total Confirmed Cases</text>
	<text id="current_сases" transform="matrix(1 0 0 1 227.435 682.9182)" class="st15 st7 st5">783</text>
	<text id="previous_deaths" transform="matrix(1 0 0 1 370.1481 727.3978)" class="st15 st7 st5">14</text>
	<text id="current_deaths" transform="matrix(1 0 0 1 230.9554 726.4181)" class="st15 st7 st5">15</text>
	<text id="total_cases" transform="matrix(1 0 0 1 718.3675 712.0615)" class="st16 st7 st17">783</text>
	<text id="previous_сases" transform="matrix(1 0 0 1 362.2353 682.9182)" class="st15 st7 st5">673</text>
	<text id="cases_growth_rate" transform="matrix(1 0 0 1 492.1484 684.4546)" class="st15 st7 st5">16 %</text>
	<text id="death_growth_rate" transform="matrix(1 0 0 1 496.5477 728.9338)" class="st15 st7 st5">7 %</text>
</g>
	<image style="overflow:visible;" width="160" height="104" id="LOGO" xlink:href="../maps/SR Logos/Florida.png"  transform="matrix(0.4392 0 0 0.4392 838.7281 5.0807)">
	</image>
</svg>
