<?xml version="1.0" encoding="utf-8"?>
<!-- Generator: Adobe Illustrator 23.0.5, SVG Export Plug-In . SVG Version: 6.00 Build 0)  -->
<svg version="1.1" id="Layer" xmlns="http://www.w3.org/2000/svg" xmlns:xlink="http://www.w3.org/1999/xlink" x="0px" y="0px"
	 viewBox="0 0 916.5 740.2" style="enable-background:new 0 0 916.5 740.2;" xml:space="preserve">
<style type="text/css">
	.st0{fill:#F5FBFE;}
	.st1{fill:#DDEEFA;}
	.st2{fill:#255078;}
	.st3{font-family:'Georgia';}
	.st4{font-size:18px;}
	.st5{font-size:16px;}
	.st6{fill:#4C4B4D;}
	.st7{font-family:'ArialMT';}
	.st8{font-size:14px;}
	.st9{fill:#4C4B4C;}
	.st10{fill:#DB3029;}
	.st11{font-size:36px;}
	.st12{fill:#E9FAFF;}
	.st13{clip-path:url(#SVGID_2_);fill:#2B83EC;}
	.st14{clip-path:url(#SVGID_4_);fill:#2E4663;}
	.st15{fill:#2E4663;}
	.st16{fill:none;}
	.st17{fill:#CD483B;}
	.st18{fill:#AED9F4;}
	.st19{fill:#FFFFFF;}
	.st20{font-size:6.2616px;}
</style>
<g id="Texts">
	<polygon id="blue_bg" class="st0" points="0,604.8 0,641.8 0,651.4 0,740.2 173.5,740.2 173.5,651.4 915,651.4 915,604.8 	"/>
	<path id="line_bg" class="st1" d="M916.5-0.3H0v130.2v475.3v2v43v2v43v2v43l0,0h579.8l0,0H913l0,0h3.5V-0.3z M913,56.6v548.5H578.4
		l-0.6-0.3v0.3H443.6l-0.6-0.3v0.3H3V56.6H913z M913,607.2v43H579.8v-43H913z M445.1,650.2v-43h132.8v43H445.1z M577.8,652.2v43
		H445.1v-43H577.8z M310.3,650.2v-43h132.8v43H310.3z M443.1,652.2v43H310.3v-43H443.1z M175.5,650.2v-43h132.8v43H175.5z
		 M308.3,652.2v43H175.5v-43H308.3z M173.5,607.2v43H3v-43H173.5z M173.5,652.2v43H3v-43H173.5z M3,697.2h170.5v40H3V697.2z
		 M175.5,697.2h132.8v40H175.5V697.2z M310.3,697.2h132.8v40H310.3V697.2z M445.1,697.2h132.8v40H445.1V697.2z M579.8,652.2H913v85
		H579.8V652.2z"/>
	<text id="title" transform="matrix(1 0 0 1 22.167 35.8372)" class="st2 st3 st4">COVID-19 in Indiana on</text>
	<text id="date" transform="matrix(1 0 0 1 221.4693 35.8372)" class="st2 st3 st4">April 7th, 2020</text>
	<text transform="matrix(1 0 0 1 29.0678 89.3657)" class="st2 st3 st5">State Confirmed Cases By County</text>
	<g>
		<text transform="matrix(1 0 0 1 28.7729 125.2285)" class="st6 st7 st8">Adams  10</text>
		<text transform="matrix(1 0 0 1 28.7729 144.4653)" class="st6 st7 st8">Allen  10</text>
		<text transform="matrix(1 0 0 1 28.7514 163.7014)" class="st6 st7 st8">Bartholomew  10</text>
		<text transform="matrix(1 0 0 1 28.7514 182.938)" class="st6 st7 st8">Benton  10</text>
		<text transform="matrix(1 0 0 1 28.7514 202.1746)" class="st6 st7 st8">Blackford  10</text>
		<text transform="matrix(1 0 0 1 28.7514 221.4111)" class="st6 st7 st8">Boone  10</text>
		<text transform="matrix(1 0 0 1 28.7514 240.6472)" class="st6 st7 st8">Brown  10</text>
		<text transform="matrix(1 0 0 1 28.7514 259.8838)" class="st6 st7 st8">Carroll  10</text>
		<text transform="matrix(1 0 0 1 28.7514 279.1204)" class="st6 st7 st8">Cass  10</text>
		<text transform="matrix(1 0 0 1 28.7515 298.3564)" class="st6 st7 st8">Clark  10</text>
		<text transform="matrix(1 0 0 1 28.7515 317.5935)" class="st6 st7 st8">Clay  10</text>
		<text transform="matrix(1 0 0 1 28.7516 336.8298)" class="st6 st7 st8">Clinton  10</text>
		<text transform="matrix(1 0 0 1 28.7516 356.0659)" class="st6 st7 st8">Crawford  10</text>
		<text transform="matrix(1 0 0 1 28.7516 375.3025)" class="st6 st7 st8">Daviess  10</text>
		<text transform="matrix(1 0 0 1 28.7516 394.5388)" class="st6 st7 st8">Dearborn  10</text>
		<text transform="matrix(1 0 0 1 28.7515 413.7748)" class="st6 st7 st8">Decatur  10</text>
		<text transform="matrix(1 0 0 1 28.7515 433.0117)" class="st6 st7 st8">DeKalb  10</text>
		<text transform="matrix(1 0 0 1 28.7515 452.248)" class="st6 st7 st8">Delaware  10</text>
		<text transform="matrix(1 0 0 1 28.7516 471.484)" class="st6 st7 st8">Dubois  10</text>
		<text transform="matrix(1 0 0 1 28.7516 490.7203)" class="st6 st7 st8">Elkhart  10</text>
		<text transform="matrix(1 0 0 1 28.7515 509.9568)" class="st6 st7 st8">Fayette  10</text>
		<text transform="matrix(1 0 0 1 28.7515 529.193)" class="st6 st7 st8">Floyd  10</text>
		<text transform="matrix(1 0 0 1 28.7516 548.4291)" class="st6 st7 st8">Fountain  10</text>
		<text transform="matrix(1 0 0 1 157.2716 125.2288)" class="st6 st7 st8">Franklin  10</text>
		<text transform="matrix(1 0 0 1 157.2716 144.4651)" class="st6 st7 st8">Fulton  10</text>
		<text transform="matrix(1 0 0 1 157.2717 163.7017)" class="st6 st7 st8">Gibson  10</text>
		<text transform="matrix(1 0 0 1 157.2713 182.938)" class="st6 st7 st8">Grant  10</text>
		<text transform="matrix(1 0 0 1 157.2713 202.1743)" class="st6 st7 st8">Greene  10</text>
		<text transform="matrix(1 0 0 1 157.2713 221.4106)" class="st6 st7 st8">Hamilton  10</text>
		<text transform="matrix(1 0 0 1 157.2713 240.6467)" class="st6 st7 st8">Hancock  10</text>
		<text transform="matrix(1 0 0 1 157.2714 259.8833)" class="st6 st7 st8">Harrison  10</text>
		<text transform="matrix(1 0 0 1 157.2714 279.1196)" class="st6 st7 st8">Hendricks  10</text>
		<text transform="matrix(1 0 0 1 157.2714 298.3562)" class="st6 st7 st8">Henry  10</text>
		<text transform="matrix(1 0 0 1 157.2714 317.5923)" class="st6 st7 st8">Howard  10</text>
		<text transform="matrix(1 0 0 1 157.2714 336.8291)" class="st6 st7 st8">Huntington  10</text>
		<text transform="matrix(1 0 0 1 157.2714 356.0654)" class="st6 st7 st8">Jackson  10</text>
		<text transform="matrix(1 0 0 1 157.2714 375.3013)" class="st6 st7 st8">Jasper  10</text>
		<text transform="matrix(1 0 0 1 157.2714 394.538)" class="st6 st7 st8">Jay  10</text>
		<text transform="matrix(1 0 0 1 157.2714 413.7745)" class="st6 st7 st8">Jefferson  10</text>
		<text transform="matrix(1 0 0 1 157.2714 433.0109)" class="st6 st7 st8">Jennings  10</text>
		<text transform="matrix(1 0 0 1 157.2714 452.2471)" class="st6 st7 st8">Johnson  10</text>
		<text transform="matrix(1 0 0 1 157.2714 471.4835)" class="st6 st7 st8">Knox  10</text>
		<text transform="matrix(1 0 0 1 157.2716 490.7197)" class="st6 st7 st8">Kosciusko  10</text>
		<text transform="matrix(1 0 0 1 157.2716 509.9561)" class="st6 st7 st8">LaGrange  10</text>
		<text transform="matrix(1 0 0 1 157.2714 529.193)" class="st6 st7 st8">Lake  10</text>
		<text transform="matrix(1 0 0 1 157.2714 548.429)" class="st6 st7 st8">LaPorte  10</text>
		<text transform="matrix(1 0 0 1 281.8316 125.2288)" class="st6 st7 st8">Lawrence  10</text>
		<text transform="matrix(1 0 0 1 281.8316 144.4651)" class="st6 st7 st8">Madison  10</text>
		<text transform="matrix(1 0 0 1 281.8316 163.7017)" class="st6 st7 st8">Marion  10</text>
		<text transform="matrix(1 0 0 1 281.8314 182.9375)" class="st6 st7 st8">Marshall  10</text>
		<text transform="matrix(1 0 0 1 281.8314 202.1738)" class="st6 st7 st8">Martin  10</text>
		<text transform="matrix(1 0 0 1 281.8314 221.4099)" class="st6 st7 st8">Miami  10</text>
		<text transform="matrix(1 0 0 1 281.8316 240.6465)" class="st6 st7 st8">Monroe  10</text>
		<text transform="matrix(1 0 0 1 281.8317 259.8826)" class="st6 st7 st8">Montgomery  10</text>
		<text transform="matrix(1 0 0 1 281.8317 279.1191)" class="st6 st7 st8">Morgan  10</text>
		<text transform="matrix(1 0 0 1 281.8317 298.3555)" class="st6 st7 st8">Newton  10</text>
		<text transform="matrix(1 0 0 1 281.8317 317.5916)" class="st6 st7 st8">Noble  10</text>
		<text transform="matrix(1 0 0 1 281.8317 336.8281)" class="st6 st7 st8">Ohio  10</text>
		<text transform="matrix(1 0 0 1 281.8315 356.0642)" class="st6 st7 st8">Orange  10</text>
		<text transform="matrix(1 0 0 1 281.8315 375.3005)" class="st6 st7 st8">Owen  10</text>
		<text transform="matrix(1 0 0 1 281.8315 394.5372)" class="st6 st7 st8">Parke  10</text>
		<text transform="matrix(1 0 0 1 281.8315 413.7742)" class="st6 st7 st8">Perry  10</text>
		<text transform="matrix(1 0 0 1 281.8315 433.0098)" class="st6 st7 st8">Pike  10</text>
		<text transform="matrix(1 0 0 1 281.8315 452.2465)" class="st6 st7 st8">Porter  10</text>
		<text transform="matrix(1 0 0 1 281.8317 471.4832)" class="st6 st7 st8">Posey  10</text>
		<text transform="matrix(1 0 0 1 281.8317 490.72)" class="st6 st7 st8">Pulaski  10</text>
		<text transform="matrix(1 0 0 1 281.8317 509.9568)" class="st6 st7 st8">Putnam  10</text>
		<text transform="matrix(1 0 0 1 281.8317 529.1924)" class="st6 st7 st8">Randolph  10</text>
		<text transform="matrix(1 0 0 1 281.8317 548.429)" class="st6 st7 st8">Ripley  10</text>
		<text transform="matrix(1 0 0 1 406.2709 125.2285)" class="st6 st7 st8">Rush  10</text>
		<text transform="matrix(1 0 0 1 406.2709 144.4653)" class="st6 st7 st8">St. Joseph  10</text>
		<text transform="matrix(1 0 0 1 406.2709 163.7017)" class="st6 st7 st8">Scott  10</text>
		<text transform="matrix(1 0 0 1 406.2709 182.938)" class="st6 st7 st8">Shelby  10</text>
		<text transform="matrix(1 0 0 1 406.2709 202.1746)" class="st6 st7 st8">Spencer  10</text>
		<text transform="matrix(1 0 0 1 406.2712 221.4109)" class="st6 st7 st8">Starke 10</text>
		<text transform="matrix(1 0 0 1 406.2712 240.6472)" class="st6 st7 st8">Steuben  10</text>
		<text transform="matrix(1 0 0 1 406.2712 259.8835)" class="st6 st7 st8">Sullivan  10</text>
		<text transform="matrix(1 0 0 1 406.2708 279.1201)" class="st6 st7 st8">Switzerland  10</text>
		<text transform="matrix(1 0 0 1 406.2708 298.3562)" class="st6 st7 st8">Tippecanoe  10</text>
		<text transform="matrix(1 0 0 1 406.2708 317.5928)" class="st6 st7 st8">Tipton  10</text>
		<text transform="matrix(1 0 0 1 406.2708 336.8293)" class="st6 st7 st8">Union  10</text>
		<text transform="matrix(1 0 0 1 406.2708 356.0659)" class="st6 st7 st8">Vanderburgh  10</text>
		<text transform="matrix(1 0 0 1 406.2708 375.3025)" class="st6 st7 st8">Vermillion  10</text>
		<text transform="matrix(1 0 0 1 406.2708 394.5386)" class="st6 st7 st8">Vigo  10</text>
		<text transform="matrix(1 0 0 1 406.2708 413.7753)" class="st6 st7 st8">Wabash  10</text>
		<text transform="matrix(1 0 0 1 406.2708 433.0112)" class="st6 st7 st8">Warren  10</text>
		<text transform="matrix(1 0 0 1 406.2708 452.2482)" class="st6 st7 st8">Warrick  10</text>
		<text transform="matrix(1 0 0 1 406.2708 471.4847)" class="st6 st7 st8">Washington  10</text>
		<text transform="matrix(1 0 0 1 406.2708 490.7209)" class="st6 st7 st8">Wayne  10</text>
		<text transform="matrix(1 0 0 1 406.2711 509.9567)" class="st6 st7 st8">Wells  10</text>
		<text transform="matrix(1 0 0 1 406.2711 529.1934)" class="st6 st7 st8">White  10</text>
		<text transform="matrix(1 0 0 1 406.2711 548.4294)" class="st6 st7 st8">Whitley  10</text>
	</g>
	<text transform="matrix(1 0 0 1 22.167 676.069)" class="st2 st7 st8">Confirmed Cases</text>
	<text transform="matrix(1 0 0 1 22.167 720.0006)" class="st2 st7 st8">Deaths</text>
	<text id="current_date" transform="matrix(1 0 0 1 205.6966 631.7866)" class="st2 st7 st8">6 Apr. 2020</text>
	<text id="previous_date" transform="matrix(1 0 0 1 340.4748 631.7866)" class="st2 st7 st8">5 Apr. 2020</text>
	<text id="growth_rate__x25_" transform="matrix(1 0 0 1 459.543 631.7866)" class="st2 st7 st8">Growth Rate %</text>
	<text transform="matrix(1 0 0 1 674.818 631.7866)" class="st2 st7 st8">Total Confirmed Cases</text>
	<text id="current_сases" transform="matrix(1 0 0 1 228.5522 679.8209)" class="st9 st7 st5">783</text>
	<text id="previous_deaths" transform="matrix(1 0 0 1 371.2653 724.3004)" class="st9 st7 st5">14</text>
	<text id="current_deaths" transform="matrix(1 0 0 1 232.0725 723.3207)" class="st9 st7 st5">15</text>
	<text id="total_cases" transform="matrix(1 0 0 1 733.2673 708.9641)" class="st10 st7 st11">783</text>
	<text id="previous_сases" transform="matrix(1 0 0 1 363.3525 679.8209)" class="st9 st7 st5">673</text>
	<text id="cases_growth_rate" transform="matrix(1 0 0 1 493.2656 681.3572)" class="st9 st7 st5">16 %</text>
	<text id="death_growth_rate" transform="matrix(1 0 0 1 497.6649 725.8364)" class="st9 st7 st5">7 %</text>
</g>
<g>
	<rect x="-1209.5" y="188.4" class="st12" width="1022.4" height="87.7"/>
	<g>
		<g>
			<g>
				<g>
					<g>
						<g>
							<defs>
								<circle id="SVGID_1_" cx="-1161.9" cy="230.7" r="17.5"/>
							</defs>
							<clipPath id="SVGID_2_">
								<use xlink:href="#SVGID_1_"  style="overflow:visible;"/>
							</clipPath>
							<path class="st13" d="M-1147.1,228.6c-9.4,2.4-18.9-3.3-21.3-12.7c-0.1-0.4-0.2-0.9-0.3-1.3c-7.9,3.3-12.4,11.9-10.2,20.4
								c1.3,5.3,4.9,9.4,9.5,11.5c0.8-2.3,2.6-4.1,5.1-4.8c3.9-1,7.8,1.4,8.8,5.2c7.6-3,12.2-11,10.8-19.2
								C-1145.4,228.1-1146.3,228.4-1147.1,228.6z"/>
						</g>
					</g>
				</g>
			</g>
		</g>
		<g>
			<g>
				<g>
					<g>
						<g>
							<defs>
								<circle id="SVGID_3_" cx="-1161.9" cy="230.7" r="17.5"/>
							</defs>
							<clipPath id="SVGID_4_">
								<use xlink:href="#SVGID_3_"  style="overflow:visible;"/>
							</clipPath>
							<ellipse class="st14" cx="-1151.2" cy="216.5" rx="9" ry="9.2"/>
						</g>
					</g>
				</g>
			</g>
		</g>
	</g>
	<g>
		<path class="st15" d="M-1151.4,226.6c-1.8,0-3.6-0.5-5.2-1.4c-2.3-1.4-4-3.6-4.6-6.2l0,0c-0.7-2.6-0.3-5.3,1.1-7.7
			c1.4-2.3,3.6-4,6.2-4.6c2.6-0.7,5.3-0.3,7.7,1.1c2.3,1.4,4,3.6,4.6,6.2c1.4,5.4-1.9,10.9-7.3,12.3
			C-1149.7,226.5-1150.6,226.6-1151.4,226.6z M-1151.4,207.9c-0.7,0-1.4,0.1-2.1,0.3c-2.2,0.6-4.1,2-5.2,3.9c-1.2,2-1.5,4.3-0.9,6.5
			l0,0c0.6,2.2,2,4.1,3.9,5.2c2,1.2,4.3,1.5,6.5,0.9s4.1-2,5.2-3.9c1.2-2,1.5-4.3,0.9-6.5C-1144.1,210.5-1147.6,207.9-1151.4,207.9z
			"/>
	</g>
	<circle class="st15" cx="-1162.3" cy="248.8" r="4.7"/>
	<g>
		<path class="st15" d="M-1131.7,223.8v-4.2c0-0.9,0.3-1.8,0.6-2.5c0.2-0.3,0.4-0.6,0.6-0.9c0.2-0.3,0.5-0.6,0.9-0.8
			c0.3-0.2,0.8-0.4,1.2-0.6c0.5-0.1,1-0.2,1.7-0.2h0.6c0.6,0,1.1,0.1,1.6,0.2s0.9,0.3,1.2,0.6c0.3,0.2,0.6,0.5,0.9,0.8
			c0.2,0.3,0.4,0.6,0.6,0.9c0.4,0.7,0.6,1.6,0.6,2.5v4.2c0,0.4-0.1,0.8-0.2,1.2s-0.2,0.7-0.3,1.2c-0.2,0.4-0.4,0.8-0.7,1.2l1.3,1.7
			l-1.8,1.4l-1.3-1.7c-0.3,0.1-0.6,0.2-0.9,0.2c-0.3,0.1-0.7,0.1-1.1,0.1h-0.6c-0.6,0-1.2-0.1-1.7-0.2c-0.5-0.2-0.9-0.4-1.2-0.6
			c-0.3-0.3-0.6-0.5-0.9-0.8c-0.2-0.3-0.4-0.6-0.6-1C-1131.5,225.7-1131.7,224.8-1131.7,223.8z M-1129.5,223.3
			c0,0.6,0.2,1.2,0.4,1.7c0.1,0.2,0.2,0.4,0.3,0.6c0.1,0.2,0.3,0.4,0.5,0.6c0.2,0.2,0.5,0.3,0.7,0.4c0.3,0.1,0.6,0.2,1,0.2l0,0l0,0
			c0.4,0,0.7-0.1,1-0.2c0.3-0.1,0.5-0.3,0.8-0.4c0.2-0.2,0.4-0.4,0.5-0.6c0.1-0.2,0.3-0.4,0.4-0.6c0.2-0.5,0.4-1.1,0.4-1.7v-3
			c0-0.6-0.2-1.1-0.4-1.6c-0.1-0.2-0.2-0.4-0.4-0.6s-0.3-0.4-0.5-0.5c-0.2-0.2-0.5-0.3-0.7-0.4c-0.3-0.1-0.6-0.2-1-0.2l0,0l0,0
			c-0.4,0-0.7,0.1-1,0.2c-0.3,0.1-0.5,0.3-0.7,0.4c-0.2,0.2-0.4,0.3-0.5,0.6s-0.3,0.4-0.3,0.6c-0.2,0.5-0.4,1-0.4,1.6L-1129.5,223.3
			L-1129.5,223.3z"/>
		<path class="st15" d="M-1115.1,223.9v-9h2.3v8.5c0,0.6,0.2,1.2,0.4,1.7c0.1,0.2,0.2,0.4,0.3,0.6c0.1,0.2,0.3,0.4,0.5,0.6
			s0.5,0.3,0.7,0.4c0.3,0.1,0.6,0.2,1,0.2l0,0l0,0c0.4,0,0.7-0.1,1-0.2c0.3-0.1,0.5-0.3,0.7-0.4c0.2-0.2,0.4-0.4,0.5-0.6
			s0.3-0.4,0.4-0.6c0.2-0.5,0.4-1.1,0.4-1.7v-8.5h2.3v9c-0.1,1-0.3,1.9-0.6,2.6c-0.2,0.3-0.4,0.7-0.6,1s-0.5,0.6-0.9,0.8
			c-0.3,0.3-0.8,0.4-1.2,0.6s-1,0.2-1.7,0.2h-0.6c-0.6,0-1.2-0.1-1.7-0.2s-0.9-0.4-1.2-0.6c-0.3-0.3-0.6-0.5-0.9-0.8
			c-0.2-0.3-0.4-0.6-0.6-1C-1114.8,225.7-1115,224.9-1115.1,223.9z"/>
		<path class="st15" d="M-1099.6,228.9l4.1-14h1.1h1.1l4.2,14h-2.2l-1.1-3.7h-3.9l-1.1,3.7H-1099.6z M-1095.7,223h2.6l-1.3-4.5
			L-1095.7,223z"/>
		<path class="st15" d="M-1083.6,228.9v-14h6c0.3,0,0.7,0,1.1,0.1s0.8,0.3,1.2,0.6c0.4,0.3,0.7,0.7,0.9,1.2c0.3,0.5,0.4,1.2,0.4,2.1
			c0,0.5-0.1,0.9-0.2,1.3c-0.1,0.4-0.2,0.7-0.4,0.9c-0.1,0.2-0.3,0.4-0.4,0.5s-0.2,0.2-0.3,0.2v0.1c0.2,0.1,0.4,0.3,0.6,0.6
			c0.2,0.2,0.3,0.5,0.4,0.9s0.2,0.9,0.2,1.4l0,0v4.1h-2.3v-4.1l0,0c0-0.5-0.1-0.8-0.2-1c-0.2-0.2-0.3-0.4-0.5-0.5s-0.5-0.2-0.8-0.3
			h-3.6v3.6v2.3L-1083.6,228.9L-1083.6,228.9L-1083.6,228.9z M-1081.3,220.8h3.6c0,0,0.1,0,0.3,0s0.3-0.1,0.5-0.2
			c0.2-0.1,0.4-0.3,0.5-0.5c0.2-0.2,0.2-0.6,0.2-1s-0.1-0.8-0.2-1s-0.3-0.4-0.5-0.5s-0.5-0.2-0.8-0.3h-3.6V220.8L-1081.3,220.8z"/>
		<path class="st15" d="M-1068.4,228.9l4.1-14h1.1h1.1l4.2,14h-2.2l-1.1-3.7h-3.9l-1.1,3.7H-1068.4z M-1064.5,223h2.6l-1.3-4.5
			L-1064.5,223z"/>
		<path class="st15" d="M-1052.4,228.9v-14h2.3l6,9.9v-9.9h2.4V229h-2.4l-6-9.9v9.9h-2.3V228.9z"/>
		<path class="st15" d="M-1036.2,217.1v-2.3h10v2.3h-3.9v11.8h-2.3v-11.8H-1036.2z"/>
		<path class="st15" d="M-1020.7,228.9v-14.1h2.3v14.1H-1020.7z"/>
		<path class="st15" d="M-1011.8,228.9v-14h2.3l6,9.9v-9.9h2.4V229h-2.4l-6-9.9v9.9h-2.3V228.9z"/>
		<path class="st15" d="M-994.6,228.9v-14h9.7v2.3h-7.4v3.6h4.3v2.3h-4.3v3.6h7.4v2.2L-994.6,228.9L-994.6,228.9z"/>
		<path class="st15" d="M-1131.2,251.9v-14h2.3l3,5.1l3-5.1h2.3v14h-2.3V242l-3,5.1l-3-5.2v10L-1131.2,251.9L-1131.2,251.9z"/>
		<path class="st15" d="M-1114.9,251.9l4.1-14h1.1h1.1l4.2,14h-2.2l-1.1-3.7h-3.9l-1.1,3.7H-1114.9L-1114.9,251.9z M-1111,246h2.6
			l-1.3-4.5L-1111,246z"/>
		<path class="st15" d="M-1098.9,251.9v-14h6c0.3,0,0.7,0,1.1,0.1s0.8,0.3,1.2,0.6c0.4,0.3,0.7,0.7,0.9,1.2c0.3,0.5,0.4,1.2,0.4,2.1
			c0,0.5-0.1,0.9-0.2,1.3c-0.1,0.4-0.2,0.7-0.4,0.9c-0.1,0.2-0.3,0.4-0.4,0.5s-0.2,0.2-0.3,0.2v0.1c0.2,0.1,0.4,0.3,0.6,0.6
			c0.2,0.2,0.3,0.5,0.4,0.9s0.2,0.9,0.2,1.4l0,0v4.1h-2.3v-4.1l0,0c0-0.5-0.1-0.8-0.2-1s-0.3-0.4-0.5-0.5s-0.5-0.2-0.8-0.3h-3.6v3.6
			v2.3L-1098.9,251.9L-1098.9,251.9L-1098.9,251.9z M-1096.6,243.7h3.6c0,0,0.1,0,0.3,0s0.3-0.1,0.5-0.2c0.2-0.1,0.4-0.3,0.5-0.5
			c0.2-0.2,0.2-0.6,0.2-1s-0.1-0.8-0.2-1s-0.3-0.4-0.5-0.5s-0.5-0.2-0.8-0.3h-3.6V243.7L-1096.6,243.7z"/>
		<path class="st15" d="M-1082.9,251.9v-14h2.3v8.7l5-8.7h2.5l-4.2,7l4.1,7.1h-2.5l-2.9-4.9l-2.1,3.6v1.3h-2.2L-1082.9,251.9
			L-1082.9,251.9z"/>
		<path class="st15" d="M-1067.7,251.9v-14h9.7v2.3h-7.4v3.6h4.3v2.3h-4.3v3.6h7.4v2.2L-1067.7,251.9L-1067.7,251.9z"/>
		<path class="st15" d="M-1052.9,240.1v-2.3h10v2.3h-3.9v11.8h-2.3v-11.8H-1052.9z"/>
		<path class="st15" d="M-1037.4,251.9v-14.1h2.3v14.1H-1037.4z"/>
		<path class="st15" d="M-1028.6,251.9v-14h2.3l6,9.9v-9.9h2.4V252h-2.4l-6-9.9v9.9L-1028.6,251.9L-1028.6,251.9z"/>
		<path class="st15" d="M-1012.1,246.6v-3.8c0-0.9,0.3-1.8,0.6-2.5c0.2-0.3,0.3-0.6,0.6-0.9s0.5-0.6,0.9-0.8
			c0.3-0.2,0.8-0.4,1.2-0.6c0.5-0.1,1-0.2,1.7-0.2h5v2.3h-4.3c-0.4,0-0.8,0-1.1,0.1s-0.6,0.2-0.8,0.4s-0.4,0.3-0.6,0.6
			c-0.2,0.2-0.3,0.4-0.4,0.6c-0.2,0.5-0.4,1.1-0.4,1.7v2.6c0,0.7,0.2,1.3,0.4,1.8c0.1,0.2,0.2,0.5,0.4,0.7s0.4,0.4,0.6,0.6
			c0.2,0.2,0.5,0.3,0.8,0.4s0.7,0.1,1.1,0.1h2l0,0V246h-2.3v-2.3h4.5v8.1l0,0h-5c-0.6,0-1.2-0.1-1.7-0.2s-0.9-0.4-1.2-0.6
			c-0.3-0.3-0.6-0.5-0.9-0.8c-0.2-0.3-0.4-0.6-0.6-1C-1011.9,248.5-1012.1,247.6-1012.1,246.6z"/>
	</g>
	<rect x="-442.6" y="243.6" class="st16" width="226" height="16.7"/>
	<text transform="matrix(1 0 0 1 -405.4856 252.1925)" class="st15 st7" style="font-size:12px;">© Powered by Oceanus Digital LLC</text>
</g>
<g id="TYPES_1_">
	<g>
		<circle id="_x34__1_" class="st17" cx="879.8" cy="-45.5" r="26.4"/>
		
			<text id="_x34__numbers_1_" transform="matrix(1 2.629919e-03 -2.629919e-03 1 855.1227 -39.7012)" class="st19 st7" style="font-size:15.7234px;">10,000</text>
	</g>
	<g>
		<circle id="_x33__1_" class="st17" cx="817.3" cy="-44.5" r="19.1"/>
		
			<text id="_x33__numbers_1_" transform="matrix(1 2.629927e-03 -2.629927e-03 1 799.8157 -39.723)" class="st19 st7" style="font-size:13.627px;">1,000</text>
	</g>
	<g>
		<circle id="_x32__1_" class="st17" cx="765.4" cy="-43.5" r="13"/>
		
			<text id="_x32__numbers_1_" transform="matrix(1 2.629909e-03 -2.629909e-03 1 754.1492 -38.8526)" class="st19 st7" style="font-size:12.5787px;">100</text>
	</g>
	<g>
		<circle id="_x31__2_" class="st17" cx="684.5" cy="-42.5" r="7.5"/>
		
			<text id="_x31__numbers_2_" transform="matrix(1 2.629946e-03 -2.629946e-03 1 682.2966 -39.4782)" class="st19 st7" style="font-size:7.7093px;">1</text>
	</g>
	<g>
		<circle id="_x31__1_" class="st17" cx="722.3" cy="-42.5" r="10.1"/>
		
			<rect x="717.2" y="-46.8" transform="matrix(2.629838e-03 -1 1 2.629838e-03 762.3496 680.2897)" class="st16" width="10.1" height="9.4"/>
		
			<text id="_x31__numbers_1_" transform="matrix(1 2.629900e-03 -2.629900e-03 1 716.5856 -39.6043)" class="st19 st7" style="font-size:9.434px;">10</text>
	</g>
</g>
<g id="Counties">
	<path id="hendricks" class="st18" d="M714.5,336.2h11l-2.6-29.7l-27.8,2.7l1,10.1c2.4,7.9,5.2,17.4,5.2,18.9v4.7L714.5,336.2z"/>
	<polygon id="morgan" class="st18" points="707.5,368 707.5,369.1 725.2,367.4 725.2,367.4 735,366.6 731.7,340.3 726,340.3 
		715.5,340.3 701.3,347.5 701.3,361.1 702.7,362.1 704.9,366.7 	"/>
	<path id="warrick" class="st18" d="M654,528.6c2.4,0,5.7,0,9.1,1.8c0.9,0.3,1.8,0.8,2.7,1.3l1-2.5l4.4-5.5c0.2-0.2,1.2-1.2,1.7-2.6
		c0.5-1.2,1.2-1.9,1.8-2.4c0.5-0.5,0.7-0.7,1-1.2c0.4-1.2,0.9-2.1,1.3-2.9c0.4-0.8,0.8-1.3,1.1-2.2c0.8-2.2,3.6-6.8,3.9-7.3l0,0
		l-2.8-2v-0.3h-18.3l-8.6,5.1l-4.1,3.3l1.4,12.3h2.3v5.3C652.5,528.6,653.2,528.6,654,528.6z"/>
	<polygon id="owen" class="st18" points="684.5,393.7 686.5,389.4 701.4,389.4 701.8,382.1 703.4,381.1 703.4,370.6 701.9,369.8 
		699.4,364.7 697.3,363.1 697.3,362 680.5,362 680.5,377.1 669.3,377.1 669.3,381.9 674.6,383.9 672.9,392.7 	"/>
	<path id="marion" class="st18" d="M729.7,336.2h5.7h8.7c-0.4-2.5,0.1-3.4,1.1-3.9c0.7-0.4,1.7-0.5,2.7,0.3c1,0.3,4.4,0.1,8.1-0.4
		l1.4-6.7l-3.5-21.6l-20.8,2.3v0.2h-5.9L729.7,336.2z"/>
	<polygon id="grant" class="st18" points="787.2,219.4 766.8,220.2 765.4,222.8 758.3,222.6 758.1,237.1 761.2,238.1 761.2,248.1 
		761.2,249.7 767.5,249.7 767.5,246.2 792.1,246.2 792.1,239.6 788.5,239.6 788.5,226.8 	"/>
	<path id="jefferson" class="st18" d="M822.9,410.1L822.9,410.1c-0.3,0.7-0.6,1.2-0.9,1.5c-0.6,0.9-2,3-17.4,1.1
		c-2.7,4-5.6,8.6-5.8,9.7c-0.1,0.7-0.6,1.2-1.2,1.7c-0.6,0.4-1.3,0.6-2.3,0.7v6.1l4.5,3.4l5.2,1.9v7h8.2c0-1.3-0.1-2.7,0.1-4.1
		c0.5-4.6,1.3-12.8,8.2-15.6c3.2-1.2,6.4-1,9.3-0.8l0,0l-1.6-1.1v-12.7C826.2,409.2,823.5,409.7,822.9,410.1z"/>
	<polygon id="hancock" class="st18" points="760.9,323.3 782.4,320.8 782.4,319.1 785.5,314.8 786.1,297 762.5,300.2 757.7,302.7 	
		"/>
	<polygon id="madison" class="st18" points="785.6,293 784.8,290.6 782.4,290.6 782.4,281.9 778.5,250.3 771.5,250.3 771.5,253.7 
		761.2,253.7 761.2,271.1 763.6,295.9 	"/>
	<path id="posey" class="st18" d="M609.2,534.6c-0.1,1.1-0.2,2-0.3,3l5.3-2.1l1.9,0.7c2.1,0.8,4.9-0.2,8.1-1.3
		c0.8-0.3,1.6-0.6,2.4-0.8l-1.2-19h-3.6l-0.4-0.2c-1.2-0.6-3.7-1.9-4.9-3.1c-0.7-0.4-3.2-0.9-5.5-1.2h-0.5l-0.4-0.2
		c0,1.8,0,3.7,0.1,5.7c0.1,2.7,0.2,5.4,0,8.1C610,527.9,609.6,531.3,609.2,534.6z"/>
	<path id="gibson" class="st18" d="M636.3,474.8l-6.1,5.3l-5.7,4.4l-0.6,0.3c-0.1,0.1-0.2,0.3-0.3,0.4c-1.4,2-3.1,3.9-4.6,5.8
		c-3.5,4.3-6.9,8.3-8.2,12.7c-0.3,0.8-0.4,1.6-0.6,2.5l1.3,0.5c6.4,0.8,7.4,2,7.8,2.4c0.3,0.4,1.7,1.2,3.3,2h4.6h1.9h8.7l7.2-2.5
		l5.1-4.1l8.2-4.9v-5.1l-3.2-7.5l-4.9,1l-3.8-4.9c-1.1-0.8-2.5-2.2-2.5-3.8c-0.1-0.3-0.9-1.7-1.7-2.9l-0.4-0.5v-2.7L636.3,474.8z"/>
	<polygon id="steuben" class="st18" points="824.7,112.8 823,96 822.6,95.7 798.4,97.5 800.9,115.1 	"/>
	<polygon id="wells" class="st18" points="792.2,224.6 797.6,224.6 801.7,221.6 811.5,221.6 819.3,220.5 815.8,183.5 810.8,184 
		807.2,189.1 799.1,188.1 801.5,218.2 791.2,219.1 	"/>
	<polygon id="noble" class="st18" points="794.5,119.8 763.9,125.6 763.9,132.7 763.9,134.6 763.9,138.8 767.7,141.2 767.7,145.4 
		770.8,143.4 777.9,143.4 777.9,147.1 795.1,147.1 800.9,143.5 797.5,119.5 	"/>
	<polygon id="clay_1_" class="st18" points="654.2,388.4 658.2,395.6 662,394.2 666,392.5 668.9,392.5 670,386.5 665.2,384.6 
		665.2,373 676.4,373 676.4,360.8 667.6,350.1 655.8,350.1 658.6,357.3 654.2,359.2 	"/>
	<polygon id="greene" class="st18" points="676.1,423.3 676.1,419.9 704,419.9 703.8,405 700.7,401.8 701.1,393.5 689,393.5 
		686.8,397.9 670.6,396.6 666.8,396.6 663.6,398.1 658.2,399.9 658.1,409 662.4,410 662.4,423.3 	"/>
	<polygon id="fayette" class="st18" points="817.6,312.6 813.9,312.6 817.2,339.2 826.1,337.9 834.4,337.2 834.4,319.3 830.8,319.3 
		830.8,322.2 819.4,322.2 819.4,312.6 	"/>
	<path id="spencer" class="st18" d="M700.6,501.9l-6.4,2.2l-9.2,3.8c-1.2,1.8-2.8,4.7-3.2,5.8c-0.4,1.2-0.9,2.1-1.3,2.9
		c-0.4,0.8-0.8,1.3-1.1,2.2c-0.6,1.6-1.4,2.4-2,3c-0.4,0.4-0.6,0.6-0.8,0.9c-0.8,2-2.3,3.5-2.5,3.7l-4.1,5.1l-1.2,3.4
		c0.4,0.5,0.7,1,1.1,1.3c0.3,0.4,0.8,1.1,1,1.2l0.9,0.5c0.1,0,0.1,0,0.2,0c0.6,0.2,1.3,0.4,2.2,0.8c0.2,0,0.4,0.1,0.6,0.1l0.2-0.5
		c1.2-2.3,2.9-3.6,4.1-4.6c0.2-0.2,0.5-0.4,0.7-0.6c1-1.4,2.4-3.3,3.5-4.4l0.6-0.5c1.3-1,2.6-1.6,3.5-2.1c0.4-0.2,0.8-0.4,1.2-0.6
		c0.3-1.2,0.9-2.9,2.5-4.6c1.5-1.5,3.2-2.3,4.3-2.9c0.2-0.1,0.5-0.2,0.7-0.3c0.9-1,2.8-2.8,5.6-3.2L700.6,501.9z"/>
	<path id="crawford" class="st18" d="M736.2,502.5v0.5c1.4-0.9,2.9-1.5,4.4-2.2c0.9-0.4,1.6-0.8,2.6-1.2l1.2-0.6
		c0.5-0.2,1.1-0.3,1.7-0.4l-3-22l-0.3-0.2l-19.4,0.9v2H714v12.5l1.1,0.3l2.2-1.4h3.7l11.5,4.8v4.4L736.2,502.5z"/>
	<polygon id="brown_1_" class="st18" points="737.3,401.6 747.5,399 753.2,399 749.8,367.9 747,367.9 739.5,370 739.5,370.4 
		730.2,371 	"/>
	<path id="scott" class="st18" d="M789.2,424.2l-1.5,3.1h-6.3l-6.1,8.9l8,15.8l10.4-5.8l6.3-3.2h0.9v-4l-3.3-1.3l-6.3-4.7v-8.4
		C790.6,424.5,789.9,424.4,789.2,424.2z"/>
	<polygon id="jackson_1_" class="st18" points="738.1,405.5 739.8,412.6 739.8,412.6 744.6,433.5 745.7,432.5 771.9,434 
		778.1,424.8 773.9,398.4 757.8,403 747.7,403 	"/>
	<polygon id="bartholomew" class="st18" points="774.7,393.8 785.7,387.8 782.7,364.9 772.9,367.9 753.8,367.9 757.3,399 757.5,399 
			"/>
	<path id="warren" class="st18" d="M625.8,290.7v-5.5l0.6-0.6c3.6-3.6,15.4-15.3,16.4-16.1c0.7-0.5,2.6-2.3,3.3-3l0.8-0.7l1,0.2
		c2.4,0.4,4.9,0.7,6.3,0.7v-6.3H651v-5.7l-28.5,2.5l2.6,34.3L625.8,290.7L625.8,290.7z"/>
	<polygon id="benton" class="st18" points="650.8,232.7 648.6,229.7 647.9,222.9 646.7,222.9 646.7,226.4 620.1,226.4 622.1,252.4 
		650.8,249.8 	"/>
	<polygon id="pulaski" class="st18" points="675.1,199.8 675.1,196 701.4,196 697.8,169.2 661.4,172.8 661.6,184.4 664.2,184.4 
		664.2,199.8 	"/>
	<polygon id="lagrange" class="st18" points="793.9,115.8 796.9,115.5 794.4,97.9 761.3,100.3 763.6,121.4 	"/>
	<polygon id="kosciusko" class="st18" points="730.6,138.3 732,162.8 745.9,175.1 763.6,175.1 763.6,171.5 759.8,168.6 759.8,158.7 
		763.6,158.7 763.6,143.4 759.8,141 759.8,135 	"/>
	<polygon id="miami" class="st18" points="732.8,222.3 732.8,230.5 741.7,230.5 741.7,227.9 754.1,228.2 754.2,222.4 748,222.2 
		742.1,188.4 737.7,188.4 731,194.8 726.9,195.6 726.9,202.5 730.1,202.5 730.1,222.3 	"/>
	<path id="vermillion" class="st18" d="M627.8,294.7h-2.6l3.2,42.9c0.2,1.9,1,3.9,1.8,6.2c0.3,0.8,0.6,1.4,0.9,2.3h4.8v-28.7h-3
		v-4.9h-3.5v-17.8H627.8L627.8,294.7z"/>
	<path id="lake" class="st18" d="M629.3,121.5c-4.1-0.4-6.3-3-10.1-4.1c-2-0.7-4.1-0.6-6.3-0.7l1.6,36.8l1.5,21.3l14-5.8l3.1-2.6
		v-19.3h-3.3v-25.8C629.8,121.6,629.6,121.6,629.3,121.5z"/>
	<path id="laporte" class="st18" d="M655,109v12.8h3.9v24.6h2.8l-0.3,16.2c1.6-1,5.6-2.7,7.4-3.5l2.4-4.8l5.8-10.1l3.3-6.4h7.3
		l-2.8-31.7l-22.1,1.7l-0.4-5.4c-3.1,2.2-6.1,4.4-9.2,6.5L655,109C655,109.1,655,109,655,109z"/>
	<path id="porter" class="st18" d="M649,111.7c-3.6,2.3-6.5,3.5-10.1,5.5c-3.1,1.7-4,3.8-7,4.3h2.2v21.9h3.3v19.8l1-0.9l2.9-3.6
		h10.9l-1.9,3c1.8,0.8,4.7,2.2,7.2,3.4l0.3-14.6H655v-24.6h-3.9v-15.5C650.3,110.8,649.7,111.2,649,111.7z"/>
	<path id="starke" class="st18" d="M680.6,146.3l-5.8,10.1l-3,6l-0.7,0.3c-2.4,1.1-6.7,2.9-7.7,3.5c-0.7,0.4-1.4,1.6-2,2.6l35.8-3.6
		L694,142h-11.3L680.6,146.3z"/>
	<path id="jasper" class="st18" d="M657.3,169.6c-4.2-2.1-8.6-4.2-9.5-4.4s-1.6-0.9-1.9-1.6c-0.1-0.2-0.1-0.5-0.2-0.7h-2.6l-2.1,2.6
		l-7.7,6.3l6.7,50.6h2.5v-3.5h6.3l2-1.9v-4.5l7.1-5.7l-0.7-2.9l2.8-2.9v-12.7h-2.5L657.3,169.6z"/>
	<polygon id="st._joseph" class="st18" points="691.5,137.9 694.5,137.9 697.3,131.4 716.8,131.4 716.8,128.3 726,128.3 726,118 
		722.2,118 722.5,103.3 688.8,105.8 	"/>
	<polygon id="newton" class="st18" points="616.6,179.2 619.8,222.3 636,222.3 629.6,173.9 	"/>
	<polygon id="white" class="st18" points="655,218.7 651.9,221.7 652.5,228.2 654.8,231.4 654.8,240.2 679.4,236.8 679.4,236.3 
		676.6,234 676.6,218.8 692.7,215.6 692.7,210.2 689.1,210.2 689.1,200 679.1,200 679.1,203.9 663.1,203.9 661.8,205.1 662.6,208.4 
		655,214.4 	"/>
	<path id="daviess" class="st18" d="M658.3,448.9c-0.1,0.7,0,2.9,0.1,5l5.7,10.3h3.2l2.2,2.1h19.6V447h-3.5v-23.1H680v3.4h-11.8v3.5
		L662,442C661.8,442.5,659.1,447.5,658.3,448.9z"/>
	<path id="pike" class="st18" d="M651.2,468.5l-4.2,3.3l-1,0.3v2.6c1.2,1.9,1.9,3.4,2,4.4c0.2,0.3,0.7,0.8,1.1,1.1l0.4,0.4l2.5,3.2
		l5.8-1.2l4.7,11.3v5.1H676l-3-28.5h-5.2l-2.2-2.1h-3.5l-5.6,4.3L651.2,468.5z"/>
	<path id="vanderburgh" class="st18" d="M644.3,513.1l-5.8,2h-9.1l1.2,17.9c0.1,0,0.1,0,0.2,0c0.8-0.2,1.5-0.3,2.2-0.5
		c1.7-0.9,3.5-0.9,4.9-1c0.4,0,1.1-0.1,1.2-0.1l0.7-0.2h0.7c0.8,0,1.3-0.1,3.5-1c1.2-0.5,2.5-0.9,3.9-1.2v-1.8H646L644.3,513.1z"/>
	<polygon id="boone" class="st18" points="710.5,278.6 710.5,282.1 692.5,282.1 694.8,305.2 722.7,302.5 722.7,302.3 728.5,302.3 
		726.2,276.9 	"/>
	<path id="putnam" class="st18" d="M692.2,319.9l-0.3-2.5h-21.4v29.9l8.8,10.6h17.9v-19.7c-0.1-1.1-2.7-10-5.1-17.9L692.2,319.9
		L692.2,319.9z"/>
	<polygon id="tipton" class="st18" points="752.5,253.7 732.9,253.7 731.7,256.9 727.2,256.9 729.7,272.4 757.2,269.3 757.2,253.7 
		757.2,251.7 757.2,250.3 753.9,250.6 	"/>
	<polygon id="hamilton" class="st18" points="732.6,302.1 754.9,299.6 759.7,297 757.4,273.4 730.2,276.4 	"/>
	<path id="henry" class="st18" d="M815.3,282.9l-0.7-0.9h-13.2v1.7h-15v2.8h1.3l3.1,9.9l-0.7,0.1l-0.6,15.9l10.5-3.9h9.2h2.3h4
		c0.4-10.8,0.6-22.1,0.2-24.4C815.7,283.9,815.5,283.5,815.3,282.9z"/>
	<polygon id="rush" class="st18" points="802.8,346.1 813,346.1 813.5,341.6 809.8,312.6 800.5,312.6 788.7,317.1 786.4,320.3 
		786.4,322.4 789.9,349 	"/>
	<polygon id="decatur" class="st18" points="803.1,350.1 789.7,353.1 786.4,362.3 789.4,385.8 805.8,376.9 815.8,368.4 811.6,350.1 
			"/>
	<path id="switzerland" class="st18" d="M839.1,404.8c-0.6,0.4-1.1,0.7-1.5,1.1l-4.2,2.6v10.9l2.4,1.5v1.4c1.2-0.6,2.7-1.6,4.2-2.9
		c1.6-1.2,3.5-2.8,5.8-3.8c2.7-1.3,5.3-2.6,7.9-3.8c1.3-0.7,2.7-1.2,4-1.9c3.6-1.7,4.1-3,4.1-3.1c0.1-0.4-0.1-1.2-0.5-2L839.1,404.8
		L839.1,404.8z"/>
	<path id="ripley" class="st18" d="M819,371l-8,6.6l3.8,31.8c1.8,0,3.3-0.1,3.8-0.3l0,0c0-1,0.9-1.6,1.6-2.2
		c1.8-1.4,7.9-2.2,11.6-2.6l3.4-2c0.4-0.3,0.8-0.5,1.2-0.8v-36.3l-1,0.1L819,371z"/>
	<polygon id="wabash" class="st18" points="745.8,186.2 751.4,218.2 763,218.6 764.4,216.2 772.3,215.9 766.1,181.9 764.5,179.2 
		745.8,179.2 	"/>
	<polygon id="whitley" class="st18" points="763.9,166.6 767.7,169.6 767.7,176.6 769.2,179.1 779.3,179.1 779.3,175.1 790.9,175.1 
		791.5,151.2 773.9,151.2 773.9,147.4 772.1,147.4 767.7,150.3 767.7,162.7 763.9,162.7 	"/>
	<polygon id="blackford" class="st18" points="801.1,246.2 801.1,243.3 809.6,243.3 809.6,225.6 802.9,225.6 798.8,228.6 
		792.5,228.6 792.5,235.6 796.1,235.6 796.1,246.2 	"/>
	<polygon id="huntington" class="st18" points="794.1,187.6 791.5,179.2 783.4,179.2 783.4,183.3 770.4,183.3 776.4,215.8 
		788.7,215.3 797.2,214.5 795,187.7 	"/>
	<path id="delaware" class="st18" d="M810,257.4l-0.4,0.1v-10.2h-4.5v3h-22.5l3.6,29.4h11.1V278h16.5c-0.7-2.5-1.3-6-2.4-10.9
		L810,257.4z"/>
	<polygon id="franklin" class="st18" points="846.4,340.2 826.6,341.9 817.4,343.3 816.6,350.1 815.7,350.1 819.5,366.6 
		834.7,361.4 851.4,359.1 849.2,338.8 	"/>
	<path id="dearborn" class="st18" d="M840.5,364.7V399c4-2.4,4.9-2.6,5.2-2.6c0.8-0.2,4.8-2.4,9.2-4.8l-3.1-28.6L840.5,364.7z"/>
	<path id="ohio" class="st18" d="M846.2,399l-2.1,3.6c4.6-0.6,10.7-0.8,16.5,0l-2.7-8.1L846.2,399z"/>
	<path id="randolph" class="st18" d="M813.9,256.4l1.5,10.1c1.2,6.2,3,13.7,3.6,15.3c0.3,0.4,0.6,1.1,0.8,2.9l22.8-5.3l-3.2-29.5
		L813.9,256.4z"/>
	<polygon id="allen" class="st18" points="801.9,147.7 796.2,151.2 795.6,151.2 795,176.8 797.2,183.8 805.3,184.8 808.6,180.2 
		831.8,177.8 827.9,142.9 	"/>
	<polygon id="jay" class="st18" points="813.7,225.4 813.7,252.3 839.2,245.8 836.6,222.3 	"/>
	<path id="wayne" class="st18" d="M820.1,288.6c0.1,3.9,0,10.1-0.4,19.8h3.7v9.7h3.4v-3h7.5h2h2.9l7.1-3.3l-3.1-28.8L820.1,288.6z"
		/>
	<polygon id="union_1_" class="st18" points="840.1,319.3 838.4,319.3 838.4,336.8 845.4,336.2 848.7,334.6 846.7,316.2 	"/>
	<polygon id="adams" class="st18" points="819.8,183.1 823.2,220.1 836.2,218.2 832.2,181.8 	"/>
	<polygon id="dekalb" class="st18" points="801.5,119.1 804.9,143 827.6,138.9 825.2,116.8 	"/>
	<polygon id="clinton" class="st18" points="702.6,253.7 689.7,253.7 691.7,274.6 693.7,278.1 706.5,278.1 706.5,275 725.7,272.9 
		723.2,256.9 721.4,256.9 717.5,250.5 704.9,249.7 	"/>
	<polygon id="hendricks_1_" class="st18" points="723.5,234.5 723.5,237.7 714.2,237.7 714.3,239.2 717,240.2 717,246.3 
		719.8,246.5 723.7,252.8 728.8,252.8 730,249.7 750,249.7 751.3,246.8 757.2,246.2 757.2,241.2 754,240.2 754.1,232.2 745.8,232 
		745.8,234.5 730.7,234.5 728.7,234.5 	"/>
	<polygon id="fulton" class="st18" points="701.8,168.7 705.4,195.6 729.1,191 736.1,184.4 741.7,184.4 741.7,176.8 729.4,165.9 	
		"/>
	<polygon id="montgomery" class="st18" points="675.1,278.6 675.1,282.1 658.2,282.1 658.2,290.7 661,290.7 661,304.8 669.4,313.4 
		691.5,313.4 688,277.5 	"/>
	<path id="sullivan" class="st18" d="M633.5,411.3c2.7,3.2,5.7,6.7,6.7,13.4c0.1,0.8,0.2,1.5,0.3,2.4h3.5v-3.7h14.4v-10.1l-4.3-1.1
		l0.2-13.8v-1.7L651,391h-22.1c-1.8,5.2-2.6,9.1,1,15.2C630.9,408.2,632.1,409.8,633.5,411.3z"/>
	<path id="knox" class="st18" d="M634.4,471.2l10.6-3.1l6-4.7l5.4,4l3.4-2.6l-5.4-9.8v-0.4c-0.6-6.3,0-7.3,0.3-7.8
		c0.4-0.6,2.6-4.5,3.8-6.9l5.8-10.4v-2.4H648v3.7h-7.3c0.2,5-0.1,10.1-0.5,14.1c-0.6,6.1-3,10.2-5,13.8c-1.2,2.1-2.4,4.1-3.3,6.6
		c-0.6,1.8-1.1,3.5-1.5,5c-0.6,1.9-1.2,3.8-1.8,5.8L634.4,471.2z"/>
	<polygon id="parke" class="st18" points="646.3,312.6 636.8,312.6 636.8,313.4 639.9,313.4 639.9,346.1 666.5,346.1 666.5,316.2 
		658.2,307.8 646.3,308.5 	"/>
	<path id="vigo" class="st18" d="M632.2,350.1c0.3,1.2,0.5,2.4,0.7,3.7c0.4,4.5,0.3,9,0.2,13.4c-0.1,2.1-0.1,4.2-0.1,6.2
		c0,5.3-1.2,9.6-2.7,13.3h19.8v-30.3l3.3-1.4l-2-5.1L632.2,350.1L632.2,350.1z"/>
	<path id="washington" class="st18" d="M777.5,458.2l2.5-3.5l-8.4-16.6l-24.4-1.4l-2.4,2.2l-2.7,2.7l-0.3,0.3l3.4,30.1l20.1-5.1v-5
		l1-0.6c2.2-1.3,5.1-2.9,6.5-3C773.7,458.2,776.1,458.2,777.5,458.2z"/>
	<path id="floyd" class="st18" d="M781.1,470.3l-2.2,4.7h-7.3l-1.2-1.4v6.3c1.4,1,3.5,2.5,4.2,3.5s1.5,2.5,1.8,3.1l0.4,0.4
		c1.2-1.4,2.6-2.4,3.8-3.2l0,0c0.5-0.7,1.3-1.8,2.7-2.8c0.1-0.1,0.1-0.1,0.2-0.2c0.3-0.4,0.7-0.9,0.7-1.1l0.5-1c0.6-1,1.2-2,1.7-3.2
		c0.3-0.7,0.7-1.2,1.1-1.9l-1.6-3.4h-4.8L781.1,470.3L781.1,470.3z"/>
	<path id="harrison" class="st18" d="M766.3,482.1V475h-3.1v-3.5l-16.1,4l3.3,24.3l0.3,0.3c1.4,1.4,2.2,3.6,2.4,5.5
		c0.1,0.4,0.3,0.7,0.4,1c0.2,0.4,0.3,0.7,0.4,1.1c0.1,0.1,0.1,0.2,0.2,0.2c0.1,0,0.2,0,0.3,0c0.6-0.1,1.2-0.1,1.6-0.1h7.3
		c0.3,0,1-0.2,1.4-0.3c1.1-0.3,2.2-0.6,3.5-0.6h4.6c0.1,0,0.2,0,0.4,0c-0.1-0.8-0.3-1.6-0.3-2.4c0-2.3,0-5,0.6-8.1l0.2-0.9
		c0.1-0.3,0.2-0.8,0.3-1.4c0.1-0.9,0.3-1.7,0.5-2.8l0.2-0.7l0,0L773,489c0,0-1.1-2-1.8-3.1c-0.3-0.5-2.2-1.9-3.9-3L766.3,482.1z"/>
	<polygon id="martin" class="st18" points="689.7,443.1 693.2,443.1 693.2,465.6 707,461.4 707.6,437.4 704.1,435.8 704,424 
		689.7,424 	"/>
	<polygon id="shelby" class="st18" points="760.9,327.3 759.5,334 763.6,363.8 772.6,363.8 782.8,360.6 786.1,351.2 782.6,324.8 	
		"/>
	<path id="johnson" class="st18" d="M748.2,336.6c0.1,0.4,0.2,0.8,0.3,1.1l0.7,2.5h-13.3l3.2,25.7l7.9-2.1h12.7l-3.8-27.6
		C752.1,336.7,749.7,336.7,748.2,336.6z"/>
	<path id="jennings" class="st18" d="M777.7,396.8l4.2,26.6h3.3l1.8-3.6l1.5,0.4c2.5,0.6,5.3,0.9,6.4,0.8c1.1-2.6,4.7-8.1,6.9-11.3
		l0.7-1.1l1.2,0.2c2.3,0.3,4.7,0.6,7,0.7l-3.5-28.7L777.7,396.8z"/>
	<polygon id="dubois" class="st18" points="679.9,498.8 683.2,498.8 683.2,501.1 686,503 692.7,500.2 700.4,497.7 700.4,492.3 
		709.9,491.5 709.9,473.6 706.9,468.9 706.9,465.6 691.1,470.3 677,470.3 	"/>
	<polygon id="orange" class="st18" points="714,475.2 719.5,475.2 719.5,473.3 741.1,472.4 737.8,443.4 711.3,448.7 710.9,467.7 
		714,472.4 	"/>
	<polygon id="lawrence_1_" class="st18" points="711.6,434.8 711.4,444.6 738.6,439.2 739.8,438 741.2,436.7 735.6,412.6 
		725.2,412.6 720.1,414.3 707.9,416 708.1,433.2 	"/>
	<polygon id="monroe" class="st18" points="707.5,373.1 707.5,383.4 705.7,384.5 704.8,400.3 707.8,403.2 707.9,412 719.3,410.3 
		724.9,408.6 734.7,408.6 726.1,371.4 	"/>
	<path id="clark_1_" class="st18" d="M795.5,449.8l-11.8,6.4l-4.1,5.9h-1.1c-1.2,0-4.6-0.1-5.6,0c-0.4,0.1-2,0.9-3.6,1.8v3.2
		l2.3,1.4l1.8,2.3h2.8l2.2-4.7h10l1.4,3.2c1.2-1.9,2.8-3.7,4.6-5.3c2.7-2.2,5.5-4.6,8.2-7l1.7-1.5c1.2-1,2.4-1.9,3.5-2.7
		c2-1.4,4-2.9,4.8-4.3c0.2-0.3,0.3-0.9,0.3-1.5h-12.3L795.5,449.8z"/>
	<path id="perry" class="st18" d="M704.4,499l1,16.2h0.1c1.9,0.7,4.4,1.9,6,3.5c1.8,1.8,2.4,3.8,2.9,5.2c0.1,0.3,0.2,0.7,0.4,1.1
		c0.5,0.8,0.9,1.6,1.2,2.3c0.4,0.8,0.7,1.5,1.2,2.1l0.5,0.8c0.1,0.2,0.2,0.3,0.3,0.5c0.2-0.1,0.5-0.2,0.7-0.3
		c0.5-0.3,1.1-0.6,1.5-0.8c0-0.1,0-0.2,0-0.2v-5.9c0-2.2,0.5-3.9,0.9-5.5l0.2-0.9c0.7-3.6,3-7,6.2-9c1.5-1.2,3.1-2.1,4.7-3.1v-0.5
		l-3.7-2.8V498l-8.3-3.5h-1.7l-2.6,1.7l-3.9-1l-7.4,0.7L704.4,499L704.4,499z"/>
	<polygon id="tippecanoe" class="st18" points="654.8,244.3 654.8,255.4 658,255.4 658,267 658.1,278.1 670.9,278.1 670.9,275 
		687.6,273.5 685.5,252.3 679.9,240.9 	"/>
	<path id="fountain" class="st18" d="M654.1,269.7c-1.3,0-3.3-0.1-6-0.5c-0.9,0.8-2.2,2-2.9,2.5c-0.8,0.7-9.6,9.4-15.4,15.1v3.7h3.5
		v17.8h8.9v-3.7l14.7-1.1v-9.1h-2.8V269.7z"/>
	<polygon id="carroll" class="st18" points="680.6,232 683.3,234.3 683.5,239 688.8,249.7 700.2,249.7 702.7,245.5 713,246.1 
		713,243.1 710.3,242.2 709.4,222 705.3,219.2 696.7,218.5 696.7,218.9 680.6,222.1 	"/>
	<polygon id="cass" class="st18" points="696.7,214.5 706.7,215.3 713.4,219.8 714,233.7 719.4,233.7 719.4,230.5 728.7,230.5 
		728.7,226.4 726,226.4 726,206.6 722.8,206.6 722.8,196.4 706,199.7 706.1,200 693.2,200 693.2,206.2 696.7,206.2 	"/>
	<polygon id="marshall_1_" class="st18" points="720.8,132.4 720.8,135.4 700,135.4 698,140.2 701.3,164.8 728,162 726.1,132.4 	"/>
	<polygon id="elkhart" class="st18" points="726.3,114 730.1,114 730.1,130.3 730.3,134.3 759.8,130.9 759.8,123.9 757.3,100.6 
		726.5,102.9 	"/>
</g>
<g id="balls">
	<g>
		<circle id="dearborn_circle" class="st17" cx="847.6" cy="381.3" r="6"/>
		<text id="dearborn_numbers" transform="matrix(0.986 2.629912e-03 -2.593122e-03 1 844.2368 383.38)" class="st19 st7 st20">10</text>
		<circle id="ohio_circle" class="st17" cx="852.4" cy="399" r="6"/>
		<text id="ohio_numbers" transform="matrix(0.986 2.629912e-03 -2.593122e-03 1 848.9741 401.0851)" class="st19 st7 st20">10</text>
		<circle id="switzerland_circle" class="st17" cx="842.6" cy="410.8" r="6"/>
		<text id="switzerland_numbers" transform="matrix(0.986 2.629912e-03 -2.593122e-03 1 839.2236 412.9264)" class="st19 st7 st20">10</text>
		<circle id="ripley_circle" class="st17" cx="824.6" cy="389" r="6"/>
		<text id="ripley_numbers" transform="matrix(0.986 2.629912e-03 -2.593122e-03 1 821.1863 391.1017)" class="st19 st7 st20">10</text>
		<circle id="jennings_circle" class="st17" cx="794.6" cy="402.6" r="6"/>
		<text id="jennings_numbers" transform="matrix(0.986 2.629912e-03 -2.593122e-03 1 791.237 404.646)" class="st19 st7 st20">10</text>
		<circle id="jefferson_circle" class="st17" cx="808.9" cy="423.9" r="6"/>
		<text id="jefferson_numbers" transform="matrix(0.986 2.629912e-03 -2.593122e-03 1 805.5441 425.9851)" class="st19 st7 st20">10</text>
		<circle id="scott_circle" class="st17" cx="786.2" cy="439.5" r="6"/>
		<text id="scott_numbers" transform="matrix(0.986 2.629912e-03 -2.593122e-03 1 782.815 441.572)" class="st19 st7 st20">10</text>
		<circle id="jackson_circle" class="st17" cx="759.5" cy="420.2" r="6"/>
		<text id="jackson_numbers" transform="matrix(0.986 2.629912e-03 -2.593122e-03 1 756.1227 422.239)" class="st19 st7 st20">10</text>
		<circle id="clark_circle" class="st17" cx="792.1" cy="458.6" r="6"/>
		<text id="clark_numbers" transform="matrix(0.986 2.629912e-03 -2.593122e-03 1 788.7235 460.6817)" class="st19 st7 st20">10</text>
		<circle id="washington_circle" class="st17" cx="758.2" cy="452.6" r="6"/>
		<text id="washington_numbers" transform="matrix(0.986 2.629912e-03 -2.593122e-03 1 754.7897 454.6409)" class="st19 st7 st20">10</text>
		<circle id="floyd_circle" class="st17" cx="778.4" cy="477.4" r="6"/>
		<text id="floyd_numbers" transform="matrix(0.986 2.629912e-03 -2.593122e-03 1 774.9969 479.4967)" class="st19 st7 st20">10</text>
		<circle id="harrison_circle" class="st17" cx="761.2" cy="491.8" r="6"/>
		<text id="harrison_numbers" transform="matrix(0.986 2.629912e-03 -2.593122e-03 1 757.8226 493.911)" class="st19 st7 st20">10</text>
		<circle id="lawrence_circle" class="st17" cx="723.8" cy="426.2" r="6"/>
		<text id="lawrence_numbers" transform="matrix(0.986 2.629912e-03 -2.593122e-03 1 720.4008 428.2795)" class="st19 st7 st20">10</text>
		<circle id="orange_circle" class="st17" cx="726.2" cy="459.3" r="6"/>
		<text id="orange_numbers" transform="matrix(0.986 2.629912e-03 -2.593122e-03 1 722.7817 461.3857)" class="st19 st7 st20">10</text>
		<circle id="crawford_circle" class="st17" cx="732.2" cy="485.8" r="6"/>
		<text id="crawford_numbers" transform="matrix(0.986 2.629912e-03 -2.593122e-03 1 728.8225 487.8698)" class="st19 st7 st20">10</text>
		<circle id="perry_circle" class="st17" cx="716.4" cy="507.9" r="6"/>
		<text id="perry_numbers" transform="matrix(0.986 2.629912e-03 -2.593122e-03 1 712.9916 509.9859)" class="st19 st7 st20">10</text>
		<circle id="martin_circle" class="st17" cx="699.2" cy="445.1" r="6"/>
		<text id="martin_numbers" transform="matrix(0.986 2.629912e-03 -2.593122e-03 1 695.8633 447.1849)" class="st19 st7 st20">10</text>
		<circle id="dubois_circle" class="st17" cx="693.2" cy="484.3" r="6"/>
		<text id="dubois_numbers" transform="matrix(0.986 2.629912e-03 -2.593122e-03 1 689.8221 486.3849)" class="st19 st7 st20">10</text>
		<circle id="spencer_circle" class="st17" cx="686.3" cy="517.2" r="6"/>
		<text id="spencer_numbers" transform="matrix(0.986 2.629912e-03 -2.593122e-03 1 682.972 519.3346)" class="st19 st7 st20">10</text>
		<circle id="pike_circle" class="st17" cx="666.3" cy="483.7" r="6"/>
		<text id="pike_numbers" transform="matrix(0.986 2.629912e-03 -2.593122e-03 1 662.8821 485.7847)" class="st19 st7 st20">10</text>
		<circle id="warrick_circle" class="st17" cx="662.5" cy="515.5" r="6"/>
		<text id="warrick_numbers" transform="matrix(0.986 2.629912e-03 -2.593122e-03 1 659.1445 517.5405)" class="st19 st7 st20">10</text>
		<circle id="vanderburgh_circle" class="st17" cx="637.4" cy="522.1" r="6"/>
		<text id="vanderburgh_numbers" transform="matrix(0.986 2.629912e-03 -2.593122e-03 1 634.0412 524.1631)" class="st19 st7 st20">10</text>
		<circle id="posey_circle" class="st17" cx="618.3" cy="524.3" r="6"/>
		<text id="posey_numbers" transform="matrix(0.986 2.629912e-03 -2.593122e-03 1 614.8868 526.402)" class="st19 st7 st20">10</text>
		<circle id="gibson_circle" class="st17" cx="634.8" cy="495" r="6"/>
		<text id="gibson_numbers" transform="matrix(0.986 2.629912e-03 -2.593122e-03 1 631.4357 497.0681)" class="st19 st7 st20">10</text>
		<circle id="daviess_circle" class="st17" cx="674.8" cy="450.5" r="6"/>
		<text id="daviess_numbers" transform="matrix(0.986 2.629912e-03 -2.593122e-03 1 671.4722 452.5974)" class="st19 st7 st20">10</text>
		<circle id="knox_circle" class="st17" cx="646.1" cy="450.5" r="6"/>
		<text id="knox_numbers" transform="matrix(0.986 2.629912e-03 -2.593122e-03 1 642.7483 452.597)" class="st19 st7 st20">10</text>
		<circle id="sullivan_circle" class="st17" cx="644.8" cy="407.6" r="6"/>
		<text id="sullivan_numbers" transform="matrix(0.986 2.629912e-03 -2.593122e-03 1 641.4368 409.6566)" class="st19 st7 st20">10</text>
		<circle id="greene_circle" class="st17" cx="682.5" cy="408.8" r="6"/>
		<text id="greene_numbers" transform="matrix(0.986 2.629912e-03 -2.593122e-03 1 679.1186 410.8421)" class="st19 st7 st20">10</text>
		<circle id="monroe_circle" class="st17" cx="719.6" cy="393.6" r="6"/>
		<text id="monroe_numbers" transform="matrix(0.986 2.629912e-03 -2.593122e-03 1 716.2324 395.6451)" class="st19 st7 st20">10</text>
		<circle id="brown_circle" class="st17" cx="743.4" cy="384.9" r="6"/>
		<text id="brown_numbers" transform="matrix(0.986 2.629912e-03 -2.593122e-03 1 740.0364 386.9566)" class="st19 st7 st20">10</text>
		<circle id="bartholomew_circle" class="st17" cx="770.5" cy="381.3" r="6"/>
		<text id="bartholomew_numbers" transform="matrix(0.986 2.629912e-03 -2.593122e-03 1 767.1083 383.3793)" class="st19 st7 st20">10</text>
		<circle id="decatur_circle" class="st17" cx="800.3" cy="364.3" r="6"/>
		<text id="decatur_numbers" transform="matrix(0.986 2.629912e-03 -2.593122e-03 1 796.8967 366.4274)" class="st19 st7 st20">10</text>
		<circle id="franklin_circle" class="st17" cx="833.4" cy="351.1" r="6"/>
		<text id="franklin_numbers" transform="matrix(0.986 2.629912e-03 -2.593122e-03 1 830.0241 353.1358)" class="st19 st7 st20">10</text>
		<circle id="owen_circle" class="st17" cx="690.9" cy="378.4" r="6"/>
		<text id="owen_numbers" transform="matrix(0.986 2.629912e-03 -2.593122e-03 1 687.5294 380.4639)" class="st19 st7 st20">10</text>
		<circle id="clay_circle" class="st17" cx="662" cy="367.5" r="6"/>
		<text id="clay_numbers" transform="matrix(0.986 2.629912e-03 -2.593122e-03 1 658.6561 369.5822)" class="st19 st7 st20">10</text>
		<circle id="vigo_circle" class="st17" cx="641.7" cy="368.9" r="6"/>
		<text id="vigo_numbers" transform="matrix(0.986 2.629912e-03 -2.593122e-03 1 638.3243 370.9489)" class="st19 st7 st20">10</text>
		<circle id="morgan_circle" class="st17" cx="719.3" cy="355" r="6"/>
		<text id="morgan_numbers" transform="matrix(0.986 2.629912e-03 -2.593122e-03 1 715.936 357.0649)" class="st19 st7 st20">10</text>
		<circle id="johnson_circle" class="st17" cx="747.1" cy="352.4" r="6"/>
		<text id="johnson_numbers" transform="matrix(0.986 2.629912e-03 -2.593122e-03 1 743.7701 354.438)" class="st19 st7 st20">10</text>
		<circle id="shelby_circle" class="st17" cx="773.3" cy="344" r="6"/>
		<text id="shelby_numbers" transform="matrix(0.986 2.629912e-03 -2.593122e-03 1 769.8839 346.0378)" class="st19 st7 st20">10</text>
		<circle id="rush_circle" class="st17" cx="800.3" cy="331.6" r="6"/>
		<text id="rush_numbers" transform="matrix(0.986 2.629912e-03 -2.593122e-03 1 796.9533 333.6607)" class="st19 st7 st20">10</text>
		<circle id="fayette_circle" class="st17" cx="824.6" cy="328.9" r="6"/>
		<text id="fayette_numbers" transform="matrix(0.986 2.629912e-03 -2.593122e-03 1 821.1851 330.9607)" class="st19 st7 st20">10</text>
		<circle id="union_circle" class="st17" cx="843.6" cy="327" r="6"/>
		<text id="union_numbers" transform="matrix(0.986 2.629912e-03 -2.593122e-03 1 840.1736 329.0348)" class="st19 st7 st20">10</text>
		<circle id="wayne_circle" class="st17" cx="834" cy="300.7" r="6"/>
		<text id="wayne_numbers" transform="matrix(0.986 2.629912e-03 -2.593122e-03 1 830.6644 302.8051)" class="st19 st7 st20">10</text>
		<circle id="henry_circle" class="st17" cx="803.6" cy="296.2" r="6"/>
		<text id="henry_numbers" transform="matrix(0.986 2.629912e-03 -2.593122e-03 1 800.2706 298.3163)" class="st19 st7 st20">10</text>
		<circle id="hancock_circle" class="st17" cx="773.3" cy="310.6" r="6"/>
		<text id="hancock_numbers" transform="matrix(0.986 2.629912e-03 -2.593122e-03 1 769.9451 312.6564)" class="st19 st7 st20">10</text>
		<circle id="marion_circle" class="st17" cx="742.3" cy="320" r="6"/>
		<text id="marion_numbers" transform="matrix(0.986 2.629912e-03 -2.593122e-03 1 738.9222 322.1358)" class="st19 st7 st20">10</text>
		<circle id="hendricks_circle_1_" class="st17" cx="711.8" cy="322.1" r="6"/>
		
			<text id="hendricks_numbers_1_" transform="matrix(0.986 2.629912e-03 -2.593122e-03 1 708.4137 324.2126)" class="st19 st7 st20">10</text>
		<circle id="putnam_circle" class="st17" cx="684.1" cy="338.9" r="6"/>
		<text id="putnam_numbers" transform="matrix(0.986 2.629912e-03 -2.593122e-03 1 680.6895 340.9386)" class="st19 st7 st20">10</text>
		<circle id="parke_circle" class="st17" cx="653.4" cy="328.9" r="6"/>
		<text id="parke_numbers" transform="matrix(0.986 2.629912e-03 -2.593122e-03 1 650.0042 330.9602)" class="st19 st7 st20">10</text>
		<circle id="hamilton_circle" class="st17" cx="745" cy="287.8" r="6"/>
		<text id="hamilton_numbers" transform="matrix(0.986 2.629912e-03 -2.593122e-03 1 741.5724 289.835)" class="st19 st7 st20">10</text>
		<circle id="boone_circle" class="st17" cx="713" cy="292.2" r="6"/>
		<text id="boone_numbers" transform="matrix(0.986 2.629912e-03 -2.593122e-03 1 709.6223 294.261)" class="st19 st7 st20">10</text>
		<circle id="montgomery_circle" class="st17" cx="677.4" cy="296.2" r="6"/>
		<text id="montgomery_numbers" transform="matrix(0.986 2.629912e-03 -2.593122e-03 1 673.9924 298.2969)" class="st19 st7 st20">10</text>
		<circle id="vermillion_circle" class="st17" cx="631.4" cy="324.1" r="6"/>
		<text id="vermillion_numbers" transform="matrix(0.986 2.629912e-03 -2.593122e-03 1 628.0615 326.1448)" class="st19 st7 st20">10</text>
		<circle id="fountain_circle" class="st17" cx="644" cy="290.1" r="6"/>
		<text id="fountain_numbers" transform="matrix(0.986 2.629912e-03 -2.593122e-03 1 640.6057 292.1761)" class="st19 st7 st20">10</text>
		<circle id="randolph_circle" class="st17" cx="829.2" cy="268.3" r="6"/>
		<text id="randolph_numbers" transform="matrix(0.986 2.629912e-03 -2.593122e-03 1 825.809 270.4038)" class="st19 st7 st20">10</text>
		<circle id="delaware_circle" class="st17" cx="798.2" cy="264.1" r="6"/>
		<text id="delaware_numbers" transform="matrix(0.986 2.629912e-03 -2.593122e-03 1 794.8227 266.1395)" class="st19 st7 st20">10</text>
		<circle id="madison_circle" class="st17" cx="771.2" cy="273.1" r="6"/>
		<text id="madison_numbers" transform="matrix(0.986 2.629912e-03 -2.593122e-03 1 767.8098 275.1778)" class="st19 st7 st20">10</text>
		<circle id="tipton_circle" class="st17" cx="744.1" cy="262" r="6"/>
		<text id="tipton_numbers" transform="matrix(0.986 2.629912e-03 -2.593122e-03 1 740.692 264.0541)" class="st19 st7 st20">10</text>
		<circle id="clinton_circle" class="st17" cx="707.9" cy="262.9" r="6"/>
		<text id="clinton_numbers" transform="matrix(0.986 2.629912e-03 -2.593122e-03 1 704.5526 265.0261)" class="st19 st7 st20">10</text>
		<circle id="tippecanoe_circle" class="st17" cx="672.3" cy="259.9" r="6"/>
		<text id="tippecanoe_numbers" transform="matrix(0.986 2.629912e-03 -2.593122e-03 1 668.9225 261.9691)" class="st19 st7 st20">10</text>
		<circle id="warren_circle" class="st17" cx="635.1" cy="263.8" r="6"/>
		<text id="warren_numbers" transform="matrix(0.986 2.629912e-03 -2.593122e-03 1 631.7001 265.9148)" class="st19 st7 st20">10</text>
		<circle id="hendricks_circle" class="st17" cx="737.9" cy="241.5" r="6"/>
		<text id="hendricks_numbers" transform="matrix(0.986 2.629912e-03 -2.593122e-03 1 734.5059 243.5556)" class="st19 st7 st20">10</text>
		<circle id="grant_circle" class="st17" cx="775.4" cy="233.4" r="6"/>
		<text id="grant_numbers" transform="matrix(0.986 2.629912e-03 -2.593122e-03 1 772.0192 235.4964)" class="st19 st7 st20">10</text>
		<circle id="blackford_circle" class="st17" cx="802.9" cy="234.6" r="6"/>
		<text id="blackford_numbers" transform="matrix(0.986 2.629912e-03 -2.593122e-03 1 799.5026 236.7186)" class="st19 st7 st20">10</text>
		<circle id="jay_circle" class="st17" cx="826.5" cy="235.9" r="6"/>
		<text id="jay_numbers" transform="matrix(0.986 2.629912e-03 -2.593122e-03 1 823.0737 237.9851)" class="st19 st7 st20">10</text>
		<circle id="carroll_circle" class="st17" cx="697.2" cy="234.1" r="6"/>
		<text id="carroll_numbers" transform="matrix(0.986 2.629912e-03 -2.593122e-03 1 693.8226 236.1853)" class="st19 st7 st20">10</text>
		<circle id="cass_circle" class="st17" cx="715.5" cy="211.8" r="6"/>
		<text id="cass_numbers" transform="matrix(0.986 2.629912e-03 -2.593122e-03 1 712.1023 213.8447)" class="st19 st7 st20">10</text>
		<circle id="miami_circle" class="st17" cx="737.9" cy="211.8" r="6"/>
		<text id="miami_numbers" transform="matrix(0.986 2.629912e-03 -2.593122e-03 1 734.5056 213.9035)" class="st19 st7 st20">10</text>
		<circle id="wabash_circle" class="st17" cx="759" cy="200" r="6"/>
		<text id="wabash_numbers" transform="matrix(0.986 2.629912e-03 -2.593122e-03 1 755.6731 202.0854)" class="st19 st7 st20">10</text>
		<circle id="huntington_circle" class="st17" cx="784.6" cy="199.6" r="6"/>
		<text id="huntington_numbers" transform="matrix(0.986 2.629912e-03 -2.593122e-03 1 781.2446 201.7185)" class="st19 st7 st20">10</text>
		<circle id="wells_circle" class="st17" cx="809.6" cy="205.3" r="6"/>
		<text id="wells_numbers" transform="matrix(0.986 2.629912e-03 -2.593122e-03 1 806.2535 207.3854)" class="st19 st7 st20">10</text>
		<circle id="adams_circle" class="st17" cx="828" cy="202.2" r="6"/>
		<text id="adams_numbers" transform="matrix(0.986 2.629912e-03 -2.593122e-03 1 824.624 204.26)" class="st19 st7 st20">10</text>
		<circle id="white_circle" class="st17" cx="667.8" cy="221.1" r="6"/>
		<text id="white_numbers" transform="matrix(0.986 2.629912e-03 -2.593122e-03 1 664.3999 223.2298)" class="st19 st7 st20">10</text>
		<circle id="benton_circle" class="st17" cx="636" cy="239.4" r="6"/>
		<text id="benton_numbers" transform="matrix(0.986 2.629912e-03 -2.593122e-03 1 632.6219 241.4703)" class="st19 st7 st20">10</text>
		<circle id="newton_circle" class="st17" cx="626.1" cy="201.9" r="6"/>
		<text id="newton_numbers" transform="matrix(0.986 2.629912e-03 -2.593122e-03 1 622.7054 203.9861)" class="st19 st7 st20">10</text>
		<circle id="jasper_circle" class="st17" cx="648" cy="191.8" r="6"/>
		<text id="jasper_numbers" transform="matrix(0.986 2.629912e-03 -2.593122e-03 1 644.5882 193.8686)" class="st19 st7 st20">10</text>
		<circle id="pulaski_circle" class="st17" cx="681.4" cy="184.5" r="6"/>
		<text id="pulaski_numbers" transform="matrix(0.986 2.629912e-03 -2.593122e-03 1 678.0223 186.5852)" class="st19 st7 st20">10</text>
		<circle id="fulton_circle" class="st17" cx="719.8" cy="180.5" r="6"/>
		<text id="fulton_numbers" transform="matrix(0.986 2.629912e-03 -2.593122e-03 1 716.4285 182.5611)" class="st19 st7 st20">10</text>
		<circle id="starke_circle" class="st17" cx="685.7" cy="156" r="6"/>
		<text id="starke_numbers" transform="matrix(0.986 2.629912e-03 -2.593122e-03 1 682.3082 158.1003)" class="st19 st7 st20">10</text>
		<circle id="marshall_circle" class="st17" cx="712.9" cy="148.9" r="6"/>
		<text id="marshall_numbers" transform="matrix(0.986 2.629912e-03 -2.593122e-03 1 709.4811 150.9892)" class="st19 st7 st20">10</text>
		<circle id="kosciusko_circle" class="st17" cx="748.4" cy="156" r="6"/>
		<text id="kosciusko_numbers" transform="matrix(0.986 2.629912e-03 -2.593122e-03 1 745.0382 158.0464)" class="st19 st7 st20">10</text>
		<circle id="whitley_circle" class="st17" cx="779.3" cy="163.5" r="6"/>
		<text id="whitley_numbers" transform="matrix(0.986 2.629912e-03 -2.593122e-03 1 775.9349 165.5967)" class="st19 st7 st20">10</text>
		<circle id="allen_circle" class="st17" cx="813.4" cy="163.9" r="6"/>
		<text id="allen_numbers" transform="matrix(0.986 2.629912e-03 -2.593122e-03 1 810.024 165.9352)" class="st19 st7 st20">10</text>
		<circle id="noble_circle" class="st17" cx="785.4" cy="134.5" r="6"/>
		<text id="noble_numbers" transform="matrix(0.986 2.629912e-03 -2.593122e-03 1 782.0571 136.5669)" class="st19 st7 st20">10</text>
		<circle id="dekalb_circle" class="st17" cx="814.5" cy="129.9" r="6"/>
		<text id="dekalb_numbers" transform="matrix(0.986 2.629912e-03 -2.593122e-03 1 811.1736 131.9854)" class="st19 st7 st20">10</text>
		<circle id="steuben_circle" class="st17" cx="812" cy="104.8" r="6"/>
		<text id="steuben_numbers" transform="matrix(0.986 2.629912e-03 -2.593122e-03 1 808.6732 106.915)" class="st19 st7 st20">10</text>
		<circle id="lagrange_circle" class="st17" cx="779" cy="108.8" r="6"/>
		<text id="lagrange_numbers" transform="matrix(0.986 2.629912e-03 -2.593122e-03 1 775.6382 110.8856)" class="st19 st7 st20">10</text>
		<circle id="elkhart_circle" class="st17" cx="744.1" cy="118" r="6"/>
		<text id="elkhart_numbers" transform="matrix(0.986 2.629912e-03 -2.593122e-03 1 740.6922 120.1259)" class="st19 st7 st20">10</text>
		<circle id="st._joseph_circle" class="st17" cx="706.7" cy="119.2" r="6"/>
		<text id="st._joseph_numbers" transform="matrix(0.986 2.629912e-03 -2.593122e-03 1 703.3461 121.3115)" class="st19 st7 st20">10</text>
		<circle id="laporte_circle" class="st17" cx="673.6" cy="128.4" r="6"/>
		<text id="laporte_numbers" transform="matrix(0.986 2.629912e-03 -2.593122e-03 1 670.238 130.5264)" class="st19 st7 st20">10</text>
		<circle id="porter_circle" class="st17" cx="646.6" cy="140.2" r="6"/>
		<text id="porter_numbers" transform="matrix(0.986 2.629912e-03 -2.593122e-03 1 643.2727 142.2964)" class="st19 st7 st20">10</text>
		<circle id="lake_circle" class="st17" cx="622" cy="146.3" r="6"/>
		<text id="lake_numbers" transform="matrix(0.986 2.629912e-03 -2.593122e-03 1 618.5762 148.337)" class="st19 st7 st20">10</text>
	</g>
</g>
	<image style="overflow:visible;" width="160" height="104" id="LOGO" xlink:href="../maps/SR Logos/Indiana.png"  transform="matrix(0.4392 0 0 0.4392 838.7281 5.0807)">
	</image>
</svg>
