<?xml version="1.0" encoding="utf-8"?>
<!-- Generator: Adobe Illustrator 23.0.5, SVG Export Plug-In . SVG Version: 6.00 Build 0)  -->
<svg version="1.1" id="Layer" xmlns="http://www.w3.org/2000/svg" xmlns:xlink="http://www.w3.org/1999/xlink" x="0px" y="0px"
	 viewBox="0 0 916.5 867.8" style="enable-background:new 0 0 916.5 867.8;" xml:space="preserve">
<style type="text/css">
	.st0{fill:#F5FBFE;}
	.st1{fill:#DDEEFA;}
	.st2{fill:#255078;}
	.st3{font-family:'Georgia';}
	.st4{font-size:18px;}
	.st5{font-size:16px;}
	.st6{fill:#4C4B4D;}
	.st7{font-family:'ArialMT';}
	.st8{font-size:14px;}
	.st9{fill:#4C4B4C;}
	.st10{fill:#DB3029;}
	.st11{font-size:36px;}
	.st12{fill:#AED9F4;}
	.st13{fill:#CD483B;}
	.st14{fill:#FFFFFF;}
	.st15{font-size:4.9347px;}
	.st16{fill:none;}
</style>
<g id="texts">
	<polygon id="blue_bg" class="st0" points="0,732.2 0,769.2 0,778.8 0,867.6 173.5,867.6 173.5,778.8 915,778.8 915,732.2 	"/>
	<path id="line_bg" class="st1" d="M916.5,0H0v310.6v421.9v2v43.1v2v43.1v2v43.1l0,0h579.8l0,0H913l0,0h3.5V0z M913,57v675.4H578.4
		l-0.6-0.3v0.3H443.6l-0.6-0.3v0.3H3V57H913z M913,734.5v43.1H579.8v-43.1H913z M445.1,777.5v-43.1h132.8v43.1H445.1z M577.8,779.5
		v43.1H445.1v-43.1H577.8z M310.3,777.5v-43.1h132.8v43.1H310.3z M443.1,779.5v43.1H310.3v-43.1H443.1z M175.5,777.5v-43.1h132.8
		v43.1H175.5z M308.3,779.5v43.1H175.5v-43.1H308.3z M173.5,734.5v43.1H3v-43.1H173.5z M173.5,779.5v43.1H3v-43.1H173.5z M3,824.6
		h170.5v40H3V824.6z M175.5,824.6h132.8v40H175.5V824.6z M310.3,824.6h132.8v40H310.3V824.6z M445.1,824.6h132.8v40H445.1V824.6z
		 M579.8,779.5H913v85.1H579.8V779.5z"/>
	<text id="title" transform="matrix(1 0 0 1 22.167 35.8372)" class="st2 st3 st4">COVID-19 in Kentucky on</text>
	<text id="date" transform="matrix(1 0 0 1 237.4693 35.8372)" class="st2 st3 st4">April 7th, 2020</text>
	<text transform="matrix(1 0 0 1 22.1668 105.2857)" class="st2 st3 st5">State Confirmed Cases By County</text>
	<g>
		<text transform="matrix(1 0 0 1 22.1887 150.0347)" class="st6 st7 st8">Adair  10</text>
		<text transform="matrix(1 0 0 1 22.1887 171.2098)" class="st6 st7 st8">Allen  10</text>
		<text transform="matrix(1 0 0 1 22.1887 192.3851)" class="st6 st7 st8">Anderson  10</text>
		<text transform="matrix(1 0 0 1 22.1672 213.5604)" class="st6 st7 st8">Ballard  10</text>
		<text transform="matrix(1 0 0 1 22.1672 234.7359)" class="st6 st7 st8">Barren  10</text>
		<text transform="matrix(1 0 0 1 22.1672 255.9108)" class="st6 st7 st8">Bath  10</text>
		<text transform="matrix(1 0 0 1 22.1672 277.086)" class="st6 st7 st8">Bell  10</text>
		<text transform="matrix(1 0 0 1 22.1672 298.2613)" class="st6 st7 st8">Boone  10</text>
		<text transform="matrix(1 0 0 1 22.1672 319.4365)" class="st6 st7 st8">Bourbon  10</text>
		<text transform="matrix(1 0 0 1 22.1673 340.6118)" class="st6 st7 st8">Boyd  10</text>
		<text transform="matrix(1 0 0 1 22.1673 361.7873)" class="st6 st7 st8">Boyle  10</text>
		<text transform="matrix(1 0 0 1 22.1674 382.9625)" class="st6 st7 st8">Bracken  10</text>
		<text transform="matrix(1 0 0 1 22.1674 404.1377)" class="st6 st7 st8">Breathitt  10</text>
		<text transform="matrix(1 0 0 1 22.1674 425.3129)" class="st6 st7 st8">Breckinridge  10</text>
		<text transform="matrix(1 0 0 1 22.1674 446.488)" class="st6 st7 st8">Bullitt  10</text>
		<text transform="matrix(1 0 0 1 22.167 467.6633)" class="st6 st7 st8">Butler  10</text>
		<text transform="matrix(1 0 0 1 22.167 488.8387)" class="st6 st7 st8">Caldwell  10</text>
		<text transform="matrix(1 0 0 1 22.167 510.0142)" class="st6 st7 st8">Calloway  10</text>
		<text transform="matrix(1 0 0 1 22.1671 531.1888)" class="st6 st7 st8">Campbell  10</text>
		<text transform="matrix(1 0 0 1 22.1671 552.3644)" class="st6 st7 st8">Carlisle  10</text>
		<text transform="matrix(1 0 0 1 22.167 573.5399)" class="st6 st7 st8">Carroll  10</text>
		<text transform="matrix(1 0 0 1 522.7502 150.0347)" class="st6 st7 st8">Carter  10</text>
		<text transform="matrix(1 0 0 1 522.7503 171.2099)" class="st6 st7 st8">Casey  10</text>
		<text transform="matrix(1 0 0 1 522.7503 192.3853)" class="st6 st7 st8">Christian  10</text>
		<text transform="matrix(1 0 0 1 522.7503 213.5607)" class="st6 st7 st8">Clark  10</text>
		<text transform="matrix(1 0 0 1 522.7504 234.7361)" class="st6 st7 st8">Clay  10</text>
		<text transform="matrix(1 0 0 1 522.7504 255.9112)" class="st6 st7 st8">Clinton  10</text>
		<text transform="matrix(1 0 0 1 522.7502 277.0862)" class="st6 st7 st8">Crittenden  10</text>
		<text transform="matrix(1 0 0 1 522.7502 298.2618)" class="st6 st7 st8">Cumberland  10</text>
		<text transform="matrix(1 0 0 1 273.2872 594.7152)" class="st6 st7 st8">Daviess  10</text>
		<text transform="matrix(1 0 0 1 146.5266 150.0346)" class="st6 st7 st8">Edmonson  10</text>
		<text transform="matrix(1 0 0 1 146.5266 171.21)" class="st6 st7 st8">Elliott  10</text>
		<text transform="matrix(1 0 0 1 146.5266 192.3851)" class="st6 st7 st8">Estill  10</text>
		<text transform="matrix(1 0 0 1 146.5266 213.5604)" class="st6 st7 st8">Fayette  10</text>
		<text transform="matrix(1 0 0 1 146.5266 234.7358)" class="st6 st7 st8">Fleming  10</text>
		<text transform="matrix(1 0 0 1 146.5266 255.911)" class="st6 st7 st8">Floyd  10</text>
		<text transform="matrix(1 0 0 1 146.5266 277.0864)" class="st6 st7 st8">Franklin  10</text>
		<text transform="matrix(1 0 0 1 146.5266 298.2618)" class="st6 st7 st8">Fulton  10</text>
		<text transform="matrix(1 0 0 1 146.5266 319.4372)" class="st6 st7 st8">Gallatin 10</text>
		<text transform="matrix(1 0 0 1 146.5266 340.6121)" class="st6 st7 st8">Garrard  10</text>
		<text transform="matrix(1 0 0 1 146.5266 361.7875)" class="st6 st7 st8">Grant  10</text>
		<text transform="matrix(1 0 0 1 146.5266 382.9628)" class="st6 st7 st8">Graves  10</text>
		<text transform="matrix(1 0 0 1 146.5268 404.1382)" class="st6 st7 st8">Grayson  10</text>
		<text transform="matrix(1 0 0 1 146.5268 425.3136)" class="st6 st7 st8">Green 10</text>
		<text transform="matrix(1 0 0 1 146.5266 446.489)" class="st6 st7 st8">Greenup  10</text>
		<text transform="matrix(1 0 0 1 146.5263 467.6639)" class="st6 st7 st8">Hancock  10</text>
		<text transform="matrix(1 0 0 1 146.5266 488.8396)" class="st6 st7 st8">Hardin  10</text>
		<text transform="matrix(1 0 0 1 146.5266 510.0142)" class="st6 st7 st8">Harlan  10</text>
		<text transform="matrix(1 0 0 1 146.5266 531.1896)" class="st6 st7 st8">Harrison  10</text>
		<text transform="matrix(1 0 0 1 146.5264 552.3652)" class="st6 st7 st8">Hart  10</text>
		<text transform="matrix(1 0 0 1 146.5264 573.5401)" class="st6 st7 st8">Henderson  10</text>
		<text transform="matrix(1 0 0 1 655.7498 150.0346)" class="st6 st7 st8">Henry  10</text>
		<text transform="matrix(1 0 0 1 655.75 171.21)" class="st6 st7 st8">Hickman  10</text>
		<text transform="matrix(1 0 0 1 655.7501 192.3852)" class="st6 st7 st8">Hopkins  10</text>
		<text transform="matrix(1 0 0 1 655.7501 213.5604)" class="st6 st7 st8">Jackson  10</text>
		<text transform="matrix(1 0 0 1 655.7501 234.7356)" class="st6 st7 st8">Jefferson  10</text>
		<text transform="matrix(1 0 0 1 655.7501 255.9108)" class="st6 st7 st8">Jessamine  10</text>
		<text transform="matrix(1 0 0 1 655.7501 277.0861)" class="st6 st7 st8">Johnson  10</text>
		<text transform="matrix(1 0 0 1 655.75 298.2611)" class="st6 st7 st8">Kenton  10</text>
		<text transform="matrix(1 0 0 1 273.2863 615.8905)" class="st6 st7 st8">Knott  10</text>
		<text transform="matrix(1 0 0 1 273.287 150.0347)" class="st6 st7 st8">Knox  10</text>
		<text transform="matrix(1 0 0 1 273.287 171.21)" class="st6 st7 st8">LaRue  10</text>
		<text transform="matrix(1 0 0 1 273.2867 192.385)" class="st6 st7 st8">Laurel  10</text>
		<text transform="matrix(1 0 0 1 273.2867 213.5605)" class="st6 st7 st8">Lawrence  10</text>
		<text transform="matrix(1 0 0 1 273.2867 234.7358)" class="st6 st7 st8">Lee  10</text>
		<text transform="matrix(1 0 0 1 273.2869 255.911)" class="st6 st7 st8">Leslie  10</text>
		<text transform="matrix(1 0 0 1 273.287 277.0862)" class="st6 st7 st8">Letcher  10</text>
		<text transform="matrix(1 0 0 1 273.287 298.2615)" class="st6 st7 st8">Lewis  10</text>
		<text transform="matrix(1 0 0 1 273.287 319.4365)" class="st6 st7 st8">Lincoln  10</text>
		<text transform="matrix(1 0 0 1 273.287 340.6118)" class="st6 st7 st8">Livingston  10</text>
		<text transform="matrix(1 0 0 1 273.287 361.7871)" class="st6 st7 st8">Logan  10</text>
		<text transform="matrix(1 0 0 1 273.2869 382.9622)" class="st6 st7 st8">Lyon  10</text>
		<text transform="matrix(1 0 0 1 273.2867 404.1377)" class="st6 st7 st8">McCracken  10</text>
		<text transform="matrix(1 0 0 1 273.2867 425.3129)" class="st6 st7 st8">McCreary  10</text>
		<text transform="matrix(1 0 0 1 273.2867 446.4879)" class="st6 st7 st8">McLean  10</text>
		<text transform="matrix(1 0 0 1 273.2866 467.6636)" class="st6 st7 st8">Madison  10</text>
		<text transform="matrix(1 0 0 1 273.2866 488.8386)" class="st6 st7 st8">Magoffin  10</text>
		<text transform="matrix(1 0 0 1 273.2866 510.0137)" class="st6 st7 st8">Marion  10</text>
		<text transform="matrix(1 0 0 1 273.2867 531.1893)" class="st6 st7 st8">Marshall  10</text>
		<text transform="matrix(1 0 0 1 273.2868 552.3644)" class="st6 st7 st8">Martin  10</text>
		<text transform="matrix(1 0 0 1 273.2868 573.5393)" class="st6 st7 st8">Mason  10</text>
		<text transform="matrix(1 0 0 1 799.9999 145.3218)" class="st6 st7 st8">Meade  10</text>
		<text transform="matrix(1 0 0 1 799.9999 166.9257)" class="st6 st7 st8">Menifee  10</text>
		<text transform="matrix(1 0 0 1 799.9999 188.5293)" class="st6 st7 st8">Mercer  10</text>
		<text transform="matrix(1 0 0 1 800 210.133)" class="st6 st7 st8">Metcalfe  10</text>
		<text transform="matrix(1 0 0 1 799.9999 231.7366)" class="st6 st7 st8">Monroe  10</text>
		<text transform="matrix(1 0 0 1 799.9999 253.3405)" class="st6 st7 st8">Montgomery  10</text>
		<text transform="matrix(1 0 0 1 799.9999 274.9442)" class="st6 st7 st8">Morgan  10</text>
		<text transform="matrix(1 0 0 1 800.0001 296.5479)" class="st6 st7 st8">Muhlenberg  10</text>
		<text transform="matrix(1 0 0 1 401.4469 382.9619)" class="st6 st7 st8">Nelson  10</text>
		<text transform="matrix(1 0 0 1 401.4465 150.0343)" class="st6 st7 st8">Nicholas  10</text>
		<text transform="matrix(1 0 0 1 401.4467 171.2095)" class="st6 st7 st8">Ohio  10</text>
		<text transform="matrix(1 0 0 1 401.4463 192.3849)" class="st6 st7 st8">Oldham  10</text>
		<text transform="matrix(1 0 0 1 401.4464 213.5601)" class="st6 st7 st8">Owen  10</text>
		<text transform="matrix(1 0 0 1 401.4465 234.7354)" class="st6 st7 st8">Owsley  10</text>
		<text transform="matrix(1 0 0 1 401.4465 255.9106)" class="st6 st7 st8">Pendleton  10</text>
		<text transform="matrix(1 0 0 1 401.4465 277.086)" class="st6 st7 st8">Perry  10</text>
		<text transform="matrix(1 0 0 1 401.4465 298.2611)" class="st6 st7 st8">Pike  10</text>
		<text transform="matrix(1 0 0 1 401.4463 319.4368)" class="st6 st7 st8">Powell  10</text>
		<text transform="matrix(1 0 0 1 401.4463 340.6119)" class="st6 st7 st8">Pulaski  10</text>
		<text transform="matrix(1 0 0 1 401.4463 361.7871)" class="st6 st7 st8">Robertson  10</text>
		<text transform="matrix(1 0 0 1 522.7502 319.4371)" class="st6 st7 st8">Rockcastle  10</text>
		<text transform="matrix(1 0 0 1 522.7499 361.7878)" class="st6 st7 st8">Rowan  10</text>
		<text transform="matrix(1 0 0 1 522.7502 340.6124)" class="st6 st7 st8">Russell  10</text>
		<text transform="matrix(1 0 0 1 522.7504 382.963)" class="st6 st7 st8">Scott  10</text>
		<text transform="matrix(1 0 0 1 655.7497 319.4365)" class="st6 st7 st8">Shelby  10</text>
		<text transform="matrix(1 0 0 1 655.7502 340.6115)" class="st6 st7 st8">Simpson  10</text>
		<text transform="matrix(1 0 0 1 655.7498 361.7866)" class="st6 st7 st8">Spencer  10</text>
		<text transform="matrix(1 0 0 1 655.7497 382.9621)" class="st6 st7 st8">Taylor  10</text>
		<text transform="matrix(1 0 0 1 799.9999 318.1516)" class="st6 st7 st8">Todd  10</text>
		<text transform="matrix(1 0 0 1 799.9999 339.7553)" class="st6 st7 st8">Trigg  10</text>
		<text transform="matrix(1 0 0 1 800 361.3589)" class="st6 st7 st8">Trimble  10</text>
		<text transform="matrix(1 0 0 1 799.9999 382.9629)" class="st6 st7 st8">Union  10</text>
		<text transform="matrix(1 0 0 1 273.2865 637.0654)" class="st6 st7 st8">Warren  10</text>
		<text transform="matrix(1 0 0 1 146.5267 594.7159)" class="st6 st7 st8">Washington  10</text>
		<text transform="matrix(1 0 0 1 146.5269 615.8914)" class="st6 st7 st8">Wayne  10</text>
		<text transform="matrix(1 0 0 1 146.5269 637.066)" class="st6 st7 st8">Webster  10</text>
		<text transform="matrix(1 0 0 1 22.1888 594.7151)" class="st6 st7 st8">Whitley  10</text>
		<text transform="matrix(1 0 0 1 22.1886 615.8898)" class="st6 st7 st8">Wolfe  10</text>
		<text transform="matrix(1 0 0 1 22.1886 637.0657)" class="st6 st7 st8">Woodford  10</text>
	</g>
</g>
<g id="table_data">
	<text transform="matrix(1 0 0 1 22.167 803.509)" class="st2 st7 st8">Confirmed Cases</text>
	<text transform="matrix(1 0 0 1 22.167 847.4407)" class="st2 st7 st8">Deaths</text>
	<text id="current_date" transform="matrix(1 0 0 1 205.6966 759.2267)" class="st2 st7 st8">6 Apr. 2020</text>
	<text id="previous_date" transform="matrix(1 0 0 1 340.4748 759.2267)" class="st2 st7 st8">5 Apr. 2020</text>
	<text id="growth_rate__x25_" transform="matrix(1 0 0 1 459.543 759.2267)" class="st2 st7 st8">Growth Rate %</text>
	<text transform="matrix(1 0 0 1 674.818 759.2267)" class="st2 st7 st8">Total Confirmed Cases</text>
	<text id="current_сases" transform="matrix(1 0 0 1 228.5522 807.261)" class="st9 st7 st5">783</text>
	<text id="previous_deaths" transform="matrix(1 0 0 1 371.2653 851.7405)" class="st9 st7 st5">14</text>
	<text id="current_deaths" transform="matrix(1 0 0 1 232.0725 850.7607)" class="st9 st7 st5">15</text>
	<text id="total_cases" transform="matrix(1 0 0 1 733.2673 836.4042)" class="st10 st7 st11">783</text>
	<text id="previous_сases" transform="matrix(1 0 0 1 363.3525 807.261)" class="st9 st7 st5">673</text>
	<text id="cases_growth_rate" transform="matrix(1 0 0 1 493.2656 808.7972)" class="st9 st7 st5">16 %</text>
	<text id="death_growth_rate" transform="matrix(1 0 0 1 497.6649 853.2766)" class="st9 st7 st5">7 %</text>
</g>
<g id="Counties">
	<path id="daviess" class="st12" d="M561.4,566c0.3-0.7,0.6-1.2,0.7-1.4c0.3-0.5,3.7-6.2,6-10l1.6-2.4l-0.9-3.7l-4.9-5.2l-1.6-0.7
		c-0.4,0.2-0.7,0.4-1,0.5c-0.4,0.2-0.7,0.4-1.1,0.6c-0.4,0.4-1,1.2-1.6,2l-0.4,0.6c-0.4,0.4-0.8,0.7-1.3,1.1
		c-0.1,0.1-0.4,0.4-0.6,0.5l0,0c-0.1,1-0.3,3.7-2.6,4.9c-0.6,0.4-1.3,0.5-2.1,0.5c-1,0-2.1-0.3-3.4-0.8c-0.1-0.1-0.3-0.1-0.4-0.1
		c-0.1,0-0.1,0-0.1-0.1h-1l-0.9-0.6c-0.1-0.1-0.3-0.1-0.4-0.1c-0.7-0.2-1.6-0.4-2.4-1.1c-0.6-0.4-1-0.7-1.4-1.2l-0.8,0.4v8.4h-2
		l-0.4,2.5l8,2.5l9.8,3.7l3.4,2.8C560,568.9,561,566.8,561.4,566z"/>
	<path id="mclean" class="st12" d="M545.2,566l-8.2-2.5l-1.6,1.9l2.5,1.6l2.8,4.3c0.1,0.3,1.2,2.9,1.5,4.1c0.1,0.5,1.8,2.8,3.2,4.4
		l0.1,0.2l0.6,1.1l5.5-1.8h4.7c0.1-3.9,0.5-6,1-7.2l-3.1-2.6L545.2,566z"/>
	<path id="rowan" class="st12" d="M764.9,485.7l-7.8,15.7l7.5,6.2h4c0.5-0.7,1.4-1.7,2-2.1s5-3.2,7-4.4l-1-4.7
		c-0.7-0.6-1.8-1.6-2.2-2.3c-0.5-0.8-1-3.1-1.3-4v-0.3V488L764.9,485.7z"/>
	<path id="lawrence" class="st12" d="M793,507.7l1.8,1l2-1.9h2.8l5.1,3.1c4.9,1.8,10.6,3.7,12.4,4c0.5-0.7,1.6-2.1,3.9-4.5l0.4-0.4
		h0.4c-0.4-1.7-0.4-3.5,0.2-5.2c0.1-0.4,0.2-0.8,0.3-1.2c-0.1-0.1-0.4-0.3-0.7-0.4c-0.4-0.3-1-0.7-1.5-1.1c-0.7-0.5-1.5-1-2.5-1.5
		l-0.4-0.2c-0.3-0.2-0.7-0.4-1-0.5c-0.4-0.2-0.9-0.4-1.3-0.7c-1-0.4-1.9-0.8-2.9-1.5l-1.6-1l-0.4-7l-3.2,0.8l-2.9,0.6l-6.5,7.3
		L793,507.7z"/>
	<path id="boyd" class="st12" d="M806.4,486.8l3.7-1l-0.7-13.8c-0.1,0-0.4-0.1-0.5-0.1c-0.5-0.1-1-0.2-1.5-0.4
		c-0.3-0.1-0.6-0.1-0.9-0.2l-3.5,7.4l1.6,8.5L806.4,486.8z"/>
	<path id="hickman" class="st12" d="M458.2,650.3h-1.9l0.2-10.8h-17.1c0,0.4,0.1,0.7,0.1,1.1c0.1,0.9,0.1,1.8,0.1,2.7
		c-0.1,1.6-0.1,3.2-0.5,4.6l17.3,5.8l0.2,0.7l1.5-0.1L458.2,650.3L458.2,650.3z"/>
	<path id="henderson" class="st12" d="M517.1,563.7c0.1,0.3,0.6,1.6,1.3,2.8l7-1.6l7.2-0.7l1-1l1.6-1.9l0.8-5.8h1.7v-7.3l1.9-1
		c-0.1-0.1-0.1-0.1-0.1-0.1l-0.4-0.6c0,0-0.1-0.1-0.3-0.1l-0.7-0.4c-0.7-0.4-1.4-0.4-2.8-0.4c-1.6,0-3.2,0.3-4.3,0.7
		c-1.6,0.6-2.9,1.1-4.7,1.2c-0.7,0.1-1.3,0.1-1.8,0.1c-0.2,0-0.4,0-0.6,0l-0.2,0.1l-0.6,0.1c-0.7,0.1-1.4,0.3-2.1,0.5
		c-0.7,0.1-1.3,0.3-1.9,0.4c-0.4,0.1-1,0.4-1.6,0.6c-2.5,0.9-5.5,1.9-8.8,1.3l0.1,0.4c3.2,4,3.2,4.1,3.2,4.6v2.8
		C517.1,562.3,517.1,563.1,517.1,563.7z"/>
	<path id="pendleton" class="st12" d="M711.8,456.3l-0.7-1c-0.1-0.1-0.1-0.2-0.1-0.3l-11.8,6l3.2,6.7l3.3,8.3l1.1-1l9.8-2.7v-3.7
		l-4.4-9.8v-1.9C712.1,456.7,711.9,456.4,711.8,456.3z"/>
	<path id="lewis" class="st12" d="M764.2,463.1c-1.9-0.5-2.8-1.6-3.5-2.3c-0.3,0-0.9,0.1-1.4,0.4c-0.1,0.1-0.2,0.1-0.4,0.1
		c-0.7,1-1.6,1.4-2.3,1.6c-1.3,0.4-2.7,0.2-3.6,0.1c-0.1,0-0.3,0-0.4,0l0,0c-0.1,0.1-0.1,0.1-0.2,0.3l-0.5,0.5
		c-0.3,0.3-0.6,0.5-0.9,0.8l1.6,4.7l1.4,1.1l-0.7,2.6l3.1,4.3l8.4,5.5l9.3,2.6l2.4-1.9V475l3-1v-1.4l-0.7-1.6c-0.7-1-1-2.5,0.2-3.6
		c0.5-0.5,1.1-1.6,1.5-2.3v-4.5c-0.4,0.7-0.9,1.3-1.6,1.9c-0.9,0.9-2,1.9-3.4,2.8c-1.3,1-2.5,1.1-3.2,1c-2.2-0.1-3.4-1.8-4-2.6l0,0
		c-0.1,0-0.4,0-0.5,0C766.6,463.5,765.5,463.5,764.2,463.1z"/>
	<path id="greenup" class="st12" d="M800.1,468.3c0.2,0.1,0.3,0.3,0.7,0.5c0.6,0.4,1.3,0.5,1.7,0.6c0.1,0.1,0.1,0.5,0.1,0.9
		c0,0.1,0,0.1,0,0.2c0.6,0.3,1.1,0.5,1.7,0.8c-0.3,0.3-1.6,1.8-1,2.9c0,0.1,0.1,0.1,0.1,0.2s-0.1,0.1-0.1,0.2l-0.1,0.4
		c-0.1,0.2-0.1,0.5-0.2,0.7l-3.3,0.7l-1.1-0.4l-1.4,1.2l-3.5-0.2l-5.8-2.6c-2.1-1.6-4.3-3.1-6.4-4.7c0.9-1,1.8-2,2.6-3.1
		c0-1,0-2.2,0.1-3.2c1-2.4,2-4.8,3-7.2c0.7,1.3,1.3,2.5,2,3.7c1.5,1.6,2.3,3.1,2.8,4.5c0.8,2.2,0.7,3.8,1.8,4.3
		c1.1,0.4,2.5,0.2,3.5-0.7C798.9,467.7,799.8,468,800.1,468.3z"/>
	<polygon id="taylor" class="st12" points="651.4,571.6 654.6,574.6 662.3,585 672.1,575.4 672.1,575.4 673.3,574.2 675.2,567.5 
		655.9,567.5 656.1,567.6 648.9,569.4 	"/>
	<polygon id="marion" class="st12" points="651.9,558.3 651.9,561 654.2,564.7 675.7,564.7 675.7,551.9 673.1,552.7 671.9,554.7 
		661.1,553.3 656.5,549.9 	"/>
	<polygon id="russell" class="st12" points="686.2,589.9 684.7,588.5 681.4,588.5 680.2,593.2 674.5,600.5 674.5,609.4 678.4,609.4 
		678.4,611.3 680.5,611.8 680.7,611.4 680.5,611.1 693,596.9 690.9,592.4 687.4,590.6 687.4,590.6 	"/>
	<polygon id="spencer" class="st12" points="650.8,520.5 649.7,526.3 666.3,526.3 668,522 650.8,515.6 	"/>
	<path id="laurel" class="st12" d="M740.3,571.2h-3.7l-2.5-1.9c-1,2.7-1.5,3.9-1.9,4.4c-0.4,0.9-1.8,4-2.9,6.8
		c-0.9,7.9-1,8.9-1.6,9.3c-0.2,0.3-0.6,0.9-0.9,1.5v5.3h5.8l2-2.7l4.2-0.1l3.4-2.3l5.2-4l3.3-1.3l-0.4-1.3l-5.4-3.9v-7.3
		L740.3,571.2z"/>
	<polygon id="washington" class="st12" points="658,547.6 662.2,550.7 670.4,551.7 671.3,550.4 675.7,549.1 675.7,541.4 
		673.8,541.6 673.8,534 670.1,534 667.6,535.1 662,541.9 	"/>
	<path id="bullitt" class="st12" d="M646.7,527.2l1.3-6.6h-1.5l-1.8,1l-11.6,0.8l-8.5,3c0,1-0.2,2.1-0.8,3.1l12.8,12.3h1v-1.6l4-3.5
		L646.7,527.2z"/>
	<path id="leslie" class="st12" d="M774.7,562l-2.9,1.8l-0.6,1.8l1,3.3l5.1,23.6h0.4v-3h4.3l5.8-5.6l3.9-2.6h1.6l0.1-0.8
		c-1.3-1.9-1.9-3.3-1.7-4.3c-0.1-0.4-0.7-1.5-1.4-2.5l-7-3.3l-3.7-3.1l-3.4-0.5l-1.6-2.8L774.7,562L774.7,562z"/>
	<path id="perry" class="st12" d="M800.4,571.1l-1.5-4.3l-2.6-3l-2.5-2.6l-1.6-4.4l-4.8,0.7l-9.6,4.3h-0.3v1.5l0.5,1l2.8,0.4
		l4.1,3.4l7.1,3.4l0.2,0.3c1.6,2.1,2.3,3.7,2.2,4.8c0.1,0.4,0.8,1.7,1.6,2.7l0.4,0.4l-0.5,3v1.1l1.9,0.8l1.9,0.6l0.1-6.7l-2.5-1.3
		v-2.8L800.4,571.1z"/>
	<path id="larue" class="st12" d="M631.9,560.7l-1.4,3.5v7h13.1c0.4-0.1,0.8-0.4,1.1-0.5c0-0.1,0-0.3,0-0.4c0.1-1.2,1.5-2.4,2.6-3.2
		l0.2-0.1l4.3-1l-1.6-2.6l-4.3,2.5l-2.8-4v-6.1l1.5-1.8l-1.1-1.8l-3.7-1.7l-1.2,3.2l-2.1,1.5L631.9,560.7z"/>
	<polygon id="casey" class="st12" points="678.4,558.4 678.4,567.5 678.1,567.5 675.7,575.7 675.1,576.3 683.8,583.9 688,587.7 
		689.5,588.5 699.3,578.4 699.3,573.2 696.2,569.6 688.3,567 688.3,558.4 	"/>
	<path id="rockcastle" class="st12" d="M713,569.7l2.1,1.9l1.5,1l2.3,1.3l2.8,2.6l4,2.6h1c2-5,2.8-6.9,3.4-7.6
		c0.3-0.6,0.9-2.2,1.5-3.8l-4-7.4l-0.6-5.8h-6l-4.6,1.8l-1.5,1.2l0.7,7.8h-2.5L713,569.7z"/>
	<polygon id="mercer" class="st12" points="693.8,541.3 693.8,530.3 692.2,530.6 688.5,526.4 687.9,525.2 685.5,528.8 682.3,530.2 
		678.8,534 676.6,534 676.6,538.5 678.4,538.3 678.4,547.9 	"/>
	<polygon id="clinton" class="st12" points="674.5,612.1 674.5,622.5 672.4,622.5 672.4,626.3 686.1,623.4 684.7,617.2 682.6,614.2 
		682.3,615.2 675.7,613.4 675.7,612.1 	"/>
	<polygon id="knox" class="st12" points="751,610.6 755.7,613.4 756.6,610.7 758.8,605.8 764.4,601.5 768.6,597.1 770.3,593.9 
		769.7,592.5 761.6,594.2 759.6,588.5 751.9,588.5 748.5,589.9 743.7,593.6 741.2,595.4 742.9,597.3 749.3,609.7 	"/>
	<path id="hancock" class="st12" d="M576.7,556.6l5.3,1.7l0.9,1.9l-0.4-1.8l-4.9-8.1v-3.1c-0.8-0.1-1.6-0.5-2.5-1.3
		c-1.3-1-2.2-2.2-2.7-3.1c-0.7-1-1-1.9-1.4-2.5c-0.1-0.3-0.2-0.6-0.4-0.8l-0.2-0.4c-0.4-0.7-0.6-1.4-0.7-1.9
		c-0.1-0.2-0.1-0.4-0.2-0.6c-0.1-0.1-0.4-0.2-0.6-0.3l-0.6,0.5c-0.6,0.4-1.1,0.7-1.6,0.9c-0.3,0.1-0.6,0.3-0.7,0.4v0.1
		c-0.1,0.6-0.4,1.5-1.1,2.4l0.7,0.3l5.8,6.1l1.4,5.6l-0.7,0.9L576.7,556.6z"/>
	<polygon id="warren" class="st12" points="597.7,619.8 603,621.8 606.3,619.8 610.1,614.7 613.6,611 615.6,608.2 616.7,606.3 
		617,603.4 611.6,601.2 608.9,599.2 601.9,598.5 598.6,597.2 589.7,597.7 586.9,610.6 587,610.6 591.1,616.9 591.1,619.5 	"/>
	<path id="trimble" class="st12" d="M653.2,485.6l7.6-5.2l-5-3.4l-3.4-3.2c-0.4,1-0.6,3-0.7,3.7s-0.1,1.6,0,2.5
		c0.1,1.6,0.1,3.7-0.4,5.6H653.2z"/>
	<path id="fulton" class="st12" d="M437.8,650.4c-0.8,0.8-2,1.4-3.8,1.6c-0.7,0.1-1.4,0.1-2.5,0.7c-1,0.5-1.5,0.9-1.6,1
		c-0.1,0.4-0.1,1.2-0.1,1.9c0,0.1,0,0.2,0,0.3l21.1-1L437.8,650.4z"/>
	<path id="carlisle" class="st12" d="M442.5,635c-0.3,0.7-0.7,1.3-1.1,1.9h15.1l0.2-10.3l-6.4,0.5l-6.3,1.3
		C443.9,630.4,443.4,632.6,442.5,635z"/>
	<path id="ballard" class="st12" d="M456.8,623.6l-3.5-6l-3-6.9l-0.1-1.3c-0.1,0-0.4,0-0.5-0.1c-1.9-0.1-4.9,1.6-7.1,4.1
		c-1.7,1.9-2.4,3.4-2.5,4c0.1,0.1,0.4,0.1,0.8,0.1l3.1,0.4l0.1,3.1c0.1,1.3,0.1,2.8,0.1,4.2l5.8-1.1L456.8,623.6L456.8,623.6z"/>
	<path id="crittenden" class="st12" d="M493.8,600.3v3.8l0.7,0.8l3.5-1.9c1.1-1.2,2.4-2.7,2.6-3.1c0.4-1.3,10.9-11.6,11.1-11.7
		c0.2-0.1,0.8-0.4,1.6-0.8l-1.4-1.3l-3.4-1.5l-3.1-2.6h-3.8l-2.6-1.6c-1.9,2.5-5.5,3.7-7.8,4.3c-1.2,0.4-2.2,0.7-3.2,1.1
		s-2.2,0.8-3.4,1.2v3.4l4.4,3.7v2.2L493.8,600.3z"/>
	<path id="mccracken" class="st12" d="M476.4,622.2l-0.4-6.8c-4.3-0.5-8.5-1.7-12.6-3c-3.6-1.1-7.1-2.1-10.5-2.7l0.1,0.5l2.7,6.1
		l3.9,6.5v0.6L476.4,622.2z"/>
	<path id="christian" class="st12" d="M546.2,636v-11.9l1.9-1.4v-13.3c-1.6-3.1-2.5-5-3-6.3c-0.3,0.2-0.6,0.4-0.7,0.6
		c-0.7,0.6-4.9,3.3-6.3,4.1l-0.3,0.2h-7.9l-1.6-2.5l-2.3-0.2l0,0l0.1,0.4l-1.8,8.2l3.8,2.7v21.6L546.2,636z"/>
	<path id="muhlenberg" class="st12" d="M567.2,605.8l2.5-8.2l-12.5-15.5H552l-5.3,1.9c-0.9,1.9-1.9,3.9-1.9,4.4c0,0.2,0,1.3-2.5,2.3
		l-1,4.5c1.8,0.8,4.3,2,5,2.3s1.1,0.8,1.3,1.2c0.4,0.9,0,1.7-0.2,2.2c0,0.1-0.1,0.1-0.1,0.2c0.3,0.9,1.8,4,3.1,6.7l13.8-0.1
		L567.2,605.8z"/>
	<polygon id="todd" class="st12" points="561.3,610.3 550.8,610.4 550.8,624.1 549,625.5 549,635.7 563,634.1 	"/>
	<path id="webster" class="st12" d="M511.2,578.3l-3.1,2.3l2,1.7l3.3,1.4l2.5,2.5c1.2-0.6,2.4-1.1,3-1.3l5.3-2.3l2.2-4l11-7.1
		l-1.6-2.3l-3.1-1.9l-7.2,0.7l-7.3,1.7l-4.3,6.1L511.2,578.3z"/>
	<path id="hopkins" class="st12" d="M525,602.5l4.6,0.4l1.6,2.4h5.6c2.5-1.6,5.2-3.3,5.5-3.7c0.5-0.4,1.5-1.1,2-1.5
		c0.1-0.1,0.1-0.3,0.1-0.4c-1.7-0.7-5.5-2.5-5.6-2.6l-1-0.4l1.8-8.2l0.7-0.2c0.5-0.1,1.1-0.4,1.4-0.6c0.1-0.6,0.6-1.9,2.1-4.9
		l-0.5-1.4c-1.3-1.6-3.4-4.3-3.7-5.5c-0.1-0.4-0.4-1.3-0.7-2.1l-3.1,1.9l-7.2,4.7l-2.4,4.3l-6.1,2.7c-1,0.4-2.1,1-3.1,1.4v2.2
		l3.5,5.2c4.2,3.8,4.2,4.9,4.2,5.4C524.8,601.8,524.9,602.1,525,602.5z"/>
	<path id="caldwell" class="st12" d="M513.5,617.9l1.6-0.8l6.2-3.4l1.6-7.9c-0.3-1-0.8-3-0.9-4c-0.3-0.6-1.9-2.2-3.4-3.7l-0.2-0.2
		l-4.1-6.1v-1.7c-0.6,0.3-1,0.5-1.1,0.6c-0.9,0.7-9.2,9.3-10,10.5c-0.1,0.4-0.6,1-1.2,1.7h1.9l2.3,6.1c0.1,0.5,0.1,1,0.2,1.4
		c0.8,0.2,2.3,1.2,5.2,5L513.5,617.9z"/>
	<path id="lyon" class="st12" d="M511.1,619.2l-1.7-2.1c-1.3-1.8-2.8-3.5-3.5-4c-0.4,0-0.7-0.1-1-0.3c-0.9-0.7-1.3-2.2-1.4-3.4
		l-1.4-3.7h-2.7l-3.7,1.9v5.6h-2.1v6.1l1.9,3.4l2,2.3l1.8,1.4l6-4.1L511.1,619.2z"/>
	<polygon id="marshall" class="st12" points="495.3,626.9 493,624.1 491.2,620.8 478.9,618 479.2,623.3 480.4,632.1 480.4,636.8 
		488.4,637.1 488.4,634.9 499.5,634.9 499.5,632.8 497.7,632.8 497.7,628.8 	"/>
	<polygon id="calloway" class="st12" points="502.2,640.4 500.1,637.7 491.1,637.7 491.1,640 480.4,639.6 480.4,653.3 502.2,652.2 	
		"/>
	<path id="gallatin" class="st12" d="M675.1,464.9c-0.8,0.4-1.6,0.8-2.5,1.2l3.5,3l0.4-0.3l4.3-1.8l6.7-4.7l-1.4-1.5l-3-1
		c-1.1,1.5-2.9,2.8-5.2,3.9C676.9,464.1,676,464.5,675.1,464.9z"/>
	<polygon id="nicholas" class="st12" points="722.3,488.6 731,495.4 735.4,499.6 738.1,494.8 739.7,492.5 732.3,484.5 723.9,484.5 
		723.5,485.2 	"/>
	<path id="carter" class="st12" d="M779.1,484.8l-3.4,2.8v2c0.3,1.3,0.7,2.6,0.8,2.9c0.1,0.2,0.7,0.7,1.3,1.3l1.6-1.3l1.6-5.9
		l6.2,5.3h6.7l1,2.2h1.9l5.2-5.8l-1.6-8.6l-8-0.8l-9.1-5.5l-1.1,0.1v2.4l-3,1L779.1,484.8L779.1,484.8z"/>
	<polygon id="fleming" class="st12" points="741.6,481.7 736.4,480.8 734.2,482.6 741.3,490.1 748.1,491 753.3,498.2 754.9,499.6 
		762.4,484.5 754.3,479.1 752,476 750.7,477 	"/>
	<polygon id="harrison" class="st12" points="717.8,474.8 708.2,477.4 706.8,478.7 706.8,478.8 699.7,483.4 702.1,484.7 
		708.2,494.2 711.1,494.2 714.9,491 719.5,488.1 721.1,483.9 722.8,481 720.9,476.9 	"/>
	<path id="boone" class="st12" d="M685.9,442.4c-1.4-0.1-2.5-0.1-3.4-0.2c-0.5-0.1-1-0.1-1.5-0.1l-0.9,0.1l0.1,1.6
		c0.4,0.8,1,1.6,1.4,2.5c1.9,3.1,4,6.7,2.9,10.6c0,0.1-0.1,0.2-0.1,0.4l3.1,1.1l2,2.1l1.3-1.3l-4.5-16.8
		C686.2,442.4,686.1,442.4,685.9,442.4z"/>
	<path id="kenton" class="st12" d="M695,439.4l-2,0.7c-0.4,0.5-1.1,1.2-2.2,1.6c-0.4,0.2-1,0.4-1.5,0.5l4.3,16h4.9l2.8-1.4
		L695,439.4C695.1,439.4,695,439.4,695,439.4z"/>
	<path id="mason" class="st12" d="M748.5,466.2c-1.9,1-3.7,1.2-5.5,0.7c-3.8-0.7-5.7-4-7-6.4l-0.5-0.9c-0.1-0.1-0.1-0.2-0.1-0.3
		c-0.1-0.2-0.4-0.6-0.6-1c-0.1,0-0.4,0-0.6,0c-0.1,3-0.4,5.8-0.6,6.4c-0.2,0.5-1.1,4.2-1.8,7l3,3.3l2.2,3.1l4.3,0.7l8.1-4.2l0.7-0.6
		l0.7-2.5l-0.6-0.4L748.5,466.2z"/>
	<polygon id="robertson" class="st12" points="723.8,476.7 725.9,481.2 725.6,481.7 730.8,481.7 734.2,479.1 732.5,476.7 
		729.9,473.8 	"/>
	<path id="campbell" class="st12" d="M704.4,442.5c-1.6-0.4-2.9-1.2-4.1-1.9c-0.7-0.4-1.4-0.8-1.9-1l-0.1-0.1l5.7,16l5.9-3
		c-0.1-0.3-0.2-0.5-0.4-0.8l-0.1-0.2c-0.1-0.4-0.3-0.8-0.5-1.3s-0.4-1-0.7-1.6l-0.1-0.3c-0.1-0.5-0.2-1.1-0.3-1.6
		c-0.1-0.4-0.1-0.8-0.2-1l-0.3-0.4l-0.1-0.6C706.9,443.8,705.8,442.9,704.4,442.5z"/>
	<path id="bracken" class="st12" d="M723.2,457.9h-2c-0.9,0.2-1.6,0.5-2.4,0.7l-0.6,0.2h-0.6c-0.6,0-1.4,0-2.3-0.2l4.1,9.3v4.6
		l2.8,1.8l6.9-3.2c0.4-1.9,1.6-6.7,1.9-7.4c0.1-0.4,0.3-2.8,0.4-5.5c-1.6,0-3-0.1-4.4-0.4c-0.7-0.1-1.4-0.1-2.2,0
		C724.2,457.9,723.7,457.9,723.2,457.9z"/>
	<path id="union" class="st12" d="M496.5,565.6c-0.4,0.7-0.6,1.1-0.6,1.3c0.1,0.2,0.4,0.5,0.7,0.7c1,1.2,2.7,2.9,3.4,6
		c0.4,1.6,0.4,3,0.1,4.1l2.2,1.3h3.1l4-3l2.6-2.6l3.9-5.5c-1.1-2.3-1.5-3.4-1.6-3.9c-0.6-0.6-2.8-2.2-4.6-3.5l-0.6-0.4v-3.9
		c-0.4-0.6-1.6-2.2-2.7-3.4l-0.2-0.4l-0.3-0.7l-2.2,0.9c-0.6,4.7-2.5,7-4.3,9.1C498.5,562.8,497.5,564,496.5,565.6z"/>
	<path id="meade" class="st12" d="M597.3,535.4l5.1,3.7c2.2,2.2,5.1,4.7,5.7,5.1c0.7,0.3,1.4,1.1,1.9,1.9l6.9-3.4l1.7-3v-4.3
		l-2.2-2.2v-2.5h-2.8c-0.1,0-0.3,0.1-0.5,0.1c-0.7,0.2-1.7,0.4-2.9,0.4H605c-0.8,0.1-2.2,0.2-3.7-0.2c-1.8-0.6-2.7-1.9-3.1-2.5
		c-0.1-0.1-0.1-0.1-0.2-0.3l-0.6-0.6l-0.2-0.8c-0.1-0.2-0.1-0.4-0.2-0.5c-0.7,0.3-1.3,0.7-1.9,1l-0.2,0.1c-1.2,0.6-2.4,1.2-3.4,1.9
		v0.3l5.3,4.4L597.3,535.4z"/>
	<path id="hardin" class="st12" d="M609.9,562.5h3.5l7.9,6.8v1.8h6.3v-7.6l1.9-4.6l4.9-6.1l1.6-1.1l1.4-3.8l-1.6-2.2l-1-2.9
		l-13.2-12.7c-0.1,0-0.1,0.1-0.1,0.1l-0.2,0.1c-0.7,0.2-1.4,0.3-2.1,0.3v1.2l2.2,2.2v6.2l-2.5,4.3l-8.2,4l-2.3,8.4l-1.5,2.5
		L609.9,562.5z"/>
	<polygon id="monroe" class="st12" points="656.5,627.6 652.4,618.7 644.1,618.7 641.9,620 632.5,626.7 629.8,626.7 630.4,627.7 
		630.4,629.1 657.7,629.1 	"/>
	<path id="hart" class="st12" d="M615.7,580.7l1.2,2.2c2.1,3,3.2,5,3.2,6.1c0,0.3,0.4,1.3,0.9,2.3l7.9,0.4l6.8-1.6l5.9-2.1l0.7-13.9
		h-21.7l-3.1,4L615.7,580.7z"/>
	<polygon id="barren" class="st12" points="616.7,611.4 619.5,613.2 621.1,616.9 625,620 627.2,622.6 628,624 631.6,624 
		640.5,617.6 642.3,616.6 637.8,595.8 635.5,592.9 629.2,594.5 621.2,594 620.1,598.1 619.4,607.1 617.9,609.7 	"/>
	<polygon id="floyd" class="st12" points="816.9,528.8 816.8,528.1 816.6,527.4 816.6,526.8 810.3,526.8 803,530.9 804.7,545 
		811.3,546.6 817.4,552.6 817.4,560 817.4,560 822.9,547.9 822.9,545.6 817.1,529 	"/>
	<path id="martin" class="st12" d="M832.5,521.9l-0.3-0.1c-1.7-1-4-2.4-5.1-4.9l-0.2-0.7c-0.1-0.3-0.2-0.7-0.4-1l-0.3-0.4
		c-0.1-0.1-0.2-0.1-0.4-0.2c-0.3-0.2-0.7-0.5-1.2-0.9s-1-1-1.3-1.6h-0.6c-1.4,1.5-2.9,3.2-3.3,3.9v9.6l0.1,2l2,1.4h2.3l8.2-4.6
		l1.5-1C833.2,522.6,832.9,522.3,832.5,521.9z"/>
	<path id="pike" class="st12" d="M824.7,531.5h-3.8l4.8,13.9v3.1l-6,13.2l0.8,0.6h0.9l3.5-3.9l0.9,1.5c0.7-0.9,1.6-1.9,2.8-2.5
		l2.5-1.3c0.5-0.4,1-0.9,1.5-1.5c0.4-0.4,0.7-0.8,1.1-1.2c0.8-0.8,1.6-1.3,2.3-1.7c0.4-0.2,0.7-0.4,0.9-0.6l0.4-0.4
		c1.2-0.9,2.5-1.6,3.8-2.2c0.8-0.4,1.6-0.8,2.2-1.2c0.1-0.1,0.1-0.3,0.2-0.4c0.6-1,1.3-2.2,2.5-3.2c0.3-0.4,0.5-0.7,0.8-1.1
		c0.2-0.3,0.5-0.7,0.6-0.8l0.3-0.5l0.4-0.4c0.6-0.6,1.4-1.4,1.6-1.9c0.2-0.4,0.5-1,0.9-1.6c-1-0.4-2-0.9-3-1.4
		c-0.2-0.1-0.5-0.2-0.9-0.3c-0.9-0.3-2.1-0.7-3.4-1.6l-0.4-0.4c-1.2-1.2-2.1-2.3-3.1-3.6l-1-1.3l-0.2-0.6c-0.1-0.2-0.2-0.4-0.4-0.6
		l-0.4-0.4c-0.1-0.1-0.4-0.3-0.5-0.4c-0.4-0.3-0.7-0.6-1.2-1c-0.2-0.1-0.4-0.4-0.6-0.5l-2,1.3L824.7,531.5z"/>
	<polygon id="metcalfe" class="st12" points="640.4,594.6 645,615.9 651,615.9 657.4,606.3 657.4,605 654.9,599.8 652.5,595.3 
		647.4,592.6 642.9,590.4 638.4,592 	"/>
	<polygon id="cumberland" class="st12" points="660.8,628.7 669.6,626.9 669.6,619.7 671.7,619.7 671.7,612.1 669.9,612.1 
		668.8,608.1 659.6,608.1 654.3,616.1 659,626.2 	"/>
	<path id="green" class="st12" d="M660.2,587l-7.9-10.7l-2.8-2.7l-2.2-1.9c-0.2,0.4-0.7,1-2.2,1.8l-0.7,14.5l4.2,2.1l4.6,2.5
		l3.5-2.6l2.7-2.2L660.2,587z"/>
	<polygon id="adair" class="st12" points="663.1,588.1 663.1,588.1 661.4,589.8 658.5,592.2 655.2,594.7 657.3,598.5 660.2,604.3 
		660.2,605.3 670.8,605.3 671.7,608.2 671.7,599.5 677.7,591.9 679.3,585.8 681.7,585.8 673.1,578.3 	"/>
	<polygon id="wayne" class="st12" points="696.2,600.3 694.8,599.1 684,611.3 687.2,616.1 688.8,622.8 689.7,622.5 704.7,621.6 
		706.2,618.2 710,607.4 701.1,603.7 	"/>
	<polygon id="mccreary" class="st12" points="720.5,601.3 713,607.5 708.8,619.2 707.9,621.4 728.2,620.1 725.5,613.8 726.5,602.8 
		726.9,602.8 726.7,599.3 725.5,599.3 	"/>
	<path id="johnson" class="st12" d="M803.4,512.4l-4.6-2.8h-1l-1.6,1.5l-0.5,7.6l2.6,1.6l3.7,7.9l7.5-4.3h7v-7.3
		c-1.8-0.4-5.4-1.4-13-4.2H803.4z"/>
	<polygon id="clay" class="st12" points="766.4,569.8 759.9,565.5 754.7,565.1 747.5,573.2 747.5,579.4 752.4,583 753.4,585.8 
		761.6,585.8 763.4,590.9 771.2,589.3 772.7,592.5 774.5,592.5 769.6,569.8 	"/>
	<path id="harlan" class="st12" d="M805.4,586.4h-2.8l-0.1,2.7l-5.5-1.7l-3.7-1.6v-1.7h-0.5l-3.1,2.1l-6.4,6.1h-2.7v3h-2.8l1.3,11.2
		l2.5,1c0.8-0.4,1.6-0.7,2.5-1.1c1.5-0.7,2.8-1.8,4.3-2.9c1.8-1.3,3.6-2.7,5.8-3.7c3.7-1.8,7.6-4.6,11.1-7.2l0.3-0.2
		c1.3-1,1.8-3.7,2.2-6c0.1-0.5,0.2-1,0.3-1.5c0.1-0.4,0.1-0.7,0.2-1L807,584L805.4,586.4z"/>
	<polygon id="jackson" class="st12" points="746.6,552.4 740.4,552.4 735.3,550.1 729.8,553.9 730.3,559.6 733.3,565.2 737.6,568.5 
		741,568.5 745.8,570.9 752.4,563.4 747.7,553.9 	"/>
	<polygon id="breathitt" class="st12" points="794.2,542.3 784,537.1 780.2,537.1 775.9,534.7 775.1,534.7 772.4,539.4 768.7,541.9 
		765.6,547.9 770,561.6 773.9,559.3 777.4,559 786.9,554.8 792.6,553.9 794.9,552.2 797.9,547.1 800,546.2 798.3,544.1 	"/>
	<path id="jefferson" class="st12" d="M646.4,506.1l-4.3-3.2l-2.6-2.5l-3.3-0.4c-1.4,1.3-2.6,3.4-3.7,5.5c-0.4,0.7-0.7,1.4-1.1,2.1
		c-0.4,1-1,1.7-1.4,2.4c-0.1,0.2-0.3,0.4-0.4,0.6l-0.7,1l-0.7,0.2c-0.3,0.4-0.6,0.8-1,1.1l-0.3,0.3l-0.4,0.2
		c-1.1,0.7-1.3,0.9-1.5,1.1c-0.1,0.4-0.1,0.7-0.1,1c-0.1,0.5-0.1,1.2-0.4,1.9c-0.2,1.5-0.2,2.7-0.2,4.1c0,0.1,0.1,0.4,0.1,0.7
		c0,0.1,0,0.1,0.1,0.3l8.3-2.9l11.2-0.8l1.9-1h2.3v-7.1l-1.3-2L646.4,506.1z"/>
	<polygon id="knott" class="st12" points="803.6,547.6 799.8,549.3 797,554.2 794.8,555.7 796.2,559.7 798.3,561.9 801.3,565.4 
		802.5,568.7 805.1,568.7 808,564.5 812.2,561.4 814.6,559.9 814.6,553.8 809.9,549.1 	"/>
	<path id="letcher" class="st12" d="M815.9,562.3l-2.2,1.3l-3.8,2.8l-3.3,4.9h-2.8l-3.6,4l2.6,1.3l-0.1,6.7h1.3l1.6-2.2l3.8-0.4
		c0.8-1.9,1.8-3.2,2.8-4.7c0.4-0.7,1-1.3,1.6-2.2c1.2-1.8,2.5-3.1,4.3-4.3l0.4-0.2c0.2-0.1,0.6-0.4,0.7-0.7l0.3-0.5l0.4-0.4
		c0.9-0.9,1.7-1.9,2.5-2.8h-2.6L815.9,562.3z"/>
	<polygon id="lincoln" class="st12" points="709,556.3 704.5,553 701,551.7 696.6,555.3 692.7,557.5 691.1,558 691.1,565 
		697.8,567.2 702.1,572.1 702.1,575.8 703.9,575.2 705.3,573.8 708.8,571.6 710.3,569.8 710.4,562.5 712.7,562.5 712.3,557.8 	"/>
	<polygon id="shelby" class="st12" points="656.3,501.7 651.3,504.3 649.2,505.9 649.4,507.7 650.8,510 650.8,512.7 669.5,519.6 
		671.7,517.5 671.7,498.4 658.3,498.4 	"/>
	<polygon id="nelson" class="st12" points="643.8,537.6 640.5,540.5 640.5,543.6 638.1,543.6 638.5,544.7 641,548 645.3,550 
		647.8,554.2 645.6,556.8 645.6,561 646.5,562.1 649.2,560.6 649.2,557.5 654.9,547.2 659.8,540.2 665.9,532.9 667.5,532.1 
		665.2,529.4 665.3,529.1 648.9,529.1 	"/>
	<polygon id="anderson" class="st12" points="682.2,515 677.5,515 675.7,515.7 675.7,517.5 671,522 668.3,528.8 670.4,531.2 
		677.6,531.2 680.7,527.9 683.6,526.6 686.5,522.2 685,518.8 	"/>
	<polygon id="owsley" class="st12" points="760.9,549.8 757.2,554.6 751.2,554.6 755,562.4 760.8,562.7 767.3,567 768.8,567 
		763.2,549.4 	"/>
	<path id="pulaski" class="st12" d="M710.6,573.8L707,576l-1.5,1.5l-3.4,1.1v0.8l-10,10.3l1,0.5l2.6,6l2.1,1.8l4.6,3.1l9,3.8
		l1.7-1.4l5.9-4.9l4.6-1.8v-6.4l0.1-0.3c0.7-1.2,1.1-1.9,1.3-2.2c0.1-0.8,0.4-3.3,0.8-6h-1.2l-5-3.3l-2.7-2.6l-2-1l-1.8-1.3
		l-1.6-1.4L710.6,573.8z"/>
	<path id="ohio" class="st12" d="M571.8,590.4l4.7-2.3c1.8-1.8,4.6-4.6,5-5.1c0.3-0.4,1.4-2.5,2.4-4.3v-13.8l-2.3-1l-1.5-3.2
		l-4.6-1.6l-4.9-3.1l-0.1,0.1c-0.5,0.9-5.5,9.4-6,10c-0.1,0.1-0.3,0.6-0.5,1c-1.6,3.2-2.6,5-3.7,5.6c-0.4,0.9-0.7,4.3-0.8,7.3
		l11.4,14.2L571.8,590.4z"/>
	<path id="butler" class="st12" d="M587.5,595l9.8-0.4l-0.9-4.9l-1.2-3.7l-6-4l-3.1-1.1c-0.7,1.4-1.8,3.5-2.3,4
		c-0.6,0.7-4.6,4.6-5.4,5.4l-0.4,0.2l-3.8,1.9l-4,13.4l14.1,4L587.5,595z"/>
	<polygon id="simpson" class="st12" points="601.7,624.3 597,622.5 590.6,622.2 586.1,631.4 601.7,629.5 	"/>
	<polygon id="logan" class="st12" points="564.8,610.3 564.1,610.3 565.7,633.8 582.8,631.7 588.4,620.5 588.4,617.7 585.2,612.9 
		568.6,608.2 	"/>
	<path id="morgan" class="st12" d="M772.1,507.7c-0.2,0.1-1,1-1.6,1.8l-2.2,12.8l10.4,4.1l1.6-1.6v-2.4l4.7-2.2l1.6-4.1h4l2.5,1.9
		l0.5-6.7l-3-1.8l-11.4-6.1C776.6,505,772.7,507.4,772.1,507.7z"/>
	<polygon id="bath" class="st12" points="746.5,493.6 742.5,493.1 740.5,496.3 737.5,501.7 738.9,503.8 742.2,503.8 747.3,508.3 
		751.5,512.4 761,508.2 751.2,500 	"/>
	<path id="montgomery" class="st12" d="M735.7,504l-3.8,4.4l6.1,11.3c4.4,0.1,9.1,0.1,11,0.1v-6l-3.7-3.4l-4.3-3.7h-3.7L735.7,504z"
		/>
	<path id="carroll" class="st12" d="M667.1,469.4c-1.6,1.3-3.5,2.7-5.9,3.4c-1.8,0.5-3.7,0.4-5.4,0.2c-0.1,0-0.1,0-0.2,0l1.9,1.9
		l5.8,3.9l2.6-1.6l3-2.5l4.9-3.8l-4-3.4C669,467.9,668.1,468.6,667.1,469.4z"/>
	<polygon id="elliott" class="st12" points="792,494.7 786.1,494.7 782.5,491.6 781.8,494.1 779.2,496.1 780.4,500.8 790.6,506.3 
		794.8,496.9 792.9,496.9 	"/>
	<polygon id="grant" class="st12" points="699.9,468.7 696.1,460.9 693.1,460.9 689.7,464.4 689.5,464.3 683.5,468.5 692.1,479.3 
		696.5,482.2 703.5,477.7 	"/>
	<polygon id="owen" class="st12" points="677.8,471.3 670.7,476.8 668.6,478.5 672.8,484 677.2,488.8 680.2,493.7 687.5,495.1 
		693.8,487.4 693.8,483.7 690.1,481.1 681.1,469.9 	"/>
	<polygon id="scott" class="st12" points="700.2,486.8 697,485.1 696.6,485.3 696.6,488.4 689.5,496.9 690.9,505.8 697.2,510.1 
		701,509.2 705.4,505.3 708.2,502.7 706.2,496.1 	"/>
	<polygon id="bourbon" class="st12" points="720.5,490.7 716.6,493.3 712.1,496.9 709.4,496.9 711.1,502.5 718.4,511.9 722.6,510 
		729.4,507.1 733.9,501.8 729.3,497.5 	"/>
	<polygon id="fayette" class="st12" points="702.3,511.7 698.4,512.7 698.4,522 698.7,521.7 702.8,523.1 708.6,527.9 711.5,529.5 
		714.9,527 714.9,521.1 716.5,513.9 709.7,505.2 707.3,507.4 	"/>
	<polygon id="magoffin" class="st12" points="792.2,520.8 789.7,518.7 788.5,518.7 787.3,522.1 783.1,524.1 783.1,525.9 
		781.6,527.5 782.8,528 785.4,534.7 795.4,539.7 800.1,541.8 801.8,544 800.1,530.6 796.2,522.3 793.9,520.8 	"/>
	<path id="oldham" class="st12" d="M645,492.5c-0.7,0.5-1.4,1-1.9,1.4l-1.2,1c-1,0.8-1.9,1.7-3,2.5l1.7,0.2l3.1,3l3.8,2.8l2.2-1.6
		l4.4-2.3l1.6-2.7l-3.3-8.5h-3C648.4,490.1,646.7,491.4,645,492.5z"/>
	<path id="breckinridge" class="st12" d="M586.3,562.2V560h6.4l4.3,4.7h3.7l3-3.4v-1.7l2.2-3.7l2.2-7.9c-0.3-0.6-0.7-1.2-1-1.3
		c-0.9-0.4-4-3.2-6.4-5.5l-5.3-3.8l-1-1.6l-5.5-4.4c-0.1,0.2-0.3,0.5-0.3,0.7l-0.2,0.8c-0.2,0.9-0.4,1.3-0.4,1.9v4.3
		c0.1,1.1,0.3,3.5-1.4,5.2c-0.7,0.7-1.5,1-1.9,1.2c-0.1,0-0.1,0.1-0.2,0.1l-0.7,0.4h-0.5l-0.3,0.3l-1.1,0.2c-0.1,0-0.4,0.1-0.5,0.2
		c-0.2,0.1-0.6,0.2-1,0.4v2.5l4.9,8L586.3,562.2z"/>
	<path id="edmonson" class="st12" d="M600.1,594.8l2.6,1l7.2,0.7l3.2,2.2l4,1.7l0.2-2.9l1.3-4.9c-0.5-1-1.3-2.8-1.3-3.8
		c-0.1-0.5-1.6-2.8-2.8-4.6l-1.3-2.3h-3.4l-0.9,1.9l-10.9,2.1l1,2.9L600.1,594.8z"/>
	<polygon id="allen" class="st12" points="627.7,629.1 627.7,628.5 624.9,624.2 623,621.9 618.8,618.7 617.3,615 614.9,613.6 
		612.2,616.4 608.3,621.9 604.5,624.1 604.5,629.2 605.2,629.1 	"/>
	<polygon id="grayson" class="st12" points="596.6,583.5 607,581.5 608,579.2 613.4,579.2 615.3,576.5 618.6,572.1 618.6,570.7 
		612.4,565.3 608.9,565.3 606,562.8 601.8,567.5 595.7,567.5 591.4,562.8 589,562.8 589,564.6 586.7,566.7 586.7,578 590.5,579.5 	
		"/>
	<polygon id="henry" class="st12" points="670.7,485.8 666.4,480.1 664,481.6 655.3,487.5 658.4,495.6 677.4,495.6 677.8,494.9 
		674.9,490.4 	"/>
	<path id="powell" class="st12" d="M738.5,522.6v4.9l2.9,4.4h9.8l1.9,4c0.7-0.6,1.3-1.3,2.1-1.9l1.3-3.3l0.7-2.3l-7.3-5.9
		C748.7,522.6,745.7,522.8,738.5,522.6z"/>
	<path id="estill" class="st12" d="M734.5,529.3v7.3l2,1v10l4.4,2h4.9v-2.2l0.1-0.3c2.8-5.7,4.1-8.2,4.9-9.3v-0.1l-1.5-3.1h-9.6
		l-3.5-5.4L734.5,529.3z"/>
	<polygon id="menifee" class="st12" points="751.7,515.4 751.7,520.2 759,526.2 761.9,524.1 765.5,522.3 767.6,510.4 762.8,510.4 	
		"/>
	<polygon id="clark" class="st12" points="723.7,512.5 719.2,514.6 717.7,521.5 717.7,526.3 735.7,526.5 735.7,521.5 729.6,510.1 	
		"/>
	<polygon id="woodford" class="st12" points="685.4,514.7 687.4,517.5 690.9,525 693.3,527.6 694.3,527.4 695.6,525 695.6,512.3 
		690.1,508.5 	"/>
	<polygon id="franklin" class="st12" points="680.1,496.4 679,498.4 674.5,498.4 674.5,513.2 677.2,512.2 683.8,512.1 688.3,506.2 
		686.8,497.7 	"/>
	<polygon id="boyle" class="st12" points="678.4,551 678.4,551.1 678.4,555.6 689.5,555.6 691.7,554.8 695.2,553 698.8,549.8 
		694.7,543.9 	"/>
	<polygon id="garrard" class="st12" points="696.6,541.7 701.6,548.9 705.9,550.6 710.6,554 713.4,555.4 715.3,553.9 718.4,552.7 
		714.5,548.8 714.5,547.6 710.6,546.7 708.6,541.7 707.8,540.8 706.9,542.3 702.6,542.3 700.3,538.4 697.7,536 696.6,535.7 	"/>
	<polygon id="jessamine" class="st12" points="701.2,525.4 699.5,524.8 698.1,526.2 696.6,529 696.6,532.9 699,533.5 702.6,536.8 
		704.2,539.6 705.3,539.6 706.3,537.8 708.7,534 709.8,531.8 707,530.1 	"/>
	<polygon id="madison" class="st12" points="712.7,532.1 711.1,535.4 709.2,538.3 711,540.2 712.7,544.4 717.2,545.5 717.2,547.6 
		721.4,551.8 727.9,551.8 733.8,547.8 733.8,539.3 731.8,538.3 731.8,529.2 716.8,529.1 	"/>
	<path id="livingston" class="st12" d="M478.7,615.1l12,2.8v-7.5h2.1v-3.1l-1.9-1.9v-3.6l-4.9-3.9v-2.2l-4.4-3.7v-3.9
		c-1.9,0.7-3.7,1.4-4.3,2.3c-0.7,3-0.1,16.3,1.6,18.6c-0.1-0.1-0.6-0.6-1.5-0.7L477,612l1.3-0.1L478.7,615.1z"/>
	<polygon id="graves" class="st12" points="477.7,632.2 476.6,624.9 459.5,626.2 459.1,647.5 461,647.5 461,654.2 477.7,653.5 	"/>
	<polygon id="trigg" class="st12" points="519,639.2 525.1,638.5 525.1,618 522.5,616.2 516.5,619.5 506.6,624.6 500.5,628.8 
		500.5,630 502.5,630 502.2,635.9 503.1,637.1 516.8,637.1 	"/>
	<polygon id="whitley" class="st12" points="755.8,616.6 747.3,611.7 740.7,598.7 738.7,596.5 736,596.5 734,599.2 729.7,599.2 
		729.9,605.5 729.2,605.5 728.3,613.3 731.2,619.9 748.5,618.8 755.8,617.8 	"/>
	<path id="bell" class="st12" d="M776.5,608.4l-1.5-13.1h-2.2l-1.9,3.6l-4.6,4.7l-5.1,4l-1.9,4.2l-1.9,5.8l0,0v0.1l3.7-0.5l4.3-3.4
		l0.9-0.1c0.1,0,0.5-0.3,0.9-0.4c0.5-0.2,1-0.5,1.5-0.7c1.9-0.7,3.7-1.4,5.6-2.1c1.3-0.4,2.5-0.9,3.7-1.3L776.5,608.4z"/>
	<path id="lee" class="st12" d="M753.9,539c-0.3,0.3-0.6,0.4-0.7,0.6c-0.6,1-2.7,4.9-4.5,8.6v2.2l2.1,1.5h5l3.6-4.6l3.8-0.7l0.1-0.1
		L753.9,539z"/>
	<path id="wolfe" class="st12" d="M780.6,530.2l-13.7-5.5l-3.6,1.8l-3.1,2.2l-1,2.9l-1.6,4l-0.2,0.2c-0.7,0.7-1.3,1.2-1.7,1.6l8.7,7
		l2.2-4.4l3.7-2.5l3.1-5.5h3.1l4.3,2.4h1.3L780.6,530.2z"/>
</g>
<g id="balls">
	<circle id="pike_circle" class="st13" cx="835.2" cy="539.6" r="4.2"/>
	<circle id="martin_circle" class="st13" cx="823.9" cy="521.6" r="4.2"/>
	<circle id="johnson_circle" class="st13" cx="804.5" cy="519.1" r="4.2"/>
	<circle id="lawrence_circle" class="st13" cx="808.5" cy="502.8" r="4.2"/>
	<circle id="boyd_circle" class="st13" cx="806.5" cy="479.3" r="4.2"/>
	<circle id="elliott_circle" class="st13" cx="786.1" cy="498.3" r="4.2"/>
	<circle id="carter_circle" class="st13" cx="789.1" cy="484.2" r="4.2"/>
	<circle id="greenup_circle" class="st13" cx="791.7" cy="471.6" r="4.2"/>
	<circle id="floyd_circle" class="st13" cx="813.4" cy="538.7" r="4.2"/>
	<circle id="magoffin_circle" class="st13" cx="792" cy="530.3" r="4.2"/>
	<circle id="morgan_circle" class="st13" cx="779.5" cy="514.1" r="4.2"/>
	<circle id="rowan_circle" class="st13" cx="767.6" cy="497.9" r="4.2"/>
	<circle id="menifee_circle" class="st13" cx="760" cy="518.3" r="4.2"/>
	<circle id="bath_circle" class="st13" cx="749.3" cy="503.4" r="4.2"/>
	<circle id="lewis_circle" class="st13" cx="766.5" cy="472.3" r="4.2"/>
	<circle id="fleming_circle" class="st13" cx="750.7" cy="485.4" r="4.2"/>
	<circle id="mason_circle" class="st13" cx="740.7" cy="471.6" r="4.2"/>
	<circle id="nicholas_circle" class="st13" cx="731.8" cy="490.5" r="4.2"/>
	<circle id="robertson_circle" class="st13" cx="728.8" cy="477.8" r="4.2"/>
	<circle id="bracken_circle" class="st13" cx="723.8" cy="464.5" r="4.2"/>
	<circle id="montgomery_circle" class="st13" cx="740.5" cy="513.7" r="4.2"/>
	<circle id="harrison_circle" class="st13" cx="711.6" cy="483.8" r="4.2"/>
	<circle id="clark_circle_1_" class="st13" cx="720.2" cy="501.3" r="4.2"/>
	<circle id="clark_circle" class="st13" cx="726.1" cy="520.6" r="4.2"/>
	<circle id="powell_circle" class="st13" cx="747.5" cy="526.8" r="4.2"/>
	<circle id="wolfe_circle" class="st13" cx="766.2" cy="533.2" r="4.2"/>
	<circle id="estill_circle" class="st13" cx="742.1" cy="541.1" r="4.2"/>
	<circle id="breathitt_circle" class="st13" cx="779.5" cy="546.1" r="4.2"/>
	<circle id="lee_circle" class="st13" cx="755.4" cy="545.2" r="4.2"/>
	<circle id="owsley_circle" class="st13" cx="760.5" cy="556.8" r="4.2"/>
	<circle id="knott_circle" class="st13" cx="805.3" cy="556.8" r="4.2"/>
	<circle id="letcher_circle" class="st13" cx="810.1" cy="572.3" r="4.2"/>
	<circle id="perry_circle" class="st13" cx="791.7" cy="565.5" r="4.2"/>
	<circle id="leslie_circle" class="st13" cx="782.5" cy="577.6" r="4.2"/>
	<circle id="harlan_circle" class="st13" cx="791.1" cy="594.2" r="4.2"/>
	<circle id="madison_circle" class="st13" cx="723.2" cy="539.7" r="4.2"/>
	<circle id="jackson_circle" class="st13" cx="741.5" cy="560.1" r="4.2"/>
	<circle id="clay_circle" class="st13" cx="761.2" cy="577.2" r="4.2"/>
	<circle id="bell_circle" class="st13" cx="768.9" cy="607.5" r="4.2"/>
	<circle id="knox_circle" class="st13" cx="755.7" cy="598.4" r="4.2"/>
	<circle id="laurel_circle" class="st13" cx="737.9" cy="583.3" r="4.2"/>
	<circle id="rockcastle_circle" class="st13" cx="721.8" cy="566.6" r="4.2"/>
	<circle id="garrard_circle" class="st13" cx="706.7" cy="546.3" r="4.2"/>
	<circle id="fayette_circle" class="st13" cx="708.2" cy="517.4" r="4.2"/>
	<circle id="scott_circle" class="st13" cx="698.9" cy="498.5" r="4.2"/>
	<circle id="jessamine_circle" class="st13" cx="702.5" cy="531.3" r="4.2"/>
	<circle id="woodford_circle" class="st13" cx="692" cy="516.9" r="4.2"/>
	<circle id="pendleton_circle" class="st13" cx="708.3" cy="466.2" r="4.2"/>
	<circle id="campbell_circle" class="st13" cx="703.5" cy="446.3" r="4.2"/>
	<circle id="kenton_circle" class="st13" cx="697.1" cy="451.3" r="4.2"/>
	<circle id="boone_circle" class="st13" cx="686.5" cy="451.3" r="4.2"/>
	<circle id="mercer_circle" class="st13" cx="685.2" cy="536.9" r="4.2"/>
	<circle id="gallatin_circle" class="st13" cx="680.1" cy="464.5" r="4.2"/>
	<circle id="grant_circle" class="st13" cx="694.1" cy="472" r="4.2"/>
	<circle id="owen_circle" class="st13" cx="681.7" cy="482.5" r="4.2"/>
	<circle id="franklin_circle" class="st13" cx="680.6" cy="504" r="4.2"/>
	<circle id="anderson_circle" class="st13" cx="676.9" cy="524.3" r="4.2"/>
	<circle id="boyle_circle" class="st13" cx="688.6" cy="550.9" r="4.2"/>
	<circle id="lincoln_circle" class="st13" cx="702.3" cy="562.4" r="4.2"/>
	<circle id="casey_circle" class="st13" cx="686.2" cy="574.2" r="4.2"/>
	<circle id="pulaski_circle" class="st13" cx="709.8" cy="588.5" r="4.2"/>
	<circle id="whitley_circle" class="st13" cx="738.7" cy="610.1" r="4.2"/>
	<circle id="mccreary_circle" class="st13" cx="717.6" cy="613.4" r="4.2"/>
	<circle id="wayne_circle" class="st13" cx="697.1" cy="612.5" r="4.2"/>
	<circle id="russell_circle" class="st13" cx="683.8" cy="599.3" r="4.2"/>
	<circle id="adair_circle" class="st13" cx="668.5" cy="592.9" r="4.2"/>
	<circle id="taylor_circle" class="st13" cx="662.6" cy="574.2" r="4.2"/>
	<circle id="marion_circle" class="st13" cx="665.4" cy="559.3" r="4.2"/>
	<circle id="washington_circle" class="st13" cx="668" cy="543.9" r="4.2"/>
	<circle id="carroll_circle" class="st13" cx="666.8" cy="472.3" r="4.2"/>
	<circle id="spencer_circle" class="st13" cx="657.7" cy="522.5" r="4.2"/>
	<circle id="shelby_circle" class="st13" cx="662.1" cy="507.6" r="4.2"/>
	<circle id="henry_circle" class="st13" cx="664.9" cy="488.7" r="4.2"/>
	<circle id="trimble_circle" class="st13" cx="655.6" cy="480.2" r="4.2"/>
	<circle id="oldham_circle" class="st13" cx="649.2" cy="495.6" r="4.2"/>
	<circle id="jefferson_circle" class="st13" cx="637.6" cy="511.8" r="4.2"/>
	<circle id="nelson_circle" class="st13" cx="650.4" cy="541.1" r="4.2"/>
	<circle id="bullitt_circle" class="st13" cx="636.5" cy="529.2" r="4.2"/>
	<circle id="clinton_circle" class="st13" cx="678.4" cy="619.9" r="4.2"/>
	<circle id="green_circle" class="st13" cx="651.8" cy="583.9" r="4.2"/>
	<circle id="larue_circle" class="st13" cx="638.4" cy="563.5" r="4.2"/>
	<circle id="hardin_circle" class="st13" cx="622.2" cy="553.1" r="4.2"/>
	<circle id="meade_circle" class="st13" cx="608.3" cy="536.6" r="4.2"/>
	<circle id="cumberland_circle" class="st13" cx="663.8" cy="617.6" r="4.2"/>
	<circle id="metcalfe_circle" class="st13" cx="649.2" cy="604.9" r="4.2"/>
	<circle id="monroe_circle" class="st13" cx="647.5" cy="623.9" r="4.2"/>
	<circle id="hart_circle" class="st13" cx="630" cy="581.5" r="4.2"/>
	<circle id="barren_circle" class="st13" cx="630.5" cy="608.5" r="4.2"/>
	<circle id="edmonson_circle" class="st13" cx="609.9" cy="590" r="4.2"/>
	<circle id="warren_circle" class="st13" cx="602" cy="608.3" r="4.2"/>
	<circle id="allen_circle" class="st13" cx="615" cy="622.3" r="4.2"/>
	<circle id="simpson_circle" class="st13" cx="594.4" cy="628" r="4.2"/>
	<circle id="butler_circle" class="st13" cx="582.9" cy="594.2" r="4.2"/>
	<circle id="grayson_circle" class="st13" cx="602" cy="574.2" r="4.2"/>
	<circle id="breckinridge_circle" class="st13" cx="594.9" cy="548.3" r="4.2"/>
	<circle id="hancock_circle" class="st13" cx="573.7" cy="547.9" r="4.2"/>
	<circle id="daviess_circle" class="st13" cx="554.4" cy="557.2" r="4.2"/>
	<circle id="ohio_circle" class="st13" cx="571.7" cy="576.3" r="4.2"/>
	<circle id="logan_circle" class="st13" cx="576.3" cy="621.4" r="4.2"/>
	<circle id="todd_circle" class="st13" cx="556.5" cy="624.9" r="4.2"/>
	<circle id="muhlenberg_circle" class="st13" cx="555.5" cy="596" r="4.2"/>
	<circle id="mclean_circle" class="st13" cx="548.1" cy="572.4" r="4.2"/>
	<circle id="henderson__circle" class="st13" cx="522.8" cy="555.6" r="4.2"/>
	<circle id="union_circle" class="st13" cx="505.9" cy="566.5" r="4.2"/>
	<circle id="webster_circle" class="st13" cx="522.9" cy="575.8" r="4.2"/>
	<circle id="hopkins_circle" class="st13" cx="531.2" cy="591.7" r="4.2"/>
	<circle id="christian_circle" class="st13" cx="537.4" cy="622.8" r="4.2"/>
	<circle id="crittenden_circle" class="st13" cx="499.1" cy="590.2" r="4.2"/>
	<circle id="caldwell_circle" class="st13" cx="513.3" cy="604.9" r="4.2"/>
	<circle id="livingston_circle" class="st13" cx="484.9" cy="606.7" r="4.2"/>
	<circle id="lyon_circle" class="st13" cx="500.6" cy="616.2" r="4.2"/>
	<circle id="trigg_circle" class="st13" cx="513.3" cy="628" r="4.2"/>
	<circle id="mccracken_circle" class="st13" cx="465.8" cy="617.2" r="4.2"/>
	<circle id="marshall_circle" class="st13" cx="486.7" cy="627.7" r="4.2"/>
	<circle id="calloway_circle" class="st13" cx="491.5" cy="646" r="4.2"/>
	<circle id="ballard_circle" class="st13" cx="448.7" cy="617.7" r="4.2"/>
	<circle id="carlisle_circle" class="st13" cx="449.3" cy="631.6" r="4.2"/>
	<circle id="graves_circle" class="st13" cx="468.4" cy="641.3" r="4.2"/>
	<circle id="hickman_circle" class="st13" cx="449.1" cy="645.5" r="4.2"/>
	<circle id="fulton_circle" class="st13" cx="439.1" cy="653.2" r="4.2"/>
	<text id="pike_numbers" transform="matrix(0.986 2.629903e-03 -2.593113e-03 1 832.6307 541.3998)" class="st14 st7 st15">10</text>
	<text id="martin_numbers" transform="matrix(0.986 2.629903e-03 -2.593113e-03 1 821.3053 523.3978)" class="st14 st7 st15">10</text>
	<text id="floyd_numbers" transform="matrix(0.986 2.629903e-03 -2.593113e-03 1 810.5792 540.5256)" class="st14 st7 st15">10</text>
	<text id="magoffin_numbers" transform="matrix(0.986 2.629903e-03 -2.593113e-03 1 789.1795 531.9001)" class="st14 st7 st15">10</text>
	<text id="johnson_numbers" transform="matrix(0.986 2.629903e-03 -2.593113e-03 1 801.8602 521.0129)" class="st14 st7 st15">10</text>
	<text id="lawrence_numbers" transform="matrix(0.986 2.629903e-03 -2.593113e-03 1 805.7798 504.5506)" class="st14 st7 st15">10</text>
	<text id="morgan_numbers" transform="matrix(0.986 2.629903e-03 -2.593113e-03 1 776.6785 515.7006)" class="st14 st7 st15">10</text>
	<text id="menifee_numbers" transform="matrix(0.986 2.629903e-03 -2.593113e-03 1 757.1285 519.8506)" class="st14 st7 st15">10</text>
	<text id="bath_numbers" transform="matrix(0.986 2.629903e-03 -2.593113e-03 1 746.1782 505.2003)" class="st14 st7 st15">10</text>
	<text id="rowan_numbers" transform="matrix(0.986 2.629903e-03 -2.593113e-03 1 764.829 499.4131)" class="st14 st7 st15">10</text>
	<text id="elliott_numbers" transform="matrix(0.986 2.629903e-03 -2.593113e-03 1 783.5781 500.2003)" class="st14 st7 st15">10</text>
	<text id="boyd_numbers" transform="matrix(0.986 2.629903e-03 -2.593113e-03 1 803.9677 481.0505)" class="st14 st7 st15">10</text>
	<text id="carter_numbers" transform="matrix(0.986 2.629903e-03 -2.593113e-03 1 786.5673 486.3)" class="st14 st7 st15">10</text>
	<text id="greenup_numbers" transform="matrix(0.986 2.629903e-03 -2.593113e-03 1 789.178 473.3499)" class="st14 st7 st15">10</text>
	<text id="lewis_numbers" transform="matrix(0.986 2.629903e-03 -2.593113e-03 1 763.6672 474.0709)" class="st14 st7 st15">10</text>
	<text id="fleming_numbers" transform="matrix(0.986 2.629903e-03 -2.593113e-03 1 747.8789 486.9)" class="st14 st7 st15">10</text>
	<text id="mason_numbers" transform="matrix(0.986 2.629903e-03 -2.593113e-03 1 737.9286 473.3499)" class="st14 st7 st15">10</text>
	<text id="bracken_numbers" transform="matrix(0.986 2.629903e-03 -2.593113e-03 1 721.278 466.2508)" class="st14 st7 st15">10</text>
	<text id="robertson_numbers" transform="matrix(0.986 2.629903e-03 -2.593113e-03 1 725.7787 479.55)" class="st14 st7 st15">10</text>
	<text id="nicholas_numbers" transform="matrix(0.986 2.629903e-03 -2.593113e-03 1 729.2789 492.2625)" class="st14 st7 st15">10</text>
	<text id="montgomery_numbers" transform="matrix(0.986 2.629903e-03 -2.593113e-03 1 737.928 515.0006)" class="st14 st7 st15">10</text>
	<text id="bourbon_numbers" transform="matrix(0.986 2.629903e-03 -2.593113e-03 1 717.6672 502.55)" class="st14 st7 st15">10</text>
	<text id="wolfe_numbers" transform="matrix(0.986 2.629903e-03 -2.593113e-03 1 763.4712 534.9624)" class="st14 st7 st15">10</text>
	<text id="powell_numbers" transform="matrix(0.986 2.629903e-03 -2.593113e-03 1 744.9788 528.6005)" class="st14 st7 st15">10</text>
	<text id="clark_numbers" transform="matrix(0.986 2.629903e-03 -2.593113e-03 1 723.278 522.3502)" class="st14 st7 st15">10</text>
	<text id="estill_numbers" transform="matrix(0.986 2.629903e-03 -2.593113e-03 1 739.5289 543.1633)" class="st14 st7 st15">10</text>
	<text id="lee_numbers" transform="matrix(0.986 2.629903e-03 -2.593113e-03 1 752.6785 547.2501)" class="st14 st7 st15">10</text>
	<text id="owsley_numbers" transform="matrix(0.986 2.629903e-03 -2.593113e-03 1 757.779 558.5997)" class="st14 st7 st15">10</text>
	<text id="breathitt_numbers" transform="matrix(0.986 2.629903e-03 -2.593113e-03 1 776.967 547.8998)" class="st14 st7 st15">10</text>
	<text id="knott_numbers" transform="matrix(0.986 2.629903e-03 -2.593113e-03 1 802.1787 558.6)" class="st14 st7 st15">10</text>
	<text id="letcher_numbers" transform="matrix(0.986 2.629903e-03 -2.593113e-03 1 807.579 574.0999)" class="st14 st7 st15">10</text>
	<text id="perry_numbers" transform="matrix(0.986 2.629903e-03 -2.593113e-03 1 789.1785 567.3124)" class="st14 st7 st15">10</text>
	<text id="leslie_numbers" transform="matrix(0.986 2.629903e-03 -2.593113e-03 1 779.5789 579.3631)" class="st14 st7 st15">10</text>
	<text id="harlan_numbers" transform="matrix(0.986 2.629903e-03 -2.593113e-03 1 788.3785 595.9999)" class="st14 st7 st15">10</text>
	<text id="clay_numbers" transform="matrix(0.986 2.629903e-03 -2.593113e-03 1 758.6713 579.0495)" class="st14 st7 st15">10</text>
	<text id="jackson_numbers" transform="matrix(0.986 2.629903e-03 -2.593113e-03 1 738.7784 561.8)" class="st14 st7 st15">10</text>
	<text id="laurel_numbers" transform="matrix(0.986 2.629903e-03 -2.593113e-03 1 734.9786 584.7501)" class="st14 st7 st15">10</text>
	<text id="knox_numbers" transform="matrix(0.986 2.629903e-03 -2.593113e-03 1 752.8731 600.25)" class="st14 st7 st15">10</text>
	<text id="bell_numbers" transform="matrix(0.986 2.629903e-03 -2.593113e-03 1 766.2117 609.4194)" class="st14 st7 st15">10</text>
	<text id="madison_numbers" transform="matrix(0.986 2.629903e-03 -2.593113e-03 1 720.2784 541.4)" class="st14 st7 st15">10</text>
	<text id="fayette_numbers" transform="matrix(0.986 2.629903e-03 -2.593113e-03 1 705.379 519.1501)" class="st14 st7 st15">10</text>
	<text id="harrison_numbers" transform="matrix(0.986 2.629903e-03 -2.593113e-03 1 708.9788 485.5501)" class="st14 st7 st15">10</text>
	<text id="pendleton_numbers" transform="matrix(0.986 2.629903e-03 -2.593113e-03 1 705.7782 468.0131)" class="st14 st7 st15">10</text>
	<text id="grant_numbers" transform="matrix(0.986 2.629903e-03 -2.593113e-03 1 691.2779 473.3505)" class="st14 st7 st15">10</text>
	<text id="scott_numbers" transform="matrix(0.986 2.629903e-03 -2.593113e-03 1 696.3284 500.2001)" class="st14 st7 st15">10</text>
	<text id="woodford_numbers" transform="matrix(0.986 2.629903e-03 -2.593113e-03 1 689.2787 518.6003)" class="st14 st7 st15">10</text>
	<text id="jessamine_numbers" transform="matrix(0.986 2.629903e-03 -2.593113e-03 1 699.3787 533.2006)" class="st14 st7 st15">10</text>
	<text id="garrard_numbers" transform="matrix(0.986 2.629903e-03 -2.593113e-03 1 704.1787 547.8004)" class="st14 st7 st15">10</text>
	<text id="rockcastle_numbers" transform="matrix(0.986 2.629903e-03 -2.593113e-03 1 719.1288 568.6002)" class="st14 st7 st15">10</text>
	<text id="lincoln_numbers" transform="matrix(0.986 2.629903e-03 -2.593113e-03 1 699.3781 563.9)" class="st14 st7 st15">10</text>
	<text id="boyle_numbers" transform="matrix(0.986 2.629903e-03 -2.593113e-03 1 686.0787 552.4006)" class="st14 st7 st15">10</text>
	<text id="mercer_numbers" transform="matrix(0.986 2.629903e-03 -2.593113e-03 1 682.6268 538.7625)" class="st14 st7 st15">10</text>
	<text id="anderson_numbers" transform="matrix(0.986 2.629903e-03 -2.593113e-03 1 674.0786 526.0628)" class="st14 st7 st15">10</text>
	<text id="franklin_numbers" transform="matrix(0.986 2.629903e-03 -2.593113e-03 1 678.0667 505.8008)" class="st14 st7 st15">10</text>
	<text id="owen_numbers" transform="matrix(0.986 2.629903e-03 -2.593113e-03 1 679.178 483.9999)" class="st14 st7 st15">10</text>
	<text id="whitley_numbers" transform="matrix(0.986 2.629903e-03 -2.593113e-03 1 735.9783 611.6005)" class="st14 st7 st15">10</text>
	<text id="pulaski_numbers" transform="matrix(0.986 2.629903e-03 -2.593113e-03 1 707.1786 590.4005)" class="st14 st7 st15">10</text>
	<text id="mccreary_numbers" transform="matrix(0.986 2.629903e-03 -2.593113e-03 1 714.9987 615.0104)" class="st14 st7 st15">10</text>
	<text id="wayne_numbers" transform="matrix(0.986 2.629903e-03 -2.593113e-03 1 694.0783 613.6001)" class="st14 st7 st15">10</text>
	<text id="casey_numbers" transform="matrix(0.986 2.629903e-03 -2.593113e-03 1 683.5784 575.8629)" class="st14 st7 st15">10</text>
	<text id="taylor_numbers" transform="matrix(0.986 2.629903e-03 -2.593113e-03 1 659.9774 576.0001)" class="st14 st7 st15">10</text>
	<text id="russell_numbers" transform="matrix(0.986 2.629903e-03 -2.593113e-03 1 680.678 601.1004)" class="st14 st7 st15">10</text>
	<text id="campbell_numbers" transform="matrix(0.986 2.629903e-03 -2.593113e-03 1 700.978 448.2004)" class="st14 st7 st15">10</text>
	<text id="kenton_numbers" transform="matrix(0.986 2.629903e-03 -2.593113e-03 1 694.0785 453.1)" class="st14 st7 st15">10</text>
	<text id="boone_numbers" transform="matrix(0.986 2.629903e-03 -2.593113e-03 1 683.9788 453.1004)" class="st14 st7 st15">10</text>
	<text id="gallatin_numbers" transform="matrix(0.986 2.629903e-03 -2.593113e-03 1 677.5785 466.2504)" class="st14 st7 st15">10</text>
	<text id="carroll_numbers" transform="matrix(0.986 2.629903e-03 -2.593113e-03 1 663.8667 474.0713)" class="st14 st7 st15">10</text>
	<text id="marion_numbers" transform="matrix(0.986 2.629903e-03 -2.593113e-03 1 662.3664 560.8004)" class="st14 st7 st15">10</text>
	<text id="washington_numbers" transform="matrix(0.986 2.629903e-03 -2.593113e-03 1 664.9785 545.8004)" class="st14 st7 st15">10</text>
	<text id="nelson_numbers" transform="matrix(0.986 2.629903e-03 -2.593113e-03 1 647.8776 542.9002)" class="st14 st7 st15">10</text>
	<text id="spencer_numbers" transform="matrix(0.986 2.629903e-03 -2.593113e-03 1 655.1778 524.3004)" class="st14 st7 st15">10</text>
	<text id="adair_numbers" transform="matrix(0.986 2.629903e-03 -2.593113e-03 1 665.4784 594.4504)" class="st14 st7 st15">10</text>
	<text id="green_numbers" transform="matrix(0.986 2.629903e-03 -2.593113e-03 1 648.7773 585.3004)" class="st14 st7 st15">10</text>
	<text id="clinton_numbers" transform="matrix(0.986 2.629903e-03 -2.593113e-03 1 675.8785 621.7001)" class="st14 st7 st15">10</text>
	<text id="cumberland_numbers" transform="matrix(0.986 2.629903e-03 -2.593113e-03 1 661.2783 619.25)" class="st14 st7 st15">10</text>
	<text id="metcalfe_numbers" transform="matrix(0.986 2.629903e-03 -2.593113e-03 1 646.3781 606.7004)" class="st14 st7 st15">10</text>
	<text id="larue_numbers" transform="matrix(0.986 2.629903e-03 -2.593113e-03 1 635.5775 565.5502)" class="st14 st7 st15">10</text>
	<text id="trimble_numbers" transform="matrix(0.986 2.629903e-03 -2.593113e-03 1 652.6783 481.8999)" class="st14 st7 st15">10</text>
	<text id="henry_numbers" transform="matrix(0.986 2.629903e-03 -2.593113e-03 1 662.1776 490.5005)" class="st14 st7 st15">10</text>
	<text id="shelby_numbers" transform="matrix(0.986 2.629903e-03 -2.593113e-03 1 659.528 509.3998)" class="st14 st7 st15">10</text>
	<text id="oldham_numbers" transform="matrix(0.986 2.629903e-03 -2.593113e-03 1 646.3777 497.6498)" class="st14 st7 st15">10</text>
	<text id="jefferson_numbers" transform="matrix(0.986 2.629903e-03 -2.593113e-03 1 634.878 513.7003)" class="st14 st7 st15">10</text>
	<text id="bullitt_numbers" transform="matrix(0.986 2.629903e-03 -2.593113e-03 1 633.7775 531.3518)" class="st14 st7 st15">10</text>
	<text id="meade_numbers" transform="matrix(0.986 2.629903e-03 -2.593113e-03 1 605.7776 538.0008)" class="st14 st7 st15">10</text>
	<text id="hardin_numbers" transform="matrix(0.986 2.629903e-03 -2.593113e-03 1 619.6279 554.7488)" class="st14 st7 st15">10</text>
	<text id="hart_numbers" transform="matrix(0.986 2.629903e-03 -2.593113e-03 1 627.2776 582.9003)" class="st14 st7 st15">10</text>
	<text id="barren_numbers" transform="matrix(0.986 2.629903e-03 -2.593113e-03 1 627.9771 609.9003)" class="st14 st7 st15">10</text>
	<text id="monroe_numbers" transform="matrix(0.986 2.629903e-03 -2.593113e-03 1 644.7781 625.7001)" class="st14 st7 st15">10</text>
	<text id="allen_numbers" transform="matrix(0.986 2.629903e-03 -2.593113e-03 1 612.1276 624.1501)" class="st14 st7 st15">10</text>
	<text id="edmonson_numbers" transform="matrix(0.986 2.629903e-03 -2.593113e-03 1 607.3273 591.8998)" class="st14 st7 st15">10</text>
	<text id="warren_numbers" transform="matrix(0.986 2.629903e-03 -2.593113e-03 1 599.1771 609.9007)" class="st14 st7 st15">10</text>
	<text id="simpson_numbers" transform="matrix(0.986 2.629903e-03 -2.593113e-03 1 591.7278 629.5001)" class="st14 st7 st15">10</text>
	<text id="logan_numbers" transform="matrix(0.986 2.629903e-03 -2.593113e-03 1 573.7274 623.2001)" class="st14 st7 st15">10</text>
	<text id="butler_numbers" transform="matrix(0.986 2.629903e-03 -2.593113e-03 1 580.3771 595.9999)" class="st14 st7 st15">10</text>
	<text id="grayson_numbers" transform="matrix(0.986 2.629903e-03 -2.593113e-03 1 599.1775 575.8624)" class="st14 st7 st15">10</text>
	<text id="breckinridge_numbers" transform="matrix(0.986 2.629903e-03 -2.593113e-03 1 591.7273 549.8502)" class="st14 st7 st15">10</text>
	<text id="hancock_numbers" transform="matrix(0.986 2.629903e-03 -2.593113e-03 1 570.6774 549.8497)" class="st14 st7 st15">10</text>
	<text id="ohio_numbers" transform="matrix(0.986 2.629903e-03 -2.593113e-03 1 569.1774 578.0499)" class="st14 st7 st15">10</text>
	<text id="muhlenberg_numbers" transform="matrix(0.986 2.629903e-03 -2.593113e-03 1 552.9775 597.5001)" class="st14 st7 st15">10</text>
	<text id="mclean_numbers" transform="matrix(0.986 2.629903e-03 -2.593113e-03 1 545.5762 574.1002)" class="st14 st7 st15">10</text>
	<text id="daviess_numbers" transform="matrix(0.986 2.629903e-03 -2.593113e-03 1 551.5276 558.9627)" class="st14 st7 st15">10</text>
	<text id="henderson_numbers" transform="matrix(0.986 2.629903e-03 -2.593113e-03 1 520.2253 557.2005)" class="st14 st7 st15">10</text>
	<text id="union_numbers" transform="matrix(0.986 2.629903e-03 -2.593113e-03 1 503.3761 568.3002)" class="st14 st7 st15">10</text>
	<text id="webster_numbers" transform="matrix(0.986 2.629903e-03 -2.593113e-03 1 520.2261 577.6)" class="st14 st7 st15">10</text>
	<text id="hopkins_numbers" transform="matrix(0.986 2.629903e-03 -2.593113e-03 1 528.1761 593.5002)" class="st14 st7 st15">10</text>
	<text id="todd_numbers" transform="matrix(0.986 2.629903e-03 -2.593113e-03 1 553.4772 626.2125)" class="st14 st7 st15">10</text>
	<text id="christian_numbers" transform="matrix(0.986 2.629903e-03 -2.593113e-03 1 534.8772 624.45)" class="st14 st7 st15">10</text>
	<text id="caldwell_numbers" transform="matrix(0.986 2.629903e-03 -2.593113e-03 1 510.7766 606.7)" class="st14 st7 st15">10</text>
	<text id="trigg_numbers" transform="matrix(0.986 2.629903e-03 -2.593113e-03 1 510.7755 629.3506)" class="st14 st7 st15">10</text>
	<text id="lyon_numbers" transform="matrix(0.986 2.629903e-03 -2.593113e-03 1 497.9755 617.7001)" class="st14 st7 st15">10</text>
	<text id="crittenden_numbers" transform="matrix(0.986 2.629903e-03 -2.593113e-03 1 496.4252 591.9)" class="st14 st7 st15">10</text>
	<text id="livingston_numbers" transform="matrix(0.986 2.629903e-03 -2.593113e-03 1 482.076 608.3002)" class="st14 st7 st15">10</text>
	<text id="marshall_numbers" transform="matrix(0.986 2.629903e-03 -2.593113e-03 1 483.9761 629.5008)" class="st14 st7 st15">10</text>
	<text id="calloway_numbers" transform="matrix(0.986 2.629903e-03 -2.593113e-03 1 488.7753 647.8087)" class="st14 st7 st15">10</text>
	<text id="mccracken_numbers" transform="matrix(0.986 2.629903e-03 -2.593113e-03 1 463.2647 619.049)" class="st14 st7 st15">10</text>
	<text id="ballard_numbers" transform="matrix(0.986 2.629903e-03 -2.593113e-03 1 445.925 619.7)" class="st14 st7 st15">10</text>
	<text id="carlisle_numbers" transform="matrix(0.986 2.629903e-03 -2.593113e-03 1 446.5757 633.5505)" class="st14 st7 st15">10</text>
	<text id="graves_numbers" transform="matrix(0.986 2.629903e-03 -2.593113e-03 1 465.8757 642.9086)" class="st14 st7 st15">10</text>
	<text id="hickman_numbers" transform="matrix(0.986 2.629903e-03 -2.593113e-03 1 446.5546 647.3328)" class="st14 st7 st15">10</text>
	<text id="fulton_numbers" transform="matrix(0.986 2.629903e-03 -2.593113e-03 1 436.5944 654.9341)" class="st14 st7 st15">10</text>
</g>
<g id="TYPES_1_">
	<g>
		<circle id="_x34__1_" class="st13" cx="886" cy="-39.8" r="25.2"/>
		
			<text id="_x34__numbers_1_" transform="matrix(1 2.629928e-03 -2.629928e-03 1 862.4099 -34.2633)" class="st14 st7" style="font-size:15px;">10,000</text>
	</g>
	<g>
		<circle id="_x33__1_" class="st13" cx="826.3" cy="-38.8" r="18.2"/>
		
			<text id="_x33__numbers_1_" transform="matrix(1 2.629936e-03 -2.629936e-03 1 809.6473 -34.284)" class="st14 st7" style="font-size:13px;">1,000</text>
	</g>
	<g>
		<circle id="_x32__1_" class="st13" cx="776.8" cy="-37.9" r="12.4"/>
		
			<text id="_x32__numbers_1_" transform="matrix(1 2.629918e-03 -2.629918e-03 1 766.0817 -33.4533)" class="st14 st7" style="font-size:12px;">100</text>
	</g>
	<g>
		<circle id="_x31__2_" class="st13" cx="699.7" cy="-36.9" r="7.2"/>
		
			<text id="_x31__numbers_2_" transform="matrix(1 2.629955e-03 -2.629955e-03 1 697.5347 -34.0503)" class="st14 st7" style="font-size:7.3546px;">1</text>
	</g>
	<g>
		<circle id="_x31__1_" class="st13" cx="735.7" cy="-36.9" r="9.6"/>
		
			<rect x="730.8" y="-41" transform="matrix(2.629838e-03 -1 1 2.629838e-03 770.1736 699.2756)" class="st16" width="9.6" height="9"/>
		
			<text id="_x31__numbers_1_" transform="matrix(1 2.629909e-03 -2.629909e-03 1 730.2464 -34.1706)" class="st14 st7" style="font-size:9px;">10</text>
	</g>
</g>
</svg>
