<?xml version="1.0" encoding="utf-8"?>
<!-- Generator: Adobe Illustrator 24.1.2, SVG Export Plug-In . SVG Version: 6.00 Build 0)  -->
<svg version="1.1" id="Layer_1" xmlns="http://www.w3.org/2000/svg" xmlns:xlink="http://www.w3.org/1999/xlink" x="0px" y="0px"
	 viewBox="0 0 916.5 781.9" style="enable-background:new 0 0 916.5 781.9;" xml:space="preserve">
<style type="text/css">
	.st0{fill:#F5FBFE;}
	.st1{fill:#DDEEFA;}
	.st2{fill:#4C4B4D;}
	.st3{font-family:'ArialMT';}
	.st4{font-size:13px;}
	.st5{font-size:14px;}
	.st6{letter-spacing:2;}
	.st7{fill:#255078;}
	.st8{font-family:'Georgia';}
	.st9{font-size:16px;}
	.st10{font-size:18px;}
	.st11{fill:#ADD8F3;}
	.st12{fill:#CD483B;}
	.st13{fill:#FFFFFF;}
	.st14{font-size:10.3181px;}
	.st15{fill:#4C4B4C;}
	.st16{fill:#DB3029;}
	.st17{font-size:36px;}
</style>
<g id="Counties">
	<polygon id="blue_bg_1_" class="st0" points="0,646.5 0,683.5 0,693.1 0,781.9 173.5,781.9 173.5,693.1 915,693.1 915,646.5 	"/>
	<path id="line_bg_1_" class="st1" d="M916.5,0H0l0,0v647.1v2V692v2v42.9v2v42.9l0,0h579.8l0,0H913l0,0h3.5V0z M913,56.8v590.3
		H578.4l-0.6-0.3v0.3H443.6l-0.6-0.3v0.3H3V56.8H913z M913,649.1V692H579.8v-42.9H913z M445.1,692.1v-42.9h132.8v42.9H445.1z
		 M577.8,694.1V737H445.1v-42.9H577.8z M310.3,692.1v-42.9h132.8v42.9H310.3z M443.1,694.1V737H310.3v-42.9H443.1z M175.5,692.1
		v-42.9h132.8v42.9H175.5z M308.3,694.1V737H175.5v-42.9H308.3z M173.5,649.1V692H3v-42.9H173.5z M173.5,694.1V737H3v-42.9H173.5z
		 M3,739h170.5v39.9H3V739z M175.5,739h132.8v39.9H175.5V739z M310.3,739h132.8v39.9H310.3V739z M445.1,739h132.8v39.9H445.1V739z
		 M579.8,694.1H913v84.8H579.8V694.1z"/>
	<g id="texts">
		<text transform="matrix(1 0 0 1 32.8482 152.1692)" class="st2 st3 st4">Acadia 2,698</text>
		<text transform="matrix(1 0 0 1 32.8481 173.6604)" class="st2 st3 st4">Allen 2,305</text>
		<text transform="matrix(1 0 0 1 32.8483 195.1516)" class="st2 st3 st4">Ascension 2,294</text>
		<text transform="matrix(1 0 0 1 32.8483 216.6426)" class="st2 st3 st4">Assumption 1,724</text>
		<text transform="matrix(1 0 0 1 32.8483 238.1345)" class="st2 st3 st4">Baca 1,353</text>
		<text transform="matrix(1 0 0 1 32.8483 259.6255)" class="st2 st3 st4">Beauregard 1,331</text>
		<text transform="matrix(1 0 0 1 32.8481 281.116)" class="st2 st3 st4">Bienville 883</text>
		<text transform="matrix(1 0 0 1 32.8481 302.6072)" class="st2 st3 st4">Bossier 679</text>
		<text transform="matrix(1 0 0 1 32.8481 324.0979)" class="st2 st3 st4">Caddo 480</text>
		<text transform="matrix(1 0 0 1 32.8481 346.447)" class="st2 st3 st5">Calcasieu 379</text>
		<text transform="matrix(1 0 0 1 32.8481 368.2634)" class="st2 st3 st4">Caldwell 324</text>
		<text transform="matrix(1 0 0 1 32.8481 389.7549)" class="st2 st3 st4">Cameron 318</text>
		<text transform="matrix(1 0 0 1 32.8481 411.2468)" class="st2 st3 st4">Catahoula 311</text>
		<text transform="matrix(1 0 0 1 32.8481 432.7374)" class="st2 st3 st4">Claiborne 274</text>
		<text transform="matrix(1 0 0 1 32.8481 454.2284)" class="st2 st3 st4">Concordia 243</text>
		<text transform="matrix(1 0 0 1 32.8481 475.7202)" class="st2 st3 st4">DeSoto183</text>
		<text transform="matrix(1 0 0 1 32.8481 497.2112)" class="st2 st3 st4">East Baton 172</text>
		<text transform="matrix(1 0 0 1 32.8481 541.0515)" class="st2 st3 st5">East Feliciana 170</text>
		<text transform="matrix(1 0 0 1 32.8481 518.7031)" class="st2 st3 st4">East Carroll 168</text>
		<text transform="matrix(1 0 0 1 32.8481 562.8679)" class="st2 st3 st4">Evangeline 166</text>
		<text transform="matrix(1 0 0 1 32.8481 584.3589)" class="st2 st3 st4">Franklin159</text>
		<text transform="matrix(1 0 0 1 32.8482 605.8499)" class="st2 st3 st4">Grant 156</text>
		<text transform="matrix(1 0 0 1 180.5218 153.0266)" class="st2 st3 st5">Iberia 149</text>
		<text transform="matrix(1 0 0 1 180.5001 174.5886)" class="st2 st3 st5">Iberville 143</text>
		<text transform="matrix(1 0 0 1 180.5216 196.1504)" class="st2 st3 st5">Jackson 142</text>
		<text transform="matrix(1 0 0 1 180.4998 217.7124)" class="st2 st3 st5">Jefferson 140</text>
		<text transform="matrix(1 0 0 1 180.5216 239.2739)" class="st2 st3 st5">Jefferson Davis 123</text>
		<text transform="matrix(1 0 0 1 249.7498 239.2739)" class="st2 st3 st5 st6"> </text>
		<text transform="matrix(1 0 0 1 180.5001 260.8362)" class="st2 st3 st5">Lafayette 122</text>
		<text transform="matrix(1 0 0 1 180.5001 282.3977)" class="st2 st3 st5">Lafourche 109</text>
		<text transform="matrix(1 0 0 1 180.5001 303.9597)" class="st2 st3 st5">LaSalle 100</text>
		<text transform="matrix(1 0 0 1 180.5001 325.522)" class="st2 st3 st5">Lincoln 99</text>
		<text transform="matrix(1 0 0 1 180.5001 347.0835)" class="st2 st3 st5">Livingston  89</text>
		<text transform="matrix(1 0 0 1 180.5001 368.6453)" class="st2 st3 st5">Madison 76</text>
		<text transform="matrix(1 0 0 1 180.5001 390.2068)" class="st2 st3 st5">Morehouse 75</text>
		<text transform="matrix(1 0 0 1 180.5001 411.7679)" class="st2 st3 st5">Natchitoches 69</text>
		<text transform="matrix(1 0 0 1 180.5001 433.3301)" class="st2 st3 st5">Orleans 64</text>
		<text transform="matrix(1 0 0 1 180.5001 454.8911)" class="st2 st3 st5">Ouachita 63</text>
		<text transform="matrix(1 0 0 1 180.5001 476.4534)" class="st2 st3 st5">Plaquemines 58</text>
		<text transform="matrix(1 0 0 1 180.5001 498.0154)" class="st2 st3 st5">Pointe 50</text>
		<text transform="matrix(1 0 0 1 180.5001 519.5764)" class="st2 st3 st5">Rapides 48</text>
		<text transform="matrix(1 0 0 1 180.5001 541.1387)" class="st2 st3 st5">Red River 43</text>
		<text transform="matrix(1 0 0 1 180.5001 562.7017)" class="st2 st3 st5">Richland 40</text>
		<text transform="matrix(1 0 0 1 180.5001 584.2637)" class="st2 st3 st5">Sabine 40</text>
		<text transform="matrix(1 0 0 1 180.5002 605.8259)" class="st2 st3 st5">st Bernard 38</text>
		<text transform="matrix(1 0 0 1 331.2754 153.0269)" class="st2 st3 st5">st Charles 36</text>
		<text transform="matrix(1 0 0 1 331.2968 174.5742)" class="st2 st3 st5">st Helena 34</text>
		<text transform="matrix(1 0 0 1 331.2754 196.1218)" class="st2 st3 st5">st James 32</text>
		<text transform="matrix(1 0 0 1 331.2754 217.6692)" class="st2 st3 st5">st John the Baptist 31</text>
		<text transform="matrix(1 0 0 1 331.2754 239.217)" class="st2 st3 st5">st Landry 31</text>
		<text transform="matrix(1 0 0 1 331.2754 260.7644)" class="st2 st3 st5">st Martin 30</text>
		<text transform="matrix(1 0 0 1 331.2754 282.312)" class="st2 st3 st5">st Mary 28</text>
		<text transform="matrix(1 0 0 1 331.2754 303.8594)" class="st2 st3 st5">st Tammany 27</text>
		<text transform="matrix(1 0 0 1 331.2754 325.407)" class="st2 st3 st5">Tangipahoa 26</text>
		<text transform="matrix(1 0 0 1 331.2754 346.9553)" class="st2 st3 st5">Tensas 25</text>
		<text transform="matrix(1 0 0 1 331.2754 368.5022)" class="st2 st3 st5">Terrebonne 24</text>
		<text transform="matrix(1 0 0 1 331.2754 390.0496)" class="st2 st3 st5">Union 24</text>
		<text transform="matrix(1 0 0 1 331.2754 411.598)" class="st2 st3 st5">Vermilion 22</text>
		<text transform="matrix(1 0 0 1 331.2754 433.145)" class="st2 st3 st5">Vernon 21</text>
		<text transform="matrix(1 0 0 1 331.2754 454.6929)" class="st2 st3 st5">Washington 20</text>
		<text transform="matrix(1 0 0 1 331.2754 476.2397)" class="st2 st3 st5">Webster 19</text>
		<text transform="matrix(1 0 0 1 331.2754 497.7878)" class="st2 st3 st5">West Baton Rouge 19</text>
		<text transform="matrix(1 0 0 1 331.2754 519.3357)" class="st2 st3 st5">West Carroll 18</text>
		<text transform="matrix(1 0 0 1 331.2754 540.8826)" class="st2 st3 st5">West Feliciana 17</text>
		<text transform="matrix(1 0 0 1 331.2754 562.4304)" class="st2 st3 st5">Winn 17</text>
		<text id="confirmed" transform="matrix(1 0 0 1 32.8483 109.2512)" class="st7 st8 st9">State Confirmed Cases By County</text>
		<text id="title_1_" transform="matrix(1 0 0 1 32.8483 35.8369)" class="st7 st8 st10">COVID-19 in Louisiana on</text>
		<text id="date_1_" transform="matrix(1 0 0 1 244.7495 35.8369)" class="st7 st8 st10">April 27th, 2020</text>
	</g>
	<polygon id="pointe_coupee" class="st11" points="707.5,391.7 701.1,385.3 677.6,376.8 677.6,364.9 675.8,363.7 670.2,378.3 
		679,391 679,409.2 695.9,409.2 	"/>
	<path id="washington" class="st11" d="M830.4,359.4l-1-1.7l-3.2,1.2l-39.2,1.3v4.4l5.4,4.2l4.3,11.6l27.7,3.8
		c-0.4-2.9-0.2-6.2,1.2-10.2L830.4,359.4z"/>
	<polygon id="natchitoches" class="st11" points="574,329.8 589.6,318.3 589.8,318.3 571,299.3 571,290.6 576.3,278.9 576.3,268.3 
		571.7,259.4 558.4,259.4 558.4,271.1 550.3,283.3 541.9,283.3 535.1,289.1 535.1,299.5 537.1,299.5 537.1,296.8 545.8,296.8 
		545.8,315.5 553.4,315.5 553.4,329.8 	"/>
	<polygon id="avoyelles" class="st11" points="633.8,368.2 633.8,370.7 637.6,376.8 667,376.8 673.3,360.6 675,346.5 671.6,346.7 
		663.8,338.7 658.8,338.7 658.8,343.2 652.6,343.2 649.1,336.4 642.5,336.4 634.7,338.4 634.7,335 633.4,335 633.2,341.5 
		636.1,341.5 636.1,365.9 	"/>
	<polygon id="grant" class="st11" points="624,318.3 628.8,318.3 621.7,310.5 619.2,305.7 619.2,292.4 601.3,292.4 601.3,300.3 
		576.9,300.3 594.8,318.3 595.8,318.3 595.8,325.2 	"/>
	<polygon id="red_river" class="st11" points="548.5,279.9 555,270.1 555,259.5 552,259.5 534.8,250.9 524.3,250.6 524.3,252.5 
		533.2,268.1 534.8,272.6 537.6,276 542.9,277.7 542.9,279.9 	"/>
	<path id="concordia" class="st11" d="M679.2,361.9l0.3-0.3l0.2-2.9c1.3-20,2.8-44.6,13.7-66.6l-0.6-0.3h-4.7l-8.6,2.6l-4.9,1.7
		l-5,4.6l-1.3,3.4l-4.9,16.2v5.2L666,336l6.9,7.1l6-0.5l-2.1,17.5L679.2,361.9z"/>
	<polygon id="winn" class="st11" points="574.5,291.3 574.5,296.8 597.9,296.8 597.9,288.9 619.2,288.9 619.2,284.8 621.5,282.1 
		621.5,256.4 607.4,256.4 602.7,259.1 575.6,259.3 579.7,267.4 579.7,279.6 	"/>
	<polygon id="catahoula" class="st11" points="665.1,303 666.8,298.7 672.9,293.1 678.5,291.2 685.4,289 680.3,279.6 680.3,272.5 
		678.3,272.7 672.4,280.9 665.1,280.9 660.1,272.7 656.2,272.7 649.2,274.3 649.2,302 651.9,302 651.9,334.2 654.7,339.7 
		655.4,339.7 655.4,335.2 662.3,335.2 660.1,325.7 660.2,319.5 	"/>
	<polygon id="acadia" class="st11" points="630.9,443.4 630.9,443.4 643.4,429 642.5,427 637.9,420.4 633.3,414.8 619.3,414.8 
		618.3,414.8 611.2,414.8 609.9,417.3 604.3,417.3 604.3,430.8 606.6,434 606.6,451.2 613.9,451.2 613.9,454.1 622.4,454.1 
		630.4,444 630.4,444 630.6,443.8 	"/>
	<path id="iberia" class="st11" d="M706.9,459.5c1.1-1.3,2.2-2.7,3.3-4c0.1-1.3,0.1-2.6,0.3-4c-1.9,0.1-3.9,0.3-5.8,0.4l-25.5-5.1
		h-1.6l-14.6,4.5v3.7h-2.6v9.4h2.6v13h-1.7c4.9,0.3,10,2.1,6.9,6.6c2-1.6,4-3.6,6.2-5c0.4-0.3,0.8-0.5,1.1-0.7l-1.4-1l13.2-17.8
		H706.9L706.9,459.5z"/>
	<polygon id="assumption" class="st11" points="739,480.5 746.7,466.5 747.7,464.1 740.1,449.3 730.5,448.9 724.4,455 720.4,455 
		717.6,456.8 723.2,467.3 729.8,467.3 734.4,470.8 734.4,484.6 	"/>
	<polygon id="st_james" class="st11" points="764.9,435.3 763.9,435.9 763.9,438.3 743.5,448.4 750.7,462.3 764.4,461.6 
		761.7,457.7 761.8,449.7 	"/>
	<polygon id="jefferson_davis" class="st11" points="586.5,453.9 598.3,453.9 599.7,451.2 603.1,451.2 603.1,435.1 600.8,431.9 
		600.8,414.8 597.8,414.8 579.1,421.2 564.3,422.7 564.3,422.8 564.3,424.6 564.3,426.7 566.6,429.9 568.1,429.9 574,438.7 
		578,438.7 578,440.9 583,444.1 583,447.2 585.6,447.2 585.6,455 	"/>
	<polygon id="st_john_the_baptist" class="st11" points="779.1,448.3 785.8,442.1 787.3,437.7 793,433.2 793.6,430 787,424.6 
		784.3,424.6 780,427.8 776.8,435.1 770.3,435.1 768.7,434.4 765.2,450.2 765.2,456.6 768.4,461.5 776.3,461.5 776.3,461.1 
		773.3,461.1 773.3,448.3 	"/>
	<path id="st_charles" class="st11" d="M784,467h3.3l5.2,6.2l2.2,4.4h8.4V471l1.8-3.6l-0.5-0.8c-0.6-0.8-1.5-1.7-1.9-1.8
		c-1.7-0.3-4.4-1.8-4.9-2.2l-0.8-0.5l-1-26.8l-5.5,4.3l-1.5,4.2l-8.4,7.7h-3.6v5.9h2.9v4.8L784,467z"/>
	<path id="jefferson" class="st11" d="M816.6,462.6l2.4-3.1l-7.1-5.1l-2.9-6.9v-13.8c-0.8,0-1.3-0.1-1.5-0.1c-0.4,0-1.6,0-3.3-2.6
		h-2.7H799l1,29.1c1,0.6,2.4,1.2,3,1.3c1.9,0.4,3.7,2.6,4.1,3.3l1.6,2.5l-2.3,4.6v5.8h5.6v12.8l2.6,4.1l5.7,6.4
		c0.2-0.3,0.6-0.6,0.9-0.8c1-0.7,1.5-0.7,1.9-0.4v-11.9l-3-5.4l-2.1-5.2l-4.7-5.4l1.5-4.9L816.6,462.6z"/>
	<path id="st_bernard" class="st11" d="M861.5,469.5c2.3-0.2,5,0.1,7-1.1c2.2-1.3,1.7-2.5,3.2-4.7c1.1-1.7,2.6-3.3,3.8-5.1
		c1.1-1.7,3-2.9,3.8-4.2c-5.4-0.3-6.4-1-10-5.2c-4.4-5.1,1.1-4.3-0.1-9.5c-1.2-0.1-3.1-2.1-3.8-2c-1.8,0.1-2.6,2.4-4,3.6
		c-3.1,2.7-5.4,2.9-6.8,7.1c-0.8,2.4-0.3,7.2-1.9,9.3c-2.2,2.9-6.3,1.3-8.8,0.1c-2.8-1.5-7.1-3.3-9.5-5.9l-2.9,4.9l-2.1,5.5l4,3.9
		l8.6,3.8l7.8,1.2l5.7,5.2l-0.6,0.6c3.8-0.3,8.3,3.3,11.4,4.4c-0.1-5.2-6.3-4.8-9.6-6.5C850.3,471.5,857.4,469.9,861.5,469.5z"/>
	<path id="evangeline" class="st11" d="M617.3,411.3l2.9-5.4h14.5l1.2-2.2v-5.6h1.7v-14.2l-2.4-4.6l-4.9-7.6v-2.6l-5.2-0.3l-2-1.9
		h-1.3c-2.2,1-4.8,2.2-5.2,2.5c-0.6,0.4-4.5,3.4-6.7,5.2l-2.5,1.6V404h3.1v7.4L617.3,411.3L617.3,411.3z"/>
	<path id="beauregard" class="st11" d="M560.8,421.1v-1.5l0,0l0.3-16.2h13.4v-7.9h-2.6v-15.2H534l-3.9,1.6c-0.7,3.7-1.6,7.1-2.8,9.9
		c-1.3,2.9-2.7,5.6-4.2,8.1c-1.6,2.8-3.1,5.4-4.2,8.3c-1.2,3.2-0.9,4.9-0.3,7.9c0.3,1.4,0.6,3.1,0.8,5.2h12.5v-6.7h10.7v6.7h18.2
		V421.1z"/>
	<polygon id="iberville" class="st11" points="722.9,451.5 728.2,446.2 733.5,425.6 724.7,424.6 718.9,428.4 710.5,428.4 704.5,419 
		702.5,416.7 699.5,412.7 684.9,412.7 686.1,413.6 686.1,419.5 686.1,421.2 686.1,425.2 691.6,431.2 699.7,433 708,446.8 
		715.8,446.8 715.8,451.5 	"/>
	<polygon id="east_baton_rouge" class="st11" points="741.6,389.8 744.5,389.8 744.5,388.5 711.7,391.9 725.4,421.2 735.5,422.3 
		739.4,421.4 739.4,418.7 736.9,416.3 736.9,399.4 	"/>
	<polygon id="tangipahoa" class="st11" points="778.6,414.8 784.6,421.1 788.2,421.1 796.1,427.6 797.7,427.6 793.8,382.3 
		789.5,370.8 783.6,366.2 783.6,360.3 772.1,360.7 772.1,396.2 775.1,399.2 774,410.3 	"/>
	<polygon id="st_helena" class="st11" points="747.9,388.4 747.9,389.8 768.7,389.8 768.7,360.8 747.4,361.5 747,374.8 750,374.8 
		750,388.4 	"/>
	<path id="st_tammany" class="st11" d="M851,431l-4-5l-0.2-0.6c-0.5-1.1-1-2.2-1.6-3.1c-1.3-2.4-2.7-5-3.4-8.8
		c-0.3-1.6-0.5-2.9-0.6-3.9c-0.3-2.7-0.5-3.5-2.7-6.5c-1.7-2.4-3.7-4.2-5.7-6.1c-2.8-2.6-5.7-5.4-7.3-9.3l-28.1-3.8l3.8,43.7h4.9
		l0.5,0.9c0.3,0.7,0.9,1.4,1.2,1.7c1.8,0.1,8,0.3,8.8,0.3l1.7,0.1v1.5l3.6,0.3l6.3-4.9h7.3l13.9,2.4l-0.3,1.7
		C849.7,431.4,850.4,431.2,851,431z"/>
	<path id="morehouse" class="st11" d="M653,219.5l8.1-7.4h6.9l3.9-4.4l4.1-13.4l10.1-18.3v-1.7c-13.8,1.2-28.8,2.1-44.2,2.8
		l2.2,16.6v5.2l-0.9,1L653,219.5z"/>
	<path id="union" class="st11" d="M628.4,212.3l12.2-14.5V194l-2.2-16.6c-16.7,0.7-33.8,1.1-50.3,1.4l2.4,19.4h11.8L615,205v10.5
		L628.4,212.3z"/>
	<path id="bossier" class="st11" d="M532.5,247.4l1.7-2.5l2.9-8h-5.4v-22.3H529v-24.4l-5.6-4.7V179c-7.5-0.1-14.3-0.1-20-0.2
		l2.7,28.7l10,28.1l9.7,5.5l4.9,4.9v1.5L532.5,247.4z"/>
	<path id="west_carroll" class="st11" d="M689.6,174.1v2.9l-10.4,18.9l-2.2,7.2h3.6l2.6,9l4.9-1.7l11.1-37.4
		C696.1,173.5,692.9,173.8,689.6,174.1z"/>
	<path id="east_carroll" class="st11" d="M712.4,212c-0.1-0.7-0.2-1.3-0.3-1.7c-4.7-12.4-7.5-25.1-8.6-37.7c-0.1,0-0.3,0-0.4,0.1
		l-11.8,39.4v2.2h11.1L712.4,212z"/>
	<polygon id="la_salle" class="st11" points="644.1,327 644.1,332.9 648.4,332.9 648.4,305.5 645.7,305.5 645.7,275.2 625,280 
		625,283.5 622.6,286 622.6,304.8 624.6,308.7 633.8,318.8 	"/>
	<path id="de_soto" class="st11" d="M502.7,285.6l30,1l6.8-5.8v-0.6l-4-1.3l-3.8-4.9l-1.7-4.5l-9.2-16v-2.9h-0.3l-9.3-8.9h-3.7
		l-7.5,6.8l-5,8.3l-4.7,0.4l0.1,3.3c0.3,6.6,2.9,10.2,6.8,15.8c0.6,0.8,1.1,1.6,1.7,2.4C500.7,280.9,501.8,283.2,502.7,285.6z"/>
	<polygon id="west_baton_rouge" class="st11" points="705.2,414.5 707.4,417 712.4,425 717.9,425 722,422.2 709.4,395 700,409.2 
		701.2,409.2 	"/>
	<polygon id="west_feliciana" class="st11" points="717,362.5 682.6,363.6 681,364.9 681,374.4 703,382.3 708.8,388.3 710.6,382.5 
		717,372.8 	"/>
	<polygon id="allen" class="st11" points="607.1,407.4 604,407.4 604,377 586.5,377 578.4,380.3 575.4,380.3 575.4,392 578,392 
		578,406.8 564.5,406.8 564.3,419.3 578.5,417.8 597.6,411.3 602.2,411.3 607.1,409.2 	"/>
	<path id="calcasieu" class="st11" d="M539.7,453.9H565l1.4,1.5h8.1v-3.6h7.6v-1.3h-2.6v-4.6l-4.9-3.2V442h-2.4l-5.8-8.8h-1.5
		l-4-5.6v-3.3h-21.6v-6.7h-3.8v6.7h-15.8c0.3,11.1,0.4,22.5-1.6,32.4h19.7L539.7,453.9z"/>
	<polygon id="lafayette" class="st11" points="653.6,451.5 658.6,451.5 659.5,451.5 659.5,445.9 657.2,443.8 657.2,432.4 
		654.1,426.7 651.9,428.2 651.9,431 646.2,431 635.5,443.4 642.9,443.4 	"/>
	<path id="orleans" class="st11" d="M825.8,458.4l1,1l1.7-4.5l3.3-5.6l1.5,0.9c-0.7-1.5-0.8-3.1,0.2-5.1c1.7-3.3,4.5-2.7,7.3-5
		c2.3-1.9,3.8-4.9,6.1-6.8l-11.9-2.1h-5.7l-6.5,5l-8-0.8V434c-0.8,0-1.6-0.1-2.4-0.1v12.9l2.3,5.4l7.5,5.4L825.8,458.4z"/>
	<polygon id="livingston" class="st11" points="771,431.7 774.5,431.7 777.2,425.6 781.2,422.6 776.1,417.2 770.4,411.6 
		771.5,400.5 768.7,397.6 768.7,393.2 747.9,393.2 745,393.2 743.8,393.2 740.3,400.3 740.3,414.8 742.3,416.6 763.6,432.1 
		767.4,430 	"/>
	<path id="st_martin" class="st11" d="M728.7,470.7h-7.4l-6.5-12c-0.3-1.3-0.6-2.5-0.9-3.8c-0.1-1.9-0.2-3.8-0.3-5.8
		c-2.9-0.4-5.8-0.8-8.8-1.3l-7.2-11.8l-7.7-1.7l-7.2-7.9v-3.6c-0.1-2.5-0.1-5-0.1-7.5c-0.8-1-1.5-1.9-2.2-2.9
		c-1,0.3-1.9,0.5-2.9,0.8c1.3,2.8,2.6,5.6,4,8.4c-1.9,0.4-3.8,0.8-5.8,1.2c-2.6,0-5.2,0-7.8,0c-0.7-1.1-1.3-2.2-2-3.3h-0.6l-3.1,2
		l-1.9,1l-3.2,2.2l3.6,6.7v10.7l2.4,2.1v3.4l14.3-4.4l2.4,0.1l24.5,4.8c2.9,0.6,5.7,1,8.6,1.6c0.1,2,0.2,4,0.3,6
		c-1.7,2.4-3.3,4.8-5,7.2c-0.8,0-1.5,0-2.2,0l0.8,1.9l5.4,7.4l7.3,3.4l8.9,2l1.6,2.1h1.3v-7.3L728.7,470.7z"/>
	<path id="lafourche" class="st11" d="M826,516.6c-2.8-0.3-6.2,4.6-6.2-0.8c0-4,4-3.9,2.2-8.1c-0.6-1.3-2.4-3.1-2.4-5l-1.3,1.1
		l-6.5-7.4l-3.2-5.1V481h-16.1l-3.1-6.1l-3.8-4.5h-3.1l-5.2-5.6h-9.7l-16.7,0.8l-1,2.2l-5.2,9.3l9-4.9h4.4l37.4,38.4v6.3
		c3.6,0.4,8.5,5.8,9.7,8.6c3.1,7.1-1.4,9.2-7.8,12.2c2.3,1.9,6.8-1.1,9.3-1.9c6.5-2.1,9.4-6.9,14-11.6c1.3-1.4,1.3-2.2,3.6-3.2
		C826.3,520,831.9,517.1,826,516.6z"/>
	<path id="plaquemines" class="st11" d="M903.6,515.1c-1.3,3.6-3.8-1.2-5.1-2.4c-2-2-4.5-3.4-7-4.7c-2.7-1.3-5.4-3.1-8.1-4.2
		c-3.2-1.3-6.6-0.7-10.1-0.9c-6.1-0.3-12.8-2.4-17.8-6.2c-2.2-1.7-7-4.7-7.1-7.8c-0.1-1.5,1.7-7.5,2.4-9c0.5-1,1.1-1.7,1.7-2.2
		l-4-3.6l-7.4-1.2l-9.5-4.4l-7.2-7l-1.9-0.5l-2.6,3.4l-1.3,3.5l-0.9,3l4,4.7l2.2,5.2l3.3,6.1v14h-1.7c2.1,0.7,1,1.3,3.7,0.5
		s4.5-5.6,7.5-4.4c2.7,1.1,1.9,6.1,2.3,8.3c0.7,4.9,6.5,6.7,10.7,7.2c6.1,0.8,10,2.2,15.8,4.7c2.7,1.2,5.2,2,7.2,4.1
		c2.3,2.3,3,5.4,5.9,7.3c2.8,1.7,5.6,1.7,9,1.9c3.5,0.3,5,3.2,7.8,3.4c6.5,0.6,8.8-9.9,14.3-11.7C908.3,520.1,906,514.4,903.6,515.1
		z"/>
	<path id="terrebonne" class="st11" d="M791.9,517.2V512l-35.4-36.3h-2l-13.2,7.2l-7.4,6.8l-13.5,13.6c1,0.5,1.9,1.1,2.4,1.9
		c1.7,2.5,0.1,7.1-1,9.3c-1.2,2.2-5.2,4.5-5.1,6.6c0.1,4,10.8,7.6,13.4,9c9.4,5.2,24.9,14.5,36.3,9.3c3.1-1.4,4.9-3.6,6.1-6.8
		c1.1-2.7,0.8-6.5,3.6-7.8c2.4-1.2,7.9-0.1,10.5-0.8c1.2-0.3,3.6-0.1,4.6-1.3c1.3-1.5,0.2-2.6,0.8-4.2c0.3-0.9,0.9-1.5,1.5-1.7
		L791.9,517.2L791.9,517.2z"/>
	<path id="st_mary" class="st11" d="M717.5,501.5l13.5-13.6v-4.6h-2.9l-1.9-2.4L718,479l-8.3-3.9l-6.3-8.7l-1.3-3.4h-13.2
		l-10.8,14.5c1.5,0.1,2.8,1,5.2,2c3.2,1.3,6.3,0.7,8.8,3.2c2,2,2.6,5.6,3.3,8.1c0.2,0.8,0.7,4.6,1,5.2c1.3,1.7,1.7,0.9,3.6,1.5
		c2.5,0.9,4.8,1.9,7.4,2.8c2.6,0.9,7.6,1.2,11.4,2.4L717.5,501.5z"/>
	<path id="vermilion" class="st11" d="M665.7,492.1c-7.6,0-11.8,4.7-17.6-1.9c-2-2.3-4.2-4.5-2.6-7.4c1.1-1.9,6.3-4.3,8.5-4.9
		c1-0.3,3.1-0.5,5.5-0.5v-9.5h-2.6V455h-4.4l-10.7-8.1h-9.2l-2.1,2.6l-6.3,8.1h-13.7v-2.9h-3.8v15.5h4v27.6H609
		c3.9,0.6,8.5,0.2,12.2,1.6c1.6,0.6,2.4,2,4.2,2.4c2,0.5,4.9,0,7,0c6.5,0,10.9-3.9,17.2-4.3c6.5-0.4,10.8,2.2,16.4,4.2
		c5,1.9,10.8,5.1,14.1-1.5C683.9,491.8,671.4,492.1,665.7,492.1z"/>
	<path id="cameron" class="st11" d="M607.1,473.6h-4v-19h-1.3l-1.5,2.6h-12.1l-1.2,1.5h-22.1l-1.4-1.5h-21.9l-2,3.1h-22.4
		c-0.6,2.4-1.4,4.8-2.4,7c-0.6,1.4-1.3,2.8-1.9,4.2c-2.2,4.4-4,8.1-3.6,12.3v0.2l-0.1,4.7c5.3-2.2,10.7-4,16.5-4.5
		c7.3-0.7,14.8,0.4,21.8-1.6c7.6-2.2,14.7-2.9,22.1,0.1c8.8,3.6,17.1,8.5,26,11.8c3.8,1.4,7.7,2.2,11.6,2.9v-23.7L607.1,473.6
		L607.1,473.6z"/>
	<polygon id="east_feliciana" class="st11" points="744.5,384.9 746.5,384.9 746.5,378.2 743.5,378.2 744,361.6 720.4,362.4 
		720.4,373.8 713.6,384.3 712.4,388.4 744.5,385 	"/>
	<path id="sabine" class="st11" d="M537.4,329.8H550V319h-7.6v-18.7h-1.8v2.6h-9V290l-27.7-0.9c0.9,3.2,1.5,6.3,2,9.4
		c0.4,2.6,0.9,5.3,1.6,8c1,4.2,2.7,6,5.8,9.3c0.8,0.8,1.6,1.7,2.4,2.6c5,5.6,8.8,12,11.6,19.3L537.4,329.8z"/>
	<polygon id="ascension" class="st11" points="760.5,436.1 760.5,434.2 742.9,421.4 742.9,424.2 737.1,425.5 732,445.5 740.8,445.8 
			"/>
	<polygon id="st_landry" class="st11" points="640.7,418.3 645.5,425.4 646.6,427.6 648.4,427.6 648.4,426.4 658.5,419.7 
		660.4,418.7 664.2,416.2 667.7,416.2 669.8,419.5 677.6,419.5 676.2,416.8 671,413 675.5,410 675.5,392 667.3,380.3 639.5,380.3 
		641,383.1 641,401.6 639.3,401.6 639.3,404.6 636.7,409.5 622.2,409.5 621.2,411.3 634.9,411.3 	"/>
	<path id="rapides" class="st11" d="M587.8,373.6h17.4l2.7-1.7c0.5-0.3,5.8-4.7,6.8-5.3s4.9-2.4,6.1-2.9l0.3-0.1h3.4l2.1,1.9
		l4.7,0.2l1.3-1.2v-19.6h-3l0.4-13.4h8.1v2.4l2.5-0.6v-4.7l-8.6-6.9h-7.7l-31.9,7.9v-7.9h-1.6l-13.2,9.7l7.7,5.8L587.8,373.6z"/>
	<path id="vernon" class="st11" d="M584.3,374.2l-2.5-35l-7.9-5.9h-24h-11.4l-10.2,7.9c1,3.5,1.9,7.1,2.4,10.9c1,7,1,16.9-0.2,25.8
		l2.6-1h44.4L584.3,374.2z"/>
	<polygon id="jackson" class="st11" points="621.5,241 615.7,233.7 611.6,233.7 611.6,226.7 597.3,226.7 588.7,231.6 585.4,255.8 
		601.7,255.7 606.4,253 621.5,253 	"/>
	<polygon id="ouachita" class="st11" points="643.2,240.1 650.8,224.6 650.8,222.7 640.7,203 630.4,215.4 615,219.1 615,230.3 
		617.3,230.3 625.3,240.1 	"/>
	<path id="caddo" class="st11" d="M493,253.4l4.5-7.4l8.6-7.9h6.4l9.4,9l5.2,0.1l-3.7-3.7l-10.3-5.7l-10.5-29.9l-2.8-29.3
		c-5.4-0.1-9.6-0.1-12.6-0.2v18.5l2.9,56.7L493,253.4z"/>
	<polygon id="bienville" class="st11" points="585.2,231 574.9,217.8 553.6,217.8 554.1,220.4 559.8,230.5 549,236.9 540.7,236.9 
		537.1,246.7 536.3,247.8 552.8,256 581.9,255.8 	"/>
	<polygon id="caldwell" class="st11" points="654.2,260.9 656.6,255.8 643.6,243.6 625,243.6 625,254.6 625,256.4 625,276.5 
		654.2,269.7 	"/>
	<path id="tensas" class="st11" d="M693.8,288.3l1.4,0.8c0.3-0.5,0.5-1,0.8-1.5c2.1-3.6,5.6-7.8,9.2-12.2
		c6.1-7.2,13.6-16.3,13.6-22.3c0-1.4-0.4-2.3-0.9-3.6c-0.4-1-0.9-2.3-1.2-3.8l-0.1-0.1h-6.1l-6.4,4.9l-15.3,0.3l-2.6,20l-2.2,0.9v7
		l5.2,9.6L693.8,288.3L693.8,288.3z"/>
	<path id="madison" class="st11" d="M722.6,230.3c0.1-1.3,0.1-1.4-2.4-2.9c-1.7-1-3.9-2.3-5.5-4.7c-1.5-2.2-1.9-4.8-2.1-7.2
		l-9.8,2.3h-11.6v14.5H691l-2,15.2l13.6-0.3l6.4-4.9h7.3c0.1-0.5,0.1-1,0.2-1.5c0.6-3.1,2.4-5.3,3.9-7.1
		C721.6,232.4,722.6,231.2,722.6,230.3z"/>
	<polygon id="franklin" class="st11" points="667,277.5 670.7,277.5 676.4,269.3 681.6,268.9 682.8,268.4 687.6,232.2 677.6,232.2 
		668.4,240.6 663.1,252.1 659.2,253.5 660.8,255 657.6,261.7 657.6,269.2 662,269.2 	"/>
	<polygon id="lincoln" class="st11" points="596.4,223.2 611.6,223.2 611.6,207 601.5,201.6 589.9,201.6 584.8,208.8 578,216.1 
		587.5,228.3 	"/>
	<polygon id="richland" class="st11" points="656.3,250.9 660.5,249.3 665.7,238.5 676.3,228.8 687.8,228.8 687.9,214.3 
		680.9,216.6 678,206.5 675.9,206.5 675,209.5 669.6,215.6 662.4,215.6 654.2,223.1 654.2,225.4 646.4,241.4 	"/>
	<path id="claiborne" class="st11" d="M582.1,206.6l5.1-7.2l-2.5-20.7c-12.8,0.1-25.1,0.2-36.6,0.2c-0.3,0-0.5,0-0.8,0l1.9,11.3
		l3.8,23.9h22L582.1,206.6z"/>
	<path id="webster" class="st11" d="M541.9,233.5h6.1l7.1-4.2l-4.5-8.1l-4.9-30.3l-2-12c-5.9,0-11.6,0-16.9-0.1v4.9l5.6,4.7V211h2.6
		v22.5h4.4H541.9z"/>
</g>
<g id="Layer_2_1_">
	<circle id="plaquemines_circles_2_" class="st12" cx="855.2" cy="504.7" r="10.4"/>
	<circle id="lafourche_circles_2_" class="st12" cx="796" cy="494" r="10.4"/>
	<circle id="terrebonne_circles_2_" class="st12" cx="754.6" cy="511" r="10.4"/>
	<circle id="st_bernard_circles_2_" class="st12" cx="857.3" cy="460.8" r="10.4"/>
	<circle id="jefferson_circles_2_" class="st12" cx="810.9" cy="456.3" r="10.4"/>
	<circle id="orleans_circles_2_" class="st12" cx="824.7" cy="442.1" r="10.4"/>
	<circle id="st_charles_circles_2_" class="st12" cx="789.9" cy="456.1" r="10.4"/>
	<circle id="st_john_the_baptist_circles_2_" class="st12" cx="776.7" cy="437.5" r="10.4"/>
	<circle id="st_james_circles_2_" class="st12" cx="755.6" cy="451.9" r="10.4"/>
	<circle id="assumption_circles_2_" class="st12" cx="736.4" cy="460.5" r="10.4"/>
	<circle id="st_mary_circles_2_" class="st12" cx="704.3" cy="484.4" r="10.4"/>
	<circle id="iberia_circles_2_" class="st12" cx="674.8" cy="458.5" r="10.4"/>
	<circle id="vermilion_circles_2_" class="st12" cx="634.4" cy="474.3" r="10.4"/>
	<circle id="cameron_circles_2_" class="st12" cx="568.1" cy="469.9" r="10.4"/>
	<circle id="ascension_circles_2_" class="st12" cx="744.6" cy="433.6" r="10.4"/>
	<circle id="iberville_circles_2_" class="st12" cx="711" cy="435.9" r="10.4"/>
	<circle id="west_baton_rouge_circles_2_" class="st12" cx="711" cy="411.3" r="10.4"/>
	<circle id="st_martin_circles_2_" class="st12" cx="677.3" cy="432.7" r="10.4"/>
	<circle id="lafayette_circles_2_" class="st12" cx="649.7" cy="438.9" r="10.4"/>
	<circle id="acadia_circles_2_" class="st12" cx="622.6" cy="432.2" r="10.4"/>
	<circle id="jefferson_davis_circles_2_" class="st12" cx="589.8" cy="433.7" r="10.4"/>
	<circle id="calcasieu_circles_2_" class="st12" cx="543.9" cy="439.5" r="10.4"/>
	<circle id="east_baton_rouge_circles_2_" class="st12" cx="727.4" cy="403.7" r="10.4"/>
	<circle id="livingston_circles_2_" class="st12" cx="757.2" cy="410.6" r="10.4"/>
	<circle id="st_tammany_circles_2_" class="st12" cx="817.6" cy="408.5" r="10.4"/>
	<circle id="washington_circles_2_" class="st12" cx="810.4" cy="370" r="10.4"/>
	<circle id="tangipahoa_circles_2_" class="st12" cx="784.5" cy="394.2" r="10.4"/>
	<circle id="st_helena_circles_2_" class="st12" cx="758.7" cy="374.5" r="10.4"/>
	<circle id="east_feliciana_circles_2_" class="st12" cx="732.6" cy="373.4" r="10.4"/>
	<circle id="west_feliciana_circles_2_" class="st12" cx="700.3" cy="371" r="10.4"/>
	<circle id="pointe_coupee_circles_2_" class="st12" cx="691.2" cy="394.2" r="10.4"/>
	<circle id="st_landry_circles_2_" class="st12" cx="657.2" cy="399.7" r="10.4"/>
	<circle id="evangeline_circles_2_" class="st12" cx="622" cy="388.3" r="10.4"/>
	<circle id="allen_circles_2_" class="st12" cx="591.6" cy="397.4" r="10.4"/>
	<circle id="beauregard_circles_2_" class="st12" cx="546.4" cy="398" r="10.4"/>
	<circle id="avoyelles_circles_1_" class="st12" cx="653.4" cy="358.6" r="10.4"/>
	<circle id="rapides_circles_2_" class="st12" cx="607.7" cy="347.9" r="10.4"/>
	<circle id="vernon_circles_2_" class="st12" cx="556.1" cy="354.8" r="10.4"/>
	<circle id="concordia_circles_2_" class="st12" cx="674.2" cy="317.9" r="10.4"/>
	<circle id="catahoula_circles_2_" class="st12" cx="660" cy="291.1" r="10.4"/>
	<circle id="la_salle_circles_2_" class="st12" cx="634.3" cy="300.1" r="10.4"/>
	<circle id="grant_circles_2_" class="st12" cx="605.6" cy="308.7" r="10.4"/>
	<circle id="sabine_circles_2_" class="st12" cx="527.4" cy="313.7" r="10.4"/>
	<circle id="natchitoches_circles_2_" class="st12" cx="558.9" cy="298.2" r="10.4"/>
	<circle id="tensas_circles_2_" class="st12" cx="699" cy="263.1" r="10.4"/>
	<circle id="winn_circles_2_" class="st12" cx="599.4" cy="273.6" r="10.4"/>
	<circle id="franklin_circles_2_" class="st12" cx="673.7" cy="254.6" r="10.4"/>
	<circle id="caldwell_circles_2_" class="st12" cx="637.8" cy="257.9" r="10.4"/>
	<circle id="red_river_circles_2_" class="st12" cx="542.6" cy="264.5" r="10.4"/>
	<circle id="jackson_circles_2_" class="st12" cx="602.5" cy="240.9" r="10.4"/>
	<circle id="bienville_circles_2_" class="st12" cx="568" cy="240.3" r="10.4"/>
	<circle id="richland_circles_2_" class="st12" cx="666.2" cy="226.9" r="10.4"/>
	<circle id="ouachita_circles_2_" class="st12" cx="634.2" cy="226.1" r="10.4"/>
	<circle id="lincoln_circles_2_" class="st12" cx="595.8" cy="212.7" r="10.4"/>
	<circle id="de_soto_circles_2_" class="st12" cx="511.1" cy="265.9" r="10.4"/>
	<circle id="madison_circles_2_" class="st12" cx="704" cy="230.9" r="10.4"/>
	<circle id="caddo_circles_2_" class="st12" cx="497.7" cy="222.5" r="10.4"/>
	
		<ellipse id="bossier_circles_2_" transform="matrix(0.5824 -0.8129 0.8129 0.5824 50.018 505.5664)" class="st12" cx="517.1" cy="204.1" rx="10.4" ry="10.4"/>
	<circle id="webster_circles_2_" class="st12" cx="540.3" cy="206" r="10.4"/>
	<circle id="claiborne_circles_2_" class="st12" cx="568.4" cy="195.6" r="10.4"/>
	<circle id="union_circles_2_" class="st12" cx="617.5" cy="190" r="10.4"/>
	<circle id="morehouse_circles_2_" class="st12" cx="660.7" cy="190.4" r="10.4"/>
	<circle id="west_carroll_circles_2_" class="st12" cx="685.4" cy="193.5" r="10.4"/>
	<circle id="east_carroll_circles_2_" class="st12" cx="701.8" cy="201.6" r="10.4"/>
	<text id="plaquemines_numbers_2_" transform="matrix(1 2.630000e-03 -2.630000e-03 1 849.5834 507.5054)" class="st13 st3 st14">60</text>
	<text id="lafourche_numbers_2_" transform="matrix(1 2.630000e-03 -2.630000e-03 1 790.3387 496.8091)" class="st13 st3 st14">60</text>
	<text id="terrebonne_numbers_2_" transform="matrix(1 2.630000e-03 -2.630000e-03 1 748.9305 513.7874)" class="st13 st3 st14">60</text>
	<text id="st_bernard_numbers_2_" transform="matrix(1 2.630000e-03 -2.630000e-03 1 851.6721 463.5692)" class="st13 st3 st14">60</text>
	<text id="jefferson_numbers_2_" transform="matrix(1 2.630000e-03 -2.630000e-03 1 805.294 459.1547)" class="st13 st3 st14">60</text>
	<text id="orleans_numbers_2_" transform="matrix(1 2.630000e-03 -2.630000e-03 1 819.04 444.933)" class="st13 st3 st14">60</text>
	<text id="st_charles_numbers_2_" transform="matrix(1 2.630000e-03 -2.630000e-03 1 784.2485 458.9228)" class="st13 st3 st14">60</text>
	
		<text id="st_john_the_baptist_numbers_2_" transform="matrix(1 2.630000e-03 -2.630000e-03 1 771.0754 440.3428)" class="st13 st3 st14">60</text>
	<text id="st_james_numbers_2_" transform="matrix(1 2.630000e-03 -2.630000e-03 1 749.9673 454.7405)" class="st13 st3 st14">60</text>
	<text id="assumption_numbers_2_" transform="matrix(1 2.630000e-03 -2.630000e-03 1 730.7961 463.2687)" class="st13 st3 st14">60</text>
	<text id="st_mary_numbers_2_" transform="matrix(1 2.630000e-03 -2.630000e-03 1 698.6665 487.2294)" class="st13 st3 st14">60</text>
	<text id="iberia_numbers_2_" transform="matrix(1 2.630000e-03 -2.630000e-03 1 669.1567 461.3187)" class="st13 st3 st14">60</text>
	<text id="vermilion_numbers_2_" transform="matrix(1 2.630000e-03 -2.630000e-03 1 628.7755 477.0862)" class="st13 st3 st14">60</text>
	<text id="cameron_numbers_2_" transform="matrix(1 2.630000e-03 -2.630000e-03 1 562.4816 472.6829)" class="st13 st3 st14">60</text>
	<text id="ascension_numbers_2_" transform="matrix(1 2.630000e-03 -2.630000e-03 1 738.9247 436.3651)" class="st13 st3 st14">60</text>
	<text id="iberville_numbers_2_" transform="matrix(1 2.630000e-03 -2.630000e-03 1 705.3218 438.7054)" class="st13 st3 st14">60</text>
	
		<text id="west_baton_rouge_numbers_2_" transform="matrix(1 2.630000e-03 -2.630000e-03 1 705.3788 414.1572)" class="st13 st3 st14">60</text>
	<text id="st_martin_numbers_2_" transform="matrix(1 2.630000e-03 -2.630000e-03 1 671.6011 435.4761)" class="st13 st3 st14">60</text>
	<text id="lafayette_numbers_2_" transform="matrix(1 2.630000e-03 -2.630000e-03 1 644.0208 441.7225)" class="st13 st3 st14">60</text>
	<text id="acadia_numbers_2_" transform="matrix(1 2.630000e-03 -2.630000e-03 1 616.9009 435.0396)" class="st13 st3 st14">60</text>
	
		<text id="jefferson_davis_numbers_2_" transform="matrix(1 2.630000e-03 -2.630000e-03 1 584.1165 436.5211)" class="st13 st3 st14">60</text>
	<text id="calcasieu_numbers_2_" transform="matrix(1 2.630000e-03 -2.630000e-03 1 538.2172 442.3505)" class="st13 st3 st14">60</text>
	
		<text id="east_baton_rouge_numbers_2_" transform="matrix(1 2.630000e-03 -2.630000e-03 1 721.7533 406.5159)" class="st13 st3 st14">60</text>
	<text id="livingston_numbers_2_" transform="matrix(1 2.630000e-03 -2.630000e-03 1 751.5341 413.3719)" class="st13 st3 st14">60</text>
	<text id="st_tammany_numbers_2_" transform="matrix(1 2.630000e-03 -2.630000e-03 1 811.9564 411.337)" class="st13 st3 st14">60</text>
	<text id="washington_numbers_2_" transform="matrix(1 2.630000e-03 -2.630000e-03 1 804.7755 372.7923)" class="st13 st3 st14">60</text>
	<text id="tangipahoa_numbers_2_" transform="matrix(1 2.630000e-03 -2.630000e-03 1 778.8687 396.9835)" class="st13 st3 st14">60</text>
	<text id="st_helena_numbers_2_" transform="matrix(1 2.630000e-03 -2.630000e-03 1 753.0687 377.3272)" class="st13 st3 st14">60</text>
	<text id="east_feliciana_numbers_2_" transform="matrix(1 2.630000e-03 -2.630000e-03 1 726.985 376.1924)" class="st13 st3 st14">60</text>
	
		<text id="west_feliciana_numbers_2_" transform="matrix(1 2.630000e-03 -2.630000e-03 1 694.6753 373.8057)" class="st13 st3 st14">60</text>
	<text id="pointe_coupee_numbers_2_" transform="matrix(1 2.630000e-03 -2.630000e-03 1 685.5584 397.003)" class="st13 st3 st14">60</text>
	<text id="st_landry_numbers_2_" transform="matrix(1 2.630000e-03 -2.630000e-03 1 651.548 402.5213)" class="st13 st3 st14">60</text>
	<text id="evangeline_numbers_2_" transform="matrix(1 2.630000e-03 -2.630000e-03 1 616.36 391.0804)" class="st13 st3 st14">60</text>
	<text id="allen_numbers_2_" transform="matrix(1 2.630000e-03 -2.630000e-03 1 585.9286 400.181)" class="st13 st3 st14">60</text>
	<text id="beauregard_numbers_2_" transform="matrix(1 2.630000e-03 -2.630000e-03 1 540.7073 400.7735)" class="st13 st3 st14">60</text>
	<text id="avoyelles_numbers_1_" transform="matrix(1 2.630000e-03 -2.630000e-03 1 647.78 361.3814)" class="st13 st3 st14">60</text>
	<text id="rapides_numbers_2_" transform="matrix(1 2.630000e-03 -2.630000e-03 1 602.0588 350.6851)" class="st13 st3 st14">60</text>
	<text id="vernon_numbers_2_" transform="matrix(1 2.630000e-03 -2.630000e-03 1 550.4758 357.5596)" class="st13 st3 st14">60</text>
	<text id="concordia_numbers_2_" transform="matrix(1 2.630000e-03 -2.630000e-03 1 668.5472 320.6734)" class="st13 st3 st14">60</text>
	<text id="catahoula_numbers_2_" transform="matrix(1 2.630000e-03 -2.630000e-03 1 654.3238 293.9344)" class="st13 st3 st14">60</text>
	<text id="la_salle_numbers_2_" transform="matrix(1 2.630000e-03 -2.630000e-03 1 628.6512 302.9332)" class="st13 st3 st14">60</text>
	<text id="grant_numbers_2_" transform="matrix(1 2.630000e-03 -2.630000e-03 1 599.9883 311.5257)" class="st13 st3 st14">60</text>
	<text id="sabine_numbers_2_" transform="matrix(1 2.630000e-03 -2.630000e-03 1 521.7391 316.5555)" class="st13 st3 st14">60</text>
	<text id="natchitoches_numbers_2_" transform="matrix(1 2.630000e-03 -2.630000e-03 1 553.2794 300.9778)" class="st13 st3 st14">60</text>
	<text id="tensas_numbers_2_" transform="matrix(1 2.630000e-03 -2.630000e-03 1 693.3818 265.8961)" class="st13 st3 st14">60</text>
	<text id="winn_numbers_2_" transform="matrix(1 2.630000e-03 -2.630000e-03 1 593.7599 276.4258)" class="st13 st3 st14">60</text>
	<text id="franklin_numbers_2_" transform="matrix(1 2.630000e-03 -2.630000e-03 1 668.0491 257.3619)" class="st13 st3 st14">60</text>
	<text id="caldwell_numbers_2_" transform="matrix(1 2.630000e-03 -2.630000e-03 1 632.148 260.6907)" class="st13 st3 st14">60</text>
	<text id="red_river_numbers_2_" transform="matrix(1 2.630000e-03 -2.630000e-03 1 536.9144 267.2691)" class="st13 st3 st14">60</text>
	<text id="jackson_numbers_2_" transform="matrix(1 2.630000e-03 -2.630000e-03 1 596.8174 243.6895)" class="st13 st3 st14">60</text>
	<text id="bienville_numbers_2_" transform="matrix(1 2.630000e-03 -2.630000e-03 1 562.3961 243.065)" class="st13 st3 st14">60</text>
	<text id="richland_numbers_2_" transform="matrix(1 2.630000e-03 -2.630000e-03 1 660.5645 229.7186)" class="st13 st3 st14">60</text>
	<text id="ouachita_numbers_2_" transform="matrix(1 2.630000e-03 -2.630000e-03 1 628.5645 228.8985)" class="st13 st3 st14">60</text>
	<text id="lincoln_numbers_2_" transform="matrix(1 2.630000e-03 -2.630000e-03 1 590.1675 215.4783)" class="st13 st3 st14">60</text>
	<text id="madison_numbers_2_" transform="matrix(1 2.630000e-03 -2.630000e-03 1 698.3046 233.7359)" class="st13 st3 st14">60</text>
	<text id="de_soto_numbers_2_" transform="matrix(1 2.630000e-03 -2.630000e-03 1 505.4433 268.7505)" class="st13 st3 st14">60</text>
	<text id="caddo_numbers_2_" transform="matrix(1 2.630000e-03 -2.630000e-03 1 492.0504 225.3043)" class="st13 st3 st14">60</text>
	<text id="bossier_numbers_2_" transform="matrix(1 2.630000e-03 -2.630000e-03 1 511.4854 206.9332)" class="st13 st3 st14">60</text>
	<text id="webster_numbers_2_" transform="matrix(1 2.630000e-03 -2.630000e-03 1 534.6385 208.8069)" class="st13 st3 st14">60</text>
	<text id="claiborne_numbers_2_" transform="matrix(1 2.630000e-03 -2.630000e-03 1 562.7867 198.4068)" class="st13 st3 st14">60</text>
	<text id="union_numbers_1_" transform="matrix(1 2.630000e-03 -2.630000e-03 1 611.8478 192.7957)" class="st13 st3 st14">60</text>
	<text id="morehouse_numbers_2_" transform="matrix(1 2.630000e-03 -2.630000e-03 1 655.0109 193.2403)" class="st13 st3 st14">60</text>
	<text id="west_carroll_numbers_2_" transform="matrix(1 2.630000e-03 -2.630000e-03 1 679.7708 196.2825)" class="st13 st3 st14">60</text>
	<text id="east_carroll_numbers_2_" transform="matrix(1 2.630000e-03 -2.630000e-03 1 696.1647 204.3924)" class="st13 st3 st14">60</text>
</g>
<g id="table_data">
	<text transform="matrix(1 0 0 1 26.8119 717.1666)" class="st7 st3 st5">Confirmed Cases</text>
	<text transform="matrix(1 0 0 1 26.8119 761.0984)" class="st7 st3 st5">Deaths</text>
	<text id="current_date" transform="matrix(1 0 0 1 210.3416 672.8844)" class="st7 st3 st5">6 Apr. 2020</text>
	<text id="previous_date" transform="matrix(1 0 0 1 345.1198 672.8844)" class="st7 st3 st5">5 Apr. 2020</text>
	<text id="growth_rate__x25_" transform="matrix(1 0 0 1 464.1881 672.8844)" class="st7 st3 st5">Growth Rate %</text>
	<text transform="matrix(1 0 0 1 679.4631 672.8844)" class="st7 st3 st5">Total Confirmed Cases</text>
	<text id="current_сases" transform="matrix(1 0 0 1 233.1972 720.9186)" class="st15 st3 st9">783</text>
	<text id="previous_deaths" transform="matrix(1 0 0 1 369.9336 765.3981)" class="st15 st3 st9">14</text>
	<text id="current_deaths" transform="matrix(1 0 0 1 236.7175 764.4182)" class="st15 st3 st9">15</text>
	<text id="total_cases" transform="matrix(1 0 0 1 720.0848 750.0618)" class="st16 st3 st17">783</text>
	<text id="previous_сases" transform="matrix(1 0 0 1 367.9974 720.9186)" class="st15 st3 st9">673</text>
	<text id="cases_growth_rate" transform="matrix(1 0 0 1 497.9108 722.4548)" class="st15 st3 st9">16 %</text>
	<text id="death_growth_rate" transform="matrix(1 0 0 1 502.3101 766.9341)" class="st15 st3 st9">7 %</text>
</g>
<g id="TYPES_1_">
	<g>
		<circle id="_x33__1_" class="st12" cx="797.8" cy="-40.5" r="14.8"/>
		<text transform="matrix(1 0 0 1 784.7301 -36.295)" class="st1 st3" style="font-size:10px;">1,000</text>
	</g>
	<g>
		<circle id="_x32__1_" class="st12" cx="760.2" cy="-40" r="11.2"/>
		<text transform="matrix(1 0 0 1 751.5341 -36.2949)" class="st1 st3" style="font-size:10px;">100</text>
	</g>
	<g>
		<circle id="_x31__3_" class="st12" cx="701" cy="-38.2" r="4.8"/>
		<text transform="matrix(1 0 0 1 698.935 -35.5507)" class="st1 st3" style="font-size:8px;">9</text>
	</g>
	<g>
		<circle id="_x31__1_" class="st12" cx="726.5" cy="-38.5" r="7.5"/>
		<text transform="matrix(1 0 0 1 721.7532 -35.5509)" class="st1 st3" style="font-size:8px;">10</text>
	</g>
	<g>
		<circle id="_x34__1_" class="st12" cx="840.1" cy="-38.5" r="18.7"/>
		<text transform="matrix(1 0 0 1 824.2518 -35.295)" class="st1 st3" style="font-size:10px;">10,000</text>
	</g>
</g>
	<image style="overflow:visible;" width="160" height="104" id="LOGO" xlink:href="../maps/SR Logos/Louisiana.png"  transform="matrix(0.4392 0 0 0.4392 838.7281 5.0807)">
	</image>
</svg>
