<?xml version="1.0" encoding="utf-8"?>
<!-- Generator: Adobe Illustrator 24.1.2, SVG Export Plug-In . SVG Version: 6.00 Build 0)  -->
<svg version="1.1" id="Layer_1" xmlns="http://www.w3.org/2000/svg" xmlns:xlink="http://www.w3.org/1999/xlink" x="0px" y="0px"
	 viewBox="0 0 916.5 609.2" style="enable-background:new 0 0 916.5 609.2;" xml:space="preserve">
<style type="text/css">
	.st0{fill:#F5FBFE;}
	.st1{fill:#DDEEFA;}
	.st2{fill:#255078;}
	.st3{font-family:'Georgia';}
	.st4{font-size:18px;}
	.st5{font-size:16px;}
	.st6{fill:#4C4B4D;}
	.st7{font-family:'ArialMT';}
	.st8{font-size:14px;}
	.st9{fill:#AED9F4;}
	.st10{fill:#CD483B;}
	.st11{fill:#FFFFFF;}
	.st12{font-size:7.5661px;}
	.st13{fill:#4C4B4C;}
	.st14{fill:#DB3029;}
	.st15{font-size:36px;}
</style>
<g id="Texts">
	<polygon id="blue_bg" class="st0" points="0,473.8 0,510.8 0,520.4 0,609.2 173.5,609.2 173.5,520.4 915,520.4 915,473.8 	"/>
	<path id="line_bg" class="st1" d="M916.5,0H0l0,0v474.4v2v42.9v2v42.9v2v42.9l0,0h579.8l0,0H913l0,0h3.5V0z M913,56.8v417.6H578.4
		l-0.6-0.3v0.3H443.6l-0.6-0.3v0.3H3V56.8H913z M913,476.4v42.9H579.8v-42.9H913z M445.1,519.4v-42.9h132.8v42.9H445.1z
		 M577.8,521.4v42.9H445.1v-42.9H577.8z M310.3,519.4v-42.9h132.8v42.9H310.3z M443.1,521.4v42.9H310.3v-42.9H443.1z M175.5,519.4
		v-42.9h132.8v42.9H175.5z M308.3,521.4v42.9H175.5v-42.9H308.3z M173.5,476.4v42.9H3v-42.9H173.5z M173.5,521.4v42.9H3v-42.9H173.5
		z M3,566.3h170.5v39.9H3V566.3z M175.5,566.3h132.8v39.9H175.5V566.3z M310.3,566.3h132.8v39.9H310.3V566.3z M445.1,566.3h132.8
		v39.9H445.1V566.3z M579.8,521.4H913v84.8H579.8V521.4z"/>
	<text id="title" transform="matrix(1 0 0 1 32.8483 35.8372)" class="st2 st3 st4">COVID-19 in Maryland on</text>
	<text id="date" transform="matrix(1 0 0 1 247.4693 35.8372)" class="st2 st3 st4">April 27th, 2020</text>
	<text id="confirmed" transform="matrix(1 0 0 1 32.8485 154.2623)" class="st2 st3 st5">State Confirmed Cases By County</text>
	<text transform="matrix(1 0 0 1 32.8483 202.1082)" class="st6 st7 st8">Allegany  15</text>
	<text transform="matrix(1 0 0 1 32.8481 228.324)" class="st6 st7 st8">Anne Arundel  13</text>
	<text transform="matrix(1 0 0 1 32.8481 254.5396)" class="st6 st7 st8">Baltimore  9</text>
	<text transform="matrix(1 0 0 1 32.8481 280.7542)" class="st6 st7 st8">Baltimore City  6</text>
	<text transform="matrix(1 0 0 1 32.8481 306.97)" class="st6 st7 st8">Calvert  6</text>
	<text transform="matrix(1 0 0 1 32.8481 333.1855)" class="st6 st7 st8">Caroline  5</text>
	<text transform="matrix(1 0 0 1 32.8481 359.4)" class="st6 st7 st8">Carroll  4</text>
	<text transform="matrix(1 0 0 1 32.8481 385.6165)" class="st6 st7 st8">Cecil  3</text>
	<text transform="matrix(1 0 0 1 173.5 202.1082)" class="st6 st7 st8">Charles  9</text>
	<text transform="matrix(1 0 0 1 173.5 228.3235)" class="st6 st7 st8">Dorchester  549</text>
	<text transform="matrix(1 0 0 1 173.4997 254.5386)" class="st6 st7 st8">Frederick  448</text>
	<text transform="matrix(1 0 0 1 173.4999 280.7532)" class="st6 st7 st8">Garrett  263</text>
	<text transform="matrix(1 0 0 1 173.4999 306.969)" class="st6 st7 st8">Harford  18</text>
	<text transform="matrix(1 0 0 1 173.4999 333.1843)" class="st6 st7 st8">Howard  11</text>
	<text transform="matrix(1 0 0 1 173.4999 359.3997)" class="st6 st7 st8">Kent  18</text>
	<text transform="matrix(1 0 0 1 173.4999 385.6167)" class="st6 st7 st8">Montgomery  11</text>
	<text transform="matrix(1 0 0 1 310.3 279.4624)" class="st6 st7 st8">Prince George&apos;s  9</text>
	<text transform="matrix(1 0 0 1 310.3 305.6776)" class="st6 st7 st8">Queen Anne&apos;s  549</text>
	<text transform="matrix(1 0 0 1 310.2998 331.8927)" class="st6 st7 st8">st Mary&apos;s  448</text>
	<text transform="matrix(1 0 0 1 310.2999 358.1075)" class="st6 st7 st8">Somerset  263</text>
	<text transform="matrix(1 0 0 1 310.2999 384.3231)" class="st6 st7 st8">Talbot  18</text>
	<text transform="matrix(1 0 0 1 310.2999 410.5382)" class="st6 st7 st8">Washington  11</text>
	<text transform="matrix(1 0 0 1 175.5001 410.5382)" class="st6 st7 st8">Wicomico  18</text>
	<text transform="matrix(1 0 0 1 32.8486 410.5382)" class="st6 st7 st8">Worcester  11</text>
</g>
<g id="Counties">
	<polygon id="carroll" class="st9" points="632.2,131.8 639.5,135.8 646.7,142 652.9,146.9 655.2,159.7 651.4,162 651.3,165.3 
		660.4,165.5 660.5,161.2 677.2,161.5 677.3,160.2 672.4,160.1 673,125.4 678,121.1 678.1,116.3 631.3,125.3 	"/>
	<path id="howard" class="st9" d="M665.4,166.3l-0.1,4.3l-12-0.3l-2.5,3.1v0.1l2.8,2.8l7.2,5.6l5,2.1l6.4,5l4.4,4.5l13.1,0.2
		l2.1-3.9l7.4-9.6l0.5-0.5c-1,0.1-2.1,0-3.3-0.3c-0.4-0.1-1-0.1-1.2,0c-0.8,0-2.2,0-10.3-7.8l-2.8-0.1l-6.4-4.9L665.4,166.3
		L665.4,166.3z"/>
	<path id="talbot" class="st9" d="M764.8,248.5c-0.3,0.3-0.6,0.4-1,0.5l3.7,0.1l3.9-4.1l9.1-3.4l6.8-4.9l-3.6-3.1l0.4-22.2l-4,0.8
		l-12.2,7.5l-2.2,2.9l-8.2-0.2v-2.6c-3.9,4.2-5.7,4.4-6.4,11.2c-0.6,4.8-0.6,8.5,1.1,13c3.3-0.1,6.8-5.7,7.6-8.8
		C768.4,234.7,770.6,243.7,764.8,248.5z"/>
	<path id="charles" class="st9" d="M707.5,280.4l3.5-5.1l8.3-0.1l-1.7-2.9L714,268l-8.5-4.5l-1.6-2.5l-8.6-0.2l-11.4,5.8l-3.6,7.7
		l-3.5-7h-0.3c-0.5,0.5-0.6,1-1.2,1.6c-6,7.5-11.6,14.5-10.6,22.6c0.4,2,5.1,7.9,7.9,9.5c1.2,0.7,6.6,2.1,15.7,2.2h1.7l9.2,5.1
		l-1.3,2.3c2.5-0.4,6.1,0.3,7.8,0.3c1.1-0.1,2.4,0.1,3.6,0.1l-4.7-9.8l-2.3-3.6l0.1-6.3L707.5,280.4z"/>
	<path id="cecil" class="st9" d="M763.1,139.5l16.8,0.4l5.5-2.9l0.2,0.1l-9.2-35.6l-33.5,3l18.4,18.2l-0.1,4.3h-2.6
		c1.7,3.6,6,7.2,4.9,11.7C763.3,138.9,763.2,139.3,763.1,139.5z"/>
	<path id="prince_george_x27_s" class="st9" d="M683,248.2c-0.9,4.6-1.8,9.4-4,14.1l0.5,0.1l0.3,0.5l14.1-7.1l12.5,0.2l2.5,3.6
		l4.2,2.2l0.1-10.2l-3.8-5.6l-1.8,0.7l0.2-12.5l-4-15.7l0.1-4.5l-14.1-15.3l-5.7-0.1l-3.2,6.9l-3.3,8.2l17.6,10.9l-12.1,20.8
		C683.3,246.4,683.2,247.3,683,248.2z"/>
	<polygon id="montgomery" class="st9" points="674.5,198.3 668.8,192.7 663,188.2 658,186 650.5,180 645.6,175.6 645.8,174.9 
		643.5,174.8 623.9,194.8 623.9,200.2 627,206 641.8,208.7 658.2,217.6 667.2,209.4 667.2,207.7 668.6,208.3 668.9,208 671.3,209.5 
		673.9,210.6 676.7,203.6 678.9,198.5 	"/>
	<path id="anne_arundel" class="st9" d="M733.8,216.4c0.5-9,6.2-17.8,0.7-26.7c-2.4-3.7-8.1-4.5-9-8.7l-1.2,2.1l-9.5-5.3v-3.2
		l-5.6,0.4l-0.1,2.3l-5.9,6l-7,9.4l-1.7,3.2l14.9,16.4l-0.1,6.3l4,15.7l-0.1,5l5.4-2.5l11.6,3c-1.2-3.6-1.8-5.6,0-10.2
		C731.9,224.4,733.3,222.1,733.8,216.4z"/>
	<path id="baltimore_county" class="st9" d="M683.1,115.3l-0.2,8.2l-5,4.4l-0.5,27.4l4.9,0.1l-0.2,9.6l1.9,1.4h3.1l0.7,0.7
		c3,3,6.7,6.3,8.1,7.1c0.3,0,0.7,0.1,1.2,0c0.3,0,0.7,0.1,1.2,0c0-0.8,0.1-1.8,0.3-2.4l-2.8-7.2l0.1-9.4l24.2,0.5l-0.3,19.1l5.7,3.2
		c0.9-3.2,4.7-5,6.2-8c2.2-4.2,0.2-9.3,2-13.4c0.9-2,2-2.9,3.4-3.5l-15-16.3l-10.6-0.3l-9.8-13.3l0.2-11.9L683.1,115.3z"/>
	<path id="caroline" class="st9" d="M794.4,196.8c-0.5,1.5-1.6,3-2.3,4.3c-0.5,0.6-0.7,1.2-1,1.9c-0.1,0.4-0.1,2.9,0.1,5.2l0.3,2.2
		l-2.3,0.4l-0.4,20.8l3.5,3l18.8,0.4L799,188.1C796.9,191.8,794.9,195.7,794.4,196.8z"/>
	<path id="baltimore_city" class="st9" d="M699.4,158.7l2.3,14.3l14.2-0.9l0.2-12.9C711,158.9,699.4,158.7,699.4,158.7z"/>
	<path id="wicomico" class="st9" d="M862.1,275.2l5.3-8c-2.9-2.6-2.9-3.9-2.8-4.4c0-0.3-0.4-1.2-0.5-2.4l-45.3,4l-0.9-3.6l-4.9,13.7
		l-0.3,19.3h-2.6c1.9,0.5,3.6,1.9,5.1,3.6l-1.8-2.3c0.1-0.1,2.6-1.8,5.1-3.5c2.5-1.3,17.2-9.2,17.2-9.2l0.5-0.2l21.2-2.6
		L862.1,275.2z"/>
	<path id="dorchester" class="st9" d="M792.2,239.8l-9.5,6.7l-8.4,3.1l-4.7,4.7l-9.4-0.1v-2.5c-0.5,0.5-0.7,1.2-1.1,2.6
		c-2.8,10.2,0.6,16.9,5.4,25.5c2.3,4,6.6,9.8,4.8,14.5c5.3,3.3,16.1,2.2,22.4,2.1c2.9-0.1,6.7,0,9.8-0.5c2.3-0.4,3.6-2.1,6.1-2.3
		l0.5-20.2l7.6-21l-3.1-12.2L792.2,239.8L792.2,239.8z"/>
	<path id="somerset" class="st9" d="M837.6,287.2c-2.3,1.3-14.4,7.8-16.7,8.9c-2.2,1.2-4.5,2.9-4.6,3c4.5,6.7,8,17.5,11.2,22.5
		c1.3,1.9,2.1,4.7,4.3,5.8c1.9,1.1,4.2,0,6.2,0.7c0.9,0.5,1.6,0.9,2.2,1.5l1.7-3.8l4.8-6.5l1.2-0.5l0.4-23.7l-6.8-8.7L837.6,287.2z"
		/>
	<path id="kent" class="st9" d="M786.6,141.9l-5.5,2.9l-19.8-0.3v-2.6c-1.6,1.7-3.7,3.2-4.6,5.1c-1.9,4.3-2,7.8-4.6,11.7
		c-2.9,4.3-3.5,6.6-4.3,11.7c-0.6,3.7-2.1,8.2,1.8,11.5c3.5,2.9,6,2.6,7.9,4l-1.7-1.3l2.9-3.5l6-10.4l5.3-5
		c7.6-8.7,9.6-9.4,10.9-8.9c1.3-0.3,5.1-1.7,9.3-3.3l-3.1-11.9L786.6,141.9z"/>
	<path id="st_mary_x27_s" class="st9" d="M755.5,295.6l0.2,2.5l-8.7,0.3L728.7,284l-5.9-3.8l-9.2,0.3l-2,2.7l-4.9,9.5v3.5l1.6,2.5
		l5.5,11.3l-2.2,1.1c7.2,0.6,13.7,2.2,20.7,3.5c9,1.5,17.1,7.7,24.8,0.4c4.7-4.3,3.6-7.2,1.3-12.3
		C757.5,300.1,756.3,298.4,755.5,295.6z"/>
	<path id="queen_anne_x27_s" class="st9" d="M796.6,182.1l0.4-0.4l0.2-0.3l-5.9-22.6c-6.7,2.4-9.3,3.3-10.7,3.3
		c-1.2,1-4.7,4.4-7.2,7.4l-5.2,5.1l-5.8,10l-2.9,3.6l-1.9-1.6c0.9,1,1.5,2.5,1.6,6c0.1,8.3,4.7,17.7,0.2,25.3h3.9l1.6-1.9l13.9-8.3
		l7.3-1.5c-0.1-2.2,0-4.2,0.5-5.4c0.4-0.5,0.7-1.2,1.2-2.1c0.7-1.1,1.5-2.6,2-3.6C790.7,192.6,796.1,183.2,796.6,182.1z"/>
	<path id="worcester_1_" class="st9" d="M869,259.8c0.3,1.1,0.4,2,0.4,2.4c0.4,0.4,1.6,1.5,2.7,2.4l2,1.4l-8.5,12.5l-6.2,6
		l-11.9,1.5l6.1,7.6l-0.4,24l10-2.8l20.7-4.7l0.5,2.5c5.2-14.5,10.2-30.5,11.2-45.5c0.2-3.1,0.1-6.3-0.1-9.4L869,259.8z"/>
	<polygon id="allegany" class="st9" points="449.4,180.6 456,181 476.6,153.4 489.9,164.2 504.6,162.7 518.6,146.7 520.7,145.7 
		458.8,155.3 	"/>
	<polygon id="garrett" class="st9" points="416,211.1 416.1,211.1 441.5,179.8 444.3,180 453.1,156.2 409.3,162.9 	"/>
	<polygon id="washington" class="st9" points="559.1,146.9 579.8,154.5 588.5,164.3 595.2,173.7 595.6,148 604.6,130.4 552,140.7 	
		"/>
	<polygon id="frederick" class="st9" points="646,169.9 646.7,159.2 649.6,157.2 648.2,149.6 643.5,145.9 636.5,139.8 627.5,135 
		626.4,126.2 610.7,129.3 600.7,149.1 600.4,176.7 623.4,188.3 641.4,169.8 	"/>
	<path id="calvert" class="st9" d="M725.4,275.8l6.1,4.1l17,13.5l6.6-0.3c-0.3-1.2-0.3-2.6-0.5-3.6c-2-7.8-9.5-14.7-14-21.7
		c-5.1-8.3-6.8-16.4-9.8-25.3l-0.6,2.4l-11.5-3l-4.6,2l4.1,6.2l-0.3,14.9l3.7,4.3L725.4,275.8z"/>
	<path id="harford" class="st9" d="M753.1,139.6c3.5-4.3,4-7.9,5.4-12.7h-2.6v-2.1l-20-19.7l-0.4,0.1l-28.9,5.7l-0.2,11.3l7.2,10.2
		l10.2,0.1l17.6,18.8l-1.8,1.7c1.5-0.3,3.2-0.6,4.7-1.9c0.9-0.7,3.2-4.3,3.9-5C750.2,143.6,751.5,141.7,753.1,139.6z"/>
</g>
<g id="balls">
	<circle id="worcester_circle" class="st10" cx="874.5" cy="292.7" r="9"/>
	<circle id="somerset_circle" class="st10" cx="834.9" cy="305.9" r="9"/>
	<circle id="wicomico_circle" class="st10" cx="834" cy="272.6" r="9"/>
	<circle id="dorchester_circle" class="st10" cx="787.7" cy="266.5" r="9"/>
	<circle id="st_mary_x27_s_circle" class="st10" cx="729.9" cy="300" r="9"/>
	<circle id="charles_circle" class="st10" cx="691" cy="282.4" r="9"/>
	<circle id="calvert_circle" class="st10" cx="730.7" cy="265" r="9"/>
	<circle id="prince_george_x27_s_circle" class="st10" cx="698" cy="231.1" r="9"/>
	<circle id="caroline_circle" class="st10" cx="798.7" cy="220.7" r="9"/>
	<circle id="talbot_circle" class="st10" cx="769.9" cy="230.6" r="9"/>
	<circle id="queen_anne_x27_s_circle" class="st10" cx="776.7" cy="187.3" r="9"/>
	<circle id="anne_arundel_circle" class="st10" cx="719.5" cy="201.8" r="9"/>
	<circle id="baltimore_city_circle" class="st10" cx="709.3" cy="165.3" r="9"/>
	<circle id="kent_circle" class="st10" cx="765" cy="159" r="9"/>
	<circle id="cecil_circle" class="st10" cx="768.1" cy="118.6" r="9"/>
	<circle id="harford_circle" class="st10" cx="731.9" cy="123.6" r="9"/>
	<circle id="baltimore_county_circle" class="st10" cx="697.4" cy="142" r="9"/>
	<circle id="howard_circle" class="st10" cx="676.4" cy="179.8" r="9"/>
	<circle id="montgomery_circle" class="st10" cx="650.8" cy="196.7" r="9"/>
	<circle id="carroll_circle" class="st10" cx="659.6" cy="137.5" r="9"/>
	<circle id="frederick_circle" class="st10" cx="622.1" cy="156.2" r="9"/>
	<circle id="washington_circle" class="st10" cx="583.8" cy="146.9" r="9"/>
	<circle id="allegany_circle" class="st10" cx="483.8" cy="156.7" r="9"/>
	<circle id="garrett_circle" class="st10" cx="428" cy="176.8" r="9"/>
	
		<text id="worcester_numbers" transform="matrix(0.9998 2.069572e-02 -2.069572e-02 0.9998 870.1931 294.5953)" class="st11 st7 st12">10</text>
	
		<text id="somerset_numbers" transform="matrix(0.9998 2.069572e-02 -2.069572e-02 0.9998 830.5724 307.7793)" class="st11 st7 st12">10</text>
	
		<text id="wicomico_numbers" transform="matrix(0.9998 2.069572e-02 -2.069572e-02 0.9998 829.7621 274.4184)" class="st11 st7 st12">10</text>
	
		<text id="dorchester_numbers" transform="matrix(0.9998 2.069572e-02 -2.069572e-02 0.9998 783.4072 268.3178)" class="st11 st7 st12">10</text>
	
		<text id="st_mary_x27_s_numbers" transform="matrix(0.9998 2.069572e-02 -2.069572e-02 0.9998 725.6562 302.0252)" class="st11 st7 st12">10</text>
	
		<text id="charles_numbers" transform="matrix(0.9998 2.069572e-02 -2.069572e-02 0.9998 686.5928 284.3309)" class="st11 st7 st12">10</text>
	
		<text id="calvert_numbers" transform="matrix(0.9998 2.069572e-02 -2.069572e-02 0.9998 726.4225 266.8479)" class="st11 st7 st12">10</text>
	
		<text id="prince_george_x27_s_numbers" transform="matrix(0.9998 2.069572e-02 -2.069572e-02 0.9998 693.8282 233.0543)" class="st11 st7 st12">10</text>
	
		<text id="caroline_numbers" transform="matrix(0.9998 2.069572e-02 -2.069572e-02 0.9998 794.4053 222.5144)" class="st11 st7 st12">10</text>
	<text id="talbot_numbers" transform="matrix(0.9998 2.069572e-02 -2.069572e-02 0.9998 765.5219 232.4735)" class="st11 st7 st12">10</text>
	
		<text id="queen_anne_x27_s_numbers" transform="matrix(0.9998 2.069572e-02 -2.069572e-02 0.9998 772.478 189.3551)" class="st11 st7 st12">10</text>
	
		<text id="anne_arundel_numbers" transform="matrix(0.9998 2.069572e-02 -2.069572e-02 0.9998 715.0755 203.763)" class="st11 st7 st12">10</text>
	
		<text id="baltimore_city_numbers" transform="matrix(0.9998 2.069572e-02 -2.069572e-02 0.9998 704.9221 167.2861)" class="st11 st7 st12">10</text>
	<text id="kent_numbers" transform="matrix(0.9998 2.069572e-02 -2.069572e-02 0.9998 760.7678 160.9032)" class="st11 st7 st12">10</text>
	<text id="cecil_numbers" transform="matrix(0.9998 2.069572e-02 -2.069572e-02 0.9998 763.6827 120.4698)" class="st11 st7 st12">10</text>
	
		<text id="harford_numbers" transform="matrix(0.9998 2.069572e-02 -2.069572e-02 0.9998 727.4291 125.5517)" class="st11 st7 st12">10</text>
	
		<text id="baltimore_county_numbers" transform="matrix(0.9998 2.069572e-02 -2.069572e-02 0.9998 692.9886 143.905)" class="st11 st7 st12">10</text>
	<text id="howard_numbers" transform="matrix(0.9998 2.069572e-02 -2.069572e-02 0.9998 672.2299 181.6692)" class="st11 st7 st12">10</text>
	
		<text id="montgomery_numbers" transform="matrix(0.9998 2.069572e-02 -2.069572e-02 0.9998 646.4403 198.6634)" class="st11 st7 st12">10</text>
	
		<text id="carroll_numbers" transform="matrix(0.9998 2.069572e-02 -2.069572e-02 0.9998 655.2328 139.3622)" class="st11 st7 st12">10</text>
	
		<text id="frederick_numbers" transform="matrix(0.9998 2.069572e-02 -2.069572e-02 0.9998 617.8307 157.9931)" class="st11 st7 st12">10</text>
	
		<text id="washington_numbers" transform="matrix(0.9998 2.069572e-02 -2.069572e-02 0.9998 579.3854 148.8042)" class="st11 st7 st12">10</text>
	
		<text id="allegany_numbers" transform="matrix(0.9998 2.069572e-02 -2.069572e-02 0.9998 479.5946 158.5863)" class="st11 st7 st12">10</text>
	
		<text id="garrett_numbers" transform="matrix(0.9998 2.069572e-02 -2.069572e-02 0.9998 423.7621 178.7588)" class="st11 st7 st12">10</text>
</g>
<g id="table_data">
	<text transform="matrix(1 0 0 1 24.4916 547.301)" class="st2 st7 st8">Confirmed Cases</text>
	<text transform="matrix(1 0 0 1 24.4916 591.2328)" class="st2 st7 st8">Deaths</text>
	<text id="current_date" transform="matrix(1 0 0 1 205.7069 505.0189)" class="st2 st7 st8">6 Apr. 2020</text>
	<text id="previous_date" transform="matrix(1 0 0 1 340.5073 505.0189)" class="st2 st7 st8">5 Apr. 2020</text>
	<text id="growth_rate__x25_" transform="matrix(1 0 0 1 463.9881 505.0189)" class="st2 st7 st8">Growth Rate %</text>
	<text transform="matrix(1 0 0 1 675.4283 505.0189)" class="st2 st7 st8">Total Confirmed Cases</text>
	<text id="current_сases" transform="matrix(1 0 0 1 228.5523 551.0531)" class="st13 st7 st5">783</text>
	<text id="previous_deaths" transform="matrix(1 0 0 1 367.8015 595.5326)" class="st13 st7 st5">14</text>
	<text id="current_deaths" transform="matrix(1 0 0 1 233.0013 594.553)" class="st13 st7 st5">15</text>
	<text id="total_cases" transform="matrix(1 0 0 1 716.9782 580.1963)" class="st14 st7 st15">783</text>
	<text id="previous_сases" transform="matrix(1 0 0 1 363.3523 551.0531)" class="st13 st7 st5">673</text>
	<text id="cases_growth_rate" transform="matrix(1 0 0 1 493.2154 552.5894)" class="st13 st7 st5">16 %</text>
	<text id="death_growth_rate" transform="matrix(1 0 0 1 497.6645 597.0686)" class="st13 st7 st5">7 %</text>
</g>
<g id="TYPES_1_">
	<g>
		<circle id="_x33__1_" class="st10" cx="811.6" cy="-63.9" r="18.9"/>
		
			<text id="_x33__numbers_1_" transform="matrix(1 2.629936e-03 -2.629936e-03 1 795.4445 -58.7495)" class="st11 st7" style="font-size:12px;">1,000</text>
	</g>
	<g>
		<circle id="_x32__1_" class="st10" cx="763.4" cy="-63.3" r="14.4"/>
		
			<text id="_x32__numbers_1_" transform="matrix(1 2.629918e-03 -2.629918e-03 1 751.7165 -57.9188)" class="st11 st7" style="font-size:13px;">100</text>
	</g>
	<g>
		<circle id="_x31__2_" class="st10" cx="684.3" cy="-61.3" r="7.2"/>
		
			<text id="_x31__numbers_2_" transform="matrix(1 2.629964e-03 -2.629964e-03 1 679.1382 -57.705)" class="st11 st7" style="font-size:9px;">10</text>
	</g>
	<g>
		<circle id="_x31__3_" class="st10" cx="652.3" cy="-61" r="6.2"/>
		
			<text id="_x31__numbers_3_" transform="matrix(1 2.629964e-03 -2.629964e-03 1 649.878 -57.3712)" class="st11 st7" style="font-size:9px;">9</text>
	</g>
	<g>
		<circle id="_x34__1_" class="st10" cx="865.8" cy="-61.3" r="23.9"/>
		
			<text id="_x34__numbers_1_" transform="matrix(1 2.629928e-03 -2.629928e-03 1 845.5447 -56.1287)" class="st11 st7" style="font-size:13px;">25,000</text>
	</g>
</g>
</svg>
