<?xml version="1.0" encoding="utf-8"?>
<!-- Generator: Adobe Illustrator 24.1.2, SVG Export Plug-In . SVG Version: 6.00 Build 0)  -->
<svg version="1.1" id="Layer_1" xmlns="http://www.w3.org/2000/svg" xmlns:xlink="http://www.w3.org/1999/xlink" x="0px" y="0px"
	 viewBox="0 0 916.5 740.2" style="enable-background:new 0 0 916.5 740.2;" xml:space="preserve">
<style type="text/css">
	.st0{fill:#F5FBFE;}
	.st1{fill:#DDEEFA;}
	.st2{fill:#255078;}
	.st3{font-family:'Georgia';}
	.st4{font-size:18px;}
	.st5{font-size:16px;}
	.st6{fill:#4C4B4D;}
	.st7{font-family:'ArialMT';}
	.st8{font-size:14px;}
	.st9{fill:#CD483B;}
	.st10{fill:none;}
	.st11{fill:#AEDBF5;}
	.st12{fill:#FFFFFF;}
	.st13{font-size:6.0432px;}
	.st14{fill:#4C4B4C;}
	.st15{fill:#DB3029;}
	.st16{font-size:36px;}
</style>
<g id="Texts">
	<polygon id="blue_bg" class="st0" points="-0.1,604.9 -0.1,641.9 -0.1,651.5 -0.1,740.3 173.4,740.3 173.4,651.5 914.9,651.5 
		914.9,604.9 	"/>
	<path id="line_bg" class="st1" d="M916.4,1.1H-0.1v130v474.4v2v42.9v2v42.9v2v42.9l0,0h579.8l0,0h333.2l0,0h3.5V1.1z M912.9,57.9
		v547.6H578.3l-0.6-0.3v0.3H443.5l-0.6-0.3v0.3H2.9V57.9H912.9z M912.9,607.5v42.9H579.7v-42.9H912.9z M445,650.5v-42.9h132.8v42.9
		H445z M577.7,652.5v42.9H445v-42.9H577.7z M310.2,650.5v-42.9H443v42.9H310.2z M443,652.5v42.9H310.2v-42.9H443z M175.4,650.5
		v-42.9h132.8v42.9H175.4z M308.2,652.5v42.9H175.4v-42.9H308.2z M173.4,607.5v42.9H2.9v-42.9H173.4z M173.4,652.5v42.9H2.9v-42.9
		H173.4z M2.9,697.4h170.5v39.9H2.9V697.4z M175.4,697.4h132.8v39.9H175.4V697.4z M310.2,697.4H443v39.9H310.2V697.4z M445,697.4
		h132.8v39.9H445V697.4z M579.7,652.5h333.2v84.8H579.7V652.5z"/>
	<text id="title" transform="matrix(1 0 0 1 32.8483 35.8372)" class="st2 st3 st4">COVID-19 in Michigan on</text>
	<text id="date" transform="matrix(1 0 0 1 246.4693 35.8372)" class="st2 st3 st4">April 27th, 2020</text>
	<text id="confirmed" transform="matrix(1 0 0 1 35.1513 103.6853)" class="st2 st3 st5">State Confirmed Cases By County</text>
	<g>
		<text transform="matrix(1 0 0 1 34.8898 140.0708)" class="st6 st7 st8">Alcona  10</text>
		<text transform="matrix(1 0 0 1 34.89 161.1133)" class="st6 st7 st8">Alger  10</text>
		<text transform="matrix(1 0 0 1 34.89 182.1558)" class="st6 st7 st8">Allegan  10</text>
		<text transform="matrix(1 0 0 1 34.89 203.1987)" class="st6 st7 st8">Alpena  10</text>
		<text transform="matrix(1 0 0 1 34.89 224.241)" class="st6 st7 st8">Antrim  10</text>
		<text transform="matrix(1 0 0 1 34.89 245.2837)" class="st6 st7 st8">Arenac  10</text>
		<text transform="matrix(1 0 0 1 34.8685 266.3257)" class="st6 st7 st8">Baraga  10</text>
		<text transform="matrix(1 0 0 1 34.8685 287.3682)" class="st6 st7 st8">Barry  10</text>
		<text transform="matrix(1 0 0 1 34.8683 308.4109)" class="st6 st7 st8">Bay  10</text>
		<text transform="matrix(1 0 0 1 34.8685 329.4531)" class="st6 st7 st8">Benzie  10</text>
		<text transform="matrix(1 0 0 1 34.8683 350.4961)" class="st6 st7 st8">Berrien  10</text>
		<text transform="matrix(1 0 0 1 34.8686 371.5386)" class="st6 st7 st8">Branch  10</text>
		<text transform="matrix(1 0 0 1 34.8686 392.5804)" class="st6 st7 st8">Calhoun  10</text>
		<text transform="matrix(1 0 0 1 34.8683 413.6238)" class="st6 st7 st8">Cass  10</text>
		<text transform="matrix(1 0 0 1 34.8686 434.6665)" class="st6 st7 st8">Charlevoix  10</text>
		<text transform="matrix(1 0 0 1 34.8683 455.7089)" class="st6 st7 st8">Cheboygan  10</text>
		<text transform="matrix(1 0 0 1 34.8682 476.7521)" class="st6 st7 st8">Chippewa  10</text>
		<text transform="matrix(1 0 0 1 34.8686 497.7939)" class="st6 st7 st8">Clare  10</text>
		<text transform="matrix(1 0 0 1 34.8686 518.8369)" class="st6 st7 st8">Clinton  10</text>
		<text transform="matrix(1 0 0 1 34.8686 539.8792)" class="st6 st7 st8">Crawford  10</text>
		<text transform="matrix(1 0 0 1 34.8686 560.9216)" class="st6 st7 st8">Delta  10</text>
		<text transform="matrix(1 0 0 1 34.8686 581.9645)" class="st6 st7 st8">Dickinson  10</text>
		<text transform="matrix(1 0 0 1 162.2462 140.071)" class="st6 st7 st8">Eaton  10</text>
		<text transform="matrix(1 0 0 1 162.2462 161.0901)" class="st6 st7 st8">Emmet  10</text>
		<text transform="matrix(1 0 0 1 162.2465 182.1086)" class="st6 st7 st8">Genesee  10</text>
		<text transform="matrix(1 0 0 1 162.2462 203.1274)" class="st6 st7 st8">Gladwin  10</text>
		<text transform="matrix(1 0 0 1 162.2462 224.146)" class="st6 st7 st8">Gogebic  10</text>
		<text transform="matrix(1 0 0 1 162.2462 245.1655)" class="st6 st7 st8">Grand Traverse  10</text>
		<text transform="matrix(1 0 0 1 162.2462 266.1836)" class="st6 st7 st8">Gratiot  10</text>
		<text transform="matrix(1 0 0 1 162.2462 287.2031)" class="st6 st7 st8">Hillsdale  10</text>
		<text transform="matrix(1 0 0 1 162.2465 308.2217)" class="st6 st7 st8">Houghton  10</text>
		<text transform="matrix(1 0 0 1 162.2466 329.2402)" class="st6 st7 st8">Huron  10</text>
		<text transform="matrix(1 0 0 1 162.2464 350.2588)" class="st6 st7 st8">Lafayette  10</text>
		<text transform="matrix(1 0 0 1 162.2465 371.1841)" class="st6 st7 st8">Ingham  10</text>
		<text transform="matrix(1 0 0 1 162.2465 392.2021)" class="st6 st7 st8">Ionia  10</text>
		<text transform="matrix(1 0 0 1 162.2465 413.2209)" class="st6 st7 st8">Iosco  10</text>
		<text transform="matrix(1 0 0 1 162.2465 434.2391)" class="st6 st7 st8">Iron  10</text>
		<text transform="matrix(1 0 0 1 162.2465 455.2578)" class="st6 st7 st8">Isabella  10</text>
		<text transform="matrix(1 0 0 1 162.2465 476.277)" class="st6 st7 st8">Jackson  10</text>
		<text transform="matrix(1 0 0 1 162.2462 497.2955)" class="st6 st7 st8">Kalamazoo  10</text>
		<text transform="matrix(1 0 0 1 162.2463 518.3152)" class="st6 st7 st8">Kalkaska  10</text>
		<text transform="matrix(1 0 0 1 162.2463 539.334)" class="st6 st7 st8">Kent  10</text>
		<text transform="matrix(1 0 0 1 162.2461 560.9216)" class="st6 st7 st8">Keweenaw  10</text>
		<text transform="matrix(1 0 0 1 162.2461 581.9641)" class="st6 st7 st8">Lake  10</text>
		<text transform="matrix(1 0 0 1 288.563 140.2502)" class="st6 st7 st8">Lapeer  10</text>
		<text transform="matrix(1 0 0 1 288.5629 161.269)" class="st6 st7 st8">Leelanau  10</text>
		<text transform="matrix(1 0 0 1 288.563 182.2876)" class="st6 st7 st8">Lenawee  10</text>
		<text transform="matrix(1 0 0 1 288.5629 203.3066)" class="st6 st7 st8">Livingston  10</text>
		<text transform="matrix(1 0 0 1 288.5629 224.325)" class="st6 st7 st8">Luce  10</text>
		<text transform="matrix(1 0 0 1 288.5629 245.3445)" class="st6 st7 st8">Mackinac  10</text>
		<text transform="matrix(1 0 0 1 288.5627 266.3628)" class="st6 st7 st8">Macomb  10</text>
		<text transform="matrix(1 0 0 1 288.563 287.3818)" class="st6 st7 st8">Manistee  10</text>
		<text transform="matrix(1 0 0 1 288.563 308.3999)" class="st6 st7 st8">Marquette  10</text>
		<text transform="matrix(1 0 0 1 288.5627 329.4192)" class="st6 st7 st8">Mason  10</text>
		<text transform="matrix(1 0 0 1 288.5626 350.438)" class="st6 st7 st8">Mecosta  10</text>
		<text transform="matrix(1 0 0 1 288.5626 371.4563)" class="st6 st7 st8">Menominee  10</text>
		<text transform="matrix(1 0 0 1 288.5626 392.4757)" class="st6 st7 st8">Midland  10</text>
		<text transform="matrix(1 0 0 1 288.5626 413.4939)" class="st6 st7 st8">Missaukee  10</text>
		<text transform="matrix(1 0 0 1 288.5626 434.5128)" class="st6 st7 st8">Monroe  10</text>
		<text transform="matrix(1 0 0 1 288.5626 455.5319)" class="st6 st7 st8">Montcalm  10</text>
		<text transform="matrix(1 0 0 1 288.5626 476.5505)" class="st6 st7 st8">Montmorency  10</text>
		<text transform="matrix(1 0 0 1 288.5629 497.5693)" class="st6 st7 st8">Muskegon  10</text>
		<text transform="matrix(1 0 0 1 288.5626 518.5881)" class="st6 st7 st8">Newaygo  10</text>
		<text transform="matrix(1 0 0 1 288.5625 539.9028)" class="st6 st7 st8">Oakland  10</text>
		<text transform="matrix(1 0 0 1 288.5625 560.9219)" class="st6 st7 st8">Oceana  10</text>
		<text transform="matrix(1 0 0 1 288.5625 581.9404)" class="st6 st7 st8">Ogemaw  10</text>
		<text transform="matrix(1 0 0 1 415.9633 138.0405)" class="st6 st7 st8">Ontonagon10</text>
		<text transform="matrix(1 0 0 1 415.963 159.0593)" class="st6 st7 st8">Osceola  10</text>
		<text transform="matrix(1 0 0 1 415.9632 180.0781)" class="st6 st7 st8">Oscoda  10</text>
		<text transform="matrix(1 0 0 1 415.9632 201.0967)" class="st6 st7 st8">Otsego  10</text>
		<text transform="matrix(1 0 0 1 415.963 222.116)" class="st6 st7 st8">Ottawa  10</text>
		<text transform="matrix(1 0 0 1 415.9633 243.134)" class="st6 st7 st8">Presque Isle  10</text>
		<text transform="matrix(1 0 0 1 415.9633 264.1531)" class="st6 st7 st8">Roscommon  10</text>
		<text transform="matrix(1 0 0 1 415.9633 285.1716)" class="st6 st7 st8">Saginaw  10</text>
		<text transform="matrix(1 0 0 1 415.9633 306.1904)" class="st6 st7 st8">St. Clair  10</text>
		<text transform="matrix(1 0 0 1 415.9633 327.2095)" class="st6 st7 st8">St. Joseph  10</text>
		<text transform="matrix(1 0 0 1 415.9633 348.2285)" class="st6 st7 st8">Sanilac  10</text>
		<text transform="matrix(1 0 0 1 415.9633 369.2471)" class="st6 st7 st8">Schoolcraft  10</text>
		<text transform="matrix(1 0 0 1 415.9631 390.2659)" class="st6 st7 st8">Shiawassee  10</text>
		<text transform="matrix(1 0 0 1 415.9633 411.2847)" class="st6 st7 st8">Tuscola  10</text>
		<text transform="matrix(1 0 0 1 415.963 432.3035)" class="st6 st7 st8">Van Buren  10</text>
		<text transform="matrix(1 0 0 1 415.963 453.322)" class="st6 st7 st8">Washtenaw  10</text>
		<text transform="matrix(1 0 0 1 415.963 474.3411)" class="st6 st7 st8">Wayne  10</text>
		<text transform="matrix(1 0 0 1 415.963 495.3596)" class="st6 st7 st8">Wexford  10</text>
	</g>
</g>
<g id="TYPES_1_">
	<g>
		<circle id="_x33__1_" class="st9" cx="844.7" cy="-31.7" r="13.2"/>
		
			<text id="_x33__numbers_1_" transform="matrix(1 2.629927e-03 -2.629927e-03 1 834.04 -28.752)" class="st12 st7" style="font-size:8px;">1,000</text>
	</g>
	<g>
		<circle id="_x32__1_" class="st9" cx="810.9" cy="-31.3" r="10.1"/>
		
			<text id="_x32__numbers_1_" transform="matrix(1 2.629909e-03 -2.629909e-03 1 803.5298 -28.1693)" class="st12 st7" style="font-size:8px;">100</text>
	</g>
	<g>
		<circle id="_x31__2_" class="st9" cx="755.4" cy="-29.9" r="5"/>
		
			<text id="_x31__numbers_2_" transform="matrix(1 2.629955e-03 -2.629955e-03 1 753.3623 -27.971)" class="st12 st7" style="font-size:6px;">1</text>
	</g>
	<g>
		<circle id="_x31__1_" class="st9" cx="780.7" cy="-29.9" r="6.7"/>
		
			<rect x="777.3" y="-32.8" transform="matrix(2.629874e-03 -1 1 2.629874e-03 808.1573 751.0807)" class="st10" width="6.7" height="6.3"/>
		
			<text id="_x31__numbers_1_" transform="matrix(1 2.629900e-03 -2.629900e-03 1 776.8776 -27.9714)" class="st12 st7" style="font-size:7px;">10</text>
	</g>
	<g>
		<circle id="_x34__1_" class="st9" cx="882.6" cy="-29.9" r="16.8"/>
		
			<text id="_x34__numbers_1_" transform="matrix(1 2.629919e-03 -2.629919e-03 1 868.4515 -26.2142)" class="st12 st7" style="font-size:9px;">25,000</text>
	</g>
</g>
<g id="Counties">
	<path id="charlevoix" class="st11" d="M763.2,271.1l-4-5.6h-6.3v0.9h-0.4c-0.3-1.8-0.6-4.2,0.8-6.2c2.6-3.9,7.1-4.8,11.1-5.6
		l0.5-0.1l0.4-0.1l0.1,0.3v3.8l3,2.3h8.3v-2.6l2.6,0.4l0.5,4.6l-3.6,5.9l-10.6,0.4v1.6L763.2,271.1L763.2,271.1z"/>
	<polygon id="saginaw" class="st11" points="812.8,374.5 822.2,370.8 821.9,366.6 843.2,371 844.5,385.4 840.5,386.6 835.3,391.4 
		819,394.7 815.7,395.1 	"/>
	<path id="emmet" class="st11" d="M769.1,259l-1.7-1.3v-3.1h-1.6l0.6-0.4c0.2-0.1,0.3-0.2,0.4-0.3c0.3-0.3,0.6-0.5,1.2-0.8
		c0.3-0.2,0.6-0.3,0.9-0.4c0.8-0.3,1.5-0.5,1.8-1.1s0.4-1.1,0.3-1.5c-0.4-0.8-2.1-1-3.3-1.1c-0.4-0.1-0.8-0.1-1-0.2
		c-2.8-0.7-3.3-1.7-4.1-3.5c-0.1-0.2-0.2-0.4-0.3-0.7s-0.3-0.4-0.3-0.8c-0.4-0.8-0.9-1.6-0.9-2.2c-0.3-1.6-0.1-2,0.5-2.6
		c0.3-0.3,0.5-0.4,0.9-0.9c3.1-4.3,6.3-7.2,10.4-9.4c0.5-0.3,1-0.6,1.5-0.9c0.5-0.3,0.9-0.6,1.5-0.9l0.3-0.2l3.4,30l-4.3-0.8v3
		L769.1,259L769.1,259L769.1,259z"/>
	<polygon id="lapeer" class="st11" points="856.9,383.3 862.1,377 871.1,375.1 871.1,378.8 876.9,378.8 876.9,378.9 877,378.9 
		880.6,401.1 879.9,401.1 876.6,402.6 860.7,404.4 	"/>
	<path id="delta" class="st11" d="M664,252.7l-4.1-25.6l3.8-1.8v-10.4h5.6l0.2-0.1l23.3-1.6l1.7-2h0.4l3.2,24.1l0.9-0.1l0.1,0.4
		c-0.9,0.3-1.7,0.5-2.4,0.7l-0.2,0.1l-0.1-0.2c-0.3-0.6-0.5-1.3-0.7-1.8c-0.5-1.6-0.9-2.8-2.4-2.8c-0.4,0-1,0.1-1.7,0.3
		c-2.2,0.7-3.9,1.7-5.8,2.9c-0.8,0.4-1.5,0.9-2.2,1.3c-1.2,0.6-2.4,1.1-4,1.5l-0.3,0.1c-0.7,0.2-1.1,0.3-1.5,0.3
		c-0.7,0-1-0.4-1.8-1.3c-0.4-0.5-0.7-0.9-0.9-1.3c-0.3-0.5-0.3-0.7-0.7-0.7c-0.2,0-0.5,0.1-0.9,0.3c-1.6,0.7-2.1,2.8-2.5,4.7
		c-0.2,0.9-0.3,1.6-0.6,2.2c-0.5,1.3-1.3,2.6-2.1,3.7c-0.9,1.6-1.9,3.1-2.4,4.8c-0.3,0.9-0.5,1.9-0.8,2.8l-0.1,0.3L664,252.7z"/>
	<path id="schoolcraft" class="st11" d="M696.6,209.3h-3l-1.7,2.1l-0.9,0.1v-10.9h10.9V193h-1.8v-3.6l20.9-4.2l2.7,33.7l2-0.2
		l-0.9,0.5c-0.2,0.1-0.3,0.2-0.4,0.3c-0.3,0.2-0.6,0.3-1,0.6c-1.8,0.8-3.9,0.9-5.8,0.9c-0.7,0-1.5,0-2.2,0s-1.4,0-2.1,0
		c-2.4,0-7,0.4-8.4,1.8c-1.1,1.1-1,3.3-0.9,5.3c0.1,1.4,0.2,2.6-0.1,3.6c-0.4,1.6-1.6,2.7-3.5,3.5l-0.3,0.1L696.6,209.3z"/>
	<path id="iron" class="st11" d="M623.1,228.1l-0.7-0.3c-0.7-0.2-1.5-0.3-2.4-0.3c-0.7,0-1.4,0.1-2.1,0.1h-0.1
		c-0.4,0-0.9,0.1-1.3,0.1h-4c-1,0-1.7-0.2-3.1-0.9l-0.6-0.3c-0.5-0.2-1.1-0.3-1.7-0.3c-0.9-0.2-1.5-0.3-1.7-0.4l-0.3-0.3l-0.3-0.1
		c-0.3-0.1-0.6-0.3-1-0.5c-0.6-0.3-1.3-0.8-2.2-1.1l-0.3-0.1c-0.8-0.2-1.6-0.3-2.6-0.3c-0.8,0-1.6,0.1-2.2,0.1h-0.2
		c-0.5,0-1.1,0.1-1.6,0.1h-3.9c-1-0.3-2.2-0.9-3.4-1.6c-0.6-0.4-1.3-0.8-2-1.2l-0.1-0.1l-0.1-0.2l-1.6-10.5v-6.1l36.4-2.2v5.8h2.2
		V224h1.6v4.2L623.1,228.1z"/>
	<path id="baraga" class="st11" d="M594.7,175.8l4.9-6.1h4.1l-0.1,0.3c-0.4,1.6-0.6,2.9-0.5,3.8c0.2,2,1,2,1.3,2l0,0
		c1.6,0,4.1-2.8,5.3-4.2l0.3-0.3c0.7-0.8,1.5-1.3,2.2-1.9c0.7-0.5,1.3-0.9,1.8-1.6c0.5-0.5,0.9-1.1,1.3-1.7c0.6-0.9,1.2-1.9,2.2-2.6
		l0.2-0.1l0.1,0.2c0.3,0.4,0.5,0.9,0.7,1.4c0.5,1.2,1,2.3,2.6,2.6c0.2,0,0.3,0,0.4,0h0.3l-0.3,9.9l4.1,4.3v0.8l-5.8,1.5v16.3
		l-21.5,1.3L594.7,175.8z"/>
	<path id="houghton" class="st11" d="M583.4,197.4h-1.6v-9.9h5.3v-7.4h-3.4l0.3-18.7h-1.4l0.2-0.3c0.4-0.7,0.9-1.5,1.4-2.2
		c0.9-1.5,1.8-2.9,2.8-4.2c2.1-2.5,4.3-3.8,6.7-5.1c1.4-0.8,2.8-1.6,4.2-2.7c0.3-0.2,0.4-0.3,0.6-0.6l0.4-0.4l-0.1,1.6l8.5,0.3
		l0.9,2.6l1.7,2.6l1.6-1.1l-0.5,0.9c-0.5,0.8-0.8,1.6-1.1,2.7c-0.1,0.3-0.2,0.7-0.3,1c-0.7,2.1-1.8,4-2.9,5.9
		c-0.3,0.5-0.6,0.9-0.9,1.5c-0.7,1.2-1.5,3.2-2.1,5l-0.4,1.4v-2.4h-4.8l-6,7.5l3.5,26.3l-12.8,0.8L583.4,197.4L583.4,197.4z"/>
	<path id="mackinac" class="st11" d="M725.5,218.7l-1.1-14.6l27.8-3.7h4.3v5.5l35.5-5.4l5.3,10.2l-0.7,0.3c-0.9,0.4-1.7,0.8-2.8,0.9
		c-0.4,0.1-0.9,0.1-1.4,0.1c-1.6,0-3.1-0.4-4.7-0.9c-0.4-0.1-0.8-0.3-1.2-0.3c-0.4-0.1-0.9-0.2-1.3-0.2c-1.9,0-3.7,1.1-5.5,2.2
		c-1.6,0.9-3.1,1.9-4.7,2.2c-0.9,0.2-1.9,0.3-2.9,0.3c-3.4,0-7-1-10.1-1.9c-0.9-0.3-1.9-0.5-2.8-0.8c-1.7-0.4-3.2-1-4.7-1.6
		c-2.5-0.9-4.9-1.9-8-1.9c-0.3,0-0.6,0-0.9,0c-2.8,0.2-4.6,0.3-6.2,2.2c-0.6,0.8-1.1,1.6-1.6,2.6c-0.5,0.9-1,2-1.7,2.8
		c-1.5,1.6-3.2,1.7-5.1,1.8c-0.3,0-0.8,0.1-1.1,0.1c-0.4,0.1-0.9,0.1-1.5,0.1c-0.8,0-1.6,0.1-2.2,0.2c-0.1,0-0.2,0-0.3,0.1l-0.3,0.1
		L725.5,218.7z"/>
	<polygon id="iosco" class="st11" points="827.6,304.7 852.8,300.3 852.8,311.8 848.3,315.7 845.8,316 845.6,320.3 843.4,321.7 
		843.4,322.8 843,322.8 842.8,321.9 830.1,323.9 	"/>
	<polygon id="st_joseph" class="st11" points="758.5,472.1 778.7,470.5 780.2,486.4 758.5,488 	"/>
	<polygon id="barry" class="st11" points="764,426.1 780,423.7 784,423.3 786,444.7 782.7,445.4 766.2,446.8 	"/>
	<polygon id="kent" class="st11" points="749.2,395.9 747.3,393.2 751.8,393.2 753,391.6 769,391.6 769,406.7 772.9,422.8 
		763.8,424.2 763.8,424.2 752.8,426 	"/>
	<path id="oceana" class="st11" d="M713.4,383.3c-0.4-1.1-0.8-2.2-1.2-3.2c-2.4-5.8-3.1-9.7,0-15.3c0.5-0.9,0.9-1.8,1-2.8l0.3-1.4
		l0.2,2.4l17.1-1.6l1.4,19.8l-18.2,2l0.3,2.8L713.4,383.3z"/>
	<path id="benzie" class="st11" d="M719.3,315.6c-0.2-2-0.9-3.5-1.6-5.3c-0.6-1.3-1.2-2.7-1.5-4.2c-0.1-0.3-0.2-0.7-0.3-1
		c-0.3-1.4-0.7-2.5,0.9-3.6c0.8-0.6,1.8-0.9,2.9-1.1c1.1-0.3,2.2-0.5,3.2-1.2c0.6-0.4,1-0.9,1.3-1.6l0.4-1v2.1h10.2l1.4,14.6
		L719.3,315.6L719.3,315.6z"/>
	<path id="leelanau" class="st11" d="M724.4,296.8v-0.3c0.1-0.9-0.2-1.9-0.4-3c-0.4-1.9-0.9-3.8,0.2-5.7c1.6-2.7,3.8-3.8,6.1-4.9
		c1.1-0.5,2.2-1.1,3.4-1.8c1.8-1.2,2.6-3.1,3.4-5.1c0.4-0.9,0.9-2,1.5-2.9c0.3-0.5,0.6-1.2,0.9-1.9c1-2.3,2.4-5.2,4.9-5.2
		c0.2,0,0.3,0,0.5,0c0.6,0.1,1,0.3,1.3,0.8c0.8,1.1,0.2,3.4-0.3,5.3c-0.3,0.9-0.4,1.8-0.5,2.5s-0.1,1.4-0.1,2.2
		c0,1.3-0.1,2.7-0.3,3.9c-0.2,0.6-0.5,1.2-0.9,1.8s-0.7,1.2-0.8,1.8c-0.1,0.7,0.2,1.3,0.3,2c0.2,0.3,0.3,0.8,0.3,1.2
		c0.1,0.5,0.1,1.2,0.1,1.9c0,1.2,0,2.5,0.4,3.2l0.6,0.9l-1.8-1l-1.5,2.5l-6.5,2.1L724.4,296.8L724.4,296.8z"/>
	<path id="grand_traverse" class="st11" d="M736.7,298.5l6.6-2.1l1.8-3.2l-0.7-0.3h0.8c0.7,0,3.1-2.2,5.6-5l0.3,0.3l-0.6,0.8
		l3.5,2.6h2.5l2.3,19l-4.7,0.4l-16.2,2.3L736.7,298.5z"/>
	<polygon id="otsego" class="st11" points="777.8,270.4 781.4,264.4 798.7,262.5 800.8,282.6 795.5,283.2 784,285.8 780.1,286.1 	
		"/>
	<path id="antrim" class="st11" d="M754.7,289.4l-3.3-2.4l0.2-0.2c0.6-0.8,1-1.4,1.2-1.6c1.6-3.4,1.5-8.1,0.9-12.8
		c-0.1-1-0.4-2.2-0.7-3.4c-0.1-0.4-0.3-0.9-0.3-1.3l-0.1-0.3h5.4l4,5.6h5.3v-1.6l8.4-0.3l2.3,15.2l-22,2l0.2,1.1L754.7,289.4
		L754.7,289.4z"/>
	<path id="berrien" class="st11" d="M712.8,491.1c1.8-1.5,4.9-4.6,5.8-8.1c0.3-0.9,0.3-2.1,0.3-3.1c0.1-1.1,0.1-2.3,0.4-3.4
		c0.3-1.1,0.9-2.2,1.5-3.4c0.3-0.7,0.7-1.4,0.9-2c0.6-1.4,1.2-2.8,1.8-4.1s1.2-2.6,1.7-4l0.2-0.3l2.5,3.3l1.4,2.9l5,6.2l2.2,14.4
		l-24.3,1.8L712.8,491.1z"/>
	<path id="manistee" class="st11" d="M713.2,337.8c0.6-2.2,1.5-4.5,2.2-6.4c0.3-0.9,0.7-1.6,1-2.4c0.7-1.6,1.3-2.9,1.6-5
		c0.2-0.9,0.3-2,0.6-2.8c0.3-1.4,0.7-2.8,0.8-4.3h0.4l0.2,0.9l16.5-2.3l1.9,19.6l-8.1,1.5l-17,1.6L713.2,337.8z"/>
	<polygon id="crawford" class="st11" points="780.4,288 784.3,287.7 795.9,285.1 801,284.5 803.4,306.5 783,308.3 	"/>
	<path id="mason" class="st11" d="M713.4,360.8c0.1-0.8,0.1-1.5,0.1-2.1c-0.1-2.2-0.3-4.2-0.7-6.2c-0.3-2.5-0.7-5.2-0.7-7.9
		c0-1.6,0.3-3.4,0.8-5.5l0.3-1.3l0.3,2.2l15.9-1.6l1.5,21l-17.4,1.6L713.4,360.8L713.4,360.8z"/>
	<path id="monroe" class="st11" d="M853.5,460.5l4.6-0.5l8.6-2.4h8.1l5,2.2l-0.3,0.3c-0.9,0.9-2.1,1.8-2.8,2.5
		c-0.4,0.3-0.9,0.7-1,0.9c-3.2,2.9-4.8,7.9-4.3,12.8v0.2l-14.6,2.3L853.5,460.5z"/>
	<polygon id="washtenaw" class="st11" points="833.2,440 850.7,438.1 858.8,437.1 862.5,456.7 857.8,458 835,460.8 	"/>
	<polygon id="roscommon" class="st11" points="783.3,310.2 803.6,308.5 805.7,327.8 801.3,328.4 785.8,329.7 	"/>
	<polygon id="gladwin" class="st11" points="796.9,330.8 801.5,330.3 815.7,328.1 818.5,348.4 814.6,349.6 799.5,352.1 	"/>
	<polygon id="midland" class="st11" points="799.7,354 814.9,351.5 818.7,350.3 820.2,369.6 811.5,372.9 802.2,374.1 	"/>
	<polygon id="livingston" class="st11" points="829.5,417.4 834.2,416.7 849.5,415.1 853.2,435.8 850.5,436.2 833.1,438 	"/>
	<polygon id="genesee" class="st11" points="836.9,392.6 841.5,388.3 855.1,384.4 858.8,404.6 857.9,404.7 847.6,408.7 848.9,413.2 
		840.7,414 	"/>
	<polygon id="lenawee" class="st11" points="824,464.1 844.3,461.6 851.6,460.7 854.9,478.7 827.6,483 	"/>
	<polygon id="cass" class="st11" points="736.4,475.7 752.2,472.5 756.6,472.2 756.6,488.2 738.5,489.6 	"/>
	<path id="van_buren" class="st11" d="M731.1,468.2l-1.4-2.9l-2.8-3.7l-1.4,1l0.3-0.7c0.7-1.7,1.2-3.2,1.6-4.6l0.3-1.1
		c0.4-1.6,0.9-3.4,1.3-5.1l0.3-1.3l0.2,2.2l23.1-2.2l3.6,20.3l-4.5,0.3l-16.1,3.4L731.1,468.2z"/>
	<path id="muskegon" class="st11" d="M725.8,406.6c-0.7-1.6-1.4-2.8-2.2-4c-1.3-1.9-2.5-4.1-3.5-6.3c-1.1-2.2-2.2-4.4-3.6-6.3
		c-1-1.5-1.7-3.3-2.3-4.7l-0.1-0.3l18.4-2l0.3,4.4l1.8,8.3l7.9,0.3v-2.8h2.3l2.6,3.4l0.1,1h-5.2v5.1L730,405l-4.2,1.9V406.6z"/>
	<polygon id="gratiot" class="st11" points="793.3,382 791.2,377.5 810.9,374.9 813.8,395.3 794.6,397.6 	"/>
	<path id="clinton" class="st11" d="M794.8,399.5l19.2-2.2l2.8,20.2h-0.2c-10.7,1.6-14.2,2.2-15.4,2.6l-0.3,0.1V420
		c-0.5,0.1-1.9,0.2-4.1,0.4h-0.2L794.8,399.5z"/>
	<polygon id="isabella" class="st11" points="777.9,357.3 781.3,357 797.8,354.3 800.3,374.3 789.6,375.7 780.2,376.8 	"/>
	<polygon id="shiawassee" class="st11" points="815.9,397 819.4,396.6 835,393.4 838.9,414.3 833.9,414.7 822.7,416.5 818.8,417.1 	
		"/>
	<path id="ingham" class="st11" d="M807.1,420.9h0.3c4.7-0.8,11.2-1.7,15.7-2.4l4.6-0.7l3.6,20.5l-20.2,2.2L807.1,420.9z"/>
	<polygon id="missaukee" class="st11" points="761.1,312.2 781.3,310.4 783.9,329.9 779.7,330.3 763.5,332 	"/>
	<polygon id="wexford" class="st11" points="738.3,315.1 754.5,312.8 759.2,312.3 761.6,332.2 752.5,333.1 752.5,333.1 740.2,334.7 
			"/>
	<polygon id="clare" class="st11" points="775.2,332.7 779.8,332.2 794.9,330.9 797.6,352.4 781,355.1 777.8,355.3 	"/>
	<polygon id="lake_1_" class="st11" points="731.3,338.2 739.4,336.7 750.9,335.3 753.9,357.5 732.8,359.3 	"/>
	<polygon id="kalkaska" class="st11" points="758.4,290 778.4,288.2 781.1,308.5 760.9,310.3 	"/>
	<polygon id="jackson" class="st11" points="806.4,442.9 807.7,442.6 831.4,440.1 833.1,461.1 815.8,463.2 808.1,464.6 	"/>
	<polyline id="macomb" class="st11" points="894.7,416.9 892.3,426.3 891,430 890.9,428.8 882.7,429.6 877.1,404.6 880.3,403.2 
		887.6,403.2 889.3,401.1 892.9,401.1 892.9,405.7 895.6,409.1 895.6,412.7 895.1,416 	"/>
	<path id="st_clair" class="st11" d="M899.9,421.1L899.9,421.1c-0.1-0.1-1.7-1.5-2-2.3l-0.3-0.8l-0.4-1.8v-0.3l4.7,2.2v-4.6h-2.5
		l-1.7-1v-4.1l-2.8-3.4v-6H888l-1.6,2.2h-4l-2.4-14.9l22.4-4.1l-0.5-2.6l1.5,3.1c0.4,0.9,0.9,1.9,1.3,2.8c0.3,0.9,0.9,1.6,1.4,2.4
		c0.5,0.9,1.1,1.7,1.5,2.7v26.9l-4.1,3.9h-3.4L899.9,421.1L899.9,421.1z"/>
	<path id="huron" class="st11" d="M853.5,355.1l-0.5-5.3l-1.5,0.2l0.3-0.4c0.9-1.1,1.2-2.1,1.6-3.4l0.3-0.6c0.3-0.6,0.5-1.3,0.7-2
		c1.1-3.1,2.2-6.3,4.1-8.9c2.2-3.3,6.8-5.6,10.2-7.4l0.6-0.3c0.4-0.3,0.9-0.3,1.3-0.4c0.5-0.2,1.1-0.3,1.6-0.6
		c0.3-0.3,0.6-0.6,0.9-0.9c0.4-0.5,0.9-1.1,1.9-1.1c0.2,0,0.3,0,0.6,0.1c0.5,0.1,1.1,0.6,1.7,1.2c0.4,0.4,0.9,0.8,1.2,1
		c0.5,0.3,0.9,0.4,1.5,0.6s1,0.3,1.6,0.7c3.4,1.8,6.3,6.1,7.9,9.7s2.7,7.1,3.4,10.1l0.1,0.3l-28,4.6l-9.2,3L853.5,355.1L853.5,355.1
		L853.5,355.1z"/>
	<path id="sanilac" class="st11" d="M878.5,375.7l-3.8-0.8v2H873v-4.2h-0.2l-3.1-19.5l23.2-3.8l-0.2-0.9l0.4-0.1
		c0.3,0.9,0.4,2,0.7,2.9c0.8,3.2,1.6,6.5,2.6,9.7c0.9,2.8,1.6,5.4,2.3,8.2c0.3,1.4,0.7,2.8,1.1,4.3c0.6,2.3,1.6,4.6,2.4,6.3l0.1,0.3
		l-22.6,4.2L878.5,375.7z"/>
	<path id="chippewa" class="st11" d="M813.6,211.3c-1,0-2.3-0.4-3.4-0.8c-0.9-0.3-1.6-0.5-2.2-0.6c-1.8-0.2-3.5-0.3-5-0.3
		s-2.8,0.1-3.8,0.3c-0.4,0.1-0.8,0.2-1.1,0.3l-0.2-0.4l0.9-0.5l-5.8-11.1l-34.6,5.3v-5.2H753l-4.1-32.3l-2.5,0.3l1.5-0.6
		c3.1-1.3,6.1-1.9,9.4-1.9h0.2v16.6l2,1.7h3.4l2.7,1.6l6.8,0.3c1.6-0.8,3.3-1.6,4.9-2.5c4.3-2.2,8.7-4.6,13.5-6
		c2.2-0.7,4.8-1.1,7-1.1c0.5,0,0.9,0,1.4,0.1h0.2v21.7c0.5,0.5,1,1.1,1.5,1.6c2.2,2.5,4.3,4.7,7.2,6.1h0.1c3.4,1.6,7.5,3.7,7.6,5.5
		c0,0.5-0.3,0.9-0.8,1.4C814.6,211.3,814.2,211.3,813.6,211.3z"/>
	<path id="luce" class="st11" d="M721.9,172.8h0.3c0.4,0,0.9,0.1,1.3,0.1h0.2c1.8,0,3.8-0.3,5.7-0.4c1.5-0.2,3-0.3,4.5-0.3
		c3.1-0.2,5.7-1.6,7.7-2.9c1.9-1.2,3.6-2.2,5.3-3l0.3-0.1l4.1,32.3l-26.9,3.6L721.9,172.8z"/>
	<path id="alpena" class="st11" d="M822.2,259.9l15.4-1.8l5.6-1.6l-0.6-2.2l0.8,1c0.9,1.1,1.8,2,2.8,2.9c2.2,2,4.2,3.9,3.9,7.8v0.2
		h-0.2c-0.3,0.1-0.5,0.1-0.7,0.1c-1.2,0-2-0.8-2.7-1.4c-0.6-0.6-1.1-1-1.8-1c-0.5,0-1.2,0.3-2,0.9c-2.3,2-0.9,4.2,0.4,6.7l0.2,0.3
		c1.1,2,2.2,3.2,3.8,4.2l0.4,0.3l-17.9,3l-5,0.6L822.2,259.9z"/>
	<path id="alcona" class="st11" d="M824.9,281.8l5-0.6l18.6-3.1l-0.3-1.4l0.3,0.2c3.2,1.7,4.3,3.6,4.1,7.2v15.2h-0.4l-0.2-0.9
		l-24.7,4.3L824.9,281.8z"/>
	<path id="presque_isle" class="st11" d="M802.4,231.8l0.3,0.2c0.2,0.1,0.4,0.2,0.6,0.3c0.3,0.3,0.7,0.8,0.9,1.3
		c0.3,0.4,0.6,0.9,0.9,1.2c0.8,0.7,2.2,1.6,2.8,2.1c4.3,2.8,9,5.2,13,6.6c1.5,0.5,3,0.8,4.5,1.1c1.3,0.3,2.6,0.5,3.9,0.9l0.3,0.1
		c1.8,0.6,3.3,1,5.2,1.1c0.3-0.6,0.6-0.9,1-0.9c1.7,0,4.5,4.4,6.7,8.3l0.3,0.5l-5.4,1.6l-24.1,2.8l-6.9,0.8L802.4,231.8z"/>
	<path id="alger" class="st11" d="M667.8,190.7l-2.2,0.1l1.1-0.5c0.6-0.3,1.1-0.8,1.7-1.4c0.9-0.9,1.8-1.7,2.8-1.7
		c0.2,0,0.3,0,0.5,0.1h0.2v0.2c0.6,3.7,4.4,5,7.7,5c1,0,2.1-0.2,3.1-0.4c0.5-0.2,0.9-0.4,1.3-0.8c0.3-0.3,0.8-0.6,1.3-0.9
		c0.4-0.2,0.9-0.2,1.3-0.2c0.2,0,0.3,0,0.6,0c0.2,0,0.3,0,0.6,0c0.4,0,0.8,0,1.1-0.1c1.2-0.3,2.3-1.2,3.4-2.1c0.5-0.3,1-0.8,1.6-1.1
		c3.3-2.2,6.7-5.2,9.3-8.3c2.7-3.2,6.3-4.4,10.2-5.6l0.9-0.3c1-0.3,2.1-0.5,3.3-0.5c1,0,2,0.1,2.9,0.3l0.6,0.1v0.4l-0.9,0.1
		l0.8,10.1l-22.7,4.6v7.1h1.8v3.5h-10.9v13l-19.9,1.3L667.8,190.7z"/>
	<path id="marquette" class="st11" d="M647.3,225.6v-5.9l-1.9-10.4h-12.8v1.7H624v-5.2h-2.2v-20.6l5.8-1.5v-3l-4-4.2l0.3-8.8
		l-2.7-0.1l1.7-0.3c0.3-0.1,0.7-0.2,1.1-0.3c0.8-0.3,1.6-0.4,2.4-0.4c0.1,0,0.2,0,0.2,0c6.1,0.3,14,3.5,16.7,10
		c1.7,3.9,4.4,7.5,6.5,9.8c0.3,0.3,0.6,0.8,0.9,1.2c0.9,1.3,2,2.8,3.2,3.2c0.5,0.2,1.2,0.3,2.2,0.3c0.9,0,1.7-0.1,2.5-0.2
		c0.8-0.1,1.5-0.1,2.1-0.1c0.4,0,0.9,0,1.4,0s0.9,0,1.5,0c0.9,0,1.6-0.1,2.2-0.2l0.3-0.1l1.4,22.2h-5.4v11.2l-3.1,1.6L647.3,225.6
		L647.3,225.6z"/>
	<path id="keweenaw" class="st11" d="M610.2,149.5l-1.4-3.7l-9.6-0.3l0.2-0.3c0.3-0.6,0.7-1.2,0.9-1.9c0.3-0.5,0.5-1.1,0.8-1.6
		c1.3-2.4,3.4-3.4,5.8-4.6c0.5-0.3,0.9-0.4,1.5-0.7c1.2-0.6,2.3-1.5,3.4-2.3c1.4-1,2.8-2.1,4.3-2.7c1.4-0.6,3.4-0.9,5.9-0.9
		c2.8,0,5.7,0.3,7.6,0.6c2.2,0.3,3.4,0.9,3.4,2.1c0.2,1.8-3,3.8-5.3,4.5c-0.4,0.1-0.9,0.3-1.5,0.4c-1.6,0.4-3.6,0.9-4.6,1.7
		c-0.9,0.8-1.3,1.9-1.7,3.1c-0.3,0.9-0.6,1.8-1.1,2.6c-1.5,2.2-3.6,3.8-5.8,5.3c-0.4,0.3-0.8,0.6-1.2,0.9l-0.2,0.2L610.2,149.5z"/>
	<path id="ontonagon" class="st11" d="M567.2,209.3l-2.4-10.8l-8.6-0.2l-1.6,2.2h-6.2l-4.7-5.2v-14.7h-1.5l0.3-0.3
		c0.6-0.7,1.1-1.1,1.7-1.5c1.5-0.9,3.2-0.9,4.7-0.9c0.5,0,1.1,0,1.6,0s1,0,1.6,0c1.9,0,3.1-0.3,4.6-0.9c0.5-0.2,0.9-0.3,1.6-0.5
		c0.5-0.2,0.9-0.3,1.5-0.4c1.6-0.4,2.9-0.8,4.4-1.5c1.3-0.6,2.3-1.4,3.4-2.2c0.6-0.4,1.2-0.9,1.9-1.4c1.1-0.7,2.2-1.4,3.5-2.2
		c2.4-1.5,4.8-2.9,6.8-4.5c0.6-0.5,1.2-1.2,1.9-2l0.4-0.5l-0.3,19.8h3.4v3.5h-5.3v13.8h1.6v9.9h-14.2v0.5L567.2,209.3L567.2,209.3z"
		/>
	<polygon id="oakland" class="st11" points="851.3,415 851.4,415 850,409.9 858.2,406.6 874.9,404.7 880.6,430 879.2,430.1 
		864,434.5 855.2,435.6 	"/>
	<path id="wayne" class="st11" d="M880.5,457.8l-5.3-2.2h-8.5l-2.2,0.6l-3.6-19.3l3.6-0.4l15.1-4.4l11.5-1l-2.2,6.1l-3.8,0.5
		l-3.4,3.6v15.9c0,0.4-0.3,0.9-1.1,1.7l-0.9,0.9L880.5,457.8z"/>
	<polygon id="montmorency" class="st11" points="800.6,262.4 813.5,260.9 820.3,260.1 822.7,280.2 802.7,282.4 	"/>
	<polygon id="oscoda" class="st11" points="802.9,284.3 823,282.1 825.6,303.1 822.4,303.6 809.1,306 805.3,306.3 	"/>
	<path id="cheboygan" class="st11" d="M777.7,226.4h0.3l0.1,0.2v-0.2c1.6,0.2,3.7,1.1,5.4,1.8c0.4,0.3,0.9,0.4,1.3,0.6
		c0.9,0.4,1.7,0.9,2.6,1.6c1,0.7,2,1.4,3,1.6c0.4,0.1,0.9,0.2,1.4,0.2c0.7,0,1.3-0.1,2-0.3c0.9-0.2,1.6-0.3,2.7-0.3
		c0.5,0,1,0,1.6-0.1c0.7,0,1.3-0.1,2-0.1c0.5,0,0.9,0,1.4,0.1l1.6,0.2l-2.5,0.3l4,27.7l-22.7,2.5L777.7,226.4z"/>
	<polygon id="ogemaw" class="st11" points="805.5,308.3 809.4,307.9 822.7,305.5 825.8,305 828.1,324.2 815.2,326.2 807.6,327.4 	
		"/>
	<path id="tuscola" class="st11" d="M844.2,360.8l-1.9,0.2l0.8-0.5c2.2-1.4,4.7-6.2,5-7.4c0.1-0.4,0.9-1,2.1-2.1l0.9-0.7l0.7,6.7
		h4.3l9.2-3l2.6-0.4l3.1,19.6l-9.8,2.1l-3.6,4.5l-2.2,2.7l-8.9,2.6L844.2,360.8z"/>
	<path id="gogebic" class="st11" d="M582.4,219.1c-0.7-0.6-1.6-1.2-2.8-1.6c-1.2-0.5-2.2-0.6-3.2-0.6c-0.2,0-0.4,0-0.6,0
		c-0.3,0-1.2-0.3-1.9-0.6c-0.4-0.2-0.9-0.3-1.2-0.4l-0.3-0.1c-0.9-0.2-1.9-0.4-2.9-0.8c-1.2-0.3-2.3-0.6-3.4-0.9l-4.5-0.1l-3.7-1.2
		h-0.4c-0.6,0-1.2,0-1.5-0.1l-0.4-0.2c-1-0.3-2.2-0.7-2.8-1l-0.6-0.3h-3.4c-0.3,0-0.7-0.3-1.2-0.5l-0.6-0.3h-4.3
		c-1.4-0.3-2.4-0.7-3.4-1c-1.1-0.3-2.2-0.6-3.1-0.8c-1.3-0.3-2.3-0.5-3.2-0.9l-0.2-0.1c-0.9-0.4-2.1-2.2-2.9-3.6
		c-0.5-0.9-1.1-1.7-1.6-2.4c-0.2-0.3-0.4-0.5-0.6-0.8l-0.1-0.2c-1.3-1.7-3.1-4.1-6.5-4.1h-0.2l-0.6-0.3l0.5-0.4
		c0.9-0.9,1.8-1.7,3-2.2c1.4-0.5,2.5-1.1,3.7-1.8c0.7-0.4,1.4-0.8,2.1-1.2c0.9-0.5,1.9-0.9,2.8-1.4c2.8-1.3,5.3-2.5,7.8-5.2
		c0.5-0.6,0.9-1.2,1.5-1.9l0.5-0.7v14.9l5.9,6.3h8.1l1.6-2.2l6,0.1l2.4,10.9h15.9l1.3,8.2L582.4,219.1z"/>
	<path id="dickinson" class="st11" d="M641.3,243.7L641.3,243.7c-1.3-1.7-3-2.2-4.1-2.4h-0.1c-0.2,0-0.3-0.1-0.4-0.2
		c-1-0.4-2.1-0.8-3.2-1.2c-1.1-0.4-2.2-0.8-3.1-1.2l-0.5-0.2c-1.2-0.3-1.7-0.7-1.9-0.9l-0.1-0.1v-0.1c0.6-2.2,0.4-4.1-0.4-5.8
		c-0.3-0.7-1-1.5-2.1-2.2l-0.1-0.1V222h-1.6v-9.1h10.5v-1.7h9.3l1.6,8.6v11.7h-3.4v6.4l1.8,2l-0.3,3.9L641.3,243.7L641.3,243.7z"/>
	<path id="menominee" class="st11" d="M650.6,278.1c-0.3-0.4-0.5-0.9-0.7-1.3c-0.3-0.7-0.7-1.4-1.2-2.2l-0.3-0.4
		c-1.2-1.2-1.5-1.5-1.6-2.2l-0.1-0.3c-0.4-1.3-0.6-2.8-0.8-4.4c-0.1-1-0.2-1.9-0.3-2.8l-0.1-0.4c-0.1-0.3-0.2-0.8-0.3-1.4
		c-0.1-0.5-0.2-1.2-0.3-1.8c-0.1-0.9-0.4-1.9-0.9-2.7v-0.1V258c0-0.3,0-0.8,0.1-1.2c0.1-0.5,0.1-0.9,0.1-1.5l-0.1-0.6
		c-0.5-2.4-0.8-4.3-0.8-5.4V249l-0.2-0.4c-0.1-0.2-0.2-0.6-0.2-1c-0.1-0.6-0.3-1.1-0.3-1.6l-0.1-0.3h2.8l0.5-6.5l-1.9-2.1v-3.5h3.4
		v-5.9h10.8l4.2,26.2l1.6,1.2l1.3-1.6c0,0-0.8,2.3-0.9,2.9c-0.6,2-1.3,4-1.8,6c-0.8,2.9-2.2,5.3-3.7,7.6c-0.7,1.1-1.4,2.2-2.1,3.4
		c-0.8,1.5-1.6,3.2-2.2,4.7c-0.3,0.9-0.8,1.7-1.1,2.6l-0.2,0.3L650.6,278.1z"/>
	<polygon id="branch" class="st11" points="780.6,470.5 790.9,469.7 800.7,467.9 804,484.6 782.1,486.3 	"/>
	<polygon id="mecosta" class="st11" points="756,359.2 776,357.4 778.3,377 758.7,379.2 	"/>
	<path id="eaton" class="st11" d="M785.9,423.2h0.3c11.3-0.9,14.5-1.1,15.6-1.5l0.2-0.1v0.1c0.4-0.1,1.4-0.3,2.9-0.5h0.2l3.9,19.3
		l-1.6,0.2l-19.5,3.6L785.9,423.2z"/>
	<polygon id="montcalm" class="st11" points="770.9,389.7 758.4,389.7 758.8,381.1 789.1,377.7 791.4,382.3 792.7,397.8 
		770.9,400.7 	"/>
	<path id="ionia" class="st11" d="M770.9,406.6v-3.9l22.1-2.9l1.8,20.8h-0.2c-4.5,0.3-10.3,0.9-14.7,1.1l-4.9,0.8L770.9,406.6z"/>
	<polygon id="calhoun" class="st11" points="778.4,447.7 782.9,447.3 804.4,443.2 806.1,464.9 800.3,466 800.1,466.1 790.6,467.8 
		780.4,468.6 	"/>
	<polygon id="hillsdale" class="st11" points="802.6,467.5 816.1,465.1 822.1,464.3 825.8,483.3 806.4,486.4 	"/>
	<polygon id="kalamazoo" class="st11" points="754.7,449.9 776.5,447.9 778.4,468.6 758.3,470.1 	"/>
	<polygon id="osceola_1_" class="st11" points="752.8,335.1 773.3,332.8 775.9,355.5 755.8,357.3 	"/>
	<path id="allegan" class="st11" d="M729.4,449.9c0.6-2.9,0.9-5.3,1-7.7c0.1-1.8,0.3-3.7,0.7-5.5c0.4-2.3,0.8-4.8,0.6-7.2l-0.1-0.6
		h0.4c0,0.2,0,0.4,0.1,0.6v0.3l18.9-1.7v0.1l11-1.8l2.2,20.6l-34.9,3.2L729.4,449.9L729.4,449.9z"/>
	<polygon id="newaygo" class="st11" points="736,393.9 734.7,387.3 732.9,361.3 754.1,359.4 756.9,380.2 756.4,389.7 752,389.7 
		750.8,391.3 740.5,391.3 740.5,394 	"/>
	<path id="ottawa" class="st11" d="M731.7,428.9c-0.3-3.2-1.2-9.2-2.8-13.3c-0.5-1.4-0.9-2.8-1.4-4.1c-0.4-1.3-0.9-2.6-1.3-3.9
		l0.4-0.2l0.4,0.9l3.5-1.6l13.7-2.4v-4.8h3.4l3.1,26.6l-18.8,1.6l0.1,0.9h-0.3L731.7,428.9L731.7,428.9z"/>
	<polygon id="arenac" class="st11" points="817.7,327.8 818.9,336.9 824,336.9 824,342.7 826.1,342.7 826.1,340.3 830.5,340.3 
		830.5,340.3 830.9,340.3 830.9,339.9 833.8,336 839.4,335.8 843.5,330 843.5,323.8 	"/>
	<path id="bay_1_" class="st11" d="M842,360.9c-0.3,0-0.5,0-0.8-0.2l-2.2-1.4l-4.5-1.6l-3.7-6V342h-0.4l0,0H828v2.4h-6v-5.8h-2.9
		l1.6,10.9h-0.1l1.1,14.9l21.5,4.5l-0.8-8.2H842V360.9z"/>
</g>
<g id="balls">
	<circle id="monroe_circle" class="st9" cx="864.3" cy="467.9" r="7.2"/>
	<circle id="wayne_circle" class="st9" cx="873.9" cy="444.7" r="7.2"/>
	<circle id="lenawee_circle" class="st9" cx="838.8" cy="470.8" r="7.2"/>
	<circle id="washtenaw_circle" class="st9" cx="846" cy="449.2" r="7.2"/>
	<circle id="hillsdale_circle" class="st9" cx="813.4" cy="475.1" r="7.2"/>
	<circle id="jackson_circle" class="st9" cx="819.6" cy="451.6" r="7.2"/>
	<circle id="branch_circle" class="st9" cx="792.3" cy="478" r="7.2"/>
	<circle id="calhoun_circle" class="st9" cx="791.8" cy="456.9" r="7.2"/>
	<circle id="st_joseph_circle" class="st9" cx="767.8" cy="479" r="7.2"/>
	<circle id="kalamazoo_circle" class="st9" cx="766.8" cy="459.3" r="7.2"/>
	<circle id="cass_circle" class="st9" cx="747.6" cy="481.4" r="7.2"/>
	<circle id="berrien_circle" class="st9" cx="726" cy="482.1" r="7.2"/>
	<circle id="van_buren_circle" class="st9" cx="740.9" cy="461.7" r="7.2"/>
	<circle id="allegan_circle" class="st9" cx="747.2" cy="439.1" r="7.2"/>
	<circle id="barry_circle" class="st9" cx="775.5" cy="435.3" r="7.2"/>
	<circle id="eaton_circle" class="st9" cx="796.6" cy="431.9" r="7.2"/>
	<circle id="ingham_circle" class="st9" cx="819.2" cy="429.5" r="7.2"/>
	<circle id="livingston_circle" class="st9" cx="840.3" cy="426.2" r="7.2"/>
	<circle id="oakland_circle" class="st9" cx="866.2" cy="420.9" r="7.2"/>
	<circle id="macomb_circle" class="st9" cx="886.8" cy="413" r="7.2"/>
	<circle id="st_clair_circle" class="st9" cx="896.9" cy="394.5" r="7.2"/>
	<circle id="lapeer_circle" class="st9" cx="867.6" cy="390.7" r="7.2"/>
	<circle id="genesee_circle" class="st9" cx="848" cy="398.8" r="7.2"/>
	<circle id="shiawassee_circle" class="st9" cx="827.3" cy="404.6" r="7.2"/>
	<circle id="clinton_circle" class="st9" cx="805.2" cy="408.9" r="7.2"/>
	<circle id="ionia_circle" class="st9" cx="784.1" cy="411.1" r="7.2"/>
	<circle id="kent_circle" class="st9" cx="760.6" cy="408.9" r="7.2"/>
	<circle id="montcalm_circle" class="st9" cx="778.8" cy="388.7" r="7.2"/>
	<circle id="gratiot_circle" class="st9" cx="802.8" cy="386.8" r="7.2"/>
	<circle id="saginaw_circle" class="st9" cx="827.8" cy="381.5" r="7.2"/>
	<circle id="sanilac_circle" class="st9" cx="884.4" cy="368.1" r="7.2"/>
	<circle id="tuscola_circle" class="st9" cx="856.6" cy="367.1" r="7.2"/>
	<circle id="huron_circle" class="st9" cx="871.5" cy="341.7" r="7.2"/>
	<circle id="ottawa_circle" class="st9" cx="739" cy="415.4" r="7.2"/>
	<circle id="muskegon_circle" class="st9" cx="728" cy="395" r="7.2"/>
	<circle id="oceana_circle" class="st9" cx="720.8" cy="372.9" r="7.2"/>
	<circle id="newaygo_circle" class="st9" cx="744.3" cy="374.8" r="7.2"/>
	<circle id="mecosta_circle" class="st9" cx="766.8" cy="368.6" r="7.2"/>
	<circle id="isabella_circle" class="st9" cx="788" cy="365.2" r="7.2"/>
	<circle id="midland_circle" class="st9" cx="809.6" cy="361.6" r="7.2"/>
	<circle id="bay_circle" class="st9" cx="827.8" cy="357.5" r="7.2"/>
	<circle id="arenac_circle" class="st9" cx="829.2" cy="332.1" r="7.2"/>
	<circle id="gladwin_circle" class="st9" cx="807.2" cy="340.7" r="7.2"/>
	<circle id="clare_circle" class="st9" cx="786.5" cy="343.1" r="7.2"/>
	<circle id="osceola_circle" class="st9" cx="764.4" cy="345.5" r="7.2"/>
	<circle id="lake_circle" class="st9" cx="742.4" cy="347.9" r="7.2"/>
	<circle id="mason_circle" class="st9" cx="720.8" cy="350.3" r="7.2"/>
	<circle id="manistee_circle" class="st9" cx="728.4" cy="327.8" r="7.2"/>
	<circle id="wexford_circle" class="st9" cx="748.6" cy="323" r="7.2"/>
	<circle id="missaukee_circle" class="st9" cx="770.6" cy="320.1" r="7.2"/>
	<circle id="roscommon_circle" class="st9" cx="794.2" cy="319.4" r="7.2"/>
	<circle id="ogemaw_circle" class="st9" cx="816.3" cy="316.7" r="7.2"/>
	<circle id="iosco_circle" class="st9" cx="839.3" cy="312.4" r="7.2"/>
	<circle id="alcona_circle" class="st9" cx="838.4" cy="290.1" r="7.2"/>
	<circle id="oscoda_circle" class="st9" cx="813.4" cy="294.7" r="7.2"/>
	<circle id="crawford_circle" class="st9" cx="791.8" cy="297.5" r="7.2"/>
	<circle id="kalkaska_circle" class="st9" cx="768.8" cy="299" r="7.2"/>
	<circle id="grand_traverse_circle" class="st9" cx="747.6" cy="301.9" r="7.2"/>
	<circle id="benzie_circle" class="st9" cx="726.1" cy="306.7" r="7.2"/>
	<circle id="alpena_circle" class="st9" cx="832.7" cy="267.8" r="7.2"/>
	<circle id="montmorency_circle" class="st9" cx="811.2" cy="271.4" r="7.2"/>
	<circle id="otsego_circle" class="st9" cx="789.5" cy="274.3" r="7.2"/>
	<circle id="antrim_circle" class="st9" cx="765.2" cy="277.9" r="7.2"/>
	<circle id="leelanau_circle" class="st9" cx="736.2" cy="287.2" r="7.2"/>
	<circle id="charlevoix_circle" class="st9" cx="765.7" cy="264.9" r="7.2"/>
	<circle id="presque_isle_circle" class="st9" cx="815.6" cy="248.3" r="7.2"/>
	<circle id="cheboygan_circle" class="st9" cx="790.4" cy="246.9" r="7.2"/>
	<circle id="emmet_circle" class="st9" cx="771.5" cy="245.5" r="7.2"/>
	<circle id="mackinac_circle" class="st9" cx="757.7" cy="209.4" r="7.2"/>
	<circle id="chippewa_circle" class="st9" cx="772.8" cy="192.8" r="7.2"/>
	<circle id="luce_circle" class="st9" cx="735.5" cy="185.7" r="7.2"/>
	<circle id="schoolcraft_circle" class="st9" cx="709.6" cy="208" r="7.2"/>
	<circle id="alger_circle" class="st9" cx="693.7" cy="190.8" r="7.2"/>
	<circle id="delta_circle" class="st9" cx="677.9" cy="224.6" r="7.2"/>
	<circle id="menominee_circle" class="st9" cx="653.4" cy="250.5" r="7.2"/>
	<circle id="dickinson_circle" class="st9" cx="634.7" cy="223.9" r="7.2"/>
	<circle id="marquette_circle" class="st9" cx="643.3" cy="198" r="7.2"/>
	<circle id="iron_circle" class="st9" cx="604.4" cy="214.5" r="7.2"/>
	<circle id="baraga_circle" class="st9" cx="607.5" cy="185" r="7.2"/>
	<circle id="keweenaw_circle" class="st9" cx="615.2" cy="139.6" r="7.2"/>
	<circle id="houghton_circle" class="st9" cx="590.8" cy="169.9" r="7.2"/>
	<circle id="ontonagon_circle" class="st9" cx="564.7" cy="187.9" r="7.2"/>
	<circle id="gogebic_circle" class="st9" cx="544.7" cy="204.4" r="7.2"/>
	<text id="monroe_numbers" transform="matrix(1 2.629964e-03 -2.629964e-03 1 861.0803 469.5794)" class="st12 st7 st13">10</text>
	<text id="wayne_numbers" transform="matrix(1 2.629964e-03 -2.629964e-03 1 870.6794 446.2989)" class="st12 st7 st13">10</text>
	<text id="lenawee_numbers" transform="matrix(1 2.629964e-03 -2.629964e-03 1 835.6403 472.4593)" class="st12 st7 st13">10</text>
	<text id="washtenaw_numbers" transform="matrix(1 2.629964e-03 -2.629964e-03 1 842.8403 450.8592)" class="st12 st7 st13">10</text>
	<text id="hillsdale_numbers" transform="matrix(1 2.629964e-03 -2.629964e-03 1 810.2003 476.7793)" class="st12 st7 st13">10</text>
	<text id="jackson_numbers" transform="matrix(1 2.629964e-03 -2.629964e-03 1 816.4402 453.2592)" class="st12 st7 st13">10</text>
	<text id="branch_numbers" transform="matrix(1 2.629964e-03 -2.629964e-03 1 789.0803 479.6593)" class="st12 st7 st13">10</text>
	<text id="calhoun_numbers" transform="matrix(1 2.629964e-03 -2.629964e-03 1 788.6003 458.5393)" class="st12 st7 st13">10</text>
	<text id="st_joseph_numbers" transform="matrix(1 2.629964e-03 -2.629964e-03 1 764.6003 480.6192)" class="st12 st7 st13">10</text>
	<text id="kalamazoo_numbers" transform="matrix(1 2.629964e-03 -2.629964e-03 1 763.6403 460.9392)" class="st12 st7 st13">10</text>
	<text id="cass_numbers" transform="matrix(1 2.629964e-03 -2.629964e-03 1 744.4402 483.0193)" class="st12 st7 st13">10</text>
	<text id="berrien_numbers" transform="matrix(1 2.629964e-03 -2.629964e-03 1 722.8395 483.7389)" class="st12 st7 st13">10</text>
	<text id="van_buren_numbers" transform="matrix(1 2.629964e-03 -2.629964e-03 1 737.7203 463.3792)" class="st12 st7 st13">10</text>
	<text id="allegan_numbers" transform="matrix(1 2.629964e-03 -2.629964e-03 1 743.9603 440.7793)" class="st12 st7 st13">10</text>
	<text id="barry_numbers" transform="matrix(1 2.629964e-03 -2.629964e-03 1 772.2803 436.9392)" class="st12 st7 st13">10</text>
	<text id="eaton_numbers" transform="matrix(1 2.629964e-03 -2.629964e-03 1 793.4003 433.5794)" class="st12 st7 st13">10</text>
	<text id="ingham_numbers" transform="matrix(1 2.629964e-03 -2.629964e-03 1 815.9603 431.1792)" class="st12 st7 st13">10</text>
	<text id="livingston_numbers" transform="matrix(1 2.629964e-03 -2.629964e-03 1 837.0803 427.8192)" class="st12 st7 st13">10</text>
	<text id="oakland_numbers" transform="matrix(1 2.629964e-03 -2.629964e-03 1 863.0002 422.5393)" class="st12 st7 st13">10</text>
	<text id="macomb_numbers" transform="matrix(1 2.629964e-03 -2.629964e-03 1 883.6394 414.6189)" class="st12 st7 st13">10</text>
	<text id="st_clair_numbers" transform="matrix(1 2.629964e-03 -2.629964e-03 1 893.7202 396.1394)" class="st12 st7 st13">10</text>
	<text id="lapeer_numbers" transform="matrix(1 2.629964e-03 -2.629964e-03 1 864.4402 392.2991)" class="st12 st7 st13">10</text>
	<text id="genesee_numbers" transform="matrix(1 2.629964e-03 -2.629964e-03 1 844.7603 400.4593)" class="st12 st7 st13">10</text>
	<text id="shiawassee_numbers" transform="matrix(1 2.629964e-03 -2.629964e-03 1 824.1203 406.2193)" class="st12 st7 st13">10</text>
	<text id="clinton_numbers" transform="matrix(1 2.629964e-03 -2.629964e-03 1 802.0403 410.5393)" class="st12 st7 st13">10</text>
	<text id="ionia_numbers" transform="matrix(1 2.629964e-03 -2.629964e-03 1 780.9194 412.6989)" class="st12 st7 st13">10</text>
	<text id="kent_numbers" transform="matrix(1 2.629964e-03 -2.629964e-03 1 757.4003 410.5393)" class="st12 st7 st13">10</text>
	<text id="montcalm_numbers" transform="matrix(1 2.629964e-03 -2.629964e-03 1 775.6403 390.3792)" class="st12 st7 st13">10</text>
	<text id="gratiot_numbers" transform="matrix(1 2.629964e-03 -2.629964e-03 1 799.6403 388.4593)" class="st12 st7 st13">10</text>
	<text id="saginaw_numbers" transform="matrix(1 2.629964e-03 -2.629964e-03 1 824.6003 383.1792)" class="st12 st7 st13">10</text>
	<text id="sanilac_numbers" transform="matrix(1 2.629964e-03 -2.629964e-03 1 881.2402 369.7393)" class="st12 st7 st13">10</text>
	<text id="tuscola_numbers" transform="matrix(1 2.629964e-03 -2.629964e-03 1 853.4003 368.7793)" class="st12 st7 st13">10</text>
	<text id="huron_numbers" transform="matrix(1 2.629964e-03 -2.629964e-03 1 868.2803 343.3394)" class="st12 st7 st13">10</text>
	<text id="ottawa_numbers" transform="matrix(1 2.629964e-03 -2.629964e-03 1 735.7595 417.0191)" class="st12 st7 st13">10</text>
	<text id="muskegon_numbers" transform="matrix(1 2.629964e-03 -2.629964e-03 1 724.7603 396.6192)" class="st12 st7 st13">10</text>
	<text id="oceana_numbers" transform="matrix(1 2.629964e-03 -2.629964e-03 1 717.5602 374.5393)" class="st12 st7 st13">10</text>
	<text id="newaygo_numbers" transform="matrix(1 2.629964e-03 -2.629964e-03 1 741.0803 376.4593)" class="st12 st7 st13">10</text>
	<text id="mecosta_numbers" transform="matrix(1 2.629964e-03 -2.629964e-03 1 763.6403 370.2193)" class="st12 st7 st13">10</text>
	<text id="isabella_numbers" transform="matrix(1 2.629964e-03 -2.629964e-03 1 784.7603 366.8592)" class="st12 st7 st13">10</text>
	<text id="midland_numbers" transform="matrix(1 2.629964e-03 -2.629964e-03 1 806.3594 363.2588)" class="st12 st7 st13">10</text>
	<text id="bay_numbers" transform="matrix(1 2.629964e-03 -2.629964e-03 1 824.6003 359.1792)" class="st12 st7 st13">10</text>
	<text id="arenac_numbers" transform="matrix(1 2.629964e-03 -2.629964e-03 1 826.0403 333.7393)" class="st12 st7 st13">10</text>
	<text id="gladwin_numbers" transform="matrix(1 2.629964e-03 -2.629964e-03 1 803.9603 342.3792)" class="st12 st7 st13">10</text>
	<text id="clare_numbers" transform="matrix(1 2.629964e-03 -2.629964e-03 1 783.3203 344.7793)" class="st12 st7 st13">10</text>
	<text id="osceola_numbers" transform="matrix(1 2.629964e-03 -2.629964e-03 1 761.2403 347.1792)" class="st12 st7 st13">10</text>
	<text id="lake_numbers" transform="matrix(1 2.629964e-03 -2.629964e-03 1 739.1603 349.5794)" class="st12 st7 st13">10</text>
	<text id="mason_numbers" transform="matrix(1 2.629964e-03 -2.629964e-03 1 717.5602 351.9793)" class="st12 st7 st13">10</text>
	<text id="manistee_numbers" transform="matrix(1 2.629964e-03 -2.629964e-03 1 725.2403 329.4192)" class="st12 st7 st13">10</text>
	<text id="wexford_numbers" transform="matrix(1 2.629964e-03 -2.629964e-03 1 745.4003 324.6192)" class="st12 st7 st13">10</text>
	<text id="missaukee_numbers" transform="matrix(1 2.629964e-03 -2.629964e-03 1 767.4003 321.7393)" class="st12 st7 st13">10</text>
	<text id="roscommon_numbers" transform="matrix(1 2.629964e-03 -2.629964e-03 1 790.9995 321.0193)" class="st12 st7 st13">10</text>
	<text id="ogemaw_numbers" transform="matrix(1 2.629964e-03 -2.629964e-03 1 813.0803 318.3792)" class="st12 st7 st13">10</text>
	<text id="iosco_numbers" transform="matrix(1 2.629964e-03 -2.629964e-03 1 836.1203 314.0591)" class="st12 st7 st13">10</text>
	<text id="alcona_numbers" transform="matrix(1 2.629964e-03 -2.629964e-03 1 835.1595 291.7393)" class="st12 st7 st13">10</text>
	<text id="oscoda_numbers" transform="matrix(1 2.629964e-03 -2.629964e-03 1 810.2003 296.2991)" class="st12 st7 st13">10</text>
	<text id="crawford_numbers" transform="matrix(1 2.629964e-03 -2.629964e-03 1 788.6003 299.1792)" class="st12 st7 st13">10</text>
	<text id="kalkaska_numbers" transform="matrix(1 2.629964e-03 -2.629964e-03 1 765.5603 300.6192)" class="st12 st7 st13">10</text>
	<text id="grand_traverse_numbers" transform="matrix(1 2.629964e-03 -2.629964e-03 1 744.4403 303.4993)" class="st12 st7 st13">10</text>
	<text id="benzie_numbers" transform="matrix(1 2.629964e-03 -2.629964e-03 1 722.9222 308.3242)" class="st12 st7 st13">10</text>
	<text id="alpena_numbers" transform="matrix(1 2.629964e-03 -2.629964e-03 1 829.4822 269.4444)" class="st12 st7 st13">10</text>
	<text id="montmorency_numbers" transform="matrix(1 2.629964e-03 -2.629964e-03 1 808.0403 273.0193)" class="st12 st7 st13">10</text>
	<text id="otsego_numbers" transform="matrix(1 2.629964e-03 -2.629964e-03 1 786.2822 275.9243)" class="st12 st7 st13">10</text>
	<text id="antrim_numbers" transform="matrix(1 2.629964e-03 -2.629964e-03 1 761.9603 279.4993)" class="st12 st7 st13">10</text>
	<text id="leelanau_numbers" transform="matrix(1 2.629964e-03 -2.629964e-03 1 733.0022 288.8843)" class="st12 st7 st13">10</text>
	<text id="charlevoix_numbers" transform="matrix(1 2.629964e-03 -2.629964e-03 1 762.5222 266.5642)" class="st12 st7 st13">10</text>
	<text id="presque_isle_numbers" transform="matrix(1 2.629964e-03 -2.629964e-03 1 812.3603 249.9793)" class="st12 st7 st13">10</text>
	<text id="cheboygan_numbers" transform="matrix(1 2.629964e-03 -2.629964e-03 1 787.1603 248.5393)" class="st12 st7 st13">10</text>
	<text id="emmet_numbers" transform="matrix(1 2.629964e-03 -2.629964e-03 1 768.2822 247.1243)" class="st12 st7 st13">10</text>
	<text id="mackinac_numbers" transform="matrix(1 2.629964e-03 -2.629964e-03 1 754.4886 211.0806)" class="st12 st7 st13">10</text>
	<text id="chippewa_numbers" transform="matrix(1 2.629964e-03 -2.629964e-03 1 769.5622 194.4043)" class="st12 st7 st13">10</text>
	<text id="luce_numbers" transform="matrix(1 2.629964e-03 -2.629964e-03 1 732.2822 187.3643)" class="st12 st7 st13">10</text>
	<text id="schoolcraft_numbers" transform="matrix(1 2.629964e-03 -2.629964e-03 1 706.3622 209.6844)" class="st12 st7 st13">10</text>
	<text id="alger_numbers" transform="matrix(1 2.629964e-03 -2.629964e-03 1 690.5222 192.4043)" class="st12 st7 st13">10</text>
	<text id="delta_numbers" transform="matrix(1 2.629964e-03 -2.629964e-03 1 674.6822 226.2444)" class="st12 st7 st13">10</text>
	<text id="menominee_numbers" transform="matrix(1 2.629964e-03 -2.629964e-03 1 650.2022 252.1643)" class="st12 st7 st13">10</text>
	<text id="dickinson_numbers" transform="matrix(1 2.629964e-03 -2.629964e-03 1 631.4822 225.5242)" class="st12 st7 st13">10</text>
	<text id="marquette_numbers" transform="matrix(1 2.629964e-03 -2.629964e-03 1 640.1222 199.6043)" class="st12 st7 st13">10</text>
	<text id="iron_numbers" transform="matrix(1 2.629964e-03 -2.629964e-03 1 601.2422 216.1643)" class="st12 st7 st13">10</text>
	<text id="baraga_numbers" transform="matrix(1 2.629964e-03 -2.629964e-03 1 604.2799 186.6194)" class="st12 st7 st13">10</text>
	<text id="keweenaw_numbers" transform="matrix(1 2.629964e-03 -2.629964e-03 1 612.0422 141.2842)" class="st12 st7 st13">10</text>
	<text id="houghton_numbers" transform="matrix(1 2.629964e-03 -2.629964e-03 1 587.5622 171.5242)" class="st12 st7 st13">10</text>
	<text id="ontonagon_numbers" transform="matrix(1 2.629964e-03 -2.629964e-03 1 561.5199 189.4993)" class="st12 st7 st13">10</text>
	<text id="gogebic_numbers" transform="matrix(1 2.629964e-03 -2.629964e-03 1 541.4822 206.0843)" class="st12 st7 st13">10</text>
</g>
<g id="table_data">
	<text transform="matrix(1 0 0 1 23.7819 677.9983)" class="st2 st7 st8">Confirmed Cases</text>
	<text transform="matrix(1 0 0 1 23.7819 721.9299)" class="st2 st7 st8">Deaths</text>
	<text id="current_date" transform="matrix(1 0 0 1 207.3115 633.7161)" class="st2 st7 st8">6 Apr. 2020</text>
	<text id="previous_date" transform="matrix(1 0 0 1 342.0897 633.7161)" class="st2 st7 st8">5 Apr. 2020</text>
	<text id="growth_rate__x25_" transform="matrix(1 0 0 1 461.1578 633.7161)" class="st2 st7 st8">Growth Rate %</text>
	<text transform="matrix(1 0 0 1 676.4329 633.7161)" class="st2 st7 st8">Total Confirmed Cases</text>
	<text id="current_сases" transform="matrix(1 0 0 1 230.1671 681.7502)" class="st14 st7 st5">783</text>
	<text id="previous_deaths" transform="matrix(1 0 0 1 372.8802 726.2297)" class="st14 st7 st5">14</text>
	<text id="current_deaths" transform="matrix(1 0 0 1 233.6874 725.25)" class="st14 st7 st5">15</text>
	<text id="total_cases" transform="matrix(1 0 0 1 734.8821 710.8933)" class="st15 st7 st16">783</text>
	<text id="previous_сases" transform="matrix(1 0 0 1 364.9674 681.7502)" class="st14 st7 st5">673</text>
	<text id="cases_growth_rate" transform="matrix(1 0 0 1 494.8805 683.2865)" class="st14 st7 st5">16 %</text>
	<text id="death_growth_rate" transform="matrix(1 0 0 1 499.2798 727.7656)" class="st14 st7 st5">7v %</text>
</g>
	<image style="overflow:visible;" width="160" height="104" id="LOGO" xlink:href="../maps/SR Logos/Michigan.png"  transform="matrix(0.4392 0 0 0.4392 838.7281 5.0807)">
	</image>
</svg>
