<?xml version="1.0" encoding="utf-8"?>
<!-- Generator: Adobe Illustrator 23.0.5, SVG Export Plug-In . SVG Version: 6.00 Build 0)  -->
<svg version="1.1" id="Layer_1" xmlns="http://www.w3.org/2000/svg" xmlns:xlink="http://www.w3.org/1999/xlink" x="0px" y="0px"
	 viewBox="0 0 916.5 740.2" style="enable-background:new 0 0 916.5 740.2;" xml:space="preserve">
<style type="text/css">
	.st0{fill:#F5FBFE;}
	.st1{fill:#DDEEFA;}
	.st2{fill:#255078;}
	.st3{font-family:'Georgia';}
	.st4{font-size:18px;}
	.st5{font-size:16px;}
	.st6{fill:#4C4B4D;}
	.st7{font-family:'ArialMT';}
	.st8{font-size:14px;}
	.st9{fill:#4C4B4C;}
	.st10{fill:#DB3029;}
	.st11{font-size:36px;}
	.st12{fill:#AEDBF5;}
	.st13{fill:#CD483B;}
	.st14{fill:#FFFFFF;}
	.st15{font-size:6.0432px;}
	.st16{fill:none;}
</style>
<g id="Texts">
	<polygon id="blue_bg" class="st0" points="-0.1,604.9 -0.1,641.9 -0.1,651.5 -0.1,740.3 173.4,740.3 173.4,651.5 914.9,651.5 
		914.9,604.9 	"/>
	<path id="line_bg" class="st1" d="M916.4,1.1H-0.1v130v474.4v2v42.9v2v42.9v2v42.9l0,0h579.8l0,0h333.2l0,0h3.5V1.1z M912.9,57.9
		v547.6H578.3l-0.6-0.3v0.3H443.5l-0.6-0.3v0.3H2.9V57.9H912.9z M912.9,607.5v42.9H579.7v-42.9H912.9z M445,650.5v-42.9h132.8v42.9
		H445z M577.7,652.5v42.9H445v-42.9H577.7z M310.2,650.5v-42.9H443v42.9H310.2z M443,652.5v42.9H310.2v-42.9H443z M175.4,650.5
		v-42.9h132.8v42.9H175.4z M308.2,652.5v42.9H175.4v-42.9H308.2z M173.4,607.5v42.9H2.9v-42.9H173.4z M173.4,652.5v42.9H2.9v-42.9
		H173.4z M2.9,697.4h170.5v39.9H2.9V697.4z M175.4,697.4h132.8v39.9H175.4V697.4z M310.2,697.4H443v39.9H310.2V697.4z M445,697.4
		h132.8v39.9H445V697.4z M579.7,652.5h333.2v84.8H579.7V652.5z"/>
	<text id="title" transform="matrix(1 0 0 1 32.8483 35.8371)" class="st2 st3 st4">COVID-19 in Minnesota on</text>
	<text id="date" transform="matrix(1 0 0 1 256.4693 35.8371)" class="st2 st3 st4">April 27th, 2020</text>
	<text id="state_confirmed" transform="matrix(1 0 0 1 35.1513 93.6853)" class="st2 st3 st5">State Confirmed Cases By County</text>
	<g>
		<text transform="matrix(1 0 0 1 34.89 151.1134)" class="st6 st7 st8">Anoka  10</text>
		<text transform="matrix(1 0 0 1 34.89 172.1557)" class="st6 st7 st8">Becker  10</text>
		<text transform="matrix(1 0 0 1 34.89 193.1987)" class="st6 st7 st8">Beltrami  10</text>
		<text transform="matrix(1 0 0 1 34.89 214.241)" class="st6 st7 st8">Benton  10</text>
		<text transform="matrix(1 0 0 1 34.89 235.2836)" class="st6 st7 st8">Big Stone  10</text>
		<text transform="matrix(1 0 0 1 34.8685 256.3258)" class="st6 st7 st8">Blue Earth  10</text>
		<text transform="matrix(1 0 0 1 34.8685 277.3683)" class="st6 st7 st8">Brown  10</text>
		<text transform="matrix(1 0 0 1 34.8898 130.0709)" class="st6 st7 st8">Aitkin  10</text>
		<text transform="matrix(1 0 0 1 34.8685 319.4531)" class="st6 st7 st8">Carver  10</text>
		<text transform="matrix(1 0 0 1 34.8683 340.496)" class="st6 st7 st8">Cass  10</text>
		<text transform="matrix(1 0 0 1 34.8683 298.4108)" class="st6 st7 st8">Carlton  10</text>
		<text transform="matrix(1 0 0 1 34.8686 361.5386)" class="st6 st7 st8">Chippewa  10</text>
		<text transform="matrix(1 0 0 1 34.8686 382.5804)" class="st6 st7 st8">Chisago  10</text>
		<text transform="matrix(1 0 0 1 34.8683 403.6238)" class="st6 st7 st8">Clay  10</text>
		<text transform="matrix(1 0 0 1 34.8686 424.6665)" class="st6 st7 st8">Clearwater  10</text>
		<text transform="matrix(1 0 0 1 34.8683 445.7089)" class="st6 st7 st8">Cook  10</text>
		<text transform="matrix(1 0 0 1 34.8686 487.7939)" class="st6 st7 st8">Crow Wing  10</text>
		<text transform="matrix(1 0 0 1 34.8686 508.837)" class="st6 st7 st8">Dakota  10</text>
		<text transform="matrix(1 0 0 1 34.8686 529.8792)" class="st6 st7 st8">Dodge  10</text>
		<text transform="matrix(1 0 0 1 34.8686 550.9216)" class="st6 st7 st8">Douglas  10</text>
		<text transform="matrix(1 0 0 1 34.8686 571.9645)" class="st6 st7 st8">Faribault  10</text>
		<text transform="matrix(1 0 0 1 34.8682 466.7521)" class="st6 st7 st8">Cottonwood  10</text>
		<text transform="matrix(1 0 0 1 163.2462 130.071)" class="st6 st7 st8">Fillmore  10</text>
		<text transform="matrix(1 0 0 1 163.2462 151.09)" class="st6 st7 st8">Freeborn  10</text>
		<text transform="matrix(1 0 0 1 163.2462 193.1274)" class="st6 st7 st8">Grant  10</text>
		<text transform="matrix(1 0 0 1 163.2462 214.1461)" class="st6 st7 st8">Hennepin  10</text>
		<text transform="matrix(1 0 0 1 163.2462 235.1655)" class="st6 st7 st8">Houston  10</text>
		<text transform="matrix(1 0 0 1 163.2465 172.1086)" class="st6 st7 st8">Goodhue  10</text>
		<text transform="matrix(1 0 0 1 163.2462 256.3257)" class="st6 st7 st8">Hubbard  10</text>
		<text transform="matrix(1 0 0 1 163.2465 277.3444)" class="st6 st7 st8">Isanti  10</text>
		<text transform="matrix(1 0 0 1 163.2466 298.3627)" class="st6 st7 st8">Itasca  10</text>
		<text transform="matrix(1 0 0 1 163.2464 319.3815)" class="st6 st7 st8">Jackson  10</text>
		<text transform="matrix(1 0 0 1 163.2463 340.3998)" class="st6 st7 st8">Kanabec  10</text>
		<text transform="matrix(1 0 0 1 163.2465 361.4192)" class="st6 st7 st8">Kandiyohi  10</text>
		<text transform="matrix(1 0 0 1 163.2465 382.4371)" class="st6 st7 st8">Kittson  10</text>
		<text transform="matrix(1 0 0 1 163.2465 403.4559)" class="st6 st7 st8">Koochiching  10</text>
		<text transform="matrix(1 0 0 1 163.2465 424.4741)" class="st6 st7 st8">Lac qui Parle  10</text>
		<text transform="matrix(1 0 0 1 163.2465 445.4928)" class="st6 st7 st8">Lake  10</text>
		<text transform="matrix(1 0 0 1 163.2465 466.512)" class="st6 st7 st8">Lake of the Woods  10</text>
		<text transform="matrix(1 0 0 1 163.2464 508.55)" class="st6 st7 st8">Lincoln  10</text>
		<text transform="matrix(1 0 0 1 163.2464 529.5688)" class="st6 st7 st8">Lyon  10</text>
		<text transform="matrix(1 0 0 1 163.2465 551.0864)" class="st6 st7 st8">Mahnomen  10</text>
		<text transform="matrix(1 0 0 1 163.2462 487.5305)" class="st6 st7 st8">Le Sueur  10</text>
		<text transform="matrix(1 0 0 1 163.2459 571.9636)" class="st6 st7 st8">Marshall  10</text>
		<text transform="matrix(1 0 0 1 308.5627 529.428)" class="st6 st7 st8">Redwood  10</text>
		<text transform="matrix(1 0 0 1 308.5627 550.9448)" class="st6 st7 st8">Renville  10</text>
		<text transform="matrix(1 0 0 1 308.563 130.0708)" class="st6 st7 st8">Martin  10</text>
		<text transform="matrix(1 0 0 1 308.563 172.1081)" class="st6 st7 st8">Meeker  10</text>
		<text transform="matrix(1 0 0 1 308.5629 193.1272)" class="st6 st7 st8">Mille Lacs  10</text>
		<text transform="matrix(1 0 0 1 308.5629 214.1455)" class="st6 st7 st8">Morrison  10</text>
		<text transform="matrix(1 0 0 1 308.5629 235.1649)" class="st6 st7 st8">Mower  10</text>
		<text transform="matrix(1 0 0 1 308.5627 256.1835)" class="st6 st7 st8">Murray  10</text>
		<text transform="matrix(1 0 0 1 308.5629 151.0896)" class="st6 st7 st8">McLeod  10</text>
		<text transform="matrix(1 0 0 1 308.563 277.2024)" class="st6 st7 st8">Nicollet  10</text>
		<text transform="matrix(1 0 0 1 308.563 298.2205)" class="st6 st7 st8">Nobles  10</text>
		<text transform="matrix(1 0 0 1 308.5627 319.2399)" class="st6 st7 st8">Norman  10</text>
		<text transform="matrix(1 0 0 1 308.5626 340.2588)" class="st6 st7 st8">Olmsted  10</text>
		<text transform="matrix(1 0 0 1 308.5626 361.277)" class="st6 st7 st8">Otter Tail  10</text>
		<text transform="matrix(1 0 0 1 308.5626 382.2964)" class="st6 st7 st8">Pennington  10</text>
		<text transform="matrix(1 0 0 1 308.5626 403.3145)" class="st6 st7 st8">Pine  10</text>
		<text transform="matrix(1 0 0 1 308.5626 424.3335)" class="st6 st7 st8">Pipestone  10</text>
		<text transform="matrix(1 0 0 1 308.5626 445.3523)" class="st6 st7 st8">Polk  10</text>
		<text transform="matrix(1 0 0 1 308.5626 466.3711)" class="st6 st7 st8">Pope  10</text>
		<text transform="matrix(1 0 0 1 308.5626 508.4087)" class="st6 st7 st8">Red Lake  10</text>
		<text transform="matrix(1 0 0 1 308.5629 487.3899)" class="st6 st7 st8">Ramsey  10</text>
		<text transform="matrix(1 0 0 1 308.5624 571.9641)" class="st6 st7 st8">Rice  10</text>
		<text transform="matrix(1 0 0 1 444.9627 508.4084)" class="st6 st7 st8">Winona  10</text>
		<text transform="matrix(1 0 0 1 444.9627 529.4272)" class="st6 st7 st8">Wright  10</text>
		<text transform="matrix(1 0 0 1 444.9627 550.9448)" class="st6 st7 st8">Yellow Medicine  10</text>
		<text transform="matrix(1 0 0 1 444.9633 130.0704)" class="st6 st7 st8">Rock  10</text>
		<text transform="matrix(1 0 0 1 444.963 151.0893)" class="st6 st7 st8">Roseau  10</text>
		<text transform="matrix(1 0 0 1 444.9632 172.1081)" class="st6 st7 st8">st Louis  10</text>
		<text transform="matrix(1 0 0 1 444.9632 193.1267)" class="st6 st7 st8">Scott  10</text>
		<text transform="matrix(1 0 0 1 444.963 214.146)" class="st6 st7 st8">Sherburne  10</text>
		<text transform="matrix(1 0 0 1 444.9633 235.164)" class="st6 st7 st8">Sibley  10</text>
		<text transform="matrix(1 0 0 1 444.9633 256.1831)" class="st6 st7 st8">Stearns  10</text>
		<text transform="matrix(1 0 0 1 444.9633 277.2015)" class="st6 st7 st8">Steele  10</text>
		<text transform="matrix(1 0 0 1 444.9633 298.2206)" class="st6 st7 st8">Stevens  10</text>
		<text transform="matrix(1 0 0 1 444.9633 319.2395)" class="st6 st7 st8">Swift  10</text>
		<text transform="matrix(1 0 0 1 444.9633 340.2585)" class="st6 st7 st8">Todd  10</text>
		<text transform="matrix(1 0 0 1 444.9633 361.2771)" class="st6 st7 st8">Traverse  10</text>
		<text transform="matrix(1 0 0 1 444.9633 403.3147)" class="st6 st7 st8">Wadena  10</text>
		<text transform="matrix(1 0 0 1 444.963 424.3334)" class="st6 st7 st8">Waseca    10</text>
		<text transform="matrix(1 0 0 1 444.963 445.3521)" class="st6 st7 st8">Washington  10</text>
		<text transform="matrix(1 0 0 1 444.963 466.371)" class="st6 st7 st8">Watonwan  10</text>
		<text transform="matrix(1 0 0 1 444.963 487.3896)" class="st6 st7 st8">Wilkin  10</text>
		<text transform="matrix(1 0 0 1 444.9631 382.2959)" class="st6 st7 st8">Wabasha  10</text>
	</g>
</g>
<g id="table_data">
	<text transform="matrix(1 0 0 1 22.1599 676.1659)" class="st2 st7 st8">Confirmed Cases</text>
	<text transform="matrix(1 0 0 1 22.1599 720.0977)" class="st2 st7 st8">Deaths</text>
	<text id="current_date" transform="matrix(1 0 0 1 205.6895 631.8838)" class="st2 st7 st8">6 Apr. 2020</text>
	<text id="previous_date" transform="matrix(1 0 0 1 340.4677 631.8838)" class="st2 st7 st8">5 Apr. 2020</text>
	<text id="growth_rate__x25_" transform="matrix(1 0 0 1 459.5358 631.8838)" class="st2 st7 st8">Growth Rate %</text>
	<text transform="matrix(1 0 0 1 674.8108 631.8838)" class="st2 st7 st8">Total Confirmed Cases</text>
	<text id="current_сases" transform="matrix(1 0 0 1 228.5451 679.918)" class="st9 st7 st5">783</text>
	<text id="previous_deaths" transform="matrix(1 0 0 1 371.2582 724.3975)" class="st9 st7 st5">14</text>
	<text id="current_deaths" transform="matrix(1 0 0 1 232.0654 723.4178)" class="st9 st7 st5">15</text>
	<text id="total_cases" transform="matrix(1 0 0 1 711.5499 709.0612)" class="st10 st7 st11">783</text>
	<text id="previous_сases" transform="matrix(1 0 0 1 363.3454 679.918)" class="st9 st7 st5">673</text>
	<text id="cases_growth_rate" transform="matrix(1 0 0 1 493.2584 681.4543)" class="st9 st7 st5">16 %</text>
	<text id="death_growth_rate" transform="matrix(1 0 0 1 497.6577 725.9337)" class="st9 st7 st5">7 %</text>
</g>
<g id="Counties_1_">
	<polygon id="watonwan_1_" class="st12" points="662.3,495.1 664,495.1 664,495.1 684.8,494.9 684.8,480.3 662.3,480.3 	"/>
	<polygon id="martin_1_" class="st12" points="664,515.3 691.1,514.9 691.1,497.4 664,497.6 	"/>
	<polygon id="faribault_1_" class="st12" points="720.1,497.2 718.3,497.3 713.8,497.3 713.8,497.3 693.6,497.4 693.6,514.8 
		721.4,514.3 	"/>
	<polygon id="becker_1_" class="st12" points="595.8,283.3 598.7,283.3 598.7,297.5 644.3,297.5 644.3,282.6 642.3,282.6 
		642.2,271.6 595.8,271.6 	"/>
	<rect id="mahnomen_1_" x="604.5" y="248" class="st12" width="20.9" height="21.1"/>
	<polygon id="clearwater_1_" class="st12" points="642.2,269.1 642.2,215.3 640.5,211.4 625.5,211.4 625.5,232.1 627.9,232.1 
		627.9,269.1 	"/>
	<path id="chisago_1_" class="st12" d="M753.7,366.6h-10.2l-0.1,3.1h2.1v6l6,2.1v8.3l0,0v8.8h4.7v-2.1l6.3-0.7
		c0.1-0.2,0.2-0.4,0.3-0.5c0.4-0.7,0.6-1.3,0.8-2l0.2-0.4c0.4-1.1,0.3-2.7-0.4-4.8c-0.4-0.8-0.5-1.7-0.7-2.5c-0.2-0.6-0.4-1.5-0.5-2
		c-1-0.3-1.7-0.5-2.4-0.8c-0.4-0.1-0.7-0.3-1.1-0.4c-2.1-0.7-3.1-1.7-4.3-3.5l-0.2-0.4c-0.8-1.2-1.8-2.7-1.2-5.1
		C752.9,368.5,753.3,367.5,753.7,366.6z"/>
	<path id="cass_2_" class="st12" d="M664.7,293.9v27.5h2.1l7.2,5.3h1.5V325h7l-0.1-0.2v-33.4h27.7l0.2-14l-2.8-6.6V259l-1-1.6h-0.9
		l-0.8,2.5l-4.5,0.4l-3.6-4.9l-0.2-5.2l-1.7-1.8h-2l-4.6,3.6l-9.2,0.8v-2c-0.7,0.4-1.2,0.7-1.3,0.9c-0.3,0.4-1.1,1.3-7,0.6l-1.2,1.8
		H668l0.1,0.3h1.9V294L664.7,293.9L664.7,293.9z"/>
	<path id="dakota_1_" class="st12" d="M742.7,424l-1.8,2.5l-2.5,4.4l1.3,16.2h0.8l6.5,1.6l1.3,1.4h0.4v-2.6l4.5-2.7h9l1.6-2.6v-5.7
		c-0.2-0.1-0.4-0.2-0.6-0.2l-2.4-0.4l-0.4-2.3c-0.2-0.7-0.3-1.5-0.3-2.2l-10.5-7.6h-6.9L742.7,424L742.7,424z"/>
	<polygon id="clay_1_" class="st12" points="569.5,271.6 571.3,303.3 591.1,303.3 596.2,298.2 596.2,285.8 593.3,285.8 593.3,271.6 
			"/>
	<polygon id="wadena_1_" class="st12" points="662.1,321.4 662.1,293.9 646.9,293.9 646.9,322.6 654.1,322.6 654.1,321.4 	"/>
	<path id="washington_1_" class="st12" d="M760.5,394.8l-1.9,0.2v2.4h-7.3v24.7l8.8,6.4c0-0.5,0.1-1.1,0.1-1.5
		c0.1-0.9,0.1-1.8,0.1-2.7c0-1.1,0.1-2.2,0.1-3.4c0.2-3,0.3-5.9-0.7-8l-0.4-1c-0.8-1.9-1.6-3.8-1.6-6.3c0-3,0.5-5.9,1.4-8.3
		C759.5,396.2,760,395.5,760.5,394.8z"/>
	<polygon id="isanti_1_" class="st12" points="726.4,366.6 726.3,382.4 728.4,384.1 728.4,386.5 734.5,386.5 734.5,384.8 
		748.9,384.8 748.9,379.6 742.9,377.5 742.9,372.2 740.8,372.2 740.9,366.6 	"/>
	<polygon id="todd_1_" class="st12" points="646.9,340.3 646.9,341.5 646.9,351.9 648.9,351.9 648.9,364.1 658.5,364.1 658.5,362.3 
		668.9,361.7 668.9,344.7 667.7,344.7 667.7,325.1 665.9,323.8 656.6,323.9 656.6,325.2 646.9,325.2 	"/>
	<polygon id="sherburne_1_" class="st12" points="697.2,379.8 700.3,386.9 708.1,391 711.7,394 723.7,394.9 724.3,396.7 
		725.7,396.7 725.9,385.3 723.8,383.6 723.8,379.8 	"/>
	<path id="beltrami_1_" class="st12" d="M636.7,176.5h-1.2h-10.2l0.2,32.4h16.6l2.6,5.9v36.6h23.6l1.3-2l0.8,0.1
		c2.3,0.4,4.9,0.4,5.6,0.3c0.7-0.7,2.1-1.5,3.2-2v-9.2l-1-0.6l-1.3-2.5v-47.7H641v-11.3H636.7L636.7,176.5L636.7,176.5z"/>
	<polygon id="murray_1_" class="st12" points="604.3,474.5 604.3,495.4 630.7,495.2 630.7,474.5 624.9,474.5 	"/>
	<polygon id="jackson_2_" class="st12" points="633.2,516 661.6,515.4 661.6,497.6 659.8,497.6 659.8,497.6 633.2,497.7 	"/>
	<polygon id="blue_earth_1_" class="st12" points="704.6,470.5 704.6,473.6 702.5,476.8 699.6,476.8 697.4,474.3 692.6,471.1 
		687.4,469 687.4,479.1 687.4,480.3 687.4,494.9 713.8,494.8 713.8,472.6 708.2,472.6 708.2,470.5 	"/>
	<polygon id="cottonwood_1_" class="st12" points="633.2,474.5 633.2,495.2 659.8,495.1 659.8,479.9 650.4,475.4 650.4,474.5 	"/>
	<polygon id="dodge_1_" class="st12" points="753.4,493.8 768.4,493.4 768.4,470.5 761.8,470.5 761.8,472.6 753.7,472.6 
		753.7,472.6 751.5,472.6 	"/>
	<path id="wabasha_1_" class="st12" d="M796.2,456l-2.7-1.8l-3.1,1.6c-0.3-0.4-0.4-1-0.7-1.6c-0.1-0.2-0.2-0.4-0.4-0.8h-7.9
		l-5.1,4.8v9.7H788v6.1l10.8,0.1v-2l6.5-1.5l2-0.6c-1.6-1.5-3-3.2-4.1-5.1c-1-1.8-3.3-4.8-4.8-6.2c-1-0.4-4-1.3-4.8-1.3
		C794.4,457.6,795.5,457.1,796.2,456z"/>
	<polygon id="big_stone_1_" class="st12" points="569.1,377.9 569.3,378.2 581.4,388.7 586.3,394.7 586.3,398.7 589.8,398.7 
		599.1,403.2 599.8,403.8 599.8,399.2 598.2,399.2 598.2,391.1 591.7,391.1 591.7,377.9 	"/>
	<polygon id="lincoln_1_" class="st12" points="586.2,444 586,472.2 599.8,472 599.8,444 	"/>
	<polygon id="pipestone_1_" class="st12" points="601.7,474.5 601,474.5 586,474.8 585.9,495.4 601.7,495.4 	"/>
	<polygon id="rock_1_" class="st12" points="585.8,516.9 601.7,516.6 601.7,497.9 585.9,497.9 	"/>
	<polygon id="yellow_medicine_1_" class="st12" points="625.7,441.4 625.7,448.5 634.5,448.5 634.5,438.9 629.2,435.4 618.8,426.4 
		613.2,431.9 586.3,431.9 586.2,441.4 601,441.4 602.3,441.4 	"/>
	<path id="sibley_1_" class="st12" d="M673.7,437.9v14.8l32.8-0.1c0.4-1.6,0.8-3.3,1.2-4.7l0.2-0.4l1.9-2.9l3-3.2l-7.4-3.6h-13.9
		v5.8h-14.4v-5.8L673.7,437.9L673.7,437.9z"/>
	<polygon id="chippewa_2_" class="st12" points="628.7,431.7 628.7,424 640.5,423.9 640.6,408.7 606,408.7 620,422.9 620,424.1 	"/>
	<polygon id="lac_qui_parle_1_" class="st12" points="597.8,405.5 589.3,401.3 586.3,401.3 586.3,429.4 612.1,429.4 617.5,424.1 
		617.5,423.9 602.2,408.4 	"/>
	<polygon id="douglas_1_" class="st12" points="644.3,342.8 618.1,342.8 618.1,364.1 646.4,364.1 646.4,354.5 644.3,354.5 	"/>
	<polygon id="norman_1_" class="st12" points="569.4,269.1 593.3,269.1 594.5,269.1 602,269.1 602,248 568.1,248 	"/>
	<polygon id="mille_lacs_1_" class="st12" points="712.8,334.3 710.9,334.3 710.2,343.2 714.6,352.7 714.6,358.3 714.6,359.6 
		714.6,377.3 723.8,377.3 724,349.9 727.2,347.1 727.2,331.9 712.8,331.9 	"/>
	<polygon id="morrison_1_" class="st12" points="708,339 681,339 681,327.5 678,327.5 678,329.2 673.2,329.2 670.2,327 670.2,342.2 
		671.4,342.2 671.4,361.6 687,360.9 694,358.3 712,358.3 712,353.3 707.6,343.7 	"/>
	<polygon id="hubbard_1_" class="st12" points="665.2,254 644.7,254 644.7,270.3 644.8,280.1 646.9,280.1 646.9,291.4 663.4,291.4 
		664.7,291.4 667.4,291.4 667.4,256.7 666.4,256.7 	"/>
	<polygon id="crow_wing_1_" class="st12" points="684.9,324.2 686.7,328 683.6,329.9 683.6,336.5 708.2,336.5 708.6,331.9 
		707.6,331.9 707.6,303.9 710,303.9 710.1,293.9 684.9,293.9 	"/>
	<polygon id="kanabec_1_" class="st12" points="744.9,337.2 729.7,337.2 729.7,348.3 726.5,351.1 726.5,364.1 740.9,364.1 
		741.4,346.4 744.9,346.4 	"/>
	<polygon id="otter_tail_1_" class="st12" points="644.3,340.3 644.3,300 598,300 592.7,305.1 592.7,328.8 594.2,328.8 594.2,340.3 
		616.8,340.3 618.1,340.3 	"/>
	<polygon id="traverse_1_" class="st12" points="567,374 567.8,375.3 591.7,375.3 591.7,348.6 579.9,348.6 579.9,363.9 574.3,368.8 
		568.2,373.3 	"/>
	<polygon id="wilkin_1_" class="st12" points="579.9,328.6 579.9,346 591.7,346 591.7,331.3 590.3,331.3 590.3,305.8 571.5,305.8 
		571.6,307.6 	"/>
	<polygon id="kandiyohi_1_" class="st12" points="643.1,390.6 643,423.9 665.7,423.9 665.7,410.6 663.4,410.6 663.4,389.7 
		646.4,389.5 	"/>
	<polygon id="pope_1_" class="st12" points="618.1,388.6 641.7,388.6 646,387.1 646.4,387.1 646.4,366.6 618.1,366.6 	"/>
	<polygon id="stearns_1_" class="st12" points="661,364.7 661,366.6 648.9,366.6 648.9,387.1 665.9,387.3 665.9,392.7 680.9,392.7 
		684.7,396.7 689.6,396.7 697.9,387.6 694.4,379.8 693.3,379.8 691,372.9 689,370.1 686.4,363.5 	"/>
	<polygon id="benton_1_" class="st12" points="688.8,362.9 691.2,369 693.3,371.9 695.1,377.3 712,377.3 712,360.8 694.3,360.8 	"/>
	<polygon id="anoka_1_" class="st12" points="748.9,387.4 737,387.4 737,389.1 728.3,389.1 728.2,399.5 740.4,411.3 745.4,408.2 
		748.9,408.2 	"/>
	<polygon id="hennepin_1_" class="st12" points="723.4,401.2 720.3,402.6 717.3,409.2 716,413.8 714.4,417.1 716,421.5 727.8,421.5 
		727.8,427.3 731.1,427.5 733.4,429.4 736.4,429.4 738.8,425.1 740.8,422.3 740.8,417.5 739.5,413.9 726,400.8 	"/>
	<path id="goodhue_1_" class="st12" d="M766.5,443l-2.7,4.4h-9.7l-2.7,1.6v2.3l2,18.8h5.9v-2H774v-10.8l6.6-6.2h5.3
		c-0.4-0.2-1-0.4-1.5-0.8c-1.3-1-2.2-1.9-2.8-2.4c-1.2-1.1-1.2-1.2-3.7-1.5c-4.9-0.5-7.6-2-10.8-5.9c-0.2-0.3-0.4-0.4-0.5-0.7
		L766.5,443L766.5,443L766.5,443z"/>
	<polygon id="ramsey_1_" class="st12" points="748.9,421.5 748.9,410.8 746.1,410.8 741.9,413.3 743.3,417.2 743.3,421.5 	"/>
	<path id="koochiching_1_" class="st12" d="M708.3,220.6v-3.9l32.2-0.6l-1.2-49c-1.5,0.2-2.9,0.3-4.1-0.2c-1.2-0.4-1.8-2.3-3.3-2.4
		c-1.4-0.1-2.2,1-3.4,1.4c-2.5,1-3.2,1.4-4.6,3.9c-1.2,2.1-1.1,3.9-3.6,4.8c-1.6,0.5-4,0.1-5.7,0.1c-3.2,0-6.3,0-9.5,0v-7.9l-19,0.3
		v-3.6h-6.7v57.2L708.3,220.6L708.3,220.6z"/>
	<path id="lake_1_" class="st12" d="M800.2,193l5.6,84.5c2.7-2.6,4.5-5.8,7.1-8.4s6.2-4,8.7-6.8c2-2.1,3.4-4.8,5.2-6.8
		c2.1-2.4,4.5-5.2,6.2-7.9c1.2-1.8,1.7-3.6,3.5-4.9c1.2-0.8,2-1.4,2.8-2.1l-1.2,0.2l-5.2-46.2c-3.2,1.1-6.8,2.5-6.6,4.9
		c-3.6,2.2-11.1,2-15.2,0.9c-1.8-0.4-6.2-1.1-7.1-2.3c-0.5-0.7-0.8-2.7-1.1-3.5c-0.5-1.2-1.2-1.9-1.2-3.3c-1.6,0.7-2,1.7-2.6,1.8
		C799.2,193,800.2,193,800.2,193z"/>
	<path id="st_louis_1_" class="st12" d="M790.4,288.6l-5.5,2l-2.1,3.9l-0.2-2H745l-3.3-125.6h-1.2c0.6-0.1,1.2-0.1,1.9-0.1
		c3.2,0,3.3,0.7,5.7,2.2c2,1.2,4.8,1.6,7,2.7c4.2,2,7.4,5.2,11.6,7.4c2.7,1.4,6,3.7,9,4.5c1.6,0.4,3.7,0.3,5.4,0.2
		c1-0.1,2,0.2,2.8-0.3c0.7-0.4,1-1.8,1.4-2c2.2-0.9,2.8,0.9,3.5,2.5c1.3,4,4.6,5.6,8,7.9c1.2,0.7,1.8,1.1,2.2,1.1l-1.2,0.1l5.7,85.5
		l1.2-0.1c-1.8,1.4-4.1,2.1-5.9,3.4c-1.8,1.3-3,3.2-4.6,4.7l-2,2.8"/>
	<path id="cook_1_" class="st12" d="M834.3,194l1.2-0.2l5.1,45.3c0-0.1,0.1-0.1,0.1-0.2c0.9-1.3,1.5-2.7,2.8-3.7
		c3.7-3.4,10.7-7.9,15.6-9.1c0.3-0.5,0.4-0.7,0.8-1.1c2-1.6,3.6-2.2,6-3.2c2-0.8,3.3-2.3,5.2-3.3c3.9-2,8.4-3.2,12.4-4.6
		c4.4-1.5,8.5-3.5,12.7-5.5c3.4-1.7,10.7-4.5,10.8-8.7c-1.9-0.1-3.5,1-5.3,1.2c-2,0.2-4-0.1-6,0c-2.1,0.1-3.4,0.8-5.4,1.2
		c-2.8,0.4-3.3-0.5-4.6-2.5c-1.3-1.9-2.5-4.1-4.7-4.6c-2.1-0.5-5,0-7.1,0c-2.5,0-5.1-0.1-7.6,0.1c-2.8,0.1-7.5-0.6-10,0.2
		c-2.3,0.8-4,2.8-7.1,1.4c-2.6-1.1-1.4-2.9-2.3-5.3c-1-2.7-2.7-3.8-5.2-3.5c-2.5,0.4-5.2,1.7-4.8,4.8
		C836.4,193.2,835.4,193.7,834.3,194z"/>
	<path id="lake_of_the_woods_1_" class="st12" d="M637.5,142.8l-0.2,4.6c2,2.4,2.9,3.6,3.4,4.3c0.2-0.1,0.4-0.1,0.4-0.2
		c0.1,0,0.2-0.1,0.3-0.1c0.3-0.4,0.9-1.4,1.3-2.4l0.3-0.6l2.2-0.3l3.6-2.8v19.4h-11.9l-0.2,9.3h6.6v11.3h33.4v-21.9h-6.2l-5.7-7.1
		l-5.7-34.3l-3.4-3.1l-6.8-0.9l-1.4-1.7l-4.3,0.3l0.9,17c-0.6,2.2,1.2,7-0.4,8.7c-1.3,1.4-5.2,0.4-6.9,0.4c-0.3,0-0.6,0-0.9,0
		L637.5,142.8z"/>
	<polygon id="itasca_1_" class="st12" points="710.8,219.1 710.8,223.1 679.3,223.1 679.3,234.9 680,236.3 681.6,237.3 681.6,249.8 
		687.3,249.3 692,245.7 696,245.7 699.1,249 699.2,254.3 701.6,257.5 703.1,257.4 704,254.9 708.1,254.9 710.2,258.3 710.2,270.2 
		712.8,276.7 725.7,276.7 725.7,274.4 741.9,274.4 740.5,218.6 	"/>
	<polygon id="aitkin_1_" class="st12" points="742,277 728.3,277 728.3,279.2 712.8,279.2 712.5,306.4 710.2,306.4 710.2,329.4 
		729.7,329.4 729.7,334.7 744.9,334.7 744.9,308 742.8,308 	"/>
	<path id="pine_1_" class="st12" d="M743.4,364.1h10.9c0.5-1.9,1.2-3.7,3.1-5.6l0.3-0.2c0.5-0.4,0.7-1.1,1.1-2.4
		c0.4-1.4,0.9-3.3,2.3-4.9c1-1.4,2.2-2.1,3.3-2.7c0.3-0.2,0.6-0.4,0.9-0.5c1-0.7,1.7-1.3,2.5-2.1l0.3-0.3l0.4-0.2
		c2-1.2,3.9-2.3,5.3-3.7l0.4-0.4c1.3-1.3,2.6-2.6,3.8-3.4l0.4-20.4h-12v2.4h-18.9v29.2H744L743.4,364.1z"/>
	<polygon id="carlton_1_" class="st12" points="745,295 745.3,305.4 747.3,305.4 747.3,317.3 763.8,317.3 763.8,314.9 778.4,314.9 
		778.7,298.7 780.4,297 780.1,295 	"/>
	<path id="polk_1_" class="st12" d="M623,217.6h-3v4.4l-6.9,6.9h-24.3l-6.5-6.9v-6.5v-1.2v-6.6l-2-1.5v-4.9h-26v1.2
		c0.6,1.9,1.1,3.9,1.6,6c1.2,4.6,2.3,9.3,4.3,12.5c0-0.1,0.2,0.1,0.4,0.2c0.4,0.3,1,0.6,1.5,1.1c1.8,1.6,3.6,3.7,4.7,7.1l0.1,0.4
		l0.9,15.7H625v-10.8h-2.3v-17L623,217.6L623,217.6z"/>
	<polygon id="marshall_1_" class="st12" points="554.3,176.5 554.4,198.7 623,198.7 622.8,176.5 	"/>
	<polygon id="red_lake_1_" class="st12" points="612,226.3 617.5,220.9 617.5,217.6 617.5,216.4 617.5,215.5 584.9,215.5 
		584.9,220.9 590,226.3 	"/>
	<polygon id="pennington_1_" class="st12" points="583,201.3 583,204.9 584.9,206.3 584.9,212.9 620,212.9 620,215 623,215 
		623,210.2 623,201.3 	"/>
	<polygon id="wright_1_" class="st12" points="718.4,400.7 722.3,399 721.8,397.2 710.6,396.4 706.6,393 699.7,389.4 691.4,398.5 
		691.4,417.9 694.6,417.9 694.6,415.8 712.3,415.8 713.6,412.9 715,408.3 	"/>
	<polygon id="rice_1_" class="st12" points="747.4,452.6 745.8,450.9 740.2,449.6 727.8,449.6 727.8,470 750.8,470 749,452.6 	"/>
	<polygon id="carver_1_" class="st12" points="712.2,418.3 702.9,418.3 704.9,435.4 705.9,435.4 714.9,439.7 719.8,437.5 
		719.8,432.8 725.3,427.3 725.3,424 714.2,424 	"/>
	<polygon id="stevens_1_" class="st12" points="594.2,375.3 594.2,376.7 594.2,388.6 615.6,388.6 615.6,366.6 594.2,366.6 	"/>
	<polygon id="steele_1_" class="st12" points="734.1,472.6 736.1,494.4 750.9,493.9 748.9,472.6 	"/>
	<polygon id="scott_1_" class="st12" points="732.5,431.9 730.1,429.9 726.4,429.7 722.3,433.9 722.3,439.1 715.6,442.1 
		711.6,446.3 711.2,447 737.3,447.1 736,431.9 	"/>
	<polygon id="mcleod_1_" class="st12" points="680.8,426.4 679.5,426.4 679.5,441.2 688.9,441.2 688.9,435.4 702.4,435.4 
		700.4,418.3 697.2,418.3 697.2,420.4 689.1,420.4 	"/>
	<rect id="grant_1_" x="594.2" y="342.8" class="st12" width="21.4" height="21.3"/>
	<polygon id="swift_1_" class="st12" points="600.7,396.7 602.3,396.7 602.3,405.5 603.3,406.1 640.6,406.3 640.7,391.1 
		600.7,391.1 	"/>
	<polygon id="meeker_1_" class="st12" points="679.9,395.1 665.9,395.1 665.9,408.1 668.2,408.1 668.2,423.9 680,423.9 688.3,417.9 
		688.9,417.9 688.9,399.2 683.5,399.2 	"/>
	<polygon id="renville_1_" class="st12" points="631.2,433.7 639.2,438.9 649.6,444.8 657.3,448.4 664,451.2 664,452.8 671.2,452.8 
		671.2,435.4 677,435.4 677,426.4 667,426.4 631.2,426.5 	"/>
	<polygon id="freeborn_1_" class="st12" points="722.5,497.2 724,514.2 751,513.7 751,496.5 726.2,497.2 	"/>
	<polygon id="mower_1_" class="st12" points="753.5,513.7 781.4,513.1 779.9,495.6 753.5,496.4 	"/>
	<path id="winona_1_" class="st12" d="M809.8,472l-3.6,1.2l-4.6,1.1v2.5h-1.9l2.6,15.6l25.4-0.8l7.4-2.1c-2-2.2-5.1-4.9-7.6-6.7
		c-2-1.3-4.4-2.8-6.9-4.1C816.9,476.7,813,474.5,809.8,472z"/>
	<polygon id="olmsted_1_" class="st12" points="770.9,493.3 799.7,492.4 797.1,476.8 785.7,476.7 785.7,470.5 770.9,470.5 	"/>
	<polygon id="redwood_1_" class="st12" points="648.4,447.1 637.9,441 637,440.5 637,451 625.7,451 625.7,460.2 627.4,460.2 
		627.4,472 633.2,472 647.9,472 647.9,466.4 659.8,466.4 659.8,452.1 656.3,450.7 	"/>
	<polygon id="brown_1_" class="st12" points="662.3,455.2 662.3,468.8 650.4,468.8 650.4,472 652.9,472 652.9,473.8 661.4,477.8 
		684.8,477.8 684.8,468 683.2,467.3 675.9,461.2 668.2,456.7 	"/>
	<path id="le_sueur_1_" class="st12" d="M707.7,458c-0.2,0.6-2.1,4.3-3.1,6v3.9h6.1v2h4.4h10.2v-20.5h-15.4
		C709.3,452,708,457.5,707.7,458z"/>
	<polygon id="waseca_1_" class="st12" points="726.2,494.7 733.7,494.4 731.5,472.6 725.3,472.6 725.3,472.6 716.3,472.6 
		716.3,494.7 722.4,494.7 722.4,494.7 	"/>
	<polygon id="nobles_1_" class="st12" points="630.7,497.7 604.3,497.9 604.3,516.6 630.7,516.1 	"/>
	<path id="nicollet_1_" class="st12" d="M677.4,459.2l7.3,6l9.2,3.6l5.3,3.6l1.5,1.8h0.4l0.9-1.3v-9.4l0.2-0.3
		c1.4-2.6,2.9-5.5,3.1-6c0.1-0.2,0.3-1,0.5-2l-35.1,0.1L677.4,459.2z"/>
	<polygon id="lyon_1_" class="st12" points="604.3,472 624.9,472 624.9,462.7 623.2,462.7 623.2,444 602.3,444 602.3,472 603,472 	
		"/>
	<polygon id="houston_1_" class="st12" points="827.8,494.1 819,494.4 819,512.3 839.4,512 836.6,491.6 	"/>
	<polygon id="fillmore_1_" class="st12" points="783.9,513 816.5,512.4 816.5,494.4 782.4,495.5 	"/>
	<path id="kittson_1_" class="st12" d="M586.3,145v-1.7l-34.2,0.2v3.3c0,0.4,0.4,1.1,0.8,1.5c0.7,1.1,1.5,2.5,1.8,4.3
		c0.2,1.5,0.6,2.8,1.1,4.2c0.3,0.9,0.6,1.9,0.9,2.8c0.6,2.5,0.4,5.7-0.7,9.4l-0.3,0.7c-0.5,1.7-0.9,2.9-1.1,4.4h31.7V145L586.3,145z
		"/>
	<path id="roseau_1_" class="st12" d="M646.3,150.6l-1.6,0.2c-1.3,2.7-2,2.8-2.3,3l-0.4,0.1c-0.8,0.3-1.7,0.6-2.6,0.3
		c-0.4-0.2-0.7-0.5-0.9-1c-0.2-0.4-2-2.7-3.6-4.4l-0.4-0.4l0.3-5.5c-3.9-0.1-7.7-0.2-11.6,0c-11.4,0.6-22.8,0.3-34.4,0.4v0.1l0,0
		V174h34h1.2h10.2l0.2-11.8h11.9v-11.7L646.3,150.6z"/>
</g>
<g id="balls">
	<circle id="houston_circle" class="st13" cx="828" cy="502.8" r="7.2"/>
	<circle id="fillmore_circle" class="st13" cx="801.1" cy="504.3" r="7.2"/>
	<circle id="winona_circle" class="st13" cx="813.1" cy="481.7" r="7.2"/>
	<circle id="olmsted_circle" class="st13" cx="783.7" cy="483.5" r="7.2"/>
	<circle id="mower_circle" class="st13" cx="766.6" cy="503.8" r="7.2"/>
	<circle id="dodge_circle" class="st13" cx="760.8" cy="482.7" r="7.2"/>
	<circle id="wabasha_circle" class="st13" cx="790.1" cy="462.5" r="7.2"/>
	<circle id="goodhue_circle" class="st13" cx="763.2" cy="455.3" r="7.2"/>
	<circle id="steele_circle" class="st13" cx="743.1" cy="483.6" r="7.2"/>
	<circle id="freeborn_circle" class="st13" cx="736.8" cy="505.2" r="7.2"/>
	<circle id="waseca_circle" class="st13" cx="724.8" cy="483.6" r="7.2"/>
	<circle id="faribault_circle" class="st13" cx="707.1" cy="505.7" r="7.2"/>
	<circle id="blue_earth_circle" class="st13" cx="700.3" cy="483.6" r="7.2"/>
	<circle id="rice_circle" class="st13" cx="737.8" cy="460.1" r="7.2"/>
	<circle id="le_sueur_circle" class="st13" cx="716.7" cy="460.1" r="7.2"/>
	<circle id="dakota_circle" class="st13" cx="748.1" cy="436.1" r="7.2"/>
	<circle id="scott_circle" class="st13" cx="726.5" cy="440.1" r="7.2"/>
	<circle id="nicollet_circle" class="st13" cx="689.8" cy="461.3" r="7.2"/>
	<circle id="sibley_circle" class="st13" cx="690.5" cy="448.3" r="7.2"/>
	<circle id="mcleod_circle" class="st13" cx="690.5" cy="428.9" r="7.2"/>
	<circle id="carver_circle" class="st13" cx="711.4" cy="428.9" r="7.2"/>
	<circle id="hennepin_circle" class="st13" cx="726.1" cy="412.6" r="7.2"/>
	<circle id="ramsey_circle" class="st13" cx="745.2" cy="417" r="7.2"/>
	<circle id="washington_circle" class="st13" cx="756.7" cy="410.2" r="7.2"/>
	<circle id="anoka_circle" class="st13" cx="739.5" cy="396.5" r="7.2"/>
	<circle id="wright_circle" class="st13" cx="703.5" cy="403" r="7.2"/>
	<circle id="sherburne_circle" class="st13" cx="712.8" cy="386.4" r="7.2"/>
	<circle id="meeker_circle" class="st13" cx="676.8" cy="408.7" r="7.2"/>
	<circle id="stearns_circle" class="st13" cx="673.9" cy="377.1" r="7.2"/>
	<circle id="benton_circle" class="st13" cx="701.3" cy="368.4" r="7.2"/>
	<circle id="isanti_circle" class="st13" cx="735.1" cy="377.1" r="7.2"/>
	<circle id="chisago_circle" class="st13" cx="754.6" cy="379.9" r="7.2"/>
	<circle id="pine_circle" class="st13" cx="761.1" cy="337.5" r="7.2"/>
	<circle id="kanabec_circle" class="st13" cx="735.9" cy="351.9" r="7.2"/>
	<circle id="mille_lacs_circle" class="st13" cx="717.9" cy="351.1" r="7.2"/>
	<circle id="morrison_circle" class="st13" cx="688.7" cy="347.7" r="7.2"/>
	<circle id="todd_circle" class="st13" cx="658.1" cy="344.7" r="7.2"/>
	<circle id="douglas_circle" class="st13" cx="632.5" cy="352" r="7.2"/>
	<circle id="pope_circle" class="st13" cx="631.5" cy="377.1" r="7.2"/>
	<circle id="kandiyohi_circle" class="st13" cx="653.8" cy="407.3" r="7.2"/>
	<circle id="renville_circle" class="st13" cx="655.2" cy="436.1" r="7.2"/>
	<circle id="brown_circle" class="st13" cx="668.9" cy="466.3" r="7.2"/>
	<circle id="watonwan_circle" class="st13" cx="673.9" cy="487.2" r="7.2"/>
	<circle id="cottonwood_circle" class="st13" cx="645.9" cy="484.3" r="7.2"/>
	<circle id="redwood_circle" class="st13" cx="642.3" cy="459.1" r="7.2"/>
	<circle id="chippewa_circle" class="st13" cx="625.7" cy="418.1" r="7.2"/>
	<circle id="swift_circle" class="st13" cx="621.4" cy="397.9" r="7.2"/>
	<circle id="lyon_circle" class="st13" cx="613.1" cy="458.6" r="7.2"/>
	<circle id="murray_circle" class="st13" cx="617.1" cy="484.3" r="7.2"/>
	<circle id="martin_circle" class="st13" cx="677.9" cy="506.1" r="7.2"/>
	<circle id="jackson_circle" class="st13" cx="645.9" cy="505.9" r="7.2"/>
	<circle id="nobles_circle" class="st13" cx="617.4" cy="506.8" r="7.2"/>
	<circle id="rock_circle" class="st13" cx="594.7" cy="505.9" r="7.2"/>
	<circle id="pipestone_circle" class="st13" cx="593.6" cy="484.5" r="7.2"/>
	<circle id="lincoln_circle" class="st13" cx="592.6" cy="459.1" r="7.2"/>
	<circle id="yellow_medicine_circle" class="st13" cx="609.9" cy="436.1" r="7.2"/>
	<circle id="lac_qui_parle_circle" class="st13" cx="596.9" cy="418.8" r="7.2"/>
	<circle id="stevens_circle" class="st13" cx="605.2" cy="376.5" r="7.2"/>
	<circle id="big_stone_circle" class="st13" cx="585.4" cy="389.3" r="7.2"/>
	<circle id="grant_circle" class="st13" cx="604.8" cy="354" r="7.2"/>
	<circle id="traverse_circle" class="st13" cx="583.9" cy="362.7" r="7.2"/>
	<circle id="otter_tail_circle" class="st13" cx="617.8" cy="318.7" r="7.2"/>
	<circle id="wilkin_circle" class="st13" cx="584.7" cy="327.4" r="7.2"/>
	<circle id="clay_circle" class="st13" cx="581.1" cy="287.8" r="7.2"/>
	<circle id="becker_circle" class="st13" cx="619.9" cy="284.2" r="7.2"/>
	<circle id="crow_wing_circle" class="st13" cx="695.9" cy="315.3" r="7.2"/>
	<circle id="wadena_circle" class="st13" cx="654.5" cy="305.1" r="7.2"/>
	<circle id="cass_circle" class="st13" cx="684.7" cy="277.7" r="7.2"/>
	<circle id="aitkin_circle" class="st13" cx="726.5" cy="307.2" r="7.2"/>
	<circle id="carlton_circle" class="st13" cx="760.3" cy="304.3" r="7.2"/>
	<circle id="cook_circle" class="st13" cx="855" cy="210.2" r="7.2"/>
	<circle id="lake_circle" class="st13" cx="817.9" cy="228.7" r="7.2"/>
	<circle id="st_louis_circle" class="st13" cx="772.6" cy="236.7" r="7.2"/>
	<circle id="itasca_circle" class="st13" cx="714.3" cy="243.1" r="7.2"/>
	<circle id="hubbard_circle" class="st13" cx="654.8" cy="272.1" r="7.2"/>
	<circle id="clearwater_circle" class="st13" cx="634.3" cy="241" r="7.2"/>
	<circle id="mahnomen_circle" class="st13" cx="614.2" cy="258.3" r="7.2"/>
	<circle id="norman_circle" class="st13" cx="585.7" cy="258.4" r="7.2"/>
	<circle id="polk_circle" class="st13" cx="576.7" cy="231.6" r="7.2"/>
	<circle id="red_lake_circle" class="st13" cx="601.2" cy="221.5" r="7.2"/>
	<circle id="pennington_circle" class="st13" cx="601.2" cy="207.1" r="7.2"/>
	<circle id="marshall_circle" class="st13" cx="587.5" cy="186.3" r="7.2"/>
	<circle id="beltrami_circle" class="st13" cx="658.1" cy="205.7" r="7.2"/>
	<circle id="koochiching_circle" class="st13" cx="710.7" cy="193.5" r="7.2"/>
	<circle id="lake_of_the_woods_circle" class="st13" cx="658.4" cy="164.8" r="7.2"/>
	<circle id="roseau_circle" class="st13" cx="612.7" cy="158.9" r="7.2"/>
	<circle id="kittson_circle" class="st13" cx="570.6" cy="157.6" r="7.2"/>
	<text id="houston_numbers" transform="matrix(1 2.629964e-03 -2.629964e-03 1 824.8222 504.4641)" class="st14 st7 st15">10</text>
	<text id="fillmore_numbers" transform="matrix(1 2.629964e-03 -2.629964e-03 1 797.9423 505.9042)" class="st14 st7 st15">10</text>
	<text id="winona_numbers" transform="matrix(1 2.629964e-03 -2.629964e-03 1 809.9423 483.3441)" class="st14 st7 st15">10</text>
	<text id="olmsted_numbers" transform="matrix(1 2.629964e-03 -2.629964e-03 1 780.5201 485.1792)" class="st14 st7 st15">10</text>
	<text id="mower_numbers" transform="matrix(1 2.629964e-03 -2.629964e-03 1 763.3822 505.4242)" class="st14 st7 st15">10</text>
	<text id="dodge_numbers" transform="matrix(1 2.629964e-03 -2.629964e-03 1 757.6223 484.3042)" class="st14 st7 st15">10</text>
	<text id="wabasha_numbers" transform="matrix(1 2.629964e-03 -2.629964e-03 1 786.9022 464.1442)" class="st14 st7 st15">10</text>
	<text id="goodhue_numbers" transform="matrix(1 2.629964e-03 -2.629964e-03 1 760.0222 456.9442)" class="st14 st7 st15">10</text>
	<text id="steele_numbers" transform="matrix(1 2.629964e-03 -2.629964e-03 1 739.8622 485.2242)" class="st14 st7 st15">10</text>
	<text id="freeborn_numbers" transform="matrix(1 2.629964e-03 -2.629964e-03 1 733.6223 506.8642)" class="st14 st7 st15">10</text>
	<text id="waseca_numbers" transform="matrix(1 2.629964e-03 -2.629964e-03 1 721.6223 485.2642)" class="st14 st7 st15">10</text>
	<text id="faribault_numbers" transform="matrix(1 2.629964e-03 -2.629964e-03 1 703.8622 507.3441)" class="st14 st7 st15">10</text>
	<text id="blue_earth_numbers" transform="matrix(1 2.629964e-03 -2.629964e-03 1 697.1422 485.2642)" class="st14 st7 st15">10</text>
	<text id="rice_numbers" transform="matrix(1 2.629964e-03 -2.629964e-03 1 734.5822 461.7442)" class="st14 st7 st15">10</text>
	<text id="le_sueur_numbers" transform="matrix(1 2.629964e-03 -2.629964e-03 1 713.4622 461.7442)" class="st14 st7 st15">10</text>
	<text id="dakota_numbers" transform="matrix(1 2.629964e-03 -2.629964e-03 1 744.9022 437.7442)" class="st14 st7 st15">10</text>
	<text id="scott_numbers" transform="matrix(1 2.629964e-03 -2.629964e-03 1 723.3132 441.7041)" class="st14 st7 st15">10</text>
	<text id="nicollet_numbers" transform="matrix(1 2.629964e-03 -2.629964e-03 1 686.5822 462.9442)" class="st14 st7 st15">10</text>
	<text id="sibley_numbers" transform="matrix(1 2.629964e-03 -2.629964e-03 1 687.3022 449.9842)" class="st14 st7 st15">10</text>
	<text id="mcleod_numbers" transform="matrix(1 2.629964e-03 -2.629964e-03 1 687.3022 430.5442)" class="st14 st7 st15">10</text>
	<text id="carver_numbers" transform="matrix(1 2.629964e-03 -2.629964e-03 1 708.1823 430.5442)" class="st14 st7 st15">10</text>
	<text id="hennepin_numbers" transform="matrix(1 2.629964e-03 -2.629964e-03 1 722.8622 414.2642)" class="st14 st7 st15">10</text>
	<text id="ramsey_numbers" transform="matrix(1 2.629964e-03 -2.629964e-03 1 741.9622 418.6447)" class="st14 st7 st15">10</text>
	<text id="washington_numbers" transform="matrix(1 2.629964e-03 -2.629964e-03 1 753.5422 411.8241)" class="st14 st7 st15">10</text>
	<text id="anoka_numbers" transform="matrix(1 2.629964e-03 -2.629964e-03 1 736.2622 398.1442)" class="st14 st7 st15">10</text>
	<text id="wright_numbers" transform="matrix(1 2.629964e-03 -2.629964e-03 1 700.2622 404.6242)" class="st14 st7 st15">10</text>
	<text id="sherburne_numbers" transform="matrix(1 2.629964e-03 -2.629964e-03 1 709.6223 388.0642)" class="st14 st7 st15">10</text>
	<text id="meeker_numbers" transform="matrix(1 2.629964e-03 -2.629964e-03 1 673.6223 410.3842)" class="st14 st7 st15">10</text>
	<text id="stearns_numbers" transform="matrix(1 2.629964e-03 -2.629964e-03 1 670.7422 378.7041)" class="st14 st7 st15">10</text>
	<text id="benton_numbers" transform="matrix(1 2.629964e-03 -2.629964e-03 1 698.1022 370.0642)" class="st14 st7 st15">10</text>
	<text id="isanti_numbers" transform="matrix(1 2.629964e-03 -2.629964e-03 1 731.9423 378.7041)" class="st14 st7 st15">10</text>
	<text id="chisago_numbers" transform="matrix(1 2.629964e-03 -2.629964e-03 1 751.3822 381.5841)" class="st14 st7 st15">10</text>
	<text id="pine_numbers" transform="matrix(1 2.629964e-03 -2.629964e-03 1 757.8622 339.1042)" class="st14 st7 st15">10</text>
	<text id="kanabec_numbers" transform="matrix(1 2.629964e-03 -2.629964e-03 1 732.6622 353.5042)" class="st14 st7 st15">10</text>
	<text id="mille_lacs_numbers" transform="matrix(1 2.629964e-03 -2.629964e-03 1 714.6622 352.7842)" class="st14 st7 st15">10</text>
	<text id="morrison_numbers" transform="matrix(1 2.629964e-03 -2.629964e-03 1 685.4801 349.3393)" class="st14 st7 st15">10</text>
	<text id="todd_numbers" transform="matrix(1 2.629964e-03 -2.629964e-03 1 654.9022 346.3042)" class="st14 st7 st15">10</text>
	<text id="douglas_numbers" transform="matrix(1 2.629964e-03 -2.629964e-03 1 629.3201 353.6593)" class="st14 st7 st15">10</text>
	<text id="pope_numbers" transform="matrix(1 2.629964e-03 -2.629964e-03 1 628.2622 378.7041)" class="st14 st7 st15">10</text>
	<text id="kandiyohi_numbers" transform="matrix(1 2.629964e-03 -2.629964e-03 1 650.5822 408.9442)" class="st14 st7 st15">10</text>
	<text id="renville_numbers" transform="matrix(1 2.629964e-03 -2.629964e-03 1 652.0222 437.7442)" class="st14 st7 st15">10</text>
	<text id="brown_numbers" transform="matrix(1 2.629964e-03 -2.629964e-03 1 665.7022 467.9842)" class="st14 st7 st15">10</text>
	<text id="watonwan_numbers" transform="matrix(1 2.629964e-03 -2.629964e-03 1 670.7422 488.8642)" class="st14 st7 st15">10</text>
	<text id="cottonwood_numbers" transform="matrix(1 2.629964e-03 -2.629964e-03 1 642.6622 485.9842)" class="st14 st7 st15">10</text>
	<text id="redwood_numbers" transform="matrix(1 2.629964e-03 -2.629964e-03 1 639.0623 460.7842)" class="st14 st7 st15">10</text>
	<text id="chippewa_numbers" transform="matrix(1 2.629964e-03 -2.629964e-03 1 622.5023 419.7442)" class="st14 st7 st15">10</text>
	<text id="swift_numbers" transform="matrix(1 2.629964e-03 -2.629964e-03 1 618.1823 399.5841)" class="st14 st7 st15">10</text>
	<text id="lyon_numbers" transform="matrix(1 2.629964e-03 -2.629964e-03 1 609.8801 460.2193)" class="st14 st7 st15">10</text>
	<text id="murray_numbers" transform="matrix(1 2.629964e-03 -2.629964e-03 1 613.8622 485.9842)" class="st14 st7 st15">10</text>
	<text id="martin_numbers" transform="matrix(1 2.629964e-03 -2.629964e-03 1 674.6801 507.7393)" class="st14 st7 st15">10</text>
	<text id="jackson_numbers" transform="matrix(1 2.629964e-03 -2.629964e-03 1 642.6622 507.5841)" class="st14 st7 st15">10</text>
	<text id="nobles_numbers" transform="matrix(1 2.629964e-03 -2.629964e-03 1 614.2001 508.4593)" class="st14 st7 st15">10</text>
	<text id="rock_numbers" transform="matrix(1 2.629964e-03 -2.629964e-03 1 591.5422 507.5841)" class="st14 st7 st15">10</text>
	<text id="pipestone_numbers" transform="matrix(1 2.629964e-03 -2.629964e-03 1 590.4401 486.1393)" class="st14 st7 st15">10</text>
	<text id="lincoln_numbers" transform="matrix(1 2.629964e-03 -2.629964e-03 1 589.3822 460.7842)" class="st14 st7 st15">10</text>
	<text id="yellow_medicine_numbers" transform="matrix(1 2.629964e-03 -2.629964e-03 1 606.6622 437.7442)" class="st14 st7 st15">10</text>
	<text id="lac_qui_parle_numbers" transform="matrix(1 2.629964e-03 -2.629964e-03 1 593.7022 420.4641)" class="st14 st7 st15">10</text>
	<text id="stevens_numbers" transform="matrix(1 2.629964e-03 -2.629964e-03 1 601.9601 378.1393)" class="st14 st7 st15">10</text>
	<text id="big_stone_numbers" transform="matrix(1 2.629964e-03 -2.629964e-03 1 582.1823 390.9442)" class="st14 st7 st15">10</text>
	<text id="grant_numbers" transform="matrix(1 2.629964e-03 -2.629964e-03 1 601.6223 355.6642)" class="st14 st7 st15">10</text>
	<text id="traverse_numbers" transform="matrix(1 2.629964e-03 -2.629964e-03 1 580.7422 364.3042)" class="st14 st7 st15">10</text>
	<text id="otter_tail_numbers" transform="matrix(1 2.629964e-03 -2.629964e-03 1 614.5822 320.3842)" class="st14 st7 st15">10</text>
	<text id="wilkin_numbers" transform="matrix(1 2.629964e-03 -2.629964e-03 1 581.4622 329.0242)" class="st14 st7 st15">10</text>
	<text id="clay_numbers" transform="matrix(1 2.629964e-03 -2.629964e-03 1 577.8622 289.4242)" class="st14 st7 st15">10</text>
	<text id="becker_numbers" transform="matrix(1 2.629964e-03 -2.629964e-03 1 616.7422 285.8241)" class="st14 st7 st15">10</text>
	<text id="crow_wing_numbers" transform="matrix(1 2.629964e-03 -2.629964e-03 1 692.6801 316.9392)" class="st14 st7 st15">10</text>
	<text id="wadena_numbers" transform="matrix(1 2.629964e-03 -2.629964e-03 1 651.3022 306.7041)" class="st14 st7 st15">10</text>
	<text id="cass_numbers" transform="matrix(1 2.629964e-03 -2.629964e-03 1 681.5422 279.3441)" class="st14 st7 st15">10</text>
	<text id="aitkin_numbers" transform="matrix(1 2.629964e-03 -2.629964e-03 1 723.3022 308.8642)" class="st14 st7 st15">10</text>
	<text id="carlton_numbers" transform="matrix(1 2.629964e-03 -2.629964e-03 1 757.1422 305.9842)" class="st14 st7 st15">10</text>
	<text id="cook_numbers" transform="matrix(1 2.629964e-03 -2.629964e-03 1 851.8001 211.8192)" class="st14 st7 st15">10</text>
	<text id="lake_numbers" transform="matrix(1 2.629964e-03 -2.629964e-03 1 814.7422 230.3842)" class="st14 st7 st15">10</text>
	<text id="st_louis_numbers" transform="matrix(1 2.629964e-03 -2.629964e-03 1 769.3822 238.3042)" class="st14 st7 st15">10</text>
	<text id="itasca_numbers" transform="matrix(1 2.629964e-03 -2.629964e-03 1 711.0623 244.7842)" class="st14 st7 st15">10</text>
	<text id="hubbard_numbers" transform="matrix(1 2.629964e-03 -2.629964e-03 1 651.6401 273.7393)" class="st14 st7 st15">10</text>
	<text id="clearwater_numbers" transform="matrix(1 2.629964e-03 -2.629964e-03 1 631.1422 242.6242)" class="st14 st7 st15">10</text>
	<text id="mahnomen_numbers" transform="matrix(1 2.629964e-03 -2.629964e-03 1 610.9822 259.9042)" class="st14 st7 st15">10</text>
	<text id="norman_numbers" transform="matrix(1 2.629964e-03 -2.629964e-03 1 582.5201 260.0592)" class="st14 st7 st15">10</text>
	<text id="polk_numbers" transform="matrix(1 2.629964e-03 -2.629964e-03 1 573.5422 233.2642)" class="st14 st7 st15">10</text>
	<text id="red_lake_numbers" transform="matrix(1 2.629964e-03 -2.629964e-03 1 598.0222 223.1842)" class="st14 st7 st15">10</text>
	<text id="pennington_numbers" transform="matrix(1 2.629964e-03 -2.629964e-03 1 598.0222 208.7842)" class="st14 st7 st15">10</text>
	<text id="marshall_numbers" transform="matrix(1 2.629964e-03 -2.629964e-03 1 584.3422 187.9042)" class="st14 st7 st15">10</text>
	<text id="beltrami_numbers" transform="matrix(1 2.629964e-03 -2.629964e-03 1 654.9022 207.3441)" class="st14 st7 st15">10</text>
	<text id="koochiching_numbers" transform="matrix(1 2.629964e-03 -2.629964e-03 1 707.4622 195.104)" class="st14 st7 st15">10</text>
	
		<text id="lake_of_the_woods_numbers" transform="matrix(1 2.629964e-03 -2.629964e-03 1 655.2402 166.4591)" class="st14 st7 st15">10</text>
	<text id="roseau_numbers" transform="matrix(1 2.629964e-03 -2.629964e-03 1 609.5422 160.5442)" class="st14 st7 st15">10</text>
	<text id="kittson_numbers" transform="matrix(1 2.629964e-03 -2.629964e-03 1 567.4002 159.2589)" class="st14 st7 st15">10</text>
</g>
<g id="TYPES_1_">
	<g>
		<circle id="_x34__1_" class="st13" cx="891.3" cy="-47.2" r="25.2"/>
		
			<text id="_x34__numbers_1_" transform="matrix(1 2.629928e-03 -2.629928e-03 1 867.7162 -41.6433)" class="st14 st7" style="font-size:15px;">10,000</text>
	</g>
	<g>
		<circle id="_x33__1_" class="st13" cx="831.6" cy="-46.2" r="18.2"/>
		
			<text id="_x33__numbers_1_" transform="matrix(1 2.629936e-03 -2.629936e-03 1 814.9536 -41.664)" class="st14 st7" style="font-size:13px;">1,000</text>
	</g>
	<g>
		<circle id="_x32__1_" class="st13" cx="782.1" cy="-45.3" r="12.4"/>
		
			<text id="_x32__numbers_1_" transform="matrix(1 2.629918e-03 -2.629918e-03 1 771.388 -40.8333)" class="st14 st7" style="font-size:12px;">100</text>
	</g>
	<g>
		<circle id="_x31__2_" class="st13" cx="705" cy="-44.3" r="7.2"/>
		
			<text id="_x31__numbers_2_" transform="matrix(1 2.629955e-03 -2.629955e-03 1 702.841 -41.4303)" class="st14 st7" style="font-size:7.3546px;">1</text>
	</g>
	<g>
		<circle id="_x31__1_" class="st13" cx="741" cy="-44.3" r="9.6"/>
		
			<rect x="736.2" y="-48.3" transform="matrix(2.629838e-03 -1 1 2.629838e-03 782.8459 697.2213)" class="st16" width="9.6" height="9"/>
		
			<text id="_x31__numbers_1_" transform="matrix(1 2.629909e-03 -2.629909e-03 1 735.5527 -41.5506)" class="st14 st7" style="font-size:9px;">10</text>
	</g>
</g>
	<image style="overflow:visible;" width="160" height="104" id="LOGO" xlink:href="../maps/SR Logos/Minnesota.png"  transform="matrix(0.4392 0 0 0.4392 838.7281 5.0807)">
	</image>
</svg>
