<?xml version="1.0" encoding="utf-8"?>
<!-- Generator: Adobe Illustrator 23.0.5, SVG Export Plug-In . SVG Version: 6.00 Build 0)  -->
<svg version="1.1" id="Layer_1" xmlns="http://www.w3.org/2000/svg" xmlns:xlink="http://www.w3.org/1999/xlink" x="0px" y="0px"
	 viewBox="0 0 916.5 840.3" style="enable-background:new 0 0 916.5 840.3;" xml:space="preserve">
<style type="text/css">
	.st0{fill:#F5FBFE;}
	.st1{fill:#DDEEFA;}
	.st2{fill:#255078;}
	.st3{font-family:'Georgia';}
	.st4{font-size:18px;}
	.st5{font-size:16px;}
	.st6{fill:#4C4B4D;}
	.st7{font-family:'ArialMT';}
	.st8{font-size:14px;}
	.st9{fill:#4C4B4C;}
	.st10{fill:#DB3029;}
	.st11{font-size:36px;}
	.st12{fill:#AEDBF5;}
	.st13{fill:#CD483B;}
	.st14{fill:#FFFFFF;}
	.st15{font-size:4.3611px;}
	.st16{fill:none;}
</style>
<g id="Texts">
	<polygon id="blue_bg" class="st0" points="0,704.9 0,741.9 0,751.5 0,840.3 173.5,840.3 173.5,751.5 915,751.5 915,704.9 	"/>
	<path id="line_bg" class="st1" d="M916.5,0H0v230.3v475.1v2v43v2v43v2v43l0,0h579.8l0,0H913l0,0h3.5V0z M913,56.9v648.5H578.4
		l-0.6-0.3v0.3H443.6l-0.6-0.3v0.3H3V56.9H913z M913,707.5v42.9H579.8v-42.9H913z M445.1,750.5v-42.9h132.8v42.9H445.1z
		 M577.8,752.5v42.9H445.1v-42.9H577.8z M310.3,750.5v-42.9h132.8v42.9H310.3z M443.1,752.5v42.9H310.3v-42.9H443.1z M175.5,750.5
		v-42.9h132.8v42.9H175.5z M308.3,752.5v42.9H175.5v-42.9H308.3z M173.5,707.5v42.9H3v-42.9H173.5z M173.5,752.5v42.9H3v-42.9H173.5
		z M3,797.4h170.5v39.9H3V797.4z M175.5,797.4h132.8v39.9H175.5V797.4z M310.3,797.4h132.8v39.9H310.3V797.4z M445.1,797.4h132.8
		v39.9H445.1V797.4z M579.8,752.5H913v84.9H579.8V752.5z"/>
	<text id="title" transform="matrix(1 0 0 1 32.8483 35.8372)" class="st2 st3 st4">COVID-19 in Missouri on</text>
	<text id="date" transform="matrix(1 0 0 1 241.4693 35.8372)" class="st2 st3 st4">April 27th, 2020</text>
	<text id="state_confirmed" transform="matrix(1 0 0 1 32.8704 86.9364)" class="st2 st3 st5">State Confirmed Cases By County</text>
	<g>
		<text transform="matrix(1 0 0 1 32.87 149.8491)" class="st6 st7 st8">Andrew  10</text>
		<text transform="matrix(1 0 0 1 32.87 168.8522)" class="st6 st7 st8">Atchison  10</text>
		<text transform="matrix(1 0 0 1 32.87 187.8555)" class="st6 st7 st8">Audrain  10</text>
		<text transform="matrix(1 0 0 1 32.8485 206.8585)" class="st6 st7 st8">Barry  10</text>
		<text transform="matrix(1 0 0 1 32.8485 225.8616)" class="st6 st7 st8">Barton  10</text>
		<text transform="matrix(1 0 0 1 32.8485 244.8644)" class="st6 st7 st8">Bates  10</text>
		<text transform="matrix(1 0 0 1 32.8485 263.8676)" class="st6 st7 st8">Benton  10</text>
		<text transform="matrix(1 0 0 1 32.8702 130.8459)" class="st6 st7 st8">Adair  10</text>
		<text transform="matrix(1 0 0 1 32.8485 301.874)" class="st6 st7 st8">Boone  10</text>
		<text transform="matrix(1 0 0 1 32.8487 320.877)" class="st6 st7 st8">Buchanan  10</text>
		<text transform="matrix(1 0 0 1 32.8487 282.871)" class="st6 st7 st8">Bollinger  10</text>
		<text transform="matrix(1 0 0 1 32.8487 339.8798)" class="st6 st7 st8">Butler  10</text>
		<text transform="matrix(1 0 0 1 32.8487 358.8831)" class="st6 st7 st8">Caldwell  10</text>
		<text transform="matrix(1 0 0 1 32.8489 377.8859)" class="st6 st7 st8">Callaway  10</text>
		<text transform="matrix(1 0 0 1 32.8487 396.8892)" class="st6 st7 st8">Camden  10</text>
		<text transform="matrix(1 0 0 1 32.8489 415.8919)" class="st6 st7 st8">Cape Girardeau  10</text>
		<text transform="matrix(1 0 0 1 32.8486 453.8982)" class="st6 st7 st8">Carter  10</text>
		<text transform="matrix(1 0 0 1 32.8486 472.9021)" class="st6 st7 st8">Cass  10</text>
		<text transform="matrix(1 0 0 1 32.8486 491.9052)" class="st6 st7 st8">Cedar  10</text>
		<text transform="matrix(1 0 0 1 32.8486 510.9075)" class="st6 st7 st8">Chariton  10</text>
		<text transform="matrix(1 0 0 1 32.8486 529.9106)" class="st6 st7 st8">Christian  10</text>
		<text transform="matrix(1 0 0 1 32.8485 434.8953)" class="st6 st7 st8">Carroll  10</text>
		<text transform="matrix(1 0 0 1 32.8484 548.9143)" class="st6 st7 st8">Clark  10</text>
		<text transform="matrix(1 0 0 1 32.8485 567.9175)" class="st6 st7 st8">Clay  10</text>
		<text transform="matrix(1 0 0 1 32.8485 605.9227)" class="st6 st7 st8">Cole  10</text>
		<text transform="matrix(1 0 0 1 32.8485 624.9266)" class="st6 st7 st8">Cooper  10</text>
		<text transform="matrix(1 0 0 1 32.8485 643.9298)" class="st6 st7 st8">Crawford  10</text>
		<text transform="matrix(1 0 0 1 32.8703 662.932)" class="st6 st7 st8">Dade  10</text>
		<text transform="matrix(1 0 0 1 174.7862 130.8458)" class="st6 st7 st8">Dallas  10</text>
		<text transform="matrix(1 0 0 1 32.8487 586.9199)" class="st6 st7 st8">Clinton  10</text>
		<text transform="matrix(1 0 0 1 174.7873 149.849)" class="st6 st7 st8">Daviess  10</text>
		<text transform="matrix(1 0 0 1 174.787 168.8516)" class="st6 st7 st8">DeKalb  10</text>
		<text transform="matrix(1 0 0 1 174.787 187.8549)" class="st6 st7 st8">Dent  10</text>
		<text transform="matrix(1 0 0 1 174.787 206.8581)" class="st6 st7 st8">Douglas  10</text>
		<text transform="matrix(1 0 0 1 174.787 225.8609)" class="st6 st7 st8">Dunklin  10</text>
		<text transform="matrix(1 0 0 1 174.787 244.8641)" class="st6 st7 st8">Franklin  10</text>
		<text transform="matrix(1 0 0 1 174.787 263.8675)" class="st6 st7 st8">Gasconade  10</text>
		<text transform="matrix(1 0 0 1 174.787 282.8703)" class="st6 st7 st8">Gentry  10</text>
		<text transform="matrix(1 0 0 1 174.787 301.8736)" class="st6 st7 st8">Greene  10</text>
		<text transform="matrix(1 0 0 1 174.787 320.8768)" class="st6 st7 st8">Grundy  10</text>
		<text transform="matrix(1 0 0 1 174.787 358.8825)" class="st6 st7 st8">Henry  10</text>
		<text transform="matrix(1 0 0 1 174.787 377.8861)" class="st6 st7 st8">Hickory  10</text>
		<text transform="matrix(1 0 0 1 174.7867 396.8892)" class="st6 st7 st8">Holt  10</text>
		<text transform="matrix(1 0 0 1 174.7866 339.8794)" class="st6 st7 st8">Harrison  10</text>
		<text transform="matrix(1 0 0 1 174.787 415.8921)" class="st6 st7 st8">Howard  10</text>
		<text transform="matrix(1 0 0 1 174.7866 434.8954)" class="st6 st7 st8">Howell  10</text>
		<text transform="matrix(1 0 0 1 174.7866 472.9014)" class="st6 st7 st8">Jackson  10</text>
		<text transform="matrix(1 0 0 1 174.7866 491.9048)" class="st6 st7 st8">Jasper  10</text>
		<text transform="matrix(1 0 0 1 174.7866 510.9077)" class="st6 st7 st8">Jefferson  10</text>
		<text transform="matrix(1 0 0 1 174.7866 529.9108)" class="st6 st7 st8">Johnson  10</text>
		<text transform="matrix(1 0 0 1 174.787 548.9135)" class="st6 st7 st8">Knox  10</text>
		<text transform="matrix(1 0 0 1 174.787 453.8979)" class="st6 st7 st8">Iron  10</text>
		<text transform="matrix(1 0 0 1 174.787 567.9171)" class="st6 st7 st8">Laclede  10</text>
		<text transform="matrix(1 0 0 1 174.7865 586.9196)" class="st6 st7 st8">Lafayette  10</text>
		<text transform="matrix(1 0 0 1 174.7866 605.9233)" class="st6 st7 st8">Lawrence  10</text>
		<text transform="matrix(1 0 0 1 174.7867 624.9265)" class="st6 st7 st8">Lewis  10</text>
		<text transform="matrix(1 0 0 1 174.7864 643.9296)" class="st6 st7 st8">Lincoln  10</text>
		<text transform="matrix(1 0 0 1 174.7862 662.9323)" class="st6 st7 st8">Linn  10</text>
		<text transform="matrix(1 0 0 1 304.2162 130.846)" class="st6 st7 st8">Livingston  10</text>
		<text transform="matrix(1 0 0 1 304.2169 149.8491)" class="st6 st7 st8">Macon  10</text>
		<text transform="matrix(1 0 0 1 304.2169 168.8519)" class="st6 st7 st8">Madison  10</text>
		<text transform="matrix(1 0 0 1 304.2169 187.8552)" class="st6 st7 st8">Maries  10</text>
		<text transform="matrix(1 0 0 1 304.2165 225.8615)" class="st6 st7 st8">McDonald  10</text>
		<text transform="matrix(1 0 0 1 304.2165 244.8644)" class="st6 st7 st8">Mercer  10</text>
		<text transform="matrix(1 0 0 1 304.2165 263.8671)" class="st6 st7 st8">Miller  10</text>
		<text transform="matrix(1 0 0 1 304.2169 206.8585)" class="st6 st7 st8">Marion  10</text>
		<text transform="matrix(1 0 0 1 304.2169 282.8707)" class="st6 st7 st8">Mississippi  10</text>
		<text transform="matrix(1 0 0 1 304.2169 301.8737)" class="st6 st7 st8">Moniteau  10</text>
		<text transform="matrix(1 0 0 1 304.2169 320.8763)" class="st6 st7 st8">Monroe  10</text>
		<text transform="matrix(1 0 0 1 304.2169 339.8798)" class="st6 st7 st8">Montgomery  10</text>
		<text transform="matrix(1 0 0 1 304.2169 358.8826)" class="st6 st7 st8">Morgan  10</text>
		<text transform="matrix(1 0 0 1 304.2169 377.8857)" class="st6 st7 st8">New Madrid  10</text>
		<text transform="matrix(1 0 0 1 304.2169 396.8889)" class="st6 st7 st8">Newton  10</text>
		<text transform="matrix(1 0 0 1 304.2169 434.8951)" class="st6 st7 st8">Oregon  10</text>
		<text transform="matrix(1 0 0 1 304.2169 453.8976)" class="st6 st7 st8">Osage  10</text>
		<text transform="matrix(1 0 0 1 304.2169 472.9007)" class="st6 st7 st8">Ozark  10</text>
		<text transform="matrix(1 0 0 1 304.2169 415.8918)" class="st6 st7 st8">Nodaway  10</text>
		<text transform="matrix(1 0 0 1 304.2169 491.9042)" class="st6 st7 st8">Pemiscot  10</text>
		<text transform="matrix(1 0 0 1 304.2169 510.9075)" class="st6 st7 st8">Perry   10</text>
		<text transform="matrix(1 0 0 1 304.2169 548.9133)" class="st6 st7 st8">Phelps  10</text>
		<text transform="matrix(1 0 0 1 304.2169 567.9161)" class="st6 st7 st8">Pike  10</text>
		<text transform="matrix(1 0 0 1 304.2169 586.9188)" class="st6 st7 st8">Platte  10</text>
		<text transform="matrix(1 0 0 1 304.2169 605.9228)" class="st6 st7 st8">Polk  10</text>
		<text transform="matrix(1 0 0 1 304.2169 624.9254)" class="st6 st7 st8">Pulaski  10</text>
		<text transform="matrix(1 0 0 1 304.2168 529.9102)" class="st6 st7 st8">Pettis  10</text>
		<text transform="matrix(1 0 0 1 304.2168 643.9286)" class="st6 st7 st8">Putnam  10</text>
		<text transform="matrix(1 0 0 1 304.2169 662.9318)" class="st6 st7 st8">Ralls  10</text>
		<text transform="matrix(1 0 0 1 436.947 130.846)" class="st6 st7 st8">Randolph  10</text>
		<text transform="matrix(1 0 0 1 437.1927 149.8491)" class="st6 st7 st8">Ray  10</text>
		<text transform="matrix(1 0 0 1 437.1927 168.8521)" class="st6 st7 st8">Reynolds  10</text>
		<text transform="matrix(1 0 0 1 437.1921 187.8556)" class="st6 st7 st8">Ripley  10</text>
		<text transform="matrix(1 0 0 1 437.1924 206.8586)" class="st6 st7 st8">St. Charles  10</text>
		<text transform="matrix(1 0 0 1 437.1925 225.8619)" class="st6 st7 st8">St. Clair  10</text>
		<text transform="matrix(1 0 0 1 437.1921 244.865)" class="st6 st7 st8">Ste. Genevieve  10</text>
		<text transform="matrix(1 0 0 1 437.1921 263.8678)" class="st6 st7 st8">St. Francois  10</text>
		<text transform="matrix(1 0 0 1 436.9469 301.8743)" class="st6 st7 st8">St. Louis City  10</text>
		<text transform="matrix(1 0 0 1 723.0469 301.8737)" class="st6 st7 st8">Saline  10</text>
		<text transform="matrix(1 0 0 1 581.0469 280.4763)" class="st6 st7 st8">Schuyler  10</text>
		<text transform="matrix(1 0 0 1 436.9471 282.8714)" class="st6 st7 st8">St. Louis  10</text>
		<text transform="matrix(1 0 0 1 581.2919 301.8737)" class="st6 st7 st8">Scotland  10</text>
		<text transform="matrix(1 0 0 1 721.5815 280.4765)" class="st6 st7 st8">Scott  10</text>
		<text transform="matrix(1 0 0 1 722.2042 130.6956)" class="st6 st7 st8">Shannon  10</text>
		<text transform="matrix(1 0 0 1 722.2042 152.093)" class="st6 st7 st8">Shelby  10</text>
		<text transform="matrix(1 0 0 1 722.2042 173.49)" class="st6 st7 st8">Stoddard  10</text>
		<text transform="matrix(1 0 0 1 583.2819 130.6954)" class="st6 st7 st8">Vernon  10</text>
		<text transform="matrix(1 0 0 1 583.2819 152.0924)" class="st6 st7 st8">Warren  10</text>
		<text transform="matrix(1 0 0 1 583.2819 173.4899)" class="st6 st7 st8">Washington  10</text>
		<text transform="matrix(1 0 0 1 583.2819 194.8873)" class="st6 st7 st8">Wayne  10</text>
		<text transform="matrix(1 0 0 1 583.2819 216.2847)" class="st6 st7 st8">Webster  10</text>
		<text transform="matrix(1 0 0 1 583.2819 237.6816)" class="st6 st7 st8">Worth  10</text>
		<text transform="matrix(1 0 0 1 583.2819 259.0789)" class="st6 st7 st8">Wright  10</text>
		<text transform="matrix(1 0 0 1 721.9592 216.2849)" class="st6 st7 st8">Sullivan 10</text>
		<text transform="matrix(1 0 0 1 721.9592 237.6818)" class="st6 st7 st8">Taney  10</text>
		<text transform="matrix(1 0 0 1 721.9592 259.0792)" class="st6 st7 st8">Texas  10</text>
		<text transform="matrix(1 0 0 1 721.9595 194.8873)" class="st6 st7 st8">Stone 10</text>
	</g>
</g>
<g id="table_data">
	<text transform="matrix(1 0 0 1 22.1496 776.2789)" class="st2 st7 st8">Confirmed Cases</text>
	<text transform="matrix(1 0 0 1 22.1496 820.2107)" class="st2 st7 st8">Deaths</text>
	<text id="current_date" transform="matrix(1 0 0 1 205.6792 731.9969)" class="st2 st7 st8">6 Apr. 2020</text>
	<text id="previous_date" transform="matrix(1 0 0 1 340.4574 731.9969)" class="st2 st7 st8">5 Apr. 2020</text>
	<text id="growth_rate__x25_" transform="matrix(1 0 0 1 459.5255 731.9969)" class="st2 st7 st8">Growth Rate %</text>
	<text transform="matrix(1 0 0 1 674.8005 731.9969)" class="st2 st7 st8">Total Confirmed Cases</text>
	<text id="current_сases" transform="matrix(1 0 0 1 228.5348 780.031)" class="st9 st7 st5">783</text>
	<text id="previous_deaths" transform="matrix(1 0 0 1 371.248 824.5105)" class="st9 st7 st5">14</text>
	<text id="current_deaths" transform="matrix(1 0 0 1 232.0551 823.5308)" class="st9 st7 st5">15</text>
	<text id="total_cases" transform="matrix(1 0 0 1 733.2498 809.1741)" class="st10 st7 st11">783</text>
	<text id="previous_сases" transform="matrix(1 0 0 1 363.3351 780.031)" class="st9 st7 st5">673</text>
	<text id="cases_growth_rate" transform="matrix(1 0 0 1 493.2482 781.5674)" class="st9 st7 st5">16 %</text>
	<text id="death_growth_rate" transform="matrix(1 0 0 1 497.6475 826.0466)" class="st9 st7 st5">7 %</text>
</g>
<g id="Counties">
	<polygon id="franklin" class="st12" points="723.7,510.3 721.3,481.2 722.8,480.1 738.4,489.2 742.4,489.2 742.4,487.4 
		750.3,484.6 750.3,487.7 752.2,489.4 750.3,508.4 735.1,510.7 	"/>
	<path id="worth" class="st12" d="M559.9,375.7v-5.1l-0.8-1.4l-0.6-4.6h0.2c5.4-0.1,11.2-0.2,17.1-0.4h0.2l0.2,11.5H559.9z"/>
	<polygon id="washington" class="st12" points="738.2,526.2 736.2,526.2 736.2,512.7 750.9,510.4 757.8,518.7 758.7,539.2 
		738.2,540.7 	"/>
	<polygon id="wayne_1_" class="st12" points="760.3,591.2 758.2,588.2 755.7,584.8 755.7,580.1 757.7,577.7 757.1,572.7 
		766.6,568.2 781.4,566.4 781.2,572.2 783.6,585.2 787.4,579.8 788.2,579.8 788.2,582.7 780.7,589.7 770.6,589.7 770.6,591.2 	"/>
	<polygon id="carter" class="st12" points="739.2,598.4 734.4,595.2 734.4,584.4 741.4,582.2 754.1,586.2 756.4,589.7 758.8,592.7 
		758.8,596.9 760.6,596.9 760.6,598.6 	"/>
	<polygon id="warren" class="st12" points="738.9,487.2 722.6,477.6 720.2,479.6 718.7,478.7 718.3,478.7 718.3,471.1 725.3,471.1 
		725.3,462.3 728.1,462.3 735.4,469.6 739.4,469.6 739.4,487.2 	"/>
	<polygon id="webster" class="st12" points="640.4,585.9 638.8,566.2 639.9,566.2 647.8,562.7 656.7,562.7 658.4,587.8 	"/>
	<polygon id="wright_1_" class="st12" points="658.7,562.7 678.4,562.7 680.3,586.4 660.6,587.8 	"/>
	<polygon id="vermon" class="st12" points="561.9,551.7 561.7,526.7 586.2,526.7 586.2,551.7 	"/>
	<polygon id="osage" class="st12" points="682.2,506.2 682.2,504.3 689.4,489.6 692.4,486.2 696.4,483.1 699.9,480.9 705.6,480.8 
		706.8,494.8 706.8,506.2 	"/>
	<path id="ozark" class="st12" d="M657.2,605.2h30.7v13.7h-0.1c-6.2,0.2-12.5,0.3-18.7,0.5l-11.8,0.3L657.2,605.2L657.2,605.2z"/>
	<path id="oregon" class="st12" d="M713.1,599.1l20.1-2l4.8,3.1v17.3h-0.1c-7.9,0.3-16,0.5-24.8,0.8h-0.2L713.1,599.1z"/>
	<polygon id="johnson" class="st12" points="588.2,492.3 588.2,490.2 584.7,475.2 584.7,470.8 598.2,470.8 599.6,469.6 604.8,469.6 
		607.1,470.8 613.6,470.8 613.6,492.3 	"/>
	<polygon id="jasper" class="st12" points="562.4,589.4 562.4,589.1 562.3,588.9 562.2,572.1 586.4,572.1 588.4,576.6 588.4,589.4 	
		"/>
	<polygon id="jackson" class="st12" points="561.1,474.3 560.9,460.6 561.6,460.6 570.2,456.8 573.6,454.4 574.4,451.1 578.2,451.1 
		582.7,456.6 582.7,474.3 	"/>
	<polygon id="jefferson" class="st12" points="759.4,517.6 752.4,508.9 754.1,492.7 757.2,491.3 768.4,491.3 770.7,494.7 
		769.3,498.1 766.7,506.4 775.7,515.2 766.8,519.8 	"/>
	<polygon id="texas" class="st12" points="680.4,561.7 680.3,553.2 703.7,553.2 703.9,563.9 709.1,563.9 711.2,576.2 711.2,585.8 
		689.8,585.8 689.8,585.7 682.3,586.2 	"/>
	<polygon id="randolph" class="st12" points="667.2,445.8 653.3,441.7 653.3,423.9 670.8,423.9 670.8,445.8 	"/>
	<polygon id="reynolds_1_" class="st12" points="742.2,580.4 733.1,560.7 732.2,560.7 732.2,555.2 727.1,555.2 727.1,551.7 
		751.7,550.2 755.7,577.1 753.7,579.2 753.7,583.8 	"/>
	<polygon id="shannon" class="st12" points="713.3,575.9 711.2,564.4 731.7,562.7 740.1,580.7 732.3,582.8 732.3,594.9 713.1,596.9 
			"/>
	<path id="ralls" class="st12" d="M702.2,440.1v-20.2h3.1l1.7-1.3h9.8l2.1-2.1l0.1,0.1c1.4,1.5,2.9,3.1,4.7,4.8l0.1,0.1L719,426
		l-6.1,5.2l-0.8,5.2h2.3l-0.2,1.4h-9.9v2.1h-2.1L702.2,440.1L702.2,440.1z"/>
	<path id="ripley" class="st12" d="M739.8,600.4l20.9,0.2l3.8,15.7h-0.2c-7.7,0.3-15.9,0.7-24.3,1h-0.2V600.4z"/>
	<polygon id="ray" class="st12" points="579.7,449.7 579.3,431.7 598.9,431.7 598.9,439.6 600.7,441.1 600.7,449.1 595.2,449.1 
		590.1,451.9 586.7,454.4 584.1,455.1 	"/>
	<polygon id="grundy" class="st12" points="600.9,393.9 601.3,393.9 599.3,386.8 599.3,384.9 617.7,382.6 617.7,388.8 619.2,391.2 
		619.1,400.3 600.9,402.2 	"/>
	<polygon id="gasconade" class="st12" points="708.9,513.7 708.8,494.7 707.7,482.6 711.7,480.7 718.2,480.7 719.3,481.4 
		721.6,510.2 720.8,510.2 713.3,513.7 	"/>
	<polygon id="gentry" class="st12" points="559.9,396.9 559.9,377.8 576.2,377.8 576.6,396.9 	"/>
	<polygon id="iron" class="st12" points="753.4,548.2 736.2,549.2 736.3,544.2 737.7,542.7 759.4,541.4 765.3,546.2 765.3,566.6 
		756.7,570.6 	"/>
	<polygon id="lafayette" class="st12" points="607.6,468.7 605.3,467.6 598.7,467.6 597.4,468.7 584.7,468.7 584.7,456.9 
		587.6,456.3 591.1,453.6 595.7,451.1 600.7,451.1 600.7,453.4 613.6,446.9 613.6,468.7 	"/>
	<path id="lewis" class="st12" d="M689.2,398.8v-10.1h-1.8v-7.4h17.7v0.2c0.1,0.3,0.1,0.7,0.1,1.1c0,1.3,0,2.7,0.5,4.7l0.1,0.2
		c0.2,0.6,0.5,1.2,0.6,1.7c0.2,0.5,0.3,0.9,0.5,1.4c0.6,1.7,1.1,3.6,1.6,5.4c0.2,0.8,0.5,1.6,0.7,2.4l0.1,0.2l-15.5,0.2
		C693.6,398.8,689.2,398.8,689.2,398.8z"/>
	<polygon id="lawrence" class="st12" points="590.4,597.1 590.6,577.2 609.7,577.2 611.4,586.9 611.6,597.1 	"/>
	<polygon id="laclede" class="st12" points="649.9,560.7 649.9,535.8 659.1,535.8 662.7,541.7 668.2,541.2 668.2,539.6 669.7,539.6 
		669.7,544.7 678.3,549.2 678.3,553.2 678.3,553.2 678.3,560.7 	"/>
	<polygon id="newton" class="st12" points="562.4,609.4 562.4,591.6 588.3,591.6 588.3,609.4 	"/>
	<path id="nodaway" class="st12" d="M539.2,391.8l-0.2-2.5h-3v-4.7h-5V365h0.1c7.3-0.1,15.7-0.1,25.2-0.3h0.1l0.7,5l0.8,1.5v20.6
		L539.2,391.8L539.2,391.8z"/>
	<path id="new_madrid" class="st12" d="M799.3,609.9h14.3l-1.2-14.8l4.1-2h2.6l8.4,11.5l-0.1,0.1c-1,1-1.5,2.2-1.7,4v0.2l-0.2-0.1
		c-1.2-0.5-2.7-1.2-4.7-1.2c-0.3,0-0.6,0-0.9,0.1l-3.7,0.4l1.2,3.5c1,3.2,1.5,6.5,1.3,10v0.1l-18.1,2L799.3,609.9z"/>
	<path id="marion" class="st12" d="M694.7,417.9v-17.1l15.1-0.1l0.1,0.1c0.9,2.8,2.2,6.5,4.6,10c0.9,1.3,1.9,2.7,3.1,4.1l0.1,0.1
		l-1.6,1.6h-9.7l-1.7,1.3H694.7L694.7,417.9z"/>
	<polygon id="madison" class="st12" points="767.3,546.8 784.4,546.8 784.4,564.2 781.7,564.2 781.6,564.2 767.3,566.1 	"/>
	<polygon id="montgomery" class="st12" points="707.6,479.7 707.4,457.6 715.8,452.8 723.3,452.8 723.3,468.9 716.3,468.9 
		716.3,478.7 711.3,478.7 707.6,480.3 	"/>
	<polygon id="monroe" class="st12" points="672.9,438.1 672.9,423.9 679.1,423.9 679.1,419.9 700.2,419.9 700.2,438.1 	"/>
	<polygon id="maries" class="st12" points="682.2,523.9 682.2,508.2 706.8,508.2 706.8,518.1 708.4,521.6 695.6,521.6 691.1,523.9 	
		"/>
	<polygon id="cooper" class="st12" points="637.2,483.3 637.2,468.8 641.2,460.1 644.8,465.7 660.7,465.9 662.6,469.1 661.3,471.2 
		659.6,481.8 653.1,483.3 	"/>
	<polygon id="morgan_1_" class="st12" points="641.8,513.8 637.3,512.2 637.2,485.4 646.7,485.4 646.7,490.8 651.9,495.2 
		654.7,497.9 659.1,500.8 657.2,503.8 656.2,508.9 654.9,510.9 653.6,513.8 	"/>
	<polygon id="miller" class="st12" points="666.2,524.7 662.9,521.8 662.2,517.9 656.7,512.1 656.7,511.8 657.9,509.8 659.1,504.7 
		660.9,501.7 669.7,501.7 669.7,506.3 680.2,506.3 680.2,523.9 669.7,523.9 669.7,524.7 	"/>
	<polygon id="moniteau" class="st12" points="660.7,499.7 656.2,496.6 653.3,493.7 648.8,489.8 648.8,485.4 653.2,485.4 
		661.3,483.4 663.2,472.1 663.6,471.6 663.7,471.3 667.4,478.6 663.9,499.7 	"/>
	<path id="mississippi" class="st12" d="M821.1,592.2l5.8-6.5l11.1-0.9v0.2c0,2.5-0.2,4.2-0.8,5.8c-0.1,0.2-0.3,0.4-0.5,0.5
		c-0.8,0.6-1.7,1.6-2.2,3s-0.3,2.9-0.2,4.1c0.1,0.5,0.1,1,0.1,1.3c-0.1,0.6-0.1,1.2-0.1,1.5v0.1h-0.1c-1.2,0.2-2.3,0.5-3.4,1.1
		c-0.4,0.2-0.8,0.5-1.2,0.7l-0.1,0.1L821.1,592.2z"/>
	<path id="mcdonald" class="st12" d="M562.4,611.6h25.9l-0.1,10.1h-0.1c-8.7,0.2-17.2,0.4-25.6,0.6h-0.1L562.4,611.6L562.4,611.6z"
		/>
	<path id="mercer" class="st12" d="M599.6,363.6L599.6,363.6c6.1-0.2,12.1-0.3,17.9-0.6h0.2v17.5l-18.3,2.3L599.6,363.6z"/>
	<path id="macon" class="st12" d="M652.7,421.9L652.7,421.9c-2.4-1.7-5.4-4-6.2-4.7l-0.1-0.1V417c-0.1-1.2,0-6.2,0.1-10.1v-1h-2
		l-0.1-9.2H668l2.9,4.8v20.4L652.7,421.9L652.7,421.9L652.7,421.9z"/>
	<path id="platte" class="st12" d="M557.7,450.6c-1.3-0.8-2.7-1.5-4-1.9c-1.3-0.6-2.6-1.1-2.9-1.4c-1.1-1.2-2-2.7-3-4.3
		c-1-1.7-2.1-3.4-3.5-5l-0.2-0.3c-1.5-1.7-2.7-3.1-3.3-4.5l-0.1-0.2h7.6v-1.6l9.6,0.2v19.1L557.7,450.6z"/>
	<polygon id="polk" class="st12" points="611.9,564.2 612.2,555.2 612.2,555.2 612.2,547.2 610.2,547.2 610.2,541.4 631.8,543.7 
		631.8,564.2 	"/>
	<polygon id="pettis" class="st12" points="615.7,469.1 635.2,469.6 635.2,492.4 615.7,494.4 	"/>
	<polygon id="pulaski" class="st12" points="680.3,551.1 680.3,548.1 671.7,543.6 671.7,525.9 689.1,525.9 689.1,551.1 	"/>
	<polygon id="phelps" class="st12" points="691.1,551.1 691.1,525.9 691.6,525.9 696.1,523.6 711.7,523.6 708.9,517.7 708.9,515.7 
		712.6,515.7 712.6,527.9 714.6,527.9 714.6,537.4 707.8,537.4 699.9,539.6 699.9,551.1 	"/>
	<path id="pike" class="st12" d="M717.7,450.8l-1.5-11.7l0.7-4.5h-2.4l0.3-2.2l5.5-4.8l5-4.7l0.1,0.1c1.1,1,2.2,2,3.4,3l0.2,0.2
		c1,0.9,2,1.9,3,2.8c2.3,2.1,4.7,4.1,6.9,6.2l0.1,0.1c2.6,2.2,5.2,4.5,7.7,6.8c0.5,0.5,0.9,0.8,1.2,1.1l0.2,0.2h-21.6v7.3
		L717.7,450.8L717.7,450.8z"/>
	<path id="pemiscot" class="st12" d="M801.2,625.7l17.6-1.9v0.2c-0.4,3.1-1.3,6.1-2.7,9c-0.4,0.9-1.2,2.1-2,3.4
		c-1.5,2.3-3.1,5-3.9,7.7v0.1l-2.1,0.3h-1.5c-1.2,0-2.2,0-3.2,0.1h-0.1L801.2,625.7z"/>
	<polygon id="perry" class="st12" points="786.4,546.2 789.1,540.8 793.4,532.2 802.2,534.7 806.8,534.7 811.8,546.2 	"/>
	<path id="putnam" class="st12" d="M644.2,375.7v-1.9h-24.4v-10.9h0.1c9.5-0.3,19.4-0.7,29.5-1h0.2v13.9L644.2,375.7L644.2,375.7
		L644.2,375.7z"/>
	<polygon id="st._louis" class="st12" points="769.4,489.3 757.1,489.3 754.2,490.3 754.4,488.6 752.3,486.7 752.3,483.6 
		756.3,479.8 763.1,479.8 767.4,469.4 769.2,470.3 773.2,467.6 774.9,466.7 776.2,468.2 778.2,468.2 778.2,471.9 775.9,473.1 
		772.2,474.6 772.2,483.8 774.1,487.1 771.7,492.6 	"/>
	<polygon id="st._louis_city" class="st12" points="774.2,483.2 774.2,475.9 776.8,474.8 778.2,474.1 778.2,480.4 775.2,484.7 	"/>
	<polygon id="ste._genevieve" class="st12" points="783.7,544.8 783.7,541.7 770.4,531.2 773.3,527.7 775.8,522.7 769.7,520.7 
		777.2,516.8 791.7,531.2 787.2,539.9 784.9,544.8 	"/>
	<polygon id="stoddard" class="st12" points="790.3,605.2 787.2,598.8 782.6,590.9 789.7,584.2 794.2,584.2 797.3,579.6 
		801.7,577.2 806.2,577.2 809.7,587.6 811.4,607.9 794.4,607.9 790.3,609.4 	"/>
	<polygon id="scott" class="st12" points="811.8,587.2 808.2,576.6 811.7,574.2 816.2,570.4 817.7,570.4 817.7,570.7 820.8,577.2 
		825.6,584.1 819.2,591.2 816.2,591.2 812.3,592.9 	"/>
	<path id="schuyler" class="st12" d="M651.6,375.7v-13.9h0.1c5-0.2,9.7-0.3,14-0.5h0.2v14.5L651.6,375.7L651.6,375.7z"/>
	<polygon id="saline" class="st12" points="615.7,467.1 615.7,447.8 616.4,447.8 618.2,451.7 621.2,449.2 624.2,446.4 629.2,440.1 
		630.3,440.1 636.6,443.3 644.2,448.6 635.4,467.6 	"/>
	<polygon id="shelby" class="st12" points="672.9,421.9 672.9,402.2 681.2,402.2 681.2,400.6 687.1,400.8 687.1,400.8 692.7,400.8 
		692.7,417.9 676.9,417.9 676.9,421.9 	"/>
	<path id="scotland" class="st12" d="M668.8,377.4l-0.9-1v-15.2h0.1c6.5-0.2,12.3-0.5,17-0.7h0.2v17L668.8,377.4L668.8,377.4
		L668.8,377.4z"/>
	<polygon id="st._francois" class="st12" points="766.7,544.8 760.8,539.8 759.9,519.8 773.1,523.9 771.7,526.6 767.4,531.2 
		781.6,542.7 781.6,544.8 	"/>
	<path id="st._charles" class="st12" d="M741.6,469.6h1.2l9-3.7l3.1-2.2l0.1,0.1c0.9,0.5,1.9,0.8,2.9,0.8c0.6,0,1.2-0.1,1.7-0.2
		l13.6,0.2l0.5,0.6l-1.4,0.6l-3.1,2.3l-2.6-1.4l-4.7,11.3h-6.2l-4.7,4.3l-9.3,3.6L741.6,469.6L741.6,469.6z"/>
	<polygon id="stone" class="st12" points="615.7,604.4 613.7,604.4 613.7,595.2 624.4,595.2 624.4,605.7 626.7,605.7 626.1,620.6 
		615.7,620.8 	"/>
	<polygon id="st._clair" class="st12" points="610.2,539.4 610.2,539.2 600.9,539.2 600.9,535.7 588.2,535.7 588.2,515.7 
		613.7,515.8 615.3,520.9 611.2,539.6 	"/>
	<path id="sullivan" class="st12" d="M621.1,396.9l0.1-6.3l-1.4-2.4v-12.4h22.4v1.9v0.1l0.1,16.7h-0.1c-2.9,0.1-5.8,0.1-7.9,0.1
		s-3.3,0-3.6-0.1c-0.1,0-0.2,0-0.3,0c-0.4,0-0.8,0.2-1,0.5c-0.3,0.3-0.4,0.9-0.3,1.6v0.2L621.1,396.9L621.1,396.9z"/>
	<polygon id="taney" class="st12" points="628.7,605.7 648.6,605.2 655.2,605.2 655.2,619.8 628.2,620.6 	"/>
	<path id="holt" class="st12" d="M536.9,405.6c-0.1,0-0.2,0-0.3,0c-1.1-0.1-4.1-1-5.4-1.6c-1.9-0.8-3.4-3.3-5-5.7
		c-0.8-1.3-1.7-2.8-2.7-4c-1.7-2.2-3.2-4.4-4.7-6.7c-0.6-0.9-1.1-1.7-1.7-2.6l-0.2-0.2l3.4,0.3v1.7H534v4.7h3l1.1,14h-0.2
		C537.7,405.6,537.2,405.6,536.9,405.6L536.9,405.6z"/>
	<path id="harrison" class="st12" d="M578.6,391.8l-0.6-27.6h0.1c6.1-0.2,12.6-0.3,19.3-0.5h0.2l-0.2,23.4l1.3,4.8L578.6,391.8
		L578.6,391.8z"/>
	<polygon id="henry" class="st12" points="588.2,513.7 588.2,494.4 613.6,494.4 613.6,513.8 	"/>
	<polygon id="howard" class="st12" points="645.9,463.7 642.2,457.8 646.2,448.7 652.6,443.6 665.7,447.6 662.7,456.1 660.7,463.9 	
		"/>
	<path id="howell" class="st12" d="M689.8,587.8h21.3l-0.3,30.4h-0.1c-6.9,0.2-13.8,0.4-20.6,0.6h-0.3L689.8,587.8L689.8,587.8z"/>
	<polygon id="hickory" class="st12" points="613.2,539.7 616.6,524.7 636.7,524.7 636.7,534.6 632.3,541.7 	"/>
	<polygon id="knox" class="st12" points="672.6,400.2 669.6,395.4 669.3,379.6 685.3,379.6 685.3,390.7 687.1,390.7 687.1,398.8 
		679.2,398.6 679.2,400.2 	"/>
	<path id="lincoln" class="st12" d="M736.2,467.6l-7.4-7.3h-3.4v-7.5h3.3v-7.3h20.4v0.1c0.1,0.7,0.2,1.6,0.2,2.9v0.2
		c0.1,2.9,0.8,9.9,3.8,13.5l0.1,0.1l-2.4,1.7l-8.6,3.6L736.2,467.6L736.2,467.6z"/>
	<polygon id="livingston" class="st12" points="600.9,423.7 600.9,404.2 619.1,402.3 618.8,421.3 623.1,421.3 622.9,423.7 	"/>
	<path id="linn" class="st12" d="M620.9,419.2l0.1-20.3h11l-0.6-1.4c-0.1-0.2-0.2-0.4-0.2-0.6l-0.1-0.2h0.2c0.7,0,1.7,0,3.1,0
		c2.5,0,5.5-0.1,7.6-0.1h0.2l0.1,11.2h1.9v0.2c-0.1,4-0.1,6.8-0.1,8.3v0.2H633v2.6L620.9,419.2L620.9,419.2L620.9,419.2z"/>
	<polygon id="dade" class="st12" points="590.2,575.2 588.2,570.8 588.2,557.4 610.1,557.4 609.6,575.2 	"/>
	<polygon id="douglas" class="st12" points="649.3,603.2 646.8,588.7 659.6,590.1 687.8,587.9 687.8,603.2 	"/>
	<polygon id="daviess" class="st12" points="578.9,413.4 578.6,393.9 598.9,393.9 598.9,413.4 	"/>
	<polygon id="greene" class="st12" points="613.2,585.8 611.6,576.2 611.8,566.2 636.7,566.2 638.4,585.8 	"/>
	<polygon id="dekalb" class="st12" points="559.9,416.6 559.9,398.9 576.7,398.9 576.9,416.6 	"/>
	<polygon id="dent" class="st12" points="710.7,561.8 705.9,561.8 705.7,551.1 702.1,551.1 702.1,541.2 708.1,539.6 725.1,539.6 
		725.1,544.2 734.2,544.7 734.2,549.2 725.1,549.8 725.1,557.2 730.2,557.2 730.2,560.8 710.8,562.6 	"/>
	<path id="dunklin" class="st12" d="M792.8,647.1c-1.9,0-4.1-0.1-6.7-0.2h-0.2l0.1-0.2c1.3-2.4,3-4.6,4.7-6.9
		c1.6-2.2,3.3-4.4,4.8-6.9c2.4-4.1,1.4-10.5-1-14c-1.8-2.7-3.5-4-5.6-4.1h-0.2l1.5-2.6v-0.4l4.3-1.6h2.7l3.8,34.7h-0.5l-0.8,1.3
		C799.1,646.7,796.7,647.1,792.8,647.1z"/>
	<polygon id="dallas" class="st12" points="633.8,564.2 633.8,543.1 638.2,535.8 647.9,535.8 647.9,560.7 647.3,560.7 639.4,564.2 	
		"/>
	<polygon id="camden" class="st12" points="660.2,533.8 638.7,533.8 638.7,516.8 637.3,516.8 637.3,514.2 641.3,515.8 654.8,515.8 
		655.7,514.1 660.2,518.9 661.1,522.9 665.3,526.7 669.7,526.7 669.7,537.4 666.2,537.4 666.2,539.4 663.7,539.6 	"/>
	<path id="chariton" class="st12" d="M637.7,441.6l-6.1-3.1v-2.4l-1.9-3.7l-4.8-7.2l0.2-4h10.2v-2.6h9.7l0.1,0.1
		c0.9,0.8,2.9,2.4,6.2,4.8l0.1,0.1V442l-5.9,4.9L637.7,441.6z"/>
	<polygon id="crawford" class="st12" points="727.1,542.2 727.1,537.4 716.6,537.4 716.6,525.8 714.7,525.8 714.7,515.2 
		721.2,512.2 734.2,512.7 734.2,528.2 736.2,528.2 736.2,541.2 734.8,542.7 	"/>
	<polygon id="cape_girardeau" class="st12" points="803.3,575.2 801.7,548.2 812.7,548.2 814.3,552.2 817.7,554.6 817.7,568.2 
		815.3,568.2 810.4,572.4 806.6,575.2 	"/>
	<polygon id="cedar" class="st12" points="588.2,555.2 588.2,537.7 598.8,537.7 598.8,541.4 608.2,541.4 608.2,549.2 610.1,549.2 
		610.1,555.2 	"/>
	<polygon id="carroll" class="st12" points="602.7,440.3 600.9,438.6 600.9,425.7 622.7,425.7 626.4,431.2 627.9,433.4 629.6,436.6 
		629.6,438.1 628.2,438.1 622.7,444.9 619.8,447.7 618.9,448.4 617.8,445.8 615.7,445.8 615.7,443.6 602.7,450.1 	"/>
	<polygon id="christian" class="st12" points="626.6,603.7 626.6,593.2 613.6,593.2 613.4,587.8 639.4,587.8 644.7,588.4 
		647.3,603.2 627.7,603.7 	"/>
	<polygon id="caldwell" class="st12" points="579.2,429.7 578.9,415.4 598.9,415.4 598.9,429.7 	"/>
	<polygon id="callaway" class="st12" points="685.1,487.2 681.6,487.2 678.3,484.9 682.2,477.1 682.2,457.9 705.4,457.9 
		705.4,478.7 699.3,478.9 695.2,481.4 691.1,484.6 687.7,488.3 687.6,488.8 	"/>
	<polygon id="cole" class="st12" points="671.7,504.2 671.7,499.7 665.9,499.7 669.1,481.7 670.9,481.7 673.9,486.2 676.7,486.2 
		680.8,489.2 684.4,489.2 686.7,490.7 680.2,503.8 680.2,504.2 	"/>
	<polygon id="clinton" class="st12" points="559.9,435.3 559.9,418.6 577.1,418.6 577.3,435.3 	"/>
	<path id="clay" class="st12" d="M561.1,458.4L561.1,458.4l8.1-3.6l2.4-1.8l1.2-4.1h4.7l-0.2-11.4h-17.1v15c0.8,0.9,1.1,2,0.9,3.4
		L561.1,458.4L561.1,458.4z"/>
	<polygon id="cass" class="st12" points="577.1,499.7 577.1,497.7 561.3,497.7 561.1,476.4 582.8,476.4 586.2,490.2 586.2,499.7 	
		"/>
	<path id="clark" class="st12" d="M687.3,379.2v-18.9h0.1c5.1-0.2,8.7-0.3,10.4-0.5h0.1l0.2,0.1c0.8,0.8,1.3,2,1.9,3.3
		c0.6,1.5,1.3,3.3,2.6,4.7c0.9,1,3,2.6,5.3,3.6l0.2,0.1l-0.1,0.2c-0.5,0.8-0.8,1.5-0.9,2.2v0.1c-0.1,0.1-0.1,0.3-0.1,0.5
		c-0.1,0.3-0.3,0.6-0.5,1c-0.3,0.6-0.8,1.3-1,2.2c-0.1,0.4-0.2,0.8-0.3,1.3v0.1L687.3,379.2L687.3,379.2z"/>
	<polygon id="boone" class="st12" points="675.1,484.2 672.1,479.6 669.3,479.6 669.6,478.2 662.6,464.8 664.7,456.6 667.7,447.8 
		681.7,447.8 681.7,455.9 680.2,455.9 680.2,476.6 676.4,484.2 	"/>
	<path id="butler" class="st12" d="M762.7,599.6v-4.7h-1.8v-1.6h11.7v-1.6h8l4.8,8.1l2.9,5.9v5.7l-1.6,2.7l0.1,0.5h-0.1
		c-0.3,0.1-0.6,0.1-1,0.2c-0.6,0.1-1.2,0.3-2,0.3c-2.4,0.3-5,0.5-7.6,0.5c-0.8,0.1-1.6,0.1-2.4,0.1c-1.6,0.1-3.2,0.2-4.8,0.2
		l-2.1,0.1L762.7,599.6z"/>
	<polygon id="bollinger" class="st12" points="790.3,582.2 790.3,577.7 786.4,577.7 784.7,580.2 783.2,572.1 783.6,566.2 
		786.6,566.2 786.6,548.2 799.6,548.2 801.2,575.2 801.2,575.2 795.8,578.1 793.2,582.2 	"/>
	<path id="barry" class="st12" d="M590.4,599.1h21.2l0.2,7.5h1.7v14.5h-0.1c-7.8,0.2-15.4,0.4-23,0.6h-0.2L590.4,599.1z"/>
	<polygon id="barton" class="st12" points="562.2,570.1 561.9,553.7 586.2,553.7 586.2,570.1 	"/>
	<polygon id="bates" class="st12" points="561.7,524.7 561.3,499.7 575.1,499.7 575.1,501.7 586.2,501.7 586.2,524.7 	"/>
	<polygon id="benton" class="st12" points="617.1,522.7 617.4,520.9 615.7,514.7 615.7,496.4 635.2,494.6 635.3,518.8 636.7,518.8 
		636.7,522.7 	"/>
	<path id="buchanan" class="st12" d="M540.2,431.1v-0.2c0-0.2,0-0.4,0-0.6c0.2-4.2,0.3-5.1,2.7-7.4c2.3-2.2,3.9-5.9,4-9.2v-0.1h10.9
		v16.1l-11.6-0.3v1.6h-6L540.2,431.1L540.2,431.1z"/>
	<path id="atchison" class="st12" d="M522.3,384.6v-1.5l-7.1-0.7c0,0-0.1-0.2-0.2-0.3s-0.1-0.2-0.2-0.2c-0.6-0.8-1.2-1.5-1.7-2.1
		c-0.9-0.9-1.7-1.9-2.2-2.8c-0.3-0.7-0.5-1.6-0.6-2.6s-0.2-2.1-0.6-3.1l-2-6.5h0.2c4.9,0.2,11.3,0.3,18.9,0.3h2.1v19.5L522.3,384.6
		L522.3,384.6z"/>
	<polygon id="adair" class="st12" points="644.4,394.7 644.2,377.8 666.4,377.8 667.3,378.8 667.4,394.7 	"/>
	<path id="andrew" class="st12" d="M546.8,411.4v-0.1c-0.3-1.6-1-2.9-2.1-4c-1.2-1.2-2.6-1.8-4.3-1.9l0,0l-0.9-11.5L558,394v17.5
		L546.8,411.4L546.8,411.4z"/>
	<polygon id="audrain" class="st12" points="683.8,455.9 683.8,445.8 672.9,445.8 672.9,440.1 700.2,440.1 700.2,442.1 706.6,442.1 
		706.6,440.1 714.3,440.1 715.7,450.6 706.2,455.9 	"/>
</g>
<g id="balls">
	<circle id="new_madrid_circle" class="st13" cx="814" cy="611.9" r="5.2"/>
	<circle id="pemiscot_circle" class="st13" cx="809.9" cy="632.1" r="5.2"/>
	<circle id="dunklin_circle" class="st13" cx="796.7" cy="633" r="5.2"/>
	<circle id="mississippi_circle" class="st13" cx="829.7" cy="594.2" r="5.2"/>
	<circle id="scott_circle" class="st13" cx="816.8" cy="580.2" r="5.2"/>
	<circle id="stoddard_circle" class="st13" cx="798.2" cy="593.7" r="5.2"/>
	<circle id="cape_girardeau_circle" class="st13" cx="809.4" cy="561" r="5.2"/>
	<circle id="bollinger_circle" class="st13" cx="792.9" cy="564.9" r="5.2"/>
	<circle id="madison_circle" class="st13" cx="775.8" cy="555.7" r="5.2"/>
	<circle id="butler_circle" class="st13" cx="775.4" cy="602.8" r="5.2"/>
	<circle id="wayne_circle" class="st13" cx="769.6" cy="579.2" r="5.2"/>
	<circle id="ripley_circle" class="st13" cx="749.9" cy="608.5" r="5.2"/>
	<circle id="carter_circle" class="st13" cx="746.6" cy="592.2" r="5.2"/>
	<circle id="oregon_circle" class="st13" cx="724" cy="608.5" r="5.2"/>
	<circle id="howell_circle" class="st13" cx="699.5" cy="603.7" r="5.2"/>
	<circle id="shannon_circle" class="st13" cx="724.4" cy="576.8" r="5.2"/>
	<circle id="reynolds_circle" class="st13" cx="745.1" cy="564.9" r="5.2"/>
	<circle id="iron_circle" class="st13" cx="759.2" cy="551.2" r="5.2"/>
	<circle id="perry_circle" class="st13" cx="798.4" cy="539.9" r="5.2"/>
	<circle id="ste._genevieve_circle" class="st13" cx="780.9" cy="529.8" r="5.2"/>
	<circle id="st._francois_circle" class="st13" cx="767.7" cy="536.1" r="5.2"/>
	<circle id="washington_circle" class="st13" cx="747.3" cy="526" r="5.2"/>
	<circle id="crawford_circle" class="st13" cx="725.4" cy="525.5" r="5.2"/>
	<circle id="dent_circle" class="st13" cx="714.4" cy="550.5" r="5.2"/>
	<circle id="texas_circle" class="st13" cx="693.3" cy="571.1" r="5.2"/>
	<circle id="douglas_circle" class="st13" cx="666.7" cy="596.6" r="5.2"/>
	<circle id="wright_circle" class="st13" cx="670" cy="574.8" r="5.2"/>
	<circle id="phelps_circle" class="st13" cx="700.2" cy="533.2" r="5.2"/>
	<circle id="pulaski_circle" class="st13" cx="680.8" cy="536.1" r="5.2"/>
	<circle id="laclede_circle" class="st13" cx="663" cy="550.5" r="5.2"/>
	<circle id="maries_circle" class="st13" cx="694.7" cy="514.5" r="5.2"/>
	<circle id="miller_circle" class="st13" cx="669.3" cy="514" r="5.2"/>
	<circle id="gasconade_circle" class="st13" cx="713.9" cy="497.7" r="5.2"/>
	<circle id="franklin_circle" class="st13" cx="737.7" cy="498.1" r="5.2"/>
	<circle id="jefferson_circle" class="st13" cx="760.5" cy="505.3" r="5.2"/>
	<circle id="st._louis_city_circle" class="st13" cx="776.5" cy="479.7" r="5.2"/>
	<circle id="st._louis_circle" class="st13" cx="765.8" cy="481.3" r="5.2"/>
	<circle id="st._charles_circle" class="st13" cx="753.5" cy="471.7" r="5.2"/>
	<circle id="warren_circle" class="st13" cx="731.2" cy="474.6" r="5.2"/>
	<circle id="osage_circle" class="st13" cx="697.4" cy="495.7" r="5.2"/>
	<circle id="cole_circle" class="st13" cx="675" cy="493.8" r="5.2"/>
	<circle id="moniteau_circle" class="st13" cx="660.2" cy="489.5" r="5.2"/>
	<circle id="webster_circle" class="st13" cx="648.2" cy="574.5" r="5.2"/>
	<circle id="dallas_circle" class="st13" cx="641" cy="550" r="5.2"/>
	<circle id="camden_circle" class="st13" cx="651.5" cy="524.5" r="5.2"/>
	<circle id="morgan_circle" class="st13" cx="645.8" cy="502" r="5.2"/>
	<circle id="benton_circle" class="st13" cx="625.6" cy="508.7" r="5.2"/>
	<circle id="hickory_circle" class="st13" cx="625.4" cy="531.7" r="5.2"/>
	<circle id="polk_circle" class="st13" cx="621.3" cy="552.9" r="5.2"/>
	<circle id="greene_circle" class="st13" cx="625.1" cy="576.4" r="5.2"/>
	<circle id="christian_circle" class="st13" cx="633.8" cy="595.1" r="5.2"/>
	<circle id="ozark_circle" class="st13" cx="671.4" cy="611.9" r="5.2"/>
	<circle id="taney_circle" class="st13" cx="641.2" cy="612.4" r="5.2"/>
	<circle id="stone_circle" class="st13" cx="620.8" cy="607.6" r="5.2"/>
	<circle id="barry_circle" class="st13" cx="602.1" cy="609.5" r="5.2"/>
	<circle id="lawrence_circle" class="st13" cx="600.6" cy="586" r="5.2"/>
	<circle id="dade_circle" class="st13" cx="599" cy="566.2" r="5.2"/>
	<circle id="cedar_circle" class="st13" cx="598" cy="548.1" r="5.2"/>
	<circle id="mcdonald_circle" class="st13" cx="574.7" cy="617.2" r="5.2"/>
	<circle id="newton_circle" class="st13" cx="574" cy="600.4" r="5.2"/>
	<circle id="jasper_circle" class="st13" cx="574.2" cy="579.7" r="5.2"/>
	<circle id="barton_circle" class="st13" cx="574" cy="561" r="5.2"/>
	<circle id="st._clair_circle" class="st13" cx="601.6" cy="525.5" r="5.2"/>
	<circle id="vermon_circle" class="st13" cx="573.3" cy="538.5" r="5.2"/>
	<circle id="henry_circle" class="st13" cx="599.7" cy="504.4" r="5.2"/>
	<circle id="bates_circle" class="st13" cx="573.3" cy="512.5" r="5.2"/>
	<circle id="johnson_circle" class="st13" cx="599.2" cy="480.4" r="5.2"/>
	<circle id="cass_circle" class="st13" cx="573" cy="487.1" r="5.2"/>
	<circle id="pettis_circle" class="st13" cx="625.6" cy="479.4" r="5.2"/>
	<circle id="cooper_circle" class="st13" cx="647.9" cy="473.7" r="5.2"/>
	<circle id="boone_circle" class="st13" cx="671.7" cy="461.6" r="5.2"/>
	<circle id="callaway_circle" class="st13" cx="693.3" cy="468.6" r="5.2"/>
	<circle id="montgomery_circle" class="st13" cx="714.9" cy="463.4" r="5.2"/>
	<circle id="lincoln_circle" class="st13" cx="739.1" cy="454.8" r="5.2"/>
	<circle id="pike_circle" class="st13" cx="726.2" cy="435.5" r="5.2"/>
	<circle id="audrain_circle" class="st13" cx="695.1" cy="448" r="5.2"/>
	<circle id="howard_circle" class="st13" cx="654.5" cy="453.7" r="5.2"/>
	<circle id="saline_circle" class="st13" cx="628.9" cy="454.8" r="5.2"/>
	<circle id="lafayette_circle" class="st13" cx="599.4" cy="459.5" r="5.2"/>
	<circle id="jackson_circle" class="st13" cx="573.1" cy="466" r="5.2"/>
	<circle id="randolph_circle" class="st13" cx="662.4" cy="433.2" r="5.2"/>
	<circle id="monroe_circle" class="st13" cx="688.3" cy="428.2" r="5.2"/>
	<circle id="ralls_circle" class="st13" cx="709.8" cy="426.1" r="5.2"/>
	<circle id="marion_circle" class="st13" cx="704.1" cy="409.4" r="5.2"/>
	<circle id="shelby_circle" class="st13" cx="683.3" cy="409.4" r="5.2"/>
	<circle id="macon_circle" class="st13" cx="657.7" cy="407.3" r="5.2"/>
	<circle id="lewis_circle" class="st13" cx="696.7" cy="390.4" r="5.2"/>
	<circle id="knox_circle" class="st13" cx="677.4" cy="388.7" r="5.2"/>
	<circle id="clark_circle" class="st13" cx="695.5" cy="370.9" r="5.2"/>
	<circle id="scotland_circle" class="st13" cx="676.6" cy="369.5" r="5.2"/>
	<circle id="adair_circle" class="st13" cx="655" cy="385.8" r="5.2"/>
	<circle id="schuyler_circle" class="st13" cx="658.6" cy="368" r="5.2"/>
	<circle id="chariton_circle" class="st13" cx="641" cy="430" r="5.2"/>
	<circle id="linn_circle" class="st13" cx="631.2" cy="407.6" r="5.2"/>
	<circle id="sullivan_circle" class="st13" cx="631.2" cy="384.6" r="5.2"/>
	<circle id="putnam_circle" class="st13" cx="634.8" cy="368.4" r="5.2"/>
	<circle id="carroll_circle" class="st13" cx="612.9" cy="435.4" r="5.2"/>
	<circle id="livingston_circle" class="st13" cx="609.6" cy="413.8" r="5.2"/>
	<circle id="grundy_circle" class="st13" cx="608.2" cy="392.2" r="5.2"/>
	<circle id="mercer_circle" class="st13" cx="607.8" cy="373.1" r="5.2"/>
	<circle id="ray_circle" class="st13" cx="589.1" cy="441.8" r="5.2"/>
	<circle id="caldwell_circle" class="st13" cx="588.8" cy="421.7" r="5.2"/>
	<circle id="clay_circle" class="st13" cx="569" cy="444.7" r="5.2"/>
	<circle id="clinton_circle" class="st13" cx="568.2" cy="426.7" r="5.2"/>
	<circle id="dekalb_circle" class="st13" cx="569" cy="407.6" r="5.2"/>
	<circle id="daviess_circle" class="st13" cx="588" cy="403" r="5.2"/>
	<circle id="harrison_circle" class="st13" cx="588" cy="377.8" r="5.2"/>
	<circle id="platte_circle" class="st13" cx="551.7" cy="439.3" r="5.2"/>
	<circle id="buchanan_circle" class="st13" cx="550.6" cy="423.1" r="5.2"/>
	<circle id="andrew_circle" class="st13" cx="549.5" cy="401.2" r="5.2"/>
	<circle id="holt_circle" class="st13" cx="530.1" cy="394" r="5.2"/>
	<circle id="gentry_circle" class="st13" cx="567.2" cy="387.8" r="5.2"/>
	<circle id="worth_circle" class="st13" cx="568.2" cy="370.6" r="5.2"/>
	<circle id="nodaway_circle" class="st13" cx="545.2" cy="377" r="5.2"/>
	<circle id="atchison_circle" class="st13" cx="520" cy="373.8" r="5.2"/>
	<text id="new_madrid_numbers" transform="matrix(1 2.629991e-03 -2.629991e-03 1 811.59 613.0296)" class="st14 st7 st15">10</text>
	<text id="pemiscot_numbers" transform="matrix(1 2.629991e-03 -2.629991e-03 1 807.5095 633.1895)" class="st14 st7 st15">10</text>
	<text id="dunklin_numbers" transform="matrix(1 2.629991e-03 -2.629991e-03 1 794.3095 634.1495)" class="st14 st7 st15">10</text>
	<text id="mississippi_numbers" transform="matrix(1 2.629991e-03 -2.629991e-03 1 827.3099 595.3896)" class="st14 st7 st15">10</text>
	<text id="scott_numbers" transform="matrix(1 2.629991e-03 -2.629991e-03 1 814.3499 581.3496)" class="st14 st7 st15">10</text>
	<text id="stoddard_numbers" transform="matrix(1 2.629991e-03 -2.629991e-03 1 795.7499 594.7896)" class="st14 st7 st15">10</text>
	<text id="cape_girardeau_numbers" transform="matrix(1 2.629991e-03 -2.629991e-03 1 807.0294 562.1495)" class="st14 st7 st15">10</text>
	<text id="bollinger_numbers" transform="matrix(1 2.629991e-03 -2.629991e-03 1 790.4699 565.9896)" class="st14 st7 st15">10</text>
	<text id="madison_numbers" transform="matrix(1 2.629991e-03 -2.629991e-03 1 773.4296 556.8695)" class="st14 st7 st15">10</text>
	<text id="butler_numbers" transform="matrix(1 2.629991e-03 -2.629991e-03 1 772.9495 603.9095)" class="st14 st7 st15">10</text>
	<text id="wayne_numbers" transform="matrix(1 2.629991e-03 -2.629991e-03 1 767.1895 580.3895)" class="st14 st7 st15">10</text>
	<text id="ripley_numbers" transform="matrix(1 2.629991e-03 -2.629991e-03 1 747.5095 609.6695)" class="st14 st7 st15">10</text>
	<text id="carter_numbers" transform="matrix(1 2.629991e-03 -2.629991e-03 1 744.1494 593.3495)" class="st14 st7 st15">10</text>
	<text id="oregon_numbers" transform="matrix(1 2.629991e-03 -2.629991e-03 1 721.5894 609.6695)" class="st14 st7 st15">10</text>
	<text id="howell_numbers" transform="matrix(1 2.629991e-03 -2.629991e-03 1 697.1096 604.8695)" class="st14 st7 st15">10</text>
	<text id="shannon_numbers" transform="matrix(1 2.629991e-03 -2.629991e-03 1 722.0294 577.9495)" class="st14 st7 st15">10</text>
	<text id="reynolds_numbers" transform="matrix(1 2.629991e-03 -2.629991e-03 1 742.7094 565.9895)" class="st14 st7 st15">10</text>
	<text id="iron_numbers" transform="matrix(1 2.629991e-03 -2.629991e-03 1 756.8002 552.2937)" class="st14 st7 st15">10</text>
	<text id="perry_numbers" transform="matrix(1 2.629991e-03 -2.629991e-03 1 795.9896 541.0295)" class="st14 st7 st15">10</text>
	<text id="ste._genevieve_numbers" transform="matrix(1 2.629991e-03 -2.629991e-03 1 778.4697 530.9496)" class="st14 st7 st15">10</text>
	<text id="st._francois_numbers" transform="matrix(1 2.629991e-03 -2.629991e-03 1 765.2695 537.1895)" class="st14 st7 st15">10</text>
	<text id="washington_numbers" transform="matrix(1 2.629991e-03 -2.629991e-03 1 744.8696 527.1096)" class="st14 st7 st15">10</text>
	<text id="crawford_numbers" transform="matrix(1 2.629991e-03 -2.629991e-03 1 723.0294 526.6295)" class="st14 st7 st15">10</text>
	<text id="dent_numbers" transform="matrix(1 2.629991e-03 -2.629991e-03 1 711.9896 551.5895)" class="st14 st7 st15">10</text>
	<text id="texas_numbers" transform="matrix(1 2.629991e-03 -2.629991e-03 1 690.8695 572.2295)" class="st14 st7 st15">10</text>
	<text id="douglas_numbers" transform="matrix(1 2.629991e-03 -2.629991e-03 1 664.2697 597.7096)" class="st14 st7 st15">10</text>
	<text id="wright_numbers" transform="matrix(1 2.629991e-03 -2.629991e-03 1 667.5488 575.9553)" class="st14 st7 st15">10</text>
	<text id="phelps_numbers" transform="matrix(1 2.629991e-03 -2.629991e-03 1 697.8297 534.3096)" class="st14 st7 st15">10</text>
	<text id="pulaski_numbers" transform="matrix(1 2.629991e-03 -2.629991e-03 1 678.3895 537.1895)" class="st14 st7 st15">10</text>
	<text id="laclede_numbers" transform="matrix(1 2.629991e-03 -2.629991e-03 1 660.6295 551.5895)" class="st14 st7 st15">10</text>
	<text id="maries_numbers" transform="matrix(1 2.629991e-03 -2.629991e-03 1 692.3095 515.5895)" class="st14 st7 st15">10</text>
	<text id="miller_numbers" transform="matrix(1 2.629991e-03 -2.629991e-03 1 666.8695 515.1095)" class="st14 st7 st15">10</text>
	<text id="gasconade_numbers" transform="matrix(1 2.629991e-03 -2.629991e-03 1 711.5095 498.7895)" class="st14 st7 st15">10</text>
	<text id="franklin_numbers" transform="matrix(1 2.629991e-03 -2.629991e-03 1 735.2697 499.2696)" class="st14 st7 st15">10</text>
	<text id="jefferson_numbers" transform="matrix(1 2.629991e-03 -2.629991e-03 1 758.0695 506.4696)" class="st14 st7 st15">10</text>
	<text id="st._louis_city_numbers" transform="matrix(1 2.629991e-03 -2.629991e-03 1 774.1096 480.83)" class="st14 st7 st15">10</text>
	<text id="st._louis_numbers" transform="matrix(1 2.629991e-03 -2.629991e-03 1 763.3495 482.4696)" class="st14 st7 st15">10</text>
	<text id="st._charles_numbers" transform="matrix(1 2.629991e-03 -2.629991e-03 1 751.0696 472.8296)" class="st14 st7 st15">10</text>
	<text id="warren_numbers" transform="matrix(1 2.629991e-03 -2.629991e-03 1 728.7896 475.7495)" class="st14 st7 st15">10</text>
	<text id="osage_numbers" transform="matrix(1 2.629991e-03 -2.629991e-03 1 694.9496 496.8697)" class="st14 st7 st15">10</text>
	<text id="cole_numbers" transform="matrix(1 2.629991e-03 -2.629991e-03 1 672.6295 494.9496)" class="st14 st7 st15">10</text>
	<text id="moniteau_numbers" transform="matrix(1 2.629991e-03 -2.629991e-03 1 657.7896 490.6695)" class="st14 st7 st15">10</text>
	<text id="webster_numbers" transform="matrix(1 2.629991e-03 -2.629991e-03 1 645.7495 575.5895)" class="st14 st7 st15">10</text>
	<text id="dallas_numbers" transform="matrix(1 2.629991e-03 -2.629991e-03 1 638.5496 551.1095)" class="st14 st7 st15">10</text>
	<text id="camden_numbers" transform="matrix(1 2.629991e-03 -2.629991e-03 1 649.1096 525.6695)" class="st14 st7 st15">10</text>
	<text id="morgan_numbers" transform="matrix(1 2.629991e-03 -2.629991e-03 1 643.3495 503.1095)" class="st14 st7 st15">10</text>
	<text id="benton_numbers" transform="matrix(1 2.629991e-03 -2.629991e-03 1 623.1895 509.8296)" class="st14 st7 st15">10</text>
	<text id="hickory_numbers" transform="matrix(1 2.629991e-03 -2.629991e-03 1 622.9496 532.8696)" class="st14 st7 st15">10</text>
	<text id="polk_numbers" transform="matrix(1 2.629991e-03 -2.629991e-03 1 618.8695 553.9895)" class="st14 st7 st15">10</text>
	<text id="greene_numbers" transform="matrix(1 2.629991e-03 -2.629991e-03 1 622.7095 577.5095)" class="st14 st7 st15">10</text>
	<text id="christian_numbers" transform="matrix(1 2.629991e-03 -2.629991e-03 1 631.3495 596.2295)" class="st14 st7 st15">10</text>
	<text id="ozark_numbers" transform="matrix(1 2.629991e-03 -2.629991e-03 1 669.0297 612.9896)" class="st14 st7 st15">10</text>
	<text id="taney_numbers" transform="matrix(1 2.629991e-03 -2.629991e-03 1 638.7896 613.5096)" class="st14 st7 st15">10</text>
	<text id="stone_numbers" transform="matrix(1 2.629991e-03 -2.629991e-03 1 618.3895 608.7095)" class="st14 st7 st15">10</text>
	<text id="barry_numbers" transform="matrix(1 2.629991e-03 -2.629991e-03 1 599.6696 610.6295)" class="st14 st7 st15">10</text>
	<text id="lawrence_numbers" transform="matrix(1 2.629991e-03 -2.629991e-03 1 598.2296 587.1095)" class="st14 st7 st15">10</text>
	<text id="dade_numbers" transform="matrix(1 2.629991e-03 -2.629991e-03 1 596.5496 567.4296)" class="st14 st7 st15">10</text>
	<text id="cedar_numbers" transform="matrix(1 2.629991e-03 -2.629991e-03 1 595.5897 549.1896)" class="st14 st7 st15">10</text>
	<text id="mcdonald_numbers" transform="matrix(1 2.629991e-03 -2.629991e-03 1 572.3095 618.3094)" class="st14 st7 st15">10</text>
	<text id="newton_numbers" transform="matrix(1 2.629991e-03 -2.629991e-03 1 571.5496 601.5096)" class="st14 st7 st15">10</text>
	<text id="jasper_numbers" transform="matrix(1 2.629991e-03 -2.629991e-03 1 571.8295 580.8695)" class="st14 st7 st15">10</text>
	<text id="barton_numbers" transform="matrix(1 2.629991e-03 -2.629991e-03 1 571.5897 562.1496)" class="st14 st7 st15">10</text>
	<text id="st._clair_numbers" transform="matrix(1 2.629991e-03 -2.629991e-03 1 599.1895 526.6295)" class="st14 st7 st15">10</text>
	<text id="vermon_numbers" transform="matrix(1 2.629991e-03 -2.629991e-03 1 570.8695 539.5895)" class="st14 st7 st15">10</text>
	<text id="henry_numbers" transform="matrix(1 2.629991e-03 -2.629991e-03 1 597.2695 505.5096)" class="st14 st7 st15">10</text>
	<text id="bates_numbers" transform="matrix(1 2.629991e-03 -2.629991e-03 1 570.8695 513.6695)" class="st14 st7 st15">10</text>
	<text id="johnson_numbers" transform="matrix(1 2.629991e-03 -2.629991e-03 1 596.7896 481.5096)" class="st14 st7 st15">10</text>
	<text id="cass_numbers" transform="matrix(1 2.629991e-03 -2.629991e-03 1 570.6296 488.2296)" class="st14 st7 st15">10</text>
	<text id="pettis_numbers" transform="matrix(1 2.629991e-03 -2.629991e-03 1 623.1903 480.5495)" class="st14 st7 st15">10</text>
	<text id="cooper_numbers" transform="matrix(1 2.629991e-03 -2.629991e-03 1 645.5103 474.7895)" class="st14 st7 st15">10</text>
	<text id="boone_numbers" transform="matrix(1 2.629991e-03 -2.629991e-03 1 669.3344 462.7745)" class="st14 st7 st15">10</text>
	<text id="callaway_numbers" transform="matrix(1 2.629991e-03 -2.629991e-03 1 690.8704 469.7495)" class="st14 st7 st15">10</text>
	<text id="montgomery_numbers" transform="matrix(1 2.629991e-03 -2.629991e-03 1 712.5344 464.5744)" class="st14 st7 st15">10</text>
	<text id="lincoln_numbers" transform="matrix(1 2.629991e-03 -2.629991e-03 1 736.6544 455.9344)" class="st14 st7 st15">10</text>
	<text id="pike_numbers" transform="matrix(1 2.629991e-03 -2.629991e-03 1 723.7903 436.6296)" class="st14 st7 st15">10</text>
	<text id="audrain_numbers" transform="matrix(1 2.629991e-03 -2.629991e-03 1 692.7343 449.0944)" class="st14 st7 st15">10</text>
	<text id="howard_numbers" transform="matrix(1 2.629991e-03 -2.629991e-03 1 652.0543 454.8544)" class="st14 st7 st15">10</text>
	<text id="saline_numbers" transform="matrix(1 2.629991e-03 -2.629991e-03 1 626.4943 455.9344)" class="st14 st7 st15">10</text>
	<text id="lafayette_numbers" transform="matrix(1 2.629991e-03 -2.629991e-03 1 596.9744 460.6144)" class="st14 st7 st15">10</text>
	<text id="jackson_numbers" transform="matrix(1 2.629991e-03 -2.629991e-03 1 570.6943 467.0944)" class="st14 st7 st15">10</text>
	<text id="randolph_numbers" transform="matrix(1 2.629991e-03 -2.629991e-03 1 659.9744 434.3344)" class="st14 st7 st15">10</text>
	<text id="monroe_numbers" transform="matrix(1 2.629991e-03 -2.629991e-03 1 685.8943 429.2945)" class="st14 st7 st15">10</text>
	<text id="ralls_numbers" transform="matrix(1 2.629991e-03 -2.629991e-03 1 707.4302 427.2695)" class="st14 st7 st15">10</text>
	<text id="marion_numbers" transform="matrix(1 2.629991e-03 -2.629991e-03 1 701.7343 410.5744)" class="st14 st7 st15">10</text>
	<text id="shelby_numbers" transform="matrix(1 2.629991e-03 -2.629991e-03 1 680.8543 410.5744)" class="st14 st7 st15">10</text>
	<text id="macon_numbers" transform="matrix(1 2.629991e-03 -2.629991e-03 1 655.2943 408.4145)" class="st14 st7 st15">10</text>
	<text id="lewis_numbers" transform="matrix(1 2.629991e-03 -2.629991e-03 1 694.3344 391.4944)" class="st14 st7 st15">10</text>
	<text id="knox_numbers" transform="matrix(1 2.629991e-03 -2.629991e-03 1 675.0302 389.8294)" class="st14 st7 st15">10</text>
	<text id="clark_numbers" transform="matrix(1 2.629991e-03 -2.629991e-03 1 693.0944 372.0545)" class="st14 st7 st15">10</text>
	<text id="scotland_numbers" transform="matrix(1 2.629991e-03 -2.629991e-03 1 674.1943 370.6144)" class="st14 st7 st15">10</text>
	<text id="adair_numbers" transform="matrix(1 2.629991e-03 -2.629991e-03 1 652.5944 386.9744)" class="st14 st7 st15">10</text>
	<text id="schuyler_numbers" transform="matrix(1 2.629991e-03 -2.629991e-03 1 656.1943 369.1745)" class="st14 st7 st15">10</text>
	<text id="chariton_numbers" transform="matrix(1 2.629991e-03 -2.629991e-03 1 638.5543 431.0944)" class="st14 st7 st15">10</text>
	<text id="linn_numbers" transform="matrix(1 2.629991e-03 -2.629991e-03 1 628.8344 408.7745)" class="st14 st7 st15">10</text>
	<text id="sullivan_numbers" transform="matrix(1 2.629991e-03 -2.629991e-03 1 628.8344 385.7344)" class="st14 st7 st15">10</text>
	<text id="putnam_numbers" transform="matrix(1 2.629991e-03 -2.629991e-03 1 632.4343 369.5345)" class="st14 st7 st15">10</text>
	<text id="carroll_numbers" transform="matrix(1 2.629991e-03 -2.629991e-03 1 610.4744 436.4944)" class="st14 st7 st15">10</text>
	<text id="livingston_numbers" transform="matrix(1 2.629991e-03 -2.629991e-03 1 607.2343 414.8945)" class="st14 st7 st15">10</text>
	<text id="grundy_numbers" transform="matrix(1 2.629991e-03 -2.629991e-03 1 605.7943 393.2945)" class="st14 st7 st15">10</text>
	<text id="mercer_numbers" transform="matrix(1 2.629991e-03 -2.629991e-03 1 605.4343 374.2144)" class="st14 st7 st15">10</text>
	<text id="ray_numbers" transform="matrix(1 2.629991e-03 -2.629991e-03 1 586.7144 442.9744)" class="st14 st7 st15">10</text>
	<text id="caldwell_numbers" transform="matrix(1 2.629991e-03 -2.629991e-03 1 586.3543 422.8144)" class="st14 st7 st15">10</text>
	<text id="clay_numbers" transform="matrix(1 2.629991e-03 -2.629991e-03 1 566.5543 445.8544)" class="st14 st7 st15">10</text>
	<text id="clinton_numbers" transform="matrix(1 2.629991e-03 -2.629991e-03 1 565.8344 427.8544)" class="st14 st7 st15">10</text>
	<text id="dekalb_numbers" transform="matrix(1 2.629991e-03 -2.629991e-03 1 566.5543 408.7745)" class="st14 st7 st15">10</text>
	<text id="daviess_numbers" transform="matrix(1 2.629991e-03 -2.629991e-03 1 585.6343 404.0944)" class="st14 st7 st15">10</text>
	<text id="harrison_numbers" transform="matrix(1 2.629991e-03 -2.629991e-03 1 585.6343 378.8945)" class="st14 st7 st15">10</text>
	<text id="platte_numbers" transform="matrix(1 2.629991e-03 -2.629991e-03 1 549.2744 440.4544)" class="st14 st7 st15">10</text>
	<text id="buchanan_numbers" transform="matrix(1 2.629991e-03 -2.629991e-03 1 548.1943 424.2545)" class="st14 st7 st15">10</text>
	<text id="andrew_numbers" transform="matrix(1 2.629991e-03 -2.629991e-03 1 547.1143 402.2945)" class="st14 st7 st15">10</text>
	<text id="holt_numbers" transform="matrix(1 2.629991e-03 -2.629991e-03 1 527.6743 395.0944)" class="st14 st7 st15">10</text>
	<text id="gentry_numbers" transform="matrix(1 2.629991e-03 -2.629991e-03 1 564.7543 388.9744)" class="st14 st7 st15">10</text>
	<text id="worth_numbers" transform="matrix(1 2.629991e-03 -2.629991e-03 1 565.8344 371.6944)" class="st14 st7 st15">10</text>
	<text id="nodaway_numbers" transform="matrix(1 2.629991e-03 -2.629991e-03 1 542.7943 378.1745)" class="st14 st7 st15">10</text>
	<text id="atchison_numbers" transform="matrix(1 2.629991e-03 -2.629991e-03 1 517.5944 374.9344)" class="st14 st7 st15">10</text>
</g>
<g id="TYPES_1_">
	<g>
		<circle id="_x34__1_" class="st13" cx="888.9" cy="-48.3" r="25.2"/>
		
			<text id="_x34__numbers_1_" transform="matrix(1 2.629928e-03 -2.629928e-03 1 865.2497 -42.7633)" class="st14 st7" style="font-size:15px;">10,000</text>
	</g>
	<g>
		<circle id="_x33__1_" class="st13" cx="829.2" cy="-47.3" r="18.2"/>
		
			<text id="_x33__numbers_1_" transform="matrix(1 2.629936e-03 -2.629936e-03 1 812.4871 -42.784)" class="st14 st7" style="font-size:13px;">1,000</text>
	</g>
	<g>
		<circle id="_x32__1_" class="st13" cx="779.7" cy="-46.4" r="12.4"/>
		
			<text id="_x32__numbers_1_" transform="matrix(1 2.629918e-03 -2.629918e-03 1 768.9215 -41.9533)" class="st14 st7" style="font-size:12px;">100</text>
	</g>
	<g>
		<circle id="_x31__2_" class="st13" cx="702.5" cy="-45.4" r="7.2"/>
		
			<text id="_x31__numbers_2_" transform="matrix(1 2.629955e-03 -2.629955e-03 1 700.3745 -42.5503)" class="st14 st7" style="font-size:7.3546px;">1</text>
	</g>
	<g>
		<circle id="_x31__1_" class="st13" cx="738.5" cy="-45.4" r="9.6"/>
		
			<rect x="733.7" y="-49.5" transform="matrix(2.629838e-03 -1 1 2.629838e-03 781.5059 693.6378)" class="st16" width="9.6" height="9"/>
		
			<text id="_x31__numbers_1_" transform="matrix(1 2.629909e-03 -2.629909e-03 1 733.0862 -42.6706)" class="st14 st7" style="font-size:9px;">10</text>
	</g>
</g>
	<image style="overflow:visible;" width="160" height="104" id="LOGO" xlink:href="../maps/SR Logos/Missouri.png"  transform="matrix(0.4392 0 0 0.4392 838.7281 5.0807)">
	</image>
</svg>
