<?xml version="1.0" encoding="utf-8"?>
<!-- Generator: Adobe Illustrator 23.0.5, SVG Export Plug-In . SVG Version: 6.00 Build 0)  -->
<svg version="1.1" id="Layer_1" xmlns="http://www.w3.org/2000/svg" xmlns:xlink="http://www.w3.org/1999/xlink" x="0px" y="0px"
	 viewBox="0 0 916.5 740.2" style="enable-background:new 0 0 916.5 740.2;" xml:space="preserve">
<style type="text/css">
	.st0{fill:#F5FBFE;}
	.st1{fill:#DDEEFA;}
	.st2{fill:#255078;}
	.st3{font-family:'Georgia';}
	.st4{font-size:18px;}
	.st5{font-size:16px;}
	.st6{fill:#4C4B4D;}
	.st7{font-family:'ArialMT';}
	.st8{font-size:14px;}
	.st9{fill:#AED9F4;}
	.st10{fill:#CD483B;}
	.st11{fill:#FFFFFF;}
	.st12{font-size:6.0432px;}
	.st13{fill:none;}
	.st14{fill:#4C4B4C;}
	.st15{fill:#DB3029;}
	.st16{font-size:36px;}
</style>
<g id="Texts">
	<polygon id="blue_bg" class="st0" points="-0.1,604.9 -0.1,641.9 -0.1,651.5 -0.1,740.3 173.4,740.3 173.4,651.5 914.9,651.5 
		914.9,604.9 	"/>
	<path id="line_bg" class="st1" d="M916.4,1.1H-0.1v130v474.4v2v42.9v2v42.9v2v42.9l0,0h579.8l0,0h333.2l0,0h3.5V1.1z M912.9,57.9
		v547.6H578.3l-0.6-0.3v0.3H443.5l-0.6-0.3v0.3H2.9V57.9H912.9z M912.9,607.5v42.9H579.7v-42.9H912.9z M445,650.5v-42.9h132.8v42.9
		H445z M577.7,652.5v42.9H445v-42.9H577.7z M310.2,650.5v-42.9H443v42.9H310.2z M443,652.5v42.9H310.2v-42.9H443z M175.4,650.5
		v-42.9h132.8v42.9H175.4z M308.2,652.5v42.9H175.4v-42.9H308.2z M173.4,607.5v42.9H2.9v-42.9H173.4z M173.4,652.5v42.9H2.9v-42.9
		H173.4z M2.9,697.4h170.5v39.9H2.9V697.4z M175.4,697.4h132.8v39.9H175.4V697.4z M310.2,697.4H443v39.9H310.2V697.4z M445,697.4
		h132.8v39.9H445V697.4z M579.7,652.5h333.2v84.8H579.7V652.5z"/>
	<text id="title" transform="matrix(1 0 0 1 32.8483 35.8371)" class="st2 st3 st4">COVID-19 in Mississippi on</text>
	<text id="date" transform="matrix(1 0 0 1 260.4693 35.8371)" class="st2 st3 st4">April 27th, 2020</text>
	<text id="state_confirmed" transform="matrix(1 0 0 1 35.1513 100.6853)" class="st2 st3 st5">State Confirmed Cases By County</text>
	<g>
		<text transform="matrix(1 0 0 1 34.8895 160.9643)" class="st6 st7 st8">Alcorn  10</text>
		<text transform="matrix(1 0 0 1 34.8895 181.8567)" class="st6 st7 st8">Amite  10</text>
		<text transform="matrix(1 0 0 1 34.8895 202.7491)" class="st6 st7 st8">Attala  10</text>
		<text transform="matrix(1 0 0 1 34.868 223.6418)" class="st6 st7 st8">Benton  10</text>
		<text transform="matrix(1 0 0 1 34.868 244.5344)" class="st6 st7 st8">Bolivar  10</text>
		<text transform="matrix(1 0 0 1 34.868 265.4266)" class="st6 st7 st8">Calhoun  10</text>
		<text transform="matrix(1 0 0 1 34.868 286.3191)" class="st6 st7 st8">Carroll  10</text>
		<text transform="matrix(1 0 0 1 34.8898 140.0714)" class="st6 st7 st8">Adams  10</text>
		<text transform="matrix(1 0 0 1 34.868 328.1045)" class="st6 st7 st8">Choctaw  10</text>
		<text transform="matrix(1 0 0 1 34.8683 348.9967)" class="st6 st7 st8">Claiborne  10</text>
		<text transform="matrix(1 0 0 1 34.8683 307.2114)" class="st6 st7 st8">Chickasaw  10</text>
		<text transform="matrix(1 0 0 1 34.8681 369.8893)" class="st6 st7 st8">Clarke  10</text>
		<text transform="matrix(1 0 0 1 34.8681 390.7816)" class="st6 st7 st8">Clay  10</text>
		<text transform="matrix(1 0 0 1 34.8683 411.6744)" class="st6 st7 st8">Coahoma  10</text>
		<text transform="matrix(1 0 0 1 34.8681 432.5667)" class="st6 st7 st8">Copiah  10</text>
		<text transform="matrix(1 0 0 1 34.8683 453.4595)" class="st6 st7 st8">Covington  10</text>
		<text transform="matrix(1 0 0 1 34.8681 495.2445)" class="st6 st7 st8">Forrest  10</text>
		<text transform="matrix(1 0 0 1 34.8681 516.137)" class="st6 st7 st8">Franklin  10</text>
		<text transform="matrix(1 0 0 1 34.8681 537.0295)" class="st6 st7 st8">George  10</text>
		<text transform="matrix(1 0 0 1 34.8681 557.9216)" class="st6 st7 st8">Greene  10</text>
		<text transform="matrix(1 0 0 1 34.8682 474.3522)" class="st6 st7 st8">DeSoto  10</text>
		<text transform="matrix(1 0 0 1 162.3086 140.0713)" class="st6 st7 st8">Grenada  10</text>
		<text transform="matrix(1 0 0 1 162.3087 160.9641)" class="st6 st7 st8">Hancock  10</text>
		<text transform="matrix(1 0 0 1 162.3087 181.8564)" class="st6 st7 st8">Harrison  10</text>
		<text transform="matrix(1 0 0 1 162.3087 223.6415)" class="st6 st7 st8">Holmes  10</text>
		<text transform="matrix(1 0 0 1 162.3087 244.5339)" class="st6 st7 st8">Humphreys  10</text>
		<text transform="matrix(1 0 0 1 162.3087 265.4263)" class="st6 st7 st8">Issaquena  10</text>
		<text transform="matrix(1 0 0 1 162.3087 286.3188)" class="st6 st7 st8">Itawamba  10</text>
		<text transform="matrix(1 0 0 1 162.3087 307.2114)" class="st6 st7 st8">Jackson  10</text>
		<text transform="matrix(1 0 0 1 162.3085 202.7486)" class="st6 st7 st8">Hinds  10</text>
		<text transform="matrix(1 0 0 1 162.3085 328.1039)" class="st6 st7 st8">Jasper  10</text>
		<text transform="matrix(1 0 0 1 162.3086 348.9966)" class="st6 st7 st8">Jefferson  10</text>
		<text transform="matrix(1 0 0 1 162.3084 369.8887)" class="st6 st7 st8">Jefferson Davis  10</text>
		<text transform="matrix(1 0 0 1 162.3088 390.7816)" class="st6 st7 st8">Jones  10</text>
		<text transform="matrix(1 0 0 1 162.3085 411.6738)" class="st6 st7 st8">Kemper  10</text>
		<text transform="matrix(1 0 0 1 162.3085 432.5668)" class="st6 st7 st8">Lafayette  10</text>
		<text transform="matrix(1 0 0 1 162.3085 453.4595)" class="st6 st7 st8">Lamar  10</text>
		<text transform="matrix(1 0 0 1 162.3085 474.3525)" class="st6 st7 st8">Lauderdale  10</text>
		<text transform="matrix(1 0 0 1 162.3085 495.2441)" class="st6 st7 st8">Lawrence  10</text>
		<text transform="matrix(1 0 0 1 162.3085 516.1362)" class="st6 st7 st8">Leake  10</text>
		<text transform="matrix(1 0 0 1 162.3087 557.9214)" class="st6 st7 st8">Leflore  10</text>
		<text transform="matrix(1 0 0 1 162.3085 537.0288)" class="st6 st7 st8">Lee  10</text>
		<text transform="matrix(1 0 0 1 295.3227 140.0715)" class="st6 st7 st8">Lincoln  10</text>
		<text transform="matrix(1 0 0 1 295.3228 160.9642)" class="st6 st7 st8">Lowndes  10</text>
		<text transform="matrix(1 0 0 1 295.3229 181.8564)" class="st6 st7 st8">Madison  10</text>
		<text transform="matrix(1 0 0 1 295.3229 202.7488)" class="st6 st7 st8">Marion  10</text>
		<text transform="matrix(1 0 0 1 295.3229 244.534)" class="st6 st7 st8">Monroe  10</text>
		<text transform="matrix(1 0 0 1 295.3228 265.4265)" class="st6 st7 st8">Montgomery  10</text>
		<text transform="matrix(1 0 0 1 295.3228 286.3187)" class="st6 st7 st8">Neshoba  10</text>
		<text transform="matrix(1 0 0 1 295.3228 307.2112)" class="st6 st7 st8">Newton  10</text>
		<text transform="matrix(1 0 0 1 295.3227 328.1041)" class="st6 st7 st8">Noxubee  10</text>
		<text transform="matrix(1 0 0 1 295.3228 223.6416)" class="st6 st7 st8">Marshall  10</text>
		<text transform="matrix(1 0 0 1 295.3229 348.9963)" class="st6 st7 st8">Oktibbeha  10</text>
		<text transform="matrix(1 0 0 1 295.3229 369.8889)" class="st6 st7 st8">Panola  10</text>
		<text transform="matrix(1 0 0 1 295.3227 390.7813)" class="st6 st7 st8">Pearl River  10</text>
		<text transform="matrix(1 0 0 1 295.3225 411.6741)" class="st6 st7 st8">Perry  10</text>
		<text transform="matrix(1 0 0 1 295.3225 432.5662)" class="st6 st7 st8">Pike  10</text>
		<text transform="matrix(1 0 0 1 295.3225 453.4586)" class="st6 st7 st8">Pontotoc  10</text>
		<text transform="matrix(1 0 0 1 295.3225 474.3516)" class="st6 st7 st8">Prentiss  10</text>
		<text transform="matrix(1 0 0 1 295.3225 495.2435)" class="st6 st7 st8">Quitman  10</text>
		<text transform="matrix(1 0 0 1 295.3226 516.1365)" class="st6 st7 st8">Rankin  10</text>
		<text transform="matrix(1 0 0 1 295.3226 537.0291)" class="st6 st7 st8">Scott  10</text>
		<text transform="matrix(1 0 0 1 295.3229 557.9208)" class="st6 st7 st8">Sharkey  10</text>
		<text transform="matrix(1 0 0 1 424.9629 160.9641)" class="st6 st7 st8">Smith  10</text>
		<text transform="matrix(1 0 0 1 424.963 181.8566)" class="st6 st7 st8">Stone  10</text>
		<text transform="matrix(1 0 0 1 424.9628 140.0714)" class="st6 st7 st8">Simpson  10</text>
		<text transform="matrix(1 0 0 1 424.9628 202.749)" class="st6 st7 st8">Sunflower  10</text>
		<text transform="matrix(1 0 0 1 424.9628 223.6412)" class="st6 st7 st8">Tallahatchie  10</text>
		<text transform="matrix(1 0 0 1 424.963 244.5339)" class="st6 st7 st8">Tate  10</text>
		<text transform="matrix(1 0 0 1 424.9627 265.4263)" class="st6 st7 st8">Tippah  10</text>
		<text transform="matrix(1 0 0 1 424.9627 286.3188)" class="st6 st7 st8">Tishomingo  10</text>
		<text transform="matrix(1 0 0 1 424.963 307.2114)" class="st6 st7 st8">Tunica  10</text>
		<text transform="matrix(1 0 0 1 424.9628 328.1039)" class="st6 st7 st8">Union  10</text>
		<text transform="matrix(1 0 0 1 424.9628 348.9963)" class="st6 st7 st8">Walthall  10</text>
		<text transform="matrix(1 0 0 1 424.9628 369.8887)" class="st6 st7 st8">Warren  10</text>
		<text transform="matrix(1 0 0 1 424.9628 390.7813)" class="st6 st7 st8">Washington  10</text>
		<text transform="matrix(1 0 0 1 424.9628 411.6741)" class="st6 st7 st8">Wayne  10</text>
		<text transform="matrix(1 0 0 1 424.9628 432.566)" class="st6 st7 st8">Webster  10</text>
		<text transform="matrix(1 0 0 1 424.9628 453.4585)" class="st6 st7 st8">Wilkinson  10</text>
		<text transform="matrix(1 0 0 1 424.9628 495.244)" class="st6 st7 st8">Yalobusha  10</text>
		<text transform="matrix(1 0 0 1 424.963 516.1356)" class="st6 st7 st8">Yazoo  10</text>
		<text transform="matrix(1 0 0 1 424.9631 474.3513)" class="st6 st7 st8">Winston  10</text>
	</g>
</g>
<g id="Counties">
	<path id="tunica" class="st9" d="M652.8,158.5L652.8,158.5c0.6,0.9,1.4,1.9,2,3.6c0.2,0.4,0.3,0.8,0.4,1.2l6.8,4.3h5.4v-7.8h7.8
		v-3.7v-1.8V141l-4.9-11.2l-2-2.1c-2,1.5-4.5,2.6-6.8,3.3l-0.1,0.4c-1.5,5.8-2.9,11.3-5.9,17.2c-0.6,1.1-1.3,2.2-2,3.1
		c-0.4,0.5-0.7,1-1,1.4c-0.4,1.4-0.4,3.3,0.1,4.6L652.8,158.5z"/>
	<path id="yalobusha" class="st9" d="M732,206.3l-0.6-13.9l-5.9-2.1H711l-8.4,1.8v23.6h14.1v2.7h6.2v-2.7H735c0-3.2-0.1-6.4-0.1-9.3
		H732V206.3z"/>
	<polygon id="lafayette" class="st9" points="752.7,179.6 750.7,179.6 750.5,157.9 736.9,157.9 736.9,154.9 718.7,154.9 
		716.8,154.9 718.6,186.8 726.3,186.8 733.3,189.3 752.7,186.4 	"/>
	<polygon id="sunflower" class="st9" points="649.7,279.4 654.8,277.3 654.8,271.4 662.3,271.4 661.8,252.5 658.9,249.9 
		660.1,213.6 647.5,213.6 650.1,248.6 638.9,248.6 638.9,248.9 641.6,248.9 646.8,279.5 	"/>
	<polygon id="carroll" class="st9" points="726.9,272.7 726.9,265.2 716.8,263.6 711.9,250.1 714,241.2 691.7,241.2 691.7,261.7 
		686.7,265.8 686.7,271.5 691.9,271.5 720.2,279.2 	"/>
	<path id="grenada" class="st9" d="M726.3,219.1v2.7h-13.1v-2.7h-7.5v1v1.8v4.8h-19v1.8v1.2h2.6v8.2H716c7.8-1,16.2-2.3,19-3
		c0.1-2.4,0.1-8.7,0-15.7h-8.7V219.1z"/>
	<polygon id="panola" class="st9" points="715.2,186.7 713.3,154.9 698.4,154.9 698.4,157.9 678.7,157.9 678.7,167 681.8,167 
		681.8,176.8 687.3,181.9 686.9,191.8 710.8,186.7 	"/>
	<polygon id="tate" class="st9" points="715.3,142.8 711.8,133.6 701.3,136.4 678.7,142.1 678.7,154.4 695,154.4 695,151.5 
		713.1,151.5 715.3,151.5 	"/>
	<polygon id="tallahatchie" class="st9" points="702.2,221.8 699.1,221.8 699.1,192.7 686.6,195.4 686.3,201.6 663.8,205.1 
		663.1,226.6 683.3,226.6 683.3,223.1 702.2,223.1 	"/>
	<polygon id="quitman" class="st9" points="663.8,201.7 683,198.6 683.8,183.4 678.2,178.3 678.2,170.6 675.2,170.6 675.2,163.3 
		670.9,163.3 670.9,171.1 663.3,171.1 663.5,175.9 664.9,175.9 664.9,187.9 660.1,187.9 660.1,193.1 663.5,193.1 	"/>
	<polygon id="lauderdale" class="st9" points="827.7,336 794,338.8 796.4,367.9 827.3,365.6 	"/>
	<polygon id="clarke" class="st9" points="827.3,369.1 796.6,371.4 799.7,408.4 799.7,408.4 810.6,403.2 827.1,398.3 827,396.9 
		827,396.6 	"/>
	<polygon id="simpson" class="st9" points="719.2,418.4 736.7,416.6 730.9,397.3 728.3,393.2 711.3,395.5 693,396.1 694,398.3 
		699.7,421.2 699.7,422.6 	"/>
	<polygon id="amite" class="st9" points="668,478.9 664.9,464.5 625.6,470.8 630.5,490.8 668,489.5 	"/>
	<polygon id="forrest" class="st9" points="770.3,496.1 782.4,496.1 779.9,448.9 770.5,450 756,450.4 758.4,456.3 766.7,456.3 
		769.8,488.7 770,488.7 770,490.4 	"/>
	<path id="coahoma" class="st9" d="M660.1,210.2l0.2-6.4l-0.2-7.1h-3.6v-12.3h4.9v-5h-1.3l-0.4-9l-4.5-2.9c-0.4,2.3-1.6,4.5-3,5.9
		l-0.5,0.5l-0.7,0.4c-2.6,1.2-5.6,1.2-7.5,1.2c-0.7,0-1.5-0.1-2.2-0.1c-0.3,0-0.7-0.1-1.1-0.1c0,0.1,0,0.2,0,0.3v0.7L640,177
		c-1.5,4.4-4.4,7.9-6.7,10.9c-0.5,0.7-1.1,1.3-1.6,1.9c-1,1.7-2.4,3-3.6,4.1c-0.5,0.4-1.2,1.1-1.7,1.7c0.2,0.2,0.4,0.3,0.5,0.4
		c0.8,0.7,1.9,1.6,2.6,2.9c0.2,0.2,0.2,0.4,0.4,0.6h6.8l1.2-2.9l9.5,1.9v11.6L660.1,210.2L660.1,210.2z"/>
	<path id="bolivar" class="st9" d="M646.4,245l-2.4-33v-10.6l-4-0.8l-1,2.4h-7.9c0.3,2.6-0.7,4.6-1.3,5.8l-0.4,0.7
		c-3.1,4.1-6,6.6-9.4,8.4l-0.6,0.3c-0.9,0.3-2.3,0.8-2.9,1.1c-0.2,0.8-0.2,2.5-0.2,3.1v0.7l-0.3,0.7c-0.3,0.8-0.4,1.8-0.6,2.8
		s-0.4,2.3-0.8,3.6c-0.2,2.2-1.1,4.1-1.9,5.6c-0.4,1.1-0.9,2-1.2,2.7c-0.2,0.4-0.4,0.8-0.5,1.1c0.2,0.4,0.4,0.9,0.7,1.3
		c0.7,1.1,1.4,2.4,1.9,4.1l0.3,0.7v0.7c0,3.3-2.2,5.1-3.5,6.3c-0.1,0.1-0.3,0.2-0.4,0.3c0.2,0.1,0.4,0.2,0.5,0.3l0.7,0.4l0.5,0.5
		c1.1,1.1,1.8,2,2.3,3.1l25.3-2l-0.5-3.2h-3.2v-7.3h10.8L646.4,245L646.4,245z"/>
	<polygon id="leflore" class="st9" points="683.3,233 683.3,230 663,230 662.4,248.4 665.3,251 665.9,271.4 671.2,271.4 
		671.2,274.4 676.5,274.4 676.5,274.7 678.8,275.1 678.8,271.4 683.3,271.5 683.3,264.2 688.2,260 688.2,241.2 685.9,241.2 
		685.9,233 	"/>
	<path id="marshall_1_" class="st9" d="M750.5,154.4V150h-5.4l-6-39.4c-8.8,0.6-17,1.1-24.5,1.7v18.9l4.2,10.9v9.4h21.6v2.9
		C740.4,154.4,750.5,154.4,750.5,154.4z"/>
	<path id="desoto" class="st9" d="M671.9,116c0.5,1.8,1.2,4.3,0.2,7.2c-0.3,0.8-0.7,1.5-1.2,2.1l2.6,2.8l4.6,10.5l22.5-5.6l10.6-2.9
		v-17.6c-19.5,1.3-33.4,2.2-39.5,2.6C671.7,115.5,671.8,115.8,671.9,116z"/>
	<path id="madison" class="st9" d="M699.1,359.7v-5.8l6-6l4.8-3.9l7.2-5.6h2.9h2h0.9l0.2-22.3l-15.4-0.1l-0.1,0.4
		c-0.2,1-1.2,3-3.5,7.1c-0.6,1.1-1.4,2.6-1.5,2.8c-0.3,0.7-1.9,3.2-4.9,7.1l-0.3,0.4l-10.1,4.9l-11.6,7.1l-5.5,2.3v3.8h16.4v7.9
		L699.1,359.7L699.1,359.7z"/>
	<path id="webster" class="st9" d="M749.1,230l-10.7,2.6c-0.1,3.4-0.2,3.7-0.2,3.9c-0.1,0.3-0.2,0.5-0.4,0.7l2.6,18.3l11.2-2.8
		l9.4-4.6h3.2l4-2.7l5.9-2.3v-5h-2.3V230H749.1L749.1,230z"/>
	<path id="issaquena" class="st9" d="M633.7,356.8l4.9-4.8l4.1-3.2l1.1-4.6l2.6-2.2v-2.5h-6.7v2h-14.1l-1.9-22.2h4.1l0.7-12.1
		l-10.2,2.4h-4.5l-0.5-0.6h-1.6c1,11.8,3.7,23.6,8,35.2c0.3,0.6,0.4,1.3,0.5,2l10.9,0.9v11.1L633.7,356.8z"/>
	<polygon id="leake" class="st9" points="754.6,307.9 726.8,310.2 726.6,340.9 754.3,338.6 754.3,338.4 757.8,338.2 	"/>
	<path id="yazoo" class="st9" d="M650,339.7v2.6l1.4,1.5l3.8,1.2l1.9,3.5l3.7,1.7l1.1,1.7l3.9-5.6l8.8-3.8l11.3-7l9.4-4.7
		c1.9-2.5,4-5.3,4.2-5.9c0.1-0.4,0.5-1.1,1.8-3.4c1.1-1.9,2.9-5.3,3.2-6.1l0.1-0.3c-10-3.5-24.8-8.6-27-9.1
		c-1.2,0.2-2.5-0.6-3.4-1.5h-2.3v3.5h-3.3v6.4h-17.3l-5.7,8.2l4.1,2.5l1.2,4.8l1.1,2.7v6.8L650,339.7L650,339.7z"/>
	<path id="benton_1_" class="st9" d="M742.6,110.5l5.5,36.1h3.6l5.6-3.3h4v-17.4l4.7-5.6v-4.1l-2-3v-4.3
		C756.5,109.4,749.3,109.9,742.6,110.5z"/>
	<polygon id="humphreys_1_" class="st9" points="651.5,311.3 665.1,311.3 665.1,304.8 668.3,304.8 668.3,302.2 664.2,300.7 
		665.7,293.5 672.9,293.5 672.9,277.9 667.7,277.9 667.7,274.9 666,274.9 664.1,274.9 658.3,274.9 658.3,279.6 650.2,282.8 
		647.1,283.1 646.8,298.9 649.2,301.6 649.2,306.3 	"/>
	<path id="washington_1_" class="st9" d="M630,303.5l13.5-5.2l0.3-16.9l-3.9-22.6l-25.2,2c-0.2,2.9-2,4.8-3.2,5.8
		c-0.2,0.1-0.3,0.3-0.4,0.4c0.4,1,0.8,1.9,1.2,2.7c0.5,1.1,1.1,2.2,1.4,3.4c0.6,1.9,1.1,2.7,2,3.6l0.4,0.4l0.3,0.5
		c0.4,0.6,0.7,1.1,1.1,1.7c1.9,3,3.5,5.6,3.5,10.9v15.2L630,303.5z"/>
	<path id="montgomery" class="st9" d="M742.3,271.5l3.4-12.6l1.1-1.4l-9.4,2.4l-3.1-21.4c-2.8,0.6-7.9,1.4-16.9,2.6l-2,8.9l3.9,10.6
		l11,1.9v9.4L742.3,271.5z"/>
	<path id="holmes" class="st9" d="M675.4,301.3l0.5,0.5c0.4,0.4,1,0.9,1.2,1c1.1,0.1,5.1,1.1,27.9,9.1c0.4-1.5,0.6-2.5,1-3.1
		s3.3-5.6,4.9-8.7l5.5-12.8l1.9-5.2l-27.3-7.3h-8.8v4.3l-5.8-1.1v18.7h-7.9l-0.4,1.8l3.5,1.4v1.5L675.4,301.3L675.4,301.3
		L675.4,301.3z"/>
	<polygon id="franklin" class="st9" points="656.8,441.4 650.4,441.2 619.6,443.2 619.6,464.3 622.6,466.6 623.9,467.5 659.9,461.9 
			"/>
	<polygon id="copiah" class="st9" points="690.1,424.8 696.2,423.4 696.2,421.5 690.7,399.3 689.3,396.3 670.1,396.9 652.1,398.3 
		652.1,430.2 	"/>
	<path id="wilkinson" class="st9" d="M621.8,470.4l-6.1-4.6l-6.4-0.3l-8.8,3.4l-10.9,6.9c-0.6,5.3-1.1,10.7-1.4,16.4l38.6-1.3
		L621.8,470.4z"/>
	<polygon id="lawrence" class="st9" points="707.8,458.5 713.3,453.9 714.1,453.9 709.6,424.1 692.3,427.8 695.1,459.3 	"/>
	<path id="tishomingo" class="st9" d="M830.5,112.2l-4.9-7.8c-2.6,0.2-5.2,0.4-7.9,0.6v7.5h3.3v20l4.6,19h4.3L830.5,112.2z"/>
	<polygon id="itawamba" class="st9" points="830,154.9 824.3,154.9 822.9,154.9 816.8,154.9 814.2,157.9 806.3,157.9 810,189.4 
		829.5,188.9 	"/>
	<polygon id="walthall" class="st9" points="695.3,462.7 695.3,462.7 693.6,462.9 692.3,462.9 694.8,488.6 723.9,487.7 725.1,487.2 
		724.8,487 720.1,487 708.6,475.6 706.9,462.1 	"/>
	<polygon id="lamar" class="st9" points="766.4,488.7 763.5,459.8 756.1,459.8 752.3,450.5 740.2,451 743.1,488.7 	"/>
	<polygon id="smith" class="st9" points="759,374.2 730.2,376.3 733,392.6 732.1,392.6 734.2,396.2 740.2,416.2 747.4,415.5 
		764,411.4 	"/>
	<polygon id="covington" class="st9" points="755.7,417 747.9,418.8 729.9,420.8 729.9,423.1 732.2,423.1 732.2,431.6 737,437 
		745.7,437 745.7,447.3 758.3,446.9 	"/>
	<polygon id="marion" class="st9" points="736.6,490.3 738.5,488.7 739.6,488.7 736.7,451 726.6,451.4 726.6,457.3 714.7,457.3 
		710.3,461 711.8,474 721.5,483.4 726.6,483.4 728.4,486 733.2,484.1 	"/>
	<polygon id="jefferson" class="st9" points="742.3,440.5 735.4,440.5 728.8,432.9 728.8,426.5 726.5,426.5 726.5,421.1 
		719.8,421.8 713,423.3 717.6,453.9 723.1,453.9 723.1,448 742.3,447.4 	"/>
	<polygon id="monroe" class="st9" points="829.5,192.4 802.8,193 795.6,195.3 795.6,204.9 799.9,204.9 799.9,220.1 799.9,221.2 
		799.9,229.5 821.1,229.5 828.9,224 829.1,223.9 	"/>
	<polygon id="noxubee" class="st9" points="828.6,267.4 822.2,267.4 819.8,269.9 795.8,270.5 799.6,300.6 828.2,298.2 	"/>
	<polygon id="lowndes" class="st9" points="829,228.1 822.1,232.9 819.8,232.9 819.8,235.6 816.8,235.6 815.3,237.6 805.5,245.4 
		807.8,266.7 818.3,266.5 820.6,263.9 828.6,263.9 	"/>
	<polygon id="kemper" class="st9" points="828.1,301.7 791.2,304.8 793.7,335.4 827.8,332.6 	"/>
	<polygon id="jones" class="st9" points="770.3,446.5 796.3,443.6 793.2,412.4 766.2,414.5 759.1,416.2 761.9,446.8 	"/>
	<polygon id="jasper" class="st9" points="793.2,371.6 762.5,373.9 767.4,410.9 796.3,408.7 	"/>
	<polygon id="george" class="st9" points="836.9,486.2 809.5,489.2 808,492.4 806.5,495.7 806.9,508.9 840.1,506 	"/>
	<path id="jackson" class="st9" d="M841.6,545.5v-30l-1-6.1l-30.4,2.6l2.6,29.5l-1.8,0.2c4.5,1.4,8.8,4.6,13.6,4.9
		c6.2,0.4,13.9,2.2,19.9,0c0.8-0.3,1.3-0.7,1.8-1.1L841.6,545.5L841.6,545.5z"/>
	<path id="pearl_river" class="st9" d="M753,526.3l3.4-3.2l8.5-2.6l3.3-0.5l-1.1-20.4h-0.5v-7.4h-26.7l-1.4,1.2l1.7,3l-6.1,18.4
		c-2.3,6.9-0.1,8.9,4.9,13.5c2.2,2,4.7,4.4,6.9,7.5c1.1,1.6,1.9,2.9,2.6,4.1l4.9-4.9L753,526.3L753,526.3z"/>
	<polygon id="stone" class="st9" points="803.4,514.6 803.4,510.8 803.1,497.1 796.5,497.1 796.5,499.7 770.5,499.7 771.6,519.5 	
		"/>
	<polygon id="pike" class="st9" points="671.4,489.3 691.3,488.7 688.8,463.1 668.4,464.2 671.4,478.8 	"/>
	<polygon id="lincoln_1_" class="st9" points="688.8,428.5 652.1,433.8 652.1,437.8 659.8,438.1 663.3,461.4 667.6,460.7 
		667.6,460.8 691.6,459.4 	"/>
	<polygon id="perry" class="st9" points="804.9,490.8 806.6,487.2 803.9,446.2 783.3,448.5 786,496.1 793,496.1 793,493.7 
		803.7,493.7 	"/>
	<polygon id="wayne" class="st9" points="827.4,401.8 811.7,406.5 800.7,411.8 796.7,412.1 799.7,443.2 831.3,439.7 	"/>
	<polygon id="greene" class="st9" points="836.3,482.8 834.6,472.1 831.7,443.1 807.3,445.8 810,485.6 	"/>
	<polygon id="oktibbeha" class="st9" points="801.9,243.5 774.8,246.4 772.9,247.2 775.1,269.4 782.3,269.4 782.3,267.4 
		804.2,266.8 	"/>
	<polygon id="scott_1_" class="st9" points="754.7,342.1 724.7,344.6 729.7,372.9 758.6,370.8 	"/>
	<polygon id="clay_1_" class="st9" points="805.1,241.2 813,235.1 814.5,232.9 796.4,232.9 796.4,222.6 777,230 775.3,230 
		775.3,234.5 777.6,234.5 777.6,242.6 805,239.7 	"/>
	<polygon id="newton" class="st9" points="792.9,368.2 790.5,339.1 761.7,341.5 761.7,341.6 759.8,341.6 758.2,341.7 762,370.5 	"/>
	<polygon id="neshoba" class="st9" points="790.3,335.6 787.7,305.1 758.2,307.6 761.3,338 	"/>
	<polygon id="chickasaw" class="st9" points="792.1,195.7 786,195.7 786,194.7 764.7,198.1 764.7,205.1 767.6,205.1 767.6,220.9 
		762,225.1 762,226.6 776.4,226.6 796.4,218.8 796.4,208.3 792.1,208.3 	"/>
	<polygon id="winston" class="st9" points="792.3,270.6 785.8,270.8 785.8,272.9 771.2,272.9 764.3,279.2 764.3,291.1 756.4,291.1 
		757.7,304.1 796.2,301 	"/>
	<path id="alcorn" class="st9" d="M814.3,105.3c-10.5,0.8-20.7,1.5-30.6,2.3l7.4,18.4l-0.1,1.9l26.5-3.2V116h-3.3L814.3,105.3
		L814.3,105.3z"/>
	<polygon id="lee" class="st9" points="806.5,189.4 802.8,157.9 797.9,157.9 796.4,154.9 792.2,154.9 786,168.1 789.1,192.3 
		793.6,192.3 802.5,189.4 	"/>
	<polygon id="prentiss" class="st9" points="815.3,151.5 822,151.5 817.5,132.7 817.5,128.2 791,131.4 790.5,145.4 792.4,151.5 
		798.4,151.5 800,154.4 812.7,154.4 	"/>
	<polygon id="rankin" class="st9" points="711.1,391.9 729,389.6 720.8,341.8 718.4,341.8 712.1,346.7 707.5,350.5 702.6,355.3 
		702.6,363.2 700.3,363.2 696.4,368.9 692,374.7 690.2,384.2 690.2,391.6 691.1,392.6 	"/>
	<path id="hinds" class="st9" d="M652.1,388v6.9l17.8-1.3l16.9-0.6v-9.2l1.9-10.3l4.9-6.4l2.5-3.7h-12.8v-7.9H667v-4.9l-3.8,5.6
		l-11.3,16.1l-1.5,7.5c-0.1,1.4-0.5,4.9-1.3,6.6c0.4,0.4,1.2,0.9,1.9,1.2L652.1,388z"/>
	<path id="claiborne" class="st9" d="M648.7,390.1c-0.8-0.4-1.6-1.1-2.2-1.8l-7.1,3.5l-4.6,3.6H629l-2.2-1.7
		c-1.1,6.5-5.8,13.3-10.9,19.7l20,1.1v1.4l8.1,1.8v3.2h4.8L648.7,390.1L648.7,390.1z"/>
	<path id="jefferson_1_" class="st9" d="M648.7,437.8v-5.6v-1.5v-6.3h-8.2v-3.9l-8.1-1.8v-1l-19.2-1.1c-0.6,0.7-1.2,1.4-1.8,2.2
		c-3,3.6-5.9,7.1-7.7,9.9l14.7,10.9L648.7,437.8z"/>
	<path id="adams" class="st9" d="M608.8,462.1l7.3,0.3v-19.9l-14.2-10.6c-6.5,12.3-9.8,25.1-11.6,39.4l9-5.6L608.8,462.1z"/>
	<path id="attala" class="st9" d="M754.3,304.5l-1.5-14.6l-10.1-15l-13.3,0.3l-7.1,6.9l-2.5,6.7l-5.6,13c-0.5,1-4.5,8.1-5.1,9.1
		c-0.2,0.3-0.3,1-0.4,1.7H721V307h4.1L754.3,304.5z"/>
	<path id="warren" class="st9" d="M658.4,353l-4-1.8l-1.8-3.4l-3.3-1.1l-1.3-1.5l-1.1,1l-1.1,4.7l-4.9,3.8l-5.2,4.9l-5,3.2
		c-0.6-1.1-1.6-2.6-2.8-4.7c0-2.6,0-5,0-7.6c-2.4-0.2-4.7-0.4-7.1-0.5c0,0.2,0,0.3,0.1,0.4c0,0.3,0,0.4,0,0.4c0,0.3,0.2,1.3,0.7,4.3
		c1,0.8,1.9,1.4,2.5,1.8c0.8,0.4,1.1,0.6,1.9,1.1c0.9,0.6,1.5,1.2,1.9,1.6c1.1,1.5,1.9,2.6,2.5,3.4l-0.1,0.1c0.5,1.4,0.9,3,0.8,4.9
		c-0.2,4-2.4,6.6-4.2,8.8c-0.9,1.1-1.9,2.2-1.9,2.9c-0.3,1.4,0,2.1,0.6,3.6c0.6,1.4,1.3,3.4,1.6,6l3.2,2.4h3.4l4.1-3.2l8.6-4.1
		c0.4-1,0.7-3.3,1-5.6l1.6-8.4l10.9-15.5L658.4,353z"/>
	<polygon id="humphreys" class="st9" points="648.2,336.3 648.7,336.3 648.7,333.6 647.7,331.3 646.7,327.7 642,324.9 642,322 
		648.4,312.9 645.7,307 645.7,302.9 644.6,301.6 632.1,306.4 631.2,323 627.5,323 628.8,338.3 636.3,338.3 636.3,336.3 646.5,336.3 
			"/>
	<polygon id="union" class="st9" points="787.5,147.4 762.9,146.7 758.2,146.7 753.8,149.3 754,165 783.7,165 789.3,153.1 	"/>
	<polygon id="choctaw" class="st9" points="760.8,277.6 769.9,269.4 771.6,269.4 769.5,248.6 765.3,251.6 761.8,251.6 752.6,256 
		750.7,256.5 750.7,258.3 748.9,260.5 745.5,272.9 755.4,287.6 760.8,287.6 	"/>
	<path id="tippah" class="st9" d="M767.3,108.7v3.5l2,3v6.4l-4.7,5.6v16.1l22.4,0.5l0.5-17.3l-7.5-18.8
		C775.8,108.1,771.5,108.4,767.3,108.7z"/>
	<path id="calhoun" class="st9" d="M764.2,208.7h-2.9v-11.3l-7.4-7.7l-19,2.8l0.4,10.2h3v1.7c0.1,12.4,0.2,19.9,0.1,24.5l10.4-2.5
		h9.5v-3.3l5.7-4.1L764.2,208.7L764.2,208.7z"/>
	<polygon id="pontotoc" class="st9" points="782.6,168.4 754,168.4 754.1,176.1 756.2,176.1 756.2,187.1 763.6,194.8 785.5,191.3 	
		"/>
	<path id="hancock" class="st9" d="M769.5,545.8l-1.2-22.2l-2.8,0.4l-7.3,2.2l-1.7,1.6v8.7l-7.1,7.1c0.2,1,0.4,1.9,0.5,2.9
		s0.3,2,0.5,3.4c0.4,2.4,1.3,4.1,2.5,6.2c0.5,1.1,1.1,2,1.6,3.2l4.1,5.1c0.8-0.9,1.5-1.9,2.1-2.6c2.8-3.7,5.5-8.8,8.8-12.4
		L769.5,545.8L769.5,545.8z"/>
	<path id="harrison" class="st9" d="M807,514.4v3.2l-35.2,5.5l1.3,24.5h-0.3v1.1c5.8,3.1,16-2.5,21.2-4.1c3.5-1,7.8-3.1,11.4-3.6
		c1.3-0.2,2.6-0.1,4,0.2L807,514.4z"/>
</g>
<g id="balls">
	<circle id="jackson_circle" class="st10" cx="826.7" cy="525.8" r="7.2"/>
	<circle id="harrison_circle" class="st10" cx="789.5" cy="533" r="7.2"/>
	<circle id="hancock_circle" class="st10" cx="761.6" cy="543.5" r="7.2"/>
	<circle id="pearl_river_circle" class="st10" cx="751.8" cy="509.9" r="7.2"/>
	<circle id="stone_circle" class="st10" cx="787.1" cy="508.5" r="7.2"/>
	<circle id="george_circle" class="st10" cx="823.6" cy="497.9" r="7.2"/>
	<circle id="greene_circle" class="st10" cx="820.2" cy="465.3" r="7.2"/>
	<circle id="perry_circle" class="st10" cx="794.8" cy="469.1" r="7.2"/>
	<circle id="forrest_circle" class="st10" cx="773.9" cy="470.6" r="7.2"/>
	<circle id="lamar_circle" class="st10" cx="753" cy="472.5" r="7.2"/>
	<circle id="wayne_circle" class="st10" cx="815.4" cy="423.1" r="7.2"/>
	<circle id="jones_circle" class="st10" cx="778.2" cy="429.3" r="7.2"/>
	<circle id="covington_circle" class="st10" cx="747.2" cy="430.7" r="7.2"/>
	<circle id="marion_circle" class="st10" cx="726.1" cy="468.7" r="7.2"/>
	<circle id="jefferson_circle_1_" class="st10" cx="723.2" cy="437.9" r="7.2"/>
	<circle id="walthall_circle" class="st10" cx="702.1" cy="475.9" r="7.2"/>
	<circle id="lawrence_circle" class="st10" cx="702.6" cy="441.8" r="7.2"/>
	<circle id="pike_circle" class="st10" cx="681" cy="477.3" r="7.2"/>
	<circle id="lincoln_circle" class="st10" cx="676.2" cy="444.2" r="7.2"/>
	<circle id="amite_circle" class="st10" cx="646.9" cy="479.7" r="7.2"/>
	<circle id="franklin_circle" class="st10" cx="639.7" cy="453.8" r="7.2"/>
	<circle id="wilkinson_circle" class="st10" cx="608" cy="479.2" r="7.2"/>
	<circle id="adams_circle" class="st10" cx="604.7" cy="452.3" r="7.2"/>
	<circle id="jefferson_circle" class="st10" cx="627.2" cy="428.3" r="7.2"/>
	<circle id="claiborne_circle" class="st10" cx="635.9" cy="404.8" r="7.2"/>
	<circle id="copiah_circle" class="st10" cx="671.4" cy="411.5" r="7.2"/>
	<circle id="simpson_circle" class="st10" cx="715.1" cy="407.2" r="7.2"/>
	<circle id="smith_circle" class="st10" cx="747.7" cy="392.3" r="7.2"/>
	<circle id="jasper_circle" class="st10" cx="779.9" cy="390.9" r="7.2"/>
	<circle id="clarke_circle" class="st10" cx="811.6" cy="386.1" r="7.2"/>
	<circle id="lauderdale_circle" class="st10" cx="811.1" cy="352.5" r="7.2"/>
	<circle id="newton_circle" class="st10" cx="776" cy="353.9" r="7.2"/>
	<circle id="scott_circle" class="st10" cx="741.5" cy="355.9" r="7.2"/>
	<circle id="rankin_circle" class="st10" cx="710.3" cy="372.7" r="7.2"/>
	<circle id="hinds_circle" class="st10" cx="670.4" cy="373.1" r="7.2"/>
	<circle id="leake_circle" class="st10" cx="742" cy="324.2" r="7.2"/>
	<circle id="neshoba_circle_1_" class="st10" cx="774.1" cy="321.8" r="7.2"/>
	<circle id="kemper_circle" class="st10" cx="810.1" cy="318.9" r="7.2"/>
	<circle id="noxubee_circle" class="st10" cx="812.3" cy="284.3" r="7.2"/>
	<circle id="winston_circle" class="st10" cx="777.7" cy="288.7" r="7.2"/>
	<circle id="madison_circle" class="st10" cx="701.4" cy="339.8" r="7.2"/>
	<circle id="yazoo_circle" class="st10" cx="673.3" cy="323.9" r="7.2"/>
	<circle id="warren_circle" class="st10" cx="638.8" cy="370" r="7.2"/>
	<circle id="issaquena_circle" class="st10" cx="623.6" cy="335.5" r="7.2"/>
	<circle id="humphreys_circle_1_" class="st10" cx="638" cy="321.8" r="7.2"/>
	<circle id="holmes_circle" class="st10" cx="695.6" cy="290.1" r="7.2"/>
	<circle id="attala_circle" class="st10" cx="734.5" cy="293.7" r="7.2"/>
	<circle id="choctaw_circle" class="st10" cx="759" cy="266.3" r="7.2"/>
	<circle id="oktibbeha_circle" class="st10" cx="790" cy="254.8" r="7.2"/>
	<circle id="carroll_circle" class="st10" cx="703.6" cy="261.3" r="7.2"/>
	<circle id="montgomery_circle" class="st10" cx="727.3" cy="253.4" r="7.2"/>
	<circle id="webster_circle" class="st10" cx="754.6" cy="239.5" r="7.2"/>
	<circle id="clay_circle" class="st10" cx="791.2" cy="233.2" r="7.2"/>
	<circle id="lowndes_circle" class="st10" cx="819" cy="251.5" r="7.2"/>
	<circle id="monroe_circle" class="st10" cx="814.7" cy="210.2" r="7.2"/>
	<circle id="neshoba_circle" class="st10" cx="780.1" cy="210.9" r="7.2"/>
	<circle id="calhoun_circle" class="st10" cx="749.9" cy="208.8" r="7.2"/>
	<circle id="pontotoc_circle" class="st10" cx="770.5" cy="180.9" r="7.2"/>
	<circle id="humphreys_circle" class="st10" cx="657.7" cy="292.7" r="7.2"/>
	<circle id="washington_circle" class="st10" cx="630.4" cy="281.2" r="7.2"/>
	<circle id="leflore_circle" class="st10" cx="676.4" cy="248.6" r="7.2"/>
	<circle id="grenada_circle" class="st10" cx="712.4" cy="229.6" r="7.2"/>
	<circle id="yalobusha_circle" class="st10" cx="716.3" cy="203.9" r="7.2"/>
	<circle id="tallahatchie_circle" class="st10" cx="682.6" cy="212.3" r="7.2"/>
	<circle id="sunflower_circle" class="st10" cx="654.4" cy="248.3" r="7.2"/>
	<circle id="bolivar_circle" class="st10" cx="629.9" cy="228.9" r="7.2"/>
	<circle id="coahoma_circle" class="st10" cx="647.6" cy="187.6" r="7.2"/>
	<circle id="quitman_circle" class="st10" cx="673.1" cy="185.7" r="7.2"/>
	<circle id="tunica_circle" class="st10" cx="664.4" cy="148.3" r="7.2"/>
	<circle id="panola_circle" class="st10" cx="698.5" cy="173.2" r="7.2"/>
	<circle id="tate_circle" class="st10" cx="697.6" cy="144.4" r="7.2"/>
	<circle id="lafayette_circle" class="st10" cx="733.1" cy="172" r="7.2"/>
	<circle id="union_circle" class="st10" cx="769.6" cy="156.1" r="7.2"/>
	<circle id="lee_circle" class="st10" cx="795" cy="175.1" r="7.2"/>
	<circle id="itawamba_circle" class="st10" cx="820" cy="171.3" r="7.2"/>
	<circle id="tishomingo_circle" class="st10" cx="825.7" cy="125" r="7.2"/>
	<circle id="prentiss_circle" class="st10" cx="804.6" cy="141.1" r="7.2"/>
	<circle id="alcorn_circle" class="st10" cx="801.2" cy="116.1" r="7.2"/>
	<circle id="tippah_circle" class="st10" cx="776.8" cy="129.1" r="7.2"/>
	<circle id="benton_circle" class="st10" cx="753.7" cy="123.3" r="7.2"/>
	<circle id="marshall_circle" class="st10" cx="729.2" cy="131.5" r="7.2"/>
	<circle id="desoto_circle" class="st10" cx="690.4" cy="123.8" r="7.2"/>
	<text id="jackson_numbers" transform="matrix(1 2.629964e-03 -2.629964e-03 1 823.4796 527.4194)" class="st11 st7 st12">10</text>
	<text id="harrison_numbers" transform="matrix(1 2.629964e-03 -2.629964e-03 1 786.2795 534.619)" class="st11 st7 st12">10</text>
	<text id="hancock_numbers" transform="matrix(1 2.629964e-03 -2.629964e-03 1 758.4395 545.179)" class="st11 st7 st12">10</text>
	<text id="pearl_river_numbers" transform="matrix(1 2.629964e-03 -2.629964e-03 1 748.5996 511.5794)" class="st11 st7 st12">10</text>
	<text id="stone_numbers" transform="matrix(1 2.629964e-03 -2.629964e-03 1 783.8795 510.1391)" class="st11 st7 st12">10</text>
	<text id="george_numbers" transform="matrix(1 2.629964e-03 -2.629964e-03 1 820.3595 499.5791)" class="st11 st7 st12">10</text>
	<text id="greene_numbers" transform="matrix(1 2.629964e-03 -2.629964e-03 1 816.9995 466.9391)" class="st11 st7 st12">10</text>
	<text id="perry_numbers" transform="matrix(1 2.629964e-03 -2.629964e-03 1 791.5594 470.7791)" class="st11 st7 st12">10</text>
	<text id="forrest_numbers" transform="matrix(1 2.629964e-03 -2.629964e-03 1 770.6796 472.2195)" class="st11 st7 st12">10</text>
	<text id="lamar_numbers" transform="matrix(1 2.629964e-03 -2.629964e-03 1 749.7995 474.1391)" class="st11 st7 st12">10</text>
	<text id="wayne_numbers" transform="matrix(1 2.629964e-03 -2.629964e-03 1 812.1995 424.6991)" class="st11 st7 st12">10</text>
	<text id="jones_numbers" transform="matrix(1 2.629964e-03 -2.629964e-03 1 774.9996 430.9394)" class="st11 st7 st12">10</text>
	<text id="covington_numbers" transform="matrix(1 2.629964e-03 -2.629964e-03 1 744.0395 432.3791)" class="st11 st7 st12">10</text>
	<text id="marion_numbers" transform="matrix(1 2.629964e-03 -2.629964e-03 1 722.9195 470.299)" class="st11 st7 st12">10</text>
	<text id="jefferson_numbers_1_" transform="matrix(1 2.629964e-03 -2.629964e-03 1 720.0395 439.5791)" class="st11 st7 st12">10</text>
	<text id="walthall_numbers" transform="matrix(1 2.629964e-03 -2.629964e-03 1 698.9195 477.4991)" class="st11 st7 st12">10</text>
	<text id="lawrence_numbers" transform="matrix(1 2.629964e-03 -2.629964e-03 1 699.3995 443.419)" class="st11 st7 st12">10</text>
	<text id="pike_numbers" transform="matrix(1 2.629964e-03 -2.629964e-03 1 677.7995 478.9391)" class="st11 st7 st12">10</text>
	<text id="lincoln_numbers" transform="matrix(1 2.629964e-03 -2.629964e-03 1 672.9995 445.8191)" class="st11 st7 st12">10</text>
	<text id="amite_numbers" transform="matrix(1 2.629964e-03 -2.629964e-03 1 643.7195 481.3391)" class="st11 st7 st12">10</text>
	<text id="franklin_numbers" transform="matrix(1 2.629964e-03 -2.629964e-03 1 636.5195 455.419)" class="st11 st7 st12">10</text>
	<text id="wilkinson_numbers" transform="matrix(1 2.629964e-03 -2.629964e-03 1 604.8395 480.859)" class="st11 st7 st12">10</text>
	<text id="adams_numbers" transform="matrix(1 2.629964e-03 -2.629964e-03 1 601.4795 453.979)" class="st11 st7 st12">10</text>
	<text id="jefferson_numbers" transform="matrix(1 2.629964e-03 -2.629964e-03 1 624.0395 429.979)" class="st11 st7 st12">10</text>
	<text id="claiborne_numbers" transform="matrix(1 2.629964e-03 -2.629964e-03 1 632.6795 406.4591)" class="st11 st7 st12">10</text>
	<text id="copiah_numbers" transform="matrix(1 2.629964e-03 -2.629964e-03 1 668.1995 413.179)" class="st11 st7 st12">10</text>
	<text id="simpson_numbers" transform="matrix(1 2.629964e-03 -2.629964e-03 1 711.8795 408.859)" class="st11 st7 st12">10</text>
	<text id="smith_numbers" transform="matrix(1 2.629964e-03 -2.629964e-03 1 744.5195 393.979)" class="st11 st7 st12">10</text>
	<text id="jasper_numbers" transform="matrix(1 2.629964e-03 -2.629964e-03 1 776.6795 392.539)" class="st11 st7 st12">10</text>
	<text id="clarke_numbers" transform="matrix(1 2.629964e-03 -2.629964e-03 1 808.3595 387.7391)" class="st11 st7 st12">10</text>
	<text id="lauderdale_numbers" transform="matrix(1 2.629964e-03 -2.629964e-03 1 807.8795 354.1391)" class="st11 st7 st12">10</text>
	<text id="newton_numbers" transform="matrix(1 2.629964e-03 -2.629964e-03 1 772.8395 355.5791)" class="st11 st7 st12">10</text>
	<text id="scott_numbers" transform="matrix(1 2.629964e-03 -2.629964e-03 1 738.2795 357.4991)" class="st11 st7 st12">10</text>
	<text id="rankin_numbers" transform="matrix(1 2.629964e-03 -2.629964e-03 1 707.0795 374.2991)" class="st11 st7 st12">10</text>
	<text id="hinds_numbers" transform="matrix(1 2.629964e-03 -2.629964e-03 1 667.2395 374.7791)" class="st11 st7 st12">10</text>
	<text id="leake_numbers" transform="matrix(1 2.629964e-03 -2.629964e-03 1 738.7595 325.8191)" class="st11 st7 st12">10</text>
	<text id="neshoba_numbers_1_" transform="matrix(1 2.629964e-03 -2.629964e-03 1 770.9195 323.4191)" class="st11 st7 st12">10</text>
	<text id="kemper_numbers" transform="matrix(1 2.629964e-03 -2.629964e-03 1 806.9195 320.5391)" class="st11 st7 st12">10</text>
	<text id="noxubee_numbers" transform="matrix(1 2.629964e-03 -2.629964e-03 1 809.0802 285.979)" class="st11 st7 st12">10</text>
	<text id="winston_numbers" transform="matrix(1 2.629964e-03 -2.629964e-03 1 774.5195 290.2991)" class="st11 st7 st12">10</text>
	<text id="madison_numbers" transform="matrix(1 2.629964e-03 -2.629964e-03 1 698.2002 341.419)" class="st11 st7 st12">10</text>
	<text id="yazoo_numbers" transform="matrix(1 2.629964e-03 -2.629964e-03 1 670.1195 325.5791)" class="st11 st7 st12">10</text>
	<text id="warren_numbers" transform="matrix(1 2.629964e-03 -2.629964e-03 1 635.5595 371.6591)" class="st11 st7 st12">10</text>
	<text id="issaquena_numbers" transform="matrix(1 2.629964e-03 -2.629964e-03 1 620.4395 337.0991)" class="st11 st7 st12">10</text>
	<text id="humphreys_numbers_1_" transform="matrix(1 2.629964e-03 -2.629964e-03 1 634.8395 323.4191)" class="st11 st7 st12">10</text>
	<text id="holmes_numbers" transform="matrix(1 2.629964e-03 -2.629964e-03 1 692.4395 291.7391)" class="st11 st7 st12">10</text>
	<text id="attala_numbers" transform="matrix(1 2.629964e-03 -2.629964e-03 1 731.3195 295.3391)" class="st11 st7 st12">10</text>
	<text id="choctaw_numbers" transform="matrix(1 2.629964e-03 -2.629964e-03 1 755.7996 267.9791)" class="st11 st7 st12">10</text>
	<text id="oktibbeha_numbers" transform="matrix(1 2.629964e-03 -2.629964e-03 1 786.7595 256.4591)" class="st11 st7 st12">10</text>
	<text id="carroll_numbers" transform="matrix(1 2.629964e-03 -2.629964e-03 1 700.3596 262.9391)" class="st11 st7 st12">10</text>
	<text id="montgomery_numbers" transform="matrix(1 2.629964e-03 -2.629964e-03 1 724.1195 255.0191)" class="st11 st7 st12">10</text>
	<text id="webster_numbers" transform="matrix(1 2.629964e-03 -2.629964e-03 1 751.3995 241.1391)" class="st11 st7 st12">10</text>
	<text id="clay_numbers" transform="matrix(1 2.629964e-03 -2.629964e-03 1 787.9595 234.8591)" class="st11 st7 st12">10</text>
	<text id="lowndes_numbers" transform="matrix(1 2.629964e-03 -2.629964e-03 1 815.7996 253.0991)" class="st11 st7 st12">10</text>
	<text id="monroe_numbers" transform="matrix(1 2.629964e-03 -2.629964e-03 1 811.4796 211.819)" class="st11 st7 st12">10</text>
	<text id="neshoba_numbers" transform="matrix(1 2.629964e-03 -2.629964e-03 1 776.92 212.5391)" class="st11 st7 st12">10</text>
	<text id="calhoun_numbers" transform="matrix(1 2.629964e-03 -2.629964e-03 1 746.6795 210.4191)" class="st11 st7 st12">10</text>
	<text id="pontotoc_numbers" transform="matrix(1 2.629964e-03 -2.629964e-03 1 767.3195 182.5391)" class="st11 st7 st12">10</text>
	<text id="humphreys_numbers" transform="matrix(1 2.629964e-03 -2.629964e-03 1 654.5195 294.3791)" class="st11 st7 st12">10</text>
	<text id="washington_numbers" transform="matrix(1 2.629964e-03 -2.629964e-03 1 627.1595 282.8591)" class="st11 st7 st12">10</text>
	<text id="leflore_numbers" transform="matrix(1 2.629964e-03 -2.629964e-03 1 673.2395 250.2191)" class="st11 st7 st12">10</text>
	<text id="grenada_numbers" transform="matrix(1 2.629964e-03 -2.629964e-03 1 709.24 231.259)" class="st11 st7 st12">10</text>
	<text id="yalobusha_numbers" transform="matrix(1 2.629964e-03 -2.629964e-03 1 713.0795 205.5791)" class="st11 st7 st12">10</text>
	<text id="tallahatchie_numbers" transform="matrix(1 2.629964e-03 -2.629964e-03 1 679.4 213.939)" class="st11 st7 st12">10</text>
	<text id="sunflower_numbers" transform="matrix(1 2.629964e-03 -2.629964e-03 1 651.16 249.9791)" class="st11 st7 st12">10</text>
	<text id="bolivar_numbers" transform="matrix(1 2.629964e-03 -2.629964e-03 1 626.6795 230.5391)" class="st11 st7 st12">10</text>
	<text id="coahoma_numbers" transform="matrix(1 2.629964e-03 -2.629964e-03 1 644.4395 189.259)" class="st11 st7 st12">10</text>
	<text id="quitman_numbers" transform="matrix(1 2.629964e-03 -2.629964e-03 1 669.8795 187.3391)" class="st11 st7 st12">10</text>
	<text id="tunica_numbers" transform="matrix(1 2.629964e-03 -2.629964e-03 1 661.2395 149.8991)" class="st11 st7 st12">10</text>
	<text id="panola_numbers" transform="matrix(1 2.629964e-03 -2.629964e-03 1 695.3195 174.859)" class="st11 st7 st12">10</text>
	<text id="tate_numbers" transform="matrix(1 2.629964e-03 -2.629964e-03 1 694.3596 146.0591)" class="st11 st7 st12">10</text>
	<text id="lafayette_numbers" transform="matrix(1 2.629964e-03 -2.629964e-03 1 729.88 173.6591)" class="st11 st7 st12">10</text>
	<text id="union_numbers" transform="matrix(1 2.629964e-03 -2.629964e-03 1 766.36 157.7791)" class="st11 st7 st12">10</text>
	<text id="lee_numbers" transform="matrix(1 2.629964e-03 -2.629964e-03 1 791.7996 176.7791)" class="st11 st7 st12">10</text>
	<text id="itawamba_numbers" transform="matrix(1 2.629964e-03 -2.629964e-03 1 816.7595 172.9391)" class="st11 st7 st12">10</text>
	<text id="tishomingo_numbers" transform="matrix(1 2.629964e-03 -2.629964e-03 1 822.52 126.619)" class="st11 st7 st12">10</text>
	<text id="prentiss_numbers" transform="matrix(1 2.629964e-03 -2.629964e-03 1 801.3995 142.6991)" class="st11 st7 st12">10</text>
	<text id="alcorn_numbers" transform="matrix(1 2.629964e-03 -2.629964e-03 1 798.0396 117.739)" class="st11 st7 st12">10</text>
	<text id="tippah_numbers" transform="matrix(1 2.629964e-03 -2.629964e-03 1 773.5595 130.6991)" class="st11 st7 st12">10</text>
	<text id="benton_numbers" transform="matrix(1 2.629964e-03 -2.629964e-03 1 750.5195 124.9391)" class="st11 st7 st12">10</text>
	<text id="marshall_numbers" transform="matrix(1 2.629964e-03 -2.629964e-03 1 726.0396 133.099)" class="st11 st7 st12">10</text>
	<text id="desoto_numbers" transform="matrix(1 2.629964e-03 -2.629964e-03 1 687.1595 125.4191)" class="st11 st7 st12">10</text>
</g>
<g id="TYPES_1_">
	<g>
		<circle id="_x34__1_" class="st10" cx="887.4" cy="-53.7" r="25.5"/>
		
			<text id="_x34__numbers_1_" transform="matrix(1 2.629919e-03 -2.629919e-03 1 863.4701 -48.1031)" class="st11 st7" style="font-size:15.2024px;">10,000</text>
	</g>
	<g>
		<circle id="_x33__1_" class="st10" cx="826.9" cy="-52.7" r="18.4"/>
		
			<text id="_x33__numbers_1_" transform="matrix(1 2.629927e-03 -2.629927e-03 1 809.9961 -48.1241)" class="st11 st7" style="font-size:13.1754px;">1,000</text>
	</g>
	<g>
		<circle id="_x32__1_" class="st10" cx="776.7" cy="-51.8" r="12.6"/>
		
			<text id="_x32__numbers_1_" transform="matrix(1 2.629909e-03 -2.629909e-03 1 765.8423 -47.2818)" class="st11 st7" style="font-size:12.1619px;">100</text>
	</g>
	<g>
		<circle id="_x31__2_" class="st10" cx="698.5" cy="-50.8" r="7.3"/>
		
			<text id="_x31__numbers_2_" transform="matrix(1 2.629946e-03 -2.629946e-03 1 696.3705 -47.8871)" class="st11 st7" style="font-size:7.4538px;">1</text>
	</g>
	<g>
		<circle id="_x31__1_" class="st10" cx="735" cy="-50.8" r="9.7"/>
		
			<rect x="730.1" y="-54.9" transform="matrix(2.629838e-03 -1 1 2.629838e-03 783.3922 684.7387)" class="st13" width="9.7" height="9.1"/>
		
			<text id="_x31__numbers_1_" transform="matrix(1 2.629900e-03 -2.629900e-03 1 729.5237 -48.0093)" class="st11 st7" style="font-size:9.1214px;">10</text>
	</g>
</g>
<g id="table_data">
	<text transform="matrix(1 0 0 1 22.1446 676.1685)" class="st2 st7 st8">Confirmed Cases</text>
	<text transform="matrix(1 0 0 1 22.1446 720.1002)" class="st2 st7 st8">Deaths</text>
	<text id="current_date" transform="matrix(1 0 0 1 205.6742 631.8865)" class="st2 st7 st8">6 Apr. 2020</text>
	<text id="previous_date" transform="matrix(1 0 0 1 340.4524 631.8865)" class="st2 st7 st8">5 Apr. 2020</text>
	<text id="growth_rate__x25_" transform="matrix(1 0 0 1 459.5205 631.8865)" class="st2 st7 st8">Growth Rate %</text>
	<text transform="matrix(1 0 0 1 674.7955 631.8865)" class="st2 st7 st8">Total Confirmed Cases</text>
	<text id="current_сases" transform="matrix(1 0 0 1 228.5298 679.9206)" class="st14 st7 st5">783</text>
	<text id="previous_deaths" transform="matrix(1 0 0 1 371.243 724.4)" class="st14 st7 st5">14</text>
	<text id="current_deaths" transform="matrix(1 0 0 1 232.0501 723.4203)" class="st14 st7 st5">15</text>
	<text id="total_cases" transform="matrix(1 0 0 1 733.2448 709.0636)" class="st15 st7 st16">783</text>
	<text id="previous_сases" transform="matrix(1 0 0 1 363.3301 679.9206)" class="st14 st7 st5">673</text>
	<text id="cases_growth_rate" transform="matrix(1 0 0 1 493.2432 681.457)" class="st14 st7 st5">16 %</text>
	<text id="death_growth_rate" transform="matrix(1 0 0 1 497.6425 725.9361)" class="st14 st7 st5">7 %</text>
</g>
</svg>
