<?xml version="1.0" encoding="utf-8"?>
<!-- Generator: Adobe Illustrator 23.0.5, SVG Export Plug-In . SVG Version: 6.00 Build 0)  -->
<svg version="1.1" id="Layer_1" xmlns="http://www.w3.org/2000/svg" xmlns:xlink="http://www.w3.org/1999/xlink" x="0px" y="0px"
	 viewBox="0 0 916.5 740.2" style="enable-background:new 0 0 916.5 740.2;" xml:space="preserve">
<style type="text/css">
	.st0{fill:#F5FBFE;}
	.st1{fill:#DDEEFA;}
	.st2{fill:#255078;}
	.st3{font-family:'Georgia';}
	.st4{font-size:18px;}
	.st5{font-size:16px;}
	.st6{fill:#4C4B4D;}
	.st7{font-family:'ArialMT';}
	.st8{font-size:14px;}
	.st9{fill:#4C4B4C;}
	.st10{fill:#DB3029;}
	.st11{font-size:36px;}
	.st12{fill:#ADD8F3;}
	.st13{fill:#CD483B;}
	.st14{fill:#FFFFFF;}
	.st15{font-size:7.2759px;}
	.st16{fill:none;}
</style>
<g id="Texts">
	<polygon id="blue_bg" class="st0" points="-0.1,604.9 -0.1,641.9 -0.1,651.5 -0.1,740.3 173.4,740.3 173.4,651.5 914.9,651.5 
		914.9,604.9 	"/>
	<path id="line_bg" class="st1" d="M916.4,1.1H-0.1v130v474.4v2v42.9v2v42.9v2v42.9l0,0h579.8l0,0h333.2l0,0h3.5V1.1z M912.9,57.9
		v547.6H578.3l-0.6-0.3v0.3H443.5l-0.6-0.3v0.3H2.9V57.9H912.9z M912.9,607.5v42.9H579.7v-42.9H912.9z M445,650.5v-42.9h132.8v42.9
		H445z M577.7,652.5v42.9H445v-42.9H577.7z M310.2,650.5v-42.9H443v42.9H310.2z M443,652.5v42.9H310.2v-42.9H443z M175.4,650.5
		v-42.9h132.8v42.9H175.4z M308.2,652.5v42.9H175.4v-42.9H308.2z M173.4,607.5v42.9H2.9v-42.9H173.4z M173.4,652.5v42.9H2.9v-42.9
		H173.4z M2.9,697.4h170.5v39.9H2.9V697.4z M175.4,697.4h132.8v39.9H175.4V697.4z M310.2,697.4H443v39.9H310.2V697.4z M445,697.4
		h132.8v39.9H445V697.4z M579.7,652.5h333.2v84.8H579.7V652.5z"/>
	<text id="title" transform="matrix(1 0 0 1 32.8483 35.8372)" class="st2 st3 st4">COVID-19 in Montana on</text>
	<text id="date" transform="matrix(1 0 0 1 241.4693 35.8372)" class="st2 st3 st4">April 27th, 2020</text>
	<text id="state_confirmed" transform="matrix(1 0 0 1 48.416 106.4215)" class="st2 st3 st5">State Confirmed Cases By County</text>
	<text transform="matrix(1 0 0 1 48.1327 165.6391)" class="st6 st7 st8">Big Horn  10</text>
	<text transform="matrix(1 0 0 1 48.1327 188.4703)" class="st6 st7 st8">Blaine 10</text>
	<text transform="matrix(1 0 0 1 48.1327 211.3022)" class="st6 st7 st8">Broadwater  10</text>
	<text transform="matrix(1 0 0 1 48.1327 234.1342)" class="st6 st7 st8">Carbon  10</text>
	<text transform="matrix(1 0 0 1 48.1327 256.9659)" class="st6 st7 st8">Carter  10</text>
	<text transform="matrix(1 0 0 1 48.1327 279.7975)" class="st6 st7 st8">Cascade  10</text>
	<text transform="matrix(1 0 0 1 48.1327 302.6293)" class="st6 st7 st8">Chouteau  10</text>
	<text transform="matrix(1 0 0 1 48.133 142.8073)" class="st6 st7 st8">Beaverhead   10</text>
	<text transform="matrix(1 0 0 1 48.1327 348.293)" class="st6 st7 st8">Daniels  10</text>
	<text transform="matrix(1 0 0 1 48.133 371.1242)" class="st6 st7 st8">Dawson  10</text>
	<text transform="matrix(1 0 0 1 48.133 325.4611)" class="st6 st7 st8">Custer  10</text>
	<text transform="matrix(1 0 0 1 48.1328 393.9562)" class="st6 st7 st8">Deer Lodge  10</text>
	<text transform="matrix(1 0 0 1 48.1328 416.7879)" class="st6 st7 st8">Fallon  10</text>
	<text transform="matrix(1 0 0 1 48.133 439.6197)" class="st6 st7 st8">Fergus  10</text>
	<text transform="matrix(1 0 0 1 48.1328 485.2831)" class="st6 st7 st8">Gallatin  10</text>
	<text transform="matrix(1 0 0 1 48.133 508.1149)" class="st6 st7 st8">Garfield  10</text>
	<text transform="matrix(1 0 0 1 48.1328 553.7787)" class="st6 st7 st8">Golden Valley  10</text>
	<text transform="matrix(1 0 0 1 183.5906 142.528)" class="st6 st7 st8">Granite  10</text>
	<text transform="matrix(1 0 0 1 183.5906 165.3749)" class="st6 st7 st8">Hill  10</text>
	<text transform="matrix(1 0 0 1 183.5906 188.2225)" class="st6 st7 st8">Jefferson  10</text>
	<text transform="matrix(1 0 0 1 183.5904 211.0696)" class="st6 st7 st8">Judith Basin  10</text>
	<text transform="matrix(1 0 0 1 48.1329 530.947)" class="st6 st7 st8">Glacier  10</text>
	<text transform="matrix(1 0 0 1 183.5904 233.917)" class="st6 st7 st8">Lake  10</text>
	<text transform="matrix(1 0 0 1 183.5904 256.7639)" class="st6 st7 st8">Lewis and Clark  10</text>
	<text transform="matrix(1 0 0 1 183.5904 302.4587)" class="st6 st7 st8">Lincoln  10</text>
	<text transform="matrix(1 0 0 1 183.5904 325.3058)" class="st6 st7 st8">McCone 10</text>
	<text transform="matrix(1 0 0 1 183.5904 348.1532)" class="st6 st7 st8">Madison  10</text>
	<text transform="matrix(1 0 0 1 183.5904 371.0003)" class="st6 st7 st8">Meagher  10</text>
	<text transform="matrix(1 0 0 1 183.5904 393.8471)" class="st6 st7 st8">Mineral  10</text>
	<text transform="matrix(1 0 0 1 183.5902 279.6116)" class="st6 st7 st8">Liberty  10</text>
	<text transform="matrix(1 0 0 1 183.5902 416.6947)" class="st6 st7 st8">Missoula  10</text>
	<text transform="matrix(1 0 0 1 183.5904 439.5424)" class="st6 st7 st8">Musselshell  10</text>
	<text transform="matrix(1 0 0 1 183.5906 462.3897)" class="st6 st7 st8">Park  10</text>
	<text transform="matrix(1 0 0 1 183.5905 485.2365)" class="st6 st7 st8">Petroleum  10</text>
	<text transform="matrix(1 0 0 1 183.5902 508.0839)" class="st6 st7 st8">Phillips  10</text>
	<text transform="matrix(1 0 0 1 183.5902 530.931)" class="st6 st7 st8">Pondera  10</text>
	<text transform="matrix(1 0 0 1 183.5902 553.7783)" class="st6 st7 st8">Powder River  10</text>
	<text transform="matrix(1 0 0 1 326.6671 142.5282)" class="st6 st7 st8">Powell  10</text>
	<text transform="matrix(1 0 0 1 326.6671 165.4818)" class="st6 st7 st8">Prairie  10</text>
	<text transform="matrix(1 0 0 1 326.6671 188.4352)" class="st6 st7 st8">Ravalli  10</text>
	<text transform="matrix(1 0 0 1 326.6671 234.3418)" class="st6 st7 st8">Roosevelt  10</text>
	<text transform="matrix(1 0 0 1 326.6671 257.2951)" class="st6 st7 st8">Rosebud  10</text>
	<text transform="matrix(1 0 0 1 326.6673 532.7354)" class="st6 st7 st8">Sanders 10</text>
	<text transform="matrix(1 0 0 1 326.6673 211.3885)" class="st6 st7 st8">Richland  10</text>
	<text transform="matrix(1 0 0 1 326.6672 280.2483)" class="st6 st7 st8">Sheridan  10</text>
	<text transform="matrix(1 0 0 1 326.6672 303.2018)" class="st6 st7 st8">Silver Bow  10</text>
	<text transform="matrix(1 0 0 1 326.6672 349.1083)" class="st6 st7 st8">Sweet Grass  10</text>
	<text transform="matrix(1 0 0 1 326.6671 372.062)" class="st6 st7 st8">Teton 10</text>
	<text transform="matrix(1 0 0 1 326.6671 395.0156)" class="st6 st7 st8">Toole  10</text>
	<text transform="matrix(1 0 0 1 326.6671 417.9683)" class="st6 st7 st8">Treasure  10</text>
	<text transform="matrix(1 0 0 1 326.6669 440.9221)" class="st6 st7 st8">Valley  10</text>
	<text transform="matrix(1 0 0 1 326.6671 326.1554)" class="st6 st7 st8">Stillwater  10</text>
	<text transform="matrix(1 0 0 1 326.6672 463.8753)" class="st6 st7 st8">Wheatland  10</text>
	<text transform="matrix(1 0 0 1 326.6672 486.8285)" class="st6 st7 st8">Wibaux  10</text>
	<text transform="matrix(1 0 0 1 326.6669 509.7821)" class="st6 st7 st8">Yellowstone  10</text>
	<text transform="matrix(1 0 0 1 48.1328 462.4514)" class="st6 st7 st8">Flathead  10</text>
</g>
<g id="table_data">
	<text transform="matrix(1 0 0 1 24.4994 677.6666)" class="st2 st7 st8">Confirmed Cases</text>
	<text transform="matrix(1 0 0 1 24.4994 721.5983)" class="st2 st7 st8">Deaths</text>
	<text id="current_date" transform="matrix(1 0 0 1 208.029 633.3843)" class="st2 st7 st8">6 Apr. 2020</text>
	<text id="previous_date" transform="matrix(1 0 0 1 342.8072 633.3843)" class="st2 st7 st8">5 Apr. 2020</text>
	<text id="growth_rate__x25_" transform="matrix(1 0 0 1 461.8754 633.3843)" class="st2 st7 st8">Growth Rate %</text>
	<text transform="matrix(1 0 0 1 677.1504 633.3843)" class="st2 st7 st8">Total Confirmed Cases</text>
	<text id="current_сases" transform="matrix(1 0 0 1 230.8846 681.4186)" class="st9 st7 st5">783</text>
	<text id="previous_deaths" transform="matrix(1 0 0 1 373.5977 725.8981)" class="st9 st7 st5">14</text>
	<text id="current_deaths" transform="matrix(1 0 0 1 234.4049 724.9183)" class="st9 st7 st5">15</text>
	<text id="total_cases" transform="matrix(1 0 0 1 735.5997 710.5618)" class="st10 st7 st11">783</text>
	<text id="previous_сases" transform="matrix(1 0 0 1 365.6849 681.4186)" class="st9 st7 st5">673</text>
	<text id="cases_growth_rate" transform="matrix(1 0 0 1 495.598 682.9548)" class="st9 st7 st5">16 %</text>
	<text id="death_growth_rate" transform="matrix(1 0 0 1 499.9973 727.4341)" class="st9 st7 st5">7 %</text>
</g>
<g id="counties">
	<path id="lake_1_" class="st12" d="M529.3,288.3l-1.1,1.9l0.3,0.5l1.3,1.5l2.2,1.6v9.9l3,1.1h4.1l2.1-0.8l1.9-2.4v-8.4l-1.6-1.7
		v-9.7h3.7l6.7,2.7l1.7-0.1l1.3-2V270c0,0,0-0.6-0.4-0.7c-0.7-0.4-1.2-1.2-1.6-1.9c-0.2-0.3-0.5-0.7-0.6-0.8
		c-0.6-0.5-1.9-1.6-1.9-1.6l-0.3-0.3v-2.4l-3.6-1.7h-2.2l-0.6,1v4.2l-12.6-4.3h-1.9l-1.2,1.9v7l-2.5,0.3l-1.7-0.8v0.1h-1.4v8.1
		l2.9,1l6,0.9v7L529.3,288.3z"/>
	<path id="missoula" class="st12" d="M522.6,300.3l-3.4-1.8l-5.1-3.6h-2.8l-0.7,0.7l0.5,0.8l2.8,2.4l1,2.4l2.1,2.2l1.4,4.5v3.2
		l-6.9,7.7c0.5,0.3,1,0.7,1.4,1.2c0.7,0.8,0.8,1.7,0.8,2.5c0.5,0,1.1,0,1.7,0.2c2.8,0.6,4.2,2.1,4.9,3.3l18.2,4.1h7.1l2-1
		c0.5-0.3,1.8-1,2.4-1.3l1.1-2.2l2.5-2.6h2.1l2,1.1l0.8-3l2-8.4l-0.3-3.9c-0.7-0.3-1.5-0.6-1.7-0.7c-0.5-0.2-3.1-1-3.1-1l-0.8-0.3
		l5-21l-7.8,0.2l-6.8-2.7h-1.5v7l1.6,1.7v9.9l-2.5,3.3l-2.9,1.1l-4.9-0.1l-3.7-1.4l-5.4-0.8L522.6,300.3z"/>
	<path id="lewis_and_clark" class="st12" d="M577.3,273.6l-2,2.4l-1.8,3.6l-2,2.5l-0.7,6.8l0.2,2.6l2.6,2.8l-2.4,15l8.7,1.6
		l-3.1,16.9h5.5l3.1,2.1l0.4,3.8l-1.5,1.2l-0.2,1.9h4.2l2.9,2.9v6.6c0,1-0.7,4.5-1,6l1.4-1.5c1.6-2.6,2.6-2.8,3.1-2.6
		c0.8-0.2,3.3-1.7,5.3-3l0.2-0.2h5.1v1.6h2.5h0.8h3.6l1.6-6.8l1.7-1.7l2.7,0.2l-0.5-1.3l-1.8-4h-0.1l-3.4,0.2v-1.9l-3.3-0.5l0.1-2.5
		l1.6-6.1l1-0.8v-0.5l-0.4-0.8h-0.8l-1.7,2.1l-5.4-6.1l0.1-4.4l2.2-8.4l1.3-3.1h-7.9v-1.9l-4.4-3.7l-2.7-2.7v-2l-0.4-0.5h-0.8
		l-1.1,1.7h-8.7l-3.2-3.8v-4.5l1.1-0.8v-4.9l-1.1-1.7v-1.7h-0.6L577.3,273.6L577.3,273.6z"/>
	<path id="mineral" class="st12" d="M502.5,284.6l-0.1-0.2c-0.6-0.7-1.3-1.5-1.5-1.7c-0.3-0.2-3.1-1.1-5.5-2l-0.2-0.1l-1.6-1.4h-8.8
		l-1.2-1.4h-0.1c0.4,0.6,1.1,1.4,1.6,2.8c0.4,1,0.7,1.7,0.9,2.4c0.4,1.2,0.4,1.3,1.4,1.8c0.6,0.3,1.2,0.5,1.6,0.7
		c1.5,0.6,3,1.3,4.8,3.5c2,2.5,3.2,5.2,4.3,8c0.7,1.6,1.3,3.2,2.1,4.6c1.4,2.5,1.6,4.3,1.9,6.3c0.1,0.5,0.2,1.2,0.2,1.8
		c0.2,1.1,0.6,1.5,1.5,2.4c0.7,0.6,1.5,1.4,2.2,2.6c0.5,0.9,1,1.7,1.3,2.7c0.7,0.2,1.4,0.3,2.2,0.6l0.9-1l6-6.5v-2.3l-1.2-3.6
		l-2.1-2.3l-0.9-2.2l-2.7-2.4l-1.3-2.2l1.2-1.4l-0.8-0.7l-0.1-0.2c-0.2-0.4-0.6-1.1-1-1.2c-1.1-0.4-2.3-1.3-2.5-1.4l-0.4-0.3V286
		L502.5,284.6z"/>
	<path id="golden_valley" class="st12" d="M705.7,353.6l-6.3-0.6h-4.9l-1.4,2.4L693,366l-2.9,14h-5.2l-0.8-1.3h-2.8l-1,1.5v2.5
		l1.3,2.4l2,0.3l1.9,1.2l1.4,0.7l0.7-5.4l18.1,2h2.9l0.8,1.5c0.3,0.1,0.5,0.1,0.7,0.1v-8.1l-3.2-12.2l-2.3-4.6l0.1-3.4L705.7,353.6z
		"/>
	<polygon id="petroleum" class="st12" points="748.6,323.2 748.3,317.2 737.7,317.2 736.1,320.3 736.1,325.5 734.8,328.7 
		730.1,329.9 729.2,328.1 723,327.8 721.2,329.2 720.5,334.5 719.1,336.1 719.1,336.3 723.5,336.3 720.5,355.5 748,358.2 748,357 
		745.9,357 745.9,353.8 744.6,353.4 746.4,326.8 	"/>
	<polygon id="teton" class="st12" points="579.6,283.7 579.6,286.5 581.8,289.1 588.6,289.1 589.7,287.4 592.3,287.4 593.8,289.1 
		593.8,290.9 595.9,293.1 600.9,297.2 600.9,298.1 608,298.1 609.3,296.9 611.5,293.5 621.3,294.5 621.3,290 629.2,291.7 
		631.5,279.2 612.6,276.2 610.8,271.8 607.8,267.6 581.1,264 580.8,267 579.6,267.9 579.6,274.8 580.7,276.5 580.7,283 	"/>
	<path id="dawson" class="st12" d="M843.4,317.5v-0.8h-3.1c-1.5,7.3-4,18.3-4.7,20.6v8.4l2.9,1.1v9.6h4.1l4.7,5.2l-0.1,0.4
		c-0.1,0.7-0.1,1.4-0.1,1.9c1.9,0.3,8.6,0.8,14.6,1.2h3.6l2.7-1.3l1.7-1.4l1.2-3.2l1.4-2.5v-7.3l-3.4-7.7l-2.4-1.1l-0.1-0.4
		c-0.1-0.1-1-3.2-1.1-3.8c-0.2-0.8,0.4-1.5,1.1-1.9v-3.3l-1.6-3l-13.9-2v-3.4h-8.5v-5.2L843.4,317.5z"/>
	<path id="cascade" class="st12" d="M643.9,297.1v-0.3l-20.7-4.5v4.3l-10.7-1.2l-1.7,2.7l-1.6,1.4l-1.6,4.1l-2.1,8.2v3.3l3.4,4
		l0.8-1.1h2.9l1.2,2.3v1.7l-1.2,1.1l-1.5,5.5v0.5l3.3,0.5v1.5l5.6-0.4V326l17.3,2.1l5.1,2.6l3.2,4.1l0.7,1.3l2.5,2.9l0.4,1.1V340
		l1.2-9.2l1,0.2c0,0,0,0,0.1,0v-3h-4.7v-5.6l1.6-0.8v-6.7l2.4-1.7h3.5v-0.6l-4-1.6l-8.5-9c-0.2-0.2-0.5-0.5-0.6-1.1
		c0-0.3,0.1-0.8,0.5-1.3L643.9,297.1z"/>
	<path id="prarie" class="st12" d="M812.3,345.2l-1.1,7.2v6.9l3.6,0.3l0.9,1.9l6.6,0.1l3.5,1.3l2.6,3v8.3l2,1.6l3.8,2.1l8.8,2.2h4.8
		l3.6-2.5l4.6-1.5l0.1-0.4h3.6l0.5-1.1l-0.2-3c-0.1-0.2-0.2-0.5-0.2-0.8s0.2-0.7,0.6-1.1c0.2-0.3,0.3-1.4,0.4-2.5
		c-14.9-1-15-1.3-15.3-2c-0.2-0.4-0.2-1.3-0.1-2.7l-3.6-4h-5.1v-10.2l-2.1-0.8h-8v-2.1h-5.2v6.3h-3v-1.9h-3.5v-4.4h-2.6L812.3,345.2
		L812.3,345.2z"/>
	<path id="pavalli" class="st12" d="M518.1,341.1l-8.1,21.8c-0.7,2-1.5,4.1-2.3,6.1c-0.9,2.3-1.9,4.7-2.7,7
		c-0.7,1.9-0.3,2.4,2.5,4.3c1.2,0.8,2.4,1.7,3.6,3c0.7-0.5,1.5-1.1,2.3-1.6c2.4-1.7,4.9-3.5,7.3-5.1c2.2-1.5,4.1-1.9,5.8-1
		c0.2,0.1,0.3,0.2,0.5,0.3l2.4-0.9l6.6-2.8c1.8-0.7,3.8-1.6,4.1-1.8c0.1-0.1,0.3-0.3,0.6-0.5l-6.4-8.1v-9.4l1.6-1.7l0.4-8.5
		c-1.6-0.8-2.2-1.5-2-2.3c0.1-0.3,0-2.2-0.1-3.8v-0.3l2.6-4l-15.7-3.6c0.8,4-1.3,8.8-2.8,12.2L518.1,341.1z"/>
	<path id="big_horn" class="st12" d="M778.9,419h-4.2l-1.5-2.2v-7.6l-1.3-1.2l-3.7-1.2l-1.3-1.6l-2.4-2.4l-8.1-1.4l-0.3-2.4l1.5-1.6
		c-2.1,0.1-6.5,0.2-7.2,0.2s-1.1-0.5-1.2-0.7c-0.1-0.2-0.2-0.5-0.2-0.7l-2.5,1L744,400l-1.8,3h-0.5c-0.1,0-2.5,0.1-3.5,0
		c-0.5,0-1-0.3-1.2-0.7c-0.1-0.2-0.2-0.4-0.2-0.6c-0.6,0.7-1.1,1.4-1.2,1.7c-0.2,1.1-1.5,7.1-4,17.9l-0.1,0.6l-3.3,0.8l-1.9,0.8
		l-15.7-1.4l-2.8,9.4l15,2.1l6.9,1.3l-4,4.2l-1.5,2.8l-0.5,1c22.1,2.8,45.6,5.6,67.9,8.1l0.4-4.4l-17.3-1.4l1.8-8.3L778.9,419z"/>
	<polygon id="fallon" class="st12" points="850.4,383.9 849.7,396.6 847.4,401 859.5,401.6 864.5,404.9 864.5,408.9 866,411.8 
		873.4,411.1 876.5,379.6 868.2,378.1 867,375.5 861.6,375.5 860.8,377.4 857.3,377.4 854.6,385.5 851.4,385.2 851.4,383.9 	"/>
	<path id="jefferson" class="st12" d="M600.7,346.7c-4.3,2.8-5.7,3.2-6.3,3.2c-0.3,0.3-0.9,1-1.4,1.7l-0.1,0.2l-2.6,2.9l-1.5-1.2
		c-0.4,0-1.1,0.1-1.6,0c-0.8,0.3-4.3,2-7.6,3.7v3.7l-1.1,1.5c1,1.3,2,2.5,2.3,2.8c0.5,0.3,1.3,0.7,0.5,15.4l3.7,2.6l1.5,2.8l2,0.4
		l0.5-1l2.5-4.3h4.6l2.3,1.5c1.2,1.1,2.4,2.3,3.1,3c0.6-0.2,1.8-0.4,3.8-0.5V384l2.1-7.8h-4.1l2.3-13.4l2-14.3h-4.1v-1.6
		L600.7,346.7L600.7,346.7z"/>
	<path id="yellowstone" class="st12" d="M723,389c-1.8,0-5.7-0.4-14.3-1.6l-0.5-0.1l-0.7-1.3h-1.1l-3.1,14.9v6.9l1.4,2.5h2.9v6.7
		l2.8,3l15.7,1.4l1.6-0.7l2.3-0.6c1.5-6.7,3.7-16.5,3.8-17.2c0-0.2,0-0.7,2-3.1l0.3-0.3h4l-1,1.4c0.7,0,1.6,0,2.1,0l1.4-2.3l2.9-3.2
		l3.6-1.2h3.2l-1,1.4c0.8,0,2-0.1,3.2-0.1l1.4-3.1v-4.1l-3.2-5.9l-2.5-4.3v-1l-2.2-1.4v2.8l-0.6,0.2c-0.2,0.1-1,0.4-1.6,0.4
		c-0.7,0-1.2-0.5-1.5-1.6h-1.1l-2.5,1.3l-1.7,0.7v4.7l-14-1.3c0.1,4.7-0.1,5.1-0.1,5.3C724.6,388.7,724.5,389,723,389z"/>
	<path id="wibaux" class="st12" d="M872.6,360.1l-1.3,3.5l-2.4,1.9l-3.2,1.5h-3.1c-0.2,2.5-0.6,3.4-0.9,3.8l0.2,2.9h6.4l1.3,2.8
		l7.3,1.4l3.5-34.8l-9-0.8l3.1,7v8.2L872.6,360.1z"/>
	<polygon id="sweet_grass" class="st12" points="679.3,378.5 658.9,374.4 658.9,377.7 658.7,377.7 655.8,394.9 657.2,394.9 
		657.2,407.7 652.8,425.4 655.2,426.7 656.5,427.1 657.1,423.7 659,418.5 662.4,418.5 663.2,414.8 664.6,409.5 672.2,407.1 
		678.4,407.1 679.8,403.5 679.8,394.3 683.9,390.2 685.9,389.1 685.9,389.1 684.5,388.3 682.9,387.3 680.4,386.9 678.5,383.3 
		678.5,379.8 	"/>
	<path id="daniels" class="st12" d="M818.6,260.2h3.8l0.2,12.1l1.7,2.1h5.7v0.1l20,2.4l5.8,0.4l1.2-2.6h-3.4v-7.4l1.3-0.8l0.6-10.3
		l1.3,0.1c-12.6-1.3-25.1-2.6-37.6-4.1l1.3,0.2l-1,6.3L818.6,260.2z"/>
	<path id="phillips" class="st12" d="M743.3,267.9l-1.3,4h-2.3l-1.3,6.2l-2.1,16.6l-16.3,1.8l-1,0.6l0.3,6.7l2.5,2.9v3.3l0.8,0.8
		l3.8,1.4l7.6,3.3h16l0.3,5.9l8.3-8h4.1l3.3,1.9l0.4-1.3c0.2-0.5,0.6-1.1,1-1.4l3.3-27.9l2.3-3.1h3.1l1.1-1.7l2.9-10.1l1.9-19.6
		l1.9-2.2c-11.5-1.4-22.9-2.9-34.4-4.5v6.4l-4,10.1C745.4,260.6,743.5,267.5,743.3,267.9z"/>
	<path id="sanders" class="st12" d="M510,257.1l0.2-1.5h-1.7l-0.7-0.7l-1.6,0.5v1.7l-2.8,3.3l-3.6,1l-5.6-3.7l-2.4-2.5l-1.2-4.3
		l-1-5.2l-2.5-5.6l-1.2-0.5l-2.2,0.7l-3.5-0.5l-1.8,8.1c0.2,0.3,0.6,0.8,0.8,1.2c0.2,0.3,0.4,0.6,0.6,0.8c1.2,2,1.9,3.9,2.5,5.6
		c0.6,1.5,1.2,2.9,2,4.3l0.2,0.5c1.4,4.1,1.5,11.3-0.6,15.7l0.7,0.2l1,1.2h8.6l1.9,1.6c2,0.7,5.2,1.7,5.7,2.1c0.5,0.3,1.4,1.4,1.9,2
		l2.9,1.6v4.7c0.4,0.3,1.1,0.7,1.6,0.8c1.1,0.4,1.7,1.5,2,2l1,0.8h3.4l5.5,3.8l3.7,2l2.8,3.8l3.6,0.6v-8.5l-1.7-1.3l-1.4-1.7l-1-1.5
		l1.9-3.3l1.3-1.2v-4.6l-4.7-0.7l-4.2-1.4v-11.2h1.4v-1.4l-2.8-1.2l-10.3-2.2v-5.9L510,257.1L510,257.1z"/>
	<polygon id="chouteau" class="st12" points="631.1,292.1 645.7,295.3 645.7,297.9 642.9,300.7 651,309.3 655.2,311 669,313.8 
		676.3,312.3 682.6,309.3 684.5,302.5 686,300.2 690.4,300.2 692,299.3 693.8,299.3 693.9,296.3 696.5,285.3 697,282.6 691.6,280.8 
		691.6,275.5 688.6,271.6 663.7,267.7 662.8,271.9 655.4,272.3 652.6,275.4 634.8,272 	"/>
	<path id="flathead" class="st12" d="M530.8,226l-4.7,0.4l-1.7-1.6h-2l-4.4,21h-4.3c-0.4,0-0.7-0.2-1.1-0.4l-0.5,0.8v9.3H512
		l-0.3,3.4h-1.2v2.5l9.1,2l4,1.7v2.4l2.1,1.1l0.3-0.1v-5.9l2-3.2l3.3,0.1l10.3,3.6V261l1.5-2.2h3.6l5.1,2.4v2.7
		c0.4,0.4,1.1,1,1.5,1.3s0.7,0.8,1,1.3s0.7,1.1,1,1.2c1.1,0.6,1.4,1.8,1.4,2.4v13.1l-0.9,1.4l4-0.1l0.1-0.3l9,3.4l0.7-6.2l2.3-2.8
		l1.8-3.6l2.6-3.2h1.2V267l1.3-1l0.2-2.5c-1-0.4-2-0.7-2.2-0.8c-0.2,0-0.7,0-4.6-2.3l-0.3-0.2l-1-4.6l-1.9-3.9l-2.4-5.6v-7.3
		l0.7-0.8l-0.5-1.5l-1.5-1.6l-1.7-2.6l-2.1-2.2l-1-1.4l-2.4-1.6l-3.2-2.5l-3-2.9v-10.6h1c-7.3-1.4-14.6-2.9-22-4.3l-0.2,10l1.3,1
		v5.2L530.8,226z"/>
	<path id="pondera" class="st12" d="M621.4,256.4H615l-5.9-6.4l-10.7-2.3l-2.3,8l-22.5-3.4h-1.9l1.3,2.8l0.8,3.9
		c1.4,0.8,3,1.7,3.4,1.9c0.3,0,1,0.2,3.3,1.1l28.4,3.8l3.7,5.1l1.4,3.6l18,2.8l1.8-9.6l-8.5-1.9l1.2-5.9
		C624.2,258.3,622.1,256.8,621.4,256.4z"/>
	<path id="carbon" class="st12" d="M721.8,442.2l0.8-1.6l1.7-3.1l1.6-1.7l-3.5-0.6l-17.2-2.3l3.5-11.8l-3.2-3.4v-5.6h-1
		c-0.6,0.2-2.8,0.8-3.8,0.8c-0.5,0-1-0.2-1.2-0.6c-0.2-0.3-0.2-0.6-0.2-0.9c-0.9,0.4-3.7,1.4-4.7,1.5c-0.5,0.1-0.7,0.4-0.7,0.4
		l-1.2,3.9l-4.7,1.2l-1.1-1h-3.5l-2.4,0.8l-4.2,4.9c-0.2,0.2-2.3,1.7-2.8,2.1c-0.2,0.1-0.3,0.2-0.5,0.3c-0.2,0.1-0.5,0.3-0.6,0.4
		c-0.1,0.9-0.9,1.8-1.2,2.1l-1.5,1.5v0.4l0.5,0.1l-3.1,5.7C683.8,437.4,702.3,439.8,721.8,442.2z"/>
	<path id="park" class="st12" d="M654.8,377c-2.2-0.8-5.9-2.1-6.4-2.5c-0.4-0.2-3.6-0.3-4.4-0.3c-0.3,0-1.5-0.3-3.6-0.8l-1.7,11.2
		c-3.4,19-3.9,19.4-4.1,19.7c-0.5,0.5-2.2,1.2-3.1,1.6c-0.5,1.1-1.1,2.2-1.2,2.5c0,0,0,0.3,0,0.6c0.1,3.4,0.1,4.7-0.1,5.2
		c-0.2,0.7-0.8,1.3-4.1,0.9c-0.2,0-0.3-0.1-0.4-0.1c-0.5,1.1-1.3,3.3-1.3,3.8c0,0.6-1.2,6.6-1.9,10.4c4.2,0.6,20.6,2.8,43.5,5.7
		l2.1-3.9l-5.1-0.6l-8.8-2.2l-3.7-2.1l4.7-19.1v-10.5h-1.9l3.3-19.4L654.8,377z"/>
	<path id="beaverhead" class="st12" d="M551.9,374.1l-3.2,1.6l-1.7,3.1l-0.8-0.7c-0.5-0.4-1.2-0.9-1.4-1c-0.5-0.2-1-0.3-1.7-4.8
		l-1.1-1c-0.4,0.3-0.7,0.5-0.8,0.6c-0.5,0.3-3.3,1.5-4.4,2l-6.6,2.9l-1.9,0.7c1.2,2.2,1,5.6,0.8,8.6c-0.1,1-0.1,2-0.1,2.5
		c0.3,4.4,1.6,9.3,3.1,13.9c0.5,1.6,0.9,3.5,1.2,5.3c0.6,3.3,1.3,6.6,2.8,9c0.2,0.3,0.4,0.6,0.6,1c0.8,1.3,1.5,2.5,2.5,3.2
		c0.4,0.3,1,0.5,1.5,0.7c1.2,0.4,2.6,1,3.9,2.4c3.2,3.4,4.5,9.2,3.1,14.2l-0.1,0.3c-0.7,2.6-1.1,4.3-0.1,6c0.5,0.8,1.4,1.6,2.4,2.4
		c0.5-1.5,1.4-3,3.3-3.9c3.2-1.5,7.5,0.2,10.1,1.1l0.5,0.2c1.9,0.7,4.2,1.5,6,1.6c1.2,0,2.1-0.3,3.3-0.7c0.7-0.3,1.6-0.5,2.6-0.7
		c5-1.1,9.1,0.3,13.1,1.6c0.9,0.3,1.8,0.6,2.8,0.9c0.4,0.1,0.7,0.2,1,0.3c2.5,0.8,2.8,0.8,3.9-0.5c0.5-0.5,0.8-1.1,1.3-1.7
		c0.2-0.3,0.4-0.5,0.5-0.7l-0.7-0.4l-5.6-0.9v-4.1h-6.3l-2.1-1.1h-2l-2.5-3.7v-7.8c-0.1,0-0.3,0-0.4-0.1c-0.5-0.1-0.8-0.4-1.1-0.8
		c-0.2-0.3-1.5-0.8-2.6-1.2l-0.2-0.1l-2-1.6l-1.6-3l-0.9-1.4v-3.4l2.9-7.4c0.4-1.6,0.5-3.3,0.4-3.8c-0.7-0.6-1.7-1.5-2.1-1.9l-2.3-1
		l-3-2.8v-5.3l2.4-3c-0.2-0.7-0.5-1.3-0.7-1.6c-0.5-0.1-1.4-0.5-1.6-3.7l-1.8-1.5l-3.3-1.3l-2.8-2.8l-2.1-2.9H553V374L551.9,374.1
		L551.9,374.1z"/>
	<path id="rosebuld" class="st12" d="M805.9,363l-18.5-4.1l-23.6-2.2l-1.2-1.5h-0.2v1.5l-3.6,0.2l-8.8-1.7l-2.2-0.7v0.7h2.1v17.5
		h10.3l10.7,1l2.4,3.5l1.7,2.6l1.9,7.5v14.4H775v14.4l0.6,1h5.3l-2.5,19.7l-1.4,6.3l15.2,1.3l0.3-3.5l4.8-22.6l1.6-3.8l2-18.8
		l1.9-2.5l1.4-17l2.9-12.1l0.2-0.2c0.3-0.2,0.5-0.5,0.6-0.6c0-0.1,0.1-0.2,0.1-0.3L805.9,363L805.9,363z"/>
	<path id="custer" class="st12" d="M810.3,362.2c-0.3,0.6-0.4,1-0.4,1.2c0,0.6-0.5,1.2-1.1,1.7l-2.8,11.5l-1.4,17.3l-1.9,2.5
		l-1.9,17.5l42.3,5l2.3-18.2l2.3-4.6l0.8-14.1h4.7v1.5l1.8-5.4l-3.1,1.1l-3.8,2.6l-5.7-0.1l-9.2-2.3l-4.1-2.3l-2.7-2.2v-8.5
		l-1.8-2.1l-2.9-1.1h-7.2l-1-2l-2.8-0.2L810.3,362.2z"/>
	<path id="richland" class="st12" d="M870.4,303.9l-11.2-2.8h-1.7l-2.7,2.9h-7.9l-1.6,11.9v3.6h-1v1.4h8.6v3.7l13.2,1.9l2.2,4.2v5
		l-0.6,0.2c-0.2,0.1-0.3,0.2-0.5,0.3c0.2,0.6,0.6,2.1,0.9,3.1l1.9,0.8l9.9,0.9l0.5-0.4l3.1-30.6l-7.2-3.3L870.4,303.9z"/>
	<path id="musselshell" class="st12" d="M709.7,354l-2.1-0.2l-1.1,3.8v2.5l2.3,4.5l3.2,12.7v8.5c4.3,0.6,9.2,1.2,10.9,1.2
		c0-1,0-3.2-0.1-5.1l-0.1-1.1l14.1,1.3v-3.9l2.8-1.2l2.8-1.5h3.1l0.2,0.7c0.1,0.3,0.1,0.5,0.2,0.7v-2.4l2.1-1.6v-13.1l-31.3-3.1
		L709.7,354z"/>
	<path id="powell" class="st12" d="M568.9,289.5l-7.6-2.9l-4.6,19.4c0.8,0.3,2,0.6,2.3,0.7c0.5,0.2,2.2,0.9,2.4,1l0.5,0.2l0.4,5.3
		l-2,8.7l-1,3.6l2,1.9l1.4,2.2l1.2,2.1h2.9v5.7c-0.4,2-1.7,8.6-1.9,9.1c-0.1,0.4-0.6,4-1.1,7.1l-0.1,0.2l-0.4,1.2l14.4,3.2v-2.1
		l0.5-0.3c8.3-4.3,8.8-4.2,9.2-4.1c0.1,0,0.5,0.1,1,0c0.4-2,1-4.8,1-5.5v-5.8l-1.8-1.8h-5.5l0.5-4.7l1.3-1l-0.2-1.9l-2-1.3h-7.2
		l3.2-17.2l-8.7-1.6l2.4-16l-2.4-2.6L568.9,289.5z"/>
	<path id="judith_basin" class="st12" d="M680.6,327l-5.6-1.5l-2.1-1.4l-1.2-2.2l-2.7-3.6l-0.7-2.8L656,313v2h-4.7l-1.1,0.8v6.9
		l-1.6,0.8v2.6h4.7v5.1c0,0.5-0.2,0.8-0.5,1.2c-0.2,0.2-0.5,0.3-0.7,0.4l-1,7.4v3.7l5.4,5.5l3.2,0.2v-1.5h2.6h1.1h10.3l2.6,2.4
		l3.8,0.9l3.1-23.6L680.6,327z"/>
	<polygon id="wheatland" class="st12" points="672.9,349.9 663,349.9 659,372.6 680.9,376.9 685.2,376.9 686,378.2 688.6,378.2 
		691.2,365.8 691.3,355.9 675.4,352.2 	"/>
	<path id="silver_bow" class="st12" d="M577.2,364.1h-6.9l-4.3,4.8c-0.3,0.6-0.6,1.4-0.6,1.6s0,0.5-2.2,3.6l-1.6,1.8h-2.7l1.3,1.8
		l2.3,2.3l3.4,1.4l2.5,2.2v0.4c0.1,0.9,0.2,1.9,0.4,2.3c0.6,0.2,1.2,1,1.7,2.2l1.9-1c0.7-0.2,1.4-0.5,1.7-0.7c0.3-0.5,1-1.4,2.2-2.8
		l0.3-0.3h5.7l1.5,1.6l0.5,0.1l-0.6-1.1l-4.2-3l0.1-0.5c0.3-6.1,0.5-13,0.2-14.4c-0.6-0.5-1.6-1.7-2.3-2.6L577.2,364.1z"/>
	<path id="powder_river" class="st12" d="M799.1,418.9l-4.7,22.2l-0.8,9.7c15.1,1.7,29.6,3.3,42.7,4.6l2.2-14.7l2.4-3l2.2-16.9
		l-42.4-5.1L799.1,418.9z"/>
	<path id="carter" class="st12" d="M842.5,438.5l-2.4,3l-2.1,14.1c11.6,1.1,21.9,2,30.6,2.6l4-39.9h-0.2v-5.2l-7.5,0.7l-2.3-4.3V406
		l-3.8-2.4L847,403L842.5,438.5z"/>
	<path id="treasure" class="st12" d="M775,387.5l-1.8-7l-1.5-2.2l-2-2.8l-9.7-0.9h-10.6l2.5,1.5v1.5l2.2,3.9l3.4,6.3v4.9l-1.2,2.7
		c1.2,0,2.1-0.1,2.2-0.1h1v2.6l-1.5,1.5v0.1l7.4,1.3l2.9,2.9l1,1.3l3.6,1.1l0.3,0.3v-6.7h1.9L775,387.5L775,387.5z"/>
	<path id="granite" class="st12" d="M564.9,333.5h-2.1l-1.7-3l-1.3-2l-2.1-2l-2.5-1.4h-0.8l-1.9,1.9l-1.1,2.4l-0.3,0.2
		c0,0-2.1,1.1-2.7,1.4l-2.4,1.2h-7.2l-2.7,4.2c0.1,2.1,0.1,3.1,0.1,3.7c0.3,0.2,0.9,0.5,1.4,0.7l0.6,0.3l-0.5,10.4l-1.5,1.7v8l6,7.5
		c0.3-0.3,0.6-0.5,0.8-0.7l3.1-2.5c1.6-1.5,3.6-3.5,3.9-3.9c0.3-0.6,1.2-2.5,1.9-3.7c-0.2-0.4-0.3-1-0.2-1.5
		c0.2-0.4,0.4-0.7,0.8-0.9c0.9-0.4,3.4-0.2,4.4-0.1l0.8,0.1v1h3.1l1.1-3.4c0.4-2.6,1-6.9,1.1-7.4c0.1-0.4,1.2-5.6,1.9-8.8
		L564.9,333.5L564.9,333.5z"/>
	<path id="stillwater" class="st12" d="M688.4,390.4l-0.7-0.4l-0.9,0.7l-1.9,1.1l-3.3,3.3l-0.1,9l-1.8,5h-7.5l-6.1,2l-1.1,4.2
		l-1.1,5.1h-3.6l-1.5,3.9l-0.5,3.3l5.2,1.3l5.3,0.6v-0.9l2-2c0.3-0.3,0.6-0.8,0.6-1c0.1-1,1-1.5,1.5-1.8c0.1-0.1,0.2-0.1,0.3-0.2
		c0.3-0.2,1.7-1.3,2.5-2l4.4-5.1l3.4-1h4.3l0.8,0.8l2.6-0.6l1-3c0.1-0.2,0.6-1.4,2.2-1.6c0.7-0.1,3.2-1,4.5-1.5l0.2-0.1h2.8
		l-0.6-1.2v-7.7l3.1-14.8l-15.3-1.7L688.4,390.4z"/>
	<path id="deer_lodge" class="st12" d="M562.3,358.4h-6.4v-1.2c-1-0.1-1.9-0.1-2.3-0.1c0.1,0.1,0.1,0.2,0.2,0.3l0.3,0.5l-0.3,0.5
		c-0.9,1.7-1.9,3.7-2,4c-0.1,0.2-0.2,0.7-4.4,4.7l-3.1,2.5c-0.1,0.1-0.4,0.3-0.7,0.6l1.3,1.2l0.1,0.3c0.2,1.5,0.6,3.2,0.8,3.8
		c0.2,0.1,0.5,0.3,0.7,0.5l1-1.7l4.1-2.1h3.7v1.9h1.9h0.5h3.2l1-1.1c0.7-1,1.6-2.3,1.9-2.8c0.1-0.3,0.2-0.8,0.8-2.2l0.2-0.3l5-5.5
		h6.6l1.4-2.1V360l-14.9-3.3L562.3,358.4z"/>
	<path id="broadwater" class="st12" d="M615.5,340.6l-1.9,7.7h-4.2l-2,14.5l-2,11.2h4.3l-2.6,10.1v0.6h0.1l3.9-3.7l4.1-2.4v-3.8
		l4.9-5.3h9.3v-6.8l-1.6-6.4l-1.9-3.3c0,0-1.6-2.9-1.9-3.6c-0.1-0.2-0.3-0.5-0.5-1c-1.3-2.3-2-3.6-2.1-4.1c-0.1-0.4-1.4-2.4-2.6-4.2
		l-2.8-0.3L615.5,340.6z"/>
	<path id="meagher" class="st12" d="M655.5,351.1l-6.2-6.4l-0.8-1.4l-1.4-3.5l-2.4-2.7l-0.7-1.4l-2.8-3.6l-4.6-2.4l-14.7-1.7v4.3
		l-3.8,0.3l1.5,3.4l1,2.6c1.1,1.6,2.9,4.3,3.1,5.1c0.1,0.5,1.3,2.6,1.9,3.6c0.3,0.5,0.5,0.9,0.6,1.1c0.3,0.6,1.9,3.5,1.9,3.5l2,3.7
		l1.6,6.8v7h3.1l3,1.2c2.8,0.8,6.1,1.6,6.5,1.7c0,0,4.5,0.1,5.4,0.6c0.4,0.2,3.2,1.3,5.9,2.2l1.7,0.3V374l-0.2-0.1l4-22.5
		L655.5,351.1z"/>
	<path id="blaine" class="st12" d="M708.2,237.7l-2.9,10.3l-2.6,15.8l-4.3,21.8l-2.6,11v3.6l2.9,1.6l2.6-0.2l8.4-2.9h4.1l3.7,3.1
		l-0.3-6l2.2-1.3l15.3-1.7l2-15.2l1.6-7.8h2.4l0.9-2.7c0.1-0.3,1.4-5,2.2-8l3.9-9.9v-6.1h1c-8.1-1.1-16.2-2.2-24.3-3.4
		c-5.7-0.8-11.5-1.7-17.2-2.5L708.2,237.7z"/>
	<path id="lincoln_1_" class="st12" d="M489.5,198.2l-8.8,39.8l2.9,0.4l2.5-0.8l2.5,1l2.9,6.6l1,5.2l1,3.8l2,2.1l4.6,3l2.2-0.6
		l2-2.3V254l4-1.1l0.9,0.9h1.1v-8l2.1-3.4l0.8,1c0.2,0.3,0.5,0.5,0.6,0.6h2.8l4.4-21h4.2l1.6,1.5l2.6-0.2l0.7-1.9v-4l-1.3-1
		l0.2-11.1h1c-13.8-2.8-27.7-5.6-41.5-8.5c-0.6-0.1-1.3-0.3-1.9-0.4L489.5,198.2z"/>
	<path id="toole" class="st12" d="M616.4,222.7l-5.8,26.1l5.2,5.7h5.7c0.4,0,0.8,0,6.3,4.3l0.5,0.4l-1.1,5.2l6.7,1.5v-0.1l3.8,1.1
		l8-39.2c-2.1-0.4-4.2-0.7-6.4-1.1c-8.1-1.4-16.1-2.8-24.2-4.2L616.4,222.7z"/>
	<path id="glacier" class="st12" d="M553.9,220.8l2.4,2.2l3.1,2.5l2.7,1.9l1.1,1.5l2.1,2.3l1.7,2.6l1.6,1.6l1.1,2.9l-0.9,1.1v6.3
		l2.1,4.6h3l21,3.2l2.4-8.1l11.8,2.5l5.7-25.6c-18.1-3.2-36.1-6.5-54.1-9.9c-2.2-0.4-4.5-0.8-6.7-1.3L553.9,220.8L553.9,220.8z"/>
	<path id="valley" class="st12" d="M785.8,248.7l-1.9,2.2l-1.9,19.3l-3.1,10.5l-1.7,2.6H774l-1.5,2l-3.2,26.7h0.9l0.3,0.2
		c1.3,1,2.8,2.1,3.3,2.3c1.2,0,9.5-0.2,14.1-0.3l6.3-2.1l1.6-1.7v-2.6l2.9-2.4v-2.2l2.6-1.1l1.7,0.1l1-4.7h3.5l3.6,3.2l6.8,1.1h5.6
		v-9.2l2.2-5l2-11.4h-4.4l-2.7-3.3l-0.2-10.9h-4.8l1.8-4l0.9-5.9c-1.4-0.2-2.8-0.3-4.1-0.5c-9.7-1.1-19.5-2.3-29.2-3.6L785.8,248.7z
		"/>
	<path id="mccone" class="st12" d="M825.4,303.7h-7.7l-7.4-1.2l-3.4-3.1h-1.2l-0.7,3.4l1.9,1.3l2.8,4.3l-0.6,9.2l-1.4,9.5l-0.7,5.5
		h-1.4l-0.2,1h4.5l-0.2,9.6h2.1h1.1h4.1v4.4h2.7v-4.4h9v2.1h5.4v-8.5l0.2-0.2c0.4-0.9,3.1-13.4,4.8-21l0.2-0.7h4.7l1.5-11.3
		l-5.4-2.5h-8.3l-6,2.2L825.4,303.7L825.4,303.7z"/>
	<path id="garfield" class="st12" d="M801.7,304l-1.1,0.5v1.9l-2.9,2.4v2.4l-2.5,2.6l-7.2,2.3c-0.6,0-13.9,0.3-14.4,0.3
		c-0.3,0-0.7,0-4.1-2.5h-0.9c-0.2,0.3-0.4,0.5-0.5,0.6L767,318l-4.9-2.8h-2.9l-9.1,8.8l-2,3.3l-1.7,24.7l3.9,1.3l8.5,1.7l1.5-0.1
		v-1.6h3l1.3,1.6l23,2.2l18.4,4.1l2.6-0.2c0.1-0.3,0.3-0.6,0.5-1v-7.8l1.1-7h-2.9l0.2-9.6h-4.7l0.8-4.7h1.4l0.5-3.9l1.4-9.5l0.6-8.5
		l-2.3-3.6l-1.9-1.3L801.7,304z"/>
	<polygon id="roosevelt" class="st12" points="825.4,293.1 825.4,301.4 831.2,299.3 840.1,299.3 846.3,302.1 854,302.1 856.7,299.3 
		859.6,299.3 871.1,302.2 877.1,305 883.7,308.1 885.4,291.8 866.6,289.1 866.6,284.3 864.7,282 863.4,279.8 849.8,278.9 
		829.6,276.4 827.5,288.4 	"/>
	<path id="sheridan" class="st12" d="M857.3,256.3l-0.6,11.2l-1.2,0.8v4.6h4.5l-2,4.7l6.7,0.4l1.8,3l2.2,2.5v4l17.1,2.4l3.1-30.6
		C878.2,258.4,867.7,257.4,857.3,256.3z"/>
	<polygon id="fergus" class="st12" points="713,300.8 709.8,300.8 701.4,303.7 698.2,303.8 693.8,301.4 693.8,301.1 692.5,301.1 
		690.9,302.1 687,302.1 686.1,303.4 684.2,310.6 676.7,314.1 670.2,315.4 670.7,317.4 673.2,320.9 674.3,322.7 675.9,323.8 
		681.1,325.2 685.2,326.4 681.9,351.8 691.7,354.1 693.4,351.1 699.5,351.1 710.3,352.2 717.3,355.2 718.6,355.3 721.3,338.2 
		717.2,338.2 717.2,335.3 718.7,333.7 719.5,328.2 722.4,325.9 730.4,326.3 731.1,327.7 733.4,327.1 734.2,325.2 734.2,319.9 
		735.6,317.2 733.8,317.2 725.8,313.8 721.7,312.3 720,310.6 720,307.3 717.8,304.8 	"/>
	<path id="gallatin" class="st12" d="M634.2,371.4h-13.1l-3.9,4.2v4.1l-4.9,2.9l-4.1,3.9l-2.4,0.3c-0.4,0-0.9,0.1-1.4,0.1l0.5,0.8
		c1,1.5,2.1,2.9,2.5,3.1c1.2,0.6,1.1,2,0.6,3.3l1.3,1.5l8.4,1.4l-9.3,42.8c0.1,0,0.1,0.1,0.2,0.1c3.4,1.3,4.9,5.4,6.3,9.1
		c0.3,0.8,0.6,1.5,0.8,2.3l3.6-22.2l1.6,0.2c0.8-4.3,1.9-9.6,1.9-10.2c0-0.1,1.3-5.8,2.6-5.8h1v0.2c0.7,0.1,1.7,0.2,2.3,0.1
		c0.1-1,0-3.4-0.1-4.3c0-0.4,0-0.7,0-0.7c0-0.2,0-0.7,1.5-3.6l0.2-0.3l0.3-0.1c1.1-0.4,2.3-1.1,2.7-1.3c0.5-1.6,2.5-12.1,3.7-18.7
		l1.7-11.4c-0.5-0.2-1.1-0.3-1.7-0.5L634.2,371.4z"/>
	<path id="madison" class="st12" d="M602.3,387.1C602.2,387.1,602.2,387.1,602.3,387.1l-0.3,0.2c-0.7,0.6-0.7,0.6-4.9-3.5l-1.6-1.1
		h-3l-2,3.3l-1.1,2.2l-6.9-1.2l-1.4-1.5h-4c-0.7,0.8-1.5,1.9-1.6,2.1s-0.3,0.8-2.7,1.6l-2.4,1.3l-2.2,2.8v3.9l2.1,2l2.4,1l0.2,0.2
		c0,0,1.4,1.4,2.1,2c0.8,0.6,0.9,2.6,0.2,5.7l-0.1,0.1l-2.8,7.1v2.5l0.6,1.1l1.5,2.7l1.4,1.2c1,0.3,2.8,1,3.4,1.8
		c0.1-0.1,0.2-0.1,0.3-0.2l1.5-1v10.3l1.6,2.3h1.5l2.1,1.1h7.6v4.4l4.3,0.7l1.3,0.6c0.7-0.8,1.6-1.5,2.7-2.2
		c1.4-0.8,2.8-1.2,4.1-1.2l8.9-41l-7.1-1.2l-2.5-2.9l0.2-0.5c0.2-0.5,0.4-1.3,0.4-1.5c-1.1-0.6-2.7-3-3.1-3.8L602.3,387.1z"/>
	<path id="liberty" class="st12" d="M646.4,227.8l1.3,0.3l-8.4,41.2l-3.8-1.1l-0.4,2l16.8,3.2l2.6-2.8l1.6-0.1l1.7-6l5.3-33.8
		C657.6,229.6,652,228.7,646.4,227.8z"/>
	<path id="hill" class="st12" d="M665.1,230.8l-0.3,2.1h-0.1l-5,31.8l-1.5,5.5l3.2-0.2l1-4.5l27.3,4.3l3.9,5v4.6l3.9,1.4l3.4-17.3
		l2.7-15.9l2.9-10.3C692.6,235.2,678.8,233.1,665.1,230.8z"/>
</g>
<g id="balls">
	<circle id="daniels_circle" class="st13" cx="837.9" cy="265.3" r="7.2"/>
	<text id="daniels_numbers" transform="matrix(1 2.629955e-03 -2.629955e-03 1 835.8582 267.5258)" class="st14 st7 st15">1</text>
	<circle id="sheridan_circle" class="st13" cx="873.5" cy="271" r="7.2"/>
	<text id="sheridan_numbers" transform="matrix(1 2.629955e-03 -2.629955e-03 1 871.5191 273.2425)" class="st14 st7 st15">1</text>
	<circle id="roosevelt_circle" class="st13" cx="852.9" cy="289.5" r="7.2"/>
	<text id="roosevelt_numbers" transform="matrix(1 2.629955e-03 -2.629955e-03 1 850.8827 291.7869)" class="st14 st7 st15">1</text>
	<circle id="richland_circle" class="st13" cx="867.3" cy="315.9" r="7.2"/>
	<text id="richland_numbers" transform="matrix(1 2.629955e-03 -2.629955e-03 1 865.2747 318.1645)" class="st14 st7 st15">1</text>
	<circle id="mccone_circle" class="st13" cx="823.7" cy="323.2" r="7.2"/>
	<text id="mccone_numbers" transform="matrix(1 2.629955e-03 -2.629955e-03 1 821.6746 325.5087)" class="st14 st7 st15">1</text>
	<circle id="dawson_circle" class="st13" cx="854.5" cy="345.6" r="7.2"/>
	<text id="dawson_numbers" transform="matrix(1 2.629955e-03 -2.629955e-03 1 852.4968 347.8459)" class="st14 st7 st15">1</text>
	<circle id="prarie_circle" class="st13" cx="835" cy="365.4" r="7.2"/>
	<text id="prarie_numbers" transform="matrix(1 2.629955e-03 -2.629955e-03 1 833.0524 367.6258)" class="st14 st7 st15">1</text>
	<circle id="wibaux_circle" class="st13" cx="874.4" cy="362.3" r="7.2"/>
	<text id="wibaux_numbers" transform="matrix(1 2.629955e-03 -2.629955e-03 1 872.3858 364.5258)" class="st14 st7 st15">1</text>
	<circle id="fallon_circle" class="st13" cx="864.2" cy="391.3" r="7.2"/>
	<text id="fallon_numbers" transform="matrix(1 2.629955e-03 -2.629955e-03 1 862.1636 393.5425)" class="st14 st7 st15">1</text>
	<circle id="custer_circle" class="st13" cx="824.6" cy="396.6" r="7.2"/>
	<text id="custer_numbers" transform="matrix(1 2.629955e-03 -2.629955e-03 1 822.6302 398.896)" class="st14 st7 st15">1</text>
	<circle id="carter_circle" class="st13" cx="856.6" cy="434.5" r="7.2"/>
	<text id="carter_numbers" transform="matrix(1 2.629955e-03 -2.629955e-03 1 854.608 436.7092)" class="st14 st7 st15">1</text>
	<circle id="powder_river_circle" class="st13" cx="819.3" cy="436.1" r="7.2"/>
	<text id="powder_river_numbers" transform="matrix(1 2.629955e-03 -2.629955e-03 1 817.2747 438.3369)" class="st14 st7 st15">1</text>
	<circle id="valley_circle" class="st13" cx="799.8" cy="282.3" r="7.2"/>
	<text id="valley_numbers" transform="matrix(1 2.629955e-03 -2.629955e-03 1 797.8524 284.5128)" class="st14 st7 st15">1</text>
	<circle id="garfield_circle" class="st13" cx="780.2" cy="337.9" r="7.2"/>
	<text id="garfield_numbers" transform="matrix(1 2.629955e-03 -2.629955e-03 1 778.1636 340.1091)" class="st14 st7 st15">1</text>
	<circle id="rosebuld_circle" class="st13" cx="790.2" cy="392.9" r="7.2"/>
	<text id="rosebuld_numbers" transform="matrix(1 2.629955e-03 -2.629955e-03 1 788.1637 395.1702)" class="st14 st7 st15">1</text>
	<circle id="treasure_circle" class="st13" cx="765.9" cy="388.2" r="7.2"/>
	<text id="treasure_numbers" transform="matrix(1 2.629955e-03 -2.629955e-03 1 763.9414 390.4646)" class="st14 st7 st15">1</text>
	<circle id="big_horn_circle" class="st13" cx="753.9" cy="426.5" r="7.2"/>
	<text id="big_horn_numbers" transform="matrix(1 2.629955e-03 -2.629955e-03 1 751.9069 428.7647)" class="st14 st7 st15">1</text>
	<circle id="yellowstone_circle" class="st13" cx="722.2" cy="400.5" r="7.2"/>
	<text id="yellowstone_numbers" transform="matrix(1 2.629955e-03 -2.629955e-03 1 720.1915 402.8036)" class="st14 st7 st15">1</text>
	<circle id="phillips_circle" class="st13" cx="754.2" cy="288.4" r="7.2"/>
	<text id="phillips_numbers" transform="matrix(1 2.629955e-03 -2.629955e-03 1 752.1692 290.6425)" class="st14 st7 st15">1</text>
	<circle id="petroleum_circle" class="st13" cx="734.5" cy="342" r="7.2"/>
	<text id="petroleum_numbers" transform="matrix(1 2.629955e-03 -2.629955e-03 1 732.5414 344.298)" class="st14 st7 st15">1</text>
	<circle id="musselshell_circle" class="st13" cx="726.8" cy="369.5" r="7.2"/>
	<text id="musselshell_numbers" transform="matrix(1 2.629955e-03 -2.629955e-03 1 724.8003 371.7258)" class="st14 st7 st15">1</text>
	<circle id="golden_valley_circle" class="st13" cx="700" cy="373.5" r="7.2"/>
	<text id="golden_valley_numbers" transform="matrix(1 2.629955e-03 -2.629955e-03 1 697.9637 375.7591)" class="st14 st7 st15">1</text>
	<circle id="blaine_circle" class="st13" cx="721" cy="270.8" r="7.2"/>
	<text id="blaine_numbers" transform="matrix(1 2.629955e-03 -2.629955e-03 1 719.0004 273.0992)" class="st14 st7 st15">1</text>
	<circle id="fergus_circle" class="st13" cx="701.9" cy="329" r="7.2"/>
	<text id="fergus_numbers" transform="matrix(1 2.629955e-03 -2.629955e-03 1 699.9525 331.2937)" class="st14 st7 st15">1</text>
	<circle id="stillwater_circle" class="st13" cx="686.9" cy="407.2" r="7.2"/>
	<text id="stillwater_numbers" transform="matrix(1 2.629955e-03 -2.629955e-03 1 684.9081 409.4091)" class="st14 st7 st15">1</text>
	<circle id="carbon_circle" class="st13" cx="693.1" cy="428.6" r="7.2"/>
	<text id="carbon_numbers" transform="matrix(1 2.629955e-03 -2.629955e-03 1 691.1525 430.8425)" class="st14 st7 st15">1</text>
	<circle id="sweet_grass_circle" class="st13" cx="668.4" cy="394.9" r="7.2"/>
	<text id="sweet_grass_numbers" transform="matrix(1 2.629955e-03 -2.629955e-03 1 666.3777 397.153)" class="st14 st7 st15">1</text>
	<circle id="wheatland_circle" class="st13" cx="676.5" cy="364.6" r="7.2"/>
	<text id="wheatland_numbers" transform="matrix(1 2.629955e-03 -2.629955e-03 1 674.5414 366.8911)" class="st14 st7 st15">1</text>
	<circle id="judith_basin_circle" class="st13" cx="666.4" cy="335" r="7.2"/>
	<text id="judith_basin_numbers" transform="matrix(1 2.629955e-03 -2.629955e-03 1 664.3857 337.2591)" class="st14 st7 st15">1</text>
	<circle id="meagher_circle" class="st13" cx="643.6" cy="355.9" r="7.2"/>
	<text id="meagher_numbers" transform="matrix(1 2.629955e-03 -2.629955e-03 1 641.597 358.1995)" class="st14 st7 st15">1</text>
	<circle id="park_circle" class="st13" cx="643.6" cy="410.7" r="7.2"/>
	<text id="park_numbers" transform="matrix(1 2.629955e-03 -2.629955e-03 1 641.5969 412.9702)" class="st14 st7 st15">1</text>
	<circle id="gallatin_circle" class="st13" cx="625.8" cy="394.9" r="7.2"/>
	<text id="gallatin_numbers" transform="matrix(1 2.629955e-03 -2.629955e-03 1 623.7902 397.1535)" class="st14 st7 st15">1</text>
	<circle id="broadwater_circle" class="st13" cx="617" cy="360.8" r="7.2"/>
	<text id="broadwater_numbers" transform="matrix(1 2.629955e-03 -2.629955e-03 1 615.0265 363.0424)" class="st14 st7 st15">1</text>
	<circle id="jefferson_circle" class="st13" cx="593.7" cy="366.4" r="7.2"/>
	<text id="jefferson_numbers" transform="matrix(1 2.629955e-03 -2.629955e-03 1 591.7341 368.6995)" class="st14 st7 st15">1</text>
	<circle id="madison_circle" class="st13" cx="593.7" cy="412.2" r="7.2"/>
	<text id="madison_numbers" transform="matrix(1 2.629955e-03 -2.629955e-03 1 591.7339 414.4146)" class="st14 st7 st15">1</text>
	<circle id="beaverhead_circle" class="st13" cx="556.1" cy="413.1" r="7.2"/>
	<text id="beaverhead_numbers" transform="matrix(1 2.629955e-03 -2.629955e-03 1 554.1525 415.3647)" class="st14 st7 st15">1</text>
	<circle id="silver_bow_circle" class="st13" cx="572.2" cy="375.8" r="7.2"/>
	<text id="silver_bow_numbers" transform="matrix(1 2.629955e-03 -2.629955e-03 1 570.1932 378.0183)" class="st14 st7 st15">1</text>
	<circle id="deer_lodge_circle" class="st13" cx="559.8" cy="365.8" r="7.2"/>
	<text id="deer_lodge_numbers" transform="matrix(1 2.629955e-03 -2.629955e-03 1 557.7915 368.0758)" class="st14 st7 st15">1</text>
	<circle id="cascade_circle" class="st13" cx="629.5" cy="313.1" r="7.2"/>
	<text id="cascade_numbers" transform="matrix(1 2.629955e-03 -2.629955e-03 1 627.4747 315.3109)" class="st14 st7 st15">1</text>
	<circle id="chouteau_circle" class="st13" cx="666.2" cy="290.2" r="7.2"/>
	<text id="chouteau_numbers" transform="matrix(1 2.629955e-03 -2.629955e-03 1 664.1785 292.4517)" class="st14 st7 st15">1</text>
	<circle id="hill_circle" class="st13" cx="682.2" cy="252.8" r="7.2"/>
	<text id="hill_numbers" transform="matrix(1 2.629955e-03 -2.629955e-03 1 680.1748 255.0813)" class="st14 st7 st15">1</text>
	<circle id="liberty_circle" class="st13" cx="651.6" cy="252.9" r="7.2"/>
	<text id="liberty_numbers" transform="matrix(1 2.629955e-03 -2.629955e-03 1 649.5748 255.1257)" class="st14 st7 st15">1</text>
	<circle id="lewis_and_clark_circle" class="st13" cx="591.7" cy="318.1" r="7.2"/>
	<text id="lewis_and_clark_numbers" transform="matrix(1 2.629955e-03 -2.629955e-03 1 589.6902 320.3809)" class="st14 st7 st15">1</text>
	<circle id="granite_circle_1_" class="st13" cx="569.8" cy="327.1" r="7.2"/>
	<text id="granite_numbers_1_" transform="matrix(1 2.629955e-03 -2.629955e-03 1 567.8434 329.3291)" class="st14 st7 st15">1</text>
	<circle id="granite_circle" class="st13" cx="551.1" cy="344.1" r="7.2"/>
	<text id="granite_numbers" transform="matrix(1 2.629955e-03 -2.629955e-03 1 549.0637 346.3257)" class="st14 st7 st15">1</text>
	<circle id="pavalli_circle" class="st13" cx="524.3" cy="358.9" r="7.2"/>
	<text id="pavalli_numbers" transform="matrix(1 2.629955e-03 -2.629955e-03 1 522.2784 361.1183)" class="st14 st7 st15">1</text>
	<circle id="missoula_circle" class="st13" cx="539.3" cy="315.7" r="7.2"/>
	<text id="missoula_numbers" transform="matrix(1 2.629955e-03 -2.629955e-03 1 537.3291 317.9183)" class="st14 st7 st15">1</text>
	<circle id="teton_circle" class="st13" cx="603.5" cy="282.1" r="7.2"/>
	<text id="teton_numbers" transform="matrix(1 2.629955e-03 -2.629955e-03 1 601.5125 284.3332)" class="st14 st7 st15">1</text>
	<circle id="pondera_circle" class="st13" cx="609.5" cy="259.4" r="7.2"/>
	<text id="pondera_numbers" transform="matrix(1 2.629955e-03 -2.629955e-03 1 607.5341 261.7035)" class="st14 st7 st15">1</text>
	<circle id="toole_circle" class="st13" cx="628.6" cy="242" r="7.2"/>
	<text id="toole_numbers" transform="matrix(1 2.629955e-03 -2.629955e-03 1 626.5599 244.272)" class="st14 st7 st15">1</text>
	<circle id="lake_circle" class="st13" cx="536.7" cy="274.5" r="7.2"/>
	<text id="lake_numbers" transform="matrix(1 2.629955e-03 -2.629955e-03 1 534.6783 276.8073)" class="st14 st7 st15">1</text>
	<circle id="mineral_circle" class="st13" cx="502.8" cy="295.8" r="7.2"/>
	<text id="mineral_numbers" transform="matrix(1 2.629955e-03 -2.629955e-03 1 500.7718 298.0294)" class="st14 st7 st15">1</text>
	<circle id="glacier_circle" class="st13" cx="586.4" cy="234" r="7.2"/>
	<text id="glacier_numbers" transform="matrix(1 2.629955e-03 -2.629955e-03 1 584.4229 236.3036)" class="st14 st7 st15">1</text>
	<circle id="flathead_circle" class="st13" cx="544.7" cy="242.4" r="7.2"/>
	<text id="flathead_numbers" transform="matrix(1 2.629955e-03 -2.629955e-03 1 542.7581 244.6592)" class="st14 st7 st15">1</text>
	
		<ellipse id="sanders_circle" transform="matrix(0.3162 -0.9487 0.9487 0.3162 87.7319 668.9204)" class="st13" cx="507.9" cy="273.6" rx="7.2" ry="7.2"/>
	<text id="sanders_numbers" transform="matrix(1 2.629955e-03 -2.629955e-03 1 505.9044 275.8887)" class="st14 st7 st15">1</text>
	<circle id="lincoln_circle" class="st13" cx="504" cy="226.3" r="7.2"/>
	<text id="lincoln_numbers" transform="matrix(1 2.629955e-03 -2.629955e-03 1 502.0526 228.6073)" class="st14 st7 st15">1</text>
</g>
<g id="TYPES_1_">
	<g>
		<circle id="_x34__1_" class="st13" cx="853.2" cy="-46.7" r="32.2"/>
		
			<text id="_x34__numbers_1_" transform="matrix(1 2.629919e-03 -2.629919e-03 1 823.0071 -39.6099)" class="st14 st7" style="font-size:19.1873px;">10,000</text>
	</g>
	<g>
		<circle id="_x33__1_" class="st13" cx="776.8" cy="-45.4" r="23.3"/>
		
			<text id="_x33__numbers_1_" transform="matrix(1 2.629927e-03 -2.629927e-03 1 755.5164 -39.6369)" class="st14 st7" style="font-size:16.629px;">1,000</text>
	</g>
	<g>
		<circle id="_x32__1_" class="st13" cx="713.5" cy="-44.3" r="15.9"/>
		
			<text id="_x32__numbers_1_" transform="matrix(1 2.629909e-03 -2.629909e-03 1 699.7887 -38.5736)" class="st14 st7" style="font-size:15.3498px;">100</text>
	</g>
	<g>
		<circle id="_x31__2_" class="st13" cx="614.9" cy="-43" r="9.2"/>
		
			<text id="_x31__numbers_2_" transform="matrix(1 2.629946e-03 -2.629946e-03 1 612.1063 -39.3376)" class="st14 st7" style="font-size:9.4077px;">1</text>
	</g>
	<g>
		<circle id="_x31__1_" class="st13" cx="660.9" cy="-43" r="12.3"/>
		
			<rect x="654.7" y="-48.2" transform="matrix(2.629838e-03 -1 1 2.629838e-03 701.5388 618.4852)" class="st16" width="12.3" height="11.5"/>
		
			<text id="_x31__numbers_1_" transform="matrix(1 2.629900e-03 -2.629900e-03 1 653.9501 -39.4916)" class="st14 st7" style="font-size:11.5124px;">10</text>
	</g>
</g>
	<image style="overflow:visible;" width="160" height="104" id="LOGO" xlink:href="../maps/SR Logos/Montana.png"  transform="matrix(0.4392 0 0 0.4392 838.7281 5.0807)">
	</image>
</svg>
