<?xml version="1.0" encoding="utf-8"?>
<!-- Generator: Adobe Illustrator 23.0.5, SVG Export Plug-In . SVG Version: 6.00 Build 0)  -->
<svg version="1.1" id="Layer" xmlns="http://www.w3.org/2000/svg" xmlns:xlink="http://www.w3.org/1999/xlink" x="0px" y="0px"
	 viewBox="0 0 916.5 740.2" style="enable-background:new 0 0 916.5 740.2;" xml:space="preserve">
<style type="text/css">
	.st0{fill:#CD483B;}
	.st1{fill:none;}
	.st2{fill:#F5FBFE;}
	.st3{fill:#DDEEFA;}
	.st4{fill:#255078;}
	.st5{font-family:'Georgia';}
	.st6{font-size:18px;}
	.st7{font-size:16px;}
	.st8{fill:#4C4B4D;}
	.st9{font-family:'ArialMT';}
	.st10{font-size:14px;}
	.st11{fill:#4C4B4C;}
	.st12{fill:#DB3029;}
	.st13{font-size:36px;}
	.st14{fill:#AED9F4;}
	.st15{fill:#FFFFFF;}
	.st16{font-size:5.5953px;}
</style>
<g id="TYPES_1_">
	<g>
		<circle id="_x34__1_" class="st0" cx="892.5" cy="-35.6" r="21.2"/>
		
			<text id="_x34__numbers_1_" transform="matrix(1 2.629919e-03 -2.629919e-03 1 872.7257 -30.8926)" class="st15 st9" style="font-size:12.6191px;">10,000</text>
	</g>
	<g>
		<circle id="_x33__1_" class="st0" cx="842.3" cy="-34.7" r="15.3"/>
		
			<text id="_x33__numbers_1_" transform="matrix(1 2.629927e-03 -2.629927e-03 1 828.3376 -30.9102)" class="st15 st9" style="font-size:10.9365px;">1,000</text>
	</g>
	<g>
		<circle id="_x32__1_" class="st0" cx="800.7" cy="-34" r="10.4"/>
		
			<text id="_x32__numbers_1_" transform="matrix(1 2.629909e-03 -2.629909e-03 1 791.6873 -30.2113)" class="st15 st9" style="font-size:10.0953px;">100</text>
	</g>
	<g>
		<circle id="_x31__2_" class="st0" cx="735.8" cy="-33.1" r="6.1"/>
		
			<text id="_x31__numbers_2_" transform="matrix(1 2.629946e-03 -2.629946e-03 1 734.0209 -30.7137)" class="st15 st9" style="font-size:6.1872px;">1</text>
	</g>
	<g>
		<circle id="_x31__1_" class="st0" cx="766.1" cy="-33.1" r="8.1"/>
		
			<rect x="762" y="-36.6" transform="matrix(2.629838e-03 -1 1 2.629838e-03 796.808 733.3658)" class="st1" width="8.1" height="7.6"/>
		
			<text id="_x31__numbers_1_" transform="matrix(1 2.629900e-03 -2.629900e-03 1 761.5403 -30.8146)" class="st15 st9" style="font-size:7.5715px;">10</text>
	</g>
</g>
<g id="texts">
	<polygon id="blue_bg" class="st2" points="0,604.8 0,641.8 0,651.4 0,740.2 173.5,740.2 173.5,651.4 915,651.4 915,604.8 	"/>
	<path id="line_bg" class="st3" d="M916.5-0.3H0v130.2v475.3v2v43v2v43v2v43l0,0h579.8l0,0H913l0,0h3.5V-0.3z M913,56.6v548.5H578.4
		l-0.6-0.3v0.3H443.6l-0.6-0.3v0.3H3V56.6H913z M913,607.2v43H579.8v-43H913z M445.1,650.2v-43h132.8v43H445.1z M577.8,652.2v43
		H445.1v-43H577.8z M310.3,650.2v-43h132.8v43H310.3z M443.1,652.2v43H310.3v-43H443.1z M175.5,650.2v-43h132.8v43H175.5z
		 M308.3,652.2v43H175.5v-43H308.3z M173.5,607.2v43H3v-43H173.5z M173.5,652.2v43H3v-43H173.5z M3,697.2h170.5v40H3V697.2z
		 M175.5,697.2h132.8v40H175.5V697.2z M310.3,697.2h132.8v40H310.3V697.2z M445.1,697.2h132.8v40H445.1V697.2z M579.8,652.2H913v85
		H579.8V652.2z"/>
	<text id="title" transform="matrix(1 0 0 1 22.167 35.8372)" class="st4 st5 st6">COVID-19 in Nebraska on</text>
	<text id="date" transform="matrix(1 0 0 1 233.4693 35.8372)" class="st4 st5 st6">April 7th, 2020</text>
	<text transform="matrix(1 0 0 1 29.0677 99.3656)" class="st4 st5 st7">State Confirmed Cases By County</text>
	<g>
		<text transform="matrix(1 0 0 1 28.7513 135.2285)" class="st8 st9 st10">Adams  10</text>
		<text transform="matrix(1 0 0 1 28.7513 157.9648)" class="st8 st9 st10">Antelope  10</text>
		<text transform="matrix(1 0 0 1 28.7513 180.7012)" class="st8 st9 st10">Arthur  10</text>
		<text transform="matrix(1 0 0 1 28.7298 203.4377)" class="st8 st9 st10">Banner  10</text>
		<text transform="matrix(1 0 0 1 28.7298 226.1746)" class="st8 st9 st10">Blaine  10</text>
		<text transform="matrix(1 0 0 1 28.7298 248.9111)" class="st8 st9 st10">Boone  10</text>
		<text transform="matrix(1 0 0 1 28.7298 271.6475)" class="st8 st9 st10">Box Butte  10</text>
		<text transform="matrix(1 0 0 1 28.7298 294.3841)" class="st8 st9 st10">Boyd  10</text>
		<text transform="matrix(1 0 0 1 28.7298 317.1204)" class="st8 st9 st10">Brown  10</text>
		<text transform="matrix(1 0 0 1 28.7299 339.8569)" class="st8 st9 st10">Buffalo  10</text>
		<text transform="matrix(1 0 0 1 28.7299 362.5931)" class="st8 st9 st10">Burt  10</text>
		<text transform="matrix(1 0 0 1 28.73 385.3299)" class="st8 st9 st10">Butler  10</text>
		<text transform="matrix(1 0 0 1 28.73 408.0667)" class="st8 st9 st10">Cass  10</text>
		<text transform="matrix(1 0 0 1 28.73 430.8032)" class="st8 st9 st10">Cedar  10</text>
		<text transform="matrix(1 0 0 1 28.73 453.539)" class="st8 st9 st10">Chase  10</text>
		<text transform="matrix(1 0 0 1 28.7299 476.2753)" class="st8 st9 st10">Cherry  10</text>
		<text transform="matrix(1 0 0 1 28.7299 499.0125)" class="st8 st9 st10">Cheyenne  10</text>
		<text transform="matrix(1 0 0 1 28.7299 521.7483)" class="st8 st9 st10">Clay  10</text>
		<text transform="matrix(1 0 0 1 28.73 544.4855)" class="st8 st9 st10">Colfax  10</text>
		<text transform="matrix(1 0 0 1 533.5501 271.6479)" class="st8 st9 st10">Cuming  10</text>
		<text transform="matrix(1 0 0 1 782.0995 226.0163)" class="st8 st9 st10">Custer  10</text>
		<text transform="matrix(1 0 0 1 532.9998 226.1747)" class="st8 st9 st10">Dakota  10</text>
		<text transform="matrix(1 0 0 1 662.9999 226.0161)" class="st8 st9 st10">Dawes  10</text>
		<text transform="matrix(1 0 0 1 782.0994 203.7758)" class="st8 st9 st10">Dawson  10</text>
		<text transform="matrix(1 0 0 1 150.2715 135.2287)" class="st8 st9 st10">Deuel  10</text>
		<text transform="matrix(1 0 0 1 150.2716 159.0342)" class="st8 st9 st10">Dixon  10</text>
		<text transform="matrix(1 0 0 1 150.2712 182.8398)" class="st8 st9 st10">Dodge  10</text>
		<text transform="matrix(1 0 0 1 150.2712 206.6456)" class="st8 st9 st10">Douglas  10</text>
		<text transform="matrix(1 0 0 1 150.2712 230.4513)" class="st8 st9 st10">Dundy  10</text>
		<text transform="matrix(1 0 0 1 150.2712 254.257)" class="st8 st9 st10">Fillmore  10</text>
		<text transform="matrix(1 0 0 1 150.2713 278.0623)" class="st8 st9 st10">Franklin  10</text>
		<text transform="matrix(1 0 0 1 150.2713 301.868)" class="st8 st9 st10">Frontier  10</text>
		<text transform="matrix(1 0 0 1 150.2713 325.6739)" class="st8 st9 st10">Furnas  10</text>
		<text transform="matrix(1 0 0 1 150.2713 349.4796)" class="st8 st9 st10">Gage  10</text>
		<text transform="matrix(1 0 0 1 150.2713 373.2855)" class="st8 st9 st10">Garden  10</text>
		<text transform="matrix(1 0 0 1 150.2713 397.0908)" class="st8 st9 st10">Garfield  10</text>
		<text transform="matrix(1 0 0 1 150.2713 420.8964)" class="st8 st9 st10">Gosper  10</text>
		<text transform="matrix(1 0 0 1 150.2713 444.7026)" class="st8 st9 st10">Grant  10</text>
		<text transform="matrix(1 0 0 1 150.2713 468.5074)" class="st8 st9 st10">Greeley  10</text>
		<text transform="matrix(1 0 0 1 150.2713 492.3132)" class="st8 st9 st10">Hall  10</text>
		<text transform="matrix(1 0 0 1 150.2713 516.1187)" class="st8 st9 st10">Hamilton  10</text>
		<text transform="matrix(1 0 0 1 150.2713 539.9245)" class="st8 st9 st10">Harlan  10</text>
		<text transform="matrix(1 0 0 1 782.0997 254.2567)" class="st8 st9 st10">Hayes  10</text>
		<text transform="matrix(1 0 0 1 533.1005 135.2284)" class="st8 st9 st10">Hitchcock  10</text>
		<text transform="matrix(1 0 0 1 533.1003 157.9651)" class="st8 st9 st10">Holt  10</text>
		<text transform="matrix(1 0 0 1 533.1003 180.7015)" class="st8 st9 st10">Hooker  10</text>
		<text transform="matrix(1 0 0 1 533.1005 203.4384)" class="st8 st9 st10">Howard  10</text>
		<text transform="matrix(1 0 0 1 265.8315 135.2287)" class="st8 st9 st10">Jefferson  10</text>
		<text transform="matrix(1 0 0 1 265.8315 159.0342)" class="st8 st9 st10">Johnson  10</text>
		<text transform="matrix(1 0 0 1 265.8313 182.8401)" class="st8 st9 st10">Kearney  10</text>
		<text transform="matrix(1 0 0 1 265.8313 206.6455)" class="st8 st9 st10">Keith  10</text>
		<text transform="matrix(1 0 0 1 265.8313 230.451)" class="st8 st9 st10">Keya Paha  10</text>
		<text transform="matrix(1 0 0 1 265.8315 254.2571)" class="st8 st9 st10">Kimball  10</text>
		<text transform="matrix(1 0 0 1 265.8316 278.0626)" class="st8 st9 st10">Knox  10</text>
		<text transform="matrix(1 0 0 1 265.8316 301.8682)" class="st8 st9 st10">Lancaster  10</text>
		<text transform="matrix(1 0 0 1 265.8316 325.6739)" class="st8 st9 st10">Lincoln  10</text>
		<text transform="matrix(1 0 0 1 265.8316 349.4794)" class="st8 st9 st10">Logan  10</text>
		<text transform="matrix(1 0 0 1 265.8316 373.2854)" class="st8 st9 st10">Loup  10</text>
		<text transform="matrix(1 0 0 1 265.8314 397.091)" class="st8 st9 st10">Madison  10</text>
		<text transform="matrix(1 0 0 1 265.8314 420.8968)" class="st8 st9 st10">McPherson  10</text>
		<text transform="matrix(1 0 0 1 265.8314 444.702)" class="st8 st9 st10">Merrick  10</text>
		<text transform="matrix(1 0 0 1 265.8314 468.5074)" class="st8 st9 st10">Morrill  10</text>
		<text transform="matrix(1 0 0 1 265.8314 492.3134)" class="st8 st9 st10">Nance  10</text>
		<text transform="matrix(1 0 0 1 265.8314 516.1196)" class="st8 st9 st10">Nemaha  10</text>
		<text transform="matrix(1 0 0 1 265.8316 539.9247)" class="st8 st9 st10">Nuckolls  10</text>
		<text transform="matrix(1 0 0 1 661.6607 248.9115)" class="st8 st9 st10">Otoe  10</text>
		<text transform="matrix(1 0 0 1 661.6606 135.2289)" class="st8 st9 st10">Pawnee  10</text>
		<text transform="matrix(1 0 0 1 661.6606 157.9256)" class="st8 st9 st10">Perkins  10</text>
		<text transform="matrix(1 0 0 1 661.6606 180.6227)" class="st8 st9 st10">Phelps  10</text>
		<text transform="matrix(1 0 0 1 661.6603 203.3192)" class="st8 st9 st10">Pierce  10</text>
		<text transform="matrix(1 0 0 1 388.2703 135.2286)" class="st8 st9 st10">Platte  10</text>
		<text transform="matrix(1 0 0 1 388.2703 157.9254)" class="st8 st9 st10">Polk  10</text>
		<text transform="matrix(1 0 0 1 388.2703 180.6223)" class="st8 st9 st10">Red Willow  10</text>
		<text transform="matrix(1 0 0 1 388.2703 203.319)" class="st8 st9 st10">Richardson  10</text>
		<text transform="matrix(1 0 0 1 388.2706 226.0164)" class="st8 st9 st10">Rock  10</text>
		<text transform="matrix(1 0 0 1 388.2706 248.7132)" class="st8 st9 st10">Saline  10</text>
		<text transform="matrix(1 0 0 1 388.2706 271.4102)" class="st8 st9 st10">Sarpy  10</text>
		<text transform="matrix(1 0 0 1 388.2708 294.1069)" class="st8 st9 st10">Saunders  10</text>
		<text transform="matrix(1 0 0 1 388.2708 316.8037)" class="st8 st9 st10">Scotts Bluff  10</text>
		<text transform="matrix(1 0 0 1 388.2708 339.5004)" class="st8 st9 st10">Seward  10</text>
		<text transform="matrix(1 0 0 1 388.2702 362.198)" class="st8 st9 st10">Sheridan  10</text>
		<text transform="matrix(1 0 0 1 388.2702 384.8945)" class="st8 st9 st10">Sherman  10</text>
		<text transform="matrix(1 0 0 1 388.2702 407.5917)" class="st8 st9 st10">Sioux  10</text>
		<text transform="matrix(1 0 0 1 388.2702 430.2884)" class="st8 st9 st10">Stanton  10</text>
		<text transform="matrix(1 0 0 1 388.2702 452.9854)" class="st8 st9 st10">Thayer  10</text>
		<text transform="matrix(1 0 0 1 388.2702 475.6824)" class="st8 st9 st10">Thomas  10</text>
		<text transform="matrix(1 0 0 1 388.2702 498.3787)" class="st8 st9 st10">Thurston  10</text>
		<text transform="matrix(1 0 0 1 388.2702 521.0761)" class="st8 st9 st10">Valley  10</text>
		<text transform="matrix(1 0 0 1 388.2702 543.7725)" class="st8 st9 st10">Washington  10</text>
		<text transform="matrix(1 0 0 1 533.55 248.9108)" class="st8 st9 st10">Wayne  10</text>
		<text transform="matrix(1 0 0 1 782.0995 137.0547)" class="st8 st9 st10">Webster  10</text>
		<text transform="matrix(1 0 0 1 782.0995 159.2953)" class="st8 st9 st10">Wheeler  10</text>
		<text transform="matrix(1 0 0 1 782.0995 181.5352)" class="st8 st9 st10">York  10</text>
	</g>
</g>
<g id="table_data">
	<text transform="matrix(1 0 0 1 22.167 676.069)" class="st4 st9 st10">Confirmed Cases</text>
	<text transform="matrix(1 0 0 1 22.167 720.0006)" class="st4 st9 st10">Deaths</text>
	<text id="current_date" transform="matrix(1 0 0 1 205.6966 631.7866)" class="st4 st9 st10">6 Apr. 2020</text>
	<text id="previous_date" transform="matrix(1 0 0 1 340.4748 631.7866)" class="st4 st9 st10">5 Apr. 2020</text>
	<text id="growth_rate__x25_" transform="matrix(1 0 0 1 459.543 631.7866)" class="st4 st9 st10">Growth Rate %</text>
	<text transform="matrix(1 0 0 1 674.818 631.7866)" class="st4 st9 st10">Total Confirmed Cases</text>
	<text id="current_сases" transform="matrix(1 0 0 1 228.5522 679.8209)" class="st11 st9 st7">783</text>
	<text id="previous_deaths" transform="matrix(1 0 0 1 371.2653 724.3004)" class="st11 st9 st7">14</text>
	<text id="current_deaths" transform="matrix(1 0 0 1 232.0725 723.3207)" class="st11 st9 st7">15</text>
	<text id="total_cases" transform="matrix(1 0 0 1 733.2673 708.9641)" class="st12 st9 st13">783</text>
	<text id="previous_сases" transform="matrix(1 0 0 1 363.3525 679.8209)" class="st11 st9 st7">673</text>
	<text id="cases_growth_rate" transform="matrix(1 0 0 1 493.2656 681.3572)" class="st11 st9 st7">16 %</text>
	<text id="death_growth_rate" transform="matrix(1 0 0 1 497.6649 725.8364)" class="st11 st9 st7">7 %</text>
</g>
<g id="Counties">
	<path id="harlan" class="st14" d="M728.7,530.4v-9l-19.1-0.3v14.8c5.8,0.2,11.6,0.3,17.6,0.5v-6H728.7L728.7,530.4z"/>
	<polygon id="perkins" class="st14" points="604.4,492 632.5,493.3 632.5,493.3 636.9,493.5 636.9,477.3 605.4,476 	"/>
	<polygon id="chase" class="st14" points="603.3,512.4 630.3,513.8 632.2,495.4 604.3,494.2 	"/>
	<polygon id="dawson" class="st14" points="701.3,477.4 686.1,477.4 684.2,495.6 686.4,495.7 702.2,498.7 718.6,498.7 718.6,479.1 
		702.1,479.1 	"/>
	<polygon id="frontier" class="st14" points="659.4,515.7 687,517.7 687,512.2 692,512.2 692,499 686.1,497.8 659.4,496.6 	"/>
	<polygon id="hayes" class="st14" points="639.1,495.7 634.4,495.5 632.4,513.9 634.6,514 634.6,514 657.3,515.6 657.2,496.5 	"/>
	<path id="franklin_1_" class="st14" d="M730.9,532.6h-1.5v3.9c5.8,0.2,11.7,0.3,17.6,0.4l0.9-15.2l-17.1-0.3L730.9,532.6
		L730.9,532.6z"/>
	<polygon id="kearney" class="st14" points="749.3,500.9 747.7,500.9 747.7,502.8 730.9,502.5 730.9,519.2 748.1,519.5 	"/>
	<path id="nemaha" class="st14" d="M869.7,527h2.1h1.1h16c-0.1-0.1-0.2-0.2-0.3-0.3c-1-1.1-2.1-2.3-2.8-3.9c-0.7-1.5-0.9-2.9-1-4.2
		c-0.1-0.7-0.2-1.4-0.4-1.9c-0.1-0.1-0.8-2.6-1.4-4.3h-13.3L869.7,527L869.7,527z"/>
	<path id="pawnee" class="st14" d="M853,538.5c6,0.1,11.9,0.1,17.7,0.1v-9.3H853V538.5z"/>
	<path id="gage" class="st14" d="M832.7,517.5h-1.5v3.1v1v16.5c6.5,0.1,13.1,0.1,19.6,0.2v-26l-17.8,0.1L832.7,517.5z"/>
	<polygon id="johnson_1_" class="st14" points="853,527 867.5,527 867.5,512.4 853,512.4 	"/>
	<path id="lancaster" class="st14" d="M833.1,500.6v1.1v8.6l17.7-0.1v-27.3h-9.7c-0.6,0-1.1-0.3-1.4-0.7c-0.3-0.5-0.3-1.1-0.2-1.7
		H833L833.1,500.6L833.1,500.6z"/>
	<polygon id="blaine" class="st14" points="686.2,434.4 708.5,435.1 708.5,415.8 686.2,415.1 	"/>
	<polygon id="polk" class="st14" points="800.3,465.8 794.4,469.2 791,472.3 791,478.3 810.6,478.3 810.7,460.8 810.2,460.9 	"/>
	<polygon id="york" class="st14" points="790.9,498.7 801.2,498.7 802.1,500.6 810.5,500.6 810.6,480.5 791,480.5 	"/>
	<polygon id="saline" class="st14" points="812.6,512.5 811.2,512.5 811.1,520.4 829,520.7 829,515.4 830.7,515.4 830.9,511.3 
		830.9,502.8 812.6,502.8 	"/>
	<path id="jefferson_1_" class="st14" d="M811.1,538c6,0.1,11.9,0.2,17.9,0.2v-15.4l-17.9-0.3V538z"/>
	<path id="thayer" class="st14" d="M790.7,537.8c6.1,0.1,12.1,0.2,18.3,0.3v-15.6l-18.2-0.3L790.7,537.8z"/>
	<polygon id="fillmore" class="st14" points="790.8,520.1 809,520.4 809,510.3 810.4,510.3 810.5,502.8 800.7,502.8 799.8,500.9 
		790.9,500.9 	"/>
	<polygon id="douglas" class="st14" points="871.5,460.9 853.4,461 855.8,465.3 857.8,469.6 857.8,470.7 872.3,470.7 871.5,469.1 	
		"/>
	<polygon id="seward" class="st14" points="812.7,500.6 830.9,500.6 830.9,480.5 812.7,480.5 	"/>
	<polygon id="washington_1_" class="st14" points="853,444.1 853,451.1 855.7,458.8 871.5,458.7 871.5,455 864.8,444.1 	"/>
	<path id="cass_1_" class="st14" d="M867.7,480.5l-2,3.9l-0.7-0.1c-5-0.2-5.5-0.7-5.8-0.9c-0.2-0.2-0.4-0.3-0.5-0.4h-2.5v1.3H853v11
		h23.7v-13.8l-0.3-1H867.7L867.7,480.5z"/>
	<polygon id="otoe" class="st14" points="876.7,497.5 853,497.5 853,510.2 882.1,510.2 876.7,501.5 	"/>
	<path id="sarpy" class="st14" d="M873.5,472.9h-15.7v2.7h1.5v5.3h0.3l0.3,0.3c0,0,0.2,0.2,0.6,0.5c0.5,0.2,2.3,0.3,3.9,0.4l2-3.8
		h9.3l-1-3.2L873.5,472.9z"/>
	<polygon id="stanton" class="st14" points="812.6,436.9 817.8,436.9 817.8,436.9 825.7,437 825.7,419.2 812.6,419.2 	"/>
	<polygon id="butler" class="st14" points="812.8,478.3 830.9,478.3 830.9,457.9 828.4,457.9 824.4,460.4 817.8,460.4 812.8,460.4 	
		"/>
	<polygon id="colfax" class="st14" points="817.8,458.3 823.7,458.3 827.9,455.7 830.9,455.7 830.9,439.2 817.8,439.1 	"/>
	<polygon id="wayne_1_" class="st14" points="812.6,404.2 812.6,417 835.8,417 835.8,409.5 827.8,404.2 	"/>
	<polygon id="cuming" class="st14" points="837.9,419.2 827.9,419.2 827.9,437 832,437 841.2,436.9 841.2,438.7 847.6,438.7 
		847.6,424.9 846.9,424.9 	"/>
	<polygon id="thomas" class="st14" points="661.2,414 659,432.3 662.1,433.7 665,433.7 666.2,433.7 666.2,433.7 684.1,434.3 
		684.1,415 673.1,414.6 	"/>
	<polygon id="sherman" class="st14" points="730.9,477 748.8,477 748.8,459.4 730.9,459.4 	"/>
	<polygon id="garfield" class="st14" points="730.9,435.7 748.8,436.3 748.8,427.6 750.7,426 750.7,417.3 730.9,416.6 	"/>
	<polygon id="loup" class="st14" points="710.6,435.1 728.7,435.7 728.7,416.5 710.6,415.9 	"/>
	<polygon id="valley" class="st14" points="730.9,457.2 748.8,457.2 748.8,438.5 730.9,437.9 	"/>
	<polygon id="custer" class="st14" points="686.2,445.8 684,445.8 684,455.7 685.9,455.8 685.9,467.5 684.3,467.5 684.3,475.2 
		702.8,475.2 703.5,476.9 728.7,477 728.7,437.8 686.2,436.5 	"/>
	<polygon id="brown" class="st14" points="690.7,413.1 709.6,413.7 710.3,413.7 710.3,377.8 699.4,375.1 690.7,371.8 	"/>
	<polygon id="rock" class="st14" points="728.7,405.5 730.5,405.5 730.5,373.5 730,373.5 725.6,375.6 721.3,378.4 713,378.4 
		712.5,378.3 712.5,413.8 728.7,414.4 	"/>
	<polygon id="holt" class="st14" points="770.5,377.1 758.3,377.1 747.5,372.1 743,369.2 740.5,369.2 732.7,373.7 732.7,407.6 
		730.9,407.6 730.9,414.4 751.8,415.2 770.1,415.2 	"/>
	<polygon id="buffalo" class="st14" points="720.8,498.7 725.8,498.7 725.8,500.3 745.6,500.6 745.6,498.7 749.4,498.7 750.6,479.2 
		748.8,479.2 748.8,479.2 720.8,479.1 	"/>
	<polygon id="adams_1_" class="st14" points="769.1,500.9 751.4,500.9 750.3,519.6 768.9,519.8 	"/>
	<polygon id="greeley" class="st14" points="769.8,439.1 751,438.6 751,457.2 769.6,457.2 	"/>
	<polygon id="howard" class="st14" points="769.5,459.4 751,459.4 751,477 751.8,477 752.9,477 752.9,477.2 769.3,478.9 	"/>
	<polygon id="wheeler" class="st14" points="770,417.4 752.8,417.4 752.8,427 751,428.6 751,436.4 769.8,436.9 	"/>
	<polygon id="hall" class="st14" points="769.3,481.1 752.8,479.3 751.6,498.7 769.1,498.7 	"/>
	<path id="webster" class="st14" d="M768.9,522l-18.7-0.3l-0.9,15.2c6.4,0.2,12.9,0.3,19.5,0.4L768.9,522z"/>
	<path id="dundy" class="st14" d="M602.1,532.3c4.6,0.2,14.5,0.6,28.2,1.1l1.9-17.4l-29.1-1.5L602.1,532.3z"/>
	<polygon id="gosper" class="st14" points="708.9,500.9 701.9,500.9 694.2,499.4 694.2,514.4 689.2,514.4 689.2,517.9 702.3,518.8 
		707.4,518.9 707.4,508.4 708.9,508.4 	"/>
	<path id="red_willow" class="st14" d="M657.6,534.4c7.6,0.3,15.8,0.5,24.5,0.8v-15.6l-22.8-1.6L657.6,534.4z"/>
	<path id="richardson" class="st14" d="M890.6,529.2H873v9.3c8.1,0,16.1,0,24-0.1c-1.3-1.8-2.5-3.6-3.7-5.3
		C892.4,531.8,891.5,530.5,890.6,529.2z"/>
	<path id="furnas" class="st14" d="M684.3,535.2c7.4,0.2,15.1,0.5,23.1,0.7v-14.8l-5.2-0.1l-18-1.3v15.5L684.3,535.2L684.3,535.2z"
		/>
	<path id="hitchcock" class="st14" d="M634.4,516.2l-1.9,17.4c6.8,0.3,14.5,0.5,22.9,0.8l1.7-16.5L634.4,516.2z"/>
	<polygon id="deuel" class="st14" points="579.1,469.1 601.5,470.6 601.5,462.6 579.1,460.9 	"/>
	<polygon id="kimball" class="st14" points="515.5,465 541.8,466.7 542.8,463.7 544.6,448.1 517,446 	"/>
	<polygon id="banner" class="st14" points="517.1,443.9 544.8,446 546.5,431 518.4,427.4 	"/>
	<polygon id="cheyenne" class="st14" points="546.7,448.3 546.7,448.3 544.9,464.3 544,466.8 576.9,468.9 576.9,447.6 547,445.8 	
		"/>
	<polygon id="burt" class="st14" points="857.2,422.2 853.7,424.9 849.8,424.9 849.8,439.3 852.3,442 863.5,442 863,441.1 
		863,432.6 859.7,421.9 	"/>
	<polygon id="thurston" class="st14" points="839.7,407.4 838,409.3 838,417 838.5,417 847.5,422.7 853,422.7 856.3,420.2 
		859,419.8 855.2,407.4 	"/>
	<path id="dakota" class="st14" d="M848,395c-0.9-0.1-1.7-0.3-2.4-0.5l-0.9,1.6l-3.4,9.2h13.2l-2.8-9.1L848,395z"/>
	<path id="dixon" class="st14" d="M829.2,380.2v22.2l7.4,5l2.5-2.8l3.6-9.7l1-1.7c-2-1.7-3-4.3-3.7-6.1c-0.2-0.6-0.5-1.2-0.7-1.6
		c-2.7-3.2-6.2-5.3-9.3-5.3C829.8,380.2,829.5,380.2,829.2,380.2z"/>
	<polygon id="pierce" class="st14" points="793.1,397.4 793.1,417 810.4,417 810.4,403.4 806.1,397.4 	"/>
	<path id="cedar" class="st14" d="M827.1,402v-21.8c-1.7-0.2-3.3-0.6-5.2-1.9l-0.4-0.4c-0.5-0.5-0.9-0.9-1.4-1.4
		c-1.5-1.6-2.5-2.6-3.9-2.9l-0.6-0.2c-1.2-0.6-3.5-0.7-6.1-0.4v11.9l-1.8,0.7v10.3l4.3,6.1L827.1,402L827.1,402z"/>
	<polygon id="madison_1_" class="st14" points="793.1,437 810.4,436.9 810.4,419.2 793.1,419.2 	"/>
	<path id="platte" class="st14" d="M793.1,451.2c1.9,3.9,4.1,8.3,4.6,8.8c0.3,0.2,2.7,1.4,4.8,2.3l7-3.5l1.3-0.4v-0.3h1.1h3.8V439
		h-4l-18.5,0.1L793.1,451.2L793.1,451.2z"/>
	<polygon id="scotts_bluff" class="st14" points="546.7,412.1 519.9,409.2 518.6,425.2 546.7,428.9 548.5,412.2 546.8,412.2 	"/>
	<polygon id="box_butte" class="st14" points="548.7,394.4 546.9,395.4 546.9,404.9 548.4,410 551,410 551,410.1 576.4,411.4 
		575.3,408.6 575.3,397.3 576.8,395.9 576.8,387.7 549,385.7 	"/>
	<polygon id="morrill" class="st14" points="577.3,413.6 550.7,412.3 547.2,443.7 576.9,445.4 576.9,437.9 578.2,437.9 578.2,430.4 
		576.9,430.4 576.9,416.8 578.2,416.8 578.2,413.7 577.3,413.7 	"/>
	<path id="nuckolls" class="st14" d="M770.9,537.4c5.8,0.1,11.7,0.2,17.6,0.3l0.1-15.4l-17.5-0.3L770.9,537.4z"/>
	<polygon id="clay" class="st14" points="771.1,519.8 788.6,520.1 788.7,500.9 771.3,500.9 	"/>
	<path id="merrick" class="st14" d="M771.4,485.9l2.4-1.9l4-3.2c0.5-0.3,1.7-0.9,2.1-1.3c0.4-0.2,1.8-1.5,2.7-2.3l1.2-1.6l4.9-1.7
		v-2.7l4.4-3.9l2.5-1.5h-13.2v1.5h-10.9L771.4,485.9z"/>
	<path id="hamilton_1_" class="st14" d="M771.3,498.7h17.4l0.1-22.4l-3.6,1.2l-1,1.4c-0.4,0.4-2.5,2.1-3,2.5s-1.8,1.1-2.2,1.3
		l-3.8,3l-2.7,2.1l-1,1.6L771.3,498.7z"/>
	<polygon id="grant_1_" class="st14" points="607.3,412.8 607.3,421.4 605.1,423.2 605.1,429.1 608.5,430.4 632.5,431.1 
		633.3,412.4 609,411.1 	"/>
	<polygon id="mcpherson" class="st14" points="633.8,451.9 639.1,452.1 639.1,452.1 661.8,453.9 663.8,435.9 661.6,435.9 
		657.6,434.1 634.6,433.4 	"/>
	<polygon id="arthur" class="st14" points="609.4,432.6 609.2,442.9 607.3,442.9 607.3,450.5 631.7,451.7 632.4,433.3 	"/>
	<polygon id="keith" class="st14" points="605.1,454.7 603.7,460.1 603.7,470.7 605.7,470.8 605.5,473.9 636.9,475.1 636.9,454.2 
		606.8,452.6 	"/>
	<polygon id="hooker" class="st14" points="635.4,412.5 634.7,431.2 656.9,431.9 659,413.8 	"/>
	<polygon id="garden" class="st14" points="579.1,440.1 579.1,458.7 601.5,460.4 601.6,459.7 603.1,453.7 605.2,451.1 605.2,440.7 
		607,440.7 607.2,432.2 603,430.7 603,422.2 605.2,420.4 605.2,415.8 580.4,413.8 580.4,419 579.1,419 579.1,428.2 580.4,428.2 
		580.4,440.1 	"/>
	<polygon id="dodge" class="st14" points="848.2,440.8 839,440.8 839,439.1 833.1,439.2 833.1,455.7 836.2,455.7 851.7,458.8 
		853.4,458.8 850.8,451.3 850.8,443.5 	"/>
	<path id="sheridan" class="st14" d="M577.4,398.3v9.9l1.3,3.4h1.6v0.1l24.8,2v-1.6l1.7-1.8l0.4-49.4l1.8-1.6l-0.2-1.9
		c-9.3-0.6-19.1-1.2-29.3-1.9l-1,22.3l-1,8l1.4,0.1v11.3L577.4,398.3z"/>
	<polygon id="antelope" class="st14" points="790.9,397.4 772.4,397.4 772.1,427 790.9,427 	"/>
	<path id="nance" class="st14" d="M771.7,465.3h8.7v-1.5h19.2l0.4-0.2c-1.5-0.7-3.2-1.5-3.7-1.9c-0.6-0.5-2.3-3.5-4.9-9l-7.7,1.5
		h-11.8L771.7,465.3z"/>
	<polygon id="boone_1_" class="st14" points="771.8,452.1 783.4,452.1 790.9,450.6 790.9,429.2 772.1,429.2 	"/>
	<path id="cherry" class="st14" d="M673.1,412.4l15.4,0.5v-51.4c-21.3-1-47.1-2.4-77.5-4.2l0.3,2.7l-1.9,1.7l-0.4,47.2L673.1,412.4z
		"/>
	<path id="saunders" class="st14" d="M853.9,466.3l-3-5.3l-15-3H833v20.4h9.8L842,480c-0.2,0.3-0.3,0.6-0.4,0.9h11.2v1.4h1V481h3.1
		v-3.1h-1.5v-7.7L853.9,466.3z"/>
	<polygon id="phelps" class="st14" points="711,500.9 711,510.6 709.5,510.6 709.5,518.9 728.7,519.2 728.7,502.5 723.7,502.4 
		723.7,500.9 	"/>
	<polygon id="logan" class="st14" points="684.1,443.6 684.1,436.5 666,435.9 664,454.1 681.9,455.5 681.9,443.6 	"/>
	<polygon id="lincoln" class="st14" points="639.1,493.6 682,495.5 683.9,477.4 682.1,477.4 682.1,465.3 683.7,465.3 683.7,457.8 
		639.1,454.3 	"/>
	<path id="sioux" class="st14" d="M520.1,407l26,2.8l-1.4-4.8v-10.9l1.8-1l0.3-7.5h-2v-11.7h2.1v-9.7h-2.1v-10.8h2v-0.3
		c-7.2-0.5-14.7-1-22.3-1.6L520.1,407z"/>
	<path id="knox_1_" class="st14" d="M778.3,374.7c-0.8-0.8-1.6-1.7-2.2-2l-3.4-1.2l-0.3,23.6h33.1v-11l1.8-0.7v-10.1
		c-0.3,0.1-0.5,0.1-0.8,0.2l-0.4,0.1h-0.4c-1.4,0-2.8,0.2-4.2,0.4c-1.4,0.2-2.6,0.4-3.9,0.4c-0.4,0-0.9,0.2-1.5,0.3
		c-0.8,0.2-1.8,0.5-2.9,0.5c-0.7,0-0.9,0.2-2,1.1c-0.8,0.7-1.8,1.5-3.2,2.3l-0.2,0.1C783.7,380.2,780.5,376.9,778.3,374.7z"/>
	<path id="dawes" class="st14" d="M549.3,355.9h-1.8v6.4h2.1v14.1h-2.1v7.4h2.1v0.1l26.3,1.9l1-8l1-22.3c-9.2-0.6-18.6-1.3-28.4-1.9
		L549.3,355.9z"/>
	<path id="keya_paha" class="st14" d="M730.2,364.3c-8-0.6-16-1.2-24.1-1.9l-15.4-0.5c0,2.4,0.1,4.8,0.1,7.2
		c6.8,2.3,13.6,4.7,20.4,7c3.2,0,6.5-0.1,9.7-0.1c3.1-1.6,6.1-3.3,9.2-4.9C730.1,368.8,730.2,366.5,730.2,364.3z"/>
	<path id="boyd" class="st14" d="M766.9,365.8c-11.1-0.6-22.3-1.2-33.4-1.8c-0.2,2.5-0.4,4.9-0.6,7.4c2.8-1.4,5.5-2.8,8.3-4.3
		c6.3,2.8,12.6,5.5,19,8.3c3.3-0.1,6.7-0.1,10-0.2c0.1-2.5,0.1-5,0.2-7.5C769.2,367.1,768,366.5,766.9,365.8z"/>
</g>
<g id="balls">
	<circle id="morrill_circle" class="st0" cx="563.5" cy="429.3" r="5.5"/>
	<text id="morrill_numbers" transform="matrix(0.986 2.629903e-03 -2.593113e-03 1 560.4875 431.3529)" class="st15 st9 st16">10</text>
	<circle id="cheyenne_circle" class="st0" cx="561.7" cy="457.1" r="5.5"/>
	<text id="cheyenne_numbers" transform="matrix(0.986 2.629903e-03 -2.593113e-03 1 558.6595 459.1363)" class="st15 st9 st16">10</text>
	<circle id="banner_circle_1_" class="st0" cx="530" cy="456.4" r="5.5"/>
	<text id="banner_numbers_1_" transform="matrix(0.986 2.629903e-03 -2.593113e-03 1 527.0372 458.4348)" class="st15 st9 st16">10</text>
	<circle id="banner_circle" class="st0" cx="531.5" cy="436.7" r="5.5"/>
	<text id="banner_numbers" transform="matrix(0.986 2.629903e-03 -2.593113e-03 1 528.509 438.8018)" class="st15 st9 st16">10</text>
	<circle id="scotts_bluff_circle" class="st0" cx="533.5" cy="418.3" r="5.5"/>
	<text id="scotts_bluff_numbers" transform="matrix(0.986 2.629903e-03 -2.593113e-03 1 530.5371 420.4194)" class="st15 st9 st16">10</text>
	<circle id="sioux_circle" class="st0" cx="533" cy="384.2" r="5.5"/>
	<text id="sioux_numbers" transform="matrix(0.986 2.629903e-03 -2.593113e-03 1 529.9907 386.3308)" class="st15 st9 st16">10</text>
	<circle id="box_butte_circle" class="st0" cx="561.7" cy="398.8" r="5.5"/>
	<text id="box_butte_numbers" transform="matrix(0.986 2.629903e-03 -2.593113e-03 1 558.6406 400.9279)" class="st15 st9 st16">10</text>
	<circle id="dawes_circle" class="st0" cx="563.1" cy="370.6" r="5.5"/>
	<text id="dawes_numbers" transform="matrix(0.986 2.629903e-03 -2.593113e-03 1 560.0801 372.6512)" class="st15 st9 st16">10</text>
	<circle id="sheridan_circle" class="st0" cx="592.9" cy="386.3" r="5.5"/>
	<text id="sheridan_numbers" transform="matrix(0.986 2.629903e-03 -2.593113e-03 1 589.9136 388.3901)" class="st15 st9 st16">10</text>
	<circle id="garden_circle" class="st0" cx="591.9" cy="439.1" r="5.5"/>
	<text id="garden_numbers" transform="matrix(0.986 2.629903e-03 -2.593113e-03 1 588.8635 441.2089)" class="st15 st9 st16">10</text>
	<circle id="deuel_circle" class="st0" cx="590.3" cy="465.9" r="5.5"/>
	<text id="deuel_numbers" transform="matrix(0.986 2.629903e-03 -2.593113e-03 1 587.2871 468.033)" class="st15 st9 st16">10</text>
	<circle id="arthur_circle" class="st0" cx="620.1" cy="442" r="5.5"/>
	<text id="arthur_numbers" transform="matrix(0.986 2.629903e-03 -2.593113e-03 1 617.0546 444.0439)" class="st15 st9 st16">10</text>
	<circle id="grant_circle" class="st0" cx="619.4" cy="421.4" r="5.5"/>
	<text id="grant_numbers" transform="matrix(0.986 2.629903e-03 -2.593113e-03 1 616.4183 423.5157)" class="st15 st9 st16">10</text>
	<circle id="cherry_circle" class="st0" cx="650.5" cy="387.3" r="5.5"/>
	<text id="cherry_numbers" transform="matrix(0.986 2.629903e-03 -2.593113e-03 1 647.4573 389.3902)" class="st15 st9 st16">10</text>
	<circle id="hooker_circle" class="st0" cx="646.5" cy="422" r="5.5"/>
	<text id="hooker_numbers" transform="matrix(0.986 2.629903e-03 -2.593113e-03 1 643.5273 424.1134)" class="st15 st9 st16">10</text>
	<circle id="mcpherson_circle" class="st0" cx="649.3" cy="443.4" r="5.5"/>
	<text id="mcpherson_numbers" transform="matrix(0.986 2.629903e-03 -2.593113e-03 1 646.2424 445.5251)" class="st15 st9 st16">10</text>
	<circle id="thomas_circle" class="st0" cx="672.3" cy="423.8" r="5.5"/>
	<text id="thomas_numbers" transform="matrix(0.986 2.629903e-03 -2.593113e-03 1 669.2865 425.9194)" class="st15 st9 st16">10</text>
	<circle id="logan_circle" class="st0" cx="674.1" cy="445" r="5.5"/>
	<text id="logan_numbers" transform="matrix(0.986 2.629903e-03 -2.593113e-03 1 671.0646 447.1196)" class="st15 st9 st16">10</text>
	<circle id="keith_circle" class="st0" cx="621.5" cy="463.9" r="5.5"/>
	<text id="keith_numbers" transform="matrix(0.986 2.629903e-03 -2.593113e-03 1 618.4373 465.9354)" class="st15 st9 st16">10</text>
	<circle id="perkins_circle" class="st0" cx="621.5" cy="484.2" r="5.5"/>
	<text id="perkins_numbers" transform="matrix(0.986 2.629903e-03 -2.593113e-03 1 618.4374 486.2403)" class="st15 st9 st16">10</text>
	<circle id="lincoln_circle" class="st0" cx="659.9" cy="475.7" r="5.5"/>
	<text id="lincoln_numbers" transform="matrix(0.986 2.629903e-03 -2.593113e-03 1 656.892 477.8291)" class="st15 st9 st16">10</text>
	<circle id="custer_circle" class="st0" cx="707.5" cy="457.3" r="5.5"/>
	<text id="custer_numbers" transform="matrix(0.986 2.629903e-03 -2.593113e-03 1 704.5172 459.4345)" class="st15 st9 st16">10</text>
	<circle id="blaine_circle" class="st0" cx="697.4" cy="425.1" r="5.5"/>
	<text id="blaine_numbers" transform="matrix(0.986 2.629903e-03 -2.593113e-03 1 694.4172 427.1847)" class="st15 st9 st16">10</text>
	<circle id="loup_circle" class="st0" cx="719.7" cy="425.8" r="5.5"/>
	<text id="loup_numbers" transform="matrix(0.986 2.629903e-03 -2.593113e-03 1 716.6851 427.8847)" class="st15 st9 st16">10</text>
	<circle id="brown_circle" class="st0" cx="700.5" cy="396.1" r="5.5"/>
	<text id="brown_numbers" transform="matrix(0.986 2.629903e-03 -2.593113e-03 1 697.4884 398.2112)" class="st15 st9 st16">10</text>
	<circle id="rock_circle" class="st0" cx="720.8" cy="395.4" r="5.5"/>
	<text id="rock_numbers" transform="matrix(0.986 2.629903e-03 -2.593113e-03 1 717.8068 397.4901)" class="st15 st9 st16">10</text>
	<circle id="keya_paha_circle" class="st0" cx="710.6" cy="369" r="5.5"/>
	<text id="keya_paha_numbers" transform="matrix(0.986 2.629903e-03 -2.593113e-03 1 707.5891 371.0847)" class="st15 st9 st16">10</text>
	<circle id="holt_circle" class="st0" cx="751.6" cy="396.1" r="5.5"/>
	<text id="holt_numbers" transform="matrix(0.986 2.629903e-03 -2.593113e-03 1 748.5884 398.2108)" class="st15 st9 st16">10</text>
	<circle id="boyd_circle" class="st0" cx="753.4" cy="367.6" r="5.5"/>
	<text id="boyd_numbers" transform="matrix(0.986 2.629903e-03 -2.593113e-03 1 750.4183 369.6589)" class="st15 st9 st16">10</text>
	<circle id="garfield_circle" class="st0" cx="740.6" cy="426.5" r="5.5"/>
	<text id="garfield_numbers" transform="matrix(0.986 2.629903e-03 -2.593113e-03 1 737.5662 428.6016)" class="st15 st9 st16">10</text>
	<circle id="dawson_circle" class="st0" cx="701.5" cy="488" r="5.5"/>
	<text id="dawson_numbers" transform="matrix(0.986 2.629903e-03 -2.593113e-03 1 698.4883 490.1354)" class="st15 st9 st16">10</text>
	<circle id="wheeler_circle" class="st0" cx="761.3" cy="427.4" r="5.5"/>
	<text id="wheeler_numbers" transform="matrix(0.986 2.629903e-03 -2.593113e-03 1 758.3355 429.49)" class="st15 st9 st16">10</text>
	<circle id="valley_circle" class="st0" cx="739.8" cy="447.9" r="5.5"/>
	<text id="valley_numbers" transform="matrix(0.986 2.629903e-03 -2.593113e-03 1 736.8388 449.9845)" class="st15 st9 st16">10</text>
	<circle id="greeley_circle" class="st0" cx="760.7" cy="447.9" r="5.5"/>
	<text id="greeley_numbers" transform="matrix(0.986 2.629903e-03 -2.593113e-03 1 757.715 449.9846)" class="st15 st9 st16">10</text>
	<circle id="sherman_circle" class="st0" cx="740.4" cy="467.9" r="5.5"/>
	<text id="sherman_numbers" transform="matrix(0.986 2.629903e-03 -2.593113e-03 1 737.374 469.9607)" class="st15 st9 st16">10</text>
	<circle id="buffalo_circle" class="st0" cx="735.7" cy="489.5" r="5.5"/>
	<text id="buffalo_numbers" transform="matrix(0.986 2.629903e-03 -2.593113e-03 1 732.7308 491.6135)" class="st15 st9 st16">10</text>
	<circle id="howard_circle" class="st0" cx="760.7" cy="468.8" r="5.5"/>
	<text id="howard_numbers" transform="matrix(0.986 2.629903e-03 -2.593113e-03 1 757.7144 470.9056)" class="st15 st9 st16">10</text>
	<circle id="hall_circle" class="st0" cx="760.7" cy="489.7" r="5.5"/>
	<text id="hall_numbers" transform="matrix(0.986 2.629903e-03 -2.593113e-03 1 757.715 491.7866)" class="st15 st9 st16">10</text>
	<circle id="chase_circle" class="st0" cx="617.8" cy="503.9" r="5.5"/>
	<text id="chase_numbers" transform="matrix(0.986 2.629903e-03 -2.593113e-03 1 614.7388 505.9346)" class="st15 st9 st16">10</text>
	<circle id="dundy_circle" class="st0" cx="617.4" cy="524.2" r="5.5"/>
	<text id="dundy_numbers" transform="matrix(0.986 2.629903e-03 -2.593113e-03 1 614.4174 526.305)" class="st15 st9 st16">10</text>
	<circle id="hayes_circle" class="st0" cx="644.8" cy="505.6" r="5.5"/>
	<text id="hayes_numbers" transform="matrix(0.986 2.629903e-03 -2.593113e-03 1 641.7881 507.705)" class="st15 st9 st16">10</text>
	<circle id="hitchcock_circle" class="st0" cx="644.8" cy="525.3" r="5.5"/>
	<text id="hitchcock_numbers" transform="matrix(0.986 2.629903e-03 -2.593113e-03 1 641.7888 527.4181)" class="st15 st9 st16">10</text>
	<circle id="frontier_circle" class="st0" cx="674" cy="507.2" r="5.5"/>
	<text id="frontier_numbers" transform="matrix(0.986 2.629903e-03 -2.593113e-03 1 671.0383 509.2352)" class="st15 st9 st16">10</text>
	<circle id="red_willow_circle" class="st0" cx="669.8" cy="526.6" r="5.5"/>
	<text id="red_willow_numbers" transform="matrix(0.986 2.629903e-03 -2.593113e-03 1 666.8384 528.6851)" class="st15 st9 st16">10</text>
	<circle id="gosper_circle" class="st0" cx="700.5" cy="510" r="5.5"/>
	<text id="gosper_numbers" transform="matrix(0.986 2.629903e-03 -2.593113e-03 1 697.4889 512.1349)" class="st15 st9 st16">10</text>
	<circle id="furnas_circle" class="st0" cx="696.1" cy="527.6" r="5.5"/>
	<text id="furnas_numbers" transform="matrix(0.986 2.629903e-03 -2.593113e-03 1 693.0645 529.6887)" class="st15 st9 st16">10</text>
	<circle id="phelps_circle" class="st0" cx="719.7" cy="510.4" r="5.5"/>
	<text id="phelps_numbers" transform="matrix(0.986 2.629903e-03 -2.593113e-03 1 716.6846 512.4361)" class="st15 st9 st16">10</text>
	<circle id="harlan_circle" class="st0" cx="718.6" cy="528.5" r="5.5"/>
	<text id="harlan_numbers" transform="matrix(0.986 2.629903e-03 -2.593113e-03 1 715.5888 530.5388)" class="st15 st9 st16">10</text>
	<circle id="kearney_circle" class="st0" cx="739.8" cy="510.6" r="5.5"/>
	<text id="kearney_numbers" transform="matrix(0.986 2.629903e-03 -2.593113e-03 1 736.8392 512.735)" class="st15 st9 st16">10</text>
	<circle id="adams_circle" class="st0" cx="759.7" cy="510.6" r="5.5"/>
	<text id="adams_numbers" transform="matrix(0.986 2.629903e-03 -2.593113e-03 1 756.689 512.7352)" class="st15 st9 st16">10</text>
	<circle id="franklin_circle" class="st0" cx="738.7" cy="529.3" r="5.5"/>
	<text id="franklin_numbers" transform="matrix(0.986 2.629903e-03 -2.593113e-03 1 735.6385 531.3852)" class="st15 st9 st16">10</text>
	<circle id="webster_circle" class="st0" cx="758.9" cy="529" r="5.5"/>
	<text id="webster_numbers" transform="matrix(0.986 2.629903e-03 -2.593113e-03 1 755.9186 531.1161)" class="st15 st9 st16">10</text>
	<circle id="nuckolls_circle" class="st0" cx="779.8" cy="529.5" r="5.5"/>
	<text id="nuckolls_numbers" transform="matrix(0.986 2.629903e-03 -2.593113e-03 1 776.7388 531.5847)" class="st15 st9 st16">10</text>
	<circle id="clay_circle" class="st0" cx="779.8" cy="510" r="5.5"/>
	<text id="clay_numbers" transform="matrix(0.986 2.629903e-03 -2.593113e-03 1 776.7385 512.1353)" class="st15 st9 st16">10</text>
	<circle id="hamilton_circle" class="st0" cx="780.2" cy="490.3" r="5.5"/>
	<text id="hamilton_numbers" transform="matrix(0.986 2.629903e-03 -2.593113e-03 1 777.237 492.3826)" class="st15 st9 st16">10</text>
	<circle id="merrick_circle" class="st0" cx="780.4" cy="472.9" r="5.5"/>
	<text id="merrick_numbers" transform="matrix(0.986 2.629903e-03 -2.593113e-03 1 777.4169 474.9845)" class="st15 st9 st16">10</text>
	<circle id="nance_circle" class="st0" cx="783.5" cy="459" r="5.5"/>
	<text id="nance_numbers" transform="matrix(0.986 2.629903e-03 -2.593113e-03 1 780.4891 461.0854)" class="st15 st9 st16">10</text>
	<circle id="boone_circle" class="st0" cx="781.5" cy="440.7" r="5.5"/>
	<text id="boone_numbers" transform="matrix(0.986 2.629903e-03 -2.593113e-03 1 778.4888 442.7352)" class="st15 st9 st16">10</text>
	<circle id="antelope_circle" class="st0" cx="781.3" cy="412.5" r="5.5"/>
	<text id="antelope_numbers" transform="matrix(0.986 2.629903e-03 -2.593113e-03 1 778.3391 414.5852)" class="st15 st9 st16">10</text>
	<circle id="thayer_circle" class="st0" cx="800" cy="529.5" r="5.5"/>
	<text id="thayer_numbers" transform="matrix(0.986 2.629903e-03 -2.593113e-03 1 796.989 531.585)" class="st15 st9 st16">10</text>
	<circle id="fillmore_circle" class="st0" cx="800.7" cy="510.6" r="5.5"/>
	<text id="fillmore_numbers" transform="matrix(0.986 2.629903e-03 -2.593113e-03 1 797.6394 512.735)" class="st15 st9 st16">10</text>
	<circle id="york_circle" class="st0" cx="800.8" cy="489.9" r="5.5"/>
	<text id="york_numbers" transform="matrix(0.986 2.629903e-03 -2.593113e-03 1 797.8389 491.9346)" class="st15 st9 st16">10</text>
	<circle id="polk_circle" class="st0" cx="801.7" cy="471.7" r="5.5"/>
	<text id="polk_numbers" transform="matrix(0.986 2.629903e-03 -2.593113e-03 1 798.6719 473.8293)" class="st15 st9 st16">10</text>
	<circle id="platte_circle" class="st0" cx="804.8" cy="448.2" r="5.5"/>
	<text id="platte_numbers" transform="matrix(0.986 2.629903e-03 -2.593113e-03 1 801.8015 450.2594)" class="st15 st9 st16">10</text>
	<circle id="madison_circle" class="st0" cx="801.8" cy="428" r="5.5"/>
	<text id="madison_numbers" transform="matrix(0.986 2.629903e-03 -2.593113e-03 1 798.7385 430.0851)" class="st15 st9 st16">10</text>
	<circle id="pierce_circle" class="st0" cx="801.8" cy="407.4" r="5.5"/>
	<text id="pierce_numbers" transform="matrix(0.986 2.629903e-03 -2.593113e-03 1 798.7392 409.4853)" class="st15 st9 st16">10</text>
	<circle id="knox_circle" class="st0" cx="791.3" cy="386.6" r="5.5"/>
	<text id="knox_numbers" transform="matrix(0.986 2.629903e-03 -2.593113e-03 1 788.2441 388.7267)" class="st15 st9 st16">10</text>
	<circle id="jefferson_circle" class="st0" cx="820" cy="530.4" r="5.5"/>
	<text id="jefferson_numbers" transform="matrix(0.986 2.629903e-03 -2.593113e-03 1 817.0386 532.4354)" class="st15 st9 st16">10</text>
	<circle id="saline_circle" class="st0" cx="821" cy="511.8" r="5.5"/>
	<text id="saline_numbers" transform="matrix(0.986 2.629903e-03 -2.593113e-03 1 817.9893 513.8352)" class="st15 st9 st16">10</text>
	<circle id="seward_circle" class="st0" cx="821.6" cy="490.8" r="5.5"/>
	<text id="seward_numbers" transform="matrix(0.986 2.629903e-03 -2.593113e-03 1 818.5573 492.8629)" class="st15 st9 st16">10</text>
	<circle id="butler_circle" class="st0" cx="822.4" cy="468.8" r="5.5"/>
	<text id="butler_numbers" transform="matrix(0.986 2.629903e-03 -2.593113e-03 1 819.3652 470.906)" class="st15 st9 st16">10</text>
	<circle id="colfax_circle" class="st0" cx="824.2" cy="448.7" r="5.5"/>
	<text id="colfax_numbers" transform="matrix(0.986 2.629903e-03 -2.593113e-03 1 821.1889 450.7847)" class="st15 st9 st16">10</text>
	<circle id="stanton_circle" class="st0" cx="818.9" cy="428" r="5.5"/>
	<text id="stanton_numbers" transform="matrix(0.986 2.629903e-03 -2.593113e-03 1 815.9299 430.1299)" class="st15 st9 st16">10</text>
	<circle id="wayne_circle" class="st0" cx="823.3" cy="410.6" r="5.5"/>
	<text id="wayne_numbers" transform="matrix(0.986 2.629903e-03 -2.593113e-03 1 820.2534 412.7351)" class="st15 st9 st16">10</text>
	<circle id="cedar_circle" class="st0" cx="818.1" cy="390.2" r="5.5"/>
	<text id="cedar_numbers" transform="matrix(0.986 2.629903e-03 -2.593113e-03 1 815.1091 392.2906)" class="st15 st9 st16">10</text>
	<circle id="dixon_circle" class="st0" cx="835.5" cy="394" r="5.5"/>
	<text id="dixon_numbers" transform="matrix(0.986 2.629903e-03 -2.593113e-03 1 832.4772 396.1123)" class="st15 st9 st16">10</text>
	<circle id="cuming_circle" class="st0" cx="837.4" cy="428.3" r="5.5"/>
	<text id="cuming_numbers" transform="matrix(0.986 2.629903e-03 -2.593113e-03 1 834.4098 430.4077)" class="st15 st9 st16">10</text>
	<circle id="dodge_circle" class="st0" cx="842.6" cy="448.7" r="5.5"/>
	<text id="dodge_numbers" transform="matrix(0.986 2.629903e-03 -2.593113e-03 1 839.5728 450.7849)" class="st15 st9 st16">10</text>
	<circle id="saunders_circle" class="st0" cx="844" cy="469.1" r="5.5"/>
	<text id="saunders_numbers" transform="matrix(0.986 2.629903e-03 -2.593113e-03 1 841.0071 471.2127)" class="st15 st9 st16">10</text>
	<circle id="lancaster_circle" class="st0" cx="841.8" cy="496.5" r="5.5"/>
	<text id="lancaster_numbers" transform="matrix(0.986 2.629903e-03 -2.593113e-03 1 838.7856 498.624)" class="st15 st9 st16">10</text>
	<circle id="dakota_circle" class="st0" cx="847.7" cy="400.3" r="5.5"/>
	<text id="dakota_numbers" transform="matrix(0.986 2.629903e-03 -2.593113e-03 1 844.6486 402.3567)" class="st15 st9 st16">10</text>
	<circle id="thurston_circle" class="st0" cx="848.5" cy="414.2" r="5.5"/>
	<text id="thurston_numbers" transform="matrix(0.986 2.629903e-03 -2.593113e-03 1 845.5373 416.2908)" class="st15 st9 st16">10</text>
	<circle id="burt_circle" class="st0" cx="856.3" cy="433.5" r="5.5"/>
	<text id="burt_numbers" transform="matrix(0.986 2.629903e-03 -2.593113e-03 1 853.2891 435.5851)" class="st15 st9 st16">10</text>
	<circle id="washington_circle" class="st0" cx="860.7" cy="451.4" r="5.5"/>
	<text id="washington_numbers" transform="matrix(0.986 2.629903e-03 -2.593113e-03 1 857.7369 453.4574)" class="st15 st9 st16">10</text>
	<circle id="douglas_circle" class="st0" cx="863.8" cy="465.6" r="5.5"/>
	<text id="douglas_numbers" transform="matrix(0.986 2.629903e-03 -2.593113e-03 1 860.7683 467.7185)" class="st15 st9 st16">10</text>
	<circle id="sarpy_circle" class="st0" cx="865.7" cy="476.1" r="5.5"/>
	<text id="sarpy_numbers" transform="matrix(0.986 2.629903e-03 -2.593113e-03 1 862.6688 478.2129)" class="st15 st9 st16">10</text>
	<circle id="cass_circle" class="st0" cx="864.9" cy="489" r="5.5"/>
	<text id="cass_numbers" transform="matrix(0.986 2.629903e-03 -2.593113e-03 1 861.9041 491.0664)" class="st15 st9 st16">10</text>
	<circle id="otoe_circle" class="st0" cx="865.1" cy="503.5" r="5.5"/>
	<text id="otoe_numbers" transform="matrix(0.986 2.629903e-03 -2.593113e-03 1 862.1017 505.6071)" class="st15 st9 st16">10</text>
	<circle id="gage_circle" class="st0" cx="841.4" cy="526.2" r="5.5"/>
	<text id="gage_numbers" transform="matrix(0.986 2.629903e-03 -2.593113e-03 1 838.4276 528.2551)" class="st15 st9 st16">10</text>
	<circle id="johnson_circle" class="st0" cx="860.5" cy="519.8" r="5.5"/>
	<text id="johnson_numbers" transform="matrix(0.986 2.629903e-03 -2.593113e-03 1 857.4744 521.9181)" class="st15 st9 st16">10</text>
	<circle id="nemaha_circle" class="st0" cx="877.6" cy="519.4" r="5.5"/>
	<text id="nemaha_numbers" transform="matrix(0.986 2.629903e-03 -2.593113e-03 1 874.627 521.4922)" class="st15 st9 st16">10</text>
	<circle id="pawnee_circle" class="st0" cx="862.1" cy="534.1" r="5.5"/>
	<text id="pawnee_numbers" transform="matrix(0.986 2.629903e-03 -2.593113e-03 1 859.1044 536.1872)" class="st15 st9 st16">10</text>
	<circle id="richardson_circle" class="st0" cx="883.7" cy="534" r="5.5"/>
	<text id="richardson_numbers" transform="matrix(0.986 2.629903e-03 -2.593113e-03 1 880.7349 536.0388)" class="st15 st9 st16">10</text>
</g>
	<image style="overflow:visible;" width="160" height="104" id="LOGO" xlink:href="../maps/SR Logos/Nebraska.png"  transform="matrix(0.4392 0 0 0.4392 838.7281 5.0807)">
	</image>
</svg>
