<?xml version="1.0" encoding="utf-8"?>
<!-- Generator: Adobe Illustrator 23.0.5, SVG Export Plug-In . SVG Version: 6.00 Build 0)  -->
<svg version="1.1" id="Layer_1" xmlns="http://www.w3.org/2000/svg" xmlns:xlink="http://www.w3.org/1999/xlink" x="0px" y="0px"
	 viewBox="0 0 916.5 740.2" style="enable-background:new 0 0 916.5 740.2;" xml:space="preserve">
<style type="text/css">
	.st0{fill:#F5FBFE;}
	.st1{fill:#DDEEFA;}
	.st2{fill:#255078;}
	.st3{font-family:'Georgia';}
	.st4{font-size:18px;}
	.st5{font-size:16px;}
	.st6{fill:#4C4B4D;}
	.st7{font-family:'ArialMT';}
	.st8{font-size:14px;}
	.st9{fill:#ADD8F3;}
	.st10{fill:#CD483B;}
	.st11{fill:#FFFFFF;}
	.st12{font-size:10.3181px;}
	.st13{fill:#4C4B4C;}
	.st14{fill:#DB3029;}
	.st15{font-size:36px;}
	.st16{fill:none;}
</style>
<g id="Texts">
	<polygon id="blue_bg" class="st0" points="-0.1,604.9 -0.1,641.9 -0.1,651.5 -0.1,740.3 173.4,740.3 173.4,651.5 914.9,651.5 
		914.9,604.9 	"/>
	<path id="line_bg" class="st1" d="M916.4,1.1H-0.1v130v474.4v2v42.9v2v42.9v2v42.9l0,0h579.8l0,0h333.2l0,0h3.5V1.1z M912.9,57.9
		v547.6H578.3l-0.6-0.3v0.3H443.5l-0.6-0.3v0.3H2.9V57.9H912.9z M912.9,607.5v42.9H579.7v-42.9H912.9z M445,650.5v-42.9h132.8v42.9
		H445z M577.7,652.5v42.9H445v-42.9H577.7z M310.2,650.5v-42.9H443v42.9H310.2z M443,652.5v42.9H310.2v-42.9H443z M175.4,650.5
		v-42.9h132.8v42.9H175.4z M308.2,652.5v42.9H175.4v-42.9H308.2z M173.4,607.5v42.9H2.9v-42.9H173.4z M173.4,652.5v42.9H2.9v-42.9
		H173.4z M2.9,697.4h170.5v39.9H2.9V697.4z M175.4,697.4h132.8v39.9H175.4V697.4z M310.2,697.4H443v39.9H310.2V697.4z M445,697.4
		h132.8v39.9H445V697.4z M579.7,652.5h333.2v84.8H579.7V652.5z"/>
	<text id="title" transform="matrix(1 0 0 1 32.8483 35.8372)" class="st2 st3 st4">COVID-19 in New Mexico on</text>
	<text id="date" transform="matrix(1 0 0 1 267.4693 35.8372)" class="st2 st3 st4">April 27th, 2020</text>
	<text id="state_confirmed" transform="matrix(1 0 0 1 80.5113 153.405)" class="st2 st3 st5">State Confirmed Cases By County</text>
	<g>
		<text transform="matrix(1 0 0 1 80.2066 220.8547)" class="st6 st7 st8">Catron  10</text>
		<text transform="matrix(1 0 0 1 80.2066 246.9187)" class="st6 st7 st8">Chaves  10</text>
		<text transform="matrix(1 0 0 1 80.2066 272.9832)" class="st6 st7 st8">Cibola  10</text>
		<text transform="matrix(1 0 0 1 80.2066 299.0471)" class="st6 st7 st8">Colfax  10</text>
		<text transform="matrix(1 0 0 1 80.2063 194.791)" class="st6 st7 st8">Bernalillo  10</text>
		<text transform="matrix(1 0 0 1 80.2067 325.1111)" class="st6 st7 st8">Curry  10</text>
		<text transform="matrix(1 0 0 1 80.2066 351.1753)" class="st6 st7 st8">De Baca  10</text>
		<text transform="matrix(1 0 0 1 205.9475 272.9829)" class="st6 st7 st8">Lincoln  10</text>
		<text transform="matrix(1 0 0 1 205.9475 325.1111)" class="st6 st7 st8">Luna  10</text>
		<text transform="matrix(1 0 0 1 205.9478 299.0469)" class="st6 st7 st8">Los Alamos  10</text>
		<text transform="matrix(1 0 0 1 205.948 377.2393)" class="st6 st7 st8">Mora  10</text>
		<text transform="matrix(1 0 0 1 205.948 403.3033)" class="st6 st7 st8">Otero  10</text>
		<text transform="matrix(1 0 0 1 205.948 429.3666)" class="st6 st7 st8">Quay  10</text>
		<text transform="matrix(1 0 0 1 205.9478 455.4312)" class="st6 st7 st8">Rio Arriba  10</text>
		<text transform="matrix(1 0 0 1 205.9477 351.1748)" class="st6 st7 st8">McKinley  10</text>
		<text transform="matrix(1 0 0 1 80.2066 377.239)" class="st6 st7 st8">Dona Ana  10</text>
		<text transform="matrix(1 0 0 1 80.2066 429.3668)" class="st6 st7 st8">Grant  10</text>
		<text transform="matrix(1 0 0 1 80.2064 403.3031)" class="st6 st7 st8">Eddy  10</text>
		<text transform="matrix(1 0 0 1 205.9475 194.791)" class="st6 st7 st8">Harding  10</text>
		<text transform="matrix(1 0 0 1 205.9475 220.855)" class="st6 st7 st8">Hidalgo  10</text>
		<text transform="matrix(1 0 0 1 205.9475 246.9192)" class="st6 st7 st8">Lea  10</text>
		<text transform="matrix(1 0 0 1 80.2063 455.4313)" class="st6 st7 st8">Guadalupe  10</text>
		<text transform="matrix(1 0 0 1 335.948 194.791)" class="st6 st7 st8">Roosevelt  10</text>
		<text transform="matrix(1 0 0 1 335.948 220.855)" class="st6 st7 st8">Sandoval  10</text>
		<text transform="matrix(1 0 0 1 335.948 246.9192)" class="st6 st7 st8">San Juan  10</text>
		<text transform="matrix(1 0 0 1 335.9483 272.9834)" class="st6 st7 st8">San Miguel  10</text>
		<text transform="matrix(1 0 0 1 335.9481 299.0471)" class="st6 st7 st8">Santa Fe  10</text>
		<text transform="matrix(1 0 0 1 335.9484 325.1108)" class="st6 st7 st8">Sierra  10</text>
		<text transform="matrix(1 0 0 1 335.948 351.1748)" class="st6 st7 st8">Sierra  10</text>
		<text transform="matrix(1 0 0 1 335.9485 403.3033)" class="st6 st7 st8">Torrance  10</text>
		<text transform="matrix(1 0 0 1 335.9483 377.2388)" class="st6 st7 st8">Taos  10</text>
		<text transform="matrix(1 0 0 1 335.9484 455.4312)" class="st6 st7 st8">Valencia  10</text>
		<text transform="matrix(1 0 0 1 335.9482 429.3668)" class="st6 st7 st8">Union  10</text>
	</g>
</g>
<g id="Counties">
	<path id="lea" class="st9" d="M813.4,411.4l-1.3-1h-3.9l-3.2,8.5l-2.9,35l-2.9-0.2l-2.8,27.9h6.2l-4.3,34.6
		c14.9,1.2,27.4,2,35.2,2.2c0.9-11.8,4.3-54,8.1-104l-24-2.2V412L813.4,411.4z"/>
	<polygon id="valencia" class="st9" points="654.7,303.8 657.1,301 648.6,297.8 644,297.8 642.5,300.2 632.8,300.1 623,297.6 
		619.9,293.5 619.5,291.5 614.9,292.2 612.2,315.6 629,317.4 629.2,317.5 653.5,330.3 653.9,327.9 652.4,327.9 652.4,312.4 	"/>
	<polygon id="de_baca" class="st9" points="781.8,375.7 781.8,369.5 796.6,369.3 796.6,344.9 798.2,335.9 787.8,333.1 787.8,322.4 
		778.3,322.4 772.2,332.3 746.7,329.8 742.6,365.2 748.6,365.2 748.6,371.2 	"/>
	<path id="roosevelt" class="st9" d="M841.9,411.7c1.3-16,2.5-32.6,3.8-49.3l-38-3.9l2.4-22.2h-9.3l-1.6,9v24.4l5.5,2.5v8.9
		l-2.8,2.2v6h8.5v8.8h-2v2.9h11.9v8.6L841.9,411.7z"/>
	<polygon id="grant" class="st9" points="509.9,445.9 516.7,451.8 510.6,497.6 525.8,501.6 532,453.1 536.8,452.9 549.9,457 
		549.9,451 560.2,451 561.5,452.9 562.1,452.9 564.4,444.9 564.4,434.9 560.6,411.9 544.1,408.3 494.1,401.5 490.4,428.9 
		498.4,431.9 498.4,443.8 	"/>
	<path id="dona_ana" class="st9" d="M626.8,500.1c0.2,0,4.1,0.4,10.6,1.1l7-64.7l3.2-3.7v-0.5l-31.5,11.5v4.2l-12.3-0.2l-13.4-1.4
		v9.3h0.2l-8.5,58.4c17.5,2.4,34,4.5,41.2,5.4l-1.2-2c-0.2-0.3-0.4-0.6-0.6-0.9c-0.3-0.4-0.6-0.9-1-1.3c-1.3-1.7-1.8-3.3-1.8-5.5
		c0-1.6,0-4,2-5.9c0.5-0.6,0.9-1,1.3-1.3c0.1-0.1,0.2-0.2,0.4-0.3l0.4-0.4l0.5-0.2c0.1-0.1,0.2-0.2,0.3-0.2c0.4-0.3,0.9-0.6,1.4-0.9
		l0.9-0.5H626.8z"/>
	<polygon id="lincoln" class="st9" points="713.2,418.1 711.4,428.5 732.3,430.9 742,348.1 720.4,345.8 720.2,347.4 717.7,352.4 
		685.3,349.3 680.4,380.3 673,380.3 673,392.4 652.4,388.2 650.3,395.4 650.1,401.1 652.3,405.4 688.4,409.9 688.4,415.4 	"/>
	<polygon id="sierra" class="st9" points="564.7,453 587.9,455.3 587.9,443.4 604,445.2 613.6,445.3 613.6,442 647.8,429.4 
		650.1,406.9 647.9,402.6 606.2,397.8 556.4,390.3 553.9,407.8 562.8,409.8 567,434.8 567,445.5 	"/>
	<path id="curry" class="st9" d="M844.1,313.8c-4.9,3.7-6.1,4.3-6.6,4.3c-0.6,0.2-2.5,1.5-4,2.8c-0.2,0.9-0.8,2.6-2.5,3.3
		c-1.5,0.6-6.6,3.4-6.7,3.5l-0.3,0.2h-6.6l-2.3,1.9l-2.2,4.8l-2.3,21.5l35.3,3.6c1.2-15.5,2.4-31,3.5-45.9L844.1,313.8L844.1,313.8
		L844.1,313.8z"/>
	<polygon id="san_miguel" class="st9" points="807.5,286 816.6,289.8 819.7,289.8 819.7,279.1 817.3,277.5 817.2,277.2 804.1,250.6 
		753.6,247.2 743.6,245.8 728.9,238.4 706.7,236.7 702.1,292 719.2,293.5 720.7,295.6 722.4,295.6 723.6,292.2 723.9,281.2 
		794.9,288 794.6,292.6 	"/>
	<path id="union_1_" class="st9" d="M853.6,255.5c2.1-28.2,3.4-48.3,3.4-52.6v-3.6l5.5,0.3v-29.3c-17.1-1.3-33.8-2.6-50.3-4
		l-5.5,55.1l35.8,8l-2.3,26h13.4L853.6,255.5L853.6,255.5z"/>
	<polygon id="mckinly" class="st9" points="511.2,275.5 539.6,279.2 544.4,255.2 609.1,263.1 615.7,216 599.1,213.9 599.1,213.9 
		599.1,213.9 597.9,213.8 597.9,213.8 521.1,203.1 	"/>
	<path id="quay" class="st9" d="M810.4,333.7l2.5-5.5l3.5-2.9h7c1.1-0.6,5.2-2.8,6.6-3.4c0.6-0.3,0.9-1.4,0.9-1.8l0.1-0.6l0.5-0.3
		c4-3,5.1-3.5,5.6-3.6c0.7-0.3,3.6-2.4,5.9-4.1l0.3-0.2h6.3c1.4-19.2,2.8-37.3,4-53.1h-13.4l-2.1,24l-15.7-2.2v12.4h-6.2l-8.5-3.5
		l-13.2,6.6l-1.3,21.1l-2.6,4.8v9.6l9.4,2.5L810.4,333.7L810.4,333.7z"/>
	<polygon id="guadalupe" class="st9" points="744.4,327 770.8,329.5 776.9,319.8 788.3,319.8 790.4,315.9 792.1,290.4 726.4,284 
		726.1,292.9 724.7,297.2 720.6,343.2 742.3,345.5 	"/>
	<polygon id="cibola" class="st9" points="507.6,301.7 551.4,309 588.7,313 609.7,315.3 612.5,289.8 619.2,288.9 616.5,271.4 
		609.7,265.8 546.5,258.1 541.7,282.1 510.9,278.1 	"/>
	<polygon id="torrance" class="st9" points="654.8,343.6 716.2,349.7 717.7,346.7 722,298.2 719.4,298.2 717.8,296 670.6,291.9 
		670.6,295.4 676.5,295.6 676.5,299.4 674.3,304.2 665.3,304.1 659.7,302 657,305 654.9,312.9 654.9,325.3 656.9,325.3 655.8,332.5 
			"/>
	<path id="san_juan" class="st9" d="M598.2,211.2l6.1-55.4l9.1-8.2l2.2-1.3c-14.1-1.7-27.7-3.4-40.7-5.1c-15.3-2-30.1-4-44.5-5.9
		l-8.9,65.2L598.2,211.2z"/>
	<polygon id="hidalgo" class="st9" points="526.4,506.2 525.9,504.3 507.7,499.5 514,452.9 508.8,448.3 495.8,446 495.8,433.7 
		490,431.6 476.4,531.9 473,531.5 523,538.6 527.7,505.8 	"/>
	<polygon id="carton" class="st9" points="551.4,407.2 554.2,387.4 569.3,389.6 578,337.3 576.2,335.5 576.3,328.9 579.7,314.6 
		551,311.6 507.3,304.3 494.4,399 544.5,405.8 	"/>
	<path id="eddy" class="st9" d="M795.7,515.8l4-31.8h-6.2l3.2-30.8l-57.7-5l-4,29.9l0,0l-4.7,31.9
		C753.2,512.2,776.4,514.3,795.7,515.8z"/>
	<polygon id="socorro" class="st9" points="670.4,389.2 670.4,377.6 678.2,377.6 682.7,349 652,346 653.2,333 628.2,319.9 
		588.4,315.6 582.3,314.9 578.8,329.4 578.8,334.5 580.8,336.5 571.8,390 606.6,395.2 647.5,399.9 647.8,394.9 650.5,385.1 	"/>
	<polygon id="chaves" class="st9" points="704.9,463.1 704.9,472.9 732.3,477.7 736.7,445.5 799.8,451 802.6,418.1 806.4,407.8 
		813.1,407.8 814.5,408.9 817.7,409.4 817.7,403.6 805.8,403.6 805.8,395.4 807.8,395.4 807.8,391.9 799.3,391.9 799.3,382.1 
		802.1,379.9 802.1,373.8 797.6,371.9 784.4,372.1 784.4,378.7 746,373.5 746,367.8 742.3,367.8 734.6,433.8 711,431.1 708.6,445.1 
			"/>
	<path id="luna" class="st9" d="M580.8,513.8l-1.3-0.2l8.2-55.8l-24.8-2.5h-2.8l-1.3-1.8h-6.4v6.9l-16-5.1l-2.2,0.2l-6,47.5l0.6,2.4
		l-1.3,0.3C535.8,507.6,559,510.9,580.8,513.8z"/>
	<path id="otero" class="st9" d="M732,480.3l-29.7-5.2v-12.3l3.7-18l4.2-24.4l-24.4-2.6v-5.5l-33.1-4.1l-2.3,22.4v3.3l-3.3,3.8
		l-6.9,63.9c18.1,1.8,52.3,5.1,87.5,8.5L732,480.3z"/>
	<path id="rio_arriba" class="st9" d="M606.7,157l-4.1,37.6l41.8,7.3l-2,14.7l34.5,5.7l6.1,5.1h2.6V221l21.9,3.7l4.7-1.5l-1.5-0.9
		l-5.9-3.8l-2.7-7.1l-4.9-3.9l-9.4-4.9v-4.3h5.1l3.2-3.2v-24.9h1.6l0.7-14.6c-27.9-2.9-54.5-5.9-79.6-8.9v0.8l-4.1,2.3L606.7,157z"
		/>
	<polygon id="los_alamos" class="st9" points="675.7,224.8 670.7,224 667,230.9 667,232.7 673.2,232.7 673.2,231.8 677.4,226.3 	"/>
	<polygon id="bernalillo" class="st9" points="624.5,295.3 633.3,297.6 641.1,297.6 642.6,295.2 649.3,295.2 666,301.6 672.6,301.6 
		673.9,298.8 673.9,298.2 667.9,297.9 667.9,290.6 667.7,282.7 670.4,282.7 670.4,280 619.3,272.3 622.3,292.4 	"/>
	<polygon id="sandoval" class="st9" points="600.7,211.6 618.6,213.8 611.6,264 618.4,269.5 669.8,277.3 673.2,248.2 673.2,235.3 
		664.4,235.3 664.4,230.2 667.9,223.5 639.4,218.8 641.4,204.1 602.3,197.3 	"/>
	<polygon id="santa_fe" class="st9" points="704.2,235.3 704,230.3 705.6,227.1 688.1,224.1 688.1,230.1 681.9,230.1 679.4,227.9 
		675.9,232.7 675.9,248.3 672.4,277.7 673,277.8 673,285.2 670.4,285.2 670.5,289.3 699.5,291.8 	"/>
	<polygon id="harding" class="st9" points="835.6,279.2 839.8,231.6 804,223.6 804.4,219.8 782.8,217.8 784.6,246.7 805.8,248.2 
		819.4,275.7 821.4,277.2 	"/>
	<polygon id="mora" class="st9" points="706.6,230.9 706.8,234.1 729.6,235.9 744.7,243.4 753.8,244.6 782,246.5 780.2,217.6 
		756.4,215.4 756.4,212.5 731.6,210.1 718.6,224.9 715.4,224.9 708.4,227.2 	"/>
	<path id="colfax" class="st9" d="M809.7,166.2c-23.2-2-45.6-4-67.5-6.1v13.6l-4.7,4.5h-3.6l-1.5,1.1v28.3l26.6,2.6v2.8l45.6,4.2
		L809.7,166.2z"/>
	<path id="taos" class="st9" d="M690.3,201L690.3,201l8.3,4.4l5.5,4.4l2.6,7l5.1,3.3l3.6,2.1h1.9l12.3-14.1V178l3.3-2.4h3.4l3.2-3
		v-12.7c-13.1-1.3-26-2.6-38.7-3.9l-0.8,16.9h-1.5v23.4l-4.7,4.7H690.3L690.3,201z"/>
</g>
<g id="Balls">
	<circle id="lea_circle" class="st10" cx="819.8" cy="466.6" r="10.4"/>
	<text id="lea_numbers" transform="matrix(1 2.630000e-03 -2.630000e-03 1 814.1352 469.3971)" class="st11 st7 st12">60</text>
	<circle id="eddy_circle" class="st10" cx="767.1" cy="484.2" r="10.4"/>
	<text id="eddy_numbers" transform="matrix(1 2.630000e-03 -2.630000e-03 1 761.4167 486.9226)" class="st11 st7 st12">60</text>
	<circle id="chaves_circle" class="st10" cx="766.4" cy="418.5" r="10.4"/>
	<text id="chaves_numbers" transform="matrix(1 2.630000e-03 -2.630000e-03 1 760.6926 421.2652)" class="st11 st7 st12">60</text>
	<circle id="otero_circle" class="st10" cx="675.9" cy="468.7" r="10.4"/>
	<text id="otero_numbers" transform="matrix(1 2.630000e-03 -2.630000e-03 1 670.1945 471.4578)" class="st11 st7 st12">60</text>
	<circle id="dona_ana_circle" class="st10" cx="614.5" cy="477.8" r="10.4"/>
	<text id="dona_ana_numbers" transform="matrix(1 2.630000e-03 -2.630000e-03 1 608.8296 480.5245)" class="st11 st7 st12">60</text>
	<circle id="luna_circle" class="st10" cx="560.7" cy="484.7" r="10.4"/>
	<text id="luna_numbers" transform="matrix(1 2.630000e-03 -2.630000e-03 1 555.0463 487.4578)" class="st11 st7 st12">60</text>
	<circle id="sierra_circle" class="st10" cx="600.7" cy="422.8" r="10.4"/>
	<text id="sierra_numbers" transform="matrix(1 2.630000e-03 -2.630000e-03 1 595.013 425.5189)" class="st11 st7 st12">60</text>
	<circle id="hidalgo_circle" class="st10" cx="499.7" cy="509.8" r="10.4"/>
	<text id="hidalgo_numbers" transform="matrix(1 2.630000e-03 -2.630000e-03 1 494.0537 512.5541)" class="st11 st7 st12">60</text>
	<circle id="grant_circle" class="st10" cx="526.8" cy="433.7" r="10.4"/>
	<text id="grant_numbers" transform="matrix(1 2.630000e-03 -2.630000e-03 1 521.087 436.4948)" class="st11 st7 st12">60</text>
	<circle id="roosevelt_circle" class="st10" cx="823.6" cy="380.8" r="10.4"/>
	<text id="roosevelt_numbers" transform="matrix(1 2.630000e-03 -2.630000e-03 1 817.9243 383.5378)" class="st11 st7 st12">60</text>
	<circle id="de_baca_circle" class="st10" cx="770" cy="351.5" r="10.4"/>
	<text id="de_baca_numbers" transform="matrix(1 2.630000e-03 -2.630000e-03 1 764.3593 354.3022)" class="st11 st7 st12">60</text>
	<circle id="lincoln_circle" class="st10" cx="709.8" cy="387.1" r="10.4"/>
	<text id="lincoln_numbers" transform="matrix(1 2.630000e-03 -2.630000e-03 1 704.0709 389.8689)" class="st11 st7 st12">60</text>
	<circle id="socorro_circle" class="st10" cx="624.3" cy="362.4" r="10.4"/>
	<text id="socorro_numbers" transform="matrix(1 2.630000e-03 -2.630000e-03 1 618.6463 365.1467)" class="st11 st7 st12">60</text>
	<circle id="carton_circle" class="st10" cx="537" cy="358.4" r="10.4"/>
	<text id="carton_numbers" transform="matrix(1 2.630000e-03 -2.630000e-03 1 531.363 361.1689)" class="st11 st7 st12">60</text>
	<circle id="curry_circle" class="st10" cx="830.6" cy="341.9" r="10.4"/>
	<text id="curry_numbers" transform="matrix(1 2.630000e-03 -2.630000e-03 1 824.8686 344.6189)" class="st11 st7 st12">60</text>
	<circle id="guadalupe_circle" class="st10" cx="753.3" cy="308.1" r="10.4"/>
	<text id="guadalupe_numbers" transform="matrix(1 2.630000e-03 -2.630000e-03 1 747.663 310.8689)" class="st11 st7 st12">60</text>
	<circle id="torrance_circle" class="st10" cx="692.6" cy="321.1" r="10.4"/>
	<text id="torrance_numbers" transform="matrix(1 2.630000e-03 -2.630000e-03 1 686.9185 323.9023)" class="st11 st7 st12">60</text>
	<circle id="valencia_circle" class="st10" cx="634.8" cy="308.5" r="10.4"/>
	<text id="valencia_numbers" transform="matrix(1 2.630000e-03 -2.630000e-03 1 629.1204 311.3134)" class="st11 st7 st12">60</text>
	<circle id="bernalillo_circle" class="st10" cx="646.7" cy="286.5" r="10.4"/>
	<text id="bernalillo_numbers" transform="matrix(1 2.630000e-03 -2.630000e-03 1 641.0241 289.2911)" class="st11 st7 st12">60</text>
	<circle id="cibola_circle" class="st10" cx="573.2" cy="286.5" r="10.4"/>
	<text id="cibola_numbers" transform="matrix(1 2.630000e-03 -2.630000e-03 1 567.5575 289.3134)" class="st11 st7 st12">60</text>
	<circle id="quay_circle" class="st10" cx="823.1" cy="304.1" r="10.4"/>
	<text id="quay_numbers" transform="matrix(1 2.630000e-03 -2.630000e-03 1 817.4019 306.9134)" class="st11 st7 st12">60</text>
	<circle id="san_miguel_circle" class="st10" cx="755.9" cy="265.5" r="10.4"/>
	<text id="san_miguel_numbers" transform="matrix(1 2.630000e-03 -2.630000e-03 1 750.2019 268.3134)" class="st11 st7 st12">60</text>
	<circle id="harding_circle" class="st10" cx="817.4" cy="241.5" r="10.4"/>
	<text id="harding_numbers" transform="matrix(1 2.630000e-03 -2.630000e-03 1 811.6797 244.2659)" class="st11 st7 st12">60</text>
	<circle id="mora_circle" class="st10" cx="751" cy="229.4" r="10.4"/>
	<text id="mora_numbers" transform="matrix(1 2.630000e-03 -2.630000e-03 1 745.313 232.1856)" class="st11 st7 st12">60</text>
	<circle id="santa_fe_circle" class="st10" cx="689.5" cy="259.8" r="10.4"/>
	<text id="santa_fe_numbers" transform="matrix(1 2.630000e-03 -2.630000e-03 1 683.8352 262.5689)" class="st11 st7 st12">60</text>
	<circle id="los_alamos_circle" class="st10" cx="672.4" cy="226.8" r="10.4"/>
	<text id="los_alamos_numbers" transform="matrix(1 2.630000e-03 -2.630000e-03 1 666.7352 229.6022)" class="st11 st7 st12">60</text>
	<circle id="sandoval_circle" class="st10" cx="643.1" cy="246.1" r="10.4"/>
	<text id="sandoval_numbers" transform="matrix(1 2.630000e-03 -2.630000e-03 1 637.363 248.8967)" class="st11 st7 st12">60</text>
	<circle id="mckinly_circle" class="st10" cx="564.8" cy="235.7" r="10.4"/>
	<text id="mckinly_numbers" transform="matrix(1 2.630000e-03 -2.630000e-03 1 559.1574 238.4967)" class="st11 st7 st12">60</text>
	<circle id="union_circle" class="st10" cx="835.2" cy="199.5" r="10.4"/>
	<text id="union_numbers" transform="matrix(1 2.630000e-03 -2.630000e-03 1 829.4686 202.2245)" class="st11 st7 st12">60</text>
	<circle id="colfax_circle" class="st10" cx="775.3" cy="190.2" r="10.4"/>
	<text id="colfax_numbers" transform="matrix(1 2.630000e-03 -2.630000e-03 1 769.6019 192.9301)" class="st11 st7 st12">60</text>
	<circle id="taos_circle" class="st10" cx="715.4" cy="189" r="10.4"/>
	<text id="taos_numbers" transform="matrix(1 2.630000e-03 -2.630000e-03 1 709.7574 191.7448)" class="st11 st7 st12">60</text>
	<circle id="rio_arriba_circle" class="st10" cx="659.7" cy="184" r="10.4"/>
	<text id="rio_arriba_numbers" transform="matrix(1 2.630000e-03 -2.630000e-03 1 654.0537 186.7671)" class="st11 st7 st12">60</text>
	<circle id="san_juan_circle" class="st10" cx="564.1" cy="173.6" r="10.4"/>
	<text id="san_juan_numbers" transform="matrix(1 2.630000e-03 -2.630000e-03 1 558.3796 176.3467)" class="st11 st7 st12">60</text>
</g>
<g id="table_data">
	<text transform="matrix(1 0 0 1 21.8998 679.262)" class="st2 st7 st8">Confirmed Cases</text>
	<text transform="matrix(1 0 0 1 21.8998 723.1937)" class="st2 st7 st8">Deaths</text>
	<text id="current_date" transform="matrix(1 0 0 1 205.4294 634.9799)" class="st2 st7 st8">6 Apr. 2020</text>
	<text id="previous_date" transform="matrix(1 0 0 1 340.2076 634.9799)" class="st2 st7 st8">5 Apr. 2020</text>
	<text id="growth_rate__x25_" transform="matrix(1 0 0 1 459.2758 634.9799)" class="st2 st7 st8">Growth Rate %</text>
	<text transform="matrix(1 0 0 1 674.5508 634.9799)" class="st2 st7 st8">Total Confirmed Cases</text>
	<text id="current_сases" transform="matrix(1 0 0 1 228.285 683.0141)" class="st13 st7 st5">783</text>
	<text id="previous_deaths" transform="matrix(1 0 0 1 370.998 727.4935)" class="st13 st7 st5">14</text>
	<text id="current_deaths" transform="matrix(1 0 0 1 231.8054 726.5137)" class="st13 st7 st5">15</text>
	<text id="total_cases" transform="matrix(1 0 0 1 721.1999 712.1569)" class="st14 st7 st15">783</text>
	<text id="previous_сases" transform="matrix(1 0 0 1 363.0854 683.0141)" class="st13 st7 st5">673</text>
	<text id="cases_growth_rate" transform="matrix(1 0 0 1 492.9984 684.5502)" class="st13 st7 st5">16 %</text>
	<text id="death_growth_rate" transform="matrix(1 0 0 1 497.3976 729.0296)" class="st13 st7 st5">7 %</text>
</g>
<g id="TYPES_1_">
	<g>
		<circle id="_x34__1_" class="st10" cx="881.9" cy="-56" r="32.2"/>
		
			<text id="_x34__numbers_1_" transform="matrix(1 2.629901e-03 -2.629901e-03 1 851.8668 -48.8897)" class="st11 st7" style="font-size:19.1695px;">10,000</text>
	</g>
	<g>
		<circle id="_x33__1_" class="st10" cx="805.6" cy="-54.8" r="23.3"/>
		
			<text id="_x33__numbers_1_" transform="matrix(1 2.629909e-03 -2.629909e-03 1 784.4376 -48.9165)" class="st11 st7" style="font-size:16.6136px;">1,000</text>
	</g>
	<g>
		<circle id="_x32__1_" class="st10" cx="742.4" cy="-53.6" r="15.8"/>
		
			<text id="_x32__numbers_1_" transform="matrix(1 2.629891e-03 -2.629891e-03 1 728.7627 -47.8541)" class="st11 st7" style="font-size:15.3356px;">100</text>
	</g>
	<g>
		<circle id="_x31__2_" class="st10" cx="643.9" cy="-52.3" r="9.2"/>
		
			<text id="_x31__numbers_2_" transform="matrix(1 2.629928e-03 -2.629928e-03 1 641.1622 -48.6174)" class="st11 st7" style="font-size:9.3989px;">1</text>
	</g>
	<g>
		<circle id="_x31__1_" class="st10" cx="689.9" cy="-52.3" r="12.3"/>
		
			<rect x="683.6" y="-57.5" transform="matrix(2.629838e-03 -1 1 2.629838e-03 739.7448 638.1242)" class="st16" width="12.3" height="11.5"/>
		
			<text id="_x31__numbers_1_" transform="matrix(1 2.629882e-03 -2.629882e-03 1 682.966 -48.7705)" class="st11 st7" style="font-size:11.5017px;">10</text>
	</g>
</g>
</svg>
