<?xml version="1.0" encoding="utf-8"?>
<!-- Generator: Adobe Illustrator 23.0.5, SVG Export Plug-In . SVG Version: 6.00 Build 0)  -->
<svg version="1.1" id="Layer_1" xmlns="http://www.w3.org/2000/svg" xmlns:xlink="http://www.w3.org/1999/xlink" x="0px" y="0px"
	 viewBox="0 0 916.5 740.2" style="enable-background:new 0 0 916.5 740.2;" xml:space="preserve">
<style type="text/css">
	.st0{fill:#F5FBFE;}
	.st1{fill:#DDEEFA;}
	.st2{fill:#255078;}
	.st3{font-family:'Georgia';}
	.st4{font-size:18px;}
	.st5{font-size:16px;}
	.st6{fill:#4C4B4D;}
	.st7{font-family:'ArialMT';}
	.st8{font-size:14px;}
	.st9{fill:#AED9F4;}
	.st10{fill:#CD483B;}
	.st11{fill:#FFFFFF;}
	.st12{font-size:9.8285px;}
	.st13{fill:#4C4B4C;}
	.st14{fill:#DB3029;}
	.st15{font-size:36px;}
	.st16{fill:none;}
</style>
<g id="Texts">
	<polygon id="blue_bg" class="st0" points="-0.1,604.9 -0.1,641.9 -0.1,651.5 -0.1,740.3 173.4,740.3 173.4,651.5 914.9,651.5 
		914.9,604.9 	"/>
	<path id="line_bg" class="st1" d="M916.4,1.1H-0.1v130v474.4v2v42.9v2v42.9v2v42.9l0,0h579.8l0,0h333.2l0,0h3.5V1.1z M912.9,57.9
		v547.6H578.3l-0.6-0.3v0.3H443.5l-0.6-0.3v0.3H2.9V57.9H912.9z M912.9,607.5v42.9H579.7v-42.9H912.9z M445,650.5v-42.9h132.8v42.9
		H445z M577.7,652.5v42.9H445v-42.9H577.7z M310.2,650.5v-42.9H443v42.9H310.2z M443,652.5v42.9H310.2v-42.9H443z M175.4,650.5
		v-42.9h132.8v42.9H175.4z M308.2,652.5v42.9H175.4v-42.9H308.2z M173.4,607.5v42.9H2.9v-42.9H173.4z M173.4,652.5v42.9H2.9v-42.9
		H173.4z M2.9,697.4h170.5v39.9H2.9V697.4z M175.4,697.4h132.8v39.9H175.4V697.4z M310.2,697.4H443v39.9H310.2V697.4z M445,697.4
		h132.8v39.9H445V697.4z M579.7,652.5h333.2v84.8H579.7V652.5z"/>
	<text id="title" transform="matrix(1 0 0 1 32.8483 35.8371)" class="st2 st3 st4">COVID-19 in New Hampshire on</text>
	<text id="date" transform="matrix(1 0 0 1 300.4693 35.8371)" class="st2 st3 st4">April 27th, 2020</text>
	<text transform="matrix(1 0 0 1 165.1513 262.6852)" class="st2 st3 st5">State Confirmed Cases By County</text>
	<text transform="matrix(1 0 0 1 164.868 330.1135)" class="st6 st7 st8">Carroll  10</text>
	<text transform="matrix(1 0 0 1 164.868 356.156)" class="st6 st7 st8">Cheshire  10</text>
	<text transform="matrix(1 0 0 1 164.868 382.1986)" class="st6 st7 st8">Coos  10</text>
	<text transform="matrix(1 0 0 1 164.868 408.2415)" class="st6 st7 st8">Grafton  10</text>
	<text transform="matrix(1 0 0 1 164.8683 304.0709)" class="st6 st7 st8">Belknap  10</text>
	<text transform="matrix(1 0 0 1 297.708 304.0709)" class="st6 st7 st8">Hillsborough  10</text>
	<text transform="matrix(1 0 0 1 297.708 330.1138)" class="st6 st7 st8">Merrimack  10</text>
	<text transform="matrix(1 0 0 1 297.708 356.1558)" class="st6 st7 st8">Rockingham  10</text>
	<text transform="matrix(1 0 0 1 297.708 408.2415)" class="st6 st7 st8">Sullivan  10</text>
	<text transform="matrix(1 0 0 1 297.7083 382.1984)" class="st6 st7 st8">Strafford  10</text>
</g>
<g id="Counties">
	<polygon id="belknap" class="st9" points="701.9,393.9 690.5,391.5 682,380.7 671.6,376 665.1,385.5 657.4,385.5 655.4,390 
		649,407.9 665.5,424.3 671.4,418.1 687.8,426.1 709.9,434.1 720.9,437.4 724,422.3 715,397.2 	"/>
	<polygon id="hillsborough" class="st9" points="725.6,535 709.3,519.8 709.3,496.3 695.7,493.8 672.3,480.7 635.8,480.7 
		631.1,483.3 631.1,487.7 631.1,491 631.1,499.6 638,523 643.9,523 659.5,550.1 	"/>
	<path id="cheshire" class="st9" d="M587.2,543.6c-0.8,2.4-1.7,4.3-3.2,6.6c-0.3,0.6-0.5,1.2-0.8,1.8c-0.2,0.4-0.4,0.8-0.5,1.2
		c0.2,1.1,1.5,2.6,4.1,4.6l2,1.6l2.1,6.2l62-14l-12.7-22h-7.1l-8.5-29.5v-5.8h-1.4l-1.6,6.1l-10.9,0.9l-4-7l1.3-3.3
		c-1.2,1.1-2.7,2.4-3.9,3c-0.9,0.5-8.3,4.9-14.5,8.5c1.1,2.4,1.7,5.1,1.7,8.1v5.9C591.5,524.7,591.5,534.1,587.2,543.6z"/>
	<path id="merrimack" class="st9" d="M625.9,425.2L625.9,425.2l-9.1,16.5v21.7l2.3,6.3l9.1,7.8l5.9-3.3h40l24.3,13.7l11.7,2
		l9.5-46.2l-11.8-3.3l-22.6-8.2l-12.4-6.1l-7.1,7.6l-20.9-20.8c-6.6,3.8-8.9,2.2-9.6,1.5c-0.7-0.6-2.4-2.3-4.1-4.2v5.3l-4.3,8l0,0
		v0.1L625.9,425.2z"/>
	<path id="rockingham" class="st9" d="M792.4,468.3l-12.6-8l-5.2,3.8l-23.2,7l-9.6-16.9l-16.2-8l-9.9,47.7V517l13.1,12.5l2.7-0.4v-1
		l12.5-15.8l6-9.5h8.1l13.9-16l19.4-4.2l1.8,8.4c0-4.7,0.9-9.4,2.5-14.5c1.8-5.5,0.5-9.9,1.3-15.5L792.4,468.3z"/>
	<path id="sullivan" class="st9" d="M576.9,485.1c-0.2,1.9,0.8,3.2,4.6,6.9c1.5,1.4,3.2,3.1,4.8,5c5-3,13.7-8.1,14.9-8.8
		c0.7-0.4,2.7-2.1,4.1-3.5l0.9-0.9h11.5l-3.9,10l0.4,0.7l2.3-0.2l1.7-6.5h6.3v-4.9l-11-9.4l-3.2-9.6v-24l8.1-14.7h-41.2l-0.3,1
		l1.4,41.3c1.5,5.4,0.3,10.1-0.6,13.7C577.3,482.7,577,483.9,576.9,485.1z"/>
	<path id="grafton" class="st9" d="M578.7,418.8H622l2.5-4.8v-21l5.7,6.6c3,3.5,6.6,7.6,8.2,9.1c0.9-0.4,2.5-1.2,4.1-2.1l6.9-19.1
		l3.8-8.5h8.4l2.2-3.2l-3.3-5.3l-10.9-17.2v-8.2l25.1-7.7v-11.8h-6v-17l-9.2-13l-3.1-1.1l-10.3-11.9h-19.4l-18-12.9l-22.6,19.1
		l-1.8,7.1l3.4,17.9l-0.7,71.1L578.7,418.8z"/>
	<polygon id="strafford" class="st9" points="729.8,401.9 721.2,394 721,394.6 730.7,421.8 727,439.7 746.4,449.3 754.5,463.4 
		772.3,458.1 774.3,456.7 772.5,455.5 772.5,439.4 759.8,436.2 736.7,418.6 736.7,397.3 	"/>
	<path id="coos" class="st9" d="M615.5,153.4l-3.3,43.1l17.2,19.3v36.5l-15.5,13.1l15,10.9h20.4l11.1,12.8l5,1.8l5.2-4.7l8.4-7.1
		l7.1-3.3l5.3-5.7l5.2-0.4l-55-170.5c-0.2,0.1-0.3,0.2-0.5,0.3c-12.2,6.7-10.5-11.7-17.5-9.7c-14.5,4.2-14.8,50.8-16.7,62.9
		L615.5,153.4z"/>
	<polygon id="carroll" class="st9" points="694.4,276.3 689.9,281.1 682.1,284.8 674.8,290.9 668.4,296.8 675.3,306.6 675.3,319.1 
		681.4,319.1 681.4,342.3 656.2,349.9 656.2,351.5 665.5,366.3 686.1,375.5 694.1,385.6 703.4,387.5 715.6,390.7 718.7,383.1 
		730.4,393.8 735.6,390.3 698.7,276 	"/>
</g>
<g id="balls">
	<circle id="rockingham_circle" class="st10" cx="743.6" cy="487.4" r="9.7"/>
	<circle id="hillsborough_circle" class="st10" cx="672.6" cy="515.3" r="9.7"/>
	<circle id="cheshire_circle" class="st10" cx="615.4" cy="532.2" r="9.7"/>
	<circle id="sullivan_circle" class="st10" cx="596" cy="456.6" r="9.7"/>
	<circle id="merrimack_circle" class="st10" cx="665.1" cy="453.4" r="9.7"/>
	<circle id="strafford_circle" class="st10" cx="741.4" cy="434.4" r="9.7"/>
	<circle id="belknap_circle" class="st10" cx="686.4" cy="406.4" r="9.7"/>
	<circle id="grafton_circle" class="st10" cx="620.5" cy="338.3" r="9.7"/>
	<circle id="carroll_circle" class="st10" cx="699.6" cy="341.1" r="9.7"/>
	<circle id="coos_circle" class="st10" cx="651" cy="215.8" r="9.7"/>
	<text id="rockingham_numbers" transform="matrix(1 2.629946e-03 -2.629946e-03 1 740.6798 490.4597)" class="st11 st7 st12">1</text>
	<text id="hillsborough_numbers" transform="matrix(1 2.629946e-03 -2.629946e-03 1 669.7286 518.3871)" class="st11 st7 st12">1</text>
	<text id="cheshire_numbers" transform="matrix(1 2.629946e-03 -2.629946e-03 1 612.4886 535.3188)" class="st11 st7 st12">1</text>
	<text id="sullivan_numbers" transform="matrix(1 2.629946e-03 -2.629946e-03 1 593.0486 459.7189)" class="st11 st7 st12">1</text>
	<text id="merrimack_numbers" transform="matrix(1 2.629946e-03 -2.629946e-03 1 662.1686 456.4789)" class="st11 st7 st12">1</text>
	<text id="strafford_numbers" transform="matrix(1 2.629946e-03 -2.629946e-03 1 738.5198 437.5397)" class="st11 st7 st12">1</text>
	<text id="belknap_numbers" transform="matrix(1 2.629946e-03 -2.629946e-03 1 683.4398 409.4597)" class="st11 st7 st12">1</text>
	<text id="grafton_numbers" transform="matrix(1 2.629946e-03 -2.629946e-03 1 617.5598 341.4197)" class="st11 st7 st12">1</text>
	<text id="carroll_numbers" transform="matrix(1 2.629946e-03 -2.629946e-03 1 696.7286 344.1589)" class="st11 st7 st12">1</text>
	<text id="coos_numbers" transform="matrix(1 2.629946e-03 -2.629946e-03 1 648.1287 218.8789)" class="st11 st7 st12">1</text>
</g>
<g id="table_data">
	<text transform="matrix(1 0 0 1 22.1599 676.1659)" class="st2 st7 st8">Confirmed Cases</text>
	<text transform="matrix(1 0 0 1 22.1599 720.0977)" class="st2 st7 st8">Deaths</text>
	<text id="current_date" transform="matrix(1 0 0 1 205.6895 631.8838)" class="st2 st7 st8">6 Apr. 2020</text>
	<text id="previous_date" transform="matrix(1 0 0 1 340.4677 631.8838)" class="st2 st7 st8">5 Apr. 2020</text>
	<text id="growth_rate__x25_" transform="matrix(1 0 0 1 459.5358 631.8838)" class="st2 st7 st8">Growth Rate %</text>
	<text transform="matrix(1 0 0 1 674.8108 631.8838)" class="st2 st7 st8">Total Confirmed Cases</text>
	<text id="current_сases" transform="matrix(1 0 0 1 228.5451 679.918)" class="st13 st7 st5">783</text>
	<text id="previous_deaths" transform="matrix(1 0 0 1 371.2582 724.3975)" class="st13 st7 st5">14</text>
	<text id="current_deaths" transform="matrix(1 0 0 1 232.0654 723.4178)" class="st13 st7 st5">15</text>
	<text id="total_cases" transform="matrix(1 0 0 1 712.7003 709.0615)" class="st14 st7 st15">783</text>
	<text id="previous_сases" transform="matrix(1 0 0 1 363.3454 679.918)" class="st13 st7 st5">673</text>
	<text id="cases_growth_rate" transform="matrix(1 0 0 1 493.2584 681.4543)" class="st13 st7 st5">16 %</text>
	<text id="death_growth_rate" transform="matrix(1 0 0 1 497.6577 725.9337)" class="st13 st7 st5">7 %</text>
</g>
<g id="TYPES_1_">
	<g>
		<circle id="_x34__1_" class="st10" cx="855" cy="-70.6" r="44.8"/>
		
			<text id="_x34__numbers_1_" transform="matrix(1 2.629882e-03 -2.629882e-03 1 813.2861 -60.609)" class="st11 st7" style="font-size:26.639px;">10,000</text>
	</g>
	<g>
		<circle id="_x33__1_" class="st10" cx="749" cy="-68.8" r="32.3"/>
		
			<text id="_x33__numbers_1_" transform="matrix(1 2.629891e-03 -2.629891e-03 1 719.5824 -60.6449)" class="st11 st7" style="font-size:23.0872px;">1,000</text>
	</g>
	<g>
		<circle id="_x32__1_" class="st10" cx="661.1" cy="-67.2" r="22"/>
		
			<text id="_x32__numbers_1_" transform="matrix(1 2.629873e-03 -2.629873e-03 1 642.2129 -59.1703)" class="st11 st7" style="font-size:21.3112px;">100</text>
	</g>
	<g>
		<circle id="_x31__2_" class="st10" cx="524.2" cy="-65.4" r="12.8"/>
		
			<text id="_x31__numbers_2_" transform="matrix(1 2.629910e-03 -2.629910e-03 1 520.4772 -60.2304)" class="st11 st7" style="font-size:13.0613px;">1</text>
	</g>
	<g>
		<circle id="_x31__1_" class="st10" cx="588.1" cy="-65.4" r="17"/>
		
			<rect x="579.5" y="-72.7" transform="matrix(2.629838e-03 -1 1 2.629838e-03 651.1161 523.5131)" class="st16" width="17" height="16"/>
		
			<text id="_x31__numbers_1_" transform="matrix(1 2.629864e-03 -2.629864e-03 1 578.5743 -60.4447)" class="st11 st7" style="font-size:15.9834px;">10</text>
	</g>
</g>
</svg>
