<?xml version="1.0" encoding="utf-8"?>
<!-- Generator: Adobe Illustrator 24.1.2, SVG Export Plug-In . SVG Version: 6.00 Build 0)  -->
<svg version="1.1" id="Layer_1" xmlns="http://www.w3.org/2000/svg" xmlns:xlink="http://www.w3.org/1999/xlink" x="0px" y="0px"
	 viewBox="0 0 916.5 738" style="enable-background:new 0 0 916.5 738;" xml:space="preserve">
<style type="text/css">
	.st0{fill:#F5FBFE;}
	.st1{fill:#DDEEFA;}
	.st2{fill:#255078;}
	.st3{font-family:'Georgia';}
	.st4{font-size:18px;}
	.st5{font-size:16px;}
	.st6{fill:#4C4B4D;}
	.st7{font-family:'ArialMT';}
	.st8{font-size:14px;}
	.st9{fill:#AED9F4;}
	.st10{fill:#CD483B;}
	.st11{fill:none;}
	.st12{fill:#4C4B4C;}
	.st13{fill:#DB3029;}
	.st14{font-size:36px;}
	.st15{fill:#FFFFFF;}
	.st16{font-size:10.3181px;}
</style>
<g id="Texts">
	<polygon id="blue_bg" class="st0" points="0,602.7 0,639.7 0,649.3 0,738.1 173.5,738.1 173.5,649.3 915,649.3 915,602.7 	"/>
	<path id="line_bg" class="st1" d="M916.5-0.1H0v122.4v479.5v2v43.4v2v43.4v2V738l0,0h579.8l0,0H913l0,0h3.5V-0.1z M913,60.4v542.1
		H578.4l-0.6-0.3v0.3H443.6l-0.6-0.3v0.3H3V60.4H913z M913,604.5v43.2H579.8v-43.2H913z M445.1,647.8v-43.2h132.8v43.2H445.1z
		 M577.8,649.8V693H445.1v-43.2H577.8z M310.3,647.8v-43.2h132.8v43.2H310.3z M443.1,649.8V693H310.3v-43.2H443.1z M175.5,647.8
		v-43.2h132.8v43.2H175.5z M308.3,649.8V693H175.5v-43.2H308.3z M173.5,604.5v43.2H3v-43.2H173.5z M173.5,649.8V693H3v-43.2H173.5z
		 M3,695h170.5v40.2H3V695z M175.5,695h132.8v40.2H175.5V695z M310.3,695h132.8v40.2H310.3V695z M445.1,695h132.8v40.2H445.1V695z
		 M579.8,649.8H913v85.3H579.8V649.8z"/>
	<text id="title" transform="matrix(1 0 0 1 32.8483 35.8372)" class="st2 st3 st4">COVID-19 in North Dakota on</text>
	<text id="date" transform="matrix(1 0 0 1 279.4693 35.8372)" class="st2 st3 st4">April 27th, 2020</text>
	<text transform="matrix(1 0 0 1 40.1913 138.4451)" class="st2 st3 st5">State Confirmed Cases By County</text>
	<g>
		<text transform="matrix(1 0 0 1 40.5863 208.4315)" class="st6 st7 st8">Barnes  10</text>
		<text transform="matrix(1 0 0 1 40.5863 235.6217)" class="st6 st7 st8">Benson  10</text>
		<text transform="matrix(1 0 0 1 40.5863 262.8118)" class="st6 st7 st8">Billings  10</text>
		<text transform="matrix(1 0 0 1 40.5863 290.0018)" class="st6 st7 st8">Bottineau  10</text>
		<text transform="matrix(1 0 0 1 40.6075 181.2417)" class="st6 st7 st8">Adams  10</text>
		<text transform="matrix(1 0 0 1 40.5864 317.192)" class="st6 st7 st8">Bowman  10</text>
		<text transform="matrix(1 0 0 1 40.5863 344.3818)" class="st6 st7 st8">Burke  10</text>
		<text transform="matrix(1 0 0 1 150.0262 181.2412)" class="st6 st7 st8">Emmons  10</text>
		<text transform="matrix(1 0 0 1 150.0262 240.1528)" class="st6 st7 st8">Golden Valley  10</text>
		<text transform="matrix(1 0 0 1 150.0259 210.6973)" class="st6 st7 st8">Foster  10</text>
		<text transform="matrix(1 0 0 1 150.0261 299.065)" class="st6 st7 st8">Grant  10</text>
		<text transform="matrix(1 0 0 1 150.0261 328.5207)" class="st6 st7 st8">Griggs  10</text>
		<text transform="matrix(1 0 0 1 150.0261 357.9766)" class="st6 st7 st8">Hettinger  10</text>
		<text transform="matrix(1 0 0 1 150.026 387.4324)" class="st6 st7 st8">Kidder  10</text>
		<text transform="matrix(1 0 0 1 150.0263 269.6089)" class="st6 st7 st8">Grand Forks  10</text>
		<text transform="matrix(1 0 0 1 40.5863 371.5716)" class="st6 st7 st8">Burleigh  10</text>
		<text transform="matrix(1 0 0 1 40.5863 425.9522)" class="st6 st7 st8">Cavalier  10</text>
		<text transform="matrix(1 0 0 1 40.5861 398.7621)" class="st6 st7 st8">Cass  10</text>
		<text transform="matrix(1 0 0 1 40.5862 480.3321)" class="st6 st7 st8">Divide  10</text>
		<text transform="matrix(1 0 0 1 40.5862 507.5215)" class="st6 st7 st8">Dunn  10</text>
		<text transform="matrix(1 0 0 1 40.5862 534.7118)" class="st6 st7 st8">Eddy  10</text>
		<text transform="matrix(1 0 0 1 40.586 453.1418)" class="st6 st7 st8">Dickey  10</text>
		<text transform="matrix(1 0 0 1 150.0263 416.8878)" class="st6 st7 st8">LaMoure  10</text>
		<text transform="matrix(1 0 0 1 150.0263 446.344)" class="st6 st7 st8">Logan  10</text>
		<text transform="matrix(1 0 0 1 150.0263 475.8004)" class="st6 st7 st8">McHenry  10</text>
		<text transform="matrix(1 0 0 1 150.0263 505.2564)" class="st6 st7 st8">McIntosh  10</text>
		<text transform="matrix(1 0 0 1 150.0264 534.7123)" class="st6 st7 st8">McKenzie  10</text>
		<text transform="matrix(1 0 0 1 265.5091 181.2412)" class="st6 st7 st8">McLean  10</text>
		<text transform="matrix(1 0 0 1 265.5097 210.6971)" class="st6 st7 st8">Mercer  10</text>
		<text transform="matrix(1 0 0 1 265.5096 269.6089)" class="st6 st7 st8">Mountrail  10</text>
		<text transform="matrix(1 0 0 1 265.5094 240.1533)" class="st6 st7 st8">Morton  10</text>
		<text transform="matrix(1 0 0 1 265.5096 328.5207)" class="st6 st7 st8">Oliver  10</text>
		<text transform="matrix(1 0 0 1 265.5093 299.0645)" class="st6 st7 st8">Nelson  10</text>
		<text transform="matrix(1 0 0 1 265.5093 357.9768)" class="st6 st7 st8">Pembina  10</text>
		<text transform="matrix(1 0 0 1 265.5093 387.4324)" class="st6 st7 st8">Pierce  10</text>
		<text transform="matrix(1 0 0 1 265.5093 416.8881)" class="st6 st7 st8">Ramsey  10</text>
		<text transform="matrix(1 0 0 1 265.5096 446.3442)" class="st6 st7 st8">Ransom   10</text>
		<text transform="matrix(1 0 0 1 265.5093 475.8005)" class="st6 st7 st8">Renville  10</text>
		<text transform="matrix(1 0 0 1 265.5097 505.2564)" class="st6 st7 st8">Richland  10</text>
		<text transform="matrix(1 0 0 1 265.5093 534.7123)" class="st6 st7 st8">Rolette  10</text>
		<text transform="matrix(1 0 0 1 376.5488 181.2412)" class="st6 st7 st8">Sargent  10</text>
		<text transform="matrix(1 0 0 1 376.5492 210.6973)" class="st6 st7 st8">Sheridan  10</text>
		<text transform="matrix(1 0 0 1 376.5491 269.6089)" class="st6 st7 st8">Slope  10</text>
		<text transform="matrix(1 0 0 1 376.5489 240.1533)" class="st6 st7 st8">Sioux  10</text>
		<text transform="matrix(1 0 0 1 376.549 299.0647)" class="st6 st7 st8">Stark  10</text>
		<text transform="matrix(1 0 0 1 376.549 328.5204)" class="st6 st7 st8">Steele  10</text>
		<text transform="matrix(1 0 0 1 376.549 357.9768)" class="st6 st7 st8">Stutsman  10</text>
		<text transform="matrix(1 0 0 1 376.5493 387.4324)" class="st6 st7 st8">Towner  10</text>
		<text transform="matrix(1 0 0 1 376.5491 416.8878)" class="st6 st7 st8">Traill  10</text>
		<text transform="matrix(1 0 0 1 376.5493 446.3446)" class="st6 st7 st8">Walsh  10</text>
		<text transform="matrix(1 0 0 1 376.5493 475.7998)" class="st6 st7 st8">Ward  10</text>
		<text transform="matrix(1 0 0 1 376.5492 534.7119)" class="st6 st7 st8">Williams  10</text>
		<text transform="matrix(1 0 0 1 376.5491 505.2556)" class="st6 st7 st8">Wells  10</text>
	</g>
</g>
<g id="Counties">
	<polygon id="foster" class="st9" points="750,328.8 787.2,330.4 789.2,312.4 750.6,310.6 	"/>
	<polygon id="kidder" class="st9" points="704,370.3 704,381.2 734.1,382.8 734.1,368.6 736.6,368.6 736.6,356.8 734.1,356.8 
		734.1,340.8 736.6,340.8 736.6,331 704,329.6 704,353.9 706.2,353.9 706.2,370.3 	"/>
	<polygon id="eddy" class="st9" points="790,304.7 787.6,292.3 750.9,289.7 750.9,297 748.7,297 748.7,300.5 751,300.5 750.7,307.7 
		789.5,309.6 	"/>
	<polygon id="wells" class="st9" points="708.2,315.7 708.2,326.9 747.1,328.6 748,303.4 745.8,303.4 745.8,294.2 748.1,294.2 
		748.1,289.4 734.2,288.5 708.2,287.7 708.2,299.1 710.4,299.1 710.4,315.7 	"/>
	<polygon id="mountrail" class="st9" points="561.2,250 561.2,254.1 561.2,255.5 561.2,257.3 565.4,258.2 574.2,263.3 578,267.3 
		570.3,276.5 570.7,280.9 579.8,284.3 580.8,279.1 597.4,278.5 597.4,280.9 609.4,280.9 609.4,279.2 607.6,277.7 607.6,255 
		609.4,252.9 609.4,235.2 606.7,234.6 606.7,227.6 577.5,227.6 574.3,226 561.2,226 561.2,237.1 564.2,238.8 564.2,246.3 	"/>
	<polygon id="burleigh" class="st9" points="670.7,328.1 667.3,341.4 656.8,341.4 656.8,345.8 659.1,346.8 659.1,362.1 663.5,371.9 
		668.7,378.7 670.9,379.5 701.1,381 701.1,367.4 703.4,367.4 703.4,356.8 701.1,356.8 701.1,329.5 	"/>
	<polygon id="traill" class="st9" points="847.9,306.1 847.9,337.9 875.6,338.5 873.7,306.1 	"/>
	<polygon id="stutsman" class="st9" points="739.4,343.7 737,343.7 737,353.9 739.4,353.9 739.4,371.5 737,371.5 737,382.9 
		776.4,385 789.8,385 789.8,370.3 792.3,370.3 792.3,358.4 789.7,358.4 790.5,338.4 789.1,335.9 787.7,333.3 739.4,331.2 	"/>
	<polygon id="cass" class="st9" points="834.6,385 878.2,385 875.7,341.4 834.6,340.5 	"/>
	<path id="mckenzie" class="st9" d="M511,263.2c-0.5,1.6-4.8,3.3-4.8,3.3c-0.4,0.1-2.2,1.2-3.6,2.2l-1.1,0.7l-1.9-2.4l-1.1-0.7
		l-4.7,46.9l47.5,3.8l2.7-26.8l23.8,1.4V282l-0.5-6.4l6.9-8.2l-1.9-2l-8.2-4.6l-5.8-1.1V257h-3.9c-0.4,0-1.1,0-4.6-2.2l-4-0.2
		l-4.3,2.7h-0.9v5L535,264l-3,0.2v2.7l-8-1l-3.5-4.2l-3.3-6.6c-1.1-0.1-2.2-0.2-2.7-0.2c-0.1,0.1-0.3,0.3-0.5,0.5l2.1,1.7l-1,1.1
		C513.3,260.2,511.3,262.6,511,263.2z"/>
	<polygon id="oliver" class="st9" points="641.9,330.6 641.9,332.8 614.7,330.7 612.2,350.4 656.2,352.2 656.2,348.7 653.9,347.7 
		653.9,330.6 	"/>
	<path id="mercer" class="st9" d="M633.3,309.7l-0.7-0.8h-16.1c-0.5,0.9-1.4,1.8-3,1.8c-0.5,0-1.6,0.1-2.8,0.1
		c-6.3,0.4-6.9,0.3-7.5-0.5l-0.1-0.2c-1-0.7-4.8-2.6-8-4.2l-2.7-1.5v10h-2.1l-0.2,6.6h5.4l-0.9,16.1h-2.2v8.7l1.9,2l8.3,2.3l6.8,0.2
		l3-22.7l26.5,2l-4.3-3.7v-2.5c-0.7-0.4-1.4-1.1-1.8-2.2c-0.2-0.8-0.2-1.8-0.2-2.4c-2-1.4-2-2.1-2-2.5v-2.1L633.3,309.7z"/>
	<polygon id="dunn" class="st9" points="570.1,345.7 570.1,343.4 589.4,344.8 589.4,334.2 591.9,334.2 592.4,323.9 587.1,323.9 
		587.4,311.5 589.4,311.5 589.4,303.4 587.1,303.4 587.3,286.3 582.4,286.3 582.2,287.3 580.4,287.2 580.3,287.5 570.7,284 
		570.7,294.7 546.6,293.2 544.3,317.1 545.9,317.1 544.2,345.2 	"/>
	<polygon id="billings" class="st9" points="513.4,317.6 511.4,329.9 511.4,357.6 509.9,370.9 529.2,371.4 532.9,343.5 539.2,343.5 
		539.2,345.2 541.3,345.2 542.8,320 541.1,320 541.1,319.9 	"/>
	<polygon id="slope" class="st9" points="487.5,376.6 485.7,393.7 540.8,399.4 542.4,399.4 545.4,374.9 500.8,373.5 497.9,378.6 
		488.9,378.6 488.9,376.6 	"/>
	<path id="renville" class="st9" d="M610.3,192.8v4.4l-2.5,2.7v12.2h8.8v20l37.3,4.2v-6.2h-19.7v-7.5h-2.7V203h2.7v-8.6h1.8
		C627.4,193.9,618.9,193.4,610.3,192.8z"/>
	<polygon id="ward" class="st9" points="653.9,248.1 653.9,239.3 613.7,234.7 613.7,215 605,215 605,207.6 601.2,207.6 597.5,214 
		595.4,224.7 609.6,224.7 609.6,232.3 612.2,232.9 612.2,253.8 610.5,256.1 610.5,276.3 612.2,277.9 612.2,280.9 634.3,280.7 
		636.7,282.7 656.5,283.3 656.5,276.6 658.4,276.6 658.4,272.8 656.5,272.8 656.5,249.4 	"/>
	<polygon id="mchenry" class="st9" points="664.6,226 663.1,222.6 659.4,222.6 659.4,223.8 656.8,229 656.8,246.3 659.4,247.5 
		659.4,269.9 661.3,269.9 661.3,279.4 659.4,279.4 659.4,283.3 698.7,284.6 698.7,277.4 696.3,277.4 696.3,232.6 689.7,232.6 
		689.7,225 	"/>
	<path id="burke_1_" class="st9" d="M559.5,209.9l1.8,1.2v7.1v1.6v3.3h13.8l3.2,1.6h14.3l2.4-12l4.6-8h5.5v-6l2.5-2.7v-3.3h1.8
		c-16-1-32-2.2-47.9-3.4v12.4h-1.9L559.5,209.9z"/>
	<path id="williams" class="st9" d="M504,212.5l-5.1,50.5l2.8,1.6l0.6,0.8c1.1-0.7,2.5-1.6,3.1-1.8c0.7-0.2,2.6-1.3,3.1-1.7
		c0.2-0.4,0.8-1.4,3.4-4.5l-2.3-1.9l1.1-1.1c1.3-1.3,2.1-2,2.6-2.2c0.3-0.2,0.9-0.4,5,0.1l0.8,0.1l3.9,7.8l2.5,2.9l3.7,0.5v-2.2
		l5.6-0.3l3-1.1v-5.8h3l4.4-2.7l5.7,0.3l0.3,0.2c1.3,0.8,3.1,1.9,3.6,2h3.7v-5.2l3-3.7v-4.8l-3-1.6v-19.3L504,212.5z"/>
	<path id="benson" class="st9" d="M754.6,255.2v-4.3h-6.2l-0.4-0.7c-0.3-0.5-0.7-1.1-1-1.4c-2.4,0.4-8.6,0.4-25.7,0v36.5l13,0.4
		l53,3.8l-0.1-3.3l-3.2,0.2l-6.6-6.6h-12.9l-0.4-0.3c-0.1-0.1-1.4-1.2-2.3-2.8c-0.6-1.1-1-2.2-1.2-2.7l-3.6-3.9V267l-1.7-1.1h-2.9
		v-9.6L754.6,255.2z"/>
	<path id="walsh" class="st9" d="M803.9,238.1V261h10.7v2.2h44.3l-0.1-23.8v-0.1L803.9,238.1z"/>
	<path id="rolette" class="st9" d="M739,222l-2.5-2.2v-11.9l2.5-1.4v-7h2.7c-12.1-0.4-24.2-0.8-36.2-1.3v18h2.6v10.2h-2.6v6.3H739
		V222z"/>
	<polygon id="hetinger" class="st9" points="548.3,375 545.3,399.5 569.8,401.4 569.8,407.8 594,410.7 594,401.5 592.5,401.5 
		592.5,386.2 594.9,386.2 594.5,378.8 589.4,378.8 589.4,378.7 	"/>
	<polygon id="grant" class="st9" points="592.3,375.9 597.3,375.9 597.9,389.1 595.4,389.1 595.4,398.6 596.9,398.6 596.9,420.1 
		604.5,421.4 609.8,425 622.6,425 635.2,417.6 638.9,414.9 641.7,414.9 644.8,411.5 647.4,406.6 647.4,401 632.1,401 634.8,381.8 
		612,378.4 612,373.3 595.3,370.5 595.4,375.4 592.3,375.4 	"/>
	<path id="bowman" class="st9" d="M485.5,396.6l-2.1,21.2c18.7,1.4,37.1,2.8,55.1,4l0.8-19.6L485.5,396.6z"/>
	<path id="adams" class="st9" d="M542.1,402.2l-0.8,19.7c17.4,1.2,34.6,2.3,51.3,3.3l0.2-2.1l1.2-2.2v-7.4l-27.1-3.2v-6.2l-23.2-1.9
		L542.1,402.2L542.1,402.2z"/>
	<polygon id="barnes" class="st9" points="792.7,355.6 795.2,355.6 795.2,373.2 792.7,373.2 792.7,385 831.8,385 831.8,340.4 
		793.3,339.6 	"/>
	<path id="emmons" class="st9" d="M677.5,389.9l-2.4,2.2l-0.7,4.6l1.8,1.6l1.4,13.7l-5.3,6.4v10l1,1.2c12.4,0.6,24.5,1.1,36.2,1.7
		v-46.9l-35.7-1.9L677.5,389.9z"/>
	<polygon id="griggs" class="st9" points="790,331.7 791.5,334.3 792.8,336.7 816.4,337.1 816.4,306.1 792.8,306.1 	"/>
	<path id="richland" class="st9" d="M878.4,387.9h-21v48.5c14.9,0.4,25.4,0.5,30.7,0.6v-21.4l-9.5-24L878.4,387.9z"/>
	<polygon id="steele" class="st9" points="819.3,337.2 845,337.8 845,306.1 819.3,306.1 	"/>
	<path id="mclean" class="st9" d="M676.5,291.7h2.2v-4.9l-43-1.3l-2.4-1.9l-22.5,0.2h-16.4v-2.4l-11.3,0.4l-0.3,1.6h7.4l-0.2,17.1
		h2.3v0.6l4,2.3c5.3,2.6,7.7,3.9,8.8,4.7c1.1,0.1,3.8-0.1,5.4-0.2c1.3-0.1,2.5-0.1,3-0.1c0.4,0,0.5-0.4,0.6-0.6l0.2-1.1h1.2h18.4
		l2.9,3.4l-3.4,5.7v0.8c0.3,0.2,0.9,0.7,1.4,1l0.8,0.5l-0.2,1c-0.1,0.3-0.2,1.3,0,2.1c0.1,0.4,0.7,0.5,0.7,0.5l1.1,0.3v3.2l3.6,3.1
		h15.9v10.8h8.3l3.4-13.5l3.3,0.1v-27.2h4.6v-6.4L676.5,291.7L676.5,291.7z"/>
	<polygon id="golden_valley" class="st9" points="487.8,373.7 491.8,373.7 491.8,375.7 496.2,375.7 499.1,370.5 507,370.8 
		508.5,357.4 508.5,329.7 510.5,317.4 493.6,316 	"/>
	<path id="sargent" class="st9" d="M814.7,435.3c15.3,0.5,28.7,0.8,39.8,1.1V415h-37.4v13.2h-2.4L814.7,435.3L814.7,435.3z"/>
	<polygon id="ransom" class="st9" points="815.9,412.1 817.1,412.1 854.5,412.1 854.5,387.9 815.9,387.9 	"/>
	<polygon id="morton" class="st9" points="666.9,381.2 660.9,373.3 656.2,362.7 656.2,355.1 601.9,352.9 594.9,351 595.2,367.6 
		614.9,370.8 614.9,375.9 638.1,379.4 635.4,398.1 650.3,398.1 650.3,400.8 653.4,400.8 657.9,396 659.7,398.9 668.7,398.9 
		671.6,396.5 672.4,390.6 674,389.3 670.8,382.5 	"/>
	<polygon id="stark" class="st9" points="536.4,346.3 535.4,346.3 532.1,371.6 545.8,372 545.8,371.9 589.4,375.8 589.4,372.5 
		592.5,372.5 592,349.6 590.2,347.8 572.9,346.4 572.9,348.6 536.4,348 	"/>
	<polygon id="lamoure" class="st9" points="761.4,387.1 761.4,399.6 759.2,399.6 759.2,409.4 761.4,409.4 761.4,409.4 788.5,410 
		788.5,411.9 813,412.1 813,387.9 776.3,387.9 	"/>
	<path id="dickey" class="st9" d="M813,415l-27.4-0.2v-1.9l-24.2-0.5v21.1c18.5,0.7,35.4,1.3,50.4,1.7v-9.8h2.4V415H813L813,415z"/>
	<path id="mcintosh" class="st9" d="M712.6,431.5c16.2,0.7,31.5,1.3,45.9,1.9v-21.1h-0.7l-45.2,0.5V431.5L712.6,431.5z"/>
	<polygon id="logan" class="st9" points="712.6,410 756.3,409.4 756.3,396.7 758.5,396.7 758.5,386.9 712.6,384.5 	"/>
	<path id="sioux" class="st9" d="M673.6,399.7l-0.6-0.6l-3.3,2.7h-11.6l-0.7-1l-2.8,3h-4.3v3.6l-3.3,6l-4.1,4.6h-3.1l-3,2.2
		c-4.4,2.1-8.8,4.2-13.2,6.3c-5.9-0.2-11.8-0.4-17.8-0.6l-2.5-1.8l-7.2-1.2l-0.6,1l-0.1,1.4c3.6,0.2,7.1,0.4,10.6,0.6l-0.1-0.1
		c13.8,0.8,27.6,1.7,41.5,2.4c7.4,0.4,14.7,0.8,22,1.1v-12.1l5.1-6.3L673.6,399.7z"/>
	<path id="divide" class="st9" d="M506.7,184.9l-2.5,24.8l54,6.9v-4l-1.7-1.2l-0.3-12.4h2v-9.7h1.8c-10.3-0.8-20.6-1.6-30.9-2.5
		c-9.5-0.8-19-1.7-28.6-2.5L506.7,184.9z"/>
	<path id="bottineau" class="st9" d="M637.1,205.9h-2.7v13.8h2.7v7.5h17.3l2-4.1v-3.4h8.5l1.4,3.3l26.1-1.1v7.7h3.7h1.4h3.2l1.7,2.5
		v-8.9h2.6v-4.5h-2.6v-21h2.4c-8.9-0.4-17.7-0.7-26.6-1.2c-13.8-0.7-27.5-1.4-41.3-2.2L637.1,205.9z"/>
	<path id="pierce" class="st9" d="M699.4,232.6h-0.2v41.9h2.4v10.1l16.9,0.5v-39.4l1.5,0.1c6.6,0.2,13.8,0.3,19,0.3v-10.6h-37.7
		L699.4,232.6z"/>
	<polygon id="sheridan" class="st9" points="681.6,294.6 679.4,294.6 679.4,300.9 674.8,300.9 674.8,325.4 705.3,326.8 705.3,312.9 
		707.5,312.9 707.5,302 705.3,302 705.3,287.6 681.6,286.9 	"/>
	<path id="ramsey" class="st9" d="M768.5,250.9h-11v6l-2.2,1.2v5h0.9l3.7,2.4v3.4l3.3,3.5l0.1,0.3c0,0,0.5,1.4,1.1,2.6
		c0.4,0.7,0.9,1.2,1.2,1.6h13l6.6,6.6l2.1-0.1l-0.1-9h7.4V261h6.6v-22.9l-32.5-0.7L768.5,250.9L768.5,250.9z"/>
	<path id="grand_forks" class="st9" d="M859.1,270.8l-0.2-0.5V266h-32.8v6.6H824v3.9h2.2v26.6h47.4l-0.1-1.3
		c-0.5-1.5-1.4-2.7-3.1-4.3c-0.2-0.1-0.4-0.2-0.5-0.4c-0.8-0.5-2.1-1.3-3-2.8c-2.9-4.7-4.3-10.7-5.8-16.6
		C860.4,275.3,859.8,272.9,859.1,270.8z"/>
	<polygon id="nelson" class="st9" points="797.3,277.1 790,277.1 790.2,290.8 792.7,303.2 823.2,303.2 823.2,279.4 821.1,279.4 
		821.1,269.7 823.2,269.7 823.2,266 811.8,266 811.8,263.8 797.3,263.8 	"/>
	<path id="pembina" class="st9" d="M861.5,221.8c-0.2-1-0.5-2-0.8-2.9c-0.6-1.8-1.1-3.7-1.5-6c-0.1-0.5-0.5-1.2-1-1.9
		c-0.9-1.5-2.1-3.4-2-5.9v-3.7l-25.8-0.2c-2.2,0-4.3-0.1-6.5-0.1l0,0h0.1v34.5l35,0.8c0.3-2.7,0.9-4.8,1.6-7.2l0.2-0.8
		C861.6,225.6,861.9,223.3,861.5,221.8z"/>
	<path id="towner" class="st9" d="M765.6,200.1c-7.9-0.2-15.8-0.4-23.7-0.7v8.6l-2.5,1.4v9l2.5,2.2V246c1.9,0,3.4-0.1,4.3-0.1
		l0.1-0.1l1-0.2c0.8-0.1,1.5,0.3,2.8,2.4h15.6v-10.9v-1.4L765.6,200.1L765.6,200.1L765.6,200.1L765.6,200.1z"/>
	<path id="cavalier" class="st9" d="M821,203.3v-2.2c-17.5-0.2-35-0.5-52.5-1l0,0l0,0v34.2l52.5,1.2V203.3L821,203.3z"/>
</g>
<g id="TYPES_1_">
	<g>
		<circle id="_x34__1_" class="st10" cx="897.3" cy="-46.7" r="29.3"/>
		
			<text id="_x34__numbers_1_" transform="matrix(1 2.629919e-03 -2.629919e-03 1 869.8464 -40.2943)" class="st15 st7" style="font-size:17.4616px;">10,000</text>
	</g>
	<g>
		<circle id="_x33__1_" class="st10" cx="827.8" cy="-45.6" r="21.2"/>
		
			<text id="_x33__numbers_1_" transform="matrix(1 2.629927e-03 -2.629927e-03 1 808.425 -40.3181)" class="st15 st7" style="font-size:15.1334px;">1,000</text>
	</g>
	<g>
		<circle id="_x32__1_" class="st10" cx="770.2" cy="-44.5" r="14.4"/>
		
			<text id="_x32__numbers_1_" transform="matrix(1 2.629909e-03 -2.629909e-03 1 757.7104 -39.351)" class="st15 st7" style="font-size:13.9693px;">100</text>
	</g>
	<g>
		<circle id="_x31__2_" class="st10" cx="680.4" cy="-43.4" r="8.4"/>
		
			<text id="_x31__numbers_2_" transform="matrix(1 2.629946e-03 -2.629946e-03 1 677.9145 -40.0459)" class="st15 st7" style="font-size:8.5616px;">1</text>
	</g>
	<g>
		<circle id="_x31__1_" class="st10" cx="722.3" cy="-43.4" r="11.2"/>
		
			<rect x="716.7" y="-48.2" transform="matrix(2.629829e-03 -1 1 2.629829e-03 763.3167 679.4562)" class="st11" width="11.2" height="10.5"/>
		
			<text id="_x31__numbers_1_" transform="matrix(1 2.629900e-03 -2.629900e-03 1 715.9937 -40.1864)" class="st15 st7" style="font-size:10.477px;">10</text>
	</g>
</g>
<g id="table_data">
	<text transform="matrix(1 0 0 1 23.5749 675.9991)" class="st2 st7 st8">Confirmed Cases</text>
	<text transform="matrix(1 0 0 1 23.5749 719.9308)" class="st2 st7 st8">Deaths</text>
	<text id="current_date" transform="matrix(1 0 0 1 207.1045 631.717)" class="st2 st7 st8">6 Apr. 2020</text>
	<text id="previous_date" transform="matrix(1 0 0 1 341.8827 631.717)" class="st2 st7 st8">5 Apr. 2020</text>
	<text id="growth_rate__x25_" transform="matrix(1 0 0 1 460.9509 631.717)" class="st2 st7 st8">Growth Rate %</text>
	<text transform="matrix(1 0 0 1 676.226 631.717)" class="st2 st7 st8">Total Confirmed Cases</text>
	<text id="current_сases" transform="matrix(1 0 0 1 229.9601 679.7512)" class="st12 st7 st5">783</text>
	<text id="previous_deaths" transform="matrix(1 0 0 1 372.6732 724.2306)" class="st12 st7 st5">14</text>
	<text id="current_deaths" transform="matrix(1 0 0 1 233.4805 723.2508)" class="st12 st7 st5">15</text>
	<text id="total_cases" transform="matrix(1 0 0 1 722.8751 708.894)" class="st13 st7 st14">783</text>
	<text id="previous_сases" transform="matrix(1 0 0 1 364.7605 679.7512)" class="st12 st7 st5">673</text>
	<text id="cases_growth_rate" transform="matrix(1 0 0 1 494.6735 681.2873)" class="st12 st7 st5">16 %</text>
	<text id="death_growth_rate" transform="matrix(1 0 0 1 499.0728 725.7667)" class="st12 st7 st5">7 %</text>
</g>
<g id="balls_1_">
	<circle id="richland_circle" class="st10" cx="872.5" cy="416.1" r="10.4"/>
	<text id="richland_numbers" transform="matrix(1 2.630000e-03 -2.630000e-03 1 866.7632 418.8694)" class="st15 st7 st16">60</text>
	<circle id="sargent_circle" class="st10" cx="835.6" cy="425.1" r="10.4"/>
	<text id="sargent_numbers" transform="matrix(1 2.630000e-03 -2.630000e-03 1 829.9041 427.9028)" class="st15 st7 st16">60</text>
	<circle id="ransom_circle" class="st10" cx="835.2" cy="399.3" r="10.4"/>
	<text id="ransom_numbers" transform="matrix(1 2.630000e-03 -2.630000e-03 1 829.502 402.125)" class="st15 st7 st16">60</text>
	<circle id="dickey_circle" class="st10" cx="787.9" cy="424.9" r="10.4"/>
	<text id="dickey_numbers" transform="matrix(1 2.630000e-03 -2.630000e-03 1 782.202 427.7468)" class="st15 st7 st16">60</text>
	<circle id="lamoure_circle" class="st10" cx="788.8" cy="400.6" r="10.4"/>
	<text id="lamoure_numbers" transform="matrix(1 2.630000e-03 -2.630000e-03 1 783.1464 403.4583)" class="st15 st7 st16">60</text>
	<circle id="mcintosh_circle" class="st10" cx="736.7" cy="422.9" r="10.4"/>
	<text id="mcintosh_numbers" transform="matrix(1 2.630000e-03 -2.630000e-03 1 731.0576 425.6916)" class="st15 st7 st16">60</text>
	<circle id="logan_circle" class="st10" cx="734.8" cy="397.2" r="10.4"/>
	<text id="logan_numbers" transform="matrix(1 2.630000e-03 -2.630000e-03 1 729.1187 399.9749)" class="st15 st7 st16">60</text>
	<circle id="cass_circle" class="st10" cx="856.1" cy="363.6" r="10.4"/>
	<text id="cass_numbers" transform="matrix(1 2.630000e-03 -2.630000e-03 1 850.4131 366.4583)" class="st15 st7 st16">60</text>
	<circle id="barnes_circle" class="st10" cx="814.8" cy="361.9" r="10.4"/>
	<text id="barnes_numbers" transform="matrix(1 2.630000e-03 -2.630000e-03 1 809.1021 364.7472)" class="st15 st7 st16">60</text>
	<circle id="stutsman_circle" class="st10" cx="764.3" cy="359.2" r="10.4"/>
	<text id="stutsman_numbers" transform="matrix(1 2.630000e-03 -2.630000e-03 1 758.615 362.0583)" class="st15 st7 st16">60</text>
	<circle id="traill_circle" class="st10" cx="860.6" cy="322.4" r="10.4"/>
	<text id="traill_numbers" transform="matrix(1 2.630000e-03 -2.630000e-03 1 854.8742 325.2139)" class="st15 st7 st16">60</text>
	<circle id="steele_circle" class="st10" cx="833" cy="322" r="10.4"/>
	<text id="steele_numbers" transform="matrix(1 2.630000e-03 -2.630000e-03 1 827.2798 324.7694)" class="st15 st7 st16">60</text>
	<circle id="griggs_circle" class="st10" cx="802.5" cy="321.8" r="10.4"/>
	<text id="griggs_numbers" transform="matrix(1 2.630000e-03 -2.630000e-03 1 796.8484 324.6583)" class="st15 st7 st16">60</text>
	<circle id="foster_circle" class="st10" cx="770" cy="321" r="10.4"/>
	<text id="foster_numbers" transform="matrix(1 2.630000e-03 -2.630000e-03 1 764.3019 323.7694)" class="st15 st7 st16">60</text>
	<circle id="eddy_circle" class="st10" cx="769" cy="299.1" r="10.4"/>
	<text id="eddy_numbers" transform="matrix(1 2.630000e-03 -2.630000e-03 1 763.2686 301.8694)" class="st15 st7 st16">60</text>
	<circle id="nelson_circle" class="st10" cx="807.2" cy="285" r="10.4"/>
	<text id="nelson_numbers" transform="matrix(1 2.630000e-03 -2.630000e-03 1 801.502 287.8472)" class="st15 st7 st16">60</text>
	<circle id="grand_forks_circle" class="st10" cx="844.3" cy="286.2" r="10.4"/>
	<text id="grand_forks_numbers" transform="matrix(1 2.630000e-03 -2.630000e-03 1 838.5791 288.9916)" class="st15 st7 st16">60</text>
	<circle id="kidder_circle" class="st10" cx="720.6" cy="355.4" r="10.4"/>
	<text id="kidder_numbers" transform="matrix(1 2.630000e-03 -2.630000e-03 1 714.8686 358.2139)" class="st15 st7 st16">60</text>
	<circle id="wells_circle" class="st10" cx="728.8" cy="309.2" r="10.4"/>
	<text id="wells_numbers" transform="matrix(1 2.630000e-03 -2.630000e-03 1 723.1242 311.9805)" class="st15 st7 st16">60</text>
	<circle id="emmons_circle" class="st10" cx="693.6" cy="407" r="10.4"/>
	<text id="emmons_numbers" transform="matrix(1 2.630000e-03 -2.630000e-03 1 687.8909 409.8583)" class="st15 st7 st16">60</text>
	<circle id="burleigh_circle" class="st10" cx="683.5" cy="355.7" r="10.4"/>
	<text id="burleigh_numbers" transform="matrix(1 2.630000e-03 -2.630000e-03 1 677.7909 358.5027)" class="st15 st7 st16">60</text>
	<circle id="sheridan_circle" class="st10" cx="691" cy="307.4" r="10.4"/>
	<text id="sheridan_numbers" transform="matrix(1 2.630000e-03 -2.630000e-03 1 685.3464 310.1667)" class="st15 st7 st16">60</text>
	<circle id="sioux_circle" class="st10" cx="654.1" cy="418.1" r="10.4"/>
	<text id="sioux_numbers" transform="matrix(1 2.630000e-03 -2.630000e-03 1 648.4021 420.8805)" class="st15 st7 st16">60</text>
	<circle id="grant_circle" class="st10" cx="616.9" cy="401.7" r="10.4"/>
	<text id="grant_numbers" transform="matrix(1 2.630000e-03 -2.630000e-03 1 611.1965 404.5361)" class="st15 st7 st16">60</text>
	<circle id="morton_circle" class="st10" cx="642.7" cy="370.5" r="10.4"/>
	<text id="morton_numbers" transform="matrix(1 2.630000e-03 -2.630000e-03 1 636.9686 373.3139)" class="st15 st7 st16">60</text>
	<circle id="oliver_circle" class="st10" cx="635.9" cy="341.8" r="10.4"/>
	<text id="oliver_numbers" transform="matrix(1 2.630000e-03 -2.630000e-03 1 630.2465 344.6028)" class="st15 st7 st16">60</text>
	<circle id="mercer_circle" class="st10" cx="607.9" cy="320.6" r="10.4"/>
	<text id="mercer_numbers" transform="matrix(1 2.630000e-03 -2.630000e-03 1 602.2576 323.3972)" class="st15 st7 st16">60</text>
	<circle id="mclean_circle" class="st10" cx="646.2" cy="301.5" r="10.4"/>
	<text id="mclean_numbers" transform="matrix(1 2.630000e-03 -2.630000e-03 1 640.5242 304.2862)" class="st15 st7 st16">60</text>
	<circle id="adams_circle" class="st10" cx="563.1" cy="416.3" r="10.4"/>
	<text id="adams_numbers" transform="matrix(1 2.630000e-03 -2.630000e-03 1 557.454 419.0694)" class="st15 st7 st16">60</text>
	<circle id="hetinger_circle" class="st10" cx="570.9" cy="390.4" r="10.4"/>
	<text id="hetinger_numbers" transform="matrix(1 2.630000e-03 -2.630000e-03 1 565.2242 393.2055)" class="st15 st7 st16">60</text>
	
		<ellipse id="bowman_circle" transform="matrix(0.4641 -0.8858 0.8858 0.4641 -89.13 672.8539)" class="st10" cx="511.5" cy="410.1" rx="10.4" ry="10.4"/>
	<text id="bowman_numbers" transform="matrix(1 2.630000e-03 -2.630000e-03 1 505.7985 412.9468)" class="st15 st7 st16">60</text>
	
		<ellipse id="slope_circle" transform="matrix(0.4641 -0.8858 0.8858 0.4641 -64.0358 664.9312)" class="st10" cx="517.5" cy="385.4" rx="10.4" ry="10.4"/>
	<text id="slope_numbers" transform="matrix(1 2.630000e-03 -2.630000e-03 1 511.7854 388.2139)" class="st15 st7 st16">60</text>
	<circle id="stark_circle" class="st10" cx="562.3" cy="360.6" r="10.4"/>
	<text id="stark_numbers" transform="matrix(1 2.630000e-03 -2.630000e-03 1 556.5651 363.4027)" class="st15 st7 st16">60</text>
	<circle id="billings_circle" class="st10" cx="524.8" cy="342.7" r="10.4"/>
	<text id="billings_numbers" transform="matrix(1 2.630000e-03 -2.630000e-03 1 519.1151 345.4805)" class="st15 st7 st16">60</text>
	<circle id="golden_valley_circle" class="st10" cx="498.9" cy="347.6" r="10.4"/>
	<text id="golden_valley_numbers" transform="matrix(1 2.630000e-03 -2.630000e-03 1 493.1797 350.3805)" class="st15 st7 st16">60</text>
	<circle id="dunn_circle" class="st10" cx="569.1" cy="318.4" r="10.4"/>
	<text id="dunn_numbers" transform="matrix(1 2.630000e-03 -2.630000e-03 1 563.4409 321.2583)" class="st15 st7 st16">60</text>
	<circle id="mckenzie_circle" class="st10" cx="528.2" cy="285.6" r="10.4"/>
	<text id="mckenzie_numbers" transform="matrix(1 2.630000e-03 -2.630000e-03 1 522.4853 288.4027)" class="st15 st7 st16">60</text>
	<circle id="walsh_circle" class="st10" cx="830.1" cy="250.4" r="10.4"/>
	<text id="walsh_numbers" transform="matrix(1 2.630000e-03 -2.630000e-03 1 824.3853 253.2333)" class="st15 st7 st16">60</text>
	<circle id="ramsey_circle" class="st10" cx="780.8" cy="259.2" r="10.4"/>
	<text id="ramsey_numbers" transform="matrix(1 2.630000e-03 -2.630000e-03 1 775.1242 262.0222)" class="st15 st7 st16">60</text>
	<circle id="benson_circle" class="st10" cx="742.7" cy="271.3" r="10.4"/>
	<text id="benson_numbers" transform="matrix(1 2.630000e-03 -2.630000e-03 1 737.0464 274.1416)" class="st15 st7 st16">60</text>
	<circle id="pierce_circle" class="st10" cx="710.5" cy="256.7" r="10.4"/>
	<text id="pierce_numbers" transform="matrix(1 2.630000e-03 -2.630000e-03 1 704.8353 259.4999)" class="st15 st7 st16">60</text>
	<circle id="mchenry_circle" class="st10" cx="677.7" cy="255.1" r="10.4"/>
	<text id="mchenry_numbers" transform="matrix(1 2.630000e-03 -2.630000e-03 1 672.0353 257.9194)" class="st15 st7 st16">60</text>
	<circle id="ward_circle" class="st10" cx="634" cy="260.6" r="10.4"/>
	<text id="ward_numbers" transform="matrix(1 2.630000e-03 -2.630000e-03 1 628.3354 263.4361)" class="st15 st7 st16">60</text>
	<circle id="mountrail_circle" class="st10" cx="587.5" cy="252.1" r="10.4"/>
	<text id="mountrail_numbers" transform="matrix(1 2.630000e-03 -2.630000e-03 1 581.7909 254.9528)" class="st15 st7 st16">60</text>
	<circle id="williams_circle" class="st10" cx="530.8" cy="236.2" r="10.4"/>
	<text id="williams_numbers" transform="matrix(1 2.630000e-03 -2.630000e-03 1 525.102 238.9916)" class="st15 st7 st16">60</text>
	<circle id="pembina_circle" class="st10" cx="841.6" cy="219.2" r="10.4"/>
	<text id="pembina_numbers" transform="matrix(1 2.630000e-03 -2.630000e-03 1 835.8909 222.025)" class="st15 st7 st16">60</text>
	<circle id="cavalier_circle" class="st10" cx="795.5" cy="217.6" r="10.4"/>
	<text id="cavalier_numbers" transform="matrix(1 2.630000e-03 -2.630000e-03 1 789.7909 220.4319)" class="st15 st7 st16">60</text>
	<circle id="towner_circle" class="st10" cx="753.6" cy="222.6" r="10.4"/>
	<text id="towner_numbers" transform="matrix(1 2.630000e-03 -2.630000e-03 1 747.8686 225.3653)" class="st15 st7 st16">60</text>
	<circle id="rolette_circle" class="st10" cx="722.9" cy="217.2" r="10.4"/>
	<text id="rolette_numbers" transform="matrix(1 2.630000e-03 -2.630000e-03 1 717.1687 220.0361)" class="st15 st7 st16">60</text>
	<circle id="bottineau_circle" class="st10" cx="668.5" cy="209.2" r="10.4"/>
	<text id="bottineau_numbers" transform="matrix(1 2.630000e-03 -2.630000e-03 1 662.8242 211.9861)" class="st15 st7 st16">60</text>
	<circle id="renville_circle" class="st10" cx="623.5" cy="212.5" r="10.4"/>
	<text id="renville_numbers" transform="matrix(1 2.630000e-03 -2.630000e-03 1 617.7909 215.2972)" class="st15 st7 st16">60</text>
	<circle id="burke_circle" class="st10" cx="582.1" cy="206.3" r="10.4"/>
	<text id="burke_numbers" transform="matrix(1 2.630000e-03 -2.630000e-03 1 576.3687 209.1329)" class="st15 st7 st16">60</text>
	<circle id="divide_circle" class="st10" cx="532.6" cy="200.7" r="10.4"/>
	<text id="divide_numbers" transform="matrix(1 2.630000e-03 -2.630000e-03 1 526.9297 203.5219)" class="st15 st7 st16">60</text>
</g>
	<image style="overflow:visible;" width="160" height="104" id="LOGO" xlink:href="../maps/SR Logos/North Dakota.png"  transform="matrix(0.4392 0 0 0.4392 838.7281 5.0807)">
	</image>
</svg>
