<?xml version="1.0" encoding="utf-8"?>
<!-- Generator: Adobe Illustrator 23.0.5, SVG Export Plug-In . SVG Version: 6.00 Build 0)  -->
<svg version="1.1" id="Layer_1" xmlns="http://www.w3.org/2000/svg" xmlns:xlink="http://www.w3.org/1999/xlink" x="0px" y="0px"
	 viewBox="0 0 916.5 826.4" style="enable-background:new 0 0 916.5 826.4;" xml:space="preserve">
<style type="text/css">
	.st0{fill:#F5FBFE;}
	.st1{fill:#DDEEFA;}
	.st2{fill:#255078;}
	.st3{font-family:'Georgia';}
	.st4{font-size:18px;}
	.st5{font-size:16px;}
	.st6{fill:#4C4B4D;}
	.st7{font-family:'ArialMT';}
	.st8{font-size:14px;}
	.st9{fill:#AED9F4;}
	.st10{fill:#CD483B;}
	.st11{fill:#FFFFFF;}
	.st12{font-size:10.3181px;}
	.st13{fill:#4C4B4C;}
	.st14{fill:#DB3029;}
	.st15{font-size:36px;}
	.st16{fill:none;}
</style>
<g id="Texts">
	<polygon id="blue_bg" class="st0" points="0,691 0,728 0,737.6 0,826.4 173.5,826.4 173.5,737.6 915,737.6 915,691 	"/>
	<path id="line_bg" class="st1" d="M916.5,0.4H0v301.9v388.5v2V736v2v43.1v2v43.2l0,0h579.8l0,0H913l0,0h3.5V0.4z M913,57.5v633.2
		H578.4l-0.6-0.3v0.3H443.6l-0.6-0.3v0.3H3V57.5H913z M913,692.8V736H579.8v-43.2H913z M445.1,736v-43.2h132.8V736H445.1z
		 M577.8,738.1v43.2H445.1v-43.2H577.8z M310.3,736v-43.2h132.8V736H310.3z M443.1,738.1v43.2H310.3v-43.2H443.1z M175.5,736v-43.2
		h132.8V736H175.5z M308.3,738.1v43.2H175.5v-43.2H308.3z M173.5,692.8V736H3v-43.2H173.5z M173.5,738.1v43.2H3v-43.2H173.5z
		 M3,783.2h170.5v40.2H3V783.2z M175.5,783.2h132.8v40.2H175.5V783.2z M310.3,783.2h132.8v40.2H310.3V783.2z M445.1,783.2h132.8
		v40.2H445.1V783.2z M579.8,738.1H913v85.3H579.8V738.1z"/>
	<text id="title" transform="matrix(1 0 0 1 32.8483 35.8372)" class="st2 st3 st4">COVID-19 in North Carolina on</text>
	<text id="date" transform="matrix(1 0 0 1 290.4693 35.8372)" class="st2 st3 st4">April 27th, 2020</text>
	<text id="state_confirmed" transform="matrix(1 0 0 1 37.4713 110.4451)" class="st2 st3 st5">State Confirmed Cases By County</text>
	<g>
		<text transform="matrix(1 0 0 1 37.8878 175.6809)" class="st6 st7 st8">Alexander  10</text>
		<text transform="matrix(1 0 0 1 37.8878 200.1201)" class="st6 st7 st8">Alleghany  10</text>
		<text transform="matrix(1 0 0 1 37.8878 224.5593)" class="st6 st7 st8">Anson  10</text>
		<text transform="matrix(1 0 0 1 37.8878 248.9985)" class="st6 st7 st8">Ashe  10</text>
		<text transform="matrix(1 0 0 1 37.888 151.2417)" class="st6 st7 st8">Alamance  10</text>
		<text transform="matrix(1 0 0 1 37.8879 273.4377)" class="st6 st7 st8">Avery  10</text>
		<text transform="matrix(1 0 0 1 37.8663 297.8774)" class="st6 st7 st8">Beaufort  10</text>
		<text transform="matrix(1 0 0 1 37.8666 493.3911)" class="st6 st7 st8">Camden  10</text>
		<text transform="matrix(1 0 0 1 37.8666 542.2703)" class="st6 st7 st8">Caswell  10</text>
		<text transform="matrix(1 0 0 1 37.8664 517.8306)" class="st6 st7 st8">Carteret  10</text>
		<text transform="matrix(1 0 0 1 37.8666 591.1497)" class="st6 st7 st8">Chatham  10</text>
		<text transform="matrix(1 0 0 1 37.8666 615.5894)" class="st6 st7 st8">Cherokee  10</text>
		<text transform="matrix(1 0 0 1 645.9999 297.8776)" class="st6 st7 st8">Chowan  10</text>
		<text transform="matrix(1 0 0 1 524.2582 151.2418)" class="st6 st7 st8">Clay  10</text>
		<text transform="matrix(1 0 0 1 37.8663 566.71)" class="st6 st7 st8">Catawba  10</text>
		<text transform="matrix(1 0 0 1 37.8663 322.3164)" class="st6 st7 st8">Bertie  10</text>
		<text transform="matrix(1 0 0 1 37.8663 371.1948)" class="st6 st7 st8">Brunswick  10</text>
		<text transform="matrix(1 0 0 1 37.8666 346.7556)" class="st6 st7 st8">Bladen  10</text>
		<text transform="matrix(1 0 0 1 37.8666 420.074)" class="st6 st7 st8">Burke  10</text>
		<text transform="matrix(1 0 0 1 37.8666 444.5129)" class="st6 st7 st8">Cabarrus  10</text>
		<text transform="matrix(1 0 0 1 37.8666 468.9518)" class="st6 st7 st8">Caldwell  10</text>
		<text transform="matrix(1 0 0 1 37.8665 395.6339)" class="st6 st7 st8">Buncombe  10</text>
		<text transform="matrix(1 0 0 1 524.2581 175.6816)" class="st6 st7 st8">Cleveland  10</text>
		<text transform="matrix(1 0 0 1 524.2581 200.1202)" class="st6 st7 st8">Columbus  10</text>
		<text transform="matrix(1 0 0 1 524.2581 224.5599)" class="st6 st7 st8">Craven  10</text>
		<text transform="matrix(1 0 0 1 151.8299 151.2412)" class="st6 st7 st8">Cumberland  10</text>
		<text transform="matrix(1 0 0 1 151.8296 175.6804)" class="st6 st7 st8">Currituck  10</text>
		<text transform="matrix(1 0 0 1 151.83 200.1201)" class="st6 st7 st8">Dare  10</text>
		<text transform="matrix(1 0 0 1 151.8297 224.5591)" class="st6 st7 st8">Davidson  10</text>
		<text transform="matrix(1 0 0 1 151.8296 273.438)" class="st6 st7 st8">Duplin  10</text>
		<text transform="matrix(1 0 0 1 151.8299 248.9985)" class="st6 st7 st8">Davie  10</text>
		<text transform="matrix(1 0 0 1 151.83 322.3167)" class="st6 st7 st8">Edgecombe  10</text>
		<text transform="matrix(1 0 0 1 151.8298 297.8774)" class="st6 st7 st8">Durham  10</text>
		<text transform="matrix(1 0 0 1 151.8298 346.7559)" class="st6 st7 st8">Forsyth  10</text>
		<text transform="matrix(1 0 0 1 151.8298 371.1958)" class="st6 st7 st8">Franklin  10</text>
		<text transform="matrix(1 0 0 1 151.8298 395.6348)" class="st6 st7 st8">Gaston  10</text>
		<text transform="matrix(1 0 0 1 151.83 420.0743)" class="st6 st7 st8">Gates  10</text>
		<text transform="matrix(1 0 0 1 151.8298 444.5134)" class="st6 st7 st8">Graham  10</text>
		<text transform="matrix(1 0 0 1 151.8297 468.9526)" class="st6 st7 st8">Granville  10</text>
		<text transform="matrix(1 0 0 1 151.8298 493.3918)" class="st6 st7 st8">Greene  10</text>
		<text transform="matrix(1 0 0 1 151.8297 542.2712)" class="st6 st7 st8">Halifax  10</text>
		<text transform="matrix(1 0 0 1 151.83 517.8312)" class="st6 st7 st8">Guilford  10</text>
		<text transform="matrix(1 0 0 1 151.8297 591.1497)" class="st6 st7 st8">Haywood  10</text>
		<text transform="matrix(1 0 0 1 151.8299 566.71)" class="st6 st7 st8">Harnett  10</text>
		<text transform="matrix(1 0 0 1 151.83 615.5884)" class="st6 st7 st8">Henderson  10</text>
		<text transform="matrix(1 0 0 1 522.8999 297.8776)" class="st6 st7 st8">Hertford  10</text>
		<text transform="matrix(1 0 0 1 643.2217 151.2417)" class="st6 st7 st8">Hoke  10</text>
		<text transform="matrix(1 0 0 1 643.2216 175.681)" class="st6 st7 st8">Hyde  10</text>
		<text transform="matrix(1 0 0 1 643.2213 200.1202)" class="st6 st7 st8">Iredell  10</text>
		<text transform="matrix(1 0 0 1 643.2216 224.5593)" class="st6 st7 st8">Jackson  10</text>
		<text transform="matrix(1 0 0 1 272.0699 151.2412)" class="st6 st7 st8">Johnston  10</text>
		<text transform="matrix(1 0 0 1 272.0699 200.1201)" class="st6 st7 st8">Lee  10</text>
		<text transform="matrix(1 0 0 1 272.0702 175.6804)" class="st6 st7 st8">Jones  10</text>
		<text transform="matrix(1 0 0 1 272.0701 248.9988)" class="st6 st7 st8">Lincoln  10</text>
		<text transform="matrix(1 0 0 1 272.07 224.5593)" class="st6 st7 st8">Lenoir  10</text>
		<text transform="matrix(1 0 0 1 272.0702 273.438)" class="st6 st7 st8">McDowell  10</text>
		<text transform="matrix(1 0 0 1 272.0702 297.8774)" class="st6 st7 st8">Macon  10</text>
		<text transform="matrix(1 0 0 1 272.0702 322.3167)" class="st6 st7 st8">Madison  10</text>
		<text transform="matrix(1 0 0 1 272.0701 346.7561)" class="st6 st7 st8">Martin  10</text>
		<text transform="matrix(1 0 0 1 272.0699 371.1953)" class="st6 st7 st8">Mecklenburg  10</text>
		<text transform="matrix(1 0 0 1 272.0701 395.6349)" class="st6 st7 st8">Mitchell  10</text>
		<text transform="matrix(1 0 0 1 272.0702 420.0742)" class="st6 st7 st8">Montgomery  10</text>
		<text transform="matrix(1 0 0 1 272.0702 468.9526)" class="st6 st7 st8">Nash  10</text>
		<text transform="matrix(1 0 0 1 272.07 444.5137)" class="st6 st7 st8">Moore  10</text>
		<text transform="matrix(1 0 0 1 272.0703 517.8315)" class="st6 st7 st8">Northampton  10</text>
		<text transform="matrix(1 0 0 1 272.07 493.3925)" class="st6 st7 st8">New Hanover  10</text>
		<text transform="matrix(1 0 0 1 272.0702 542.2704)" class="st6 st7 st8">Onslow  10</text>
		<text transform="matrix(1 0 0 1 272.0702 566.71)" class="st6 st7 st8">Orange  10</text>
		<text transform="matrix(1 0 0 1 272.0702 591.1494)" class="st6 st7 st8">Pamlico  10</text>
		<text transform="matrix(1 0 0 1 272.07 615.5889)" class="st6 st7 st8">Pasquotank  10</text>
		<text transform="matrix(1 0 0 1 766.2 273.4375)" class="st6 st7 st8">Pender  10</text>
		<text transform="matrix(1 0 0 1 763.4618 151.2417)" class="st6 st7 st8">Perquimans  10</text>
		<text transform="matrix(1 0 0 1 763.4619 175.681)" class="st6 st7 st8">Person  10</text>
		<text transform="matrix(1 0 0 1 763.4617 224.5596)" class="st6 st7 st8">Polk  10</text>
		<text transform="matrix(1 0 0 1 763.4617 200.1203)" class="st6 st7 st8">Pitt  10</text>
		<text transform="matrix(1 0 0 1 387.5502 175.6809)" class="st6 st7 st8">Richmond  10</text>
		<text transform="matrix(1 0 0 1 387.5499 151.2412)" class="st6 st7 st8">Randolph  10</text>
		<text transform="matrix(1 0 0 1 387.5504 200.1201)" class="st6 st7 st8">Robeson  10</text>
		<text transform="matrix(1 0 0 1 387.5504 224.5596)" class="st6 st7 st8">Rockingham  10</text>
		<text transform="matrix(1 0 0 1 387.5504 248.999)" class="st6 st7 st8">Rowan  10</text>
		<text transform="matrix(1 0 0 1 387.5503 273.4382)" class="st6 st7 st8">Rutherford  10</text>
		<text transform="matrix(1 0 0 1 387.5499 297.8772)" class="st6 st7 st8">Sampson  10</text>
		<text transform="matrix(1 0 0 1 387.5502 322.3167)" class="st6 st7 st8">Scotland  10</text>
		<text transform="matrix(1 0 0 1 387.5504 346.7559)" class="st6 st7 st8">Stanly  10</text>
		<text transform="matrix(1 0 0 1 769.6631 371.55)" class="st6 st7 st8">Surry  10</text>
		<text transform="matrix(1 0 0 1 387.5501 371.1953)" class="st6 st7 st8">Stokes  10</text>
		<text transform="matrix(1 0 0 1 768.2999 298.7603)" class="st6 st7 st8">Swain  10</text>
		<text transform="matrix(1 0 0 1 768.3 323.1994)" class="st6 st7 st8">Transylvania  10</text>
		<text transform="matrix(1 0 0 1 768.3 347.639)" class="st6 st7 st8">Tyrrell  10</text>
		<text transform="matrix(1 0 0 1 646.6 322.3167)" class="st6 st7 st8">Union  10</text>
		<text transform="matrix(1 0 0 1 646.5999 346.756)" class="st6 st7 st8">Vance  10</text>
		<text transform="matrix(1 0 0 1 646.6001 371.1954)" class="st6 st7 st8">Wake  10</text>
		<text transform="matrix(1 0 0 1 522.8998 322.9607)" class="st6 st7 st8">Warren  10</text>
		<text transform="matrix(1 0 0 1 522.9 347.4)" class="st6 st7 st8">Washington  10</text>
		<text transform="matrix(1 0 0 1 646.6002 273.4382)" class="st6 st7 st8">Wayne  10</text>
		<text transform="matrix(1 0 0 1 522.8998 371.8395)" class="st6 st7 st8">Watauga  10</text>
		<text transform="matrix(1 0 0 1 643.3003 248.9991)" class="st6 st7 st8">Wilson  10</text>
		<text transform="matrix(1 0 0 1 523.7996 248.999)" class="st6 st7 st8">Wilkes  10</text>
		<text transform="matrix(1 0 0 1 764.9005 248.9984)" class="st6 st7 st8">Yadkin  10</text>
		<text transform="matrix(1 0 0 1 522.9005 273.4383)" class="st6 st7 st8">Yancey  10</text>
	</g>
</g>
<g id="Counties">
	<polygon id="iredell" class="st9" points="601.7,510.8 601.7,498.4 600.3,493.4 592.9,493.8 586.7,496 585.2,509.6 585.5,509.6 
		589.9,514 594.8,518.2 595.9,527.3 600.8,524.4 602.7,524.4 603.7,523.6 600.8,515.8 600.8,510.8 	"/>
	<polygon id="stokes" class="st9" points="616.7,475.8 630.9,473.6 629.2,461.7 627.4,459.3 621.5,460.6 611.2,461.8 612.3,468.7 
		612.3,476 	"/>
	<path id="haywood" class="st9" d="M496.1,529.4c-0.1-0.2-0.4-0.5-0.6-0.7l-0.3-0.3v-2.5c-1.5,0.5-3,1.3-4.4,2.2l-0.2,0.1
		c-0.9,0.6-2,1-3.2,1.5c-1.4,0.6-3.3,1.4-3.9,2.1l1,2l1.7,3.1l2.5,5.1l4.4,3.2l3.8,4l3.4,1.9h1.8l0.9-0.8l1.4-3.3l2.2-3l1.6-0.8
		c-1.2-1.1-2.7-2.2-2.7-2.2l-0.2-0.1l-3.7-4.2l-1.9-1.7v-2.7C496.3,530.4,496.2,529.8,496.1,529.4z"/>
	<path id="graham" class="st9" d="M462,560.3v-3.4l4.8-3.1v-2.5l-9-0.7l-1.7-2.2c-0.4,0.3-0.8,0.5-1.2,0.8c-0.9,0.6-2.4,1.6-2.8,2.1
		c-0.4,0.7-0.2,2.7,0,4.1c0.3,2.6,0.6,5.2-0.9,7.3L451,563l4.7-0.7L462,560.3z"/>
	<polygon id="macon" class="st9" points="483.3,559.8 482.6,558.6 481.2,557.7 480,555.8 476.2,557.3 468.9,558.9 464.2,560.1 
		464.2,561.1 464.2,561.9 464.2,567.2 468.7,568.4 470.4,570.8 471.1,571.5 489.6,568.9 489.3,568.7 486.7,565.5 486.7,563 	"/>
	<polygon id="lincoln_1_" class="st9" points="593.3,523.9 568.6,528 570.2,533.4 570.7,534.1 594,532.9 593.8,531.6 593.8,529.1 	
		"/>
	<path id="henderson" class="st9" d="M529.9,551.3l0.7-0.1v-6.9h1.7v-2l-3.7-4h-1.7l-1.1,1.2l-3.7,3.5h-10.6v0.2
		c0.6,0.7,1,1.5,1.2,2c0.1,0.2,0.2,0.5,0.2,0.5c0.8,0.5,2.6,3.3,3.3,4.8c0.3,0.7,1.1,1.8,1.7,2.9c1.4,2.1,1.7,2.7,1.7,3.3
		c0,0.1,0,0.3,0,0.4L529.9,551.3z"/>
	<polygon id="polk" class="st9" points="540.5,543.8 534.4,543.1 534.4,546.6 532.7,546.6 532.7,550.9 547.3,548.9 545.1,547.8 	"/>
	<path id="burke" class="st9" d="M560.6,526.9c0.8-0.3,4.1-1.7,5.3-2.2l0.9-2.3l1.6-3.5l0.7-2.8h-7.3l-8.6-4.7l-2.1-3.5h-0.5h-1.2
		h-4.6l-0.2,0.1l0.9,0.8l1.4,5.8l3.4,6.8l2,5.5h7.8v0.2C560.3,526.9,560.5,526.9,560.6,526.9z"/>
	<polygon id="rutherford" class="st9" points="555.6,547.8 558,547.6 558,546.4 558.8,545.3 559.6,535.7 558,534.4 558,529 
		551.8,529 536.9,534.8 532.5,539.4 533.9,540.9 541.4,541.7 546.5,546 550.5,548 550.5,548.5 	"/>
	<polygon id="gates" class="st9" points="795.3,429.3 795.5,426.7 794.5,426.7 777,433.6 777,437.2 784.8,437.2 789.6,440.7 
		793.8,435.9 798.4,433.7 797.4,432.3 797.4,429.3 	"/>
	<path id="hoke" class="st9" d="M686.6,533.1h-2.7l-2.1-1.3h-2.2l-3.1,3.4l-2.4,4.7l-1.6,2c0.4,0.6,0.9,1.3,1,1.7
		c0.2,0.4,1.9,2.7,3.4,4.5l0.2,0.3l1.1,3.1l1.4,1.6l2.9-1h5.1l4.5-8.1l-5-10v-1.1L686.6,533.1z"/>
	<polygon id="richmond" class="st9" points="663.8,556.2 666.1,552.6 666.1,544.5 669.1,542.1 665.7,540.2 661.9,538.6 651,538.6 
		644.3,541.3 644,541.6 646.5,541 649.4,541.2 651.8,546.5 654.8,552.5 654.8,556.2 	"/>
	<path id="beaufort" class="st9" d="M805.8,484.7l0.9-2.3l-3.5-2.1l-3.4-2.3l-9.6,2.4l-5.2,3.7l-3.9-0.1l-5.6-1.6l1.4,15.6l5.7,3.3
		l4.6,2.8l4.1,1.5l2.9,1.4l0.8,1h3.3c0.8-0.4,4-2.6,7-4.7l-1.4-4.4l1.5-4.1l-3.5-4.5V487L805.8,484.7z"/>
	<path id="craven" class="st9" d="M792.1,534.2c1.9-1.2,5.5-3.1,7.7-3.7c1.3-0.4,4.2-2.4,5.9-3.8l1.8-3l-1.2-1.6l-2.9,2.3h-4.9
		l-8.4-4l-1.4-4.2v-8.1l1.6-0.9l-4-1.4l-4.6-2.8l-4.8-2.8l-3,1.9l-2.8,3.6l-2.1,1.4v2.7l-2.6,0.6v1.4l13.4,6.8h3.1l0.9-1.1h2.2
		l3.1,17.1h1.1l-0.1,0.1C790.7,534.8,791.5,534.6,792.1,534.2z"/>
	<path id="pamlico" class="st9" d="M798.5,510H794l-1.1-1.4l-0.1-0.1l-1.8,1v6.6l1,2.8l7.1,3.4h3.6l2.5-2c-0.2-0.5-0.2-1-0.1-1.5
		c0.2-0.5,0.5-0.8,0.9-1c0.3-0.2,1.1-1.2,1.6-2.1l1,0.6c0.3-1.5,1.2-4.2,1.5-4.8c1.1-2.4,1.9-2.9,2-5.7c0.1-1.9,1.5-3.7,1.5-5.5
		c0-0.4-1.3-4.4-1-4.4l-1.1-0.3v-0.1h-4.1l-1.2,3.2l1.7,5.3l-0.7,0.5C799.5,510,798.9,510,798.5,510z"/>
	<path id="tyrrell" class="st9" d="M825.9,458.9l-0.9,0.2l-1.8-4.4l-0.8,0.5c0,0-2.1,0.8-2.7,0.9c-0.5,0.2-2,0.3-4.5,0.3l-4.2,4.4
		l0.4,9.9l1.3,1.8l15.4-1.5l-1.5-12.2C826.2,458.8,826,458.9,825.9,458.9z"/>
	<path id="dare" class="st9" d="M843.5,465.1c-0.2-0.9-0.8-1.6-1-2.4l-0.8,0.7l-4-4.5l-1.3-3.4l-2-1.3h-1.5
		c-2.6,4.5-3.6,4.7-3.9,4.8c-0.1,0-0.2,0-0.3,0l1.6,12.6l7.8,3.4l1.3,1.2l-0.8,0.8l0,0c1.3-0.8,4-1.7,4.6-3.1
		c0.6-1.3,0.3-4.2,0.3-5.7C843.5,467.3,843.7,466,843.5,465.1z"/>
	<polygon id="lenoir" class="st9" points="764.1,511.5 764.1,508.7 766.7,508.2 766.7,507.1 762.6,502.9 756.1,510.2 752.1,508.4 
		750.9,508.4 749.9,510 748.2,510 750.4,519.2 754.2,525.1 755.4,527.1 756.4,527.5 756.4,526.8 762.8,518.5 761.8,514.4 
		761.8,511.5 	"/>
	<polygon id="clay" class="st9" points="468.5,571.9 467.3,570.3 463.5,569.3 459.5,573.2 	"/>
	<polygon id="stanly" class="st9" points="633.5,522.2 631.7,521 628.6,522.9 627.9,523.1 620.5,540.8 623.6,540.8 624.3,539.5 
		634.7,539.5 635.5,540.8 641.3,540.8 641.3,539.4 638.4,531.2 	"/>
	<polygon id="anson" class="st9" points="634.3,543 633.5,541.7 630.9,541.7 633,558.4 634.6,558.2 652.6,556.4 652.6,553 
		649.8,547.5 648,543.3 646.7,543.2 641.3,544.6 641.3,543 	"/>
	<path id="scotland" class="st9" d="M676.1,562.4l1.8-7.7l-1.8-2l-1.1-3.4c-3.4-4.3-3.5-4.8-3.6-5.1c-0.1-0.1-0.3-0.5-0.5-0.8
		l-2.6,2.1v7.7l-2.4,3.9l10.1,5.1L676.1,562.4z"/>
	<path id="nash" class="st9" d="M725.3,486.5h3.2l2.3-2.7l3-0.9l2-2.8l3.4-1.6l3.8-17.1h-13.7l-0.4,2.7l-1.9,7.2l-4.1,13.9
		c0.8,1,1.3,1.7,1.7,2.3L725.3,486.5z"/>
	<polygon id="franklin" class="st9" points="724.7,470.8 726.6,463.8 726.9,461.5 722.7,461.5 714,459.1 712,462 708.7,465.6 
		705.6,465.6 705.6,474.7 709.3,474.7 718.8,480.6 721,483.3 	"/>
	<polygon id="wake" class="st9" points="701.7,506.8 703.3,507.4 703.4,504.4 706.9,500.9 706.9,498.1 715.2,491.1 720,485.5 
		717.2,482.1 708.7,476.9 699.4,476.9 698.4,482.5 696.6,486.3 693.5,488.4 690.9,488.4 689,503.8 694.1,503.8 	"/>
	<polygon id="chatham" class="st9" points="660.8,495.5 663.1,513 671.2,512.1 681.3,503.7 685.8,505.2 686.7,504.4 688.7,488.7 	
		"/>
	<polygon id="durham" class="st9" points="692.8,486.2 694.9,484.8 696.4,481.6 697.3,476.3 695.8,476.9 693.6,475.3 688.2,466.5 
		684.4,466.5 684.4,476.6 686.2,476.6 686.2,487.1 689.9,486.2 	"/>
	<path id="wilson_1_" class="st9" d="M726.5,490.4c0.5,0.5,1.1,1,1.5,1.6c0.4,0.5,3.7,3.1,6.6,5.4l2.9-0.6l1.5-1.3l4-1.1l1.1,1.4
		l4.1-7.1l0.3-0.3l-2.5-1.6l-0.9-4.8h-1.2l-1.8-1.7h-1.7l-3.1,1.5l-2.1,2.9l-3,1l-2.6,3h-3l-0.7,0.9c0.1,0.2,0.1,0.2,0.1,0.3
		C726,489.9,726.3,490.2,726.5,490.4z"/>
	<polygon id="hertford" class="st9" points="788.7,444.1 788.7,442.8 784.1,439.4 774.8,439.4 774.8,433.8 769.5,433.8 770.3,434.6 
		766.6,449.2 770.1,449.5 	"/>
	<polygon id="northampton" class="st9" points="764.1,449.9 767.9,435.3 766.5,433.8 765.4,433.8 737.6,437.8 734.4,439 743,439.6 
		748.1,442.5 748.1,446.7 749.5,448 753,449.2 755.2,451 759.6,453 762.3,454 	"/>
	<polygon id="edgecombe" class="st9" points="761.5,475.6 761.5,473.1 758.8,468.6 757.5,469.5 753.5,466.4 751.6,463.6 
		746.8,461.5 745.1,461.5 741.4,478.3 742.9,478.3 744.6,480 746.9,480 747.9,485.6 750.1,486.9 	"/>
	<polygon id="halifax" class="st9" points="761.5,456.1 758.8,455 753.9,452.8 751.8,451 748.4,449.9 745.9,447.8 745.9,443.8 
		742.3,441.8 731.9,441 730.5,451.3 729.4,459.3 747.2,459.3 753,461.8 755.3,465 757.6,466.8 758.5,466.2 761.5,462.3 	"/>
	<polygon id="moore" class="st9" points="682.5,523.6 681,523.1 671.3,514.3 657.3,515.9 653.4,517.4 654.8,519.3 658.9,531.5 
		661.7,534.8 662.2,536.4 662.3,536.4 666.7,538.2 670.8,540.5 672.2,538.6 674.8,533.8 678.6,529.6 682.4,529.6 684.5,530.9 
		685.9,530.9 686.6,530.3 685.8,529.8 	"/>
	<polygon id="lee" class="st9" points="686.6,507.7 686.6,507.4 686.3,507.7 681.8,506.2 673.4,513.2 682.1,521.1 682.8,521.3 
		687.7,510.7 	"/>
	<polygon id="montgomery" class="st9" points="656.9,532.7 652.8,520.2 651.2,518.2 651.1,518.2 645.7,519.9 638.4,520.8 
		635.2,520.8 640.4,530.4 643.5,539.2 643.5,539.3 650.6,536.4 659.8,536.4 659.7,535.9 	"/>
	<polygon id="granville" class="st9" points="695.3,473.8 696.1,474.4 699.2,473.1 700.1,474.7 703.4,474.7 703.4,464.5 
		700.2,445.9 689.2,448.1 689.9,465.1 	"/>
	<polygon id="randolph" class="st9" points="660.9,513.3 658,491.4 635.2,495.5 636.3,513.5 637.8,518.6 638.3,518.6 645.3,517.7 
		650.5,516.1 657,513.7 	"/>
	<polygon id="alamance" class="st9" points="668.1,469.3 657.6,471.9 660.5,493.3 671.9,490.5 	"/>
	<polygon id="person" class="st9" points="687,448.5 671.7,451.5 675.5,465.2 679.1,464.3 687.7,464.3 	"/>
	<polygon id="vance" class="st9" points="707.8,463.4 710.4,460.6 712.3,457.7 709.1,444.1 702.3,445.5 705.4,463.4 	"/>
	<polygon id="warren" class="st9" points="723.2,459.3 727.2,459.3 728.3,451 729.7,440.7 722.4,443.5 712.1,443.5 711.3,443.6 
		714.4,456.9 	"/>
	<polygon id="orange" class="st9" points="684,487.6 684,478.8 682.2,478.8 682.2,466.5 679.3,466.5 670.2,468.7 674.1,490 	"/>
	<path id="columbus" class="st9" d="M726.7,585.9l7.1-2.4l5-5l1.1-4.5l1.9-1.6h-2.2l-1.5-1.5l-3.3,3.3h-0.5
		c-1.3,0.1-3.2,0.1-4.7,0.1c-1.3,0-2.3-0.1-2.7-0.1c-0.7-0.2-7.4-2.8-9.6-3.7l-4.4-0.4l-6.1,2.2l-2.9,2.2l-1.3,4.7l-1.1,2.2l0.8,0.5
		l3.2,3.2l8.5,4.6l5.2,4.2l3,3l0.8-4.4l1.8-4.5L726.7,585.9z"/>
	<path id="bladen" class="st9" d="M734.2,563.3v-2.7L720,546.7l-0.9-0.8l-16.7,4.6l4.9,6.3v12.9l5.3-1.9l5.4,0.5
		c3.4,1.3,9,3.6,9.5,3.7s3.5,0.1,6.4,0l3.3-3.3l1.7-3.6V565L734.2,563.3z"/>
	<polygon id="washington" class="st9" points="809.1,471.5 808.7,460.8 807.2,459 806.9,459 802.7,461.3 800.6,463 795.4,465.3 
		794.4,467 792.2,470.6 791.2,477.9 810.2,473.1 	"/>
	<polygon id="jones" class="st9" points="778.8,527.9 783.3,533.5 785,534.9 786.7,534.9 784.2,520.6 783.8,521 779.1,521 
		764.9,513.7 764,513.7 764,514.3 765.3,519 758.6,527.6 758.6,528.6 759.3,529.3 761.3,527.9 	"/>
	<polygon id="sampson" class="st9" points="734.6,548.2 733.7,543.3 736.1,541.4 736.1,537.4 732.3,526 729.5,522.2 726,519.9 
		713.4,519.9 711,524.5 711,535.6 713.5,538.2 721.5,545.2 735.1,558.4 736.3,555.9 737.7,551.8 	"/>
	<polygon id="duplin" class="st9" points="746.6,546.8 759.8,545.1 759.6,533.4 758.4,531.4 756.9,530 753.9,529 752.3,526.2 
		748.8,520.9 732.3,522.4 734.3,525.1 738.3,537.3 738.3,542.4 736.2,544.2 736.7,547.2 739.2,550.2 	"/>
	<path id="brunswick_1_" class="st9" d="M756.8,592.3l-1.8-7.5l-3.3-7.3l-2.9-3.2h-3.2l-1-1.4l-2.7,2.3l-1.1,4.4l-5.8,5.8l-7.1,2.4
		l-1.3,1.3l-1.6,4l-0.9,5.6l5.1,4l-1.8,2.3c1.6-0.9,3.3-1.7,4.9-2.3c3.6-1.3,7.4-2.2,11-3.5c3.5-1.2,7.4-0.8,10.7-2
		c2.2-0.9,3.3-3,4-5.2L756.8,592.3z"/>
	<path id="new_hanover" class="st9" d="M758.1,570.1v-1.2h-2.5l-1.6,1.6l-3.1,1.8l-0.3,0.7l3.1,3.5l3.4,7.8l1.3,5.5
		c0.7-3.2,1.9-6.5,2.6-9.7c0.5-2.1,0.6-4.4,1.5-6.4c0.3-0.6,0.6-1,1-1.5L758.1,570.1z"/>
	<path id="pender" class="st9" d="M770.7,561.6l-0.6-1.4l-2.1-4.1l-4.4-4.9l-3.2-4L747,549l-7.2,3.4l-1.4,4.4l-1.9,3.7v1.3l4.3,1.5
		l0.5,2l-1.8,3.8l1.1,1.1h4.9l1.3,1.9h1.9l0.6-1.3l3.5-2.1l1.9-2h5.7v1.9l4.4,1.7l-0.4,1c0.8-0.8,1.6-1.5,2.2-2.4
		c1-1.3,1.7-3,2.7-4.3c0.7-1,1.6-2.2,2.5-3.3L770.7,561.6z"/>
	<path id="currituck" class="st9" d="M856.7,467.8c-1.1-2.8-2.7-5.3-4.3-7.8c-1-1.5-2.6-2.6-3.8-3.8v1.1h-5l1.5,1.5l0.7,1l-0.9,0.6
		c1-0.2,2-0.3,2.8-0.6c1.5-0.6,0.6-1.6,2.3-0.6c0.8,0.5,0.9,1.3,1.2,2c1,1.9,2.1,3.9,3.1,5.7c2,4,3.2,7.4,3.2,11.9
		c0,2.8,0.6,5.7,0.2,8.5c-0.4,3.4-1.4,4.2-4.1,5.8c-2.1,1.3-4.3,2.6-6.3,4.2s-4.1,3.2-5.9,5.1c-1.4,1.4-2.4,4.5-4.5,4.4
		c1,3.2,6.5-3.7,7.4-4.7c2.2-2.6,4.2-4.3,7.2-6.1c2.1-1.3,6.9-1.5,8.2-3.7c1.9-3.3,0.3-10.1-0.3-13.6
		C858.8,475,858.1,471.3,856.7,467.8z"/>
	<path id="onslow" class="st9" d="M788.3,546l-2.2-4.4l0.1-0.4c0.1-0.5,0.2-1.1,0.1-1.3c-0.5-0.7-0.3-2.1-0.2-3l-1.9,0.1l-2.5-2.1
		l-4-4.8h-15.8l-1.3,0.9l1.1,1.7l0.2,12.9l3.3,4.2l4.6,5.2l2.2,4.3l0.4,0.9c0.9-1.1,1.8-2,2.7-2.9c1.3-1.2,2.8-1.7,4-3
		c1.1-1.2,1.9-2.4,3.3-3.4c2.4-1.7,4.6-3.6,6.8-5.5L788.3,546z"/>
	<path id="carteret" class="st9" d="M831.5,514.3c-1.4,0.9-2.6,3.2-3.9,4.3c-0.7,0.6-1.7,1.1-2.3,1.7c-0.3,0.3-1.4,1.9-1.5,2
		c-3,1.3-2.6-2.2-3.7-3.7c-1.2-1.8-2.9-1.9-5.2-1.7c-1.4,0.1-4.4,1.5-5.8,0.7c-0.5,0.7-1.1,1.6-1.8,2.1c0.1,0.2,0.1,0.4,0.2,0.5
		l2.7,3.7l-3,4.6c-0.5,0.4-4.6,3.7-6.8,4.3c-1.9,0.5-5.4,2.3-7.1,3.4c-1.3,0.8-3,1-4.1,1c-0.2,0-0.4,0-0.6,0l-0.4,0.6
		c-0.1,0.5-0.2,1.1-0.1,1.3c0.5,0.7,0.4,1.7,0.2,2.4l1.8,3.4c3.4-2.8,6.9-5.2,11.5-6.1c4.3-0.9,6.8-2.1,11.2-1
		c4.6,1.2,6.7-0.3,9.3-4.2c1.9-3,3.4-6.2,4.6-9.5c0.7-2,1.6-3.8,2.6-5.6c0.7-1.3,3-3.4,2.4-4.6C831.8,513.7,831.3,514.4,831.5,514.3
		z"/>
	<path id="hyde" class="st9" d="M836.6,476.7l-8.2-3.5l-16.2,1.6l-9.5,2.4l1.7,1.2l5.1,3.1l-1.9,4.8l-3.4,1.7v1.2l3,3.9h7.1
		l-0.6,2.5c1.7,0.1,3.5,0.3,5.1,0c2-0.5,3.8-1.7,6-2c4.9-0.8,5.5-3.4,8-7.1c1.4-2,0.5-3.4,1.2-5.5c0.5-1.5,2.1-2.6,3.5-3.4
		L836.6,476.7z"/>
	<polygon id="robeson" class="st9" points="699.6,580.1 700.5,578.3 701.9,573.2 705.1,570.7 705.1,557.6 700.2,551.3 696.7,548.4 
		693.5,545.8 688.6,554.4 682.5,554.4 680,555.3 678,564.1 682.4,568.2 688,571.3 696.9,578.2 	"/>
	<polygon id="cumberland" class="st9" points="712,539.8 708.8,536.4 708.8,525.2 699.9,523.8 689.1,531.3 689.1,533.6 694,543.4 
		698.1,546.6 700.6,548.8 717.1,544.2 	"/>
	<polygon id="harnett" class="st9" points="703.7,509.8 701,508.9 693.7,506 688.8,506 688.8,507.5 690,510.8 684.5,522.7 
		687.5,528.3 688.6,528.9 699.4,521.5 709.3,523.1 711.4,518.9 	"/>
	<polygon id="chowan" class="st9" points="798.1,456.7 799.3,455.4 801,453.7 797.9,452.9 795.8,450.7 795.8,447.6 793.4,447.6 
		793.4,439.7 790.9,442.6 790.9,446.3 795.3,456.2 	"/>
	<path id="johnston" class="st9" d="M725.4,517.7l0.5-3.4l4.1-6.8l3.1-8.5c-2.6-2-6.4-4.9-6.9-5.8c-0.2-0.4-0.7-0.8-1.1-1.1
		c-0.6-0.6-1.1-1-1.3-1.5c-0.2-0.3-1.2-1.8-2.4-3.3l-4.8,5.5l-7.4,6.4v2.8l-3.6,3.6l-0.2,3.1l7.8,9.2h12.2L725.4,517.7L725.4,517.7z
		"/>
	<polygon id="pitt" class="st9" points="769.6,504.1 772.2,500.6 774.9,499 773.3,481.6 762.9,477.3 751.3,488.7 751.3,489.2 
		753.7,492.8 757.9,496.3 759.8,496.9 768,505.2 	"/>
	<polygon id="bertie" class="st9" points="790.1,469.9 792.6,465.9 794.4,462.5 793.5,457.5 788.7,446.7 788.7,446.4 770.4,451.7 
		765.9,451.4 763.7,456.4 763.7,462.2 764.8,463.7 769.7,468 775.3,469.9 	"/>
	<polygon id="martin" class="st9" points="784.4,481.8 788.8,478.8 789.7,472.1 774.7,472 768.5,469.9 763.2,465.2 762.6,464.4 
		760.6,467.1 763.7,472.6 763.7,475.3 774.7,479.9 781.6,481.8 	"/>
	<polygon id="wayne" class="st9" points="748,518.7 743.2,498.3 742.2,497 740.1,497.6 738.5,498.9 735.2,499.5 731.9,508.5 
		728,515 727.6,518.3 730.5,520.3 	"/>
	<polygon id="camden_1_" class="st9" points="825.9,440.8 824.6,436.5 822.1,433.1 817.8,433.1 806.9,425.8 804.1,426.7 
		797.7,426.7 797.7,427.1 799.6,427.1 799.6,428.6 802.3,428.6 807.1,431 815.8,436 820.1,439 822.3,441.1 	"/>
	<polygon id="pasquotank" class="st9" points="820.1,442 818.6,440.7 814.6,437.9 806.1,432.9 801.8,430.8 799.6,430.8 799.6,431.6 
		801.1,433.8 802.8,437.8 803.7,437.8 805.7,441.2 807.3,442.8 814.5,445.3 	"/>
	<polygon id="perquimans" class="st9" points="806.3,451.1 811.1,448.3 812.3,447.8 812.9,447 806.1,444.6 803.8,442.4 802.5,440 
		801.4,440 799.5,435.7 795.6,437.5 795.6,445.4 798,445.4 798,449.8 799.1,450.9 803.1,451.9 	"/>
	<polygon id="greene" class="st9" points="749.6,506.2 752.6,506.2 755.6,507.5 761.1,501.3 758.6,498.8 756.8,498.3 751.9,494.2 
		749.6,490.6 745.4,498 747.7,507.8 748.7,507.8 	"/>
	<polygon id="rowan" class="st9" points="630.3,519.3 629.1,517 623.3,511.7 618.5,510 607.6,507.7 603.9,506.5 603.9,513.1 
		603.1,513.1 603.1,515.6 606.3,524.3 606.3,524.4 608.7,524.4 627.8,520.8 	"/>
	<polygon id="mecklenburg" class="st9" points="607.9,550.4 613.5,543.5 613.9,543 611.6,543 613.3,542.3 612.1,542 604.3,533.4 
		601.9,528.3 601.9,526.6 601.4,526.6 596,529.7 596,531.5 597.2,539.3 595.8,543.1 595.4,545.8 597.6,545.7 606.1,553.1 	"/>
	<polygon id="cabarrus" class="st9" points="618.5,539.8 625.3,523.5 608.8,526.6 604.2,526.6 604.2,527.9 606.2,532.4 613.3,540 
		616.5,540.7 	"/>
	<polygon id="rockingham" class="st9" points="655.1,470.2 653.1,454.3 645.9,455.4 629.8,458.8 631.3,460.8 633.1,473.2 	"/>
	<polygon id="davie" class="st9" points="602.5,493.3 603.9,498.2 603.9,504.1 608.2,505.6 615.6,507.1 616.9,495.3 611,492.8 	"/>
	<polygon id="forsyth" class="st9" points="620,492.5 632.6,488.7 632.3,483 631.2,475.7 616.9,478 612.3,478.2 612.3,491 
		618.1,493.4 	"/>
	<path id="transylvania" class="st9" d="M516,554.6c-0.8-1.1-1.5-2.3-1.9-3.2c-0.7-1.5-2.2-3.7-2.6-4c-0.5-0.4-0.7-0.9-1-1.5
		c-0.2-0.4-0.3-0.7-0.5-1.1l-1.9,0.9l-1.8,2.4l-1.5,3.4l-1.9,1.7h-1.8v1.1l0.9,8.4l-1.9,1.2v1.5l4.7-2.3h3.9l8.6-4.8
		c0-0.7,0-1.3,0-1.6C517.1,556.4,516.4,555.4,516,554.6z"/>
	<path id="brunswick" class="st9" d="M534.1,532.3l-4-3.7l-1.9-2.3l-2.8-2.2l-2.3-3.2l-1.9-0.7v0.7l-4.1,1.8l-3.9,2.4l-2.5,1.9
		l-4.9,1.9l-4.6,1.5c0.1,0.1,0.2,0.1,0.3,0.2l0.6,0.3v3.1l1.3,1.2l3.8,4.3c0.3,0.2,1.2,1,2.1,1.8v-0.4h11.9l3.1-2.9l1.7-1.8h3.6
		l1.5,1.6l3.9-4.1L534.1,532.3z"/>
	<path id="caldwell" class="st9" d="M572.9,510.3c-0.1-0.9-0.5-3.4-0.9-5.5l-1.1-3.6l-4.5-2l-5.7-3.5l-4.6,0.5l-2.5,1.5l-4,0.2
		l0.7,7.8h1.8l2.4,4l7.6,4.2h7.7C571,512.6,572.3,511,572.9,510.3z"/>
	<polygon id="alleghany" class="st9" points="572.2,474.2 573.8,473.1 575.1,471.6 582.7,471.1 584.1,474.1 584.5,473.9 
		584.5,466.7 586.4,466.7 586.4,464.7 567.1,467.2 571.7,473.8 	"/>
	<path id="ashe" class="st9" d="M567,480.5c1.3-0.9,2.8-1.9,3.1-2.2c0.1-0.2,0.5-1.2,0.8-2.3l-0.9-0.8l-5.4-7.6l-12.3,1.6v9.7
		l8.7,5.9l2.7-1.5L567,480.5z"/>
	<path id="cherokee" class="st9" d="M455.8,573.7l6.2-6.1v-4.9l-5.6,1.8l-8.6,1.3V565c-0.3,0.1-0.5,0.2-0.8,0.2
		c-0.7,0.1-1.4,0.3-2,0.5c-1.2,0.3-2.4,0.7-3.9,0.7c-0.9,0-1.4,0.2-2,0.5l-0.7,9.4c2.4-0.4,4.7-0.7,6.8-1.1L455.8,573.7z"/>
	<path id="mitchell_1_" class="st9" d="M532,505.6l1.1,2.8l1.2,4.6l0.7,0.5l3.7-2.4l1.4-2.1l-1-0.8l-4.1-5.4v-2.4l-4.9-1.1l-1-0.4
		c-0.6,0.4-1.5,1-2,1.4s-0.9,0.7-1.3,0.9c-0.3,0.2-0.6,0.4-0.9,0.6l0.8,0.5L532,505.6z"/>
	<path id="swain" class="st9" d="M484.2,544.3l2.2-1.8l-2.2-4.5l-1.7-3.2l-0.4-0.9c-0.7,1.2-1.5,2.6-3.4,3.9l-0.2,0.2
		c-2.1,1.6-3.9,2.9-6.6,3.8c-1.7,0.6-3.5,0.8-4.9,0.9c-1.3,0.1-2.5,0.2-3.6,0.6c-1.6,0.6-3.2,1.9-4.8,3.3c-0.2,0.2-0.5,0.4-0.7,0.6
		l1.1,1.4l10.1,0.8v5.8l-4,2.6l3.3-0.9l7.3-1.6l4.1-1.6l2.7-3.9L484.2,544.3z"/>
	<path id="madison" class="st9" d="M509.7,525.1l2.2-1.7l4.2-2.5l2.9-1.3v-0.7l-2.1-7.9c-3.1,0.1-6.1-1.2-7.9-3.6
		c-1.4,1.4-3.2,2.4-4.7,3.3c-1.6,0.9-3.2,1.8-4,2.9c-0.4,1.5-0.9,6.9-0.7,8.1c-0.2-0.9-1.2-2.2-2.9-2.1l0.2,3h0.7v4.8
		c0.3,0.3,0.6,0.8,0.8,1.3c0.1,0.1,0.2,0.2,0.3,0.3l6.4-2.1L509.7,525.1z"/>
	<polygon id="jackson" class="st9" points="492.9,568.5 494.6,568.2 497.8,566.6 497.8,562.8 499.7,561.7 498.9,554.6 498.9,552.9 
		495.3,550.9 491.5,546.8 487.8,544.1 486.1,545.6 484.4,550.7 481.8,554.5 482.8,556.1 484.3,557 485.1,558.6 485.9,559.3 
		488.9,561.9 488.9,564.6 491,567.2 	"/>
	<path id="yancey" class="st9" d="M521,517.9l3.5,1.2l2.7,3.6l1.7,1.3l1.7-1.9c0.3-0.6,1.3-2.7,1.8-3.5c0.3-0.5,0.9-2,1.3-3.3
		l-1.3-0.8l-1.4-5.4l-0.8-1.9l-5.8-3l-1.4-1c-2.1,1.8-3,3.4-2.9,4.2l0.6,3.2l-1.6,0.2L521,517.9z"/>
	<path id="avery" class="st9" d="M547.4,497.2l-2.4-2.1V493l-2.7-2.5v-0.3c-0.1,0.2-0.2,0.4-0.2,0.5c-1.7,4.2-3,7-4.7,8.3v3l3.6,4.7
		l0.8,0.7l2.3-1.9h4.2L547.4,497.2z"/>
	<path id="mcdowell" class="st9" d="M536,531l0.8,1.5l13.4-5.2l-1.9-5.1l-3.5-7.1l-1.3-5.3l-0.7-0.6l-0.4,0.4l-2.2,3.2l-4.3,2.8
		c-0.3,1-1.2,3.3-1.6,4.1c-0.5,0.9-1.8,3.4-1.8,3.5l-0.2,0.2l-1.8,2.1l1.3,1.6L536,531z"/>
	<path id="watauga" class="st9" d="M553,495.5l2.4-1.5l3.6-0.4l0.8-4.1l0.3-0.3c0.2-0.2,0.5-1,0.7-2l-8.3-5.7v0.4l-2,0.7
		c-2.3,0.7-4.3,2.1-5.9,3.9v3.1l2.7,2.5v2.1l1.7,1.5L553,495.5z"/>
	<polygon id="yadkin" class="st9" points="610,478.3 600.8,478.6 591.2,482.1 591.6,487.2 593.8,487.2 593.8,491.5 610,490.7 	"/>
	<polygon id="gaston" class="st9" points="572.1,536.2 574.9,540.2 577.9,545.5 578.1,546.6 593.2,545.9 593.7,542.5 594.9,539.1 
		594.3,535.1 	"/>
	<polygon id="surry" class="st9" points="610,468.8 609,462.1 589.3,464.4 588.6,464.4 588.6,468.9 586.7,468.9 586.7,473.6 
		588.3,473.8 590.8,479.9 600.6,476.4 610,476.1 	"/>
	<path id="alexander" class="st9" d="M583,509.6l1.4-13l-5.9,1.2l-2.9,1.4l-2.6,1.6l1.1,3.4c0.5,2.8,0.8,4.4,0.9,5.4H583L583,509.6z
		"/>
	<path id="catawba" class="st9" d="M588.4,515.7l-3.9-3.8h-10.1c-0.6,0.7-2,2.3-3.1,3.5l-1.1,4.2l-1.6,3.5l-0.9,2.4l0.1,0.4l25-4.1
		l-0.3-2.4L588.4,515.7z"/>
	<path id="cleveland" class="st9" d="M575.8,546l-2.7-4.7l-5-7.1L566,527c-1.5,0.6-4,1.7-4.6,1.9c-0.4,0.2-0.8,0.2-1.2,0.3v4.2
		l1.7,1.3l-1,11.3l-0.7,1v0.5l15.7-0.8L575.8,546z"/>
	<path id="wilkes" class="st9" d="M591.6,491.9v-2.4h-2l-0.8-8.7l-2.1-4.9l-0.9-0.2l-2.6,1.5l-1.8-3.8l-5.2,0.3l-1,1.1l-2,1.5
		c-0.9,2.8-1.2,3.2-1.3,3.3c-0.1,0.2-0.4,0.5-3.5,2.6l-3.5,3l-1.9,1c-0.1,1.2-0.5,3.2-1.2,4.3l-0.6,2.9l6.2,3.9l4.2,1.9l2.9-1.8
		l3.4-1.6l7.4-1.5L591.6,491.9z"/>
	<polygon id="caswell" class="st9" points="669.5,452 669.3,452 655.2,454 657.3,469.7 673.4,465.7 	"/>
	<polygon id="guilford" class="st9" points="655.5,472.4 633.4,475.4 634.5,482.8 635.1,493.3 657.7,489.2 	"/>
	<polygon id="davidson" class="st9" points="634.1,513.8 632.8,491 620.7,494.6 619.1,495.4 617.8,507.6 619.2,507.8 624.4,509.7 
		630.9,515.7 632.4,518.6 635.5,518.6 	"/>
	<polygon id="union" class="st9" points="628.7,541.7 625.6,541.7 624.9,543 617,543 615.1,544.9 609.7,551.7 607.8,554.5 
		611,557.3 611,560.4 630.8,558.6 	"/>
</g>
<g id="balls_1_">
	<circle id="cherokee_circle" class="st10" cx="447.7" cy="570.2" r="10.4"/>
	<text id="cherokee_numbers" transform="matrix(1 2.630000e-03 -2.630000e-03 1 442.0296 572.9852)" class="st11 st7 st12">60</text>
	<circle id="graham_circle" class="st10" cx="457.6" cy="554.4" r="10.4"/>
	<text id="graham_numbers" transform="matrix(1 2.630000e-03 -2.630000e-03 1 451.9073 557.2074)" class="st11 st7 st12">60</text>
	<circle id="clay_circle" class="st10" cx="465" cy="571.1" r="10.4"/>
	<text id="clay_numbers" transform="matrix(1 2.630000e-03 -2.630000e-03 1 459.3185 573.9186)" class="st11 st7 st12">60</text>
	
		<ellipse id="macon_circle" transform="matrix(0.1602 -0.9871 0.9871 0.1602 -156.0009 943.6542)" class="st10" cx="476.6" cy="563.5" rx="10.4" ry="10.4"/>
	<text id="macon_numbers" transform="matrix(1 2.630000e-03 -2.630000e-03 1 470.9185 566.3408)" class="st11 st7 st12">60</text>
	
		<ellipse id="swain_circle" transform="matrix(0.1602 -0.9871 0.9871 0.1602 -140.9103 926.3907)" class="st10" cx="474" cy="546" rx="10.4" ry="10.4"/>
	<text id="swain_numbers" transform="matrix(1 2.630000e-03 -2.630000e-03 1 468.3574 548.8185)" class="st11 st7 st12">60</text>
	<circle id="jackson_circle" class="st10" cx="491.2" cy="556.6" r="10.4"/>
	<text id="jackson_numbers" transform="matrix(1 2.630000e-03 -2.630000e-03 1 485.5853 559.4408)" class="st11 st7 st12">60</text>
	
		<ellipse id="transylvania_circle" transform="matrix(0.9239 -0.3827 0.3827 0.9239 -173.697 236.5658)" class="st10" cx="507.8" cy="554.9" rx="10.4" ry="10.4"/>
	<text id="transylvania_numbers" transform="matrix(1 2.630000e-03 -2.630000e-03 1 502.1594 557.6874)" class="st11 st7 st12">60</text>
	<circle id="haywood_circle" class="st10" cx="495.9" cy="538.5" r="10.4"/>
	<text id="haywood_numbers" transform="matrix(1 2.630000e-03 -2.630000e-03 1 490.2518 541.2762)" class="st11 st7 st12">60</text>
	<circle id="henderson_circle" class="st10" cx="524.4" cy="546.6" r="10.4"/>
	<text id="henderson_numbers" transform="matrix(1 2.630000e-03 -2.630000e-03 1 518.7816 549.4186)" class="st11 st7 st12">60</text>
	
		<ellipse id="brunswick_circle_1_" transform="matrix(0.9239 -0.3827 0.3827 0.9239 -164.0267 238.3818)" class="st10" cx="517.2" cy="531.5" rx="10.4" ry="10.4"/>
	<text id="brunswick_numbers_1_" transform="matrix(1 2.630000e-03 -2.630000e-03 1 511.5853 534.3408)" class="st11 st7 st12">60</text>
	<circle id="madison_circle" class="st10" cx="507.9" cy="517.3" r="10.4"/>
	<text id="madison_numbers" transform="matrix(1 2.630000e-03 -2.630000e-03 1 502.2518 520.0985)" class="st11 st7 st12">60</text>
	<circle id="polk_circle" class="st10" cx="537.6" cy="546.6" r="10.4"/>
	<text id="polk_numbers" transform="matrix(1 2.630000e-03 -2.630000e-03 1 531.9332 549.4166)" class="st11 st7 st12">60</text>
	<circle id="rutherford_circle" class="st10" cx="550.9" cy="537.5" r="10.4"/>
	<text id="rutherford_numbers" transform="matrix(1 2.630000e-03 -2.630000e-03 1 545.2443 540.3055)" class="st11 st7 st12">60</text>
	<circle id="mcdowell_circle" class="st10" cx="540.8" cy="521.5" r="10.4"/>
	<text id="mcdowell_numbers" transform="matrix(1 2.630000e-03 -2.630000e-03 1 535.1054 524.3277)" class="st11 st7 st12">60</text>
	<circle id="yancey_circle" class="st10" cx="527.6" cy="513.1" r="10.4"/>
	<text id="yancey_numbers" transform="matrix(1 2.630000e-03 -2.630000e-03 1 521.9221 515.9166)" class="st11 st7 st12">60</text>
	<circle id="mitchell_circle" class="st10" cx="535" cy="505.3" r="10.4"/>
	<text id="mitchell_numbers" transform="matrix(1 2.630000e-03 -2.630000e-03 1 529.3109 508.1388)" class="st11 st7 st12">60</text>
	<circle id="cleveland_circle" class="st10" cx="566.5" cy="538.8" r="10.4"/>
	<text id="cleveland_numbers" transform="matrix(1 2.630000e-03 -2.630000e-03 1 560.7999 541.561)" class="st11 st7 st12">60</text>
	<circle id="burke_circle" class="st10" cx="557.1" cy="518.3" r="10.4"/>
	<text id="burke_numbers" transform="matrix(1 2.630000e-03 -2.630000e-03 1 551.4665 521.0833)" class="st11 st7 st12">60</text>
	<circle id="avery_circle" class="st10" cx="543.6" cy="499" r="10.4"/>
	<text id="avery_numbers" transform="matrix(1 2.630000e-03 -2.630000e-03 1 537.9775 501.8277)" class="st11 st7 st12">60</text>
	<circle id="caldwell_circle" class="st10" cx="561.8" cy="505" r="10.4"/>
	<text id="caldwell_numbers" transform="matrix(1 2.630000e-03 -2.630000e-03 1 556.1331 507.7777)" class="st11 st7 st12">60</text>
	<circle id="watauga_circle" class="st10" cx="552.8" cy="487.2" r="10.4"/>
	<text id="watauga_numbers" transform="matrix(1 2.630000e-03 -2.630000e-03 1 547.1776 489.9832)" class="st11 st7 st12">60</text>
	<circle id="ashe_circle" class="st10" cx="560.6" cy="474.1" r="10.4"/>
	<text id="ashe_numbers" transform="matrix(1 2.630000e-03 -2.630000e-03 1 554.8942 476.8721)" class="st11 st7 st12">60</text>
	<circle id="gaston_circle" class="st10" cx="585.1" cy="540" r="10.4"/>
	<text id="gaston_numbers" transform="matrix(1 2.630000e-03 -2.630000e-03 1 579.4553 542.7944)" class="st11 st7 st12">60</text>
	<circle id="lincoln_circle" class="st10" cx="583" cy="528.2" r="10.4"/>
	<text id="lincoln_numbers" transform="matrix(1 2.630000e-03 -2.630000e-03 1 577.3665 531.0277)" class="st11 st7 st12">60</text>
	<circle id="catawba_circle" class="st10" cx="580.3" cy="517.2" r="10.4"/>
	<text id="catawba_numbers" transform="matrix(1 2.630000e-03 -2.630000e-03 1 574.6555 520.0388)" class="st11 st7 st12">60</text>
	<circle id="alexander_circle" class="st10" cx="578.7" cy="501.9" r="10.4"/>
	<text id="alexander_numbers" transform="matrix(1 2.630000e-03 -2.630000e-03 1 573.011 504.6832)" class="st11 st7 st12">60</text>
	<circle id="wilkes_circle" class="st10" cx="577.3" cy="486.7" r="10.4"/>
	<text id="wilkes_numbers" transform="matrix(1 2.630000e-03 -2.630000e-03 1 571.6776 489.5388)" class="st11 st7 st12">60</text>
	<circle id="iredell_circle" class="st10" cx="595.1" cy="507.8" r="10.4"/>
	<text id="iredell_numbers" transform="matrix(1 2.630000e-03 -2.630000e-03 1 589.4276 510.5721)" class="st11 st7 st12">60</text>
	<circle id="mecklenburg_circle" class="st10" cx="603.1" cy="540.2" r="10.4"/>
	<text id="mecklenburg_numbers" transform="matrix(1 2.630000e-03 -2.630000e-03 1 597.4776 543.0277)" class="st11 st7 st12">60</text>
	<circle id="alleghany_circle" class="st10" cx="577.3" cy="467.4" r="10.4"/>
	<text id="alleghany_numbers" transform="matrix(1 2.630000e-03 -2.630000e-03 1 571.6721 470.1944)" class="st11 st7 st12">60</text>
	<circle id="union_circle" class="st10" cx="620.5" cy="551.9" r="10.4"/>
	<text id="union_numbers" transform="matrix(1 2.630000e-03 -2.630000e-03 1 614.811 554.7054)" class="st11 st7 st12">60</text>
	<circle id="cabarrus_circle" class="st10" cx="616.5" cy="530.9" r="10.4"/>
	<text id="cabarrus_numbers" transform="matrix(1 2.630000e-03 -2.630000e-03 1 610.8297 533.6647)" class="st11 st7 st12">60</text>
	<circle id="rowan_circle" class="st10" cx="614" cy="515.6" r="10.4"/>
	<text id="rowan_numbers" transform="matrix(1 2.630000e-03 -2.630000e-03 1 608.3852 518.4387)" class="st11 st7 st12">60</text>
	<circle id="davie_circle" class="st10" cx="610" cy="498.8" r="10.4"/>
	<text id="davie_numbers" transform="matrix(1 2.630000e-03 -2.630000e-03 1 604.3332 501.5667)" class="st11 st7 st12">60</text>
	<circle id="yadkin_circle" class="st10" cx="600.9" cy="483.2" r="10.4"/>
	<text id="yadkin_numbers" transform="matrix(1 2.630000e-03 -2.630000e-03 1 595.2943 485.9943)" class="st11 st7 st12">60</text>
	<circle id="surry_circle" class="st10" cx="599" cy="469" r="10.4"/>
	<text id="surry_numbers" transform="matrix(1 2.630000e-03 -2.630000e-03 1 593.3276 471.7999)" class="st11 st7 st12">60</text>
	<circle id="stanly_circle" class="st10" cx="632.4" cy="531.5" r="10.4"/>
	<text id="stanly_numbers" transform="matrix(1 2.630000e-03 -2.630000e-03 1 626.7109 534.3167)" class="st11 st7 st12">60</text>
	<circle id="davidson_circle" class="st10" cx="627.3" cy="503.7" r="10.4"/>
	<text id="davidson_numbers" transform="matrix(1 2.630000e-03 -2.630000e-03 1 621.6887 506.5277)" class="st11 st7 st12">60</text>
	<circle id="forsyth_circle" class="st10" cx="621.7" cy="483.4" r="10.4"/>
	<text id="forsyth_numbers" transform="matrix(1 2.630000e-03 -2.630000e-03 1 616.0554 486.1985)" class="st11 st7 st12">60</text>
	<circle id="stokes_circle" class="st10" cx="620" cy="466.6" r="10.4"/>
	<text id="stokes_numbers" transform="matrix(1 2.630000e-03 -2.630000e-03 1 614.3332 469.3499)" class="st11 st7 st12">60</text>
	<circle id="anson_circle" class="st10" cx="641.5" cy="549.9" r="10.4"/>
	<text id="anson_numbers" transform="matrix(1 2.630000e-03 -2.630000e-03 1 635.8665 552.7055)" class="st11 st7 st12">60</text>
	<circle id="richmond_circle" class="st10" cx="658.9" cy="546.3" r="10.4"/>
	<text id="richmond_numbers" transform="matrix(1 2.630000e-03 -2.630000e-03 1 653.2443 549.0667)" class="st11 st7 st12">60</text>
	<circle id="montgomery_circle" class="st10" cx="648" cy="528" r="10.4"/>
	<text id="montgomery_numbers" transform="matrix(1 2.630000e-03 -2.630000e-03 1 642.3609 530.8055)" class="st11 st7 st12">60</text>
	<circle id="randolph_circle" class="st10" cx="648.5" cy="504.4" r="10.4"/>
	<text id="randolph_numbers" transform="matrix(1 2.630000e-03 -2.630000e-03 1 642.8054 507.2332)" class="st11 st7 st12">60</text>
	<circle id="guilford_circle" class="st10" cx="645.2" cy="481.9" r="10.4"/>
	<text id="guilford_numbers" transform="matrix(1 2.630000e-03 -2.630000e-03 1 639.5887 484.6443)" class="st11 st7 st12">60</text>
	<circle id="rockingham_circle" class="st10" cx="642.8" cy="463.2" r="10.4"/>
	<text id="rockingham_numbers" transform="matrix(1 2.630000e-03 -2.630000e-03 1 637.1721 466.0113)" class="st11 st7 st12">60</text>
	<circle id="moore_circle" class="st10" cx="669.1" cy="525.4" r="10.4"/>
	<text id="moore_numbers" transform="matrix(1 2.630000e-03 -2.630000e-03 1 663.3998 528.2351)" class="st11 st7 st12">60</text>
	<circle id="scotland_circle" class="st10" cx="672.1" cy="553.6" r="10.4"/>
	<text id="scotland_numbers" transform="matrix(1 2.630000e-03 -2.630000e-03 1 666.3943 556.4166)" class="st11 st7 st12">60</text>
	<circle id="hoke_circle" class="st10" cx="682.3" cy="542" r="10.4"/>
	<text id="hoke_numbers" transform="matrix(1 2.630000e-03 -2.630000e-03 1 676.6442 544.7462)" class="st11 st7 st12">60</text>
	<circle id="robeson_circle" class="st10" cx="693.7" cy="563.5" r="10.4"/>
	<text id="robeson_numbers" transform="matrix(1 2.630000e-03 -2.630000e-03 1 688.0814 566.2944)" class="st11 st7 st12">60</text>
	<circle id="cumberland_circle" class="st10" cx="702" cy="536.1" r="10.4"/>
	<text id="cumberland_numbers" transform="matrix(1 2.630000e-03 -2.630000e-03 1 696.3111 538.887)" class="st11 st7 st12">60</text>
	<circle id="harnett_circle" class="st10" cx="696.3" cy="515.6" r="10.4"/>
	<text id="harnett_numbers" transform="matrix(1 2.630000e-03 -2.630000e-03 1 690.685 518.4314)" class="st11 st7 st12">60</text>
	<circle id="lee_circle" class="st10" cx="681.2" cy="512" r="10.4"/>
	<text id="lee_numbers" transform="matrix(1 2.630000e-03 -2.630000e-03 1 675.5665 514.8092)" class="st11 st7 st12">60</text>
	<circle id="chatham_circle" class="st10" cx="674.1" cy="499.2" r="10.4"/>
	<text id="chatham_numbers" transform="matrix(1 2.630000e-03 -2.630000e-03 1 668.4258 502.0166)" class="st11 st7 st12">60</text>
	<circle id="bladen_circle" class="st10" cx="720.2" cy="559.6" r="10.4"/>
	<text id="bladen_numbers" transform="matrix(1 2.630000e-03 -2.630000e-03 1 714.5239 562.3684)" class="st11 st7 st12">60</text>
	<circle id="columbus_circle" class="st10" cx="719.8" cy="580.7" r="10.4"/>
	<text id="columbus_numbers" transform="matrix(1 2.630000e-03 -2.630000e-03 1 714.1461 583.4647)" class="st11 st7 st12">60</text>
	<circle id="brunswick_circle" class="st10" cx="742.4" cy="589.7" r="10.4"/>
	<text id="brunswick_numbers" transform="matrix(1 2.630000e-03 -2.630000e-03 1 736.7924 592.5092)" class="st11 st7 st12">60</text>
	<circle id="alamance_circle" class="st10" cx="664.9" cy="480.4" r="10.4"/>
	<text id="alamance_numbers" transform="matrix(1 2.630000e-03 -2.630000e-03 1 659.2776 483.1981)" class="st11 st7 st12">60</text>
	<circle id="orange_circle" class="st10" cx="678.6" cy="476.9" r="10.4"/>
	<text id="orange_numbers" transform="matrix(1 2.630000e-03 -2.630000e-03 1 672.8998 479.7166)" class="st11 st7 st12">60</text>
	<circle id="caswell_circle" class="st10" cx="663.6" cy="459" r="10.4"/>
	<text id="caswell_numbers" transform="matrix(1 2.630000e-03 -2.630000e-03 1 657.9147 461.8406)" class="st11 st7 st12">60</text>
	<circle id="sampson_circle" class="st10" cx="723.8" cy="534.3" r="10.4"/>
	<text id="sampson_numbers" transform="matrix(1 2.630000e-03 -2.630000e-03 1 718.0998 537.0499)" class="st11 st7 st12">60</text>
	<circle id="new_hanover_circle" class="st10" cx="758.2" cy="576.5" r="10.4"/>
	<text id="new_hanover_numbers" transform="matrix(1 2.630000e-03 -2.630000e-03 1 752.5333 579.2499)" class="st11 st7 st12">60</text>
	<circle id="pender_circle" class="st10" cx="754.6" cy="558.2" r="10.4"/>
	<text id="pender_numbers" transform="matrix(1 2.630000e-03 -2.630000e-03 1 748.9332 561.0277)" class="st11 st7 st12">60</text>
	<circle id="duplin_circle" class="st10" cx="747.4" cy="534.4" r="10.4"/>
	<text id="duplin_numbers" transform="matrix(1 2.630000e-03 -2.630000e-03 1 741.7609 537.2)" class="st11 st7 st12">60</text>
	<circle id="wayne_circle" class="st10" cx="738.6" cy="510" r="10.4"/>
	<text id="wayne_numbers" transform="matrix(1 2.630000e-03 -2.630000e-03 1 732.9887 512.7721)" class="st11 st7 st12">60</text>
	<circle id="johnston_circle" class="st10" cx="719.5" cy="504.2" r="10.4"/>
	<text id="johnston_numbers" transform="matrix(1 2.630000e-03 -2.630000e-03 1 713.8498 506.95)" class="st11 st7 st12">60</text>
	<circle id="wake_circle" class="st10" cx="703.1" cy="491.1" r="10.4"/>
	<text id="wake_numbers" transform="matrix(1 2.630000e-03 -2.630000e-03 1 697.4665 493.861)" class="st11 st7 st12">60</text>
	<circle id="durham_circle" class="st10" cx="691" cy="475.3" r="10.4"/>
	<text id="durham_numbers" transform="matrix(1 2.630000e-03 -2.630000e-03 1 685.3832 478.0944)" class="st11 st7 st12">60</text>
	<circle id="person_circle" class="st10" cx="681.2" cy="456.2" r="10.4"/>
	<text id="person_numbers" transform="matrix(1 2.630000e-03 -2.630000e-03 1 675.4999 459.0055)" class="st11 st7 st12">60</text>
	<circle id="granville_circle" class="st10" cx="697" cy="459.5" r="10.4"/>
	<text id="granville_numbers" transform="matrix(1 2.630000e-03 -2.630000e-03 1 691.3721 462.3277)" class="st11 st7 st12">60</text>
	<circle id="onslow_circle" class="st10" cx="773.7" cy="542.3" r="10.4"/>
	<text id="onslow_numbers" transform="matrix(1 2.630000e-03 -2.630000e-03 1 768.0388 545.0609)" class="st11 st7 st12">60</text>
	<circle id="franklin_circle" class="st10" cx="717.5" cy="468.9" r="10.4"/>
	<text id="franklin_numbers" transform="matrix(1 2.630000e-03 -2.630000e-03 1 711.8463 471.661)" class="st11 st7 st12">60</text>
	<circle id="vance_circle" class="st10" cx="707.3" cy="451.8" r="10.4"/>
	<text id="vance_numbers" transform="matrix(1 2.630000e-03 -2.630000e-03 1 701.611 454.6332)" class="st11 st7 st12">60</text>
	<circle id="jones_circle" class="st10" cx="773.1" cy="522.2" r="10.4"/>
	<text id="jones_numbers" transform="matrix(1 2.630000e-03 -2.630000e-03 1 767.4055 525.0055)" class="st11 st7 st12">60</text>
	<circle id="lenoir_circle" class="st10" cx="757" cy="512.9" r="10.4"/>
	<text id="lenoir_numbers" transform="matrix(1 2.630000e-03 -2.630000e-03 1 751.361 515.6944)" class="st11 st7 st12">60</text>
	<circle id="greene_circle" class="st10" cx="751.4" cy="498.7" r="10.4"/>
	<text id="greene_numbers" transform="matrix(1 2.630000e-03 -2.630000e-03 1 745.7609 501.5388)" class="st11 st7 st12">60</text>
	<circle id="wilson_circle" class="st10" cx="738.2" cy="487.4" r="10.4"/>
	<text id="wilson_numbers" transform="matrix(1 2.630000e-03 -2.630000e-03 1 732.5443 490.2074)" class="st11 st7 st12">60</text>
	<circle id="nash_circle" class="st10" cx="732.9" cy="472.4" r="10.4"/>
	<text id="nash_numbers" transform="matrix(1 2.630000e-03 -2.630000e-03 1 727.2443 475.2277)" class="st11 st7 st12">60</text>
	<circle id="warren_circle" class="st10" cx="721.6" cy="448.7" r="10.4"/>
	<text id="warren_numbers" transform="matrix(1 2.630000e-03 -2.630000e-03 1 715.961 451.45)" class="st11 st7 st12">60</text>
	<circle id="craven_circle" class="st10" cx="785.1" cy="515.3" r="10.4"/>
	<text id="craven_numbers" transform="matrix(1 2.630000e-03 -2.630000e-03 1 779.4807 518.1166)" class="st11 st7 st12">60</text>
	<circle id="carteret_circle" class="st10" cx="813.3" cy="529.9" r="10.4"/>
	<text id="carteret_numbers" transform="matrix(1 2.630000e-03 -2.630000e-03 1 807.6443 532.661)" class="st11 st7 st12">60</text>
	<circle id="pamlico_circle" class="st10" cx="803.6" cy="510.1" r="10.4"/>
	<text id="pamlico_numbers" transform="matrix(1 2.630000e-03 -2.630000e-03 1 797.9444 512.8999)" class="st11 st7 st12">60</text>
	<circle id="pitt_circle" class="st10" cx="764.4" cy="489.3" r="10.4"/>
	<text id="pitt_numbers" transform="matrix(1 2.630000e-03 -2.630000e-03 1 758.6999 492.1054)" class="st11 st7 st12">60</text>
	<circle id="edgecombe_circle" class="st10" cx="751.9" cy="472.7" r="10.4"/>
	<text id="edgecombe_numbers" transform="matrix(1 2.630000e-03 -2.630000e-03 1 746.2443 475.461)" class="st11 st7 st12">60</text>
	<circle id="halifax_circle" class="st10" cx="744" cy="451.6" r="10.4"/>
	<text id="halifax_numbers" transform="matrix(1 2.630000e-03 -2.630000e-03 1 738.3554 454.3776)" class="st11 st7 st12">60</text>
	<circle id="beaufort_circle" class="st10" cx="790.9" cy="492.6" r="10.4"/>
	<text id="beaufort_numbers" transform="matrix(1 2.630000e-03 -2.630000e-03 1 785.2888 495.4277)" class="st11 st7 st12">60</text>
	<circle id="martin_circle" class="st10" cx="775.8" cy="473.8" r="10.4"/>
	<text id="martin_numbers" transform="matrix(1 2.630000e-03 -2.630000e-03 1 770.122 476.5721)" class="st11 st7 st12">60</text>
	<circle id="washington_circle" class="st10" cx="801.1" cy="468.6" r="10.4"/>
	<text id="washington_numbers" transform="matrix(1 2.630000e-03 -2.630000e-03 1 795.4553 471.3721)" class="st11 st7 st12">60</text>
	<circle id="hyde_circle" class="st10" cx="821.1" cy="483.7" r="10.4"/>
	<text id="hyde_numbers" transform="matrix(1 2.630000e-03 -2.630000e-03 1 815.4146 486.45)" class="st11 st7 st12">60</text>
	<circle id="dare_circle_1_" class="st10" cx="819.5" cy="463.7" r="10.4"/>
	<text id="dare_numbers_1_" transform="matrix(1 2.630000e-03 -2.630000e-03 1 813.8924 466.4647)" class="st11 st7 st12">60</text>
	<circle id="dare_circle" class="st10" cx="836.8" cy="465.4" r="10.4"/>
	<text id="dare_numbers" transform="matrix(1 2.630000e-03 -2.630000e-03 1 831.1369 468.2425)" class="st11 st7 st12">60</text>
	<circle id="currituck_circle" class="st10" cx="858.1" cy="485.4" r="10.4"/>
	<text id="currituck_numbers" transform="matrix(1 2.630000e-03 -2.630000e-03 1 852.4246 488.2351)" class="st11 st7 st12">60</text>
	<circle id="bertie_circle" class="st10" cx="779.8" cy="459.3" r="10.4"/>
	<text id="bertie_numbers" transform="matrix(1 2.630000e-03 -2.630000e-03 1 774.1332 462.0499)" class="st11 st7 st12">60</text>
	<circle id="northampton_circle" class="st10" cx="757.2" cy="441" r="10.4"/>
	<text id="northampton_numbers" transform="matrix(1 2.630000e-03 -2.630000e-03 1 751.5388 443.8314)" class="st11 st7 st12">60</text>
	<circle id="hertford_circle" class="st10" cx="775.9" cy="440.8" r="10.4"/>
	<text id="hertford_numbers" transform="matrix(1 2.630000e-03 -2.630000e-03 1 770.2924 443.6128)" class="st11 st7 st12">60</text>
	<circle id="gates_circle" class="st10" cx="788.5" cy="431.5" r="10.4"/>
	<text id="gates_numbers" transform="matrix(1 2.630000e-03 -2.630000e-03 1 782.8165 434.3017)" class="st11 st7 st12">60</text>
	<circle id="chowan_circle" class="st10" cx="796.9" cy="448.8" r="10.4"/>
	<text id="chowan_numbers" transform="matrix(1 2.630000e-03 -2.630000e-03 1 791.2239 451.6092)" class="st11 st7 st12">60</text>
	<circle id="perquimans_circle" class="st10" cx="802.8" cy="444.1" r="10.4"/>
	<text id="perquimans_numbers" transform="matrix(1 2.630000e-03 -2.630000e-03 1 797.0963 446.8943)" class="st11 st7 st12">60</text>
	<circle id="pasquotank_circle" class="st10" cx="810.1" cy="437.4" r="10.4"/>
	<text id="pasquotank_numbers" transform="matrix(1 2.630000e-03 -2.630000e-03 1 804.4086 440.2017)" class="st11 st7 st12">60</text>
	<circle id="camden_circle" class="st10" cx="814.7" cy="429.3" r="10.4"/>
	<text id="camden_numbers" transform="matrix(1 2.630000e-03 -2.630000e-03 1 808.9943 432.0943)" class="st11 st7 st12">60</text>
</g>
<g id="table_data">
	<text transform="matrix(1 0 0 1 21.15 764.0735)" class="st2 st7 st8">Confirmed Cases</text>
	<text transform="matrix(1 0 0 1 21.15 808.0051)" class="st2 st7 st8">Deaths</text>
	<text id="current_date" transform="matrix(1 0 0 1 204.6796 719.7913)" class="st2 st7 st8">6 Apr. 2020</text>
	<text id="previous_date" transform="matrix(1 0 0 1 339.4578 719.7913)" class="st2 st7 st8">5 Apr. 2020</text>
	<text id="growth_rate__x25_" transform="matrix(1 0 0 1 458.5259 719.7913)" class="st2 st7 st8">Growth Rate %</text>
	<text transform="matrix(1 0 0 1 673.801 719.7913)" class="st2 st7 st8">Total Confirmed Cases</text>
	<text id="current_ases" transform="matrix(1 0 0 1 227.5352 767.8254)" class="st13 st7 st5">783</text>
	<text id="previous_deaths" transform="matrix(1 0 0 1 370.2482 812.3049)" class="st13 st7 st5">14</text>
	<text id="current_deaths" transform="matrix(1 0 0 1 231.0554 811.3251)" class="st13 st7 st5">15</text>
	<text id="total_cases" transform="matrix(1 0 0 1 732.2502 796.9686)" class="st14 st7 st15">783</text>
	<text id="previous_ases" transform="matrix(1 0 0 1 362.3354 767.8254)" class="st13 st7 st5">673</text>
	<text id="cases_growth_rate" transform="matrix(1 0 0 1 492.2486 769.3616)" class="st13 st7 st5">16 %</text>
	<text id="death_growth_rate" transform="matrix(1 0 0 1 496.6478 813.8409)" class="st13 st7 st5">7 %</text>
</g>
<g id="TYPES_1_">
	<g>
		<circle id="_x34__1_" class="st10" cx="882.1" cy="-44" r="25.2"/>
		
			<text id="_x34__numbers_1_" transform="matrix(1 2.629928e-03 -2.629928e-03 1 858.4941 -38.4633)" class="st11 st7" style="font-size:15px;">10,000</text>
	</g>
	<g>
		<circle id="_x33__1_" class="st10" cx="822.4" cy="-43" r="18.2"/>
		
			<text id="_x33__numbers_1_" transform="matrix(1 2.629936e-03 -2.629936e-03 1 805.7315 -38.484)" class="st11 st7" style="font-size:13px;">1,000</text>
	</g>
	<g>
		<circle id="_x32__1_" class="st10" cx="772.9" cy="-42.1" r="12.4"/>
		
			<text id="_x32__numbers_1_" transform="matrix(1 2.629918e-03 -2.629918e-03 1 762.1659 -37.6533)" class="st11 st7" style="font-size:12px;">100</text>
	</g>
	<g>
		<circle id="_x31__2_" class="st10" cx="695.8" cy="-41.1" r="7.2"/>
		
			<text id="_x31__numbers_2_" transform="matrix(1 2.629955e-03 -2.629955e-03 1 693.6189 -38.2503)" class="st11 st7" style="font-size:7.3546px;">1</text>
	</g>
	<g>
		<circle id="_x31__1_" class="st10" cx="731.8" cy="-41.1" r="9.6"/>
		
			<rect x="726.9" y="-45.2" transform="matrix(2.629838e-03 -1 1 2.629838e-03 770.4681 691.1708)" class="st16" width="9.6" height="9"/>
		
			<text id="_x31__numbers_1_" transform="matrix(1 2.629909e-03 -2.629909e-03 1 726.3306 -38.3706)" class="st11 st7" style="font-size:9px;">10</text>
	</g>
</g>
	<image style="overflow:visible;" width="160" height="104" id="LOGO" xlink:href="../maps/SR Logos/North Carolina.png"  transform="matrix(0.4392 0 0 0.4392 838.7281 5.0807)">
	</image>
</svg>
