<?xml version="1.0" encoding="utf-8"?>
<!-- Generator: Adobe Illustrator 24.1.2, SVG Export Plug-In . SVG Version: 6.00 Build 0)  -->
<svg version="1.1" id="Layer_1" xmlns="http://www.w3.org/2000/svg" xmlns:xlink="http://www.w3.org/1999/xlink" x="0px" y="0px"
	 viewBox="0 0 916.5 781.8" style="enable-background:new 0 0 916.5 781.8;" xml:space="preserve">
<style type="text/css">
	.st0{fill:#4C4B4D;}
	.st1{font-family:'ArialMT';}
	.st2{font-size:13px;}
	.st3{font-size:14px;}
	.st4{letter-spacing:1;}
	.st5{fill:#255078;}
	.st6{font-family:'Georgia';}
	.st7{font-size:16px;}
	.st8{fill:#F5FBFE;}
	.st9{fill:#DDEEFA;}
	.st10{font-size:18px;}
	.st11{fill:#AEDBF5;}
	.st12{fill:#CD483B;}
	.st13{fill:#FFFFFF;}
	.st14{font-size:11.0411px;}
	.st15{font-size:11.0549px;}
	.st16{font-size:6.7546px;}
	.st17{font-size:10.3181px;}
	.st18{fill:#4C4B4C;}
	.st19{fill:#DB3029;}
	.st20{font-size:36px;}
	.st21{fill:none;}
</style>
<g id="texts">
	<text transform="matrix(1 0 0 1 32.8482 152.1692)" class="st0 st1 st2">Franklin  2,698</text>
	<text transform="matrix(1 0 0 1 32.8481 173.6604)" class="st0 st1 st2">Cuyahoga  2,305</text>
	<text transform="matrix(1 0 0 1 32.8483 195.1516)" class="st0 st1 st2">Marion  2,294</text>
	<text transform="matrix(1 0 0 1 32.8483 216.6426)" class="st0 st1 st2">Pickaway  1,724</text>
	<text transform="matrix(1 0 0 1 32.8483 238.1345)" class="st0 st1 st2">Hamilton  1,353</text>
	<text transform="matrix(1 0 0 1 32.8483 259.6252)" class="st0 st1 st2">Lucas  1,331</text>
	<text transform="matrix(1 0 0 1 32.8481 281.116)" class="st0 st1 st2">Mahoning  883</text>
	<text transform="matrix(1 0 0 1 32.8481 302.6072)" class="st0 st1 st2">Summit  679</text>
	<text transform="matrix(1 0 0 1 32.8481 324.0979)" class="st0 st1 st2">Lorain  480</text>
	<text transform="matrix(1 0 0 1 32.8481 346.447)" class="st0 st1 st3">Stark  379</text>
	<text transform="matrix(1 0 0 1 32.8481 368.2632)" class="st0 st1 st2">Trumbull  324</text>
	<text transform="matrix(1 0 0 1 32.8481 389.7549)" class="st0 st1 st2">Butler  318</text>
	<text transform="matrix(1 0 0 1 32.8481 411.2468)" class="st0 st1 st2">Montgomery  311</text>
	<text transform="matrix(1 0 0 1 32.8481 432.7373)" class="st0 st1 st2">Columbiana  274</text>
	<text transform="matrix(1 0 0 1 32.8481 454.2284)" class="st0 st1 st2">Portage  243</text>
	<text transform="matrix(1 0 0 1 32.8481 475.7202)" class="st0 st1 st2">Wood  183</text>
	<text transform="matrix(1 0 0 1 32.8481 497.2112)" class="st0 st1 st2">Medina  172</text>
	<text transform="matrix(1 0 0 1 32.8481 541.0515)" class="st0 st1 st3">Lake  170</text>
	<text transform="matrix(1 0 0 1 32.8481 518.7031)" class="st0 st1 st2">Delaware  168</text>
	<text transform="matrix(1 0 0 1 32.8481 562.8679)" class="st0 st1 st2">Warren  166</text>
	<text transform="matrix(1 0 0 1 32.8481 584.3589)" class="st0 st1 st2">Geauga  159</text>
	<text transform="matrix(1 0 0 1 32.8482 605.8499)" class="st0 st1 st2">Belmont  156</text>
	<text transform="matrix(1 0 0 1 187.45 153.0266)" class="st0 st1 st3">Wayne  149</text>
	<text transform="matrix(1 0 0 1 187.4283 174.5886)" class="st0 st1 st3">Miami  143</text>
	<text transform="matrix(1 0 0 1 187.4498 196.1504)" class="st0 st1 st3">Ashtabula  142</text>
	<text transform="matrix(1 0 0 1 187.3283 217.7124)" class="st0 st1 st3">Fairfield  140</text>
	<text transform="matrix(1 0 0 1 187.4498 239.2739)" class="st0 st1 st3">Allen  123</text>
	<text transform="matrix(1 0 0 1 249.7498 239.2739)" class="st0 st1 st3 st4"> </text>
	<text transform="matrix(1 0 0 1 187.4283 260.8362)" class="st0 st1 st3">Licking  122</text>
	<text transform="matrix(1 0 0 1 187.4283 282.3977)" class="st0 st1 st3">Tuscarawas  109</text>
	<text transform="matrix(1 0 0 1 187.4283 303.9597)" class="st0 st1 st3">Washington  100</text>
	<text transform="matrix(1 0 0 1 187.4283 325.522)" class="st0 st1 st3">Clermont  99</text>
	<text transform="matrix(1 0 0 1 187.4283 347.0835)" class="st0 st1 st3">Richland  89</text>
	<text transform="matrix(1 0 0 1 187.4283 368.6453)" class="st0 st1 st3">Darke  76</text>
	<text transform="matrix(1 0 0 1 187.4283 390.2068)" class="st0 st1 st3">Morrow  75</text>
	<text transform="matrix(1 0 0 1 187.4283 411.7679)" class="st0 st1 st3">Putnam  69</text>
	<text transform="matrix(1 0 0 1 187.4283 433.33)" class="st0 st1 st3">Madison  64</text>
	<text transform="matrix(1 0 0 1 187.4283 454.8911)" class="st0 st1 st3">Clark  63</text>
	<text transform="matrix(1 0 0 1 187.4283 476.4534)" class="st0 st1 st3">Erie  58</text>
	<text transform="matrix(1 0 0 1 187.4283 498.0154)" class="st0 st1 st3">Crawford  50</text>
	<text transform="matrix(1 0 0 1 187.4283 519.5764)" class="st0 st1 st3">Greene  48</text>
	<text transform="matrix(1 0 0 1 187.4283 541.1387)" class="st0 st1 st3">Jefferson  43</text>
	<text transform="matrix(1 0 0 1 187.4283 562.7017)" class="st0 st1 st3">Ottawa  40</text>
	<text transform="matrix(1 0 0 1 187.4283 584.2637)" class="st0 st1 st3">Ross  40</text>
	<text transform="matrix(1 0 0 1 187.4284 605.8259)" class="st0 st1 st3">Hancock  38</text>
	<text transform="matrix(1 0 0 1 343.25 153.0269)" class="st0 st1 st3">Williams  36</text>
	<text transform="matrix(1 0 0 1 343.2715 174.5742)" class="st0 st1 st3">Auglaize  34</text>
	<text transform="matrix(1 0 0 1 343.25 196.1218)" class="st0 st1 st3">Sandusky  32</text>
	<text transform="matrix(1 0 0 1 343.25 217.6692)" class="st0 st1 st3">Clinton  31</text>
	<text transform="matrix(1 0 0 1 410.1501 217.6692)" class="st0 st1 st3"> </text>
	<text transform="matrix(1 0 0 1 343.25 239.217)" class="st0 st1 st3">Huron  31</text>
	<text transform="matrix(1 0 0 1 343.25 260.7644)" class="st0 st1 st3">Shelby  30</text>
	<text transform="matrix(1 0 0 1 343.25 282.312)" class="st0 st1 st3">Mercer  28</text>
	<text transform="matrix(1 0 0 1 343.25 303.8594)" class="st0 st1 st3">Preble  27</text>
	<text transform="matrix(1 0 0 1 343.25 325.407)" class="st0 st1 st3">Hardin  26</text>
	<text transform="matrix(1 0 0 1 343.25 346.9553)" class="st0 st1 st3">Lawrence  25</text>
	<text transform="matrix(1 0 0 1 343.25 368.5022)" class="st0 st1 st3">Fulton  24</text>
	<text transform="matrix(1 0 0 1 343.25 390.0496)" class="st0 st1 st3">Wyandot  24</text>
	<text transform="matrix(1 0 0 1 343.25 411.598)" class="st0 st1 st3">Union  22</text>
	<text transform="matrix(1 0 0 1 343.25 433.145)" class="st0 st1 st3">Carroll  21</text>
	<text transform="matrix(1 0 0 1 343.25 454.6929)" class="st0 st1 st3">Defiance  20</text>
	<text transform="matrix(1 0 0 1 343.25 476.2397)" class="st0 st1 st3">Hocking  19</text>
	<text transform="matrix(1 0 0 1 343.25 497.7878)" class="st0 st1 st3">Logan  19</text>
	<text transform="matrix(1 0 0 1 343.25 519.3357)" class="st0 st1 st3">Knox  18</text>
	<text transform="matrix(1 0 0 1 343.25 540.8826)" class="st0 st1 st3">Coshocton  17</text>
	<text transform="matrix(1 0 0 1 343.25 562.4304)" class="st0 st1 st3">Fayette  17</text>
	<text transform="matrix(1 0 0 1 343.25 583.978)" class="st0 st1 st3">Muskingum  17</text>
	<text transform="matrix(1 0 0 1 343.25 605.5254)" class="st0 st1 st3">Guernsey  16</text>
	<text transform="matrix(1 0 0 1 488.6842 153.0269)" class="st0 st1 st3">Champaign  14</text>
	<text transform="matrix(1 0 0 1 488.6842 174.574)" class="st0 st1 st3">Seneca  14</text>
	<text transform="matrix(1 0 0 1 488.6842 196.1216)" class="st0 st1 st3">Perry  13</text>
	<text transform="matrix(1 0 0 1 488.6842 217.6692)" class="st0 st1 st3">Brown  11</text>
	<text transform="matrix(1 0 0 1 488.6842 239.2168)" class="st0 st1 st3">Scioto  11</text>
	<text transform="matrix(1 0 0 1 488.6842 260.7644)" class="st0 st1 st3">Highland  10</text>
	<text transform="matrix(1 0 0 1 488.7057 282.312)" class="st0 st1 st3">Ashland  8</text>
	<text transform="matrix(1 0 0 1 488.6842 303.8596)" class="st0 st1 st3">Paulding  8</text>
	<text transform="matrix(1 0 0 1 488.6842 325.4067)" class="st0 st1 st3">Gallia  6</text>
	<text transform="matrix(1 0 0 1 488.6842 346.9548)" class="st0 st1 st3">Holmes  6</text>
	<text transform="matrix(1 0 0 1 488.6842 368.5024)" class="st0 st1 st3">Vinton  6</text>
	<text transform="matrix(1 0 0 1 488.7057 390.0496)" class="st0 st1 st3">Adams  5</text>
	<text transform="matrix(1 0 0 1 488.6842 411.5973)" class="st0 st1 st3">Harrison  5</text>
	<text transform="matrix(1 0 0 1 488.6842 433.1454)" class="st0 st1 st3">Henry  5</text>
	<text transform="matrix(1 0 0 1 488.6842 454.6925)" class="st0 st1 st3">Noble  5</text>
	<text transform="matrix(1 0 0 1 488.7057 476.2406)" class="st0 st1 st3">Athens  4</text>
	<text transform="matrix(1 0 0 1 488.6842 497.7877)" class="st0 st1 st3">Jackson  4</text>
	<text transform="matrix(1 0 0 1 488.6842 519.3358)" class="st0 st1 st3">Monroe  4</text>
	<text transform="matrix(1 0 0 1 488.6842 540.8826)" class="st0 st1 st3">Morgan  4</text>
	<text transform="matrix(1 0 0 1 488.6842 562.431)" class="st0 st1 st3">Pike  3</text>
	<text transform="matrix(1 0 0 1 488.6842 583.9778)" class="st0 st1 st3">Van Wert  3</text>
	<text transform="matrix(1 0 0 1 488.6842 605.5254)" class="st0 st1 st3">Meigs  2</text>
	<text id="confirmed" transform="matrix(1 0 0 1 32.8484 109.2512)" class="st5 st6 st7">State Confirmed Cases By County</text>
	<polygon id="blue_bg_1_" class="st8" points="0,646.5 0,683.5 0,693.1 0,781.9 173.5,781.9 173.5,693.1 915,693.1 915,646.5 	"/>
	<path id="line_bg_1_" class="st9" d="M916.5,0H0l0,0v647.1v2V692v2v42.9v2v42.9l0,0h579.8l0,0H913l0,0h3.5V0z M913,56.8v590.3
		H578.4l-0.6-0.3v0.3H443.6l-0.6-0.3v0.3H3V56.8H913z M913,649.1V692H579.8v-42.9H913z M445.1,692.1v-42.9h132.8v42.9H445.1z
		 M577.8,694.1V737H445.1v-42.9H577.8z M310.3,692.1v-42.9h132.8v42.9H310.3z M443.1,694.1V737H310.3v-42.9H443.1z M175.5,692.1
		v-42.9h132.8v42.9H175.5z M308.3,694.1V737H175.5v-42.9H308.3z M173.5,649.1V692H3v-42.9H173.5z M173.5,694.1V737H3v-42.9H173.5z
		 M3,739h170.5v39.9H3V739z M175.5,739h132.8v39.9H175.5V739z M310.3,739h132.8v39.9H310.3V739z M445.1,739h132.8v39.9H445.1V739z
		 M579.8,694.1H913v84.8H579.8V694.1z"/>
	<text id="title_1_" transform="matrix(1 0 0 1 32.8483 35.8369)" class="st5 st6 st10">COVID-19 in Ohio on</text>
	<text id="date_1_" transform="matrix(1 0 0 1 209.7825 35.8369)" class="st5 st6 st10">April 27th, 2020</text>
</g>
<g id="counties">
	<path id="meigs" class="st11" d="M824.5,455.5c-0.2-0.9-0.5-2.2-1.5-3.2c-1.8-2.1-6-3.8-9-3.8c-0.5,0-0.9,0.1-1.3,0.1l-1.9,0.4
		l-0.7,1.8c-0.3,0.9-0.7,1.5-1.2,2.1c-0.4,0.6-0.9,1.3-1.3,2.2l-0.1,0.1h-9.9v-5.7l2.5-2.4v-5.7h15.2v-2.3h9.2l-0.1,0.2
		c-0.4,1.8-0.7,3.5-0.7,4.6c-0.1,2.6,0.8,4.5,1.5,6c0.4,0.7,0.7,1.5,0.8,2.1c0.3,1.5,0,2.7-0.2,3.2l-0.1,0.1l-0.2,0.1
		c-0.2,0.1-0.5,0.1-0.8,0.2l-0.2,0.1V455.5z"/>
	<polygon id="vinton" class="st11" points="791,455.2 791,447 786.1,443.5 770,443.5 770,433.4 780.7,433.4 790,429.1 792.8,429.1 
		792.8,434.1 797.8,438.6 797.8,446.1 795.3,448.5 795.3,455.2 	"/>
	<polygon id="jackson" class="st11" points="775.5,471.6 773.4,469.6 773.4,464.9 770,464.9 770,446 785.3,446 788.5,448.2 
		788.5,456.8 784.6,466.1 782.1,468.7 781.9,471.6 	"/>
	<polygon id="pike" class="st11" points="744.7,466.3 735.1,461.1 735,451.7 752.2,451.7 752.2,450.5 767.5,450.5 767.5,464.9 
		749.7,464.6 749.7,467 	"/>
	<polygon id="wayne" class="st11" points="787.3,302.8 810.2,299.5 813,304.5 813,308.3 816.7,321.6 790.6,327.7 	"/>
	<path id="knox" class="st11" d="M758.4,360.9v-2.2h0.8l0.1-0.1c4.9-1.2,5.3-2.1,5.6-2.4l0.3-0.5l-0.2-0.5c0-0.1,0-0.3,0.1-0.7
		c0.2-0.9,0.5-2.1-0.4-3.1c-0.4-0.4-1-1.5-1.3-2v-0.1l-0.2-6.2l18.7-3.9l2.3-1.8l0.7-0.4l1,9.5h0.9v5.2l1.6,2.4l-0.2,4.9h-3.6v1.9
		L758.4,360.9L758.4,360.9L758.4,360.9z"/>
	<polygon id="coshocton" class="st11" points="793.1,364.9 793.1,364.4 790.8,360 791,353.4 789.3,350.9 789.3,346.6 793.5,346.6 
		807.3,344.2 813,342.3 813,343.5 818.3,348.2 821.5,348.2 823.4,356.2 821.8,356.2 819.7,364.1 807.1,363.4 805.4,364.9 	"/>
	<polygon id="tuscarawas" class="st11" points="823.5,345.7 819.2,345.7 815.5,342.4 815.5,341.6 819.8,340.6 819.4,332.7 
		817.7,332.7 817.9,328.2 819.2,326.8 833.2,322.5 834.2,322.5 837.7,329.2 837.7,336.1 841.2,336.1 841.2,348.4 837.7,348.4 
		837.7,355.1 825.9,356.2 	"/>
	<polygon id="henry" class="st11" points="665.8,305.1 663.6,284.9 655.8,284.9 655.7,284.3 680.7,279.3 680.7,284.6 680.7,284.6 
		683,303.4 673.8,305.1 	"/>
	<polygon id="delaware" class="st11" points="736.8,376.4 737.3,370.7 735.6,370.7 735.6,366.5 730.6,366.5 730.6,356.8 729.2,355 
		740.6,355 753.7,358.7 755.9,358.7 755.9,370.6 758.8,370.6 758.8,374 746.9,373.5 746.9,376.4 	"/>
	<polygon id="summit" class="st11" points="812.1,297.8 809,279 813.1,279 813.1,276.7 817.4,276.7 815.4,273.3 815,272.6 
		819.5,272.6 819.5,270.8 823.8,270.8 827.8,297.3 814.8,302.6 	"/>
	<path id="ashland" class="st11" d="M777.1,323.6l-5.2-7.4v-13.9h2.3l-0.2-1.6l6.9-2.9l0.1,0.1c0.7,0.6,1.7,1.4,3.4,2.6l0.1,0.1
		l3.7,28.3l-3.2,5l-2.3,1.6l-2,1.5L777.1,323.6z"/>
	<polygon id="huron" class="st11" points="747.9,307 743.1,288.5 745,288.1 745.2,288 751.1,286.3 769.6,283.5 771.5,299.8 
		769.4,299.8 769.4,305.2 750.5,307 	"/>
	<path id="medina" class="st11" d="M786.8,299.2l-0.4-0.3c-1.3-0.9-2.6-2-3.4-2.6h-0.1v-0.1c0.2-0.7,0.2-1.6,0.2-2.8v-0.1l3.8-3.8
		l0.5-1.6l8.9-8.7h10.1l2.9,18l-22.4,3.1L786.8,299.2z"/>
	<polygon id="guernsey" class="st11" points="826.2,384.3 826.2,384.1 821.9,378 821.9,365.6 823.7,358.9 842.2,357.2 842.2,358.7 
		847,358.7 847.2,368.5 849.2,368.5 849.3,373.5 841.1,373.5 830.1,382.8 830.1,384.3 	"/>
	<polygon id="muskingum" class="st11" points="803.5,396.2 793.1,386.3 793.1,367.4 806.4,367.4 808,366 819.4,366.6 819.4,378.7 
		823.7,384.9 823.7,393.8 813,393.8 813,396.2 	"/>
	<polygon id="fayette" class="st11" points="734.6,418.7 734.6,427.4 730.4,433.8 726.3,434.9 722.7,436.5 719.4,436.5 716.8,431.6 
		714,425 714.1,416.6 734.5,415 	"/>
	<polyline id="madison" class="st11" points="734.6,411.8 734.6,408.3 731.7,406.2 732.8,381.3 726.5,381.3 726.5,383.4 718.5,383 
		718.4,392.3 713.6,410.3 712.8,410.3 713,413.7 	"/>
	<polygon id="franklin" class="st11" points="734.7,399.8 735.6,380.2 736.2,378.9 749.4,378.9 749.4,376.1 758.8,376.5 
		758.8,399.8 	"/>
	<polygon id="pickaway" class="st11" points="737.2,424.1 737.2,407 734.4,404.9 734.5,402.3 758.8,402.3 758.8,419.9 765.2,419.9 
		767.5,423.5 767.5,424.1 	"/>
	<path id="mercer" class="st11" d="M637.9,344.1l16.8,2.4v0.1c0.1,1,0.1,1.8,0.1,2.2v0.1l-0.5,0.4l0.2,0.8c0.2,0.6,0.6,1.1,2.3,1.5
		h0.1v11.5l2.1,2.1v2.4l-18.1,4.3L637.9,344.1z"/>
	<path id="hamilton" class="st11" d="M678.2,465.8c-0.6-0.2-1.2-0.5-2.1-1c-1-0.5-1.9-1.1-3-1.5c-1.5-0.7-3-1-4.5-1
		c-1.2,0-2.4,0.2-3.7,0.6l-2.9,1l-0.5,0.2c-0.9,0.4-1.5,1.1-1.8,1.5l-0.1,0.1h-0.1h-0.2c-0.3,0-0.7,0-1-0.1h-0.1
		c-0.4,0-0.7-0.1-1-0.1c-0.7-0.1-1.4-0.1-2-0.1c-0.7-0.1-1.6-0.2-2.6-0.2l-1.6,0.2l-1.2-11l4.3-1.6l23.7-0.7v2l-1.2,2v3.3l1.2,0.7
		l0.6,5.7H678.2z"/>
	<path id="montgomery" class="st11" d="M665.7,427.8l-4.9-23.6h0.2c4.9-0.9,11-1.9,12-2c0.5,0.1,1.3,0.1,2.5,0.1c1,0,2,0,2.9-0.1
		h0.2v2.7h6.2v21.6h-18.1v1.2L665.7,427.8L665.7,427.8z"/>
	<path id="miami" class="st11" d="M681.1,402.5v-2.7l-1.3,0.1c-1.6,0.1-3.2,0.1-4.5,0.1c-1,0-1.6,0-1.9-0.1c-0.1,0-0.1,0-0.2,0
		c-0.7,0-3.1,0.4-7.3,1h-0.2l-1.2-17.7l20.2-1.8v21.2L681.1,402.5L681.1,402.5z"/>
	<polygon id="hocking" class="st11" points="770,430.8 770,422.7 768,419.5 769.8,416.7 774.9,411.1 779.4,410.1 788.5,409.1 
		788.5,410.6 800.2,415.4 800.2,419.7 792.8,419.7 792.8,426.6 789.5,426.6 780.2,430.8 	"/>
	<path id="columbiana" class="st11" d="M862.1,320l-11.2-7h-1.2l-1.4-12l27.4-5.4l2.6,16.3c0.1,0.7-0.2,1.1-1.8,2.6
		c-1.3,1.3-3.1,2.9-3.8,5.4l-0.1,0.1H862.1z"/>
	<path id="morrow" class="st11" d="M754.2,356.2l-12.3-3.5v-8.9l2.4-0.8v-5.4h6.8l-2.6-6.4h6.7l5.5,11.2l0.2,7.6l0.1,0.2
		c0.2,0.4,1,2,1.8,2.8l0.1,0.1v0.1c0,0.2-0.1,0.5-0.1,0.7h-0.2l0.1,0.1c-0.1,0.3-0.1,0.5-0.2,0.9v0.1l-0.1,0.1
		c-0.7,0.3-2.1,0.8-3.5,1.1l0,0L754.2,356.2L754.2,356.2z"/>
	<polygon id="stark" class="st11" points="819.4,321 819.1,321.1 815.5,308.1 815.5,305 829.6,299.3 845.3,295.1 847.3,312.9 
		840.9,312.9 839,318.2 840.3,320 833,320 819.6,324 	"/>
	<polygon id="mahoning" class="st11" points="847.6,293.7 849.9,287 849.9,283.5 873.3,279.6 875.4,293 848.1,298.4 	"/>
	<polygon id="carroll" class="st11" points="843.7,333.6 840.2,333.6 840.2,328.6 837,322.5 845.2,322.5 841.8,317.8 842.6,315.5 
		850.2,315.5 861.4,322.5 862.1,322.5 859.6,334.5 843.7,337.2 	"/>
	<polygon id="holmes" class="st11" points="788.1,344.1 787.2,335.2 790.3,330.4 817.1,324.1 817.2,325.2 815.4,327.2 815.1,335.2 
		817.1,335.2 817.2,338.6 813,339.6 813,339.7 806.8,341.7 793.3,344.1 	"/>
	<path id="lucas" class="st11" d="M683.2,278.8l0.2-0.1l-2.5-16.3l25.5-4l-0.6-4l0.4,0.4c2,2.1,5.5,3.3,8.5,4.3
		c0.4,0.1,1.3,0.4,1.3,0.4l-4.2,4.4h-9.3l-6.4,2.3l-3.8,4.2l-4.5,7.4l-4.5,4.2v-3.2L683.2,278.8L683.2,278.8z"/>
	<polygon id="crawford" class="st11" points="730.9,311.7 747,309.5 749.5,309.5 751,314.4 752.8,324.3 754.2,328.8 747.5,328.8 
		747.5,328.7 735.3,330.4 	"/>
	<polygon id="wood" class="st11" points="683.3,285.6 689.5,279.6 694.1,272.1 697.5,268.5 702.7,266.6 704.8,266.5 708.5,298.9 
		685.4,303 	"/>
	<polygon id="wyandot" class="st11" points="711,335.3 709.4,327.7 711.9,316.7 713,314.4 713,314.1 728.4,312 732.8,330.7 
		727.9,331.4 714.2,335.3 	"/>
	<polygon id="hancock" class="st11" points="689.2,324.6 687.7,324.6 685.7,305.5 708.9,301.4 710.5,306.5 710.5,313.9 709.6,315.8 
		707.1,326.6 689.6,328.7 	"/>
	<polygon id="licking" class="st11" points="761.3,388 761.3,368.1 758.4,368.1 758.4,363.4 787.2,363.4 787.2,361.6 788.7,361.6 
		790.6,365 790.6,385.5 780.4,384.4 780.4,384.3 769.9,384.3 768,388 	"/>
	<polygon id="harrison" class="st11" points="844.7,356.2 844.7,354.4 840.2,354.8 840.2,350.9 843.7,350.9 843.7,339.8 
		863.8,336.3 867.2,355.1 857.1,356.2 	"/>
	<polygon id="marion" class="st11" points="723,352.5 720.9,350.1 718.1,350.1 715.8,337.4 728.4,333.9 745.9,331.5 747.4,335.3 
		741.9,335.3 741.9,341.3 739.5,342.1 739.5,352.5 	"/>
	<polygon id="union" class="st11" points="717.8,380.3 713.8,372.9 713.8,352.6 719.8,352.6 721.9,355 726.1,355 728.1,357.6 
		728.1,369 733.1,369 733.1,373.2 734.7,373.2 734.3,377.3 733.6,378.7 723.8,378.7 723.8,380.6 	"/>
	<polygon id="allen" class="st11" points="670.1,344.1 670.1,341.8 661.5,341.7 661.5,331.3 669.3,331.3 675.4,326.8 677.6,325 
		684.5,322 685,322 685.4,327.1 686.9,327.1 688.4,341.7 683.7,341.7 683.7,344.1 	"/>
	<polygon id="putnam" class="st11" points="661.5,328.8 661.5,328.3 657.2,321.2 659.3,307.6 674,307.6 683.2,305.9 684.7,319.5 
		684,319.5 676.4,322.8 673.8,324.8 668.4,328.8 	"/>
	<path id="auglaize" class="st11" d="M659.5,362.1v-12.6l-1-0.2c-0.3-0.1-0.7-0.1-1-0.2h-0.1V349c0.1-0.7,0.1-1.7-0.1-2.9V346
		l2.5-1.7l7.9,0.1v2.3h18.7v-2.4h2.4l0.7,6.5l-5.7,3.8l-17.6,1.7l-5.8,6.5L659.5,362.1z"/>
	<polygon id="logan" class="st11" points="687.3,372 687.3,364.7 685.4,356.4 691.1,352.6 711.3,352.6 711.3,372 	"/>
	<polygon id="hardin" class="st11" points="691.9,350.1 689.8,331.2 707.2,329.1 708.9,337.8 713.3,337.8 715.5,350.1 	"/>
	<path id="jefferson" class="st11" d="M865.9,333.4l-3.7,0.6l2.5-11.6h7.8v0.1c0.1,2.1,1,4,1.6,5.3c0.4,0.8,0.7,1.5,0.9,2.1
		c0.2,1,0.1,2.1,0,3.4c-0.1,0.7-0.1,1.5-0.2,2.3c-0.1,2.5-0.1,5-0.1,7.4v0.2c0,1.1,0,2.2,0,3.4v4.3l-0.1,1.4l-2.7,2.1l-2.3,0.2
		L865.9,333.4z"/>
	<path id="erie" class="st11" d="M742.8,282.1l-2-8h-2.1l10.9-5l-0.8-1.8l0.5,0.4c0.4,0.4,0.9,0.8,1.3,1.2c2.7,2.4,5.2,4.6,8.9,4.6
		h0.2c1.6-0.1,3.7-0.7,6.3-1.9l0.2-0.1l2.7,9.3l-18.5,2.8l-6.5,1.8L742.8,282.1z"/>
	<path id="lorain" class="st11" d="M772.1,283.2l0.2-0.1l-3.5-12l-1.2,0.4l-0.1-0.3c1.3-0.7,2.7-1.4,3.9-2c0.6-0.3,1.2-0.7,1.7-0.9
		c2.1-1.1,4.1-2,6.3-2.7l0.2-0.1c1.3-0.4,2.4-0.9,3.8-1.2c1.3-0.4,2.1-0.7,2.9-1.2c0.4-0.2,0.9-0.5,1.5-0.7c0.2-0.1,0.4-0.2,0.7-0.2
		l0.5-0.2v13.2h5.9l-0.2,2.1l-7,7l-2.4,2.2l-0.5,1.7l-4.2,4.2l0.1,0.5c0.1,0.7,0.1,1.5,0,2.1v0.1h-0.2l-0.1,0.3l-6.5,2.7
		L772.1,283.2z"/>
	<path id="ashtabula" class="st11" d="M841.2,225.2l-1.8,0.3l0.5-0.4c3.6-2.7,7.8-5.8,12.5-7.9c2.2-1,4.4-2.1,6.5-3.2
		c1.2-0.6,2.4-1.2,3.7-1.8l0.2-0.1l5.6,35.8l-22.3,4.8L841.2,225.2z"/>
	<path id="lake" class="st11" d="M820.2,250.1l-5.1-3.1l0.1-0.1c1.3-1.4,2.4-2.9,3.5-4.3c1.4-1.8,2.8-3.7,4.6-5.4
		c2.3-2.2,4.7-3.7,7.3-5.4c1.5-1,3.1-2,4.6-3.1c0.9-0.7,1.8-1.3,2.7-2l0.9-0.7l1.6,9.3l-1.3,0.9l-4.3,2.3v3.7l-8.8,2.9v5.1
		L820.2,250.1L820.2,250.1z"/>
	<path id="cuyahoga" class="st11" d="M797.3,276.5l0.5-4h-6.2v-10.8h-2.4l1.2-0.3c1.3-0.4,2.7-0.5,4.2-0.8c2.7-0.4,5.6-0.9,8.1-2.2
		c3.1-1.6,6.1-4.8,8.7-7.6c0.7-0.8,1.5-1.5,2.2-2.3l0.1-0.1l5.7,2.7l4,17.1h-6.3v1.8h-6l2,4.1h-2.4v2.4H797.3L797.3,276.5z"/>
	<polygon id="trumbull" class="st11" points="850,274 848,265 846.3,255.1 868.7,250.4 872.9,277.1 849.9,281 	"/>
	<polygon id="geauga" class="st11" points="822.2,252.6 828.5,252.6 828.5,246.8 837.3,244 837.3,240 840.4,238.4 840.9,238.1 
		845.3,264.3 825.9,268.1 	"/>
	<polygon id="portage" class="st11" points="826.3,270.5 845.8,266.7 847.5,274.1 847.5,286.3 845.3,292.5 830.3,296.5 	"/>
	<path id="ottawa" class="st11" d="M713.8,274.1v-1.6h-5.9l-0.7-6h5.4l5.1-5.4l-1.5-1.4l0.7,0.2c5,1.9,9.1,2.4,14.8,3.1
		c1.3,0.1,2.6,0.2,3.9,0.3c3.8,0.2,7.8,0.4,11.1,2.6c0.4,0.2,0.7,0.5,1.2,0.9l0.2,0.2l-12.2,5.6h-16.5l-1.4,1.6h-4.2L713.8,274.1
		L713.8,274.1z"/>
	<polygon id="richland" class="st11" points="757.1,329.6 755.3,323.7 753.3,313.8 752.1,309.4 769.4,307.7 769.4,316.9 
		774.8,324.4 778.4,337.6 762.6,340.9 	"/>
	<polygon id="sandusky" class="st11" points="708.3,275.1 711.3,275.1 711.3,276.7 719.4,276.7 720.9,275.1 733.1,275.1 
		733.1,276.7 738.9,276.7 740.4,282.9 741.7,286.3 740.1,286.8 739.9,286.8 733.7,288.6 710.2,292.1 	"/>
	<polygon id="seneca" class="st11" points="713,306.3 711.1,299.7 710.5,294.6 734.2,291 740.7,289.2 745.3,307.2 713,311.6 	"/>
	<path id="lawrence" class="st11" d="M795.3,500.4c-0.9-0.2-1.9-0.3-3.1-0.4c-0.7-0.2-1.5-0.9-2.3-1.6c-0.6-0.5-1.3-1.1-2.1-1.6
		l-0.4-0.2c-1.2-0.6-2.4-0.9-3.2-1l-0.2-0.1c-0.2-0.1-0.4-0.1-0.5-0.1l-0.3-0.1c-0.9-0.2-2-0.5-2.4-0.8l-0.4-0.2
		c-0.2-0.1-0.6-0.5-1-0.8c-0.4-0.4-1.1-0.9-2-1.4l-0.1-0.1l1.2-4.5h2v-13.7h2.5v3.1l14.3,6.7v7.6l0.5,0.1v3.5c0,0.6,0.1,1.3,0.1,2
		c0.1,0.6,0.1,1.5,0.1,2.1v0.1h-0.1C796.9,499.4,796.1,499.8,795.3,500.4L795.3,500.4L795.3,500.4z"/>
	<path id="gallia" class="st11" d="M799.8,482.2l-14.3-6.7v-4h-1.1l0.1-1.8l2.3-2.3l4-9.8h16.1l-0.1,0.2c0,0.1,0,0.1-0.1,0.1
		c0,0.1,0,0.1,0,0.1c-0.4,2.3-0.9,4.5-1.5,6.8l-0.1,0.4l-0.1,13.6c0,0.5,0,1.1,0.1,1.8c0.1,1.2,0.1,2.6-0.1,3.1v0.1h-0.1
		c-0.2,0.1-0.7,0.2-1,0.2c-0.8,0.2-2.5,0.7-3.9,1.7l-0.2,0.2L799.8,482.2L799.8,482.2z"/>
	<path id="preble" class="st11" d="M644.8,407.1L644.8,407.1c4.3-0.7,9-1.6,13.4-2.4h0.1l4.8,23.5l-15.7,4.6L644.8,407.1z"/>
	<polygon id="butler" class="st11" points="647.8,435.3 664.8,430.3 669.2,430.3 669.2,429.1 669.9,429.1 672.1,446 674.1,446 
		674.1,449.8 653.9,450.4 649.6,452 	"/>
	<path id="clermont" class="st11" d="M689.4,481.4c-0.2-0.5-0.5-0.9-0.6-1.2c-0.3-1-0.7-1.8-1-2.5l-0.1-0.2
		c-0.1-0.2-0.2-0.4-0.2-0.5c-0.1-0.2-0.1-0.5-0.1-0.7v-0.1c-0.2-1-0.4-2.2-0.9-3.3c-0.8-2.4-2.6-4.5-5.3-5.9l-0.1-0.1l-0.9-8.2
		l-1-0.7v-1.3l1.2-2V452l14.2-0.4h1.1v29.7h-2.9l-0.4,0.1c-0.8,0.2-1.6,0.4-2.4,0.7l-0.1,0.2L689.4,481.4z"/>
	<path id="washington" class="st11" d="M823.7,429.7l-2.5-1.6v-9l12.3-12.5l17.5-3.7l1,2.4h6.8l2.4-2.6h1.6l-0.2,0.2
		c-0.7,1-1.3,2-1.8,2.9l-0.4,0.8c-1.5,2.7-2,3.5-4.4,4.8c-0.3,0.2-1,0.4-1.6,0.6c-1.2,0.4-2.4,0.8-3.5,1.6l-0.2,0.2l-0.1-0.1
		c-0.7-0.7-1.5-1.1-2.4-1.3c-0.4-0.1-0.9-0.2-1.3-0.2c-3.7,0-6.9,4-10.3,8.9c-0.3,0.4-0.6,0.9-0.8,1.1c-0.8,1-1.5,2.1-2.3,3.2
		c-0.8,1.2-1.6,2.3-2.4,3.4c-0.4,0.5-0.9,1-1.3,1.5l-0.1,0.1L823.7,429.7z"/>
	<path id="athens" class="st11" d="M800.3,439v-1.5l-5-4.5v-10.8h7.4v-7l5.3-3l2.3,2.2l8.5,4.9v10.1l4.2,2.7l4.5,0.5l-0.2,0.2
		c-0.5,0.7-1,1.3-1.2,2c-0.2,0.4-0.4,0.9-0.6,1.6l-0.1,0.1h-12.3v2.3L800.3,439L800.3,439z"/>
	<polygon id="morgan" class="st11" points="811.8,412.5 808.2,409.2 808.1,409.2 806.4,408.1 806.4,400.4 805.3,398.7 815.5,398.7 
		815.5,396.3 824.2,396.3 826.7,400.6 829.7,401.7 831.4,405.2 819.7,417.1 	"/>
	<path id="adams" class="st11" d="M719.3,480.8h-1.1v-14l6.2-2.1l9.3-1.5l5.3,2.8v6h2.5v15h-0.7c-0.1,0-0.4,0-0.5,0v0.1l-0.6-0.2
		l0,0c-0.1-0.1-0.1-0.1-0.2-0.2l-0.1-0.1c-0.2-0.2-0.4-0.4-0.7-0.7l-0.5-0.5c-1.7-1.2-2.8-1.2-4.2-1.2c-1.5,0-2.9,0.4-4,0.8
		l-0.5,0.2c-0.1,0.1-0.2,0.1-0.2,0.1c-0.4,0.1-0.9,0.4-1.5,0.8c-0.2,0.1-0.4,0.2-0.5,0.4l-0.1,0.1c0,0-0.3,0-0.4-0.1
		c-0.5-0.1-0.9-0.1-1.1-0.1c-2.9,0-4.2,1.1-5.3,2.2l-0.2,0.2L719.3,480.8z"/>
	<path id="brown" class="st11" d="M717.2,490.6c-0.5-0.2-1.3-1.6-2-2.7l-0.4-0.7c-0.1-0.2-0.2-0.5-0.4-0.7c-0.2-0.3-0.2-0.4-0.3-0.6
		l-0.3-0.7c-0.2-0.6-0.8-1.8-2.4-2.7l-0.5-0.2c-1.5-0.5-3.2-0.5-4-0.5c-2.4,0-4.5,0-5.9-0.2c-0.7-0.1-1.4-0.2-2.3-0.2h-0.5v-29.6
		h3.6l3,18.1h4.2l3.2-1.1l3.4-1v15.7h1.3l0.7,7.4L717.2,490.6z"/>
	<path id="highland" class="st11" d="M707,467.2l-2.7-16.2l0.1-0.1c1-0.6,2.7-1.8,3.4-2.1c0.9-0.5,4.4-3,5-4.3
		c0.4-0.7,3.5-3.3,6.2-5.5l0.1-0.1h4.2l3.8-1.7l3.1-0.8l0.4,6l1.8,2l0.2,16.2l-8.7,1.5l-7.4,2.4l0,0l-4.9,1.5l-2.9,1L707,467.2
		L707,467.2z"/>
	<polygon id="ross" class="st11" points="735,449.2 734.8,443.7 733.1,441.7 732.6,435.4 737.2,428.2 737.2,426.6 767.5,426.6 
		767.5,448 749.7,448 749.7,449.2 	"/>
	<path id="scioto" class="st11" d="M775.1,490.8c-0.2-0.1-0.5-0.1-0.9-0.2h-0.1l-0.1-0.1c-0.1-0.4-0.3-0.9-0.5-1.3l-0.1-0.2
		c-0.1-0.1-0.1-0.2-0.2-0.4l-0.1-0.6c-0.1-0.4-0.1-0.8-0.2-1.2c-0.2-1.1-0.4-2.3-1-3.7c-0.2-0.6-0.5-1.2-0.7-1.6l-0.1-0.2
		c-0.1-0.2-0.2-0.3-0.2-0.5v-0.1v-0.4c0.1-1.5,0.1-4.2-2.3-5.4c-0.4-0.2-1.1-0.5-1.9-0.5c-1,0-2,0.4-3,1l-0.5,0.4
		c-0.1,0.1-0.2,0.2-0.2,0.2h-0.1c-1.4,0-2.9,0.1-4.2,0.4c-1.5,0.4-3.2,1-4.7,2.5l-0.5,0.5c-0.4,0.6-0.9,1.3-1.2,1.5l-0.2,0.1
		c-1.4,1-3.4,2.5-4.3,5l-0.1,0.2c-0.1,0.2-0.2,0.5-0.2,0.7l0,0l-0.5,0.4l-0.1,0.1c-0.2,0.2-0.5,0.5-0.7,0.7l-0.1,0.1l-0.3-0.2
		c-0.5-0.5-1.2-0.8-1.9-1l-0.1-0.1V469h-2.5v-2.1l2.3,1.2l8.5,1.4v-2.8l15.3,0.2l0,0h3.4v3.4l3.6,3.3h3.5v11.2h-1.4l-1.5,5.6
		L775.1,490.8L775.1,490.8z"/>
	<polygon id="clark" class="st11" points="687.3,405.3 687.3,392.3 701.6,389.4 715.8,389.4 715.8,391.8 711.6,407.5 	"/>
	<polygon id="warren" class="st11" points="676.6,443.5 674.3,443.5 672.5,429.1 693.4,429.1 693.4,449.3 680.4,449.7 680.4,449.6 
		676.6,449.7 	"/>
	<polygon id="shelby" class="st11" points="664.2,377.6 661.5,368.5 661.5,365.2 667.3,358.7 683.1,357.2 684.8,364.8 684.8,378.8 
		664.4,380.6 	"/>
	<polygon id="champaign" class="st11" points="687.3,374.5 711.9,374.5 715.8,381.8 715.8,386.9 701.5,386.9 687.3,389.7 	"/>
	<polygon id="fairfield" class="st11" points="761.3,417.4 761.3,390.5 769.5,390.5 771.5,386.8 778.1,386.8 778.7,396 781.4,396 
		787.6,406.6 779,407.6 773.6,408.9 767.9,415.1 766.3,417.4 	"/>
	<polygon id="paulding" class="st11" points="633.6,304.1 646,301.2 650.3,301.2 654.3,302.6 656.9,306.6 654.7,320.3 635.6,322.3 	
		"/>
	<polygon id="defiance" class="st11" points="658.9,305.1 656,300.6 651.1,298.7 645.9,298.7 633.4,301.6 632,289.6 654.8,287.4 
		661.4,287.4 663.3,305.1 	"/>
	<polygon id="fulton" class="st11" points="654.5,278.3 651,267.2 678.4,262.9 680.6,276.8 655.2,281.8 	"/>
	<path id="darke" class="st11" d="M641.2,374.4l18.2-4.3l2.3,7.8l1.6,23.4h-0.1c-4.6,0.8-10.9,1.9-18.6,3.3h-0.2L641.2,374.4z"/>
	<polygon id="perry" class="st11" points="791,408.9 791,407.3 782.8,393.5 781,393.5 780.6,387 791.3,388.1 802,398.2 803.9,401.1 
		803.9,409.5 805.7,410.6 801.3,413.1 	"/>
	<polygon id="van_wert" class="st11" points="637.6,341.5 635.9,324.8 655.2,322.8 659,329 659,341.7 655.5,344 	"/>
	<polygon id="belmont" class="st11" points="851.6,366 849.7,366 849.5,358.7 857.2,358.7 873,357 874.5,355.8 872.7,378.7 
		854.3,378.7 852,379.9 	"/>
	<polygon id="williams" class="st11" points="630,270.5 648.4,267.6 652.1,279 653.3,285.1 631.8,287.1 	"/>
	<path id="monroe" class="st11" d="M853.6,402.8l-0.7-1.8l-4.8-13.1v-4.8h4.1v-0.5l2.9-1.5h17.6l-0.5,6.3c-1.5,3.8-3.9,7.4-6.6,11.2
		c-0.2,0.2-0.4,0.5-0.5,0.8l-0.5,0.7h-4.4l-2.4,2.6L853.6,402.8L853.6,402.8L853.6,402.8z"/>
	<polygon id="noble" class="st11" points="831.5,399.8 828.4,398.6 826.2,394.7 826.2,386.8 832.6,386.8 832.6,384 842,376 
		849.4,376 849.5,380.7 845.6,380.7 845.6,388.1 850,400.5 833.5,404 	"/>
	<polygon id="greene" class="st11" points="695.9,426.6 711.9,426.6 711.4,425.5 710.1,409.8 687.3,407.8 687.3,426.6 694.1,426.6 	
		"/>
	<path id="clinton" class="st11" d="M714.4,432.7l-1.5-3.7h-17v20h6.7h0.1c1.2-0.7,3.2-2.1,4-2.4c0.9-0.4,3.6-2.6,4-3.2
		c0.3-0.5,1.6-1.9,6.3-5.8l0.1-0.1L714.4,432.7z"/>
</g>
<g id="balls">
	<circle id="marion_circle_2_" class="st12" cx="731.6" cy="342.3" r="14.5"/>
	<text id="marion_numbers_2_" transform="matrix(1 2.630000e-03 -2.630000e-03 1 722.5162 345.3399)" class="st13 st1 st14">500</text>
	<circle id="franklin_circle_2_" class="st12" cx="746.7" cy="388" r="14.5"/>
	<text id="franklin_numbers_2_" transform="matrix(1 2.630000e-03 -2.630000e-03 1 737.6258 391.0047)" class="st13 st1 st14">500</text>
	<circle id="pickaway_circle_2_" class="st12" cx="748.3" cy="412.2" r="14.5"/>
	<text id="pickaway_numbers_2_" transform="matrix(1 2.630000e-03 -2.630000e-03 1 739.1826 415.241)" class="st13 st1 st14">500</text>
	<circle id="lucas_circle_2_" class="st12" cx="693.4" cy="266.7" r="14.5"/>
	<text id="lucas_numbers_2_" transform="matrix(1 2.630000e-03 -2.630000e-03 1 684.2993 269.7608)" class="st13 st1 st14">500</text>
	<circle id="hamilton_circle_2_" class="st12" cx="664.2" cy="459" r="14.5"/>
	<text id="hamilton_numbers_2_" transform="matrix(1 2.630000e-03 -2.630000e-03 1 655.1177 462.0049)" class="st13 st1 st14">500</text>
	<circle id="cuyahoga_circle_2_" class="st12" cx="808.4" cy="265.7" r="14.5"/>
	<text id="cuyahoga_numbers_2_" transform="matrix(1 2.630000e-03 -2.630000e-03 1 799.3162 268.6924)" class="st13 st1 st14">500</text>
	<circle id="summit_circle_2_" class="st12" cx="818.4" cy="286.2" r="12.8"/>
	<text id="summit_numbers_2_" transform="matrix(1 2.630000e-03 -2.630000e-03 1 809.3019 289.1756)" class="st13 st1 st15">100</text>
	<circle id="ashtabula_circle_2_" class="st12" cx="852.2" cy="232.9" r="8"/>
	<text id="ashtabula_numbers_2_" transform="matrix(1 2.630000e-03 -2.630000e-03 1 848.4968 235.1824)" class="st13 st1 st16">20</text>
	<circle id="mahoning_circle_2_" class="st12" cx="863.4" cy="287.1" r="12.8"/>
	<text id="mahoning_numbers_2_" transform="matrix(1 2.630000e-03 -2.630000e-03 1 854.2462 290.1341)" class="st13 st1 st15">100</text>
	<circle id="medina_circle_2_" class="st12" cx="797.7" cy="292.1" r="10.4"/>
	<text id="medina_numbers_2_" transform="matrix(1 2.630000e-03 -2.630000e-03 1 792.0747 294.938)" class="st13 st1 st17">60</text>
	<circle id="lorain_circle_2_" class="st12" cx="781.6" cy="276.6" r="10.4"/>
	<text id="lorain_numbers_2_" transform="matrix(1 2.630000e-03 -2.630000e-03 1 775.953 279.4315)" class="st13 st1 st17">60</text>
	<circle id="lake_circle_2_" class="st12" cx="828.4" cy="239.8" r="10.4"/>
	<text id="lake_numbers_2_" transform="matrix(1 2.630000e-03 -2.630000e-03 1 822.7214 242.6136)" class="st13 st1 st17">60</text>
	<circle id="geauga_circle_2_" class="st12" cx="833.8" cy="258.7" r="10.4"/>
	<text id="geauga_numbers_2_" transform="matrix(1 2.630000e-03 -2.630000e-03 1 828.1242 261.5818)" class="st13 st1 st17">60</text>
	<circle id="trumbull_circle_2_" class="st12" cx="859.6" cy="263.9" r="10.4"/>
	<text id="trumbull_numbers_2_" transform="matrix(1 2.630000e-03 -2.630000e-03 1 853.9787 266.7308)" class="st13 st1 st17">60</text>
	<circle id="portage_circle_2_" class="st12" cx="838.8" cy="280.2" r="10.4"/>
	<text id="portage_numbers_2_" transform="matrix(1 2.630000e-03 -2.630000e-03 1 833.1424 283.045)" class="st13 st1 st17">60</text>
	<circle id="stark_circle_2_" class="st12" cx="831.2" cy="308.6" r="10.4"/>
	<text id="stark_numbers_2_" transform="matrix(1 2.630000e-03 -2.630000e-03 1 825.5755 311.4637)" class="st13 st1 st17">60</text>
	<circle id="columbiana_circle_2_" class="st12" cx="864.9" cy="307.7" r="10.4"/>
	<text id="columbiana_numbers_2_" transform="matrix(1 2.630000e-03 -2.630000e-03 1 859.2409 310.5665)" class="st13 st1 st17">60</text>
	<circle id="belmont_circle_2_" class="st12" cx="862.7" cy="368.1" r="10.4"/>
	<text id="belmont_numbers_2_" transform="matrix(1 2.630000e-03 -2.630000e-03 1 857.0285 370.9835)" class="st13 st1 st17">60</text>
	<circle id="warren_circle_2_" class="st12" cx="683.3" cy="439.6" r="10.4"/>
	<text id="warren_numbers_2_" transform="matrix(1 2.630000e-03 -2.630000e-03 1 677.6683 442.4461)" class="st13 st1 st17">60</text>
	<circle id="butler_circle_2_" class="st12" cx="659.7" cy="439" r="10.4"/>
	<text id="butler_numbers_2_" transform="matrix(1 2.630000e-03 -2.630000e-03 1 654.0744 441.8223)" class="st13 st1 st17">60</text>
	<circle id="montgomery_circle_2_" class="st12" cx="673.3" cy="415" r="10.4"/>
	<text id="montgomery_numbers_2_" transform="matrix(1 2.630000e-03 -2.630000e-03 1 667.6867 417.8912)" class="st13 st1 st17">60</text>
	<circle id="wood_circle_2_" class="st12" cx="696.7" cy="289.7" r="10.4"/>
	<text id="wood_numbers_2_" transform="matrix(1 2.630000e-03 -2.630000e-03 1 691.026 292.5569)" class="st13 st1 st17">60</text>
	<circle id="licking_circle" class="st12" cx="773.4" cy="374.5" r="10.4"/>
	<text id="licking_numbers" transform="matrix(1 2.630000e-03 -2.630000e-03 1 767.7315 377.3094)" class="st13 st1 st17">60</text>
	<circle id="delaware_circle" class="st12" cx="741.5" cy="364.9" r="10.4"/>
	<text id="delaware_numbers" transform="matrix(1 2.630000e-03 -2.630000e-03 1 735.8316 367.7095)" class="st13 st1 st17">60</text>
	<circle id="union_circle" class="st12" cx="721.1" cy="367.9" r="10.4"/>
	<text id="union_numbers" transform="matrix(1 2.630000e-03 -2.630000e-03 1 715.4316 370.6595)" class="st13 st1 st17">60</text>
	<circle id="logan_circle" class="st12" cx="695.9" cy="362.3" r="10.4"/>
	<text id="logan_numbers" transform="matrix(1 2.630000e-03 -2.630000e-03 1 690.2316 365.1094)" class="st13 st1 st17">60</text>
	<circle id="shelby_circle" class="st12" cx="674.9" cy="370.1" r="10.4"/>
	<text id="shelby_numbers" transform="matrix(1 2.630000e-03 -2.630000e-03 1 669.2816 372.9095)" class="st13 st1 st17">60</text>
	<circle id="darke_circle" class="st12" cx="651.6" cy="386.8" r="10.4"/>
	<text id="darke_numbers" transform="matrix(1 2.630000e-03 -2.630000e-03 1 645.9316 389.6094)" class="st13 st1 st17">60</text>
	<circle id="auglaize_circle" class="st12" cx="665.8" cy="352.9" r="10.4"/>
	<text id="auglaize_numbers" transform="matrix(1 2.630000e-03 -2.630000e-03 1 660.1315 355.7173)" class="st13 st1 st17">60</text>
	<circle id="mercer_circle" class="st12" cx="647.4" cy="357.7" r="10.4"/>
	<text id="mercer_numbers" transform="matrix(1 2.630000e-03 -2.630000e-03 1 641.7816 360.5096)" class="st13 st1 st17">60</text>
	<circle id="coshocton_circle" class="st12" cx="809.3" cy="354.6" r="10.4"/>
	<text id="coshocton_numbers" transform="matrix(1 2.630000e-03 -2.630000e-03 1 803.6506 357.4095)" class="st13 st1 st17">60</text>
	<circle id="morrow_circle" class="st12" cx="753.8" cy="346.3" r="10.4"/>
	<text id="morrow_numbers" transform="matrix(1 2.630000e-03 -2.630000e-03 1 748.1317 349.0594)" class="st13 st1 st17">60</text>
	<circle id="knox_circle" class="st12" cx="775.6" cy="350.1" r="10.4"/>
	<text id="knox_numbers" transform="matrix(1 2.630000e-03 -2.630000e-03 1 769.9816 352.9095)" class="st13 st1 st17">60</text>
	<circle id="holmes_circle" class="st12" cx="797.8" cy="335.3" r="10.4"/>
	<text id="holmes_numbers" transform="matrix(1 2.630000e-03 -2.630000e-03 1 792.1316 338.1094)" class="st13 st1 st17">60</text>
	<circle id="tuscarawas_circle" class="st12" cx="828.7" cy="339.6" r="10.4"/>
	<text id="tuscarawas_numbers" transform="matrix(1 2.630000e-03 -2.630000e-03 1 823.0316 342.4095)" class="st13 st1 st17">60</text>
	<circle id="harrison_circle" class="st12" cx="854.2" cy="347" r="10.4"/>
	<text id="harrison_numbers" transform="matrix(1 2.630000e-03 -2.630000e-03 1 848.5948 349.7628)" class="st13 st1 st17">60</text>
	<circle id="jefferson_circle" class="st12" cx="872.9" cy="335.3" r="10.4"/>
	<text id="jefferson_numbers" transform="matrix(1 2.630000e-03 -2.630000e-03 1 867.2316 338.1094)" class="st13 st1 st17">60</text>
	<circle id="carroll_circle" class="st12" cx="850" cy="325.4" r="10.4"/>
	<text id="carroll_numbers" transform="matrix(1 2.630000e-03 -2.630000e-03 1 844.3315 328.2147)" class="st13 st1 st17">60</text>
	<circle id="wayne_circle" class="st12" cx="802" cy="313.6" r="10.4"/>
	<text id="wayne_numbers" transform="matrix(1 2.630000e-03 -2.630000e-03 1 796.3315 316.4095)" class="st13 st1 st17">60</text>
	<circle id="ashland_circle" class="st12" cx="779.2" cy="307.8" r="10.4"/>
	<text id="ashland_numbers" transform="matrix(1 2.630000e-03 -2.630000e-03 1 773.5815 310.6097)" class="st13 st1 st17">60</text>
	<circle id="richland_circle" class="st12" cx="765.2" cy="325.4" r="10.4"/>
	<text id="richland_numbers" transform="matrix(1 2.630000e-03 -2.630000e-03 1 759.5815 328.2147)" class="st13 st1 st17">60</text>
	<circle id="crawford_circle" class="st12" cx="744.2" cy="320" r="10.4"/>
	<text id="crawford_numbers" transform="matrix(1 2.630000e-03 -2.630000e-03 1 738.5316 322.7596)" class="st13 st1 st17">60</text>
	<circle id="wyandot_circle" class="st12" cx="719.2" cy="320" r="10.4"/>
	<text id="wyandot_numbers" transform="matrix(1 2.630000e-03 -2.630000e-03 1 713.5066 322.7596)" class="st13 st1 st17">60</text>
	<circle id="hardin_circle" class="st12" cx="701.5" cy="340.9" r="10.4"/>
	<text id="hardin_numbers" transform="matrix(1 2.630000e-03 -2.630000e-03 1 695.8816 343.7095)" class="st13 st1 st17">60</text>
	<circle id="allen_circle" class="st12" cx="676.2" cy="336.3" r="10.4"/>
	<text id="allen_numbers" transform="matrix(1 2.630000e-03 -2.630000e-03 1 670.5316 339.1094)" class="st13 st1 st17">60</text>
	<circle id="van_wert_circle" class="st12" cx="648.4" cy="333.8" r="10.4"/>
	<text id="van_wert_numbers" transform="matrix(1 2.630000e-03 -2.630000e-03 1 642.7815 336.6346)" class="st13 st1 st17">60</text>
	<circle id="huron_circle" class="st12" cx="758.4" cy="296.3" r="10.4"/>
	<text id="huron_numbers" transform="matrix(1 2.630000e-03 -2.630000e-03 1 752.7316 299.0594)" class="st13 st1 st17">60</text>
	<circle id="seneca_circle" class="st12" cx="733.8" cy="300.1" r="10.4"/>
	<text id="seneca_numbers" transform="matrix(1 2.630000e-03 -2.630000e-03 1 728.1315 302.9095)" class="st13 st1 st17">60</text>
	<circle id="hancock_circle" class="st12" cx="697" cy="315.1" r="10.4"/>
	<text id="hancock_numbers" transform="matrix(1 2.630000e-03 -2.630000e-03 1 691.3815 317.8594)" class="st13 st1 st17">60</text>
	<circle id="putnam_circle" class="st12" cx="667.7" cy="315.8" r="10.4"/>
	<text id="putnam_numbers" transform="matrix(1 2.630000e-03 -2.630000e-03 1 662.0353 318.5674)" class="st13 st1 st17">60</text>
	<circle id="paulding_circle" class="st12" cx="641.8" cy="313" r="10.4"/>
	<text id="paulding_numbers" transform="matrix(1 2.630000e-03 -2.630000e-03 1 636.1815 315.7596)" class="st13 st1 st17">60</text>
	<circle id="defiance_circle" class="st12" cx="652.2" cy="294.3" r="10.4"/>
	<text id="defiance_numbers" transform="matrix(1 2.630000e-03 -2.630000e-03 1 646.5815 297.1346)" class="st13 st1 st17">60</text>
	<circle id="henry_circle" class="st12" cx="673.1" cy="292.1" r="10.4"/>
	<text id="henry_numbers" transform="matrix(1 2.630000e-03 -2.630000e-03 1 667.4816 294.9095)" class="st13 st1 st17">60</text>
	<circle id="sandusky_circle" class="st12" cx="718.4" cy="284.3" r="10.4"/>
	<text id="sandusky_numbers" transform="matrix(1 2.630000e-03 -2.630000e-03 1 712.7815 287.1097)" class="st13 st1 st17">60</text>
	<circle id="erie_circle" class="st12" cx="753.8" cy="275.2" r="10.4"/>
	<text id="erie_numbers" transform="matrix(1 2.630000e-03 -2.630000e-03 1 748.1317 277.9673)" class="st13 st1 st17">60</text>
	<circle id="ottawa_circle" class="st12" cx="722.5" cy="265.7" r="10.4"/>
	<text id="ottawa_numbers" transform="matrix(1 2.630000e-03 -2.630000e-03 1 716.8649 268.5096)" class="st13 st1 st17">60</text>
	<circle id="fulton_circle" class="st12" cx="665.8" cy="272.4" r="10.4"/>
	<text id="fulton_numbers" transform="matrix(1 2.630000e-03 -2.630000e-03 1 660.1315 275.1595)" class="st13 st1 st17">60</text>
	<circle id="williams_circle" class="st12" cx="641.2" cy="276.6" r="10.4"/>
	<text id="williams_numbers" transform="matrix(1 2.630000e-03 -2.630000e-03 1 635.5316 279.4095)" class="st13 st1 st17">60</text>
	<circle id="meigs_circle" class="st12" cx="814.7" cy="448.3" r="10.4"/>
	<text id="meigs_numbers" transform="matrix(1 2.630000e-03 -2.630000e-03 1 809.0756 451.0781)" class="st13 st1 st17">60</text>
	<circle id="gallia_circle" class="st12" cx="800.2" cy="469.1" r="10.4"/>
	<text id="gallia_numbers" transform="matrix(1 2.630000e-03 -2.630000e-03 1 794.5316 471.8596)" class="st13 st1 st17">60</text>
	<circle id="lawrence_circle" class="st12" cx="787.6" cy="489.7" r="10.4"/>
	<text id="lawrence_numbers" transform="matrix(1 2.630000e-03 -2.630000e-03 1 781.9816 492.4691)" class="st13 st1 st17">60</text>
	<circle id="jackson_circle" class="st12" cx="779.2" cy="460.4" r="10.4"/>
	<text id="jackson_numbers" transform="matrix(1 2.630000e-03 -2.630000e-03 1 773.5815 463.2172)" class="st13 st1 st17">60</text>
	<circle id="vinton_circle" class="st12" cx="789.2" cy="441.8" r="10.4"/>
	<text id="vinton_numbers" transform="matrix(1 2.630000e-03 -2.630000e-03 1 783.5316 444.6304)" class="st13 st1 st17">60</text>
	<circle id="scioto_circle" class="st12" cx="754.6" cy="479.3" r="10.4"/>
	<text id="scioto_numbers" transform="matrix(1 2.630000e-03 -2.630000e-03 1 748.9316 482.069)" class="st13 st1 st17">60</text>
	<circle id="pike_circle" class="st12" cx="758.7" cy="457.6" r="10.4"/>
	<text id="pike_numbers" transform="matrix(1 2.630000e-03 -2.630000e-03 1 753.0316 460.4095)" class="st13 st1 st17">60</text>
	<circle id="adams_circle" class="st12" cx="729.2" cy="476.5" r="10.4"/>
	<text id="adams_numbers" transform="matrix(1 2.630000e-03 -2.630000e-03 1 723.5316 479.2612)" class="st13 st1 st17">60</text>
	<circle id="brown_circle" class="st12" cx="706.9" cy="476.5" r="10.4"/>
	<text id="brown_numbers" transform="matrix(1 2.630000e-03 -2.630000e-03 1 701.2816 479.2612)" class="st13 st1 st17">60</text>
	<circle id="clermont_circle" class="st12" cx="688" cy="464.2" r="10.4"/>
	<text id="clermont_numbers" transform="matrix(1 2.630000e-03 -2.630000e-03 1 682.3802 467.0095)" class="st13 st1 st17">60</text>
	<circle id="highland_circle" class="st12" cx="722.5" cy="450" r="10.4"/>
	<text id="highland_numbers" transform="matrix(1 2.630000e-03 -2.630000e-03 1 716.8649 452.8095)" class="st13 st1 st17">60</text>
	<circle id="ross_circle" class="st12" cx="748.3" cy="437.9" r="10.4"/>
	<text id="ross_numbers" transform="matrix(1 2.630000e-03 -2.630000e-03 1 742.6316 440.7095)" class="st13 st1 st17">60</text>
	<circle id="athens_circle" class="st12" cx="806.9" cy="425.8" r="10.4"/>
	<text id="athens_numbers" transform="matrix(1 2.630000e-03 -2.630000e-03 1 801.2316 428.5595)" class="st13 st1 st17">60</text>
	<circle id="hocking_circle" class="st12" cx="782.9" cy="420" r="10.4"/>
	<text id="hocking_numbers" transform="matrix(1 2.630000e-03 -2.630000e-03 1 777.2316 422.7595)" class="st13 st1 st17">60</text>
	<circle id="fayette_circle" class="st12" cx="724.3" cy="425.1" r="10.4"/>
	<text id="fayette_numbers" transform="matrix(1 2.630000e-03 -2.630000e-03 1 718.6315 427.8594)" class="st13 st1 st17">60</text>
	<circle id="clinton_circle" class="st12" cx="703.3" cy="437.9" r="10.4"/>
	<text id="clinton_numbers" transform="matrix(1 2.630000e-03 -2.630000e-03 1 697.6816 440.7095)" class="st13 st1 st17">60</text>
	<circle id="greene_circle" class="st12" cx="704.1" cy="417.9" r="10.4"/>
	<text id="greene_numbers" transform="matrix(1 2.630000e-03 -2.630000e-03 1 698.4316 420.699)" class="st13 st1 st17">60</text>
	<circle id="preble_circle" class="st12" cx="651.6" cy="415.2" r="10.4"/>
	<text id="preble_numbers" transform="matrix(1 2.630000e-03 -2.630000e-03 1 645.9316 418.049)" class="st13 st1 st17">60</text>
	<circle id="clark_circle" class="st12" cx="693.7" cy="399.8" r="10.4"/>
	<text id="clark_numbers" transform="matrix(1 2.630000e-03 -2.630000e-03 1 688.0316 402.6094)" class="st13 st1 st17">60</text>
	<circle id="miami_circle" class="st12" cx="672.8" cy="390.9" r="10.4"/>
	<text id="miami_numbers" transform="matrix(1 2.630000e-03 -2.630000e-03 1 667.1315 393.7088)" class="st13 st1 st17">60</text>
	<circle id="champaign_circle" class="st12" cx="702.6" cy="382.1" r="10.4"/>
	<text id="champaign_numbers" transform="matrix(1 2.630000e-03 -2.630000e-03 1 696.9816 384.9095)" class="st13 st1 st17">60</text>
	<circle id="madison_circle" class="st12" cx="723.7" cy="399.8" r="10.4"/>
	<text id="madison_numbers" transform="matrix(1 2.630000e-03 -2.630000e-03 1 718.0316 402.6094)" class="st13 st1 st17">60</text>
	<circle id="fairfield_circle" class="st12" cx="771.5" cy="399.8" r="10.4"/>
	<text id="fairfield_numbers" transform="matrix(1 2.630000e-03 -2.630000e-03 1 765.8315 402.6094)" class="st13 st1 st17">60</text>
	<circle id="perry_circle" class="st12" cx="792.1" cy="398.5" r="10.4"/>
	<text id="perry_numbers" transform="matrix(1 2.630000e-03 -2.630000e-03 1 786.4802 401.2596)" class="st13 st1 st17">60</text>
	<circle id="morgan_circle" class="st12" cx="816.7" cy="404.8" r="10.4"/>
	<text id="morgan_numbers" transform="matrix(1 2.630000e-03 -2.630000e-03 1 811.0316 407.649)" class="st13 st1 st17">60</text>
	<circle id="washington_circle" class="st12" cx="838.1" cy="415.2" r="10.4"/>
	<text id="washington_numbers" transform="matrix(1 2.630000e-03 -2.630000e-03 1 832.4315 418.049)" class="st13 st1 st17">60</text>
	<circle id="noble_circle" class="st12" cx="835.9" cy="392" r="10.4"/>
	<text id="noble_numbers" transform="matrix(1 2.630000e-03 -2.630000e-03 1 830.2316 394.7596)" class="st13 st1 st17">60</text>
	<circle id="monroe_circle" class="st12" cx="860.4" cy="391.3" r="10.4"/>
	<text id="monroe_numbers" transform="matrix(1 2.630000e-03 -2.630000e-03 1 854.7316 394.1094)" class="st13 st1 st17">60</text>
	<circle id="guernsey_circle" class="st12" cx="833.1" cy="368.9" r="10.4"/>
	<text id="guernsey_numbers" transform="matrix(1 2.630000e-03 -2.630000e-03 1 827.491 371.7095)" class="st13 st1 st17">60</text>
	<circle id="muskingum_circle" class="st12" cx="806.9" cy="381.1" r="10.4"/>
	<text id="muskingum_numbers" transform="matrix(1 2.630000e-03 -2.630000e-03 1 801.2316 383.9095)" class="st13 st1 st17">60</text>
</g>
<g id="table_data">
	<text transform="matrix(1 0 0 1 24.0267 719.1666)" class="st5 st1 st3">Confirmed Cases</text>
	<text transform="matrix(1 0 0 1 24.0267 763.0984)" class="st5 st1 st3">Deaths</text>
	<text id="current_date" transform="matrix(1 0 0 1 207.5564 674.8844)" class="st5 st1 st3">6 Apr. 2020</text>
	<text id="previous_date" transform="matrix(1 0 0 1 342.3346 674.8844)" class="st5 st1 st3">5 Apr. 2020</text>
	<text id="growth_rate__x25_" transform="matrix(1 0 0 1 461.4028 674.8844)" class="st5 st1 st3">Growth Rate %</text>
	<text transform="matrix(1 0 0 1 676.6779 674.8844)" class="st5 st1 st3">Total Confirmed Cases</text>
	<text id="current_сases" transform="matrix(1 0 0 1 230.412 722.9186)" class="st18 st1 st7">783</text>
	<text id="previous_deaths" transform="matrix(1 0 0 1 367.1483 767.3981)" class="st18 st1 st7">14</text>
	<text id="current_deaths" transform="matrix(1 0 0 1 233.9323 766.4182)" class="st18 st1 st7">15</text>
	<text id="total_cases" transform="matrix(1 0 0 1 717.2996 752.0618)" class="st19 st1 st20">783</text>
	<text id="previous_сases" transform="matrix(1 0 0 1 365.2122 722.9186)" class="st18 st1 st7">673</text>
	<text id="cases_growth_rate" transform="matrix(1 0 0 1 495.1255 724.4548)" class="st18 st1 st7">16 %</text>
	<text id="death_growth_rate" transform="matrix(1 0 0 1 499.5248 768.9341)" class="st18 st1 st7">7 %</text>
</g>
<g id="TYPES">
	<g>
		<circle id="_x34__1_" class="st12" cx="885" cy="-55.3" r="16.3"/>
		
			<text id="_x34__numbers_1_" transform="matrix(1 2.630000e-03 -2.630000e-03 1 869.1147 -51.5729)" class="st13 st1" style="font-size:10px;">10,000</text>
	</g>
	<g>
		<circle id="_x33_" class="st12" cx="840.4" cy="-54" r="14.3"/>
		
			<text id="_x33__numbers" transform="matrix(1 2.630000e-03 -2.630000e-03 1 828.0076 -50.176)" class="st13 st1" style="font-size:10px;">1,000</text>
	</g>
	<g>
		<circle id="_x32__1_" class="st12" cx="799.8" cy="-54.5" r="10.4"/>
		
			<text id="_x32__numbers_1_" transform="matrix(1 2.630000e-03 -2.630000e-03 1 792.02 -51.5908)" class="st13 st1" style="font-size:9px;">100</text>
	</g>
	<g>
		<circle id="_x31__1_" class="st12" cx="765.4" cy="-54.5" r="8"/>
		
			<rect x="761.3" y="-57.9" transform="matrix(2.629910e-03 -1 1 2.629910e-03 817.5106 711.2775)" class="st21" width="8" height="7.5"/>
		
			<text id="_x31__numbers_1_" transform="matrix(1 2.630000e-03 -2.630000e-03 1 760.5891 -51.332)" class="st13 st1" style="font-size:8px;">10</text>
	</g>
	<g>
		<circle id="_x31__2_" class="st12" cx="737.9" cy="-54.2" r="5.8"/>
		
			<rect x="733.8" y="-57.6" transform="matrix(2.629910e-03 -1 1 2.629910e-03 789.7543 684.0421)" class="st21" width="8" height="7.5"/>
		
			<text id="_x31__numbers_2_" transform="matrix(1 2.630000e-03 -2.630000e-03 1 735.3264 -51.3322)" class="st13 st1" style="font-size:8px;">1</text>
	</g>
</g>
	<image style="overflow:visible;" width="160" height="104" id="LOGO" xlink:href="../maps/SR Logos/Ohio.png"  transform="matrix(0.4392 0 0 0.4392 838.7281 5.0807)">
	</image>
</svg>
