<?xml version="1.0" encoding="utf-8"?>
<!-- Generator: Adobe Illustrator 23.0.5, SVG Export Plug-In . SVG Version: 6.00 Build 0)  -->
<svg version="1.1" id="Layer" xmlns="http://www.w3.org/2000/svg" xmlns:xlink="http://www.w3.org/1999/xlink" x="0px" y="0px"
	 viewBox="0 0 916.5 699.9" style="enable-background:new 0 0 916.5 699.9;" xml:space="preserve">
<style type="text/css">
	.st0{fill:#F5FBFE;}
	.st1{fill:#DDEEFA;}
	.st2{fill:#255078;}
	.st3{font-family:'Georgia';}
	.st4{font-size:18px;}
	.st5{font-size:16px;}
	.st6{fill:#4C4B4D;}
	.st7{font-family:'ArialMT';}
	.st8{font-size:14px;}
	.st9{fill:#4C4B4C;}
	.st10{fill:#DB3029;}
	.st11{font-size:36px;}
	.st12{fill:#AEDBF5;}
	.st13{fill:#CD483B;}
	.st14{fill:#FFFFFF;}
	.st15{font-size:5.7042px;}
	.st16{fill:none;}
</style>
<g id="texts">
	<polygon id="blue_bg" class="st0" points="0,564.8 0,601.8 0,611.4 0,700.2 173.5,700.2 173.5,611.4 915,611.4 915,564.8 	"/>
	<path id="line_bg" class="st1" d="M916.5-0.3H0v90.2v475.3v2v43v2v43v2v43l0,0h579.8l0,0H913l0,0h3.5V-0.3z M913,56.6v508.5H578.4
		l-0.6-0.3v0.3H443.6l-0.6-0.3v0.3H3V56.6H913z M913,567.2v43H579.8v-43H913z M445.1,610.2v-43h132.8v43H445.1z M577.8,612.2v43
		H445.1v-43H577.8z M310.3,610.2v-43h132.8v43H310.3z M443.1,612.2v43H310.3v-43H443.1z M175.5,610.2v-43h132.8v43H175.5z
		 M308.3,612.2v43H175.5v-43H308.3z M173.5,567.2v43H3v-43H173.5z M173.5,612.2v43H3v-43H173.5z M3,657.2h170.5v40H3V657.2z
		 M175.5,657.2h132.8v40H175.5V657.2z M310.3,657.2h132.8v40H310.3V657.2z M445.1,657.2h132.8v40H445.1V657.2z M579.8,612.2H913v85
		H579.8V612.2z"/>
	<text id="title" transform="matrix(1 0 0 1 22.167 35.8372)" class="st2 st3 st4">COVID-19 in Oklahoma on</text>
	<text id="date" transform="matrix(1 0 0 1 243.4693 35.8372)" class="st2 st3 st4">April 7th, 2020</text>
	<text transform="matrix(1 0 0 1 17.6278 102.4056)" class="st2 st3 st5">State Confirmed Cases By County</text>
	<g>
		<text transform="matrix(1 0 0 1 17.8892 141.0548)" class="st6 st7 st8">Adair  496</text>
		<text transform="matrix(1 0 0 1 17.8892 165.9828)" class="st6 st7 st8">Alfalfa  159</text>
		<text transform="matrix(1 0 0 1 17.8892 190.911)" class="st6 st7 st8">Atoka  128</text>
		<text transform="matrix(1 0 0 1 17.8677 215.8394)" class="st6 st7 st8">Beaver  496</text>
		<text transform="matrix(1 0 0 1 17.8677 240.768)" class="st6 st7 st8">Beckham  159</text>
		<text transform="matrix(1 0 0 1 17.8677 265.6962)" class="st6 st7 st8">Blaine  10</text>
		<text transform="matrix(1 0 0 1 17.8677 290.6246)" class="st6 st7 st8">Bryan  496</text>
		<text transform="matrix(1 0 0 1 17.8677 315.553)" class="st6 st7 st8">Caddo  159</text>
		<text transform="matrix(1 0 0 1 17.8677 340.4808)" class="st6 st7 st8">Canadian  128</text>
		<text transform="matrix(1 0 0 1 17.8678 365.4095)" class="st6 st7 st8">Carter  496</text>
		<text transform="matrix(1 0 0 1 17.8678 390.3376)" class="st6 st7 st8">Cherokee  159</text>
		<text transform="matrix(1 0 0 1 17.8678 415.2664)" class="st6 st7 st8">Choctaw  128</text>
		<text transform="matrix(1 0 0 1 17.8678 440.1942)" class="st6 st7 st8">Cimarron 496</text>
		<text transform="matrix(1 0 0 1 17.8678 465.1223)" class="st6 st7 st8">Cleveland  159</text>
		<text transform="matrix(1 0 0 1 134.6782 465.1686)" class="st6 st7 st8">Coal  128</text>
		<text transform="matrix(1 0 0 1 251.7287 465.075)" class="st6 st7 st8">Comanche 496</text>
		<text transform="matrix(1 0 0 1 368.7794 461.0032)" class="st6 st7 st8">Cotton  159</text>
		<text transform="matrix(1 0 0 1 17.8893 490.0508)" class="st6 st7 st8">Craig  128</text>
		<text transform="matrix(1 0 0 1 134.6783 490.1005)" class="st6 st7 st8">Creek  496</text>
		<text transform="matrix(1 0 0 1 251.7288 489.9997)" class="st6 st7 st8">Custer  159</text>
		<text transform="matrix(1 0 0 1 134.6781 141.0548)" class="st6 st7 st8">Delaware  128</text>
		<text transform="matrix(1 0 0 1 134.6781 165.9864)" class="st6 st7 st8">Dewey  496</text>
		<text transform="matrix(1 0 0 1 134.6781 190.9185)" class="st6 st7 st8">Ellis  59</text>
		<text transform="matrix(1 0 0 1 134.6781 215.8502)" class="st6 st7 st8">Garfield  10</text>
		<text transform="matrix(1 0 0 1 134.6781 240.7822)" class="st6 st7 st8">Garvin  496</text>
		<text transform="matrix(1 0 0 1 134.6781 265.7139)" class="st6 st7 st8">Grady  159</text>
		<text transform="matrix(1 0 0 1 134.6781 290.6457)" class="st6 st7 st8">Grant  128</text>
		<text transform="matrix(1 0 0 1 134.6781 315.5776)" class="st6 st7 st8">Greer  496</text>
		<text transform="matrix(1 0 0 1 134.6781 340.5092)" class="st6 st7 st8">Harmon  159</text>
		<text transform="matrix(1 0 0 1 134.6781 365.4416)" class="st6 st7 st8">Harper  128</text>
		<text transform="matrix(1 0 0 1 134.6781 390.3732)" class="st6 st7 st8">Haskell  40</text>
		<text transform="matrix(1 0 0 1 134.6781 415.3047)" class="st6 st7 st8">Hughes  159</text>
		<text transform="matrix(1 0 0 1 134.6781 440.2369)" class="st6 st7 st8">Jackson  128</text>
		<text transform="matrix(1 0 0 1 779.935 134.149)" class="st6 st7 st8">Jefferson  496</text>
		<text transform="matrix(1 0 0 1 779.935 160.1414)" class="st6 st7 st8">Johnston  159</text>
		<text transform="matrix(1 0 0 1 779.935 186.134)" class="st6 st7 st8">Kay  128</text>
		<text transform="matrix(1 0 0 1 779.9347 212.1268)" class="st6 st7 st8">Kingfisher  496</text>
		<text transform="matrix(1 0 0 1 779.9347 238.1191)" class="st6 st7 st8">Kiowa  159</text>
		<text transform="matrix(1 0 0 1 780.6005 264.1118)" class="st6 st7 st8">Latimer  128</text>
		<text transform="matrix(1 0 0 1 251.7284 141.0549)" class="st6 st7 st8">Le Flore  496</text>
		<text transform="matrix(1 0 0 1 251.7284 165.9795)" class="st6 st7 st8">Lincoln  159</text>
		<text transform="matrix(1 0 0 1 251.7284 190.9042)" class="st6 st7 st8">Logan  10</text>
		<text transform="matrix(1 0 0 1 251.7284 215.8289)" class="st6 st7 st8">Love  496</text>
		<text transform="matrix(1 0 0 1 251.7284 240.7533)" class="st6 st7 st8">Major  159</text>
		<text transform="matrix(1 0 0 1 251.7284 265.678)" class="st6 st7 st8">Marshall  128</text>
		<text transform="matrix(1 0 0 1 251.7285 290.6028)" class="st6 st7 st8">Mayes  496</text>
		<text transform="matrix(1 0 0 1 251.7285 315.5271)" class="st6 st7 st8">McClain  159</text>
		<text transform="matrix(1 0 0 1 251.7285 340.4523)" class="st6 st7 st8">McCurtain  128</text>
		<text transform="matrix(1 0 0 1 251.7285 365.3766)" class="st6 st7 st8">McIntosh  496</text>
		<text transform="matrix(1 0 0 1 251.7285 390.3011)" class="st6 st7 st8">Murray  159</text>
		<text transform="matrix(1 0 0 1 251.7285 415.2261)" class="st6 st7 st8">Muskogee  128</text>
		<text transform="matrix(1 0 0 1 251.7285 440.1504)" class="st6 st7 st8">Noble  496</text>
		<text transform="matrix(1 0 0 1 649.6998 137.3981)" class="st6 st7 st8">Nowata  159</text>
		<text transform="matrix(1 0 0 1 649.6998 162.741)" class="st6 st7 st8">Okfuskee  128</text>
		<text transform="matrix(1 0 0 1 649.7001 188.0839)" class="st6 st7 st8">Oklahoma  496</text>
		<text transform="matrix(1 0 0 1 649.7001 213.4266)" class="st6 st7 st8">Okmulgee  159</text>
		<text transform="matrix(1 0 0 1 649.7001 238.7693)" class="st6 st7 st8">Osage  128</text>
		<text transform="matrix(1 0 0 1 649.7 264.1121)" class="st6 st7 st8">Ottawa  496</text>
		<text transform="matrix(1 0 0 1 368.779 141.0549)" class="st6 st7 st8">Pawnee  159</text>
		<text transform="matrix(1 0 0 1 368.779 165.666)" class="st6 st7 st8">Payne  10</text>
		<text transform="matrix(1 0 0 1 368.779 190.2775)" class="st6 st7 st8">Pittsburg  496</text>
		<text transform="matrix(1 0 0 1 368.779 214.8891)" class="st6 st7 st8">Pontotoc  159</text>
		<text transform="matrix(1 0 0 1 368.779 239.5004)" class="st6 st7 st8">Pottawatomie  128</text>
		<text transform="matrix(1 0 0 1 368.7791 264.1119)" class="st6 st7 st8">Pushmataha  496</text>
		<text transform="matrix(1 0 0 1 368.7791 288.7231)" class="st6 st7 st8">Roger Mills  159</text>
		<text transform="matrix(1 0 0 1 368.7791 313.3345)" class="st6 st7 st8">Rogers  128</text>
		<text transform="matrix(1 0 0 1 368.7791 337.9457)" class="st6 st7 st8">Seminole  496</text>
		<text transform="matrix(1 0 0 1 368.7791 362.5572)" class="st6 st7 st8">Sequoyah  159</text>
		<text transform="matrix(1 0 0 1 368.7791 387.1687)" class="st6 st7 st8">Stephens  128</text>
		<text transform="matrix(1 0 0 1 368.7791 411.7806)" class="st6 st7 st8">Texas  496</text>
		<text transform="matrix(1 0 0 1 368.7791 436.3918)" class="st6 st7 st8">Tillman  159</text>
		<text transform="matrix(1 0 0 1 516.6001 141.0546)" class="st6 st7 st8">Tulsa  128</text>
		<text transform="matrix(1 0 0 1 516.5997 165.6663)" class="st6 st7 st8">Wagoner  496</text>
		<text transform="matrix(1 0 0 1 516.5997 190.278)" class="st6 st7 st8">Washington  159</text>
		<text transform="matrix(1 0 0 1 516.5997 214.889)" class="st6 st7 st8">Washita  128</text>
		<text transform="matrix(1 0 0 1 516.5997 239.5008)" class="st6 st7 st8">Woods  496</text>
		<text transform="matrix(1 0 0 1 516.6002 264.1121)" class="st6 st7 st8">Woodward  159</text>
	</g>
</g>
<g id="table_data">
	<text transform="matrix(1 0 0 1 22.167 636.069)" class="st2 st7 st8">Confirmed Cases</text>
	<text transform="matrix(1 0 0 1 22.167 680.0006)" class="st2 st7 st8">Deaths</text>
	<text id="current_date" transform="matrix(1 0 0 1 205.6966 591.7866)" class="st2 st7 st8">6 Apr. 2020</text>
	<text id="previous_date" transform="matrix(1 0 0 1 340.4748 591.7866)" class="st2 st7 st8">5 Apr. 2020</text>
	<text id="growth_rate__x25_" transform="matrix(1 0 0 1 459.543 591.7866)" class="st2 st7 st8">Growth Rate %</text>
	<text transform="matrix(1 0 0 1 674.818 591.7866)" class="st2 st7 st8">Total Confirmed Cases</text>
	<text id="current_сases" transform="matrix(1 0 0 1 228.5522 639.8209)" class="st9 st7 st5">783</text>
	<text id="previous_deaths" transform="matrix(1 0 0 1 371.2653 684.3004)" class="st9 st7 st5">14</text>
	<text id="current_deaths" transform="matrix(1 0 0 1 232.0725 683.3207)" class="st9 st7 st5">15</text>
	<text id="total_cases" transform="matrix(1 0 0 1 733.2673 668.9641)" class="st10 st7 st11">783</text>
	<text id="previous_сases" transform="matrix(1 0 0 1 363.3525 639.8209)" class="st9 st7 st5">673</text>
	<text id="cases_growth_rate" transform="matrix(1 0 0 1 493.2656 641.3572)" class="st9 st7 st5">16 %</text>
	<text id="death_growth_rate" transform="matrix(1 0 0 1 497.6649 685.8364)" class="st9 st7 st5">7 %</text>
</g>
<g id="Counties">
	<polygon id="roger_mills" class="st12" points="629.4,402.7 630.6,374 637.6,374 644,379.6 648.9,379.6 654.5,373.5 654.5,370.5 
		658.9,368.9 657.7,397.7 647.2,398.2 647.2,402.7 	"/>
	<path id="craig" class="st12" d="M852.2,335.9l1.5-24.1h0.1c5.9-0.1,11.8-0.2,17.6-0.4h0.2v8.4l1.1,10.4v4.5h-1.9v5l-13.4,0.1
		L852.2,335.9z"/>
	<path id="ottawa" class="st12" d="M874.6,329.3l-1-9.5v-8.4h0.1c4.3-0.1,8.6-0.2,12.8-0.3h0.2v18.3L874.6,329.3L874.6,329.3z"/>
	<polygon id="okfuskee" class="st12" points="802.9,414.8 802.9,402.7 800,402.7 800,404.4 797.4,404.5 797.4,407.7 793.9,407.7 
		794.1,394.1 814.7,394.1 814.7,399.4 819.5,399.4 819.5,411.8 825.1,411.8 825.1,414.8 	"/>
	<polygon id="wagoner" class="st12" points="843.9,381.1 833.2,381.1 837,363.8 842.3,363.8 844.9,369.1 850.5,369.1 850.5,369.1 
		861.7,368.6 859.2,372.1 859.2,381.8 	"/>
	<polygon id="mayes" class="st12" points="852.4,341.8 870.9,341.7 870.9,359.9 866.1,359.9 865.4,366.6 863.2,366.6 863.2,366.6 
		852.4,367.1 	"/>
	<path id="jefferson" class="st12" d="M728.7,497.9c-0.2,0-0.4,0-0.7-0.1h-0.1v-0.1c0.1-0.9,0-2.1-0.4-3.1c-1.6-3.9-3.6-4.8-5.9-5.6
		c-0.9-0.3-1.7-0.6-2.4-1.4l-0.1-0.1v-11.4H746l-1.6,17.7l-0.2-0.1c-1-0.3-2-0.4-3-0.4c-2,0-4.1,0.6-6.3,1.8c-0.6,0.3-1,0.6-1.5,0.9
		C731.4,497.3,730.3,497.9,728.7,497.9L728.7,497.9z"/>
	<polygon id="greer" class="st12" points="640.6,431.6 633.9,431.6 633.9,428.6 638.9,428.6 638.9,423.7 657.4,424.2 657.4,426.8 
		659.2,426.8 661,439.9 654.7,439.9 652.4,442.7 652.4,445.4 643.8,445.5 	"/>
	<polygon id="beckham" class="st12" points="628.3,426.6 629.3,404.6 649.1,404.6 649.1,400.1 657.7,399.6 657.7,402.1 657.4,422.3 
		637,421.7 637,426.6 	"/>
	<path id="bryan" class="st12" d="M808.2,505.9c-3.2,0-6.7-1.7-10.2-3.4c-1.4-0.7-2.5-1.2-3.6-1.7l-0.1-0.1l1.9-12.8l6.5-2.9h24.1
		v13.4h-0.1c-3.3,0.1-5.8,0.2-8.9,1.8c-1.4,0.7-2.7,1.9-3.9,2.9s-2.3,2.1-3.3,2.4C809.9,505.8,809,505.9,808.2,505.9L808.2,505.9z"
		/>
	<polygon id="coal" class="st12" points="804.2,467.9 799.5,463 799.5,454.6 804.7,454.6 804.7,449.4 818.3,449.2 818.4,464.6 
		816.5,467.9 	"/>
	<polygon id="hughes" class="st12" points="801.2,437.8 801.4,426.8 802.9,426.8 802.9,416.7 825.1,416.7 825.1,423.2 823.8,423.2 
		819.9,426.9 819.9,437.5 818.2,439.4 818.2,447.2 804.4,447.4 	"/>
	<polygon id="custer_1_" class="st12" points="746.9,488.1 748.2,474.2 748.1,474.2 748.1,462.8 756.5,464.2 756.5,471.5 
		771.8,471.5 771.8,475.1 777.1,475.1 777.1,485.9 775.9,488.1 	"/>
	<path id="marshall" class="st12" d="M792.3,500.2c-1.5-0.3-3.1-0.3-4.3-0.4c-1.3,0-2.6,0-3.8-0.3c-1.5-0.4-1.6-0.5-1.9-2.3
		c-0.1-0.9-0.3-2-0.7-3.4l-0.9-3l-2.9,1.3c0,0-0.1,0-0.1,0.1l-0.1,0.1l-0.2,0.1l-0.1-3l1.7-2.9v-1.3h13.7l1.6,2.5l-1.9,12.6
		L792.3,500.2z"/>
	<path id="love" class="st12" d="M765.1,506.4c-5.6-1.2-9.8-4.7-14.7-8.8l-0.7-0.6c-1.2-1-2.3-1.7-3.3-2.3l-0.1-0.1l0.4-4.6h28.7
		l0.1,3.6l-0.1,0.1c-1.4,1.3-2.3,2.9-3,4.1c-0.6,0.9-1,1.8-1.6,2.5c-0.5,0.6-1.2,1.1-1.8,1.7c-1.3,1.2-2.9,2.4-3.8,4.4l-0.1,0.1
		L765.1,506.4z"/>
	<polygon id="murray" class="st12" points="773.8,473.1 773.8,469.5 758.4,469.5 758.4,464.3 766.2,464.3 769.2,461.9 766.1,456.5 
		776.9,456.5 776.9,459.5 782,459.5 782,462.2 780.6,462.2 778.9,473.1 	"/>
	<polygon id="garvin" class="st12" points="757.5,462.4 747.7,460.8 742.8,453.2 742.8,442.6 776.9,442.6 776.9,454.6 762.7,454.6 
		766.7,461.5 765.5,462.4 	"/>
	<polygon id="creek" class="st12" points="794.2,392.2 794.2,363.8 809.4,363.8 809.4,369.1 821.4,369.1 821.4,381.1 814.7,381.1 
		814.7,392.2 	"/>
	<polygon id="pontotoc" class="st12" points="783.9,462.2 783.9,457.5 778.8,457.5 778.8,437.6 785.5,438.7 785.5,440.7 
		794.1,440.7 794.2,439 799.5,438.9 802.8,448.5 802.8,452.7 797.6,452.7 797.6,462.4 	"/>
	<polygon id="pawnee" class="st12" points="785.4,361.9 785.4,354.8 780.9,354.8 780.9,349.5 775.4,349.5 775.4,344.6 791.2,346.7 
		794.8,350.1 806.3,356.6 809.4,359.5 809.4,361.9 	"/>
	<polygon id="johnston" class="st12" points="793.8,483.2 779.1,483.2 779.1,475.1 780.6,475.1 782.3,464.2 782.9,464.2 
		798.1,464.3 802.8,469.2 802.8,483.2 802.2,483.2 795.7,486.2 	"/>
	<polygon id="payne" class="st12" points="769.3,373.3 758.5,371.7 758.6,368.2 760.2,366.5 760.3,361.7 770.2,361.8 770.3,356.6 
		783.6,356.9 783.5,364 792.3,364.1 792.1,373.7 	"/>
	<polygon id="caddo" class="st12" points="708.4,441.1 706.7,439.2 695.2,439.2 695.2,424.7 697.2,422.3 697.2,398 710.2,399.9 
		710.4,409.6 720.6,409.6 718.8,441.1 	"/>
	<polygon id="seminole" class="st12" points="787.5,438.8 787.5,406.3 792,406.7 791.9,409.6 799.4,409.6 799.4,406.4 800.9,406.2 
		800.9,424.9 799.4,424.9 799.3,436.9 792.5,437.1 792.3,438.8 	"/>
	<polygon id="stephens" class="st12" points="719.2,474.2 719.2,457.9 720.7,457 720.7,452.5 740.9,452.5 740.9,453.7 746.1,462 
		746.1,474.2 	"/>
	<polygon id="cleveland" class="st12" points="762.9,436.9 758.6,434.3 758.6,429.5 754.9,423.9 744.3,413.4 742.8,411.8 
		742.8,409.7 767,411.8 767,435.3 764.9,435.5 764.9,436.9 	"/>
	<polygon id="mcclain" class="st12" points="742.8,440.6 742.8,414.6 753.3,425 756.6,430.1 756.6,435.5 762.3,438.9 766.8,438.9 
		766.8,437.6 773.3,435.5 776.9,435.6 776.9,440.6 	"/>
	<polygon id="pottawatomie" class="st12" points="778.8,435.6 778.8,433.7 773,433.5 768.9,434.8 768.9,404.7 785.5,406.1 
		785.5,436.7 	"/>
	<polygon id="logan" class="st12" points="742.8,387.4 742.8,361.9 758.3,361.9 758.3,366 756.6,367.7 756.6,373.7 768.5,375.2 
		768.5,380.4 767,380.4 767,387.4 	"/>
	<polygon id="blaine" class="st12" points="697.2,396 697,381.1 697.2,360.9 715.9,361.3 715.9,388.1 710.6,398.1 	"/>
	<polygon id="oklahoma" class="st12" points="742.8,407.8 742.8,389.3 767,389.3 767,409.8 	"/>
	<polygon id="grady" class="st12" points="720.7,450.6 720.7,442.1 722.5,410 732.4,413.1 740.9,413.1 740.9,450.6 	"/>
	<polygon id="canadian" class="st12" points="732.8,411.2 722.6,408 722.6,407.7 712.2,407.7 712.1,399.3 717.5,389.3 740.9,389.3 
		740.9,411.2 	"/>
	<polygon id="kingfisher" class="st12" points="717.9,387.4 717.9,361.4 740.9,361.9 740.9,387.4 	"/>
	<polygon id="garfield" class="st12" points="741.9,360 722.6,359.6 722.6,342.2 724.2,334.8 753.1,335.9 753.1,360 	"/>
	<polygon id="lincoln" class="st12" points="768.9,402.7 768.9,382.3 770.4,382.3 770.4,375.3 792.3,375.3 792.3,393.1 792,404.7 	
		"/>
	<path id="grant" class="st12" d="M723.6,332.9l-1-0.3v-9.1l1.5-11.5h0.1c9.5,0.2,19.2,0.3,28.8,0.3h0.1v21.6L723.6,332.9z"/>
	<path id="nowata" class="st12" d="M834.9,334.8v-22.6h0.1c6-0.1,11.4-0.2,16.6-0.3h0.2l-1.5,22.9H834.9L834.9,334.8z"/>
	<polygon id="noble" class="st12" points="755,360 755,336 772.5,336.7 773.5,337.6 773.5,351.5 779,351.5 779,354.8 768.2,354.8 
		768.2,360 	"/>
	<path id="kay" class="st12" d="M755,334.1v-21.7h0.2c9.2,0.1,18.7,0.1,28.1,0.1h4.2v10.3l-0.1,0.1c-1,1.4-2.5,3.1-3.1,3.6l-0.1,0.1
		h-0.1c-0.3-0.1-0.7-0.1-1.2-0.1c-0.8,0-1.7,0.1-2.2,0.2l-0.2,0.1l-8.6,5.2v3L755,334.1z"/>
	<path id="alfalfa" class="st12" d="M702,341.1v-29.5h0.2c7.1,0.2,13.5,0.3,19.8,0.4h0.2l-1.4,11.4v10.7l1.7,0.4l-1.4,6.6H702
		L702,341.1L702,341.1z"/>
	<polygon id="custer" class="st12" points="659.6,401.2 659.6,398.6 660.4,380.7 695.1,382 695.2,396.9 695.2,402.6 	"/>
	<polygon id="major" class="st12" points="681.4,358.6 681.4,339.5 685.5,340.4 693.9,347 702,347 702,343.1 720.7,343.1 
		720.6,359.5 	"/>
	<path id="harper" class="st12" d="M631.8,331.3l0.6-21.8h0.2c8.4,0.3,17.2,0.7,26.1,0.9h0.1l5.4,8.3v12.7L631.8,331.3L631.8,331.3z
		"/>
	<polygon id="dewey" class="st12" points="660.4,378.8 661.2,360.1 695.2,360.9 695.1,380.1 	"/>
	<polygon id="woodward" class="st12" points="661.3,358.1 661.3,358.1 650.7,358.1 650.7,333.2 666,333.2 666,322.8 671.9,322.8 
		676.9,331.6 679.4,334 679.4,358.6 	"/>
	<polygon id="washita" class="st12" points="659.4,422.4 659.6,403.1 695.2,404.5 695.2,421.6 693.8,423.4 	"/>
	<path id="osage" class="st12" d="M811.3,361.9v-3.2l-3.6-3.6l-11.5-6.6l-4-3.7l-14.7-2v-3.1h-2v-3l-1.5-1.4v-2.5l7.3-4.4h0.1
		c0.6-0.1,1.3-0.1,1.8-0.1c0.3,0,0.5,0,0.6,0.1c0.2,0.1,0.3,0.2,0.6,0.2c0.9,0,2.5-1.5,4.9-4.8l0.2-0.3v-10.9h0.1
		c11.1,0,22.4-0.1,33.5-0.2h0.2V362h-12L811.3,361.9L811.3,361.9z"/>
	<path id="washington" class="st12" d="M825.2,344.8v-32.6h0.1c2.5-0.1,5-0.1,7.5-0.1h0.2v0.2v32.5H825.2L825.2,344.8z"/>
	<polygon id="rogers" class="st12" points="846.1,367.1 843.6,361.9 837.2,361.9 837.2,353.2 834.9,353.2 834.9,336.7 850.2,336.7 
		850.2,336.8 853.4,339.2 850.5,340.1 850.5,367.1 	"/>
	<polygon id="tulsa" class="st12" points="823.3,381.1 823.3,367.1 811.3,367.1 811.3,363.8 825.2,363.8 825.2,346.8 833,346.8 
		833,355.2 835.3,355.2 835.3,362.7 831.2,381.1 	"/>
	<polygon id="ellis" class="st12" points="644.7,377.6 638.3,372.1 630.7,372.1 632.3,334.4 631.7,334.4 631.7,333.2 648.8,333.2 
		648.8,360.1 659.3,360.1 659,366.9 652.5,369.1 652.5,372.8 648,377.6 	"/>
	<path id="woods" class="st12" d="M694.6,345.1l-8.2-6.5l-5-1.1v-4.4l-2.8-2.7l-5.5-9.6H666V318l-4.9-7.6h0.3
		c13,0.4,26.1,0.8,38.7,1h0.1V345h-5.6V345.1z"/>
	<path id="texas" class="st12" d="M532.4,329l1.8-24.5h0.1c16.7,1,33.7,2,50.6,2.8h0.2l-0.7,2.3l-0.8,22.1L532.4,329z"/>
	<path id="cotton" class="st12" d="M717,483.5c-0.4-0.4-1-0.9-1.7-1.3c-0.3-0.2-0.3-0.2-1.9-0.7l-1.1-0.4l0.1-0.4l-3-0.5
		c-0.5-0.1-1-0.1-1.5-0.1c-2.2,0-4.3,0.7-5.9,1.3l-0.1,0.1c-1.2,0.4-2.4,0.9-3.3,0.9l0,0c-0.1,0-0.2,0-0.2,0c-1-0.1-2.4-0.4-3.5-0.8
		l-0.1-0.1v-9.7h-2.5v-0.6l1.2-1.9v-1.8h9.4l8.7-1.9l3.5-2.9h2v21L717,483.5z"/>
	<polygon id="pittsburg" class="st12" points="831.7,457.2 831.7,452.1 820.2,452.1 820.1,440.1 821.9,438.3 821.9,427.8 
		824.6,425.2 830.4,425.2 838.2,422.5 844.2,418.4 846.4,416.5 850.6,416.5 850.6,423.3 855.7,423.3 855.7,429 854.4,430.2 
		847.3,430.2 847.3,452.6 840.8,457.2 	"/>
	<polygon id="latimer" class="st12" points="849.2,452.1 849.2,432.1 855.2,432.1 857,430.4 875.7,430.4 875.3,434.7 870.3,440.3 
		870.3,452.2 	"/>
	<polygon id="atoka" class="st12" points="804.7,483.2 804.7,469.8 817.7,469.8 820.3,465.2 820.3,454.1 829.8,454.1 829.8,459.1 
		840.1,459.1 840.3,462.4 835.3,462.4 835.3,483.2 	"/>
	<polygon id="haskell" class="st12" points="857.6,428.5 857.6,421.3 852.6,421.3 852.6,416.5 860,416.5 864.8,414.2 869.6,410.2 
		869.6,407.7 871.3,406.7 871.4,407 880.8,412 880.8,417.8 876.6,420.3 875.9,428.5 	"/>
	<polygon id="adair" class="st12" points="883.2,392.2 883.2,375.3 885,375.3 885,365.4 883.2,365.4 883.2,361.8 892.4,361.8 
		897.1,392.2 	"/>
	<path id="beaver" class="st12" d="M585.6,331.9l0.8-21.8l0.7-2.7h0.1c14.2,0.7,28.7,1.3,43,1.9h0.1l-0.6,24.9L585.6,331.9z"/>
	<polygon id="delaware" class="st12" points="872.8,359.9 872.8,336.7 874.7,336.7 874.7,331.2 886.7,331.2 886.7,342.5 
		889.3,342.4 892,359.9 	"/>
	<polygon id="muskogee" class="st12" points="857.6,414.6 857.6,397.7 838.9,397.7 838.9,387.4 837.2,387.4 837.2,383.1 
		843.9,383.1 859.6,383.8 870.6,403.7 870.8,404.7 867.7,406.6 867.7,409.3 863.8,412.5 859.6,414.6 	"/>
	<polygon id="cherokee" class="st12" points="866.4,392.2 861.2,382.6 861.2,372.7 864.2,368.6 867.1,368.6 867.9,361.8 
		881.3,361.8 881.3,367.3 883,367.3 883,373.4 881.3,373.4 881.3,392.2 	"/>
	<path id="jackson" class="st12" d="M641.3,463.8c-0.4-0.1-1.2-0.9-2.5-2.1l-1-0.9h4.3l1.9-13.3l10.4-0.2v-3.8l1.4-1.6h10.7v-1.5
		h1.8l3.4,6.4v3l-2,1.7l-0.2,2.9h-3.1l-3.8,5.5l-0.1,1.9l-0.2-0.2c-1-0.8-2-1.2-3.1-1.3c-0.1,0-0.3,0-0.4,0c-1.9,0-3.3,1.2-4.3,2.1
		c-0.2,0.2-0.3,0.3-0.5,0.4l-0.1,0.1l-0.1-0.1c-1.1-1.2-2.4-1.7-3.9-1.7c-1.7,0-3.3,0.7-4.4,1.3l-0.1,0.1c-0.6,0.3-1.1,0.5-1.7,0.7
		C643.5,463.1,641.6,463.8,641.3,463.8L641.3,463.8z"/>
	<path id="harmon" class="st12" d="M635.6,458.9L635.6,458.9c-5.3-4.8-8.3-8-8-16l0.6-14.4h3.6v5.1h7.1l3,12.9l-1.7,12.3h-4.6
		L635.6,458.9L635.6,458.9z"/>
	<path id="tilliman" class="st12" d="M692.7,480.8c-2-0.7-4-1.3-6-1.5c-3.9-0.4-6.6-0.7-9.7-2.1c-1.5-0.7-3.3-1.1-4.9-1.5
		c-1.9-0.5-3.9-1-5.1-1.8c-1-0.7-1-0.8-1.1-2.1v-0.2l0.1-0.1c1.4-1.2,2-2.5,1.8-3.9c-0.4-2.3-2.2-3-3-3.4l-0.2-0.1l0,0
		c-0.1-0.1-0.2-0.3-0.3-0.4l-0.1-0.1l0.1-3.1l2.9-4.3h4l0.1-1.9h2.3l9.6,3.6v4.6h6.7l1.9,2.4v3.7l-1.2,1.9v3.1h2.5v7.1L692.7,480.8z
		"/>
	<path id="cimarron" class="st12" d="M489.4,326.7v-25.2h0.2c14.4,1,28.8,2,42.6,2.9h0.2l-1.8,24.5L489.4,326.7z"/>
	<polygon id="pushmataha" class="st12" points="837.2,483.2 837.2,464.3 842.3,464.3 842.1,458.6 848.5,454.1 870.7,454.1 
		874.6,461.7 870.5,461.7 870.5,477.1 865.3,480.1 865.3,483.2 	"/>
	<path id="choctaw" class="st12" d="M836.2,499c-0.3,0-0.8-0.2-1.3-0.3c-0.7-0.2-1.4-0.4-2.2-0.4c-0.4,0-0.7,0-1,0
		c-0.8,0-1.4,0.1-2,0.1l-0.8,0.1v-13.2h36.6v7.8l-0.2-0.1c-0.6-0.2-1.1-0.2-1.6-0.2c-0.6,0-1,0.1-1.5,0.3c-2,0.7-3,2.1-3.7,3
		c-0.6,0.9-0.8,1.2-1.8,1.4c-1.2,0.2-2.7,0.3-4,0.3l0,0c-2.5,0-4.6-0.4-5.4-1.1c-0.2-0.2-0.3-0.3-0.3-0.5l-0.1-2.7l-2.7-0.1
		c-0.1,0-0.2,0-0.3,0c-3.3,0-4.8,2.4-5.7,3.8c-0.8,1.2-1.1,1.6-1.7,1.8C836.2,499,836.2,499,836.2,499z"/>
	<polygon id="sequoyah" class="st12" points="887.4,409.9 884,409.9 881.9,410.3 873,405.7 872.4,403.1 867.5,394.1 897.4,394.1 
		897.6,395 897.6,411.5 	"/>
	<polygon id="le_flore" class="st12" points="876.9,461.7 872.2,452.9 872.2,441 877.2,435.6 878.4,421.5 882.7,418.9 882.7,412.1 
		884.1,411.8 887.1,411.8 897.6,413.5 897.6,460.7 887.8,460.7 887.8,462.3 	"/>
	<path id="mccurtain" class="st12" d="M897.3,511.9c-0.7-0.4-1.4-0.9-2-1.2c-2.9-1.6-6-2.7-8.9-3.8c-3.3-1.2-6.3-2.3-9.1-4
		c-0.7-0.4-2-1.8-3.3-3.1c-2.2-2.3-4.5-4.6-6.8-6l-0.1-0.1v-12.6l5.2-3v-14.6h3.8l13.5,0.8v-1.8h7.8v49.4L897.3,511.9z"/>
	<polygon id="kiowa" class="st12" points="674.1,452.5 671.3,452.5 673.4,450.7 673.4,446.3 669.3,438.4 664.4,438.4 664.4,439.9 
		663,439.9 660.9,424.9 659.4,424.9 659.4,424.3 693.2,425.3 693.2,439.2 683.1,439.2 683.1,456 	"/>
	<polygon id="comanche" class="st12" points="693.6,465.6 693.6,464.4 690.7,460.7 685.1,460.7 685.1,441.1 705.8,441.1 
		707.5,443.1 718.7,443.1 718.7,455.9 717.3,456.8 717.3,460.7 714.5,460.7 710.9,463.8 702.8,465.6 	"/>
	<polygon id="mcintosh" class="st12" points="827,423.2 827,411.8 832,411.8 832,403.2 833.8,403.2 833.8,399.7 855.7,399.7 
		855.7,414.6 845.8,414.6 843,416.8 837.5,420.7 830.1,423.2 	"/>
	<polygon id="okmulgee" class="st12" points="821.4,409.9 821.4,397.5 816.7,397.5 816.7,383.1 835.3,383.1 835.3,389.3 
		836.9,389.3 836.9,397.7 831.9,397.7 831.9,401.3 830,401.3 830,409.9 	"/>
</g>
<g id="balls_1_">
	<circle id="choctaw_circle" class="st13" cx="847.5" cy="490.1" r="5.7"/>
	<text id="choctaw_numbers" transform="matrix(0.986 2.629929e-03 -2.593139e-03 1 845.943 492.1149)" class="st14 st7 st15">1</text>
	<circle id="mccurtain_circle" class="st13" cx="884" cy="485.6" r="5.7"/>
	<text id="mccurtain_numbers" transform="matrix(0.986 2.629929e-03 -2.593139e-03 1 882.4921 487.6089)" class="st14 st7 st15">1</text>
	<circle id="pushmataha_circle" class="st13" cx="855.1" cy="468.4" r="5.7"/>
	<text id="pushmataha_numbers" transform="matrix(0.986 2.629929e-03 -2.593139e-03 1 853.5638 470.3958)" class="st14 st7 st15">1</text>
	<circle id="bryan_circle" class="st13" cx="809.4" cy="493.4" r="5.7"/>
	<text id="bryan_numbers" transform="matrix(0.986 2.629929e-03 -2.593139e-03 1 807.8618 495.4499)" class="st14 st7 st15">1</text>
	<circle id="atoka_circle" class="st13" cx="823.3" cy="473.1" r="5.7"/>
	<text id="atoka_numbers" transform="matrix(0.986 2.629929e-03 -2.593139e-03 1 821.7936 475.1197)" class="st14 st7 st15">1</text>
	<circle id="coal_circle" class="st13" cx="810.4" cy="459" r="5.7"/>
	<text id="coal_numbers" transform="matrix(0.986 2.629929e-03 -2.593139e-03 1 808.9307 461.0033)" class="st14 st7 st15">1</text>
	<circle id="latimer_circle" class="st13" cx="861.3" cy="441" r="5.7"/>
	<text id="latimer_numbers" transform="matrix(0.986 2.629929e-03 -2.593139e-03 1 859.7588 443.0538)" class="st14 st7 st15">1</text>
	<circle id="pittsburg_circle" class="st13" cx="835.2" cy="439.3" r="5.7"/>
	<text id="pittsburg_numbers" transform="matrix(0.986 2.629929e-03 -2.593139e-03 1 833.6664 441.3181)" class="st14 st7 st15">1</text>
	<circle id="haskell_circle" class="st13" cx="869.3" cy="420.3" r="5.7"/>
	<text id="haskell_numbers" transform="matrix(0.986 2.629929e-03 -2.593139e-03 1 867.7529 422.3572)" class="st14 st7 st15">1</text>
	<circle id="le_flore_circle" class="st13" cx="886.1" cy="439.5" r="5.7"/>
	<text id="le_flore_numbers" transform="matrix(0.986 2.629929e-03 -2.593139e-03 1 884.5609 441.4754)" class="st14 st7 st15">1</text>
	<circle id="hughes_circle" class="st13" cx="811.1" cy="431.7" r="5.7"/>
	<text id="hughes_numbers" transform="matrix(0.986 2.629929e-03 -2.593139e-03 1 809.561 433.7069)" class="st14 st7 st15">1</text>
	<circle id="marshall_circle" class="st13" cx="787.3" cy="492.1" r="5.7"/>
	<text id="marshall_numbers" transform="matrix(0.986 2.629929e-03 -2.593139e-03 1 785.7646 494.1107)" class="st14 st7 st15">1</text>
	<circle id="johnston_circle" class="st13" cx="792.3" cy="473" r="5.7"/>
	<text id="johnston_numbers" transform="matrix(0.986 2.629929e-03 -2.593139e-03 1 790.8024 475.0205)" class="st14 st7 st15">1</text>
	<circle id="pontotoc_circle" class="st13" cx="789.8" cy="450.1" r="5.7"/>
	<text id="pontotoc_numbers" transform="matrix(0.986 2.629929e-03 -2.593139e-03 1 788.3296 452.0996)" class="st14 st7 st15">1</text>
	<circle id="mcintosh_circle" class="st13" cx="840.9" cy="408.2" r="5.7"/>
	<text id="mcintosh_numbers" transform="matrix(0.986 2.629929e-03 -2.593139e-03 1 839.3663 410.1906)" class="st14 st7 st15">1</text>
	<circle id="love_circle" class="st13" cx="762" cy="497" r="5.7"/>
	<text id="love_numbers" transform="matrix(0.986 2.629929e-03 -2.593139e-03 1 760.5281 499.0004)" class="st14 st7 st15">1</text>
	<circle id="custer_circle_1_" class="st13" cx="760.5" cy="479.3" r="5.7"/>
	<text id="custer_numbers_1_" transform="matrix(0.986 2.629929e-03 -2.593139e-03 1 758.9598 481.2715)" class="st14 st7 st15">1</text>
	<circle id="murray_circle" class="st13" cx="773.6" cy="464.2" r="5.7"/>
	<text id="murray_numbers" transform="matrix(0.986 2.629929e-03 -2.593139e-03 1 772.1191 466.1923)" class="st14 st7 st15">1</text>
	<circle id="garvin_circle" class="st13" cx="755.7" cy="450.7" r="5.7"/>
	<text id="garvin_numbers" transform="matrix(0.986 2.629929e-03 -2.593139e-03 1 754.1432 452.7184)" class="st14 st7 st15">1</text>
	<circle id="mcclain_circle" class="st13" cx="751" cy="433.9" r="5.7"/>
	<text id="mcclain_numbers" transform="matrix(0.986 2.629929e-03 -2.593139e-03 1 749.4825 435.9568)" class="st14 st7 st15">1</text>
	<circle id="cleveland_circle" class="st13" cx="760" cy="420.1" r="5.7"/>
	<text id="cleveland_numbers" transform="matrix(0.986 2.629929e-03 -2.593139e-03 1 758.5096 422.1517)" class="st14 st7 st15">1</text>
	<circle id="pottawatomie_circle" class="st13" cx="777.6" cy="420.3" r="5.7"/>
	<text id="pottawatomie_numbers" transform="matrix(0.986 2.629929e-03 -2.593139e-03 1 776.1039 422.3569)" class="st14 st7 st15">1</text>
	<circle id="seminole_circle" class="st13" cx="794" cy="421.7" r="5.7"/>
	<text id="seminole_numbers" transform="matrix(0.986 2.629929e-03 -2.593139e-03 1 792.4609 423.7003)" class="st14 st7 st15">1</text>
	<circle id="okfuskee_circle" class="st13" cx="809.4" cy="404.2" r="5.7"/>
	<text id="okfuskee_numbers" transform="matrix(0.986 2.629929e-03 -2.593139e-03 1 807.8618 406.2003)" class="st14 st7 st15">1</text>
	<circle id="jefferson_circle" class="st13" cx="733.6" cy="484.4" r="5.7"/>
	<text id="jefferson_numbers" transform="matrix(0.986 2.629929e-03 -2.593139e-03 1 732.1172 486.4148)" class="st14 st7 st15">1</text>
	<circle id="stephens_circle" class="st13" cx="733.5" cy="464.2" r="5.7"/>
	<text id="stephens_numbers" transform="matrix(0.986 2.629929e-03 -2.593139e-03 1 732.025 466.2201)" class="st14 st7 st15">1</text>
	<circle id="grady_circle" class="st13" cx="730.8" cy="431.7" r="5.7"/>
	<text id="grady_numbers" transform="matrix(0.986 2.629929e-03 -2.593139e-03 1 729.2939 433.7067)" class="st14 st7 st15">1</text>
	<circle id="okmulgee_circle" class="st13" cx="827" cy="391.8" r="5.7"/>
	<text id="okmulgee_numbers" transform="matrix(0.986 2.629929e-03 -2.593139e-03 1 825.4769 393.8575)" class="st14 st7 st15">1</text>
	<circle id="muskogee_circle" class="st13" cx="854.7" cy="391.3" r="5.7"/>
	<text id="muskogee_numbers" transform="matrix(0.986 2.629929e-03 -2.593139e-03 1 853.2403 393.3065)" class="st14 st7 st15">1</text>
	<circle id="sequoyah_circle" class="st13" cx="884.9" cy="401.6" r="5.7"/>
	<text id="sequoyah_numbers" transform="matrix(0.986 2.629929e-03 -2.593139e-03 1 883.3936 403.5902)" class="st14 st7 st15">1</text>
	<circle id="canadian_circle" class="st13" cx="727.8" cy="399.5" r="5.7"/>
	<text id="canadian_numbers" transform="matrix(0.986 2.629929e-03 -2.593139e-03 1 726.3254 401.5697)" class="st14 st7 st15">1</text>
	<circle id="oklahoma_circle" class="st13" cx="755.5" cy="398.6" r="5.7"/>
	<text id="oklahoma_numbers" transform="matrix(0.986 2.629929e-03 -2.593139e-03 1 753.992 400.6689)" class="st14 st7 st15">1</text>
	<circle id="lincoln_circle" class="st13" cx="781.5" cy="390.5" r="5.7"/>
	<text id="lincoln_numbers" transform="matrix(0.986 2.629929e-03 -2.593139e-03 1 779.9654 392.5457)" class="st14 st7 st15">1</text>
	<circle id="kingfisher_circle" class="st13" cx="729.4" cy="375.3" r="5.7"/>
	<text id="kingfisher_numbers" transform="matrix(0.986 2.629929e-03 -2.593139e-03 1 727.8932 377.3198)" class="st14 st7 st15">1</text>
	<circle id="logan_circle" class="st13" cx="753.1" cy="378" r="5.7"/>
	<text id="logan_numbers" transform="matrix(0.986 2.629929e-03 -2.593139e-03 1 751.5934 379.9953)" class="st14 st7 st15">1</text>
	<circle id="wagoner_circle" class="st13" cx="846.9" cy="374.3" r="5.7"/>
	<text id="wagoner_numbers" transform="matrix(0.986 2.629929e-03 -2.593139e-03 1 845.3567 376.2717)" class="st14 st7 st15">1</text>
	<circle id="cherokee_circle" class="st13" cx="872.3" cy="378" r="5.7"/>
	<text id="cherokee_numbers" transform="matrix(0.986 2.629929e-03 -2.593139e-03 1 870.7955 379.9958)" class="st14 st7 st15">1</text>
	<circle id="adair_circle" class="st13" cx="888.5" cy="378" r="5.7"/>
	<text id="adair_numbers" transform="matrix(0.986 2.629929e-03 -2.593139e-03 1 887.0123 380.0196)" class="st14 st7 st15">1</text>
	<circle id="creek_circle" class="st13" cx="805.7" cy="379.4" r="5.7"/>
	<text id="creek_numbers" transform="matrix(0.986 2.629929e-03 -2.593139e-03 1 804.2248 381.4531)" class="st14 st7 st15">1</text>
	<circle id="payne_circle" class="st13" cx="776.1" cy="365.5" r="5.7"/>
	<text id="payne_numbers" transform="matrix(0.986 2.629929e-03 -2.593139e-03 1 774.5917 367.5312)" class="st14 st7 st15">1</text>
	<circle id="tulsa_circle" class="st13" cx="828.8" cy="364.8" r="5.7"/>
	<text id="tulsa_numbers" transform="matrix(0.986 2.629929e-03 -2.593139e-03 1 827.3128 366.7919)" class="st14 st7 st15">1</text>
	<circle id="rogers_circle" class="st13" cx="843.7" cy="350.4" r="5.7"/>
	<text id="rogers_numbers" transform="matrix(0.986 2.629929e-03 -2.593139e-03 1 842.146 352.431)" class="st14 st7 st15">1</text>
	<circle id="mayes_circle" class="st13" cx="861" cy="353.4" r="5.7"/>
	<text id="mayes_numbers" transform="matrix(0.986 2.629929e-03 -2.593139e-03 1 859.5427 355.4002)" class="st14 st7 st15">1</text>
	<circle id="delaware_circle" class="st13" cx="880.8" cy="348" r="5.7"/>
	<text id="delaware_numbers" transform="matrix(0.986 2.629929e-03 -2.593139e-03 1 879.2941 350.0203)" class="st14 st7 st15">1</text>
	<circle id="pawnee_circle" class="st13" cx="790.9" cy="354.4" r="5.7"/>
	<text id="pawnee_numbers" transform="matrix(0.986 2.629929e-03 -2.593139e-03 1 789.4429 356.4203)" class="st14 st7 st15">1</text>
	<circle id="noble_circle" class="st13" cx="764.3" cy="347.4" r="5.7"/>
	<text id="noble_numbers" transform="matrix(0.986 2.629929e-03 -2.593139e-03 1 762.829 349.4196)" class="st14 st7 st15">1</text>
	<circle id="garfield_circle" class="st13" cx="738" cy="348" r="5.7"/>
	<text id="garfield_numbers" transform="matrix(0.986 2.629929e-03 -2.593139e-03 1 736.4992 350.0203)" class="st14 st7 st15">1</text>
	<circle id="ottawa_circle" class="st13" cx="879.8" cy="320.2" r="5.7"/>
	<text id="ottawa_numbers" transform="matrix(0.986 2.629929e-03 -2.593139e-03 1 878.2676 322.2039)" class="st14 st7 st15">1</text>
	<circle id="craig_circle" class="st13" cx="862.5" cy="326.7" r="5.7"/>
	<text id="craig_numbers" transform="matrix(0.986 2.629929e-03 -2.593139e-03 1 861.0368 328.7048)" class="st14 st7 st15">1</text>
	<circle id="nowata_circle" class="st13" cx="843.3" cy="324.1" r="5.7"/>
	<text id="nowata_numbers" transform="matrix(0.986 2.629929e-03 -2.593139e-03 1 841.8432 326.1048)" class="st14 st7 st15">1</text>
	<circle id="washington_circle" class="st13" cx="828.9" cy="328.9" r="5.7"/>
	<text id="washington_numbers" transform="matrix(0.986 2.629929e-03 -2.593139e-03 1 827.3931 330.9198)" class="st14 st7 st15">1</text>
	<circle id="osage_circle" class="st13" cx="806.4" cy="334.2" r="5.7"/>
	<text id="osage_numbers" transform="matrix(0.986 2.629929e-03 -2.593139e-03 1 804.9378 336.2203)" class="st14 st7 st15">1</text>
	<circle id="kay_circle" class="st13" cx="768.5" cy="322.1" r="5.7"/>
	<text id="kay_numbers" transform="matrix(0.986 2.629929e-03 -2.593139e-03 1 766.9934 324.0848)" class="st14 st7 st15">1</text>
	<circle id="grant_circle" class="st13" cx="738" cy="323.2" r="5.7"/>
	<text id="grant_numbers" transform="matrix(0.986 2.629929e-03 -2.593139e-03 1 736.4991 325.2037)" class="st14 st7 st15">1</text>
	<circle id="cotton_circle" class="st13" cx="705.8" cy="473.3" r="5.7"/>
	<text id="cotton_numbers" transform="matrix(0.986 2.629929e-03 -2.593139e-03 1 704.3245 475.3162)" class="st14 st7 st15">1</text>
	<circle id="comanche_circle" class="st13" cx="701.6" cy="453.4" r="5.7"/>
	<text id="comanche_numbers" transform="matrix(0.986 2.629929e-03 -2.593139e-03 1 700.0539 455.3701)" class="st14 st7 st15">1</text>
	<circle id="caddo_circle" class="st13" cx="707.5" cy="424.2" r="5.7"/>
	<text id="caddo_numbers" transform="matrix(0.986 2.629929e-03 -2.593139e-03 1 705.9802 426.1835)" class="st14 st7 st15">1</text>
	<circle id="blaine_circle" class="st13" cx="706.5" cy="379.5" r="5.7"/>
	<text id="blaine_numbers" transform="matrix(0.986 2.629929e-03 -2.593139e-03 1 704.9427 381.5203)" class="st14 st7 st15">1</text>
	<circle id="major_circle" class="st13" cx="701.6" cy="352.7" r="5.7"/>
	<text id="major_numbers" transform="matrix(0.986 2.629929e-03 -2.593139e-03 1 700.0542 354.6868)" class="st14 st7 st15">1</text>
	<circle id="alfalfa_circle" class="st13" cx="711.8" cy="327.8" r="5.7"/>
	<text id="alfalfa_numbers" transform="matrix(0.986 2.629929e-03 -2.593139e-03 1 710.3171 329.7852)" class="st14 st7 st15">1</text>
	<circle id="kiowa_circle" class="st13" cx="677.4" cy="434.5" r="5.7"/>
	<text id="kiowa_numbers" transform="matrix(0.986 2.629929e-03 -2.593139e-03 1 675.8555 436.5535)" class="st14 st7 st15">1</text>
	<circle id="washita_circle" class="st13" cx="676.5" cy="413.1" r="5.7"/>
	<text id="washita_numbers" transform="matrix(0.986 2.629929e-03 -2.593139e-03 1 675.0059 415.0715)" class="st14 st7 st15">1</text>
	<circle id="custer_circle" class="st13" cx="677.4" cy="391.7" r="5.7"/>
	<text id="custer_numbers" transform="matrix(0.986 2.629929e-03 -2.593139e-03 1 675.9256 393.6705)" class="st14 st7 st15">1</text>
	<circle id="dewey_circle" class="st13" cx="678.7" cy="370.1" r="5.7"/>
	<text id="dewey_numbers" transform="matrix(0.986 2.629929e-03 -2.593139e-03 1 677.1417 372.1199)" class="st14 st7 st15">1</text>
	<circle id="woodward_circle" class="st13" cx="666.3" cy="345.1" r="5.7"/>
	<text id="woodward_numbers" transform="matrix(0.986 2.629929e-03 -2.593139e-03 1 664.7885 347.12)" class="st14 st7 st15">1</text>
	<circle id="woods_circle" class="st13" cx="688.7" cy="324.9" r="5.7"/>
	<text id="woods_numbers" transform="matrix(0.986 2.629929e-03 -2.593139e-03 1 687.2053 326.9091)" class="st14 st7 st15">1</text>
	<circle id="tilliman_circle" class="st13" cx="679" cy="467.9" r="5.7"/>
	<text id="tilliman_numbers" transform="matrix(0.986 2.629929e-03 -2.593139e-03 1 677.4945 469.9233)" class="st14 st7 st15">1</text>
	<circle id="greer_circle" class="st13" cx="650" cy="433.8" r="5.7"/>
	<text id="greer_numbers" transform="matrix(0.986 2.629929e-03 -2.593139e-03 1 648.5359 435.7814)" class="st14 st7 st15">1</text>
	<circle id="jackson_circle" class="st13" cx="656.7" cy="452.1" r="5.7"/>
	<text id="jackson_numbers" transform="matrix(0.986 2.629929e-03 -2.593139e-03 1 655.2003 454.1332)" class="st14 st7 st15">1</text>
	<circle id="harmon_circle" class="st13" cx="634.7" cy="445" r="5.7"/>
	<text id="harmon_numbers" transform="matrix(0.986 2.629929e-03 -2.593139e-03 1 633.2382 447.018)" class="st14 st7 st15">1</text>
	<circle id="beckham_circle" class="st13" cx="644.2" cy="413.1" r="5.7"/>
	<text id="beckham_numbers" transform="matrix(0.986 2.629929e-03 -2.593139e-03 1 642.6422 415.12)" class="st14 st7 st15">1</text>
	<circle id="roger_mills_circle" class="st13" cx="644.4" cy="388.8" r="5.7"/>
	<text id="roger_mills_numbers" transform="matrix(0.986 2.629929e-03 -2.593139e-03 1 642.8605 390.8089)" class="st14 st7 st15">1</text>
	<circle id="ellis_circle" class="st13" cx="640.5" cy="359.1" r="5.7"/>
	<text id="ellis_numbers" transform="matrix(0.986 2.629929e-03 -2.593139e-03 1 639.0399 361.1647)" class="st14 st7 st15">1</text>
	<circle id="harper_circle" class="st13" cx="649" cy="321.3" r="5.7"/>
	<text id="harper_numbers" transform="matrix(0.986 2.629929e-03 -2.593139e-03 1 647.5092 323.3501)" class="st14 st7 st15">1</text>
	<circle id="beaver_circle" class="st13" cx="607.9" cy="321.4" r="5.7"/>
	<text id="beaver_numbers" transform="matrix(0.986 2.629929e-03 -2.593139e-03 1 606.4413 323.4066)" class="st14 st7 st15">1</text>
	<circle id="texas_circle" class="st13" cx="559.7" cy="319.4" r="5.7"/>
	<text id="texas_numbers" transform="matrix(0.986 2.629929e-03 -2.593139e-03 1 558.1669 321.3872)" class="st14 st7 st15">1</text>
	
		<ellipse id="cimarron_circle" transform="matrix(0.5257 -0.8506 0.8506 0.5257 -25.8118 584.0933)" class="st13" cx="510.9" cy="315.2" rx="5.7" ry="5.7"/>
	<text id="cimarron_numbers" transform="matrix(0.986 2.629929e-03 -2.593139e-03 1 509.3913 317.2199)" class="st14 st7 st15">1</text>
</g>
<g id="TYPES_1_">
	<g>
		<circle id="_x34__1_" class="st13" cx="888.9" cy="-44.5" r="25.2"/>
		
			<text id="_x34__numbers_1_" transform="matrix(1 2.629928e-03 -2.629928e-03 1 865.2497 -39.0233)" class="st14 st7" style="font-size:15px;">10,000</text>
	</g>
	<g>
		<circle id="_x33__1_" class="st13" cx="829.2" cy="-43.5" r="18.2"/>
		
			<text id="_x33__numbers_1_" transform="matrix(1 2.629936e-03 -2.629936e-03 1 812.4871 -39.044)" class="st14 st7" style="font-size:13px;">1,000</text>
	</g>
	<g>
		<circle id="_x32__1_" class="st13" cx="779.7" cy="-42.6" r="12.4"/>
		
			<text id="_x32__numbers_1_" transform="matrix(1 2.629918e-03 -2.629918e-03 1 768.9215 -38.2133)" class="st14 st7" style="font-size:12px;">100</text>
	</g>
	<g>
		<circle id="_x31__2_" class="st13" cx="702.5" cy="-41.6" r="7.2"/>
		
			<text id="_x31__numbers_2_" transform="matrix(1 2.629955e-03 -2.629955e-03 1 700.3745 -38.8103)" class="st14 st7" style="font-size:7.3546px;">1</text>
	</g>
	<g>
		<circle id="_x31__1_" class="st13" cx="738.5" cy="-41.6" r="9.6"/>
		
			<rect x="733.7" y="-45.7" transform="matrix(2.629838e-03 -1 1 2.629838e-03 777.766 697.3679)" class="st16" width="9.6" height="9"/>
		
			<text id="_x31__numbers_1_" transform="matrix(1 2.629909e-03 -2.629909e-03 1 733.0862 -38.9306)" class="st14 st7" style="font-size:9px;">10</text>
	</g>
</g>
	<image style="overflow:visible;" width="160" height="104" id="LOGO" xlink:href="../maps/SR Logos/Oklahoma.png"  transform="matrix(0.4392 0 0 0.4392 838.7281 5.0807)">
	</image>
</svg>
