<?xml version="1.0" encoding="utf-8"?>
<!-- Generator: Adobe Illustrator 23.0.5, SVG Export Plug-In . SVG Version: 6.00 Build 0)  -->
<svg version="1.1" id="Layer" xmlns="http://www.w3.org/2000/svg" xmlns:xlink="http://www.w3.org/1999/xlink" x="0px" y="0px"
	 viewBox="0 0 916.5 699.9" style="enable-background:new 0 0 916.5 699.9;" xml:space="preserve">
<style type="text/css">
	.st0{fill:#F5FBFE;}
	.st1{fill:#DDEEFA;}
	.st2{fill:#255078;}
	.st3{font-family:'Georgia';}
	.st4{font-size:18px;}
	.st5{font-size:16px;}
	.st6{fill:#4C4B4D;}
	.st7{font-family:'ArialMT';}
	.st8{font-size:14px;}
	.st9{fill:#AED9F4;}
	.st10{fill:#CD483B;}
	.st11{fill:#FFFFFF;}
	.st12{font-size:6.2616px;}
	.st13{fill:none;}
	.st14{fill:#4C4B4C;}
	.st15{fill:#DB3029;}
	.st16{font-size:36px;}
</style>
<g id="texts">
	<polygon id="blue_bg" class="st0" points="0,564.8 0,601.8 0,611.4 0,700.2 173.5,700.2 173.5,611.4 915,611.4 915,564.8 	"/>
	<path id="line_bg" class="st1" d="M916.5-0.3H0v90.2v475.3v2v43v2v43v2v43l0,0h579.8l0,0H913l0,0h3.5V-0.3z M913,56.6v508.5H578.4
		l-0.6-0.3v0.3H443.6l-0.6-0.3v0.3H3V56.6H913z M913,567.2v43H579.8v-43H913z M445.1,610.2v-43h132.8v43H445.1z M577.8,612.2v43
		H445.1v-43H577.8z M310.3,610.2v-43h132.8v43H310.3z M443.1,612.2v43H310.3v-43H443.1z M175.5,610.2v-43h132.8v43H175.5z
		 M308.3,612.2v43H175.5v-43H308.3z M173.5,567.2v43H3v-43H173.5z M173.5,612.2v43H3v-43H173.5z M3,657.2h170.5v40H3V657.2z
		 M175.5,657.2h132.8v40H175.5V657.2z M310.3,657.2h132.8v40H310.3V657.2z M445.1,657.2h132.8v40H445.1V657.2z M579.8,612.2H913v85
		H579.8V612.2z"/>
	<text id="title" transform="matrix(1 0 0 1 22.167 35.8372)" class="st2 st3 st4">COVID-19 in Oregon on</text>
	<text id="date" transform="matrix(1 0 0 1 219.4693 35.8372)" class="st2 st3 st4">April 7th, 2020</text>
	<text transform="matrix(1 0 0 1 63.6278 142.4056)" class="st2 st3 st5">State Confirmed Cases By County</text>
	<g>
		<text transform="matrix(1 0 0 1 63.8677 181.0548)" class="st6 st7 st8">Baker  496</text>
		<text transform="matrix(1 0 0 1 63.8677 209.1023)" class="st6 st7 st8">Benton  159</text>
		<text transform="matrix(1 0 0 1 63.8677 237.15)" class="st6 st7 st8">Clackamas  128</text>
		<text transform="matrix(1 0 0 1 63.8677 265.1974)" class="st6 st7 st8">Clatsop  496</text>
		<text transform="matrix(1 0 0 1 63.8677 293.2454)" class="st6 st7 st8">Columbia  159</text>
		<text transform="matrix(1 0 0 1 63.8677 321.293)" class="st6 st7 st8">Coos  10</text>
		<text transform="matrix(1 0 0 1 63.8677 349.341)" class="st6 st7 st8">Crook  496</text>
		<text transform="matrix(1 0 0 1 63.8677 377.3884)" class="st6 st7 st8">Curry  159</text>
		<text transform="matrix(1 0 0 1 63.8677 405.4362)" class="st6 st7 st8">Deschutes  128</text>
		<text transform="matrix(1 0 0 1 63.8678 433.4835)" class="st6 st7 st8">Douglas  496</text>
		<text transform="matrix(1 0 0 1 63.8678 461.5311)" class="st6 st7 st8">Gilliam  159</text>
		<text transform="matrix(1 0 0 1 63.8676 489.5789)" class="st6 st7 st8">Grant  128</text>
		<text transform="matrix(1 0 0 1 189.0677 181.0549)" class="st6 st7 st8">Harney  496</text>
		<text transform="matrix(1 0 0 1 189.0677 209.1025)" class="st6 st7 st8">Hood River  159</text>
		<text transform="matrix(1 0 0 1 189.0677 237.1499)" class="st6 st7 st8">Jackson  128</text>
		<text transform="matrix(1 0 0 1 189.0677 265.1978)" class="st6 st7 st8">Jefferson  496</text>
		<text transform="matrix(1 0 0 1 189.0677 293.2455)" class="st6 st7 st8">Josephine  159</text>
		<text transform="matrix(1 0 0 1 189.0677 321.2929)" class="st6 st7 st8">Klamath  128</text>
		<text transform="matrix(1 0 0 1 189.0677 349.3405)" class="st6 st7 st8">Lake  496</text>
		<text transform="matrix(1 0 0 1 189.0677 377.3882)" class="st6 st7 st8">Lane  159</text>
		<text transform="matrix(1 0 0 1 189.0678 405.4363)" class="st6 st7 st8">Lincoln  128</text>
		<text transform="matrix(1 0 0 1 189.0678 433.4839)" class="st6 st7 st8">Linn  496</text>
		<text transform="matrix(1 0 0 1 189.0677 461.531)" class="st6 st7 st8">Malheur  59</text>
		<text transform="matrix(1 0 0 1 189.0677 489.5786)" class="st6 st7 st8">Marion  10</text>
		<text transform="matrix(1 0 0 1 324.0677 181.0549)" class="st6 st7 st8">Morrow  496</text>
		<text transform="matrix(1 0 0 1 324.0677 209.1022)" class="st6 st7 st8">Multnomah  159</text>
		<text transform="matrix(1 0 0 1 324.0677 237.1503)" class="st6 st7 st8">Polk  128</text>
		<text transform="matrix(1 0 0 1 324.0678 265.1978)" class="st6 st7 st8">Sherman  496</text>
		<text transform="matrix(1 0 0 1 324.0678 293.2455)" class="st6 st7 st8">Tillamook  159</text>
		<text transform="matrix(1 0 0 1 324.0678 321.2932)" class="st6 st7 st8">Umatilla  128</text>
		<text transform="matrix(1 0 0 1 324.0678 349.3409)" class="st6 st7 st8">Union  40</text>
		<text transform="matrix(1 0 0 1 324.0678 377.3882)" class="st6 st7 st8">Wallowa  159</text>
		<text transform="matrix(1 0 0 1 324.0678 405.4361)" class="st6 st7 st8">Wasco  128</text>
		<text transform="matrix(1 0 0 1 324.0678 433.4838)" class="st6 st7 st8">Washington  496</text>
		<text transform="matrix(1 0 0 1 324.0678 461.5316)" class="st6 st7 st8">Wheeler  159</text>
		<text transform="matrix(1 0 0 1 324.0678 489.5789)" class="st6 st7 st8">Yamhill  128</text>
	</g>
</g>
<g id="Counties">
	<path id="wallowa" class="st9" d="M849.1,209.1c-0.1-0.3-0.3-0.6-0.6-1.1c-0.5-0.7-1-1.6-1.3-2.8l-42.4-5.7l-0.2,4.6l8.3,0.6
		l-1.8,6.8l2.5,22.3l1.4,4l3.8,2.9l1.1,9.7l8.5-0.2l0.6,4.9l14.4,2.2c0.7-1.4,1.6-2.7,2.4-3.9c0.3-0.5,0.6-1,0.9-1.5
		c3.1-5,5.7-9.6,9-15.3c0.3-0.5,0.5-0.9,0.6-1.3c0.4-1,0.9-2.1,1.9-3.3c0.6-0.8,1.3-1.3,1.9-1.7s0.7-0.5,0.8-0.7
		c0.7-1.5-0.1-5.8-0.5-7.6l-0.1-0.3c-0.3-1.6-1.3-3.3-2.5-4c-0.4-0.3-1.3-0.5-2.1-0.6c-1.8-0.4-4.4-1-5.9-3.3
		c-0.9-1.4-0.9-2.9-0.9-4C849.1,209.7,849.1,209.2,849.1,209.1z"/>
	<path id="wasco" class="st9" d="M687.5,253.9l-1.6-14.3l-9.7-2.6l-2.4-2.5l-4.3-5.6l-1-9.1l4.1-4.3l2.1-2.4l-1.2-10.8
		c-0.2,0-0.4,0-0.6,0c-4.7-0.4-8.6-2.4-12.4-4.4c-2-1-3.9-2-5.8-2.6c-0.9-0.3-1.9-0.4-3-0.4l0.1,0.3l-1,9.1l-3.8,15.8l-3.4,2.9
		l-7.1-2.9l-1.8,3.2c-0.6,1.5-1.6,4.1-2.4,4.8c-0.2,0.2-0.6,1.5-0.8,2.6l-0.1,0.3l-1.3,2.7l0.7,6.4l1.8-0.2l0.5,4.6L687.5,253.9z"/>
	<path id="wheeler" class="st9" d="M715.4,291l0.2-1.1l4.3-27.6l-0.9-7.6l1.8-3.4c-0.1-0.2-0.2-0.5-0.3-0.7l0,0l-0.2-0.5
		c-0.8-1.8-1.5-3.6-1.9-4.6l-30.2-5.3l2.1,19l-2.6,11.7l1.8,2.6l-2.3,1.8l0.1,2.5l20.1,6.8l0.5,4.8L715.4,291z"/>
	<path id="deschutes" class="st9" d="M636.2,321.8L636.2,321.8l26.7,5.2l35.9,5.2l0.5-2.4l-15.4-2.9l-0.4-3.6l1.5-0.2l-0.5-3.2
		c-0.5-0.3-1-0.8-1.4-1.7c-0.7-1.2-1.5-2.4-1.8-2.9l-4.4-1l-13.6-1.9l-0.3-3l1-2.5c-1.9-0.2-6.7-0.5-9.7-0.7h-0.9l-0.3-3l2.7-7.1
		l-6.2-2.9l1.5-3.8l0.1-6.5l1.3-1.7l-0.2-2.6l-0.6-0.2l-29.9-6.4l1.9,16.7l-4.5,8.1l-6,8.7c-0.6,1.4-2.4,5.4-3.4,6.3
		c-0.1,0.3,0.3,1.8,0.6,2.4c0.2,0.5,0.3,0.9,0.3,1.2c0.1,0.3,0.1,1-1.4,2.9L636.2,321.8z"/>
	<path id="klamath" class="st9" d="M598.8,350.9l-8.2,0.9l-2,3.5l-1.6,8.3l-1.2,9.6c-0.3,1.6-7.2,37.3-7.3,38.1
		c-0.1,0.3-0.3,1-0.7,1.8c20.6,3.5,41.3,6.8,61.9,9.9l7.5-42l-21.6-3.2l10.2-53.7l-28.7-3.7l-4.4,4l-1.8,3.6h0.1l3,4.8l-0.4,8.9
		L598.8,350.9z"/>
	<path id="josephine" class="st9" d="M508.9,400.4c8,1.6,16,3.1,24,4.6l2-6.7l2.2-12.6c0.9-3,1.9-7.5,1.8-8.6l-0.8-7.3l2.4-3.8
		c-0.5-0.3-0.9-0.7-1.1-1.3c-0.2-0.2-1.5-0.9-2.8-1.5h-1.5l-0.7,2.4l-2.2,0.2l-3.9-1.3l-4.9-2.7l-2.5-2.1l-3.3,4.8
		c-0.7,1.5-1.5,3.5-1.5,4c0.1,0.4,0.2,1.3-3.8,4.9l-0.3,0.2l-5,0.6l0.7,6.7l2.9,1.7l0.1,0.6c0.2,1.7,1.2,10,1.2,10.8
		C511.8,394.2,511.8,395,508.9,400.4z"/>
	<path id="multnomah" class="st9" d="M590.6,183.2l-2.6,0.3l-0.4,3.4l0.2,1.3l6.2,6.8l0.6,5.6l36.1,5.6l-1.4-5.3l-1.3-3.1
		c-1.7,0.6-3.3,0.6-4.9,0.7c-0.7,0.1-1.5,0.1-2.3,0.1c-0.8,0.1-1.7,0.2-2.5,0.4c-2.5,0.4-5.3,0.9-7.7,0.3c-1.2-0.3-3.8-1.7-13.2-7
		c-2.4-1.4-5.2-2.9-5.7-3.2c0.1,0.1,1.1,0.5,2.4-0.1l-1.3-2.8l-2.9-0.9l0.5-1.4C590.4,183.8,590.5,183.5,590.6,183.2z"/>
	<path id="crook" class="st9" d="M699.7,327.7l0.2-1.3l4.2,0.8l2.8-15.3l4.6-0.5l3.4-18.2l-9.1-2.1l-0.6-4.9l-20.1-6.8l-0.2-5.2
		l1.5-1.2l-0.6-0.9l-16.8-1.5l-3.3,4.7l-3.3,0.3l-1.3-2.3l-0.5,0.1l-1.9,6.9l-4.5-1.1l0.2,2.7l-1.4,1.8l-0.1,6.2l-0.9,2.2l5.4,2.5
		l0.2,1.9l-2.7,7l0.1,0.6c3,0.2,9.2,0.7,9.9,0.8c0.5,0.1,1,0.5,1.1,0.9c0.3,0.7-0.1,1.5-0.2,1.9l-0.9,2.2l0.1,0.7l12,1.7l5.3,1.1
		l0.2,0.3c0.1,0.1,1.3,1.7,2.3,3.5c0.1,0.2,0.2,0.3,0.2,0.4l1-1l1.4,8.5l-0.6,0.1L699.7,327.7z"/>
	<path id="umatilla" class="st9" d="M745.5,252l25.3,3.8c0.7-1,1.2-2.1,1.1-2.4l-1-9.3l-1.5,0.2l-4-3.9l-0.6-5.8l3.2-3.3l9.1,3.4
		l4.1-2.5l9.4-3.1l1.2-3.1l1.5-6.5l2.2-5.8l6.8-8.9l0.2-5.6l-38.9-5.2c-1.6-0.3-3.8,0-6.1,0.3c-3,0.5-5.7,0.7-8.4,1.1
		c-2.8,0.3-5.7,0.7-8.6,1l-2.6,15.5l8.7,2.5l2.5,3.7l0.7,6.1C749.9,224.8,748.5,234.2,745.5,252z"/>
	<path id="union" class="st9" d="M773.3,256.2l10.5,1.6l1.9-2.7l3.5-0.4l4.5,3.2l20.1,0.3l-0.5-4.4l3.7-0.4l9.6,1.5l-0.2-2.2
		l-8.5,0.2l-1.2-10.8l-3.6-2.7l-1.8-5l-2.6-22.9l1.2-4.6l-6.1-0.5l-6.5,8.5l-1.9,5.2l-1.6,6.7l-1.7,4.2l-10.3,3.4l-4.7,2.9l-8.7-3.3
		l-1.4,1.5l0.5,3.9l2.6,2.6l2.8-0.3l1.3,11.6C774.4,254.1,773.8,255.2,773.3,256.2z"/>
	<path id="baker" class="st9" d="M813.1,303.6l8,1c0.1-0.6,0.2-1.1,0.3-1.7c0.2-0.9,0.4-1.9,0.4-2.8c-0.1-5.2,0.1-8.7,3.2-12.9
		c1.1-1.5,2.1-3.2,3.1-4.9c1.1-1.9,2.2-3.8,3.5-5.6c1.4-1.8,3.2-3.2,4.7-4.3c1.7-1.2,3-2.2,3.9-3.7c0.9-1.6,1-2.5,1.2-4.1
		c0.1-0.9,0.2-2,0.5-3.3c0.1-0.6,0.3-1.1,0.5-1.7l-25.6-4l-1,0.1l0.5,4.8l-23.3-0.4l-4.4-3.1l-1.6,0.2l-1.6,2.3l-2.7,9.3l-0.4,5.7
		l-2.8,5.6l-1.2,5.8l-3.3,3.7l-3.1,2.5l-1.2,3.6l-0.6,3.3l2.4,0.6l7.1,3.2l2.2-0.2l5.4-7.7l1.2-2.9l21.6,1.8l3.7,2.6l1.5,4.9
		L813.1,303.6L813.1,303.6z"/>
	<path id="clackamas" class="st9" d="M586.9,208.9l2.8-0.3l1.9,3.9l-2.2,5.3c0.6,1,1.4,2.4,1.5,3.2c0.2,0.6,2.6,4.9,4.8,8.7l2.8,4.3
		l22.9,7.2l7.1-0.8l-0.8-7.1l1.5-3.2c0.2-1.1,0.7-3,1.5-3.7c0.3-0.3,1.1-2.3,1.8-3.9l0.1-0.2l2.1-3.7l-2.4-5.9l-1.1-4.2l-37.4-5.8
		l-7,4.9L586.9,208.9z"/>
	<path id="hanrey" class="st9" d="M717.9,389.2l-6.4,43.9c17.1,2.2,34,4.3,50.7,6.3l13.9-122.6l-22.9-2.2l-2.5,5.5l-38.1-6.4
		l-3.6,0.4l-2.9,15.8l-4.2-0.8l-11.2,56.8L717.9,389.2z"/>
	<path id="marion" class="st9" d="M584.9,211.4l-2.4,0.3l-2.2,4l-1.1,5.7l-3.3,0.3l-0.7,3.6l-0.1,0.2c0,0.1-2.2,3.3-2.6,4.1
		s-2,3.9-2.1,3.9l-2,5.7v0.1l3.9,1.8l4.2,1h1.7l2.1-2l4.8-0.5l7.9,1.8l5.4,2.5l6.8,2.9c0.2,0.1,5.9,2.2,6.7,2.5
		c0.7,0.3,2.8,1.5,3.6,1.9l9.2,1.3c0.4-2.3,0.9-2.8,1.1-2.9c0.3-0.3,1.8-2.2,3.2-4l-0.3-3l-7.5,0.9l-24.1-7.6l-3.3-5
		c-5-8.6-5-9.3-5.1-9.6s-0.7-1.5-1.5-2.7l-0.3-0.5l2.2-5.5l-0.7-1.5l-1.1,0.1L584.9,211.4z"/>
	<path id="jefferson_1_" class="st9" d="M624.2,263.1c-0.4,2.8-0.7,4.2-1.2,4.8c-0.3,0.3-0.7,1.1-1.1,1.8l30,6.5l5.3,1.3l1.8-6.2
		l3.6-0.4l1.3,2.3l0.7-0.1l3.4-4.9l17.7,1.6l2.5-11l-0.3-2.5l-56.5-9.8l-0.1,0.1c-0.7,1-3,4.1-3.8,4.7c-0.2,0.3-0.5,2.2-0.6,4
		l-0.1,0.3c-0.2,0.4-1.7,4.1-2.1,5C624.5,260.9,624.3,262.2,624.2,263.1z"/>
	<path id="lake" class="st9" d="M638,324.5l-9.7,51.5l21.6,3.2l-7.9,44.2c22.6,3.4,45.1,6.5,67.3,9.4l6.1-41.6l-27.5-3.4l10.5-53.3
		l-35.8-5.2L638,324.5z"/>
	<path id="morrow" class="st9" d="M717.1,198.7c-1.3,0.3-2.4,0.9-3.6,1.4l-0.5,9.2l-0.5,12.4l-2.4,7.8l1.7,1.3l4.9,3.4l2.3,2.4
		l0.1,0.3c0.1,0.6,1.1,6,1.3,7.2l1.8,4.4l21.2,3.2c1.8-10.8,4.3-26.3,4.3-27.3l-0.6-5.4l-1.8-2.5l-9.9-2.9l2.9-16.9
		c-0.9,0.1-1.9,0.2-2.9,0.2c-1.5,0.1-3,0.2-4.4,0.2C726,197.3,721.4,197.5,717.1,198.7z"/>
	<path id="hoodriver" class="st9" d="M639.1,194.4c-0.9-0.2-1.7-0.5-2.7-0.6c-2.2-0.5-2.2-0.5-3.8,1c-0.3,0.3-0.7,0.6-1.1,1
		c-0.5,0.5-1,0.7-1.5,1.1l1.4,3.3l3.2,11.9l2.3,5.8l6.2,2.6l1.8-1.5l3.6-15l1-8.8V195c-0.2,0-0.5,0.1-0.7,0.1
		c-0.7,0.1-1.4,0.1-2.2,0.2C643.5,195.5,641.3,194.9,639.1,194.4z"/>
	<polygon id="grant_1_" class="st9" points="749.3,317.5 751.7,312 776.3,314.4 776.5,307 777.9,304.5 771.6,301.7 767.5,300.7 
		768.5,295 770,290.8 773.5,287.9 776.2,284.9 777.4,279.3 780,274 780.5,268.4 782.9,260 723.2,250.9 723.4,251.4 721.3,255.1 
		722.1,262.5 717.8,290.3 713.8,311.6 	"/>
	<path id="sherman" class="st9" d="M687.2,219.4l1.1-2.8l3.2-2.2l4.4-1.3l-0.1-1.3l-0.8,0.1l-1.8-2.5l-0.4-3.4l-1.9-3.4l-0.2-1.5
		c-1-0.4-2-0.9-3.2-1.5c-0.2-0.1-0.3-0.2-0.5-0.2l0.7,2.1l-4.2-0.1c-1.2,0-2.6,0.2-4.1,0.4c-1.1,0.2-2.4,0.3-3.6,0.4l1.3,11.6
		l-2.9,3.2l-3.3,3.6l0.9,7.5l3.8,5l1.9,2l8.2,2.2l-0.3-2.8l0.5-0.4c0.5-0.3,1-0.9,1.1-1.1l-0.2-2.1l-1.4,0.2l-0.9-4.8l1.7-2.8
		L687.2,219.4z"/>
	<path id="malheur" class="st9" d="M813.4,445.1l15-112.2l4.5-19.1c-0.5-1.7-0.7-1.7-2.9-1.7c-0.8,0-1.8-0.1-3-0.2
		c-2.4-0.2-4-1-5-2.4c-0.6-0.8-0.9-1.7-1-2.5l-9.4-1.1l-1.4-2.5l2.5-2.6l-0.9-2.8l-2.6-1.8l-19.4-1.7l-0.7,1.7l-6.1,8.6l-3,0.3
		l-1.4,2.5l-0.3,9.3h-0.1l-13.9,122.7C781,441.5,797.4,443.4,813.4,445.1z"/>
	<path id="gilliam" class="st9" d="M716.9,237.6l-1.7-1.8l-4.6-3.3l-2.9-2.4l2.8-9.2l0.4-12l0.4-8c-0.5,0.2-1.1,0.5-1.7,0.6
		c-2.8,0.9-6,0.8-8.8,0.6c-1-0.1-2-0.1-2.9-0.1c-1.9,0.1-3.5-0.1-4.9-0.3v0.1l1.9,3.4l0.3,3.3l0.6,0.9l1.7-0.2l0.6,5.4l-6,1.8
		l-2.2,1.5l-0.8,2l-1.3,4.6l-1.3,2.1l0.3,1.8l1.6-0.2l0.5,4.4c0.1,1-0.7,1.9-1.5,2.6l0.3,2.4l29.9,5.2
		C717.6,241.5,717.2,239.4,716.9,237.6z"/>
	<path id="clatsop" class="st9" d="M544.7,167.4l22.4,5.2l5.5-16.7l0.1-1c-1.3-0.5-2.4-1.3-3.4-2.1l-0.6-0.5l-0.3-0.8
		c-0.3-1-0.6-2-0.8-3c-0.2-0.7-0.3-1.7-0.6-2.3l-4.5,0.9l-0.6-3c-0.2,0.5-0.6,1.1-1.6,1.8c-1.4,1.1-3.7,2.1-5.3,2.5
		c-2.5,0.6-3.6,0.6-5.2,2.6c-1.5,1.8-1.3,3.3-1.9,5.4s-1.9,4-2.4,6s-0.9,4-1.1,6.1l0,0L544.7,167.4z"/>
	<path id="douglas" class="st9" d="M510.4,301.2l6,1.7l4.1,0.9l3.9,1.8l2.9,5.4l1,9.6l-2.1,19.3l-0.4,0.3c-0.8,0.6-3.2,2.3-4,3.3
		c-0.7,1-1.2,3.3-1.3,4l-0.1,0.3l-2.2,4.6l0.1,2.5l3.8,2.8l-0.1,0.1l2.6,2.2l4.5,2.5l3.2,1l0.3-0.1l0.8-2.5l3.7-0.1l0.2,0.1
		c3.7,1.6,4,2.5,4.2,2.8c0.1,0.1,0.3,0.3,0.6,0.5l3-1.9l5.8-0.9l9.6,2.3l3-0.3l14.8-9.9l5.6-1.5l3.2,1.4l2.2-3.7l8.1-0.9l4.1-7.7
		l0.3-7.7l-2.1-3.4l-13.4-2.3l-13.9-2.1l-3-5.9l2-0.2l-0.1-0.9l-15-3.6l-1.9-5.7l2.4-7.7l-3.9-0.9l-5.3,0.6l-5-3.2l-4.6-5l-2.2-4.9
		l-2.5-1l-4-0.9c-1.4,1-3,2.2-3.4,2.6c-0.7,0.9-2.6,1.2-5.8,1h-0.2l-7.7-1.8l0.2-1.1l0,0c-2,4.2-2.7,8.5-4.6,12.8
		c-0.1,0.2-0.2,0.4-0.3,0.6L510.4,301.2z"/>
	<path id="coos" class="st9" d="M493.7,339.8l6.5,2.4l2.9,2.8l0.5,4.5l-1.9,1.8l0.6,5.3l-1.4,2.9l1.3,1.4l5.3-0.6l4.5-4.3l4.2-1.1
		l-0.1-2.7l2.4-5c0.1-0.7,0.6-3.5,1.8-4.9c1-1.2,3.1-2.8,4.1-3.5l1.9-18.2l-1-8.8l-2.4-4.4l-3.1-1.4l-3.8-0.8l-6.1-1.7l-2.9-0.9
		l0.3-1.2c-1.6,3.3-3.4,6.4-5.2,9.6c-1.9,3.4-3.4,7.3-4.8,10.8c-0.7,1.8-1.8,3.4-2.7,5.2c-1.8,3.5-2.8,7.2-4.8,10.7l-0.1,0.1
		L493.7,339.8z"/>
	<path id="lane" class="st9" d="M520.5,287.6c1.7,0.1,3.5,0,3.9-0.2c0.6-0.9,3.6-2.9,4.2-3.2l0.4-0.3l5.2,1.1l3.4,1.3l2.5,5.6
		l4.2,4.5l4,2.5l5.1-0.5l6.5,1.5l-2.9,9.3l1.3,3.8l15.3,3.7l0.5,4.8l-1,0.1l1,1.9l12.8,1.9l12,2.1l2.2-4.6l5.1-4.6
		c0.9-1,1.8-2.3,2-2.8c-0.1-0.2-0.1-0.4-0.2-0.6c-0.5-1.5-1.1-3.6,0.1-4.8c0.5-0.5,1.9-3.3,2.9-5.7l0.1-0.2l6-8.7l4-7.5l-0.7-6.8
		l-4.7-2.2l-9.6-1.7l-6.9,1.8l-1.4,2l-2.8,0.3l-6.5-4.9l-3.6,0.4l-5.4-4.8l-5.3,1l-2.6,3.6l-11.9-2.2l-0.3-5.8l0.7-0.1l-0.1-0.1
		l-2.6,0.3l-9.9-0.9l-12.5-3.5l-14.7-3c-0.1,0.3-0.1,0.5-0.1,0.8c-0.6,4.3-3.2,7.9-4,12c-0.7,3.9-1.5,7.7-3.2,11.4L520.5,287.6z"/>
	<path id="tittamook" class="st9" d="M543.9,217.7l-1.3-1l0.8-12l13.4,4l1-9.1l3.4-4.8l1.4-6.1l2.8-6l2.4-1.7l-0.6-6l-22.9-5.3
		c-0.2,1.6-0.2,3.2-0.5,4.9c-0.6,4-2.5,7.6-3.3,11.5c-0.3,1.4-0.1,2.9-0.4,4.4c-0.3,1.6-1.4,3.4-1.7,4.9c-0.4,2,0,4.2-0.6,6.4
		c-0.6,2.1-1.3,4.2-2.1,6.2c-1.1,2.9-2.2,5.6-3.2,8.5L543.9,217.7z"/>
	<path id="lincoln_1_" class="st9" d="M520.7,259.4l12.9,2.7l3.4-4.4l6.1-2.8l2.6-14.1l-4.6-2.3l2.9-17l0.7-1.4l-12.7-1.5l0.1-1.1
		c-0.2,0.7-0.5,1.4-0.7,2.1c-2.2,7.1-4.6,13.6-6.4,20.8c-1.7,6.7-3.6,13.2-4.6,20L520.7,259.4z"/>
	<path id="curry" class="st9" d="M489.1,396.5c0.9,1.3,1,2.2,1,3.2l0.6-3c5.3,1.1,10.5,2.2,15.9,3.2l0.2-0.5c1.3-2.2,2.6-5,2.8-5.6
		c0-0.4-0.7-6.1-1.1-9.9l-2.9-1.7l-1.1-10.1l6.5-0.7c1.2-1.1,2.5-2.5,2.8-3c0.1-0.8,0.6-2.5,1.8-4.9l0.1-0.2l3.4-5l-2-1.5l-4,1.1
		l-4.6,4.5l-7.2,0.8l-3.1-3.3l1.8-3.7l-0.6-5.8l1.9-1.8L501,346l-1.9-1.8l-6.2-2.3l-4.4-2.3l0.5-1c-0.7,0.7-1.5,1.4-1.9,2.4
		c-0.6,1.2-1.4,2.5-1.8,3.8c-0.7,2.2-0.2,5.4-0.2,7.7c0,2.6-0.1,5.3-0.3,7.9c-0.3,4,1,8,1,12.2c0.1,2.1-0.6,3.8-0.5,6
		c0,2.5-0.9,4.3-1.1,6.6c-0.2,1.5,0.2,5.3,0.7,6.6C485.5,393.8,487.9,394.7,489.1,396.5z"/>
	<polygon id="washington_1_" class="st9" points="570.3,181.9 567.3,184 564.8,189.3 563.7,194.4 568.2,196.1 578.2,198 
		580.8,202.1 585.6,205.7 592.3,201.1 591.8,196 585.6,189.2 585.3,186.8 585.8,182.7 583.2,178.7 569.6,175.5 	"/>
	<path id="jackson_1_" class="st9" d="M579,355.7l-14.7,9.9l-4.2,0.4l-9.3-2.2l-4.9,0.8l-3,1.9l-2.5,3.9l0.7,6.5
		c0.2,1.9-1.5,8.1-1.9,9.3l-2.2,12.6l-1.9,6.7c13.4,2.5,26.8,4.9,40.3,7.2c0.4-0.9,0.7-1.7,0.8-1.9c0.1-0.6,4.9-25.1,7.3-38l1.2-9.6
		l1.5-7.6l-2.6-1.1L579,355.7z"/>
	<polygon id="yamhill" class="st9" points="560.1,200.2 558.8,211.4 545.5,207.5 545,215.6 546.1,216.5 547.2,216.2 575,219.5 
		577.4,219.3 578.3,214.8 581.2,209.6 584.7,209.2 584.5,207.7 579,203.5 576.8,200 567.6,198.3 562.7,196.4 	"/>
	<path id="polk" class="st9" d="M547.4,239l10.7,1.1l8.4,1.7l-0.3-2.8l2.2-6.3c0.1-0.3,1.7-3.3,2.2-4.2c0.4-0.7,2.1-3.3,2.6-4
		l0.5-2.8l-26.3-3.2l-0.3,0.1l0.2,1.7v0.1l0,0l-1.1,2l-2.5,14.7L547.4,239z"/>
	<polygon id="benton" class="st9" points="538.5,259.5 536.1,262.6 548,266 557.4,266.8 559.1,266.7 559.8,255.9 560.6,251.9 
		568.2,247.7 566.9,245.9 566.8,244.1 557.7,242.3 548,241.3 545.1,256.4 	"/>
	<path id="columbia" class="st9" d="M584.6,176.6l3,4.6l3.8-0.5c0.3-1.1,0.6-2.2,0.7-3.3c0.1-2.1-0.5-4.4-1-6.7
		c-0.4-1.7-0.9-3.6-1-5.4c-0.2-1.7-0.5-3.8-1-4.7l-0.2-0.4l-0.1-0.5c-0.6-2.1-1.8-4.2-6.5-4.5l-0.5-0.1c-1.9-0.4-3.1-0.3-5.2,0
		c-0.5,0.1-1,0.1-1.5,0.1l-0.2,1.1l-5.5,16.6L584.6,176.6z"/>
	<path id="linn" class="st9" d="M572.7,271.4l7.3-1.4l5.5,4.8l3.5-0.4l6.5,4.9l0.8-0.1l1.3-1.9l8.2-2.1l10.5,1.9l3.6,1.7l-1-8.5
		l0.2-0.3c0.1-0.3,1.3-2.6,2.1-3.5c0.2-0.4,0.6-2.6,0.7-3.7c0.3-1.8,0.4-2.7,0.7-3.2c0.3-0.6,1.3-3,1.9-4.6c0-0.1,0-0.1,0-0.2
		l-9.7-1.4l-0.2-0.1c-1-0.6-2.9-1.7-3.4-1.9c-0.8-0.3-6.7-2.5-6.7-2.5l-6.8-2.9l-5.3-2.4l-7.4-1.7l-3.5,0.4l-2.2,2.1l-2.9-0.1
		l-4.7-1.1l-2.8-1.3l0.3,3.1l2.4,3.4l-8.9,4.9l-0.6,2.8l-0.7,11l4.2,3.4l-3.9,0.5l0.1,1.9l8.7,1.7L572.7,271.4z"/>
</g>
<g id="balls_1_">
	<circle id="malheur_circle" class="st10" cx="798" cy="372.2" r="6.1"/>
	<text id="malheur_numbers" transform="matrix(0.986 2.629912e-03 -2.593122e-03 1 796.3841 374.4973)" class="st11 st7 st12">1</text>
	<circle id="hanrey_circle" class="st10" cx="739.4" cy="375.4" r="6.1"/>
	<text id="hanrey_numbers" transform="matrix(0.986 2.629912e-03 -2.593122e-03 1 737.689 377.624)" class="st11 st7 st12">1</text>
	<circle id="lake_circle" class="st10" cx="670.6" cy="383.9" r="6.1"/>
	<text id="lake_numbers" transform="matrix(0.986 2.629912e-03 -2.593122e-03 1 668.9799 386.1635)" class="st11 st7 st12">1</text>
	<circle id="klamath_circle" class="st10" cx="611.1" cy="387.2" r="6.1"/>
	<text id="klamath_numbers" transform="matrix(0.986 2.629912e-03 -2.593122e-03 1 609.3948 389.4381)" class="st11 st7 st12">1</text>
	<circle id="jackson_circle" class="st10" cx="561.4" cy="388.3" r="6.1"/>
	<text id="jackson_numbers" transform="matrix(0.986 2.629912e-03 -2.593122e-03 1 559.7049 390.624)" class="st11 st7 st12">1</text>
	<circle id="josephine_circle" class="st10" cx="523.8" cy="383.6" r="6.1"/>
	<text id="josephine_numbers" transform="matrix(0.986 2.629912e-03 -2.593122e-03 1 522.088 385.8732)" class="st11 st7 st12">1</text>
	<circle id="curry_circle" class="st10" cx="495.8" cy="375.4" r="6.1"/>
	<text id="curry_numbers" transform="matrix(0.986 2.629912e-03 -2.593122e-03 1 494.1376 377.6228)" class="st11 st7 st12">1</text>
	<circle id="coos_circle" class="st10" cx="510.4" cy="330.3" r="6.1"/>
	<text id="coos_numbers" transform="matrix(0.986 2.629912e-03 -2.593122e-03 1 508.7077 332.5491)" class="st11 st7 st12">1</text>
	<circle id="douglas_circle" class="st10" cx="549.9" cy="338.6" r="6.1"/>
	<text id="douglas_numbers" transform="matrix(0.986 2.629912e-03 -2.593122e-03 1 548.2293 340.8733)" class="st11 st7 st12">1</text>
	<circle id="crook_circle" class="st10" cx="683.4" cy="298.4" r="6.1"/>
	<text id="crook_numbers" transform="matrix(0.986 2.629912e-03 -2.593122e-03 1 681.7398 300.6471)" class="st11 st7 st12">1</text>
	<circle id="deschutes_circle" class="st10" cx="638" cy="304.5" r="6.1"/>
	<text id="deschutes_numbers" transform="matrix(0.986 2.629912e-03 -2.593122e-03 1 636.3682 306.7473)" class="st11 st7 st12">1</text>
	<circle id="lane_circle" class="st10" cx="574.1" cy="294.7" r="6.1"/>
	<text id="lane_numbers" transform="matrix(0.986 2.629912e-03 -2.593122e-03 1 572.4106 296.9937)" class="st11 st7 st12">1</text>
	<circle id="baker_circle" class="st10" cx="806.3" cy="277.5" r="6.1"/>
	<text id="baker_numbers" transform="matrix(0.986 2.629912e-03 -2.593122e-03 1 804.5897 279.7734)" class="st11 st7 st12">1</text>
	<circle id="grant_circle" class="st10" cx="745.5" cy="286.3" r="6.1"/>
	<text id="grant_numbers" transform="matrix(0.986 2.629912e-03 -2.593122e-03 1 743.7891 288.5732)" class="st11 st7 st12">1</text>
	<circle id="wheeler_circle" class="st10" cx="703.9" cy="263.8" r="6.1"/>
	<text id="wheeler_numbers" transform="matrix(0.986 2.629912e-03 -2.593122e-03 1 702.2037 266.0374)" class="st11 st7 st12">1</text>
	<circle id="jefferson_circle" class="st10" cx="652.6" cy="262.1" r="6.1"/>
	<text id="jefferson_numbers" transform="matrix(0.986 2.629912e-03 -2.593122e-03 1 650.9684 264.3734)" class="st11 st7 st12">1</text>
	<circle id="linn_circle" class="st10" cx="592.1" cy="261.4" r="6.1"/>
	<text id="linn_numbers" transform="matrix(0.986 2.629912e-03 -2.593122e-03 1 590.4503 263.6734)" class="st11 st7 st12">1</text>
	<circle id="benton_circle" class="st10" cx="552.2" cy="254.7" r="6.1"/>
	<text id="benton_numbers" transform="matrix(0.986 2.629912e-03 -2.593122e-03 1 550.5259 256.9975)" class="st11 st7 st12">1</text>
	<circle id="wallowa_circle" class="st10" cx="835.8" cy="229.6" r="6.1"/>
	<text id="wallowa_numbers" transform="matrix(0.986 2.629912e-03 -2.593122e-03 1 834.1184 231.8836)" class="st11 st7 st12">1</text>
	<circle id="union_circle" class="st10" cx="796.8" cy="242.8" r="6.1"/>
	<text id="union_numbers" transform="matrix(0.986 2.629912e-03 -2.593122e-03 1 795.1396 245.0732)" class="st11 st7 st12">1</text>
	<circle id="umatilla_circle" class="st10" cx="767.1" cy="219.4" r="6.1"/>
	<text id="umatilla_numbers" transform="matrix(0.986 2.629912e-03 -2.593122e-03 1 765.413 221.6417)" class="st11 st7 st12">1</text>
	<circle id="morrow_circle" class="st10" cx="728.9" cy="227.3" r="6.1"/>
	<text id="morrow_numbers" transform="matrix(0.986 2.629912e-03 -2.593122e-03 1 727.191 229.6101)" class="st11 st7 st12">1</text>
	<circle id="gilliam_circle" class="st10" cx="699.5" cy="223.7" r="6.1"/>
	<text id="gilliam_numbers" transform="matrix(0.986 2.629912e-03 -2.593122e-03 1 697.8573 226.0128)" class="st11 st7 st12">1</text>
	<circle id="sherman_circle" class="st10" cx="680.9" cy="218.8" r="6.1"/>
	<text id="sherman_numbers" transform="matrix(0.986 2.629912e-03 -2.593122e-03 1 679.1913 221.0494)" class="st11 st7 st12">1</text>
	<circle id="wasco_circle" class="st10" cx="656" cy="231.5" r="6.1"/>
	<text id="wasco_numbers" transform="matrix(0.986 2.629912e-03 -2.593122e-03 1 654.3602 233.7997)" class="st11 st7 st12">1</text>
	<circle id="marion_circle" class="st10" cx="587.9" cy="233.8" r="6.1"/>
	<text id="marion_numbers" transform="matrix(0.986 2.629912e-03 -2.593122e-03 1 586.2386 236.0736)" class="st11 st7 st12">1</text>
	<circle id="clackamas_circle" class="st10" cx="611.7" cy="220.9" r="6.1"/>
	<text id="clackamas_numbers" transform="matrix(0.986 2.629912e-03 -2.593122e-03 1 610.0888 223.1234)" class="st11 st7 st12">1</text>
	<circle id="polk_circle" class="st10" cx="557.1" cy="229.7" r="6.1"/>
	<text id="polk_numbers" transform="matrix(0.986 2.629912e-03 -2.593122e-03 1 555.3956 231.9493)" class="st11 st7 st12">1</text>
	<circle id="lincoln_circle" class="st10" cx="533.1" cy="244.9" r="6.1"/>
	<text id="lincoln_numbers" transform="matrix(0.986 2.629912e-03 -2.593122e-03 1 531.3873 247.1251)" class="st11 st7 st12">1</text>
	<circle id="hoodriver_circle" class="st10" cx="639.8" cy="205.6" r="6.1"/>
	<text id="hoodriver_numbers" transform="matrix(0.986 2.629912e-03 -2.593122e-03 1 638.0895 207.8733)" class="st11 st7 st12">1</text>
	<circle id="yamhill_circle" class="st10" cx="567.8" cy="207.9" r="6.1"/>
	<text id="yamhill_numbers" transform="matrix(0.986 2.629912e-03 -2.593122e-03 1 566.1385 210.2234)" class="st11 st7 st12">1</text>
	<circle id="multnomah_circle" class="st10" cx="609.1" cy="199.5" r="6.1"/>
	<text id="multnomah_numbers" transform="matrix(0.986 2.629912e-03 -2.593122e-03 1 607.4889 201.7736)" class="st11 st7 st12">1</text>
	<circle id="washington_circle" class="st10" cx="577.8" cy="190.1" r="6.1"/>
	<text id="washington_numbers" transform="matrix(0.986 2.629912e-03 -2.593122e-03 1 576.1682 192.4009)" class="st11 st7 st12">1</text>
	<circle id="tittamook_circle" class="st10" cx="549.9" cy="190.7" r="6.1"/>
	<text id="tittamook_numbers" transform="matrix(0.986 2.629912e-03 -2.593122e-03 1 548.229 192.9939)" class="st11 st7 st12">1</text>
	<circle id="columbia_circle" class="st10" cx="581.3" cy="166.9" r="6.1"/>
	<text id="columbia_numbers" transform="matrix(0.986 2.629912e-03 -2.593122e-03 1 579.6347 169.1971)" class="st11 st7 st12">1</text>
	<circle id="clatsop_circle" class="st10" cx="560.2" cy="159.3" r="6.1"/>
	<text id="clatsop_numbers" transform="matrix(0.986 2.629912e-03 -2.593122e-03 1 558.5195 161.5865)" class="st11 st7 st12">1</text>
</g>
<g id="TYPES_1_">
	<g>
		<circle id="_x34__1_" class="st10" cx="872.2" cy="-44.4" r="31.1"/>
		
			<text id="_x34__numbers_1_" transform="matrix(1 2.629882e-03 -2.629882e-03 1 843.2851 -37.4341)" class="st11 st7" style="font-size:18.4906px;">10,000</text>
	</g>
	<g>
		<circle id="_x33__1_" class="st10" cx="798.6" cy="-43.1" r="22.4"/>
		
			<text id="_x33__numbers_1_" transform="matrix(1 2.629890e-03 -2.629890e-03 1 778.2456 -37.4596)" class="st11 st7" style="font-size:16.0252px;">1,000</text>
	</g>
	<g>
		<circle id="_x32__1_" class="st10" cx="737.6" cy="-42" r="15.3"/>
		
			<text id="_x32__numbers_1_" transform="matrix(1 2.629873e-03 -2.629873e-03 1 724.5415 -36.4359)" class="st11 st7" style="font-size:14.7925px;">100</text>
	</g>
	<g>
		<circle id="_x31__2_" class="st10" cx="642.6" cy="-40.8" r="8.9"/>
		
			<text id="_x31__numbers_2_" transform="matrix(1 2.629909e-03 -2.629909e-03 1 640.0416 -37.1715)" class="st11 st7" style="font-size:9.0661px;">1</text>
	</g>
	<g>
		<circle id="_x31__1_" class="st10" cx="687" cy="-40.8" r="11.8"/>
		
			<rect x="681" y="-45.8" transform="matrix(2.629838e-03 -1 1 2.629838e-03 725.3483 646.6929)" class="st13" width="11.8" height="11.1"/>
		
			<text id="_x31__numbers_1_" transform="matrix(1 2.629863e-03 -2.629863e-03 1 680.3658 -37.3198)" class="st11 st7" style="font-size:11.0944px;">10</text>
	</g>
</g>
<g id="table_data">
	<text transform="matrix(1 0 0 1 22.167 636.069)" class="st2 st7 st8">Confirmed Cases</text>
	<text transform="matrix(1 0 0 1 22.167 680.0006)" class="st2 st7 st8">Deaths</text>
	<text id="current_date" transform="matrix(1 0 0 1 205.6966 591.7867)" class="st2 st7 st8">6 Apr. 2020</text>
	<text id="previous_date" transform="matrix(1 0 0 1 340.4748 591.7867)" class="st2 st7 st8">5 Apr. 2020</text>
	<text id="growth_rate__x25_" transform="matrix(1 0 0 1 459.543 591.7867)" class="st2 st7 st8">Growth Rate %</text>
	<text transform="matrix(1 0 0 1 674.818 591.7867)" class="st2 st7 st8">Total Confirmed Cases</text>
	<text id="current_сases" transform="matrix(1 0 0 1 228.5522 639.8209)" class="st14 st7 st5">783</text>
	<text id="previous_deaths" transform="matrix(1 0 0 1 371.2653 684.3004)" class="st14 st7 st5">14</text>
	<text id="current_deaths" transform="matrix(1 0 0 1 232.0725 683.3207)" class="st14 st7 st5">15</text>
	<text id="total_cases" transform="matrix(1 0 0 1 733.2673 668.9641)" class="st15 st7 st16">783</text>
	<text id="previous_сases" transform="matrix(1 0 0 1 363.3525 639.8209)" class="st14 st7 st5">673</text>
	<text id="cases_growth_rate" transform="matrix(1 0 0 1 493.2656 641.3572)" class="st14 st7 st5">16 %</text>
	<text id="death_growth_rate" transform="matrix(1 0 0 1 497.6649 685.8364)" class="st14 st7 st5">7 %</text>
</g>
</svg>
