<?xml version="1.0" encoding="utf-8"?>
<!-- Generator: Adobe Illustrator 23.0.5, SVG Export Plug-In . SVG Version: 6.00 Build 0)  -->
<svg version="1.1" id="Layer_1" xmlns="http://www.w3.org/2000/svg" xmlns:xlink="http://www.w3.org/1999/xlink" x="0px" y="0px"
	 viewBox="0 0 916.5 609.2" style="enable-background:new 0 0 916.5 609.2;" xml:space="preserve">
<style type="text/css">
	.st0{fill:#F5FBFE;}
	.st1{fill:#DDEEFA;}
	.st2{fill:#255078;}
	.st3{font-family:'Georgia';}
	.st4{font-size:18px;}
	.st5{font-size:16px;}
	.st6{fill:#4C4B4D;}
	.st7{font-family:'ArialMT';}
	.st8{font-size:14px;}
	.st9{fill:#CD483B;}
	.st10{fill:none;}
	.st11{fill:#ADD8F3;}
	.st12{fill:#FFFFFF;}
	.st13{font-size:7.0557px;}
	.st14{fill:#4C4B4C;}
	.st15{fill:#DB3029;}
	.st16{font-size:36px;}
</style>
<g id="Texts">
	<polygon id="blue_bg" class="st0" points="0,473.8 0,510.8 0,520.4 0,609.2 173.5,609.2 173.5,520.4 915,520.4 915,473.8 	"/>
	<path id="line_bg" class="st1" d="M916.5,0H0l0,0v474.4v2v42.9v2v42.9v2v42.9l0,0h579.8l0,0H913l0,0h3.5V0z M913,56.8v417.6H578.4
		l-0.6-0.3v0.3H443.6l-0.6-0.3v0.3H3V56.8H913z M913,476.4v42.9H579.8v-42.9H913z M445.1,519.4v-42.9h132.8v42.9H445.1z
		 M577.8,521.4v42.9H445.1v-42.9H577.8z M310.3,519.4v-42.9h132.8v42.9H310.3z M443.1,521.4v42.9H310.3v-42.9H443.1z M175.5,519.4
		v-42.9h132.8v42.9H175.5z M308.3,521.4v42.9H175.5v-42.9H308.3z M173.5,476.4v42.9H3v-42.9H173.5z M173.5,521.4v42.9H3v-42.9H173.5
		z M3,566.3h170.5v39.9H3V566.3z M175.5,566.3h132.8v39.9H175.5V566.3z M310.3,566.3h132.8v39.9H310.3V566.3z M445.1,566.3h132.8
		v39.9H445.1V566.3z M579.8,521.4H913v84.8H579.8V521.4z"/>
	<text id="title" transform="matrix(1 0 0 1 32.8483 35.8371)" class="st2 st3 st4">COVID-19 in Vermont on</text>
	<text id="date" transform="matrix(1 0 0 1 239.4693 35.8371)" class="st2 st3 st4">April 27th, 2020</text>
	<text transform="matrix(1 0 0 1 145.4547 158.1714)" class="st2 st3 st5">State Confirmed Cases By County</text>
	<g>
		<text transform="matrix(1 0 0 1 145.4551 197.837)" class="st6 st7 st8">Addison  15</text>
		<text transform="matrix(1 0 0 1 145.4549 224.6986)" class="st6 st7 st8">Bennington  13</text>
		<text transform="matrix(1 0 0 1 145.4549 251.5605)" class="st6 st7 st8">Caledonia  9</text>
		<text transform="matrix(1 0 0 1 145.4549 278.4223)" class="st6 st7 st8">Chittenden  6</text>
		<text transform="matrix(1 0 0 1 145.4549 305.2837)" class="st6 st7 st8">Essex  6</text>
		<text transform="matrix(1 0 0 1 145.4549 332.1454)" class="st6 st7 st8">Franklin  10</text>
		<text transform="matrix(1 0 0 1 145.4549 359.0068)" class="st6 st7 st8">Grand Isle  4</text>
		<text transform="matrix(1 0 0 1 291.0149 197.8373)" class="st6 st7 st8">Lamoille  3</text>
		<text id="Yuma_53_x09__1_" transform="matrix(1 0 0 1 291.0148 224.699)" class="st6 st7 st8">Orange  9</text>
		<text transform="matrix(1 0 0 1 291.0148 251.5607)" class="st6 st7 st8">Orleans  549</text>
		<text transform="matrix(1 0 0 1 291.0146 278.4221)" class="st6 st7 st8">Rutland  448</text>
		<text transform="matrix(1 0 0 1 291.0146 305.2835)" class="st6 st7 st8">Washington  263</text>
		<text transform="matrix(1 0 0 1 291.0146 332.1456)" class="st6 st7 st8">Windham  18</text>
		<text transform="matrix(1 0 0 1 291.0146 359.0074)" class="st6 st7 st8">Windsor  11</text>
	</g>
</g>
<g id="TYPES_1_">
	<g>
		<circle id="_x34__1_" class="st9" cx="889.4" cy="-50.4" r="31.3"/>
		
			<text id="_x34__numbers_1_" transform="matrix(1 2.629873e-03 -2.629873e-03 1 860.2356 -43.3786)" class="st12 st7" style="font-size:18.6384px;">10,000</text>
	</g>
	<g>
		<circle id="_x33__1_" class="st9" cx="815.2" cy="-49.2" r="22.6"/>
		
			<text id="_x33__numbers_1_" transform="matrix(1 2.629881e-03 -2.629881e-03 1 794.6736 -43.4045)" class="st12 st7" style="font-size:16.1533px;">1,000</text>
	</g>
	<g>
		<circle id="_x32__1_" class="st9" cx="753.7" cy="-48" r="15.4"/>
		
			<text id="_x32__numbers_1_" transform="matrix(1 2.629863e-03 -2.629863e-03 1 740.5408 -42.3722)" class="st12 st7" style="font-size:14.9107px;">100</text>
	</g>
	<g>
		<circle id="_x31__2_" class="st9" cx="657.9" cy="-46.8" r="8.9"/>
		
			<text id="_x31__numbers_2_" transform="matrix(1 2.629900e-03 -2.629900e-03 1 655.368 -43.1139)" class="st12 st7" style="font-size:9.1385px;">1</text>
	</g>
	<g>
		<circle id="_x31__1_" class="st9" cx="702.6" cy="-46.8" r="11.9"/>
		
			<rect x="696.6" y="-51.9" transform="matrix(2.629838e-03 -1 1 2.629838e-03 746.9717 656.3936)" class="st10" width="11.9" height="11.2"/>
		
			<text id="_x31__numbers_1_" transform="matrix(1 2.629854e-03 -2.629854e-03 1 696.0136 -43.2633)" class="st12 st7" style="font-size:11.183px;">10</text>
	</g>
</g>
<g id="Counties">
	<path id="washington_1_" class="st11" d="M653.9,224.9l1,2.2l6.1,1.8l14.8,7.3l3.2,2.8h5.6c0.4-1.1,0.8-2.2,1.3-2.8
		c0.4-1.1,1.1-8.1,1.2-13.9l0.1-1.1l6.9-5.5l12.6-7l3.3-7.8V190l2.1-4.3v-4.3c-1.5-0.9-3.1-1.7-3.8-1.9c-1.2,0.4-3.8,0.1-13.7-4.5
		h-0.3l-1.3,3.2l-5.4,9.4l-10.1,7l-8.8-2.3l-5.8-3.1H659V201l-2.8,6.1v4.2h2.8v9.9L653.9,224.9z"/>
	<path id="bennington" class="st11" d="M692.5,369.4l2.3-16.8l-3.9-2.6l-30.4,5.5l12.7,47.9V421l20.9-2.1l7.5-1.7l-3.1-6.9V404
		h-11.9l0.3-2.8c0.4-3.8,0.6-8.2,0.6-10.6c-1.8,0-3.9-0.1-5-0.1l-3.3-0.1l4.8-14.6L692.5,369.4z"/>
	<path id="windsor" class="st11" d="M678.4,259l-3.8,5.3l-2.2,1.1h7.4v6l2.6,1.1l17.8,15.6l-6,58l4.1,2.8h16l4.8-4.1h6.3
		c-0.1-1.1-0.1-2.1-0.1-3.3c0.1-2.1,0.6-3.8,1.1-5.4c0.6-2.1,0.8-3.1,0.5-3.8l-0.4-1l-1.2-36.7l6.6-26.9L678.4,259z"/>
	<polygon id="rutland" class="st11" points="632.2,298.5 632.1,300 628.2,308.8 633.5,313.1 649.9,315.9 659.2,350.6 689.1,345.1 
		694.8,290.2 679.3,276.7 674.6,274.9 674.6,270.5 671.6,270.5 668.9,275.1 668.9,279.1 643,279.1 639.5,283.8 645.8,290.6 
		638.1,295 	"/>
	<path id="caledonia" class="st11" d="M741,130.9l-0.1-0.4l-5-4.4l-5.3,2.6v4.3l-5.5,4.8l-6.9-2.7c-0.6,1.7-1.1,3.3-1.2,4
		c0.6,1.3,0.4,4-5.9,18.3v7.7l-1.8,0.6c-0.9,0.3-2.5,1.1-3.1,1.8c-0.6,0.9-1.6,1.3-2.6,1.3c-0.1,0-0.2,0-0.3,0c-0.6-0.1-2-0.3-4-3.3
		l-2.7,4.9c4,1.8,8.9,3.8,10.4,4.1c1.1-0.4,3.3-0.3,8.9,3.4l1.1,0.8v8.3l-2.1,4.3V202l-2.6,6h5.4l7-4l8.2,0.6l-2.3-12.1l3.2-12.8
		l9.4-8l-2.5-1l-2.8-19.5v-17.6L741,130.9z"/>
	<path id="grand_isle" class="st11" d="M601.6,174.2l2.9,2.9c0.9-4,3.1-10.9,4-13.9V155c-0.9-2.3-4.3-10.9-4.8-12.4
		c-0.5-1.6-2.7-13.7-3.1-16.1l-1.7-6.9l-11,3.3h6.7v21.7L601.6,174.2z"/>
	<path id="windham" class="st11" d="M733.2,357.9c-2.1-1.9-4.7-4.5-6.3-8H721l-4.8,4.1h-16.4l-2.4,18.3l-9.2,6.7l-2.2,6.5
		c1.4,0,2.6,0,2.9-0.1l1.2-0.2l1.1,0.9c0.8,0.7,1.8,1.6,0.9,12.8h11.4v10.4l3.1,6.8l29.8-6.7c-2.7-2.4-6.6-6.7-6.6-13.1
		c0-2.6,0.9-4.7,1.6-6.3c0.1-0.4,0.4-0.7,0.5-1.1l0.3-0.9l0.5-0.8c0.9-1.3,1.1-1.9,1.5-3l0.3-0.6c2.3-5,2.3-10.2,2.3-16.2v-4.6
		C736.8,361.5,735.7,360.4,733.2,357.9z"/>
	<path id="orange" class="st11" d="M719.4,213h-9.9l-12.6,7l-4.5,3.6c-0.4,8.9-1.1,14.1-2.2,15.6c-0.5,0.6-1.2,3.8-1.6,6.6l-0.1,1.3
		l-1.1,0.6c0,0-5.8,3.2-8.2,4.5c0,0.4,0.1,1.1,0.3,1.8l53.9,8.7l0.3-1.1l0.6-51.9l-7.7-0.6L719.4,213z"/>
	<path id="addison" class="st11" d="M645.7,219.3l-2.5-2.3l-12.4,7.7l-9,2.9l-4,0.7l-0.1,2.8l-2.6,19.3l18.4,37.4l-0.6,4.3l4.6-2.8
		l-3.3-3.6v-4l6.1-7.7l23.3-0.1l-7.7-6.5l15.1-7l3.2-4.5c-0.7-2.8-1.1-6.5,1.6-7.9c1.2-0.6,4.8-2.6,7-3.8h-6l-4.3-3.8l-13.8-6.7
		l-7.7-2.2L645.7,219.3z"/>
	<path id="franklin" class="st11" d="M603.9,118.3l1.8,7.2c1.3,7,2.8,14.8,3.1,15.8c0.3,1.1,3.1,8.2,4.8,12.4l0.2,0.4l-0.1,3.5
		l5.2,2l15.4,3.7h5.3l3.3-9.5l4-9.8l5-4l10.2-7.7h5.5V123h-5l-0.6-19.8l-35.4,8.2l-25.2,7.5L603.9,118.3z"/>
	<polygon id="essex" class="st11" points="730.8,87.9 730.8,122.9 736.8,119.8 745.7,127.8 746.6,132.6 743.3,135.8 743.3,151.1 
		745.6,167.1 747.9,168 766.8,152 766.8,134.8 752.7,119.1 755.7,81.4 751.1,82.5 728.2,87.9 	"/>
	<path id="orleans" class="st11" d="M664.5,102.6l2.6-0.1l0.5,15.4h5.1v14.3h0.3l12.7,5.9l0.4,1c0,0,3.5,9.7,4.3,11.9
		c0.9,1,4.6,4.1,8,6.7h2.9l0.7,1.5c0.6,1.3,1.4,2.7,2,3.6c0.7-0.6,1.5-1,2.2-1.3v-5.2l0.2-0.5c2.6-5.9,5.5-13.1,5.8-15.2
		c-0.4-1.1-0.4-3.6,2.3-9.9l1-2.3l8.6,3.3l1.4-1.3v-42L664.5,102.6z"/>
	<path id="lamoille" class="st11" d="M663.8,137.3l-12.8,9.8l-3.4,8.5l-3.4,9.9l3.8,6l4.7,3.7l5.3,8.9h6.5l6.6,3.6l5.6,1.3l7.3-5
		l4.8-8.2l0.4-0.9h-0.6l6.5-11.9v-1.6c-8.7-6.7-9.2-8-9.4-8.7c-0.4-1.1-3-8.3-3.9-11l-9.7-4.5h-1.8h-2.6L663.8,137.3L663.8,137.3z"
		/>
	<path id="chittenden" class="st11" d="M639.8,168.4l-6.5-0.1l-16-3.9l-3.8-1.4v1.5c-2.1,6.3-4.3,13.9-4.3,15.3
		c0,0.6-0.1,1.1-0.3,1.7l5.6,5.6l3.9,25.9l-0.4,10l2.7-0.5l8.2-2.6l14.8-9.3l6.2,5.5l1.8,4l2.1-1.6v-2.2H651V206l2.8-6.1v-12.5
		l-2.5-4.1l-2.6-4.7l-4.8-4L639.8,168.4z"/>
</g>
<g id="balls">
	<circle id="windham_circle" class="st9" cx="714.4" cy="383" r="8.4"/>
	<text id="windham_numbers" transform="matrix(1 2.629991e-03 -2.629991e-03 1 711.4372 384.8315)" class="st12 st7 st13">1</text>
	<circle id="bennington_circle" class="st9" cx="674.5" cy="380.4" r="8.4"/>
	<text id="bennington_numbers" transform="matrix(1 2.629991e-03 -2.629991e-03 1 671.5598 382.2592)" class="st12 st7 st13">1</text>
	<circle id="rutland_circle" class="st9" cx="669" cy="310.3" r="8.4"/>
	<text id="rutland_numbers" transform="matrix(1 2.629991e-03 -2.629991e-03 1 666.0771 312.1115)" class="st12 st7 st13">1</text>
	<circle id="windsor_circle" class="st9" cx="711.5" cy="306.7" r="8.4"/>
	<text id="windsor_numbers" transform="matrix(1 2.629991e-03 -2.629991e-03 1 708.5572 308.5114)" class="st12 st7 st13">1</text>
	<circle id="orange_circle" class="st9" cx="712.6" cy="236.6" r="8.4"/>
	<text id="orange_numbers" transform="matrix(1 2.629991e-03 -2.629991e-03 1 709.6372 238.4315)" class="st12 st7 st13">1</text>
	<circle id="addison_circle" class="st9" cx="643.1" cy="248.3" r="8.4"/>
	<text id="addison_numbers" transform="matrix(1 2.629991e-03 -2.629991e-03 1 640.1572 250.1915)" class="st12 st7 st13">1</text>
	<circle id="washington_circle" class="st9" cx="683.9" cy="206.2" r="8.4"/>
	<text id="washington_numbers" transform="matrix(1 2.629991e-03 -2.629991e-03 1 680.9197 208.0192)" class="st12 st7 st13">1</text>
	<circle id="chittenden_circle" class="st9" cx="632.8" cy="190.3" r="8.4"/>
	<text id="chittenden_numbers" transform="matrix(1 2.629991e-03 -2.629991e-03 1 629.7997 192.1792)" class="st12 st7 st13">1</text>
	<circle id="lamoille_circle" class="st9" cx="669" cy="162.7" r="8.4"/>
	<text id="lamoille_numbers" transform="matrix(1 2.629991e-03 -2.629991e-03 1 666.0771 164.5115)" class="st12 st7 st13">1</text>
	<circle id="caledonia_circle" class="st9" cx="724.5" cy="167" r="8.4"/>
	<text id="caledonia_numbers" transform="matrix(1 2.629991e-03 -2.629991e-03 1 721.5172 168.8315)" class="st12 st7 st13">1</text>
	<circle id="essex_circle" class="st9" cx="747.2" cy="121.9" r="8.4"/>
	<text id="essex_numbers" transform="matrix(1 2.629991e-03 -2.629991e-03 1 744.2798 123.7792)" class="st12 st7 st13">1</text>
	<circle id="orleans_circle" class="st9" cx="699.7" cy="119.8" r="8.4"/>
	<text id="orleans_numbers" transform="matrix(1 2.629991e-03 -2.629991e-03 1 696.7598 121.6192)" class="st12 st7 st13">1</text>
	<circle id="grand_isle_circle_1_" class="st9" cx="634.5" cy="131.7" r="8.4"/>
	<text id="grand_isle_numbers_1_" transform="matrix(1 2.629991e-03 -2.629991e-03 1 631.5172 133.5515)" class="st12 st7 st13">1</text>
	<circle id="grand_isle_circle" class="st9" cx="600.6" cy="150.4" r="8.4"/>
	<text id="grand_isle_numbers" transform="matrix(1 2.629991e-03 -2.629991e-03 1 597.6772 152.2715)" class="st12 st7 st13">1</text>
</g>
<g id="table_data">
	<text transform="matrix(1 0 0 1 22.1633 545.0624)" class="st2 st7 st8">Confirmed Cases</text>
	<text transform="matrix(1 0 0 1 22.1633 588.9941)" class="st2 st7 st8">Deaths</text>
	<text id="current_date" transform="matrix(1 0 0 1 205.6929 500.7802)" class="st2 st7 st8">6 Apr. 2020</text>
	<text id="previous_date" transform="matrix(1 0 0 1 340.4711 500.7802)" class="st2 st7 st8">5 Apr. 2020</text>
	<text id="growth_rate__x25_" transform="matrix(1 0 0 1 459.5392 500.7802)" class="st2 st7 st8">Growth Rate %</text>
	<text transform="matrix(1 0 0 1 674.8142 500.7802)" class="st2 st7 st8">Total Confirmed Cases</text>
	<text id="current_сases" transform="matrix(1 0 0 1 228.5485 548.8145)" class="st14 st7 st5">783</text>
	<text id="previous_deaths" transform="matrix(1 0 0 1 371.2616 593.2939)" class="st14 st7 st5">14</text>
	<text id="current_deaths" transform="matrix(1 0 0 1 232.0688 592.3143)" class="st14 st7 st5">15</text>
	<text id="total_cases" transform="matrix(1 0 0 1 733.2635 577.9576)" class="st15 st7 st16">783</text>
	<text id="previous_сases" transform="matrix(1 0 0 1 363.3488 548.8145)" class="st14 st7 st5">673</text>
	<text id="cases_growth_rate" transform="matrix(1 0 0 1 493.2618 550.3508)" class="st14 st7 st5">16 %</text>
	<text id="death_growth_rate" transform="matrix(1 0 0 1 497.6611 594.83)" class="st14 st7 st5">7 %</text>
</g>
</svg>
