<?xml version="1.0" encoding="utf-8"?>
<!-- Generator: Adobe Illustrator 24.1.2, SVG Export Plug-In . SVG Version: 6.00 Build 0)  -->
<svg version="1.1" id="Layer" xmlns="http://www.w3.org/2000/svg" xmlns:xlink="http://www.w3.org/1999/xlink" x="0px" y="0px"
	 viewBox="0 0 916.5 990.8" style="enable-background:new 0 0 916.5 990.8;" xml:space="preserve">
<style type="text/css">
	.st0{fill:#F5FBFE;}
	.st1{fill:#DDEEFA;}
	.st2{fill:#255078;}
	.st3{font-family:'Georgia';}
	.st4{font-size:18px;}
	.st5{font-size:16px;}
	.st6{fill:#4C4B4D;}
	.st7{font-family:'ArialMT';}
	.st8{font-size:14px;}
	.st9{fill:#4C4B4C;}
	.st10{fill:#DB3029;}
	.st11{font-size:36px;}
	.st12{fill:#CD483B;}
	.st13{fill:#AEDBF5;}
	.st14{fill:#FFFFFF;}
	.st15{font-size:4.3535px;}
	.st16{fill:none;stroke:#000000;stroke-width:0.5;stroke-miterlimit:10;}
</style>
<g id="texts">
	<polygon id="blue_bg" class="st0" points="0,855.5 0,892.5 0,902.1 0,990.9 173.5,990.9 173.5,902.1 915,902.1 915,855.5 	"/>
	<path id="line_bg" class="st1" d="M916.5,0.2H0v380.5v475.2v2v43v2v43v2v43l0,0h579.8l0,0H913l0,0h3.5V0.2z M913,60.4v796H578.4
		l-0.6-0.3v0.3H443.6l-0.6-0.3v0.3H3v-796L913,60.4L913,60.4z M913,858.4v42.8H579.8v-42.8H913z M445.1,901.3v-42.8h132.8v42.8
		H445.1z M577.8,903.2V946H445.1v-42.8H577.8z M310.3,901.3v-42.8h132.8v42.8H310.3z M443.1,903.2V946H310.3v-42.8H443.1z
		 M175.5,901.3v-42.8h132.8v42.8H175.5z M308.3,903.2V946H175.5v-42.8H308.3z M173.5,858.4v42.8H3v-42.8H173.5z M173.5,903.2V946H3
		v-42.8H173.5z M3,948.1h170.5v39.8H3V948.1z M175.5,948.1h132.8v39.8H175.5V948.1z M310.3,948.1h132.8v39.8H310.3V948.1z
		 M445.1,948.1h132.8v39.8H445.1V948.1z M579.8,903.2H913v84.7H579.8V903.2z"/>
	<text id="title" transform="matrix(1 0 0 1 22.167 35.8372)" class="st2 st3 st4">COVID-19 in Virginia on</text>
	<text id="date" transform="matrix(1 0 0 1 223.4693 35.8372)" class="st2 st3 st4">April 7th, 2020</text>
	<text transform="matrix(1 0 0 1 22.1669 99.3656)" class="st2 st3 st5">State Confirmed Cases By County</text>
	<text transform="matrix(1 0 0 1 22.1888 137.6457)" class="st6 st7 st8">Accomack  496</text>
	<text transform="matrix(1 0 0 1 22.1888 158.7632)" class="st6 st7 st8">Albemarle  159</text>
	<text transform="matrix(1 0 0 1 22.1888 179.8813)" class="st6 st7 st8">Alleghany  128</text>
	<text transform="matrix(1 0 0 1 22.1888 200.9994)" class="st6 st7 st8">Amelia  496</text>
	<text transform="matrix(1 0 0 1 22.1888 222.1171)" class="st6 st7 st8">Amherst  159</text>
	<text transform="matrix(1 0 0 1 22.1888 243.2352)" class="st6 st7 st8">Appomattox  10</text>
	<text transform="matrix(1 0 0 1 22.1888 264.353)" class="st6 st7 st8">Arlington  496</text>
	<text transform="matrix(1 0 0 1 22.1888 285.4706)" class="st6 st7 st8">Augusta  159</text>
	<text transform="matrix(1 0 0 1 22.1673 306.5884)" class="st6 st7 st8">Bath  128</text>
	<text transform="matrix(1 0 0 1 22.1674 327.7065)" class="st6 st7 st8">Bedford  496</text>
	<text transform="matrix(1 0 0 1 22.1674 348.8245)" class="st6 st7 st8">Bland  159</text>
	<text transform="matrix(1 0 0 1 22.1672 369.9421)" class="st6 st7 st8">Botetourt  128</text>
	<text transform="matrix(1 0 0 1 22.1675 391.0598)" class="st6 st7 st8">Brunswick  496</text>
	<text transform="matrix(1 0 0 1 22.1675 412.1778)" class="st6 st7 st8">Buchanan  159</text>
	<text transform="matrix(1 0 0 1 22.1675 433.2957)" class="st6 st7 st8">Buckingham  128</text>
	<text transform="matrix(1 0 0 1 22.1675 454.4138)" class="st6 st7 st8">Campbell  496</text>
	<text transform="matrix(1 0 0 1 22.1675 475.5318)" class="st6 st7 st8">Caroline  159</text>
	<text transform="matrix(1 0 0 1 22.1672 496.6493)" class="st6 st7 st8">Carroll  128</text>
	<text transform="matrix(1 0 0 1 22.1672 517.7673)" class="st6 st7 st8">Charles City  496</text>
	<text transform="matrix(1 0 0 1 22.1672 538.8854)" class="st6 st7 st8">Charlotte  159</text>
	<text transform="matrix(1 0 0 1 22.1673 560.0027)" class="st6 st7 st8">Chesterfield  128</text>
	<text transform="matrix(1 0 0 1 22.1673 581.1213)" class="st6 st7 st8">Clarke  496</text>
	<text transform="matrix(1 0 0 1 22.1672 602.2393)" class="st6 st7 st8">Craig  59</text>
	<text transform="matrix(1 0 0 1 22.1672 623.3564)" class="st6 st7 st8">Culpeper  10</text>
	<text transform="matrix(1 0 0 1 22.1674 644.4746)" class="st6 st7 st8">Cumberland  496</text>
	<text transform="matrix(1 0 0 1 22.1674 665.5925)" class="st6 st7 st8">Dickenson  159</text>
	<text transform="matrix(1 0 0 1 22.1674 686.7108)" class="st6 st7 st8">Dinwiddie  128</text>
	<text transform="matrix(1 0 0 1 22.1675 707.8287)" class="st6 st7 st8">Essex  496</text>
	<text transform="matrix(1 0 0 1 22.1675 728.9458)" class="st6 st7 st8">Fairfax  159</text>
	<text transform="matrix(1 0 0 1 22.1675 750.0638)" class="st6 st7 st8">Fauquier  128</text>
	<text transform="matrix(1 0 0 1 22.1675 771.1814)" class="st6 st7 st8">Floyd  40</text>
	<text transform="matrix(1 0 0 1 22.1675 792.2998)" class="st6 st7 st8">Fluvanna  159</text>
	<text transform="matrix(1 0 0 1 764.5003 475.5322)" class="st6 st7 st8">Franklin  128</text>
	<text transform="matrix(1 0 0 1 149.0289 750.064)" class="st6 st7 st8">Frederick  496</text>
	<text transform="matrix(1 0 0 1 149.0286 137.6461)" class="st6 st7 st8">Giles  159</text>
	<text transform="matrix(1 0 0 1 149.0286 158.7637)" class="st6 st7 st8">Gloucester  128</text>
	<text transform="matrix(1 0 0 1 149.0287 179.8819)" class="st6 st7 st8">Goochland  496</text>
	<text transform="matrix(1 0 0 1 149.0287 200.9997)" class="st6 st7 st8">Grayson  159</text>
	<text transform="matrix(1 0 0 1 149.0287 222.1176)" class="st6 st7 st8">Greene  128</text>
	<text transform="matrix(1 0 0 1 149.0287 243.2355)" class="st6 st7 st8">Greensville  496</text>
	<text transform="matrix(1 0 0 1 149.0287 264.353)" class="st6 st7 st8">Halifax  159</text>
	<text transform="matrix(1 0 0 1 149.0287 285.4709)" class="st6 st7 st8">Hanover  128</text>
	<text transform="matrix(1 0 0 1 149.0287 306.5889)" class="st6 st7 st8">Henric  496</text>
	<text transform="matrix(1 0 0 1 149.0287 327.707)" class="st6 st7 st8">Henry  159</text>
	<text transform="matrix(1 0 0 1 149.0289 348.8246)" class="st6 st7 st8">Highland  128</text>
	<text transform="matrix(1 0 0 1 149.0289 369.9423)" class="st6 st7 st8">Isle of Wight  496</text>
	<text transform="matrix(1 0 0 1 149.0288 391.0606)" class="st6 st7 st8">James City  59</text>
	<text transform="matrix(1 0 0 1 149.0288 412.178)" class="st6 st7 st8">King and Queen  10</text>
	<text transform="matrix(1 0 0 1 149.0286 433.2963)" class="st6 st7 st8">King George  496</text>
	<text transform="matrix(1 0 0 1 149.0286 454.4141)" class="st6 st7 st8">King William  159</text>
	<text transform="matrix(1 0 0 1 149.0286 475.532)" class="st6 st7 st8">Lancaster  128</text>
	<text transform="matrix(1 0 0 1 149.0289 496.6495)" class="st6 st7 st8">Lee  496</text>
	<text transform="matrix(1 0 0 1 149.0289 517.7673)" class="st6 st7 st8">Loudoun  159</text>
	<text transform="matrix(1 0 0 1 149.0289 538.8854)" class="st6 st7 st8">Louisa  128</text>
	<text transform="matrix(1 0 0 1 149.0289 560.0032)" class="st6 st7 st8">Lunenburg  40</text>
	<text transform="matrix(1 0 0 1 149.0289 581.1211)" class="st6 st7 st8">Madison  159</text>
	<text transform="matrix(1 0 0 1 149.0289 602.2394)" class="st6 st7 st8">Mathews  128</text>
	<text transform="matrix(1 0 0 1 149.0289 623.3567)" class="st6 st7 st8">Mecklenburg  496</text>
	<text transform="matrix(1 0 0 1 149.0289 644.475)" class="st6 st7 st8">Middlesex  159</text>
	<text transform="matrix(1 0 0 1 149.0289 665.5927)" class="st6 st7 st8">Montgomery  128</text>
	<text transform="matrix(1 0 0 1 149.0287 686.7104)" class="st6 st7 st8">Nelson  496</text>
	<text transform="matrix(1 0 0 1 149.0287 707.8279)" class="st6 st7 st8">New Kent  159</text>
	<text transform="matrix(1 0 0 1 149.0287 728.9463)" class="st6 st7 st8">Northampton  128</text>
	<text transform="matrix(1 0 0 1 601.6999 474.3553)" class="st6 st7 st8">Northumberland  496</text>
	<text transform="matrix(1 0 0 1 149.0286 771.1821)" class="st6 st7 st8">Nottoway  159</text>
	<text transform="matrix(1 0 0 1 764.4998 412.1785)" class="st6 st7 st8">Orange  128</text>
	<text transform="matrix(1 0 0 1 764.4998 433.2964)" class="st6 st7 st8">Page  159</text>
	<text transform="matrix(1 0 0 1 764.4998 454.4144)" class="st6 st7 st8">Patrick  128</text>
	<text transform="matrix(1 0 0 1 292.9275 137.6462)" class="st6 st7 st8">Pittsylvania  496</text>
	<text transform="matrix(1 0 0 1 292.9276 158.6905)" class="st6 st7 st8">Powhatan  159</text>
	<text transform="matrix(1 0 0 1 292.9276 179.7347)" class="st6 st7 st8">Prince Edward  128</text>
	<text transform="matrix(1 0 0 1 292.9276 200.7789)" class="st6 st7 st8">Prince George  496</text>
	<text transform="matrix(1 0 0 1 292.9277 221.8231)" class="st6 st7 st8">Prince William  159</text>
	<text transform="matrix(1 0 0 1 292.9277 242.8674)" class="st6 st7 st8">Pulaski  128</text>
	<text transform="matrix(1 0 0 1 292.9277 263.9117)" class="st6 st7 st8">Rappahannock  496</text>
	<text transform="matrix(1 0 0 1 292.9277 284.9564)" class="st6 st7 st8">Richmond  159</text>
	<text transform="matrix(1 0 0 1 292.9278 306.0007)" class="st6 st7 st8">Roanoke  128</text>
	<text transform="matrix(1 0 0 1 292.9278 327.0449)" class="st6 st7 st8">Rockbridge  496</text>
	<text transform="matrix(1 0 0 1 292.9277 348.0892)" class="st6 st7 st8">Rockingham  59</text>
	<text transform="matrix(1 0 0 1 292.9277 369.1334)" class="st6 st7 st8">Russell  10</text>
	<text transform="matrix(1 0 0 1 292.9277 390.178)" class="st6 st7 st8">Scott  496</text>
	<text transform="matrix(1 0 0 1 292.9277 411.2222)" class="st6 st7 st8">Shenandoah  159</text>
	<text transform="matrix(1 0 0 1 292.9277 432.2666)" class="st6 st7 st8">Smyth  128</text>
	<text transform="matrix(1 0 0 1 292.9276 453.311)" class="st6 st7 st8">Southampton  496</text>
	<text transform="matrix(1 0 0 1 292.9276 474.3552)" class="st6 st7 st8">Spotsylvania  159</text>
	<text transform="matrix(1 0 0 1 292.9276 495.3999)" class="st6 st7 st8">Stafford  128</text>
	<text transform="matrix(1 0 0 1 602.3107 369.134)" class="st6 st7 st8">Surry  40</text>
	<text transform="matrix(1 0 0 1 602.3107 390.178)" class="st6 st7 st8">Sussex  159</text>
	<text transform="matrix(1 0 0 1 602.3107 411.2225)" class="st6 st7 st8">Tazewell  128</text>
	<text transform="matrix(1 0 0 1 602.3107 432.2667)" class="st6 st7 st8">Warren  496</text>
	<text transform="matrix(1 0 0 1 602.3107 453.3109)" class="st6 st7 st8">Washington  159</text>
	<text transform="matrix(1 0 0 1 602.2892 137.6461)" class="st6 st7 st8">Westmoreland  128</text>
	<text transform="matrix(1 0 0 1 602.2894 158.6904)" class="st6 st7 st8">Wise  496</text>
	<text transform="matrix(1 0 0 1 602.2894 179.7346)" class="st6 st7 st8">Wythe  159</text>
	<text transform="matrix(1 0 0 1 602.2894 200.7791)" class="st6 st7 st8">York  128</text>
	<text transform="matrix(1 0 0 1 602.3108 221.8234)" class="st6 st7 st8">Alexandria  159</text>
	<text transform="matrix(1 0 0 1 602.2894 242.8679)" class="st6 st7 st8">Bristol  128</text>
	<text transform="matrix(1 0 0 1 602.2894 263.9122)" class="st6 st7 st8">Buena Vista  496</text>
	<text transform="matrix(1 0 0 1 602.2894 284.9567)" class="st6 st7 st8">Charlottesville  159</text>
	<text transform="matrix(1 0 0 1 602.2894 306.0007)" class="st6 st7 st8">Chesapeake  128</text>
	<text transform="matrix(1 0 0 1 602.2894 327.045)" class="st6 st7 st8">Colonial Heights  496</text>
	<text transform="matrix(1 0 0 1 602.2891 348.0892)" class="st6 st7 st8">Covington  59</text>
	<text transform="matrix(1 0 0 1 443.8646 137.6459)" class="st6 st7 st8">Danville  10</text>
	<text transform="matrix(1 0 0 1 443.8646 158.7638)" class="st6 st7 st8">Emporia  496</text>
	<text transform="matrix(1 0 0 1 443.8646 179.8816)" class="st6 st7 st8">Fairfax  159</text>
	<text transform="matrix(1 0 0 1 443.8646 200.9998)" class="st6 st7 st8">Falls Church  128</text>
	<text transform="matrix(1 0 0 1 443.8643 222.1174)" class="st6 st7 st8">Franklin  496</text>
	<text transform="matrix(1 0 0 1 443.8643 243.2355)" class="st6 st7 st8">Fredericksburg  159</text>
	<text transform="matrix(1 0 0 1 443.8644 264.3531)" class="st6 st7 st8">Galax  128</text>
	<text transform="matrix(1 0 0 1 443.8644 285.4711)" class="st6 st7 st8">Hampton  40</text>
	<text transform="matrix(1 0 0 1 443.8644 306.5892)" class="st6 st7 st8">Harrisonburg  159</text>
	<text transform="matrix(1 0 0 1 443.8644 327.7073)" class="st6 st7 st8">Hopewell  128</text>
	<text transform="matrix(1 0 0 1 443.8644 348.8246)" class="st6 st7 st8">Lexington  496</text>
	<text transform="matrix(1 0 0 1 443.8644 369.9427)" class="st6 st7 st8">Lynchburg  159</text>
	<text transform="matrix(1 0 0 1 443.8644 391.0605)" class="st6 st7 st8">Manassas  128</text>
	<text transform="matrix(1 0 0 1 443.8644 412.1785)" class="st6 st7 st8">Manassas Park  496</text>
	<text transform="matrix(1 0 0 1 443.8644 433.2963)" class="st6 st7 st8">Martinsville  159</text>
	<text transform="matrix(1 0 0 1 443.8644 454.4143)" class="st6 st7 st8">Newport News  128</text>
	<text transform="matrix(1 0 0 1 443.8644 475.532)" class="st6 st7 st8">Norfolk  159</text>
	<text transform="matrix(1 0 0 1 149.0284 792.3002)" class="st6 st7 st8">Norton  128</text>
	<text transform="matrix(1 0 0 1 764.5001 137.6461)" class="st6 st7 st8">Petersburg  496</text>
	<text transform="matrix(1 0 0 1 764.5001 158.764)" class="st6 st7 st8">Poquoson  159</text>
	<text transform="matrix(1 0 0 1 764.5001 179.8816)" class="st6 st7 st8">Portsmouth  128</text>
	<text transform="matrix(1 0 0 1 764.5001 200.9996)" class="st6 st7 st8">Radford  496</text>
	<text transform="matrix(1 0 0 1 764.5001 222.1177)" class="st6 st7 st8">Richmond  59</text>
	<text transform="matrix(1 0 0 1 764.5001 243.2352)" class="st6 st7 st8">Roanoke  10</text>
	<text transform="matrix(1 0 0 1 764.5001 264.3535)" class="st6 st7 st8">Salem  496</text>
	<text transform="matrix(1 0 0 1 764.5001 285.4713)" class="st6 st7 st8">Staunton  159</text>
	<text transform="matrix(1 0 0 1 764.5001 306.5893)" class="st6 st7 st8">Suffolk  128</text>
	<text transform="matrix(1 0 0 1 764.4999 327.7069)" class="st6 st7 st8">Virginia Beach  496</text>
	<text transform="matrix(1 0 0 1 764.4999 348.825)" class="st6 st7 st8">Waynesboro  159</text>
	<text transform="matrix(1 0 0 1 764.4999 369.9429)" class="st6 st7 st8">Williamsburg  128</text>
	<text transform="matrix(1 0 0 1 764.4999 391.0609)" class="st6 st7 st8">Winchester   40</text>
	<text transform="matrix(1 0 0 1 22.1707 926.7964)" class="st2 st7 st8">Confirmed Cases</text>
	<text transform="matrix(1 0 0 1 22.1707 970.7281)" class="st2 st7 st8">Deaths</text>
	<text id="current_date" transform="matrix(1 0 0 1 205.7003 882.5141)" class="st2 st7 st8">6 Apr. 2020</text>
	<text id="previous_date" transform="matrix(1 0 0 1 340.4785 882.5141)" class="st2 st7 st8">5 Apr. 2020</text>
	<text id="growth_rate__x25_" transform="matrix(1 0 0 1 459.5467 882.5141)" class="st2 st7 st8">Growth Rate %</text>
	<text transform="matrix(1 0 0 1 674.8217 882.5141)" class="st2 st7 st8">Total Confirmed Cases</text>
	<text id="current_сases" transform="matrix(1 0 0 1 228.5559 930.5484)" class="st9 st7 st5">783</text>
	<text id="previous_deaths" transform="matrix(1 0 0 1 371.269 975.0279)" class="st9 st7 st5">14</text>
	<text id="current_deaths" transform="matrix(1 0 0 1 232.0763 974.0482)" class="st9 st7 st5">15</text>
	<text id="total_cases" transform="matrix(1 0 0 1 733.271 959.6916)" class="st10 st7 st11">783</text>
	<text id="previous_сases" transform="matrix(1 0 0 1 363.3563 930.5484)" class="st9 st7 st5">673</text>
	<text id="cases_growth_rate" transform="matrix(1 0 0 1 493.2693 932.0847)" class="st9 st7 st5">16 %</text>
	<text id="death_growth_rate" transform="matrix(1 0 0 1 497.6686 976.5639)" class="st9 st7 st5">7 %</text>
</g>
<g id="TYPES_1_">
	<ellipse id="_x31__2_" class="st12" cx="806.8" cy="-26.5" rx="4.2" ry="4.3"/>
	<ellipse id="_x32_" class="st12" cx="828" cy="-26.9" rx="5.5" ry="5.6"/>
	<ellipse id="_x33_" class="st12" cx="851.1" cy="-27.2" rx="7.7" ry="7.8"/>
	<ellipse id="_x34_" class="st12" cx="879.3" cy="-27.2" rx="9.2" ry="9.3"/>
	<ellipse id="_x35_" class="st12" cx="909.6" cy="-27.3" rx="10.5" ry="10.7"/>
	<text id="_x31__numbers_2_" transform="matrix(0.986 2.629860e-03 -2.593071e-03 1 806.0757 -24.8217)" class="st14 st7 st15">1</text>
	
		<text id="_x32__numbers" transform="matrix(0.986 2.629860e-03 -2.593071e-03 1 823.5433 -24.6921)" class="st14 st7" style="font-size:5.6112px;">100</text>
	
		<text id="_x33__numbers" transform="matrix(0.986 2.629852e-03 -2.593061e-03 1 845.0905 -24.3539)" class="st14 st7" style="font-size:7.5897px;">500</text>
	
		<text id="_x34__numbers" transform="matrix(1 2.629854e-03 -2.629854e-03 1 870.2338 -24.4057)" class="st14 st7" style="font-size:7.7679px;">1000</text>
	
		<text id="_x35__numbers" transform="matrix(1 2.629835e-03 -2.629835e-03 1 900.3008 -24.5093)" class="st14 st7" style="font-size:8.4223px;">5000</text>
</g>
<g id="counties">
	<polygon id="lexington" class="st13" points="604.4,677.8 604.8,677.8 606,676.6 606,676.3 605.8,676.3 604.4,677.6 	"/>
	<path id="augusta" class="st13" d="M633.3,654.2l0.3,0.5l0.4-0.4v-7.7l-22.2-11.8c-0.3,0.7-0.5,1.7-0.5,2.7l-0.1,2.7l-2.8,0.4
		c-0.5,0-1.3,0.1-1.8,0.1l-3.4,11.1l-1.6,2.2c0,0.5-0.2,1.1-0.3,1.5l2.8,4l11.8,6l3.9,1.4l0.8-1.5h6.8l3.6-7.7l-0.3-0.3l-1.4,3.2
		l-3.2-3l0.9-5.9h3.2L633.3,654.2z M624.4,654h-6.2v-5.7h6.2V654z"/>
	<path id="buena_vista" class="st13" d="M610.7,681.6h1.8c0-0.1,0-0.2,0-0.3c0-0.2,0-0.6,1-3.2h-2.2l-0.7,1L610.7,681.6L610.7,681.6
		z"/>
	<path id="rockbridge" class="st13" d="M615.7,673.7l2.8-1.3l0.5-3.6l-4.2-1.5l-11.1-5.7l-5.7,13.6l-0.3,4.6
		c2.5,1.7,2.7,2.3,2.7,2.6c0.1,0.2,0.7,1,1.2,1.5c0.7,0.9,1.3,1.5,1.5,2c0.3,0.4,2.2,2.3,4,4.2l2.7-2.6c0.7-0.7,1.5-1.7,1.7-2
		c0.1-0.2,0.3-0.9,0.4-1.7h-3.7v-5.2l1.8-2.5h4.3L615.7,673.7z M608.3,677.6l-2.6,2.2l-3.6,0.7v-4l2.6-2.6h3.5L608.3,677.6
		L608.3,677.6L608.3,677.6z"/>
	<polygon id="henry" class="st13" points="601.5,752.4 606.9,751.3 606.5,740.9 605.9,742 590.3,742 588.5,743.8 587.8,748.3 
		591.1,752 591.2,754.6 598.8,753 596.5,751.6 594.1,749.8 596.5,745.2 600.5,745.2 603.4,746.7 603.4,749.8 	"/>
	<polygon id="martinsville" class="st13" points="597.8,747.6 597,749.1 597.8,749.7 599.8,750.9 601.1,749.1 601.1,748.2 
		599.9,747.6 	"/>
	<polygon id="rappahannock" class="st13" points="651.7,616.7 655.9,620.3 656.8,621.5 660.6,618.5 665.6,612.9 665.6,609.8 
		657.4,602.4 651.8,607.2 	"/>
	<rect id="staunton" x="620.5" y="650.5" class="st13" width="1.6" height="1.1"/>
	<polygon id="frederick" class="st13" points="646.2,578.8 654.8,578.8 655.7,577.9 642.8,571.4 642.8,589.3 638.8,590.6 647,593.3 
		653.2,588.3 651.8,584.9 	"/>
	<polygon id="page" class="st13" points="638.4,614.7 638.4,623.9 636.5,623.9 637.1,625.5 641.9,629.8 644.7,629.8 647,627.7 
		647.1,624.9 649.5,617.1 649.5,608.4 646,605.3 645.3,607.9 	"/>
	<polygon id="warren" class="st13" points="657.4,593.2 656.1,591.2 653.2,591.2 648.2,595.2 647.3,599.6 646.5,602.8 650,605.8 
		656.5,600.2 657.7,596.7 659.8,593.5 	"/>
	<polygon id="madison" class="st13" points="662.6,633.5 661.6,631.5 657.5,626.4 654.2,621.6 651.2,619.2 649.2,625.4 649.2,627.8 
		656.7,636.7 	"/>
	<polygon id="culpeper" class="st13" points="685.2,625.3 684.9,624.7 680.2,624.7 674.4,618 671.4,612 668,610.9 668,613.7 
		662.1,620.3 658.2,623.3 659.4,625 663.6,630.4 664.6,632.3 674.7,626.5 684.4,626.5 	"/>
	<polygon id="fauquier" class="st13" points="677.3,592.3 677.3,591.8 663.6,591.8 662.3,593.8 662.3,593.8 659.6,597.8 
		658.7,600.6 667.5,608.2 672.9,610.2 676.3,616.9 681.2,622.4 684.7,622.4 686,618.2 688,613.5 681.5,605.7 675.3,599.7 
		676.2,594.2 	"/>
	<polygon id="greene" class="st13" points="640.9,639.9 653.3,643.3 655.2,638.4 648.1,629.8 645.5,632.1 644.9,632.1 644.9,634.3 
		641.9,639 	"/>
	<polygon id="orange" class="st13" points="665.1,644.9 674,642.7 674.1,640.8 676,635.6 679.6,633.2 681.3,628.8 675.3,628.8 
		657.4,639 655.5,643.9 658.6,644.9 	"/>
	<polygon id="fluvanna" class="st13" points="666.8,665.9 668.7,664.2 668.7,661.4 670,659 666.4,656.7 660.4,655.4 660.2,656.1 
		654.3,666.6 657.2,669.6 665,672.7 664.8,672.2 666.8,669.1 	"/>
	<path id="richmond_city" class="st13" d="M703.8,681.6l2.2-2.3l1.4,0.1c0-1.9,0-3.8,0-5.7c-1.1-0.5-2.1-1-3.2-1.5
		c-1.2,0.6-2.4,1.3-3.6,1.9l-1.7,2.8l3.8,4.6L703.8,681.6L703.8,681.6z"/>
	<polygon id="hanover" class="st13" points="715.6,669.8 717.3,669.1 717.3,665.5 708,662.8 705.6,660.1 703.6,657.5 691.3,651.1 
		691.3,649.3 690,649.3 690,651.1 687.9,665.5 701.1,665.5 715.6,673.2 	"/>
	<polygon id="washington" class="st13" points="501.7,749 497.4,752.4 493.9,755.1 490,756.1 485.8,760.1 480.6,766 480.6,768.2 
		481,768.8 483.2,768.3 485.3,768.3 485.3,766.4 487.6,764.4 490.4,765 493,767.2 493,768.3 496.5,768.3 503,762.6 510.6,762.6 
		510.3,762.1 510.3,759.5 	"/>
	<path id="lee" class="st13" d="M451,760.7c-0.6,1.3-1.5,2.6-2.7,3.5l-0.3,0.2c-2.8,2.2-6.5,4.7-10,6.5c-1.3,0.6-2.6,1.5-3.7,2.5
		c-1.3,1-2.7,2.1-4.4,2.9c-0.3,0.2-0.7,0.3-1,0.5l10.1-1.4l9.2-1.5l0.4-1.9l0.3-0.3c1.4-1.5,3-3.5,3.2-3.8c0-0.1,0.2-0.6,3.6-4.8
		h-3.6V761L451,760.7C451,760.8,451,760.7,451,760.7z"/>
	<polygon id="smyth" class="st13" points="519.2,760.9 524.7,757 528.3,754.9 526.3,753.1 525.2,750 523.8,748.2 522.3,745.9 
		518.9,742.4 515,742.4 510,745.6 504,747.4 503.5,747.7 512.5,758.8 512.5,761.4 513.2,762.6 516.6,762.6 516.6,763 	"/>
	<path id="craig" class="st13" d="M569.1,702.9c-0.2,0.2-0.4,0.5-0.5,0.5c-1.6,2.6-3.1,3.7-5.6,4.2l0.6,1.3l1.5,4.9l6.1-3.4l4.2-4.6
		l4.9-2l3.1-5.8v-1.5l-3.5-3.2v-0.5c-0.7,1-2,2.2-2.6,2.7l-0.3,0.3h-4.8c-0.1,0.3-0.3,0.6-0.3,0.8c-0.2,0.4-0.3,0.8-0.4,1.2
		c-0.1,0.4-0.2,0.6-0.2,0.8c-0.2,0.8-0.3,1.5-1,2.7C570,702,569.5,702.5,569.1,702.9z"/>
	<path id="alleghany" class="st13" d="M595.9,676.3c-2.8,0.3-5.7,0.6-8.6,0.8v-0.2c-1.6,0.3-2.6-0.2-2.8-1.1
		c-0.1-0.4-0.7-1.9-1.2-3.1h-4.2c-0.5,1.2-0.9,2.3-1.5,3.5l-0.3,0.5c-0.9,1.7-1.7,3.4-2.6,5.2c-1,2.3-1.7,3.8-3.4,5.9
		c-0.3,0.4-0.7,1-1,1.5l0.1,0.1c2.3,0.8,2.5,2.7,2.2,4.2h3.4c1.1-1.1,2.3-2.4,2.5-2.7c0.3-0.6,1.9-2.7,3.4-4.4L581,687l-3.3-1.9
		v-5.7h6.7v4.7c0.7-0.7,1.8-2.3,2.7-3.7c2.8-0.3,5.7-0.6,8.5-0.9L595.9,676.3z"/>
	<polygon id="salem" class="st13" points="583.4,714.4 584.4,714.4 584.4,712.5 583.4,712.5 	"/>
	<polygon id="covington" class="st13" points="581.2,684.3 582.3,683.7 582.3,681.7 580.2,681.7 580.2,683.7 	"/>
	<path id="roanoke" class="st13" d="M576.8,707.7l-3.4,3.7l8.1,10.8l2.9-3.6l3.4,2.6l1-0.3c1.4-3.2,1.9-4.3,2.5-4.6
		c0.3-0.3,0.7-0.8,1.1-1.4l0.3-1.5l-1.2,0.7l-1,1.8l-1.3,2.6h-4.6v-2.1h-3.5v-6.5h3.8l1.2-1.1l0.5-0.2l-5.5-3L576.8,707.7z"/>
	<polygon id="roanoke_city" class="st13" points="587.8,716.5 588.5,715.1 589.7,712.7 591.2,711.7 589.3,710.5 587.3,711.1 
		586.5,711.7 586.7,714.4 586.8,714.4 586.8,716.5 	"/>
	<polygon id="carroll" class="st13" points="550.3,760.1 551.4,760.1 561.4,758.8 561.4,756.3 564.9,753.7 566.1,755.7 567.3,755.7 
		567.3,752.9 568,751.7 566,750.2 565.1,748.2 561.5,744.8 560.8,742 557.9,740.5 553.2,744.3 542.4,749.8 545.8,754.2 551.4,754.2 
		551.3,756.9 	"/>
	<path id="bath" class="st13" d="M586.2,656.2c-0.9,3.4-1.9,6.9-3.9,10.1c-0.8,1.4-1.5,2.7-2.1,4.2h4.7l0.3,0.7
		c0.2,0.5,1,2.5,1.4,3.6c0.4,0,1.1-0.2,1.7-0.3l1.4-0.4v0.3l6.7-0.4l5.7-13.6l-3.4-4.7l0.4-0.6c0.1-0.2,0.2-0.4,0.3-0.5
		c-1.8-0.2-7.5-0.7-12.3-1.1C586.6,654.3,586.4,655.2,586.2,656.2z"/>
	<polygon id="shenandoah" class="st13" points="637.1,600.4 630.6,603.7 627.1,608.1 626.2,613.6 636.1,619 636.1,613.7 
		643.3,606.7 645.1,599 645.9,595.3 637.5,592.6 637.1,593.4 	"/>
	<path id="highland" class="st13" d="M587.6,651.2c4.3,0.3,11.1,0.9,12.3,1.1l1.3-1.7l2.9-9.9c-3.2-0.2-6.8-0.9-9.4-3.8
		c-0.8-1-1.4-2.1-1.8-3c-0.6-1.3-0.9-1.8-1.3-1.9c-0.9-0.3-1.3-0.2-1.3-0.2c-0.5,0.5-0.6,2.7-0.3,6.7l0.1,0.5c0.4,4.2-1,8-2.2,11.4
		C587.8,650.5,587.7,651,587.6,651.2z"/>
	<path id="montgomery" class="st13" d="M570.3,732.1l3.6-5.2l2.3-1.9l2.9-2.2l-7.5-10l-6.6,3.7c-1.8,1.1-4.6,2.7-5.1,3
		c-0.1,0.1-0.5,0.4-1.1,0.8l1.3,1.3v2.2l2.6-0.8l2.9,1.6l0.1,0.5c0.5,2.5,0.1,3.2-0.6,3.5c-0.3,0.1-1.5,0.8-2.7,1.7l1.4,1.6v2
		L570.3,732.1z"/>
	<path id="pulaski" class="st13" d="M561.4,734.8v-2.1l-3.6-4v-6.2l-0.7-0.7c-2.6,1.9-6.2,4.6-9,6.7l-0.5,0.5l-0.3-0.2l-1.2,0.2
		l-0.7,2.7l8.6,9.2v0.2L561.4,734.8z"/>
	<path id="chesapeake" class="st13" d="M770.4,721.5l7.7-2.3l-4.9-11.8c-1.3,0.1-3.7,0.2-4.6,0.2c-0.2,0.3-0.3,0.6-0.5,0.9l-0.3,0.7
		H767h-3.1v5.2h1.5l-0.4,7.1L770.4,721.5L770.4,721.5z"/>
	<path id="portsmouth_1_" class="st13" d="M763.9,703.6v3.3h2.3c0.3-0.5,0.4-0.7,0.7-1.1l-0.7-3.2l-0.6-0.5L763.9,703.6z"/>
	<polygon id="greensville" class="st13" points="704.5,732.6 719.1,730.4 718,729.5 716.8,726.5 714,727 713.9,728.8 712.8,731 
		709.6,731 707.2,727.5 709.8,723.2 706.3,718.4 706.1,718.7 704,718.7 705.5,721.5 706.6,728.7 704.8,730.4 	"/>
	<path id="virginia_beach" class="st13" d="M775,699.2v6.7l5.2,12.6l2.2-0.7l9.4-2.9c-1.6-2.9-3.6-5.6-5.1-8.4
		c-1.3-2.4-1.8-5.4-3.7-7.4c-2.7-2.7-4.3-1.3-7.4-0.3c-0.6,0.2-1.2,0.3-1.7,0.4H775L775,699.2z"/>
	<path id="mathews" class="st13" d="M754.7,667.8l0.2,0.2l3,4.7l-0.9,0.6c2.6,0.5,4.3,2.8,6.7,2.6c0.3-4,0.4-7.6-1.7-10.6
		c-0.2-0.3-0.3-0.5-0.5-0.6v1.2h-6.2L754.7,667.8z"/>
	<polygon id="charlotte" class="st13" points="657.7,735.2 658.7,733.9 661.1,725.4 662.2,712.8 655.9,709.1 652.1,706.2 
		649.8,704.5 645,709 643.5,719.4 645.5,719.4 651.2,721.7 653.7,723.6 655.2,727.3 655.2,733.5 	"/>
	<polygon id="emporia" class="st13" points="710.8,728.8 711.5,728.8 711.8,728.2 711.9,726.3 711.2,725.3 709.9,727.5 	"/>
	<polygon id="sussex" class="st13" points="713.5,724.8 716.9,724.3 733.8,706.6 734.3,705.5 731,701.7 727,700.7 724.5,698.3 
		724.5,698.4 707.3,715.9 712.5,723.1 712.5,723.1 	"/>
	<polygon id="james_city" class="st13" points="737.4,688.1 738.6,688.1 739.7,687.1 739.7,682 741.5,679.9 743.5,677.9 
		739.1,672.7 738.6,672.2 738.6,674.1 733.8,678.7 735.9,681.6 735.9,685.4 	"/>
	<path id="gloucester" class="st13" d="M742.9,673.4l-0.2,0.1l2.9,3.4h2.7l6.9,7.3l3-1.9c-0.4-0.8,0.6-1,0.8-2.2
		c0.5-2.9-4-4.2-3.6-6.8l-2.4-3.8l-3.6-2.9l-5.7-1.8v2.9l1.6,1.8v2.6L742.9,673.4z"/>
	<polygon id="king_and_queen" class="st13" points="733,654.5 731.2,654.5 729.7,656 725.2,656 721.3,651.5 719,648 718.5,647.7 
		717.6,649 716.4,650.9 717.7,652.3 719.3,655.4 721.1,656.8 727.4,659.4 731.2,661.6 735.5,663.8 738.6,666 738.6,669.4 
		740.8,671.2 741.2,671.7 743,670.8 743,670.4 741.4,668.5 741.7,663.8 733.8,656.1 	"/>
	<path id="petersburg_1_" class="st13" d="M710.8,693.1l-0.3,1.3l-0.8,1.1l1.7,0.7c0.8-0.1,1.7-0.3,2.2-0.3
		c-0.1-0.5-0.1-1.3,0.1-2.2L710.8,693.1z"/>
	<path id="amherst" class="st13" d="M630.7,696.3c0.4-1,1-2.7,1.1-3l0,0c0.2-0.5,0.6-1.6,2.1-5.3l-1.6-5.8l-3.8-3.3l-4.6-2.7
		l-4.2-1.6l-2.3,1l-1.2,2.1c-0.6,1.5-1.3,3.5-1.4,3.9c0,0.7-0.7,4.5-1,5c-0.2,0.3-0.5,0.9-1.3,1.7l6.2,3.6l7.9,3l2.7,1.5
		L630.7,696.3L630.7,696.3z"/>
	<polygon id="lynchburg" class="st13" points="622.7,703.9 623.7,702.4 626.4,698.9 627.3,697.8 625.6,696.9 621.8,695.4 
		620.7,697.7 620.7,699.2 622.4,699.2 622.4,703.8 	"/>
	<path id="colonial_heights" class="st13" d="M715.6,689.1c0-0.1,0-0.2,0-0.3l-1.7-0.3l-2.4,1.3l-0.2,0.8l3.2,0.7
		C715,690.5,715.5,689.5,715.6,689.1z"/>
	<path id="chesterfield" class="st13" d="M716.3,684H712l-0.5-2.2l-4.6-0.2l-2.1,2.3h-3.2l-5.1-6.2l-0.9-1c-0.3,0.6-1.3,1.5-3.3,2.7
		l-0.6,3.9l-3.8,2.6l1.2,2.6l1,1.5l2.7,2.3l1.8-1.3l10,1.3l2.9,1.8l0.7-1l1.1-4.9l4-2.2l2.8,0.5L716.3,684L716.3,684z"/>
	<polygon id="pittsylvania" class="st13" points="630.8,747.7 630.8,719 626.1,716.7 622.6,716.7 622.1,717.1 618.5,719.7 
		616.3,721.7 616.3,722 611.3,724.1 608.3,725.1 609.1,750.8 615.5,749.8 616.7,747.5 621.1,745.2 625.7,745.2 627.6,747.7 
		627.6,748.2 	"/>
	<polygon id="halifax" class="st13" points="654.8,741.2 656.9,738.8 656.9,737.4 652.9,734.9 652.9,727.8 651.8,725.1 650.1,723.5 
		645.1,721.6 640.9,721.6 640.9,721.4 633,719.8 633,747.4 654.7,743 	"/>
	<polygon id="southampton" class="st13" points="722.2,730.1 731.5,728.7 741.5,728.7 741.5,725.4 741.4,725.4 739.1,727.9 
		736.5,723.5 736.5,719.4 739.7,719.4 739.7,704.5 736.5,706.1 735.7,707.7 718.8,725.5 719.9,728.2 	"/>
	<path id="northumberland" class="st13" d="M754.3,638.4c-2.4-0.4-3.5,0.8-5.8-0.5c-1.5-0.8-2.9-1.7-4.2-2.8l0.6,0.9l-2.7,1.8v1.5
		l-0.6,1.1l6.2,7.1l5.1,5.1l4.6,2.1C758.9,650,759.8,639.3,754.3,638.4z"/>
	<polygon id="surry" class="st13" points="745.9,692.6 746.8,690.5 744.7,688.6 741.3,688.6 739.5,690.4 736.6,690.4 736,690.4 
		734.5,690.4 732.2,688.7 730,688.9 730,691.4 726.3,695 726.3,696.9 726.3,696.9 728.2,698.7 732.2,699.7 735.8,703.8 740.1,701.8 
		742.6,696.7 	"/>
	<polygon id="brunswick" class="st13" points="702.7,729.4 704.1,728 703.3,722 701.4,718.4 691.3,712.7 686.3,713.2 689.1,719.2 
		687.8,732.9 689.3,732.9 690,737.4 702.1,733 	"/>
	<polygon id="franklin_city" class="st13" points="739.6,724.1 739.7,723.9 739.7,721.6 738.8,721.6 738.8,722.9 	"/>
	<path id="norfolk" class="st13" d="M769,705.3c1,0,2.6-0.1,3.7-0.2v-5.7c-1.3,0.1-2.4,0.1-3.6-0.1l0.9,0.6l-1.7,2.5L769,705.3z"/>
	<polygon id="suffolk" class="st13" points="762.8,721.5 763,716.7 761.7,716.7 761.7,709.2 761.7,708.1 761.7,704.3 757.3,704.3 
		743.7,724.6 743.7,728.1 760.2,721.5 	"/>
	<path id="isle_of_wight" class="st13" d="M753.5,698.4c-0.7-0.5-2.3-1.4-2.3-1.4l-0.3-0.2l-2.3-4.7l-0.8,2l-3.3,4.1l-2.4,4.9v20.1
		l13.5-20C754.8,701,753.9,698.9,753.5,698.4z"/>
	<polygon id="XMLID_1_" class="st13" points="683.1,583.4 679.4,577 679.4,574 673.1,571 671.1,585.5 667.7,583.9 664.8,589.5 
		679.5,589.5 679.5,591.4 682.9,590.9 685.3,593.8 690,584.6 	"/>
	<path id="albemarlee" class="st13" d="M644.9,670.6l0.8,2l1-1.3h4.3l0.7-4.8l6.5-11.3l2.2-8h-2.2l-4.4-1.3l-14.2-3.9l-1.3,3.2
		l-1.9,1.5v8.7l-1.4,1.3l1.2,1.4L644.9,670.6z M648.9,650.1h2.1l3.6,2.7l-2.7,2.6v2.2h-2.7l-4.3-3.1L648.9,650.1z"/>
	<polygon id="charlottesville" class="st13" points="649.5,654.3 651.1,652.9 650.2,652.2 649.8,652.2 648.1,654 649.5,655 	"/>
	<polygon id="waynesboro" class="st13" points="629.8,656.2 631.4,654.8 630.6,654.2 630.2,654.2 628.5,656 629.8,657 	"/>
	<path id="rockingham" class="st13" d="M636.4,643.6l1.5-3.7l2.4-2.4l2.4-3.9v-1.5h-1.6l-5.7-5.2l-2.2-5.2h3v-0.1l-10.3-5.7
		l-0.1,0.3h-9.1l-4.2,16.6l3.2,1.7l19.3,10.1L636.4,643.6z M631.4,634.5l-2.8,2.3h-4.1l-1.5-4.5l4.6-4.2l2,3.4h1.8V634.5
		L631.4,634.5z"/>
	<polygon id="harrisonburg" class="st13" points="627,631.6 625.6,632.9 626.1,634.5 627.7,634.5 628.7,633.7 628.3,633.7 	"/>
	<polygon id="louisa" class="st13" points="675.8,658.7 679.1,660.9 682.1,663.4 685.7,665 687.8,650.9 687.8,648.5 686.2,648.4 
		675.1,644.7 665.2,647.1 662.6,647 660.9,653.3 667.3,654.5 672,657.6 	"/>
	<polygon id="caroline" class="st13" points="715.8,647.6 717.1,645.9 712,634.7 702.6,631.2 702.1,631.6 693.4,648.5 693.4,649.7 
		705,655.8 706,657.1 714.1,650.2 	"/>
	<path id="prince_william" class="st13" d="M696.6,603.8l-5.3-2.5l-1.3,2.3l-2.8,4.3c-1-1.5-2-2.8-3-4.3l0.2-0.1v-1l1.5-4.9
		l-0.2,0.3l-3.7-4.6l-2.7,0.3l-0.7,1.3l-0.6,3.9l5.5,5.2v0.1h0.1c2.2,2.6,4.4,5.3,6.6,7.9h5.2l1.8,2.5l1.4-0.3
		c0.2-2.9,1.3-5.5,2.6-7.7L696.6,603.8z"/>
	<path id="stafford" class="st13" d="M698.3,616.6l-2.5,0.4l-2-2.6H690l-1.9,4.6l-1.4,4.4l0.5,0.7l9.1,0.3l2.6,3l2.3,1.9l0.7-0.7v-6
		C700.1,620.9,698.5,618.5,698.3,616.6C698.3,616.7,698.3,616.6,698.3,616.6z"/>
	<polygon id="fredericksburg" class="st13" points="695.9,627.5 695.2,626.7 691.3,626.5 691.5,626.8 694,629.3 	"/>
	<polygon id="manassas" class="st13" points="687.7,599.4 686.6,603.1 686.6,603.8 687,604.3 688.2,602.7 689.3,600.5 688.5,600.2 	
		"/>
	<polygon id="manassas_park" class="st13" points="689.3,598.9 688.4,598.7 688.3,598.8 688.3,599 689,599.5 689.6,599.7 
		689.4,599.4 	"/>
	<polygon id="spotsylvania" class="st13" points="690,647 691.6,647 699.7,631.2 697.5,629.3 693.8,632.5 690,628.4 687.8,626.4 
		687.2,626.4 685.6,628.8 683.8,628.8 681.4,634.6 677.9,637 676.3,641.5 676.3,642.7 686.8,646.2 690.1,646.2 	"/>
	<path id="prince_edward" class="st13" d="M653.3,704.3l3.7,2.9l6.2,3.7l7-3.6v-4h-1.7v-8.7c-0.5,0.1-1,0.3-1.6,0.3
		c-0.3,0.1-0.5,0.2-0.8,0.3c-1.5,0.5-3.2,0.8-4.1,0.8h-2.1l-3.5,1l-3-1.1l-2.5,6.7L653.3,704.3z"/>
	<polygon id="goochland" class="st13" points="677.6,671.8 678.7,673.7 680.7,673 693.6,673 693.7,672.7 694.4,672.2 693.7,671.3 
		692.9,667.7 685.3,667.7 685.3,667.3 680.8,665.3 677.8,662.6 674.8,660.7 672.1,660 671,662 671,665.2 669,666.9 669,668.8 
		673.7,672.2 	"/>
	<path id="cumberland" class="st13" d="M672.2,673.8l-4-2.8l-1,1.5l1.4,4.1l-0.7-0.3v2.7l-2.8,3.1l-2.2,8.1l-1.4,3.6h0.7
		c0.7,0,2.6-0.5,3.6-0.7c0.5-0.2,0.7-0.3,0.9-0.3c2.1-0.4,3.2-0.7,3.7-0.9c0-0.7,0.5-2.1,2-4.2L672.2,673.8L672.2,673.8L672.2,673.8
		z"/>
	<polygon id="buckingham" class="st13" points="646,689.3 650,692 653.3,693.5 656.5,694.7 658.9,694 660.6,689.6 663.1,681 
		665.6,678.1 665.6,675.4 655.9,671.6 653.5,669.2 652.9,673.6 647.8,673.6 644.9,676.9 640.6,684.7 639.6,685.4 642.8,686.6 	"/>
	<polygon id="nelson" class="st13" points="635.7,685.8 636.6,684.7 638.9,683.1 643,675.6 644,674.5 642.8,671.6 634.2,659.3 
		633.2,658.2 628.8,667.5 622,667.5 621.4,668.6 620.8,672.6 624.8,674.2 629.8,677.1 634.3,680.9 	"/>
	<polygon id="king_william" class="st13" points="719.5,665.6 733,665.6 733.3,665.2 730.2,663.6 726.4,661.5 719.9,658.6 
		717.5,656.9 715.8,653.5 714.9,652.5 707.5,658.9 709.3,660.9 719.5,663.8 	"/>
	<path id="powhatan" class="st13" d="M679.4,681.9l0.3-0.3h3.6l3.3,2.6l3.1-2.2l0.6-4.1l0.5-0.3c1.1-0.6,2.2-1.5,2.7-1.8
		c0-0.3-0.1-0.5-0.1-0.7h-12.3l-3.4,1.3l-1.5-2.4l-1.8,0.2v12.2C674.9,686,676.2,684.7,679.4,681.9z"/>
	<polygon id="new_kent" class="st13" points="736.4,673.2 736.4,670.4 733.3,667.9 719.5,667.9 719.5,670.6 717.9,671.3 
		717.9,674.2 732,677.3 	"/>
	<path id="henrico" class="st13" d="M716.2,676.2l-6.6-3.6l0,0c-3-1.6-6.1-3.3-9.1-4.9h-5.3l0.5,2.6l2.5,2.4L696,674l1.3,1.4
		l1.6-2.7c1.6-0.8,3.4-1.6,5-2.6c1.9,1,3.8,2,5.7,3v6.5l3.7,0.1l0.5,2.1h2.5v-4h1.2l0.3-1.2L716.2,676.2z"/>
	<polygon id="essex" class="st13" points="726.3,643.2 721.5,638.3 717.9,636.3 717.6,635 714.7,635 719.3,645.3 720.8,646.7 
		723.2,650.3 726.2,653.7 728.8,653.7 730.2,652.3 732.9,652.3 733.6,651 732.7,648.9 	"/>
	<polygon id="danville" class="st13" points="625.3,748.5 624.6,747.6 621.6,747.6 618.4,749.2 618.2,749.5 	"/>
	<path id="botetourt" class="st13" d="M596,699.8l1.4-3.5h3.3l1.6,1.6l2.2-1.3l1.5-3.2v-1.3c-1.7-1.7-4.5-4.4-4.8-5.1
		c-0.2-0.3-0.7-1-1.3-1.6c-0.9-1.1-1.3-1.6-1.5-2.1c-0.3-0.3-1.3-1.1-2.2-1.7l-7.2,0.1c-1,1.6-2.9,4.3-4,4.9c-0.5,0.3-1.7,1.7-2.7,3
		v2.6l3.4,3.2v3.1l-3,5.7l7.3,4.1l3.1,2.1l0.3-1.3l1.5-6.7L596,699.8z"/>
	<polygon id="arlington" class="st13" points="703.9,588.4 702,590.3 700.7,589.6 700.6,590.6 704.2,590.9 705.7,589.8 705.3,589.4 
			"/>
	<path id="fairfax" class="st13" d="M700.6,597.1l2.7-3.5v-0.5l-2.5-0.3l-2.1,1.7l-1.9,2.5h-5.9l0.2-1.3c0.1-0.6,0.1-1.4,0.1-1.6
		l-0.3-0.5l0.3-0.5c0.3-0.4,0.5-0.8,3.7-1.5l3.5-2.5l0.3-0.7l-6.6-3.4l-5.3,10.5l3,2.7l7.7,3.6l4.3,2.7c0.6-0.9,1.3-1.7,1.9-2.6
		c1.3-1.5,1.7-3.2,2.1-5.1L700.6,597.1L700.6,597.1z"/>
	<path id="alexandria" class="st13" d="M706.7,593.6l0.1-0.5l0.1-0.2v-1.2l-1.2,0.8v1.7l-0.3,0.4h1.2
		C706.5,594.4,706.6,594,706.7,593.6z"/>
	<path id="king_george" class="st13" d="M714.2,626.9c-4.5,0-7.7-0.6-9.5-1.7c-0.3-0.2-0.5-0.3-0.7-0.5v4.6l9,3.5h2.4l-0.6-5.5
		L714.2,626.9z"/>
	<path id="fairfax_city" class="st13" d="M693.5,594.5c0,0.1,0,0.3,0,0.4h2.4l1.3-1.7l-1.3,0.9l-0.3,0.1
		C694.9,594.1,694.1,594.3,693.5,594.5z"/>
	<path id="bland" class="st13" d="M537.4,723.6c-0.2,0.1-0.3,0.1-0.5,0.2c0,0-0.3,0.3-0.5,0.5c-0.4,0.5-0.9,1.1-1.6,1.5
		c-1.2,0.8-2.3,1.1-3.2,1.3c-0.3,0.1-0.6,0.2-0.7,0.2c-0.1,0-0.3,0.2-0.4,0.3c-1.1,0.6-2,1.2-3.1,1.3l-0.2,0.5l-3.2,6.7l-3.3,5.2
		l2.2,2.4l0.4-0.5V741l4.2-4.1h7.9v-0.7l5.5-2.9l2.1-1.7l1.1-4.2l-0.8-0.5l-3.8-3.8C538.7,723.2,538,723.5,537.4,723.6z"/>
	<path id="giles" class="st13" d="M560.7,707.7c-0.1,0-0.2,0-0.3,0c-0.4,0-1.3-0.1-1.5,0c-0.2,0.1-0.6,0.3-1.1,0.6l-0.5,0.3
		c-0.9,0.5-1.6,0.8-2.1,1.1c-0.7,0.3-0.7,0.3-1.2,1.1l-0.3,0.5c-1.7,3.2-3.5,4.5-7.8,2.6c-0.7-0.3-1.3-0.7-1.9-1.1
		c-0.2,0.4-0.3,0.7-0.4,1.1c-0.3,0.8-0.5,1.5-0.9,2.2c-0.2,0.3-0.3,1-0.5,1.6c-0.3,1.1-0.5,2.4-1.3,3.6l3.7,3.7l2.6,1.3
		c2.5-1.8,10.9-8.2,11.5-8.6c0.5-0.3,3.1-1.8,4.5-2.6l-1.6-5.4L560.7,707.7z"/>
	<path id="portsmouth" class="st13" d="M563.5,726l-1.1-0.6l-2.3,0.7v1.7l0.6,0.7c0.9-0.5,2.2-1.4,2.8-1.7
		C563.6,726.5,563.5,726.2,563.5,726z"/>
	<polygon id="wythe" class="st13" points="551.6,741.7 544,733.4 542.3,735 537.8,737.4 537.8,738.9 528.6,738.9 525.8,741.7 
		525.8,743.7 524.6,745.3 525.5,746.8 527.2,748.8 528.2,751.8 530.3,753.8 539,749.1 539,749 551.6,742.6 	"/>
	<polygon id="bristol" class="st13" points="489.4,767.1 488.2,766.9 487.6,767.4 487.6,768.3 490.9,768.3 490.9,768.3 	"/>
	<polygon id="russell" class="st13" points="492.5,739.2 492.5,741.6 490.8,744.3 484.7,746.2 477.6,752.1 476.7,754.8 474.5,756.6 
		479.1,764.2 484.3,758.4 488.9,754.1 492.9,753.1 496,750.7 500.3,747.2 500.2,747.2 501.9,746.1 496.3,737.8 	"/>
	<path id="wise" class="st13" d="M464.3,741.1l-0.2-1.8c-0.9,1.5-2.1,2.9-3.4,4.2c-0.7,1.1-1.7,2.1-2.7,2.7c-0.7,0.5-1.3,1-1.7,1.7
		c-0.5,0.7-1,1.4-1.4,2c-1.3,1.7-1.8,2.5-2.3,4.6c-0.1,0.4-0.2,0.7-0.3,1.1c-0.2,0.8-0.4,1.8-0.6,2.8h2.4v2.2h3.5l1.1-1.1l0.9-2.7
		l-1.5-1.3l1.9-3.6l3.3-4.2l3.4,5l-2.2,2.7h7.9l2.2-1.8l0.7-1.9l-5.2-1.3l-2.4-2.7l-2.4-5.7L464.3,741.1z"/>
	<path id="franklin" class="st13" d="M604.6,723.7l-2.9-1.5l-3.6-2.5l-1.5-1.8h-3.4c-0.3,0.3-0.4,0.5-0.6,0.6
		c-0.3,0.6-1.2,2.5-1.8,4l-0.3,0.5l-3.2,0.8l-2.6-1.9l-2.2,2.7l-1.3,14l5.9,3.4l2.2-2.2h15.1l1.8-3.4l-0.3-11.6L604.6,723.7z"/>
	<path id="buchanan" class="st13" d="M489.8,723.8c-1.1-0.8-3.2-2.6-3.4-5.6c-0.1,0.2-0.2,0.3-0.2,0.4c-0.5,1.1-1.4,2-2.2,2.7
		c-0.3,0.4-0.5,0.7-0.7,1.1c-0.2,0.3-0.4,0.5-0.5,0.7l-0.4,0.7l-0.7,0.5c-0.3,0.2-0.5,0.5-0.7,1.1c-0.3,0.4-0.5,0.7-0.7,1.2
		l-0.3,0.5l-0.4,0.3c-1,0.7-2.1,1.3-3.2,1.8c-0.3,0.2-0.6,0.3-0.9,0.5l8.9,14.4l4.7-1.5l0.9-1.5v-3.3l5.7-2.2l1.8-3.2l0.3-0.2
		c0,0,1.3-0.7,1.8-1.1l0,0c-1-0.5-2-0.8-3.1-1l-2.3-0.4l-0.2-2.1c-0.5-0.7-2.4-2.2-3.2-2.7C490.6,724.4,490.1,724.1,489.8,723.8z"/>
	<path id="tazewell" class="st13" d="M525.2,728.4l0.1-0.2c-1.3-0.6-2.1-1.7-2.8-2.6c-0.3-0.4-0.8-1.1-1.2-1.3
		c-0.2-0.1-0.3-0.1-0.3-0.2c-0.2,0.2-0.3,0.3-0.4,0.4c-0.3,0.3-0.5,0.5-0.7,0.8c-0.5,0.5-1,1.1-1.5,1.7c-0.7,0.9-1.6,1.8-2.6,2.7
		c-2.3,2.2-4.6,2.6-6.9,2.8c-0.6,0.1-1.3,0.2-1.7,0.2c-1.8,0-3.5-0.5-4.8-1c-0.5,0.4-0.8,0.7-1.1,0.9c-0.5,0.3-1.3,0.7-1.7,1
		l-1.4,2.5l5.9,8.7l5.2-1.6l5.1-3.3h4.5l3.5-5.3L525.2,728.4z"/>
	<path id="dickenson" class="st13" d="M472.7,731.4c-0.3,0.2-0.6,0.4-0.7,0.5c-0.3,0.3-0.4,0.4-0.6,0.7c-0.6,0.7-1.4,1.6-2.6,2.4
		l-0.3,0.2l-2.2,1.1l-0.1,0.1l0.3,3.6l0.8,0.7l2.5,6.2l1.6,1.7l5.6,1.4l5.7-4.7l-8.8-14.2C473.4,731,473.1,731.3,472.7,731.4z"/>
	<polygon id="patrick" class="st13" points="589,755.1 588.9,752.9 585.4,749 586.2,743.9 580.3,740.6 573.8,747.1 569.5,753.6 
		569.5,757.9 584.1,756.1 	"/>
	<polygon id="floyd" class="st13" points="572.1,745.7 579.1,738.7 580.3,724.7 577.6,726.7 575.4,728.5 571.7,734 563,736.4 
		559.8,738.9 562.8,740.5 563.5,743.7 566.9,746.7 567.9,748.7 569.3,749.8 	"/>
	<path id="campbell" class="st13" d="M642.8,708.9l-11.6-10.4h-1.5l-1.5,1.7l-2.6,3.4l-1.8,2.9L622,706l-0.5,1.2
		c-0.2,0.4-1.9,4.8-2.3,5.7c-0.4,0.7-1.8,2.3-2.7,3.2v2.7l0.7-0.7l3.6-2.6l1.2-1h4.8l5.7,2.8l8.9,1.8L642.8,708.9z"/>
	<path id="appomatiox" class="st13" d="M648.6,702.5l2.7-7.4l-2.6-1.3l-4.2-2.7l-3.2-2.6l-3.8-1.5l-1.5,1.7c-0.4,0.9-2,5-2.2,5.3
		l0,0c-0.1,0.4-0.4,1.2-1.1,3.1l11.1,9.8L648.6,702.5z"/>
	<path id="westmoreland" class="st13" d="M742.4,633.5c-1.8-1.7-3.2-3.3-5.7-3.7c-4.1-0.8-8.8,0.7-12.8-1c-0.9-0.4-5.2-2.2-5.7-2.9
		l0,0l-1.3,2.3l0.5,4.6h1.5l0.6,2.1l1.1,0.6l4.8-3l6.7,6.9h6.7l0.4-0.7v-2.1l3.6-2.3C743,634,742.7,633.7,742.4,633.5z"/>
	<polygon id="richmond" class="st13" points="739.6,641.7 731.6,641.7 725.4,635.3 723.2,636.7 727.8,641.7 734.6,647.6 
		735.5,649.9 740.6,649.9 742.2,648.6 744.9,647.7 	"/>
	<path id="northampton" class="st13" d="M775.5,677l1.7-5.4l4.3-5.4l-1.5-3.3l-0.3-0.4l-2.2,3.5l-2.8,3c0.2,1.4,0.3,2.8,0.3,3.2
		c0.1,0.4,0.3,1.3-1.7,2.5l0.1,5.7c1.7-0.4,2-1,3.2-2.9L775.5,677z"/>
	<polygon id="accomack" class="st13" points="788.7,658.4 787.9,650.6 793.5,643.8 791.9,641.7 787.4,646.8 782.3,654.1 780,655.2 
		780.5,660.3 782,661.8 783.1,664.4 	"/>
	<path id="lancaster" class="st13" d="M757.2,655.7l-0.5,0.9l-5.2-2.2l-4.9-4.8l-3.5,1.2l-0.4,0.3c-0.4,0.6-0.7,1.3-1.2,1.8
		c1.9,2.6,3.9,5.1,5.8,7.7h5.1l-0.3-0.5c-0.2-0.5-0.5-0.8-0.6-1.3c-1,0.1-2.9,0-3.6,0h-0.5c-1.2-2.3-2.4-4.6-3.6-6.8l1.9,1.5
		l2.7,3.2c1.4,0,2.8,0.1,3.2,0c0.4-0.1,1.3-0.2,2.3,2l5.7,0.5C759.6,657.4,759.1,657.1,757.2,655.7z"/>
	<path id="middlesex" class="st13" d="M739.7,654.2l-3,1.6l6.7,6.6l7.2,2.5l2.1,1.5l0.8-2.7h7.1c-0.3-0.5-0.5-1.2-0.7-1.9v1.2h-13.8
		L739.7,654.2z"/>
	<polygon id="mecklenburg" class="st13" points="686.8,738.6 687.8,738.3 687.3,735.2 685.3,735.2 686,728.4 663.4,724.5 663.2,726 
		660.7,734.9 659.2,737 659.2,739.6 657.1,742.1 657.1,742.6 676.8,738.6 	"/>
	<path id="poquoson" class="st13" d="M763.4,688.7l1.9-2l0.7,0.7c-0.5-1-1.3-1.7-2.8-2.6c-0.5-0.3-1.2-0.5-1.8-0.6v5.6h0.1
		L763.4,688.7z"/>
	<polygon id="dinwiddie" class="st13" points="704.6,716.5 705.1,714.9 711.9,708 711.8,702.9 710,702 710,698.2 707.5,696.9 
		704,694.8 698.6,694.1 693.4,700.2 693.4,705.6 692.6,706.7 692.6,710.8 702.6,716.5 	"/>
	<path id="amelia" class="st13" d="M696,693.8l-0.7-0.1l-2.6,1.7l-4.4-3.7l-1.3-1.9l-1.4-3.3l-3.1-2.5h-2c-1.9,1.7-4,3.6-4.4,4.2
		c-0.4,0.8-1.4,1.1-2.2,1.3c-0.7,1-1.3,2.1-1.4,2.6c0.2,0.3,0.3,0.6,0.2,0.9c-0.1,0.5-0.4,0.9-1.7,1.4v0.9l21,3.6L696,693.8z"/>
	<polygon id="lunenburg" class="st13" points="671.7,709.3 664.5,713 663.6,722.2 686.2,726.2 686.8,719.6 683.9,713.2 	"/>
	<polygon id="nottoway" class="st13" points="690.3,706 691.3,704.8 691.3,700.7 671,697.3 671,701.1 672.7,701.1 672.7,707.3 
		684.8,711.2 690.3,710.6 	"/>
	<path id="newport_news" class="st13" d="M752.6,695.1c0.5,0.3,1.4,0.8,1.9,1.2h4.5l-0.1-0.4l-1.5-1.5l-1.3-1.6
		c-0.3,0.2-0.7,0.3-1.1,0.2c-0.4-0.1-1-0.4-1.3-1.4c-0.2-0.6-1.2-1.9-1.9-2.7h-3v-1.8h-1.4l-0.6,0.6l3.6,3L752.6,695.1z"/>
	<path id="charles_city" class="st13" d="M734.6,687.6l-0.9-1.7v-3.6l-2-2.7l-11.8-2.6l-0.5,2.9h-0.8v1.7v1.2v2.6
		c0.3-0.2,0.4-0.3,0.6-0.5l0.3-0.3h5.1v2.4l8.5-0.5L734.6,687.6z"/>
	<polygon id="williamsburg" class="st13" points="745.6,685.4 745,683.7 742,682.9 742,686.4 744.6,686.4 	"/>
	<path id="york" class="st13" d="M759.3,684.3l-3.4,2.2l-0.4,0.4c-1.3-1.1-2.6-2.2-3.9-3.3l-4.2-4.4h-1.9l-1.9,1.7l3.3,0.9l0.7,2.7
		h3.4v1.8h1.7c0.5,0.5,1.1,1.1,1.6,1.6l-0.1,0.1c0.5,0.6,1,1.4,1.3,2.1l0.7-0.8l1.8,2.5l1.1-1.3L759.3,684.3L759.3,684.3z"/>
	<path id="scott" class="st13" d="M478.2,768.9v-1.5l-5.8-9.8h-8.2l0,0H462l-1.1,3.2l-2.9,2.7c-1.5,2-3.6,4.6-3.7,4.9
		c0,0.2-0.3,0.7-3.5,4.3l-0.1,0.5h0.2h7.4l20.4-4L478.2,768.9z"/>
	<polygon id="norton" class="st13" points="462.5,756 462.2,754.9 464.1,752.5 463.3,751.4 462,753.1 461.1,754.9 462.2,756 	"/>
	<polygon id="galax" class="st13" points="546.2,756.5 547.9,760.2 549.1,756.5 	"/>
	<polygon id="danville_1_" class="st13" points="562.8,758.8 566.8,757.4 563.1,755.9 	"/>
	<polygon id="grayson" class="st13" points="544.7,756.4 540.4,750.8 530.7,756.1 525.8,759 520.6,762.6 518.6,764.2 546.6,760.6 	
		"/>
	<polygon id="winchester" class="st13" points="654.4,581.1 651.2,581.1 653.6,583.7 	"/>
	<polygon id="falls_church_1_" class="st13" points="702.2,587.1 700.8,585.6 700.6,587.8 	"/>
	<polygon id="clarke" class="st13" points="657.7,578.9 656.1,581 654.5,585.7 655.8,588.9 657.2,588.9 658.6,591.1 661.1,591.4 
		661.8,590.4 662.1,590 665.6,582.9 	"/>
	<path id="hopewell" class="st13" d="M722.2,688.8v-2h-1.9c-0.7,0.6-1.3,1.3-1.7,1.7v0.2L722.2,688.8L722.2,688.8z"/>
	<path id="prince_george" class="st13" d="M727.7,689l-5.6,0.4v0.2h-4.4c-0.1,0.7-0.7,2-1.7,3.8c-0.2,1-0.3,2.2-0.2,2.6l0.4,0.4
		l-0.3,0.8c-0.2,0.5-0.4,1.1-3.7,1.5v2.2l1.7,0.8l0.1,4.2l9-9.2l1.1-0.7v-1.6l3.6-3.6L727.7,689z"/>
	<path id="hampton" class="st13" d="M765.4,697.3c1.2-2.3,2.7-2.5,1.8-5.7c-0.3-1.1-0.5-1.9-0.7-2.7l-1.8,1.8l-2.6,1.5h-1.3
		l-1.3,1.5l1.2,1.2l0.8,3.4h2.6L765.4,697.3z"/>
	<path id="bedford" class="st13" d="M618.4,701.5v-4.2l1.3-2.6l-2.1-0.7l-6.7-4l-2.6,2.4v1.7l-1.9,4.3l-4.3,2.6l-2.2-2.2h-0.8
		l-0.8,2.1l-1.3,2.7l-1.3,6.2l-0.9,6.2h3l2.2,2.6l3.2,2.2l3.1,1.6l1.5,1.2l3.1-1l3.6-1.6v-5.4l0.3-0.3c1.2-1.2,2.5-2.6,2.6-3
		c0.2-0.7,1.4-3.7,2.2-5.7l0.9-1.8v-3.3H618.4L618.4,701.5z M610.6,709.7l-2.4-0.2l-0.9-2.1l2.2-3.1l3.3,2.3L610.6,709.7z"/>
	<polygon id="bedford_city" class="st13" points="609.4,708.2 610.3,708.3 611.2,707 609.9,706.1 609,707.4 	"/>
</g>
<g id="balls">
	<circle id="lee_circle" class="st12" cx="445.4" cy="769.8" r="4.3"/>
	<text id="lee_numbers" transform="matrix(0.986 2.629860e-03 -2.593071e-03 1 444.2096 771.5808)" class="st14 st7 st15">1</text>
	<circle id="wise_circle" class="st12" cx="461.5" cy="744.5" r="4.3"/>
	<text id="wise_numbers" transform="matrix(0.986 2.629860e-03 -2.593071e-03 1 460.3545 746.2755)" class="st14 st7 st15">1</text>
	<circle id="scott_circle" class="st12" cx="466.2" cy="765.1" r="4.3"/>
	<text id="scott_numbers" transform="matrix(0.986 2.629860e-03 -2.593071e-03 1 464.9877 766.8471)" class="st14 st7 st15">1</text>
	<circle id="norton_circle" class="st12" cx="462.4" cy="753.4" r="4.3"/>
	<text id="norton_numbers" transform="matrix(0.986 2.629860e-03 -2.593071e-03 1 461.2104 755.149)" class="st14 st7 st15">1</text>
	<circle id="dickenson_circle" class="st12" cx="473.8" cy="741.7" r="4.3"/>
	<text id="dickenson_numbers" transform="matrix(0.986 2.629860e-03 -2.593071e-03 1 472.6547 743.5026)" class="st14 st7 st15">1</text>
	<circle id="buchanan_circle" class="st12" cx="486.1" cy="732.2" r="4.3"/>
	<text id="buchanan_numbers" transform="matrix(0.986 2.629860e-03 -2.593071e-03 1 484.9265 734.0124)" class="st14 st7 st15">1</text>
	<circle id="russell_circle" class="st12" cx="487.2" cy="749.9" r="4.3"/>
	<text id="russell_numbers" transform="matrix(0.986 2.629860e-03 -2.593071e-03 1 485.9929 751.6994)" class="st14 st7 st15">1</text>
	<circle id="washington_circle" class="st12" cx="495.6" cy="760.4" r="4.3"/>
	<text id="washingtonnumbers" transform="matrix(0.986 2.629860e-03 -2.593071e-03 1 494.455 762.1801)" class="st14 st7 st15">1</text>
	<circle id="tazewell_circle" class="st12" cx="511.5" cy="736.5" r="4.3"/>
	<text id="tazewell_numbers" transform="matrix(0.986 2.629860e-03 -2.593071e-03 1 510.321 738.2388)" class="st14 st7 st15">1</text>
	<circle id="smyth_circle" class="st12" cx="516.7" cy="751.4" r="4.3"/>
	<text id="smyth_numbers" transform="matrix(0.986 2.629860e-03 -2.593071e-03 1 515.5439 753.2216)" class="st14 st7 st15">1</text>
	<circle id="bland_circle" class="st12" cx="532.8" cy="731.7" r="4.3"/>
	<text id="bland_numbers" transform="matrix(0.986 2.629860e-03 -2.593071e-03 1 531.6578 733.4383)" class="st14 st7 st15">1</text>
	<circle id="wythe_circle" class="st12" cx="538.2" cy="743.3" r="4.3"/>
	<text id="wythe_numbers" transform="matrix(0.986 2.629860e-03 -2.593071e-03 1 536.988 745.0546)" class="st14 st7 st15">1</text>
	<circle id="grayson_circle" class="st12" cx="535.8" cy="757.8" r="4.3"/>
	<text id="grayson_numbers" transform="matrix(0.986 2.629860e-03 -2.593071e-03 1 534.6553 759.6379)" class="st14 st7 st15">1</text>
	<circle id="bristol_circle" class="st12" cx="490.3" cy="778.3" r="4.3"/>
	<text id="bristol_numbers" transform="matrix(0.986 2.629860e-03 -2.593071e-03 1 489.099 780.0834)" class="st14 st7 st15">1</text>
	<circle id="galax_circle" class="st12" cx="548.8" cy="769.5" r="4.3"/>
	<text id="galax_numbers" transform="matrix(0.986 2.629860e-03 -2.593071e-03 1 547.6729 771.325)" class="st14 st7 st15">1</text>
	<circle id="danville_circle_1_" class="st12" cx="567.5" cy="768" r="4.3"/>
	<text id="danville_numbers_1_" transform="matrix(0.986 2.629860e-03 -2.593071e-03 1 566.3049 769.7917)" class="st14 st7 st15">1</text>
	<circle id="carroll_circle" class="st12" cx="556.5" cy="750.9" r="4.3"/>
	<text id="carroll_numbers" transform="matrix(0.986 2.629860e-03 -2.593071e-03 1 555.3141 752.6768)" class="st14 st7 st15">1</text>
	<circle id="floyd_circle" class="st12" cx="572" cy="738.5" r="4.3"/>
	<text id="floyd_numbers" transform="matrix(0.986 2.629860e-03 -2.593071e-03 1 570.7956 740.2605)" class="st14 st7 st15">1</text>
	<circle id="giles_circle" class="st12" cx="552.6" cy="716.9" r="4.3"/>
	<text id="giles_numbers" transform="matrix(0.986 2.629860e-03 -2.593071e-03 1 551.4471 718.6882)" class="st14 st7 st15">1</text>
	<circle id="montgomery_circle" class="st12" cx="570.7" cy="721.3" r="4.3"/>
	<text id="montgomery_numbers" transform="matrix(0.986 2.629860e-03 -2.593071e-03 1 569.5365 723.0661)" class="st14 st7 st15">1</text>
	<circle id="portsmouth_circle_1_" class="st12" cx="562" cy="726.3" r="4.3"/>
	
		<text id="portsmouth_numbers_1_" transform="matrix(0.986 2.629860e-03 -2.593071e-03 1 560.8163 728.1102)" class="st14 st7 st15">1</text>
	<circle id="patrick_circle" class="st12" cx="579.2" cy="750.7" r="4.3"/>
	<text id="patrick_numbers" transform="matrix(0.986 2.629860e-03 -2.593071e-03 1 577.9924 752.5161)" class="st14 st7 st15">1</text>
	<circle id="franklin_circle_1_" class="st12" cx="594" cy="731.2" r="4.3"/>
	<text id="franklin_numbers_1_" transform="matrix(0.986 2.629860e-03 -2.593071e-03 1 592.8146 732.994)" class="st14 st7 st15">1</text>
	<circle id="craig_circle" class="st12" cx="573.3" cy="703.1" r="4.3"/>
	<text id="craig_numbers" transform="matrix(0.986 2.629860e-03 -2.593071e-03 1 572.0925 704.877)" class="st14 st7 st15">1</text>
	<circle id="roanoke_circle" class="st12" cx="578.6" cy="711.7" r="4.3"/>
	<text id="roanoke_numbers" transform="matrix(0.986 2.629860e-03 -2.593071e-03 1 577.4589 713.4768)" class="st14 st7 st15">1</text>
	<circle id="salem_circle" class="st12" cx="583.9" cy="713.2" r="4.3"/>
	<text id="salem_numbers" transform="matrix(0.986 2.629860e-03 -2.593071e-03 1 582.748 714.966)" class="st14 st7 st15">1</text>
	<circle id="roanoke_city_circle" class="st12" cx="588.7" cy="712.1" r="4.3"/>
	<text id="roanoke_city_numbers" transform="matrix(0.986 2.629860e-03 -2.593071e-03 1 587.5585 713.8548)" class="st14 st7 st15">1</text>
	<circle id="henry_circle" class="st12" cx="598" cy="763.7" r="4.3"/>
	<text id="henry_numbers" transform="matrix(0.986 2.629860e-03 -2.593071e-03 1 596.8632 765.4777)" class="st14 st7 st15">1</text>
	<circle id="martinsville_circle" class="st12" cx="599.2" cy="748.5" r="4.3"/>
	<text id="martinsville_numbers" transform="matrix(0.986 2.629860e-03 -2.593071e-03 1 598.0607 750.3323)" class="st14 st7 st15">1</text>
	<circle id="danville_circle" class="st12" cx="626.9" cy="758.7" r="4.3"/>
	<text id="danville_numbers" transform="matrix(0.986 2.629860e-03 -2.593071e-03 1 625.7543 760.501)" class="st14 st7 st15">1</text>
	<circle id="pittsylvania_circle" class="st12" cx="620.3" cy="733.9" r="4.3"/>
	<text id="pittsylvania_numbers" transform="matrix(0.986 2.629860e-03 -2.593071e-03 1 619.1818 735.705)" class="st14 st7 st15">1</text>
	<circle id="bedford_circle" class="st12" cx="606" cy="716.2" r="4.3"/>
	<text id="bedford_numbers" transform="matrix(0.986 2.629860e-03 -2.593071e-03 1 604.8145 718.0288)" class="st14 st7 st15">1</text>
	<circle id="bedford_city_circle" class="st12" cx="609.8" cy="707.2" r="4.3"/>
	<text id="bedford_city_numbers" transform="matrix(0.986 2.629860e-03 -2.593071e-03 1 608.6444 709.0326)" class="st14 st7 st15">1</text>
	<circle id="campbell_circle" class="st12" cx="631.6" cy="709.5" r="4.3"/>
	<text id="campbell_numbers" transform="matrix(0.986 2.629860e-03 -2.593071e-03 1 630.4103 711.2547)" class="st14 st7 st15">1</text>
	<circle id="lynchburg_circle" class="st12" cx="623.7" cy="699.2" r="4.3"/>
	<text id="lynchburg_numbers" transform="matrix(0.986 2.629860e-03 -2.593071e-03 1 622.5647 701.0296)" class="st14 st7 st15">1</text>
	<circle id="halifax_circle" class="st12" cx="643.1" cy="733.6" r="4.3"/>
	<text id="halifax_numbers" transform="matrix(0.986 2.629860e-03 -2.593071e-03 1 641.9143 735.3549)" class="st14 st7 st15">1</text>
	<circle id="amherst_circle" class="st12" cx="623.4" cy="685.7" r="4.3"/>
	<text id="amherst_numbers" transform="matrix(0.986 2.629860e-03 -2.593071e-03 1 622.2679 687.4536)" class="st14 st7 st15">1</text>
	<circle id="botetourt_circle" class="st12" cx="592.2" cy="692.3" r="4.3"/>
	<text id="botetourt_numbers" transform="matrix(0.986 2.629860e-03 -2.593071e-03 1 591.0239 694.0807)" class="st14 st7 st15">1</text>
	<circle id="alleghany_circle" class="st12" cx="564.3" cy="677.5" r="4.3"/>
	<text id="alleghany_numbers" transform="matrix(0.986 2.629860e-03 -2.593071e-03 1 563.1792 679.3057)" class="st14 st7 st15">1</text>
	<circle id="covington_circle" class="st12" cx="581.2" cy="682.8" r="4.3"/>
	<text id="covington_numbers" transform="matrix(0.986 2.629860e-03 -2.593071e-03 1 580.0681 684.5436)" class="st14 st7 st15">1</text>
	<circle id="rockbridge_circle" class="st12" cx="608.4" cy="668.2" r="4.3"/>
	<text id="rockbridge_numbers" transform="matrix(0.986 2.629860e-03 -2.593071e-03 1 607.2759 669.9901)" class="st14 st7 st15">1</text>
	<circle id="lexington_circle" class="st12" cx="605.3" cy="676.8" r="4.3"/>
	<text id="lexington_numbers" transform="matrix(0.986 2.629860e-03 -2.593071e-03 1 604.1697 678.5546)" class="st14 st7 st15">1</text>
	<circle id="buena_vista_circle" class="st12" cx="611.7" cy="679.1" r="4.3"/>
	<text id="buena_vista_numbers" transform="matrix(0.986 2.629860e-03 -2.593071e-03 1 610.566 680.916)" class="st14 st7 st15">1</text>
	<circle id="bath_circle" class="st12" cx="592.5" cy="664.6" r="4.3"/>
	<text id="bath_numbers" transform="matrix(0.986 2.629860e-03 -2.593071e-03 1 591.3204 666.3772)" class="st14 st7 st15">1</text>
	<circle id="charlotte_circle" class="st12" cx="653.8" cy="715.6" r="4.3"/>
	<text id="charlotte_numbers" transform="matrix(0.986 2.629860e-03 -2.593071e-03 1 652.6445 717.4176)" class="st14 st7 st15">1</text>
	<circle id="highland_circle" class="st12" cx="595.9" cy="645" r="4.3"/>
	<text id="highland_numbers" transform="matrix(0.986 2.629860e-03 -2.593071e-03 1 594.7344 646.8032)" class="st14 st7 st15">1</text>
	<circle id="augusta_circle" class="st12" cx="609.9" cy="653.8" r="4.3"/>
	<text id="augusta_numbers" transform="matrix(0.986 2.629860e-03 -2.593071e-03 1 608.7274 655.5789)" class="st14 st7 st15">1</text>
	<circle id="staunton_circle" class="st12" cx="621.2" cy="650.5" r="4.3"/>
	<text id="staunton_numbers" transform="matrix(0.986 2.629860e-03 -2.593071e-03 1 620.0759 652.2639)" class="st14 st7 st15">1</text>
	<circle id="waynesboro_circle" class="st12" cx="630.4" cy="655.3" r="4.3"/>
	<text id="waynesboro_numbers" transform="matrix(0.986 2.629860e-03 -2.593071e-03 1 629.2277 657.0437)" class="st14 st7 st15">1</text>
	<circle id="nelson_circle" class="st12" cx="634.3" cy="672.3" r="4.3"/>
	<text id="nelson_numbers" transform="matrix(0.986 2.629860e-03 -2.593071e-03 1 633.1679 674.0621)" class="st14 st7 st15">1</text>
	<circle id="appomatiox_circle" class="st12" cx="642.4" cy="697.2" r="4.3"/>
	<text id="appomatiox_numbers" transform="matrix(0.986 2.629860e-03 -2.593071e-03 1 641.2723 698.9921)" class="st14 st7 st15">1</text>
	<circle id="prince_edward_circle" class="st12" cx="662" cy="702.8" r="4.3"/>
	
		<text id="prince_edward_numbers" transform="matrix(0.986 2.629860e-03 -2.593071e-03 1 660.8448 704.5703)" class="st14 st7 st15">1</text>
	<circle id="albemarlee_circle" class="st12" cx="646.7" cy="663.8" r="4.3"/>
	<text id="albemarlee_numbers" transform="matrix(0.986 2.629860e-03 -2.593071e-03 1 645.5756 665.6367)" class="st14 st7 st15">1</text>
	<circle id="charlottesville_circle" class="st12" cx="649.7" cy="653.3" r="4.3"/>
	
		<text id="charlottesville_numbers" transform="matrix(0.986 2.629860e-03 -2.593071e-03 1 648.5277 655.1103)" class="st14 st7 st15">1</text>
	<circle id="buckingham_circle" class="st12" cx="654" cy="682.6" r="4.3"/>
	<text id="buckingham_numbers" transform="matrix(0.986 2.629860e-03 -2.593071e-03 1 652.8276 684.4364)" class="st14 st7 st15">1</text>
	<circle id="cumberland_circle" class="st12" cx="668.2" cy="684.6" r="4.3"/>
	<text id="cumberland_numbers" transform="matrix(0.986 2.629860e-03 -2.593071e-03 1 667.0169 686.4288)" class="st14 st7 st15">1</text>
	<circle id="lunenburg_circle" class="st12" cx="675.3" cy="717.3" r="4.3"/>
	<text id="lunenburg_numbers" transform="matrix(0.986 2.629860e-03 -2.593071e-03 1 674.1812 719.1328)" class="st14 st7 st15">1</text>
	<circle id="mecklenburg_circle" class="st12" cx="672.4" cy="732.5" r="4.3"/>
	<text id="mecklenburg_numbers" transform="matrix(0.986 2.629860e-03 -2.593071e-03 1 671.218 734.3046)" class="st14 st7 st15">1</text>
	<circle id="brunswick_circle" class="st12" cx="695.7" cy="725.1" r="4.3"/>
	<text id="brunswick_numbers" transform="matrix(0.986 2.629860e-03 -2.593071e-03 1 694.5049 726.9102)" class="st14 st7 st15">1</text>
	<circle id="nottoway_circle" class="st12" cx="681.4" cy="704.4" r="4.3"/>
	<text id="nottoway_numbers" transform="matrix(0.986 2.629860e-03 -2.593071e-03 1 680.1846 706.1545)" class="st14 st7 st15">1</text>
	<circle id="amelia_circle" class="st12" cx="681.7" cy="692.1" r="4.3"/>
	<text id="amelia_numbers" transform="matrix(0.986 2.629860e-03 -2.593071e-03 1 680.5006 693.8882)" class="st14 st7 st15">1</text>
	<circle id="powhatan_circle" class="st12" cx="682.7" cy="678.5" r="4.3"/>
	<text id="powhatan_numbers" transform="matrix(0.986 2.629860e-03 -2.593071e-03 1 681.5389 680.2659)" class="st14 st7 st15">1</text>
	<circle id="dinwiddie_circle" class="st12" cx="702.6" cy="705" r="4.3"/>
	<text id="dinwiddie_numbers" transform="matrix(0.986 2.629860e-03 -2.593071e-03 1 701.398 706.7819)" class="st14 st7 st15">1</text>
	<circle id="chesterfield_circle" class="st12" cx="700.8" cy="687.5" r="4.3"/>
	<text id="chesterfield_numbers" transform="matrix(0.986 2.629860e-03 -2.593071e-03 1 699.6132 689.3215)" class="st14 st7 st15">1</text>
	<circle id="fluvanna_circle" class="st12" cx="662.3" cy="663.8" r="4.3"/>
	<text id="fluvanna_numbers" transform="matrix(0.986 2.629860e-03 -2.593071e-03 1 661.1578 665.6182)" class="st14 st7 st15">1</text>
	<circle id="goochland_circle" class="st12" cx="680.1" cy="668.5" r="4.3"/>
	<text id="goochland_numbers" transform="matrix(0.986 2.629860e-03 -2.593071e-03 1 678.9426 670.3326)" class="st14 st7 st15">1</text>
	<circle id="louisa_circle" class="st12" cx="676.3" cy="652.4" r="4.3"/>
	<text id="louisa_numbers" transform="matrix(0.986 2.629860e-03 -2.593071e-03 1 675.1298 654.2271)" class="st14 st7 st15">1</text>
	<circle id="hanover_circle" class="st12" cx="702.1" cy="662.1" r="4.3"/>
	<text id="hanover_numbers" transform="matrix(0.986 2.629860e-03 -2.593071e-03 1 700.9536 663.8849)" class="st14 st7 st15">1</text>
	<circle id="greensville_circle" class="st12" cx="720.7" cy="740" r="4.3"/>
	<text id="greensville_numbers" transform="matrix(0.986 2.629860e-03 -2.593071e-03 1 719.5184 741.7626)" class="st14 st7 st15">1</text>
	<circle id="emporia_circle" class="st12" cx="710.6" cy="726.1" r="4.3"/>
	<text id="emporia_numbers" transform="matrix(0.986 2.629860e-03 -2.593071e-03 1 709.4741 727.9325)" class="st14 st7 st15">1</text>
	<circle id="petersburg_circle" class="st12" cx="711.7" cy="694.5" r="4.3"/>
	<text id="petersburg_numbers" transform="matrix(0.986 2.629860e-03 -2.593071e-03 1 710.4965 696.288)" class="st14 st7 st15">1</text>
	<circle id="colonial_heights_circle" class="st12" cx="713.4" cy="689.1" r="4.3"/>
	
		<text id="colonial_heights_numbers" transform="matrix(0.986 2.629860e-03 -2.593071e-03 1 712.1923 690.855)" class="st14 st7 st15">1</text>
	<circle id="hopewell_circle" class="st12" cx="720.7" cy="687.2" r="4.3"/>
	<text id="hopewell_numbers" transform="matrix(0.986 2.629860e-03 -2.593071e-03 1 719.4979 689.0215)" class="st14 st7 st15">1</text>
	<circle id="prince_george_circle" class="st12" cx="719.3" cy="695.7" r="4.3"/>
	
		<text id="prince_george_numbers" transform="matrix(0.986 2.629860e-03 -2.593071e-03 1 718.0853 697.5007)" class="st14 st7 st15">1</text>
	<circle id="sussex_circle" class="st12" cx="720.4" cy="711.2" r="4.3"/>
	<text id="sussex_numbers" transform="matrix(0.986 2.629860e-03 -2.593071e-03 1 719.1965 712.9603)" class="st14 st7 st15">1</text>
	<circle id="richmond_city_circle" class="st12" cx="703.5" cy="676.3" r="4.3"/>
	
		<text id="richmond_city_numbers" transform="matrix(0.986 2.629860e-03 -2.593071e-03 1 702.3797 678.0656)" class="st14 st7 st15">1</text>
	<circle id="henrico_circle" class="st12" cx="712.2" cy="676.7" r="4.3"/>
	<text id="henrico_numbers" transform="matrix(0.986 2.629860e-03 -2.593071e-03 1 711.0702 678.4438)" class="st14 st7 st15">1</text>
	<circle id="charles_city_circle" class="st12" cx="727.1" cy="681.9" r="4.3"/>
	<text id="charles_city_numbers" transform="matrix(0.986 2.629860e-03 -2.593071e-03 1 725.9337 683.6548)" class="st14 st7 st15">1</text>
	<circle id="new_kent_circle" class="st12" cx="727" cy="671.7" r="4.3"/>
	<text id="new_kent_numbers" transform="matrix(0.986 2.629860e-03 -2.593071e-03 1 725.8351 673.4943)" class="st14 st7 st15">1</text>
	<circle id="king_william_circle" class="st12" cx="719.4" cy="661.2" r="4.3"/>
	<text id="king_william_numbers" transform="matrix(0.986 2.629860e-03 -2.593071e-03 1 718.1962 663.0159)" class="st14 st7 st15">1</text>
	<circle id="king_and_queen_circle" class="st12" cx="732.9" cy="658.9" r="4.3"/>
	
		<text id="king_and_queen_numbers" transform="matrix(0.986 2.629860e-03 -2.593071e-03 1 731.7522 660.6541)" class="st14 st7 st15">1</text>
	<circle id="james_city_circle" class="st12" cx="737.7" cy="679.5" r="4.3"/>
	<text id="james_city_numbers" transform="matrix(0.986 2.629860e-03 -2.593071e-03 1 736.4965 681.3138)" class="st14 st7 st15">1</text>
	<circle id="southampton_circle" class="st12" cx="729.4" cy="722.6" r="4.3"/>
	<text id="southampton_numbers" transform="matrix(0.986 2.629860e-03 -2.593071e-03 1 728.1923 724.4253)" class="st14 st7 st15">1</text>
	<circle id="franklin_city_circle" class="st12" cx="739.1" cy="722.3" r="4.3"/>
	
		<text id="franklin_city_numbers" transform="matrix(0.986 2.629860e-03 -2.593071e-03 1 737.9626 724.1291)" class="st14 st7 st15">1</text>
	<circle id="isle_of_wight_circle" class="st12" cx="747.4" cy="705.1" r="4.3"/>
	
		<text id="isle_of_wight_numbers" transform="matrix(0.986 2.629860e-03 -2.593071e-03 1 746.2114 706.9327)" class="st14 st7 st15">1</text>
	<circle id="surry_circle" class="st12" cx="736" cy="695.6" r="4.3"/>
	<text id="surry_numbers" transform="matrix(0.986 2.629860e-03 -2.593071e-03 1 734.863 697.4072)" class="st14 st7 st15">1</text>
	<circle id="suffolk_circle" class="st12" cx="755.3" cy="717" r="4.3"/>
	<text id="suffolk_numbers" transform="matrix(0.986 2.629860e-03 -2.593071e-03 1 754.1133 718.7883)" class="st14 st7 st15">1</text>
	<circle id="williamsburg_circle" class="st12" cx="743.3" cy="684.4" r="4.3"/>
	<text id="williamsburg_numbers" transform="matrix(0.986 2.629860e-03 -2.593071e-03 1 742.1772 686.1992)" class="st14 st7 st15">1</text>
	<circle id="hampton_circle" class="st12" cx="782.1" cy="693.1" r="4.3"/>
	<text id="hampton_numbers" transform="matrix(0.986 2.629860e-03 -2.593071e-03 1 780.8912 694.9167)" class="st14 st7 st15">1</text>
	<circle id="poquoson_circle" class="st12" cx="780.6" cy="683.3" r="4.3"/>
	<text id="poquoson_numbers" transform="matrix(0.986 2.629860e-03 -2.593071e-03 1 779.4821 685.1028)" class="st14 st7 st15">1</text>
	<circle id="newport_news_circle" class="st12" cx="752.4" cy="691.7" r="4.3"/>
	<text id="newport_news_numbers" transform="matrix(0.986 2.629860e-03 -2.593071e-03 1 751.2062 693.485)" class="st14 st7 st15">1</text>
	<circle id="york_circle" class="st12" cx="752.5" cy="686" r="4.3"/>
	<text id="york_numbers" transform="matrix(0.986 2.629860e-03 -2.593071e-03 1 751.2953 687.7664)" class="st14 st7 st15">1</text>
	<circle id="norfolk_circle" class="st12" cx="771.1" cy="702.2" r="4.3"/>
	<text id="norfolk_numbers" transform="matrix(0.986 2.629860e-03 -2.593071e-03 1 769.9507 703.9755)" class="st14 st7 st15">1</text>
	<circle id="portsmouth_circle" class="st12" cx="765.1" cy="704.6" r="4.3"/>
	<text id="portsmouth_numbers" transform="matrix(0.986 2.629860e-03 -2.593071e-03 1 763.9766 706.3849)" class="st14 st7 st15">1</text>
	<circle id="chesapeake_circle" class="st12" cx="770.1" cy="714.6" r="4.3"/>
	<text id="chesapeake_numbers" transform="matrix(0.986 2.629860e-03 -2.593071e-03 1 768.9067 716.4161)" class="st14 st7 st15">1</text>
	<circle id="virginia_beach_circle" class="st12" cx="781.7" cy="708.5" r="4.3"/>
	
		<text id="virginia_beach_numbers" transform="matrix(0.986 2.629860e-03 -2.593071e-03 1 780.5231 710.3328)" class="st14 st7 st15">1</text>
	<circle id="gloucester_circle" class="st12" cx="750.9" cy="674.2" r="4.3"/>
	<text id="gloucester_numbers" transform="matrix(0.986 2.629860e-03 -2.593071e-03 1 749.7048 675.9662)" class="st14 st7 st15">1</text>
	<circle id="middlesex_circle" class="st12" cx="746.5" cy="662.1" r="4.3"/>
	<text id="middlesex_numbers" transform="matrix(0.986 2.629860e-03 -2.593071e-03 1 745.3004 663.9295)" class="st14 st7 st15">1</text>
	<circle id="mathews_circle" class="st12" cx="760.2" cy="670.1" r="4.3"/>
	<text id="mathews_numbers" transform="matrix(0.986 2.629860e-03 -2.593071e-03 1 759.0142 671.929)" class="st14 st7 st15">1</text>
	<circle id="northampton_circle" class="st12" cx="775.8" cy="671.6" r="4.3"/>
	<text id="northampton_numbers" transform="matrix(0.986 2.629860e-03 -2.593071e-03 1 774.6023 673.3739)" class="st14 st7 st15">1</text>
	<circle id="accomack_circle" class="st12" cx="785.1" cy="655.8" r="4.3"/>
	<text id="accomack_numbers" transform="matrix(0.986 2.629860e-03 -2.593071e-03 1 783.9022 657.5446)" class="st14 st7 st15">1</text>
	<circle id="lancaster_circle" class="st12" cx="750.6" cy="656.6" r="4.3"/>
	<text id="lancaster_numbers" transform="matrix(0.986 2.629860e-03 -2.593071e-03 1 749.3987 658.4033)" class="st14 st7 st15">1</text>
	<circle id="essex_circle" class="st12" cx="724.1" cy="645.8" r="4.3"/>
	<text id="essex_numbers" transform="matrix(0.986 2.629860e-03 -2.593071e-03 1 722.9539 647.6071)" class="st14 st7 st15">1</text>
	<circle id="richmond_circle" class="st12" cx="736" cy="644.7" r="4.3"/>
	<text id="richmond_numbers" transform="matrix(0.986 2.629860e-03 -2.593071e-03 1 734.8652 646.4562)" class="st14 st7 st15">1</text>
	<circle id="northumberland_circle" class="st12" cx="753.1" cy="644.4" r="4.3"/>
	
		<text id="northumberland_numbers" transform="matrix(0.986 2.629860e-03 -2.593071e-03 1 751.9432 646.1683)" class="st14 st7 st15">1</text>
	<circle id="westmoreland_circle" class="st12" cx="730" cy="632.4" r="4.3"/>
	<text id="westmoreland_numbers" transform="matrix(0.986 2.629860e-03 -2.593071e-03 1 728.7915 634.1948)" class="st14 st7 st15">1</text>
	<circle id="caroline_circle" class="st12" cx="705.5" cy="644.5" r="4.3"/>
	<text id="caroline_numbers" transform="matrix(0.986 2.629860e-03 -2.593071e-03 1 704.299 646.279)" class="st14 st7 st15">1</text>
	<circle id="spotsylvania_circle" class="st12" cx="687.9" cy="637.5" r="4.3"/>
	<text id="spotsylvania_numbers" transform="matrix(0.986 2.629860e-03 -2.593071e-03 1 686.7272 639.2843)" class="st14 st7 st15">1</text>
	<circle id="orange_circle" class="st12" cx="668.1" cy="638.1" r="4.3"/>
	<text id="orange_numbers" transform="matrix(0.986 2.629860e-03 -2.593071e-03 1 666.9462 639.8844)" class="st14 st7 st15">1</text>
	<circle id="greene_circle" class="st12" cx="648.5" cy="637.5" r="4.3"/>
	<text id="greene_numbers" transform="matrix(0.986 2.629860e-03 -2.593071e-03 1 647.3306 639.2471)" class="st14 st7 st15">1</text>
	<circle id="madison_circle" class="st12" cx="655.1" cy="629" r="4.3"/>
	<text id="madison_numbers" transform="matrix(0.986 2.629860e-03 -2.593071e-03 1 653.9611 630.7438)" class="st14 st7 st15">1</text>
	<circle id="harrisonburg_circle" class="st12" cx="626.7" cy="633.2" r="4.3"/>
	<text id="harrisonburg_numbers" transform="matrix(0.986 2.629860e-03 -2.593071e-03 1 625.4988 634.9398)" class="st14 st7 st15">1</text>
	<circle id="rockingham_circle" class="st12" cx="623.1" cy="623.2" r="4.3"/>
	<text id="rockingham_numbers" transform="matrix(0.986 2.629860e-03 -2.593071e-03 1 621.961 625.0353)" class="st14 st7 st15">1</text>
	<circle id="king_george_circle" class="st12" cx="709.7" cy="628.6" r="4.3"/>
	<text id="king_george_numbers" transform="matrix(0.986 2.629860e-03 -2.593071e-03 1 708.4964 630.4346)" class="st14 st7 st15">1</text>
	<circle id="fredericksburg_circle" class="st12" cx="693.6" cy="627.6" r="4.3"/>
	
		<text id="fredericksburg_numbers" transform="matrix(0.986 2.629860e-03 -2.593071e-03 1 692.4669 629.3489)" class="st14 st7 st15">1</text>
	<circle id="stafford_circle" class="st12" cx="694.9" cy="620.8" r="4.3"/>
	<text id="stafford_numbers" transform="matrix(0.986 2.629860e-03 -2.593071e-03 1 693.7022 622.5919)" class="st14 st7 st15">1</text>
	<circle id="culpeper_circle" class="st12" cx="668.8" cy="622.2" r="4.3"/>
	<text id="culpeper_numbers" transform="matrix(0.986 2.629860e-03 -2.593071e-03 1 667.6056 623.992)" class="st14 st7 st15">1</text>
	<circle id="page_circle" class="st12" cx="643.4" cy="618.7" r="4.3"/>
	<text id="page_numbers" transform="matrix(0.986 2.629860e-03 -2.593071e-03 1 642.254 620.5362)" class="st14 st7 st15">1</text>
	<circle id="rappahannock_circle" class="st12" cx="657.5" cy="612.1" r="4.3"/>
	<text id="rappahannock_numbers" transform="matrix(0.986 2.629860e-03 -2.593071e-03 1 656.3026 613.9178)" class="st14 st7 st15">1</text>
	<circle id="shenandoah_circle" class="st12" cx="637.2" cy="605.6" r="4.3"/>
	<text id="shenandoah_numbers" transform="matrix(0.986 2.629860e-03 -2.593071e-03 1 636.0499 607.3389)" class="st14 st7 st15">1</text>
	<circle id="warren_circle" class="st12" cx="652.6" cy="598" r="4.3"/>
	<text id="warren_numbers" transform="matrix(0.986 2.629860e-03 -2.593071e-03 1 651.4064 599.8129)" class="st14 st7 st15">1</text>
	<circle id="fauquier_circle" class="st12" cx="673.7" cy="605.4" r="4.3"/>
	<text id="fauquier_numbers" transform="matrix(0.986 2.629860e-03 -2.593071e-03 1 672.5057 607.1841)" class="st14 st7 st15">1</text>
	<circle id="frederick_circle" class="st12" cx="646.7" cy="584.6" r="4.3"/>
	<text id="frederick_numbers" transform="matrix(0.986 2.629860e-03 -2.593071e-03 1 645.5544 586.428)" class="st14 st7 st15">1</text>
	<circle id="winchester_circle" class="st12" cx="652.7" cy="581.9" r="4.3"/>
	<text id="winchester_numbers" transform="matrix(0.986 2.629860e-03 -2.593071e-03 1 651.4951 583.7134)" class="st14 st7 st15">1</text>
	<circle id="clarke_circle" class="st12" cx="660.3" cy="585" r="4.3"/>
	<text id="clarke_numbers" transform="matrix(0.986 2.629860e-03 -2.593071e-03 1 659.0964 586.8275)" class="st14 st7 st15">1</text>
	<circle id="loudoun_circle" class="st12" cx="678" cy="584.2" r="4.3"/>
	<text id="loudoun_numbers" transform="matrix(0.986 2.629860e-03 -2.593071e-03 1 676.7911 585.9772)" class="st14 st7 st15">1</text>
	<circle id="prince_william_circle" class="st12" cx="694.3" cy="608" r="4.3"/>
	
		<text id="prince_william_numbers" transform="matrix(0.986 2.629860e-03 -2.593071e-03 1 693.0986 609.8275)" class="st14 st7 st15">1</text>
	<circle id="manassas_circle" class="st12" cx="687.1" cy="601.5" r="4.3"/>
	<text id="manassas_numbers" transform="matrix(0.986 2.629860e-03 -2.593071e-03 1 685.9504 603.2844)" class="st14 st7 st15">1</text>
	<circle id="manassas_park_circle" class="st12" cx="688.8" cy="598.2" r="4.3"/>
	
		<text id="manassas_park_numbers" transform="matrix(0.986 2.629860e-03 -2.593071e-03 1 687.6064 600.0139)" class="st14 st7 st15">1</text>
	<circle id="fairfax_circle" class="st12" cx="712.6" cy="606.7" r="4.3"/>
	<text id="fairfax_numbers" transform="matrix(0.986 2.629860e-03 -2.593071e-03 1 711.4196 608.4882)" class="st14 st7 st15">1</text>
	<circle id="fairfax_city_circle" class="st12" cx="695.1" cy="594.1" r="4.3"/>
	<text id="fairfax_city_numbers" transform="matrix(0.986 2.629860e-03 -2.593071e-03 1 693.9503 595.8463)" class="st14 st7 st15">1</text>
	<circle id="alexandria_circle" class="st12" cx="717.7" cy="595.5" r="4.3"/>
	<text id="alexandria_numbers" transform="matrix(0.986 2.629860e-03 -2.593071e-03 1 716.5775 597.3251)" class="st14 st7 st15">1</text>
	<circle id="arlington_circle" class="st12" cx="715.7" cy="580.3" r="4.3"/>
	<text id="arlington_numbers" transform="matrix(0.986 2.629860e-03 -2.593071e-03 1 714.5261 582.0954)" class="st14 st7 st15">1</text>
	<circle id="falls_church_circle" class="st12" cx="701.7" cy="573.8" r="4.3"/>
	<text id="falls_church_numbers" transform="matrix(0.986 2.629860e-03 -2.593071e-03 1 700.5479 575.5419)" class="st14 st7 st15">1</text>
	<line class="st16" x1="702.2" y1="578.3" x2="701.7" y2="586"/>
	<line class="st16" x1="712.6" y1="583.4" x2="705.1" y2="589"/>
	<line class="st16" x1="713.3" y1="594.9" x2="706.8" y2="594.1"/>
	<line class="st16" x1="708.9" y1="604.3" x2="704" y2="601.9"/>
	<line class="st16" x1="776.3" y1="684.3" x2="765.7" y2="686.6"/>
	<line class="st16" x1="777.5" y1="692.9" x2="767.6" y2="693.1"/>
	<line class="st16" x1="718.7" y1="736" x2="716.7" y2="731"/>
	<line class="st16" x1="624.9" y1="754.6" x2="622.7" y2="749.3"/>
	<line class="st16" x1="596.2" y1="759.6" x2="594.1" y2="754.3"/>
	<line class="st16" x1="566.2" y1="763.5" x2="564.3" y2="758.6"/>
	<line class="st16" x1="548.4" y1="765.1" x2="547.9" y2="760.3"/>
	<line class="st16" x1="489.5" y1="773.5" x2="489" y2="768.7"/>
	<line class="st16" x1="573.8" y1="683.1" x2="568.1" y2="680"/>
</g>
</svg>
