<?xml version="1.0" encoding="utf-8"?>
<!-- Generator: Adobe Illustrator 24.1.2, SVG Export Plug-In . SVG Version: 6.00 Build 0)  -->
<svg version="1.1" id="Layer_1" xmlns="http://www.w3.org/2000/svg" xmlns:xlink="http://www.w3.org/1999/xlink" x="0px" y="0px"
	 viewBox="0 0 916.5 609.2" style="enable-background:new 0 0 916.5 609.2;" xml:space="preserve">
<style type="text/css">
	.st0{fill:#F5FBFE;}
	.st1{fill:#DDEEFA;}
	.st2{fill:#255078;}
	.st3{font-family:'Georgia';}
	.st4{font-size:18px;}
	.st5{font-size:16px;}
	.st6{fill:#4C4B4D;}
	.st7{font-family:'ArialMT';}
	.st8{font-size:14px;}
	.st9{fill:#CD483B;}
	.st10{fill:none;}
	.st11{fill:#AEDBF5;}
	.st12{fill:#FFFFFF;}
	.st13{font-size:7.0557px;}
	.st14{fill:#4C4B4C;}
	.st15{fill:#DB3029;}
	.st16{font-size:36px;}
</style>
<g id="Texts">
	<polygon id="blue_bg" class="st0" points="0,473.8 0,510.8 0,520.4 0,609.2 173.5,609.2 173.5,520.4 915,520.4 915,473.8 	"/>
	<path id="line_bg" class="st1" d="M916.5,0H0l0,0v474.4v2v42.9v2v42.9v2v42.9l0,0h579.8l0,0H913l0,0h3.5V0z M913,56.8v417.6H578.4
		l-0.6-0.3v0.3H443.6l-0.6-0.3v0.3H3V56.8H913z M913,476.4v42.9H579.8v-42.9H913z M445.1,519.4v-42.9h132.8v42.9H445.1z
		 M577.8,521.4v42.9H445.1v-42.9H577.8z M310.3,519.4v-42.9h132.8v42.9H310.3z M443.1,521.4v42.9H310.3v-42.9H443.1z M175.5,519.4
		v-42.9h132.8v42.9H175.5z M308.3,521.4v42.9H175.5v-42.9H308.3z M173.5,476.4v42.9H3v-42.9H173.5z M173.5,521.4v42.9H3v-42.9H173.5
		z M3,566.3h170.5v39.9H3V566.3z M175.5,566.3h132.8v39.9H175.5V566.3z M310.3,566.3h132.8v39.9H310.3V566.3z M445.1,566.3h132.8
		v39.9H445.1V566.3z M579.8,521.4H913v84.8H579.8V521.4z"/>
	<text id="title" transform="matrix(1 0 0 1 32.8483 35.8372)" class="st2 st3 st4">COVID-19 in Washington on</text>
	<text id="date" transform="matrix(1 0 0 1 267.4693 35.8372)" class="st2 st3 st4">April 27th, 2020</text>
	<text id="confirmed" transform="matrix(1 0 0 1 61.3743 95.7314)" class="st2 st3 st5">State Confirmed Cases By County</text>
	<g>
		<text transform="matrix(1 0 0 1 61.396 132.4719)" class="st6 st7 st8">Adams  15</text>
		<text transform="matrix(1 0 0 1 61.3958 157.4624)" class="st6 st7 st8">Asotin  13</text>
		<text transform="matrix(1 0 0 1 61.3743 182.4526)" class="st6 st7 st8">Benton  9</text>
		<text transform="matrix(1 0 0 1 61.3743 207.4432)" class="st6 st7 st8">Chelan  6</text>
		<text transform="matrix(1 0 0 1 61.3743 232.4336)" class="st6 st7 st8">Clallam  6</text>
		<text transform="matrix(1 0 0 1 61.3743 257.4242)" class="st6 st7 st8">Clark  10</text>
		<text transform="matrix(1 0 0 1 61.3743 282.4144)" class="st6 st7 st8">Columbia  4</text>
		<text transform="matrix(1 0 0 1 61.3743 307.4047)" class="st6 st7 st8">Cowlitz  3</text>
		<text transform="matrix(1 0 0 1 61.3742 332.395)" class="st6 st7 st8">Douglas  9</text>
		<text transform="matrix(1 0 0 1 61.3742 357.3857)" class="st6 st7 st8">Ferry  549</text>
		<text transform="matrix(1 0 0 1 61.3743 382.3759)" class="st6 st7 st8">Franklin  448</text>
		<text transform="matrix(1 0 0 1 61.3744 407.366)" class="st6 st7 st8">Garfield  263</text>
		<text transform="matrix(1 0 0 1 61.3745 432.357)" class="st6 st7 st8">Pacific  9</text>
		<text transform="matrix(1 0 0 1 179.8545 132.472)" class="st6 st7 st8">Pend Oreille  549</text>
		<text transform="matrix(1 0 0 1 179.8544 157.4621)" class="st6 st7 st8">Pierce  448</text>
		<text transform="matrix(1 0 0 1 179.8547 182.4528)" class="st6 st7 st8">Grant  18</text>
		<text transform="matrix(1 0 0 1 179.8547 207.4434)" class="st6 st7 st8">Grays Harbor  11</text>
		<text transform="matrix(1 0 0 1 179.8547 232.4338)" class="st6 st7 st8">Island  18</text>
		<text transform="matrix(1 0 0 1 179.8547 257.4241)" class="st6 st7 st8">Jefferson  11</text>
		<text transform="matrix(1 0 0 1 179.8544 282.4142)" class="st6 st7 st8">King  9</text>
		<text transform="matrix(1 0 0 1 179.8544 307.4048)" class="st6 st7 st8">Kitsap  549</text>
		<text transform="matrix(1 0 0 1 179.8547 332.3948)" class="st6 st7 st8">Kittitas  448</text>
		<text transform="matrix(1 0 0 1 179.8543 357.3859)" class="st6 st7 st8">Klickitat  263</text>
		<text transform="matrix(1 0 0 1 179.8547 382.3764)" class="st6 st7 st8">Lewis  18</text>
		<text transform="matrix(1 0 0 1 179.8547 407.366)" class="st6 st7 st8">Lincoln  11</text>
		<text transform="matrix(1 0 0 1 179.8546 432.3566)" class="st6 st7 st8">Mason  18</text>
		<text transform="matrix(1 0 0 1 312.8946 132.472)" class="st6 st7 st8">Okanogan  11</text>
		<text transform="matrix(1 0 0 1 312.8946 157.4622)" class="st6 st7 st8">San Juan  263</text>
		<text transform="matrix(1 0 0 1 312.8946 182.4528)" class="st6 st7 st8">Skagit  18</text>
		<text transform="matrix(1 0 0 1 312.8944 207.4431)" class="st6 st7 st8">Skamania  448</text>
		<text transform="matrix(1 0 0 1 312.8946 232.4334)" class="st6 st7 st8">Snohomish  448</text>
		<text transform="matrix(1 0 0 1 312.8947 257.4238)" class="st6 st7 st8">Spokane  263</text>
		<text transform="matrix(1 0 0 1 312.8947 282.4144)" class="st6 st7 st8">Stevens  18</text>
		<text transform="matrix(1 0 0 1 312.8947 307.4047)" class="st6 st7 st8">Thurston  11</text>
		<text transform="matrix(1 0 0 1 312.8947 332.3948)" class="st6 st7 st8">Wahkiakum   18</text>
		<text transform="matrix(1 0 0 1 312.8947 357.3852)" class="st6 st7 st8">Walla Walla  11</text>
		<text transform="matrix(1 0 0 1 312.8944 382.376)" class="st6 st7 st8">Whatcom  9</text>
		<text transform="matrix(1 0 0 1 312.8944 407.3659)" class="st6 st7 st8">Whitman  549</text>
		<text transform="matrix(1 0 0 1 312.8947 432.3568)" class="st6 st7 st8">Yakima  448</text>
	</g>
</g>
<g id="TYPES_1_">
	<g>
		<circle id="_x34__1_" class="st9" cx="890.7" cy="-48.9" r="28.7"/>
		
			<text id="_x34__numbers_1_" transform="matrix(1 2.629892e-03 -2.629892e-03 1 863.9472 -42.5621)" class="st12 st7" style="font-size:17.0608px;">10,000</text>
	</g>
	<g>
		<circle id="_x33__1_" class="st9" cx="822.8" cy="-47.8" r="20.7"/>
		
			<text id="_x33__numbers_1_" transform="matrix(1 2.629899e-03 -2.629899e-03 1 803.936 -42.5846)" class="st12 st7" style="font-size:14.786px;">1,000</text>
	</g>
	<g>
		<circle id="_x32__1_" class="st9" cx="766.5" cy="-46.8" r="14.1"/>
		
			<text id="_x32__numbers_1_" transform="matrix(1 2.629882e-03 -2.629882e-03 1 754.3855 -41.6398)" class="st12 st7" style="font-size:13.6486px;">100</text>
	</g>
	<g>
		<circle id="_x31__2_" class="st9" cx="678.8" cy="-45.6" r="8.2"/>
		
			<text id="_x31__numbers_2_" transform="matrix(1 2.629919e-03 -2.629919e-03 1 676.4216 -42.3196)" class="st12 st7" style="font-size:8.365px;">1</text>
	</g>
	<g>
		<circle id="_x31__1_" class="st9" cx="719.7" cy="-45.6" r="10.9"/>
		
			<rect x="714.2" y="-50.3" transform="matrix(2.629829e-03 -1 1 2.629829e-03 762.8968 674.5729)" class="st10" width="10.9" height="10.2"/>
		
			<text id="_x31__numbers_1_" transform="matrix(1 2.629873e-03 -2.629873e-03 1 713.6277 -42.456)" class="st12 st7" style="font-size:10.2365px;">10</text>
	</g>
</g>
<g id="Counties">
	<path id="grant" class="st11" d="M710.8,285.3c-0.3,1.2-1.9,3.2-2.7,4.2v24.2l-5.8,4.8l1.6,1.4l1.9,4.5H719l6.2-2l2.2,1.6l2.5-1.8
		l5.2-13l18.3,6.1l6.2-23.9l0,0l11.5-45.6l0.7-1.4l-0.9-0.3l-2.7-2.5l-2.4,1.7l-3.5,1.4v6.3l-4.5,2.5l-2.9,3.3l-8,9.3l-4.3,3.3
		l-5.4,3.7l-15.2-4.8l-7.5,7.8v1.8l-1.4,3l0,0l-0.5,0.9C711.9,282.6,711,284.4,710.8,285.3z"/>
	<path id="garfield_1_" class="st11" d="M804.7,359.6l3.1,3.9l2.9,3l1.6,4.5v10.7l-1.5,9.9l-1.1,2.4l4,1c0.9-1.5,1.6-2.7,1.7-3
		c0.1-0.2,0.3-0.6,1.3-2.3c0.6-1.1,1.6-2.8,1.8-3.3c0.1-0.7,0.6-3.2,2.9-13.4l0.1-0.4l1.7-3.3h5l2.4,1.7h0.6v-2.8l1.6-0.6l-3.6-10.8
		l-5.5-5.9l-9-3.5h-3.5l-3.9,1.8l-1.1,1.8l-1.6,1.7c0,1.4,0,4.7,0,5.2C804.7,358.4,804.7,359.1,804.7,359.6z"/>
	<path id="columbia" class="st11" d="M802,353.6l-15.9,0.5l-2.2,10.1c-0.5,2-0.9,4.3-0.9,4.9c0.1,0.5,1.5,3.9,3,6.8l6.3,2.2l0.1,0.9
		c0.1,1,0.3,4.3,0,5.6c-0.3,1.1-1.1,1.6-1.9,1.8v2.8l16.6,4.2l1.3-2.7l1.4-9.2v-10.1l-1.3-3.3l-2.6-2.6l-3.7-4.7v-0.5
		c0,0,0-1.5,0-2.2C802,357.6,802,355.4,802,353.6z"/>
	<path id="benton" class="st11" d="M724.7,325.4l-5.5,1.6H706l-12,49.2c3.4,0,6.8,0.2,10.1,0.5c1.7,0.1,3.4,0.2,5.1,0.3
		c5.3,0.3,10.5,0.2,15.9,0.2c3.2,0,6.2,0,9.8-0.1c0.4,0,0.7,0,1.2,0l2-11.3h-3.6l-0.4-0.5c-0.2-0.3-0.9-1.1-1.6-1.4
		c-0.3-0.2-0.6-0.3-1-0.5c-1.1-0.5-2.4-0.9-2.7-2.2c-0.3-0.9-0.2-4.7-0.1-7.7v-0.3l3.3-7.6l0.5-5.2l-4-4.8v-4l-2.6-2.4v-2.7
		L724.7,325.4z"/>
	<path id="grays_harbor" class="st11" d="M509.1,247.2c-2.5,0.5-5,2.8-6.3,5.6l34.8,12.8l7.9,3.4l5.2-18l-13.9-6l7-30.1l-37.6-13.4
		c0,0.1-0.1,0.3-0.1,0.4c-1.2,4.4-2.4,8.2-1.4,13.3c0.9,4.6,2.2,9.1,3.3,13.6c0.8,3.5,2.6,9.3,4.5,12.4c1,1.6,5.2,2.9,4.5,5.2
		C516.4,248.3,511,246.9,509.1,247.2z"/>
	<path id="wahkiakum" class="st11" d="M522.8,296.6c2.5,1.9,2.9,5.2,3.2,8.1c0.1,0.6,0.1,1.2,0.2,1.7c0.9,0.9,1.2,0.9,2.2,0.9
		c2.1,0,3.8,0,5.9,0.5V302l1.5-2.1v-1.8l-10.1-2l-10.7-5h-1.1l-2.8,4.2c0.2,0.3,0.5,0.6,0.8,1.1c0.5,0.5,0.7,1.1,1,1.5l-0.2-1.9
		l5.3-0.5C520.3,295.1,521.9,295.9,522.8,296.6z"/>
	<polygon id="mason" class="st11" points="571.1,216 548.6,208.8 546.5,214.4 539.8,243.4 552.5,248.9 556.5,248.9 563.4,248.7 
		571.3,246.7 573.5,237.5 576.2,234.7 578.3,230 579.3,225.8 570.3,222.4 565.7,216.8 570.2,216.8 	"/>
	<path id="kitsap" class="st11" d="M580.4,214.7c-0.2,0.9-1.3,1.7-6.2,2.1l-2.9,2.6l0.6,0.7l10.6,4l-1.7,6.8l-0.2,0.3l5.7,2
		c0.9,0.3,3.4,1,5.4,2c-0.2-1.1,0.5-2.2,1.2-4.1c0.9-2.4,1.8-4.4,3-6.6c2.3-3.9,4.8-8.5,6.1-12.9c1-3.3,1.1-12.6-4.2-11.4
		c-0.8,1.5-5,5.8-6.7,4.2l1.1,1.1l-3.6,3.6C585.2,211.1,581.3,213.8,580.4,214.7z"/>
	<polygon id="yakima" class="st11" points="621.2,322.3 618.5,333.2 615.6,342.3 613,344.1 620.7,346.4 688.9,364.5 694.1,364.5 
		703.6,325.7 701.8,321.4 699.2,319.2 697.8,315.8 687.7,312.9 676.1,308.5 672.5,304.4 672.5,298.8 651.2,290.7 651.2,284.5 
		648.1,280.2 648.1,278.7 640.4,276.8 632.5,284.3 632.4,304.9 626.2,323.7 	"/>
	<path id="douglas" class="st11" d="M738.8,223.3h-2.3l-2.6,1.6l-3.4,4.9l-0.6,1.1l-1.2,4l-1.4,3.6l-7.1,5.2l-5.8-0.7l-1.7-1.4h-1.9
		l-4.6,6l-2,5.9l-2.7,3.5l-1.4,4.4v3.1l5.8,3.6l4.1,3.7v3.3l-2.4,2.2l2.6,1.6l0.5,0.5l0.9-1.9v-2.3l9.4-9.8l15.6,4.9l4.3-3l4.2-3.1
		l7.7-9.1l3.4-3.7l3.3-1.8v-6.5l5.1-2.1l3.8-2.7l3.9,3.6l0.8,0.3l0.3-0.5l-0.3-6.3l-3.2-6.9l-0.6-1h-3.7l-9.2,5.9h-5.1
		c-5.5-1.1-8.6-1.8-9.1-2.1c-3.4-1.7-3.7-2.7-3.8-3.1c-0.1-0.5,0-0.8,0.2-1.2C738.7,226.4,738.9,224.4,738.8,223.3z"/>
	<path id="king" class="st11" d="M602.9,225.1c-0.8,2.4-1.2,5.6-1.7,8.2c-0.8,4.1-1.5,7.6-4.1,7.2v4.4l1.6,4.7l1.6,1.6h2.8l4.3,3.3
		l5.6,4.7l4.6,1.4h6.3l2.9,1.8h2.6l4.3,5l2.1,2.5h2.2l1,1.4l2-19.3l9.9-8.1c3.1-1.2,6.5-2.5,7-2.8c0.5-0.4,2.7-1.3,4.2-1.8v-4.9
		l3.9-3.2v-3.4l-16.4-3.2l-16.6-3.4l-26.8-8.4l0.1-0.2c-0.5,1.3-1.5,1.6-2.1,3.3c-0.5,1.4,0.2,3.5,0,5.2
		C604,222.8,603.5,223.4,602.9,225.1z"/>
	<path id="snohomish" class="st11" d="M606.5,211.4l0.4-1.3l26.6,8.4l16.4,3.3l13.8,2.7v-3.7l5.5-10.4l0.4-0.2
		c1.3-0.8,5.6-3.3,6.6-3.6c0.5-0.2,2.3-1.2,3.9-2.2v-9.1l-10.9-3.9l-13.8-3.6l-16.3-3.9l-13-4.3l-11.1-4.3c-0.6,1.8-1.4,3.4-1.4,5.7
		c-0.1,2.6-0.9,7.4,0.6,9.7c0.9,1.3,2.7,1.4,3.3,2.7c0.4,0.6,0.1,4.6-0.3,5.2c-0.9,1.4-2.4,0.9-4.2,0.6c0.6,3.1-3.7,6.2-5.2,8.4
		C606.6,209.2,606.9,210.1,606.5,211.4z"/>
	<path id="pend_oreille" class="st11" d="M865,257l16-69.1c-4.7-1.1-9.4-2.1-14-3.2l1,0.9l-15.7,16.6L850,207l6.6,2.4l-6.4,31.5
		l1.5,1.3l1.8,7.8l-2,2L865,257z"/>
	<path id="chelan" class="st11" d="M682.1,206.4c-1,0.5-4.2,2.5-5.1,2.8c-0.5,0.2-3.3,1.7-5.8,3.2l-4.8,9.1v3.5l2.1,0.4v7l-3.9,3.2
		v4.3l3.8,7v0.4c0,0,0.1,2.7,1.5,4.5c1.7,2.1,4.4,4.8,4.4,4.8l6.2,6.2l8.1,5.1l3.6,4.8l12.1,3.5l2.6-2.4v-0.9L704,270l-6.8-4.2
		l0.1-5.2l1.8-5.2l2.7-3.5l2-5.9l5.5-7.2h4.2l1.9,1.5l3.9,0.5l5.6-4.2l1.1-2.8l0.6-2.3h-4.3l-6.6-9l-6.5-11l-7.3-25.4l-2.6-5.7
		L688,177l-5.3,3.7l-2,11.8l2.1,0.7v12.6L682.1,206.4z"/>
	<polygon id="thurston" class="st11" points="571.8,249.3 563.6,251.4 556.5,251.5 553.2,251.5 548,270.1 553.7,272.5 585.2,281.5 
		590.5,282.6 590.3,282.1 585,276.8 578.4,271.6 575,261.8 575.6,256.8 	"/>
	<path id="pierce" class="st11" d="M594,283.6l16,6.7l5.3-1.9l14.6,4.3V283l8.4-8l-1.6-2.4h-2.1l-2.8-3.5l-3.5-4h-2.2l-2.9-1.8
		l-6.2-0.1l-5.3-1.6l-6-5l-3.5-2.8h-3l-2.9-2.8l-2-6v-5.2h1.4c-0.7-0.5-1.5-1.1-2.4-2.1l-1.1,0.8c-0.5-0.7-3.9-2.1-6.7-2.8l-6.1-2.1
		l-1.3,2.6l-2.4,2.4l-2.1,8.9l4.5,8.7l-0.6,5.2l2.9,8.5l6.1,4.8l5.7,5.9L594,283.6z"/>
	<path id="cowlitz" class="st11" d="M538.5,298.7v2.2L537,303v5.4c8.3,1.6,11.2,7,12,11.3c1.1,2.4,1.1,5.4,1.1,8.3
		c0,1.7,0.3,3.6,0.5,5.6c0.2,1.4,0.4,3,0.5,4.5l1.7-0.9l6.9-3.3h7.5l1.2,1.4h0.8l2.1-1.3l7.2-2.2l0.1-2.8l3.4-9.5l2.5-8l-39-10.5
		v-1.1L538.5,298.7z"/>
	<path id="walla_walla" class="st11" d="M783.7,352.6l0.8-4.3c-2.2-1.4-4.7-2.9-5.5-3.1c-1.2,0.4-3.4,0.2-5.4,0
		c-0.5,0.3-1.5,0.9-2.8,1.5c-0.8,0.4-1.6,0.6-2.4,0.8c-0.5,0.2-1.3,0.4-1.4,0.5c-0.3,1.3-2.1,3.6-2.6,4.3l-3.7,6.2l-7.3,4.3
		l-2.4,2.7h-10l-2,11.2c1.9,0,3.8,0.2,5.6,0.7l43.3,10.8v-4.7l1.4,0.1c0.3,0,0.5,0,0.6-0.1c0.1-0.4,0-2.1-0.1-3.7L784,378l-0.3-0.5
		c-3.4-7.2-3.4-8.1-3.4-8.4c0-1,0.7-4.3,0.9-5.4L783.7,352.6z"/>
	<path id="kittitas" class="st11" d="M705.4,279L705.4,279l-14.5-4.1l-4.1-5.2l-7.9-4.9l-6.3-6.3c-0.1-0.1-2.8-2.8-4.6-5
		c-1.7-2.1-2.1-4.9-2.2-5.8l-3.2-5.6c-1.5,0.6-3.1,1.3-3.4,1.4c-0.6,0.5-4.8,2.1-7.3,3l-8.4,7l-2.1,20.9l9.3,2.3v2.8l3.1,4.3v5.3
		l21.4,8.1v6.4l2.4,2.9l10.9,4.1l11.2,3.3l1.1,2.6l4.6-3.9v-24.1l0.4-0.4c1.1-1.2,2.3-2.9,2.4-3.4c0.2-0.8,0.7-2.1,1.2-2.9l-0.9-0.8
		L705.4,279z"/>
	<path id="clark" class="st11" d="M575.4,337.9l2-3l-5.3,1.6l-2.2,1.4h-2.8l-1.2-1.4h-5.6l-6.2,3.1l-2.8,1.4c0,0.8-0.1,1.6-0.2,2.4
		c-0.5,3.1-1.7,5.7-2.9,8.1v0.1c1.1,0.8,2.4,1.8,4.3,3.1c3.9,2.9,11.2,8.1,12.8,9c1,0.4,2.6,0.4,4.2,0.3l0.6-5.4l5.7-15.9v-4.9
		L575.4,337.9L575.4,337.9z"/>
	<path id="skamania" class="st11" d="M584.3,320.3l-3.3,9.3v4.7l-2.9,4.3l-0.1,4.8l-5.7,16l-0.5,4.5c1-0.1,2-0.1,2.9-0.1
		c1.1,0,2.2,0.1,3.1,0.2c2.8,0.2,4.1,0.3,5.7-0.9c0.5-0.4,0.9-0.6,1.4-0.9c3.3-2.4,5.5-3.4,11-1.6c1.3,0.5,2.4,0.8,3.5,1.3
		c1.9,0.7,3.4,1.3,5.4,1.5l-1.4-1.7v-4.2l5.7-13.8l4.4-3.2l2.6-8.1l2.8-10.9l-31.9-9.3L584.3,320.3z"/>
	<polygon id="adams" class="st11" points="755.2,318.7 736.5,312.5 732.7,322.2 786.7,336.7 786.9,335.3 797.1,335.3 802.5,329.4 
		805.4,321.7 808.5,306.1 761.7,293.3 	"/>
	<polygon id="whitman" class="st11" points="819,306.5 811.1,306.5 807.9,322.5 804.8,330.9 798.2,338 789.1,338 787.4,347.1 
		787.4,347.1 786.6,351.4 802.8,350.9 804.2,349.4 805.5,347.1 810.6,344.7 815.3,344.7 825.3,348.6 831.5,355.4 835.6,367.5 
		838.9,369.3 851.5,315 819.1,305.5 	"/>
	<path id="franklin" class="st11" d="M728.6,326.4v1.5l2.6,2.4v4.2l4.1,4.9l-0.7,7.1l-3.3,7.3c-0.1,2.7-0.2,6,0,6.5
		c0.1,0.1,0.7,0.4,1.2,0.5c0.4,0.2,0.8,0.3,1.2,0.5c0.9,0.5,1.7,1.2,2.2,1.6h13.8l2.1-2.3l7-4.1l3.4-5.7c1-1.4,2.1-3,2.3-3.5
		c0.4-1.5,1.9-1.9,3.3-2.4c0.6-0.2,1.4-0.4,1.9-0.6c1.7-0.9,3-1.6,3-1.7l0.4-0.3l0.5,0.1c2.1,0.3,4.3,0.3,4.7,0.2
		c0.5-0.3,1.4-0.7,6.9,2.8l1.2-6.2l-54.9-14.8L728.6,326.4z"/>
	<path id="asotin" class="st11" d="M834.3,369.8l-0.5,0.2v3.7h-4.2l-2.4-1.7h-2.5l-0.9,1.7c-1.1,4.8-2.7,12.4-2.8,13.1
		c0,0.5-0.2,0.8-2.2,4.3c-0.5,0.7-1,1.7-1.1,1.9c0,0.1-0.1,0.3-1.4,2.7l20.1,5l1.8-2.3v-25.9l0.1-0.4V372l0,0L834.3,369.8z"/>
	<path id="klickitat" class="st11" d="M619.9,349l-9.2-2.7l-4.9,11.8v2.6l2.4,2.9c3.1,0.1,6.2,0.2,9.5,1.7c2.5,1.3,5,2.8,7.2,4.3
		c3.8,2.5,7.3,4.9,11.3,5.7c1.7,0.4,3.8,0.3,6,0.2c0.7,0,1.4,0,2.1-0.1c0.5-1.3,1.2-2,1.9-2.5c3.4-2.3,8,0.8,10.1,2.4
		c3.2,2.2,4.7,2.7,8.6,3.2c1.2,0.1,2.4,0.3,3.8,0.5c2.7,0.5,5.7,0.9,7.8,0.5c1.2-0.3,2.4-0.6,3.6-1.1c1.8-0.6,3.8-1.3,6.1-1.6
		c1.6-0.3,3.3-0.4,4.8-0.5l2.4-9.1h-5.1L619.9,349z"/>
	<path id="stevens" class="st11" d="M828.6,199.3l-2.7,12.4l-4.1,14.2l-6.2,10.4l-3.8,7.6H804l-1.1,1.3v6.2l8.1,1.4l1.1,4.1
		c1.1,1.8,2.4,3.8,3.1,4.3c1.4,0.3,5,1.4,8,2.5l4.4,1.7l11.9,2.2l4.8-15.8h3.4l2.7-2.7l-1.3-5.5l-2.1-1.7l6.2-30.7l-7.2-2.5l3.9-8.1
		l15.4-16.2c-7.6-1.7-15.2-3.4-22.8-5.2c-4.7-1.1-9.4-2.2-14.1-3.3L828.6,199.3z"/>
	<path id="pacific" class="st11" d="M498.3,292c1.5,1.5,2.9,5,5.1,5.6c1.6,0.5,3.6-1,4.8-1.7c0.8-0.5,1.3-0.8,1.6-1l-1.1-0.7
		l3.7-5.7h3.1l11.1,5.2h0.2l9.6-25.8l-34.7-12.7c-0.5,2.1-0.1,4.3,1.5,5.8c1.4,1.3,3.1,0.6,4.8,1.2c2.8,1,2.8,4.2,2.1,7.2
		c-0.6,2.7-10.5,13.9-11,6.3c-1.9,1.7-3.4,7.2-4,9.6C494.7,288.7,496.2,289.9,498.3,292z"/>
	<path id="clallam" class="st11" d="M504.6,174.1v-1.4h5.5l17.4,3.9l6.1,4.6c3.6,1.2,12.8,4.2,14.6,4.5c2.3,0.5,16.6,5.6,18.6,6.3
		l13.8,2.6l4.1-17.2l1.4,0.4c-3.3-1-6.3-2.2-9.7-3.5c-9.1-3.6-18.5-5.3-27.4-9.8c-4.4-2.2-8.7-4.3-13-6.5c-2.4-1.3-4.4-2.3-6.3-4.3
		c-2.7-2.9-6-4.2-8.7-6.9c-2.1-2-3.6-4.6-5.4-6.8c-4.1-4.9-8.5-7.3-10.6,0.6c-1.1,4.2-1.4,8-2.1,12.4c-0.7,4.9-4.7,10.4-2.1,15.3
		C501.6,170.5,503.6,172.2,504.6,174.1z"/>
	<path id="skagit" class="st11" d="M615.3,166.3c0.9,1.9,0.5,5.9,0,7.9l0.5-1.3l11.2,4.3l12.9,4.2l16.2,3.9l13.9,3.6l8.1,2.9
		l2.1-12.3l7.3-5.2l11.4,3.5v-6.1l-11.6-1.7l-67.5-19.4c0.6,4.3-0.5,10.2-5.9,6.4c-1.4-1-3.9-3.6-5.7-1.6c-1.4,1.5,0.4,6,1.3,7
		C611.2,164.1,614.1,163.7,615.3,166.3z"/>
	<path id="whatcom" class="st11" d="M614.2,132.5c2.6,5.3,3.9,11.1,5.4,16.7l0,0l0.4-1.3l68.1,19.5l12.1,1.7l4.9-1.8V161l-1.9-15.5
		l1.4-0.2c-1.2-0.3-2.4-0.6-3.4-0.9c-15.7-4.2-31.5-8.4-47.2-12.8c-9.9-2.7-19.6-5.5-29.5-8.3c-3.3-1-6.8-2-10.1-3
		c-3.5,0.5-6.5,0-4.5,4.3C610.9,127.3,613,129.9,614.2,132.5z"/>
	<polygon id="lewis" class="st11" points="535,295.3 547.9,297.8 547.9,298.9 586.3,309.3 586.3,309.3 586.3,309.3 587.6,309.6 
		587.6,309.7 624.5,320.4 629.9,304.2 629.9,295.6 615.4,291.2 609.9,293.1 592.6,285.9 584.5,284.1 552.8,275 539,269.1 
		529.6,294.3 	"/>
	<path id="lincoln" class="st11" d="M814.8,263.9c-0.5,0-1.6,0-5-5.8l-0.2-0.4l-0.7-2.6l-6.1-1.1v2.8l-3.2,4.7l-3.3-5l-2.8-3.3
		l-1.8-1.9l-5.6-1.3l-6.4-1.6l-2.2-2.2l-3.4-1.2l-0.9,1.6l-11,43.8l48,13.2h6.6l8.9-36.2l-3.4-1.4
		C819.1,265.2,815.4,264,814.8,263.9z"/>
	<polygon id="spokane" class="st11" points="848.9,254.6 846.3,254.6 841.4,270.7 828.2,268.3 819.8,302.9 852.1,312.4 864.4,259.7 
		849.4,254 	"/>
	<path id="jefferson" class="st11" d="M597.2,183.9l-0.9-4.1c-3.2-0.2-6.2-0.6-9.1-1.4l-4.6,19.6l-16.6-3.3
		c-6.5-2.4-16.8-6-18.4-6.2c-2.4-0.5-14.6-4.5-15.1-4.7l-0.4-0.2l-5.8-4.4l-16.7-3.7h-4.5c1.4,3.8,1.1,8.5,1.5,12.6
		c0.5,4.4,0.5,8.1-0.3,12.2l0.5-1.3l37.7,13.3l2.6-6.9l26.8,8.7c1.7-0.1,3.4-0.4,4.1-0.6c0.5-0.8,2.4-2.5,9.1-6.8l3.3-3.3l0.7,0.7
		c-0.2-0.3-0.4-0.6-0.5-1.1c-0.5-2.7,2.7-5.2,4-7.2c1.4-2,2.8-4.8,2.9-7.3C597.7,187.2,597.2,185.4,597.2,183.9z"/>
	<path id="island" class="st11" d="M610.1,190.1c-1.3-2.4-3.3-2.9-4.7-4.8c-1.2-1.4-1.4-4.3-2.4-6.3c-1.2-2.3-1.4-3.6,0.8-5.6
		c2.8-2.4,3.6-0.3,6.7-0.5c0.4-1.7-0.4-2.4-0.8-3.6c-0.4-1-0.7-2.8-1.2-3.9c-1.7-3.6-4.3-1.6-6.2,0.7c-1.4,1.8-4.1,3.8-4.8,6.1
		c-0.2,0.6-0.4,1.3-0.5,2l1.9,8.4c0.9,1.1,1.2,2.6,1.6,4c1,3.6,1.9,9.4,4.8,12.1c2.5,2.4,3.6,0.3,4.8-1.9
		C611.6,194,611.5,192.9,610.1,190.1z"/>
	<path id="san_juan_1_" class="st11" d="M594.3,143.7c0.1,3.2,0.6,5.9,1.2,7.7c0.6,1.6,1.5,1.8,2.6,2.6c0.8,0.6,2.1,2,3.1,2.6
		c3.4,2.2,4.5-1,4.8-3.9c0.3-2.3,1.4-5.4,0.8-7.7c-0.2-0.6-0.5-1.3-0.7-1.9l-6.2-6.1c-1.9-2.4-2.9-2.6-3.4-2.4
		C594.2,135.1,594.3,142.5,594.3,143.7z"/>
	<path id="okanogan" class="st11" d="M796.1,168.1c-10.5-2.5-20.9-5.1-31.4-7.7c-19.5-4.8-39.1-9.8-58.6-14.9l1.6,15.4v8.3l-6.1,2.3
		v7.9l2.8,6.2l7.3,25.3l6.2,10.4l5.7,7.8h4l0.4-0.6l3.9-5.5l3.7-2.3h4c0.6,0,1.1,0.4,1.4,0.9c0.5,1,0.5,4.2,0.1,5.9
		c0.5,0.4,1.4,0.9,2.2,1.3c0.5,0.2,4.6,1.1,8.3,1.8h3.9l9.2-5.9h6l1.4,2.4l3.5,7.4l0.4,7.6l-0.5,0.7l1.9,0.6l18.6-74L796.1,168.1
		L796.1,168.1z"/>
	<path id="ferry" class="st11" d="M799,168.8v0.7h-0.2L780,244.7l1.4,1.4l5.7,1.4l6.4,1.4l2.4,2.5l2.9,3.4l1.3,1.8l0.5-0.7v-2.4
		v-1.1v-8.2l2.5-3h7.3l3.1-6.2l6.2-10.4l3.9-13.7l2.6-12.2v-23.2h1.5C818.1,173.2,808.5,171.1,799,168.8z"/>
</g>
<g id="balls">
	<circle id="ferry_circle" class="st9" cx="802.2" cy="214.1" r="8.4"/>
	<text id="ferry_numbers" transform="matrix(1 2.629991e-03 -2.629991e-03 1 798.28 215.9391)" class="st12 st7 st13">10</text>
	<circle id="pend_oreille_circle" class="st9" cx="863.2" cy="221.3" r="8.4"/>
	<text id="pend_oreille_numbers" transform="matrix(1 2.629991e-03 -2.629991e-03 1 859.2341 223.1915)" class="st12 st7 st13">10</text>
	<circle id="stevens_circle" class="st9" cx="833.9" cy="228.5" r="8.4"/>
	<text id="stevens_numbers" transform="matrix(1 2.629991e-03 -2.629991e-03 1 829.96 230.3392)" class="st12 st7 st13">10</text>
	<circle id="lincoln_circle" class="st9" cx="794.1" cy="280.4" r="8.4"/>
	<text id="lincoln_numbers" transform="matrix(1 2.629991e-03 -2.629991e-03 1 790.1141 282.2315)" class="st12 st7 st13">10</text>
	<circle id="spokane_circle" class="st9" cx="843" cy="287.6" r="8.4"/>
	<text id="spokane_numbers" transform="matrix(1 2.629991e-03 -2.629991e-03 1 839.0742 289.4314)" class="st12 st7 st13">10</text>
	<circle id="whitman_circle" class="st9" cx="825" cy="331.5" r="8.4"/>
	<text id="whitman_numbers" transform="matrix(1 2.629991e-03 -2.629991e-03 1 821.0742 333.3515)" class="st12 st7 st13">10</text>
	<circle id="asotin_circle" class="st9" cx="827.9" cy="386.9" r="8.4"/>
	<text id="asotin_numbers" transform="matrix(1 2.629991e-03 -2.629991e-03 1 823.9542 388.7915)" class="st12 st7 st13">10</text>
	<circle id="garfield_circle" class="st9" cx="816.4" cy="366.1" r="8.4"/>
	<text id="garfield_numbers" transform="matrix(1 2.629991e-03 -2.629991e-03 1 812.4341 367.9115)" class="st12 st7 st13">10</text>
	<circle id="adams_circle" class="st9" cx="775.6" cy="317" r="8.4"/>
	<text id="adams_numbers" transform="matrix(1 2.629991e-03 -2.629991e-03 1 771.64 318.8991)" class="st12 st7 st13">10</text>
	<circle id="columbia_circle" class="st9" cx="797" cy="372.5" r="8.4"/>
	<text id="columbia_numbers" transform="matrix(1 2.629991e-03 -2.629991e-03 1 792.9941 374.3914)" class="st12 st7 st13">10</text>
	<circle id="walla_walla_circle" class="st9" cx="767" cy="368.9" r="8.4"/>
	<text id="walla_walla_numbers" transform="matrix(1 2.629991e-03 -2.629991e-03 1 762.9999 370.7392)" class="st12 st7 st13">10</text>
	<circle id="franklin_circle" class="st9" cx="748.2" cy="343.7" r="8.4"/>
	<text id="franklin_numbers" transform="matrix(1 2.629991e-03 -2.629991e-03 1 744.28 345.5392)" class="st12 st7 st13">10</text>
	<circle id="benton_circle" class="st9" cx="714.2" cy="355.3" r="8.4"/>
	<text id="benton_numbers" transform="matrix(1 2.629991e-03 -2.629991e-03 1 710.1942 357.1114)" class="st12 st7 st13">10</text>
	<circle id="grant_circle" class="st9" cx="734.3" cy="291.2" r="8.4"/>
	<text id="grant_numbers" transform="matrix(1 2.629991e-03 -2.629991e-03 1 730.3542 293.0315)" class="st12 st7 st13">10</text>
	<circle id="douglas_circle" class="st9" cx="732.2" cy="250.9" r="8.4"/>
	<text id="douglas_numbers" transform="matrix(1 2.629991e-03 -2.629991e-03 1 728.1942 252.7115)" class="st12 st7 st13">10</text>
	<circle id="okanogan_circle" class="st9" cx="745.4" cy="189.6" r="8.4"/>
	<text id="okanogan_numbers" transform="matrix(1 2.629991e-03 -2.629991e-03 1 741.4 191.4592)" class="st12 st7 st13">10</text>
	<circle id="chelan_circle" class="st9" cx="690.4" cy="228.5" r="8.4"/>
	<text id="chelan_numbers" transform="matrix(1 2.629991e-03 -2.629991e-03 1 686.4341 230.3915)" class="st12 st7 st13">10</text>
	<circle id="kittitas_circle" class="st9" cx="674.6" cy="279.7" r="8.4"/>
	<text id="kittitas_numbers" transform="matrix(1 2.629991e-03 -2.629991e-03 1 670.5942 281.5114)" class="st12 st7 st13">10</text>
	<circle id="pierce_circle" class="st9" cx="599" cy="268.9" r="8.4"/>
	<text id="pierce_numbers" transform="matrix(1 2.629991e-03 -2.629991e-03 1 594.9941 270.7115)" class="st12 st7 st13">10</text>
	<circle id="king_circle" class="st9" cx="623.4" cy="237.9" r="8.4"/>
	<text id="king_numbers" transform="matrix(1 2.629991e-03 -2.629991e-03 1 619.4742 239.7514)" class="st12 st7 st13">10</text>
	<circle id="snohomish_circle" class="st9" cx="639.3" cy="200.5" r="8.4"/>
	<text id="snohomish_numbers" transform="matrix(1 2.629991e-03 -2.629991e-03 1 635.3141 202.3114)" class="st12 st7 st13">10</text>
	<circle id="skagit_circle" class="st9" cx="645" cy="172.4" r="8.4"/>
	<text id="skagit_numbers" transform="matrix(1 2.629991e-03 -2.629991e-03 1 641.0742 174.2315)" class="st12 st7 st13">10</text>
	<circle id="whatcom_circle" class="st9" cx="650.8" cy="144.3" r="8.4"/>
	<text id="whatcom_numbers" transform="matrix(1 2.629991e-03 -2.629991e-03 1 646.8342 146.1515)" class="st12 st7 st13">10</text>
	<circle id="san_juan_circle" class="st9" cx="599.7" cy="145" r="8.4"/>
	<text id="san_juan_numbers" transform="matrix(1 2.629991e-03 -2.629991e-03 1 595.7142 146.8714)" class="st12 st7 st13">10</text>
	<circle id="island_circle" class="st9" cx="602.4" cy="180.7" r="8.4"/>
	<text id="island_numbers" transform="matrix(1 2.629991e-03 -2.629991e-03 1 598.4468 182.5795)" class="st12 st7 st13">10</text>
	<circle id="kitsap_circle" class="st9" cx="590.3" cy="217.7" r="8.4"/>
	<text id="kitsap_numbers" transform="matrix(1 2.629991e-03 -2.629991e-03 1 586.3542 219.5915)" class="st12 st7 st13">10</text>
	<circle id="mason_circle" class="st9" cx="556.5" cy="231.4" r="8.4"/>
	<text id="mason_numbers" transform="matrix(1 2.629991e-03 -2.629991e-03 1 552.5142 233.2715)" class="st12 st7 st13">10</text>
	<circle id="thurston_circle" class="st9" cx="564.4" cy="263.8" r="8.4"/>
	<text id="thurston_numbers" transform="matrix(1 2.629991e-03 -2.629991e-03 1 560.4341 265.6715)" class="st12 st7 st13">10</text>
	<circle id="lewis_circle" class="st9" cx="581" cy="295.5" r="8.4"/>
	<text id="lewis_numbers" transform="matrix(1 2.629991e-03 -2.629991e-03 1 576.9941 297.3515)" class="st12 st7 st13">10</text>
	<circle id="yakima_circle" class="st9" cx="660.2" cy="327.9" r="8.4"/>
	<text id="yakima_numbers" transform="matrix(1 2.629991e-03 -2.629991e-03 1 656.1942 329.7514)" class="st12 st7 st13">10</text>
	<circle id="klickitat_circle" class="st9" cx="642.9" cy="363.2" r="8.4"/>
	<text id="klickitat_numbers" transform="matrix(1 2.629991e-03 -2.629991e-03 1 638.9142 365.0315)" class="st12 st7 st13">10</text>
	<circle id="skamania_circle" class="st9" cx="594.6" cy="338.7" r="8.4"/>
	<text id="skamania_numbers" transform="matrix(1 2.629991e-03 -2.629991e-03 1 590.6741 340.5514)" class="st12 st7 st13">10</text>
	<circle id="clark_circle" class="st9" cx="562.2" cy="348.8" r="8.4"/>
	<text id="clark_numbers" transform="matrix(1 2.629991e-03 -2.629991e-03 1 558.2742 350.6314)" class="st12 st7 st13">10</text>
	<circle id="cowlitz_circle" class="st9" cx="560.1" cy="317.1" r="8.4"/>
	<text id="cowlitz_numbers" transform="matrix(1 2.629991e-03 -2.629991e-03 1 556.1141 318.9514)" class="st12 st7 st13">10</text>
	<circle id="wahkiakum_circle" class="st9" cx="522.9" cy="298.4" r="8.4"/>
	<text id="wahkiakum_numbers" transform="matrix(1 2.629991e-03 -2.629991e-03 1 518.9777 300.2384)" class="st12 st7 st13">10</text>
	
		<ellipse id="pacific_circle" transform="matrix(0.3162 -0.9487 0.9487 0.3162 90.1862 680.1257)" class="st9" cx="516.9" cy="277.5" rx="8.4" ry="8.4"/>
	<text id="pacific_numbers" transform="matrix(1 2.629991e-03 -2.629991e-03 1 512.9142 279.3515)" class="st12 st7 st13">10</text>
	<circle id="grays_harbor_circle" class="st9" cx="524.1" cy="229.3" r="8.4"/>
	<text id="grays_harbor_numbers" transform="matrix(1 2.629991e-03 -2.629991e-03 1 520.1141 231.1114)" class="st12 st7 st13">10</text>
	<circle id="jefferson_circle" class="st9" cx="540.2" cy="196.1" r="8.4"/>
	<text id="jefferson_numbers" transform="matrix(1 2.629991e-03 -2.629991e-03 1 536.2 197.9391)" class="st12 st7 st13">10</text>
	<circle id="clallam_circle" class="st9" cx="547.1" cy="174.5" r="8.4"/>
	<text id="clallam_numbers" transform="matrix(1 2.629991e-03 -2.629991e-03 1 543.1542 176.3915)" class="st12 st7 st13">10</text>
</g>
<g id="table_data">
	<text transform="matrix(1 0 0 1 22.1633 545.0624)" class="st2 st7 st8">Confirmed Cases</text>
	<text transform="matrix(1 0 0 1 22.1633 588.9941)" class="st2 st7 st8">Deaths</text>
	<text id="current_date" transform="matrix(1 0 0 1 206.2175 502.7803)" class="st2 st7 st8">6 Apr. 2020</text>
	<text id="previous_date" transform="matrix(1 0 0 1 342.01 502.7803)" class="st2 st7 st8">5 Apr. 2020</text>
	<text id="growth_rate__x25_" transform="matrix(1 0 0 1 465.0493 502.7803)" class="st2 st7 st8">Growth Rate %</text>
	<text transform="matrix(1 0 0 1 674.8174 502.7803)" class="st2 st7 st8">Total Confirmed Cases</text>
	<text id="current_сases" transform="matrix(1 0 0 1 228.2899 548.8145)" class="st14 st7 st5">783</text>
	<text id="previous_deaths" transform="matrix(1 0 0 1 368.5322 593.2939)" class="st14 st7 st5">14</text>
	<text id="current_deaths" transform="matrix(1 0 0 1 232.7396 592.3142)" class="st14 st7 st5">15</text>
	<text id="total_cases" transform="matrix(1 0 0 1 716.3676 577.9575)" class="st15 st7 st16">783</text>
	<text id="previous_сases" transform="matrix(1 0 0 1 364.0828 548.8145)" class="st14 st7 st5">673</text>
	<text id="cases_growth_rate" transform="matrix(1 0 0 1 494.2765 550.3508)" class="st14 st7 st5">16 %</text>
	<text id="death_growth_rate" transform="matrix(1 0 0 1 498.7259 594.8301)" class="st14 st7 st5">7 %</text>
</g>
</svg>
