<?xml version="1.0" encoding="utf-8"?>
<!-- Generator: Adobe Illustrator 23.0.5, SVG Export Plug-In . SVG Version: 6.00 Build 0)  -->
<svg version="1.1" id="Layer_1" xmlns="http://www.w3.org/2000/svg" xmlns:xlink="http://www.w3.org/1999/xlink" x="0px" y="0px"
	 viewBox="0 0 916.5 712.9" style="enable-background:new 0 0 916.5 712.9;" xml:space="preserve">
<style type="text/css">
	.st0{fill:#F5FBFE;}
	.st1{fill:#DDEEFA;}
	.st2{fill:#255078;}
	.st3{font-family:'Georgia';}
	.st4{font-size:18px;}
	.st5{font-size:16px;}
	.st6{fill:#4C4B4D;}
	.st7{font-family:'ArialMT';}
	.st8{font-size:14px;}
	.st9{fill:#CD483B;}
	.st10{fill:none;}
	.st11{fill:#AED9F4;}
	.st12{fill:#FFFFFF;}
	.st13{font-size:6.6799px;}
	.st14{fill:#4C4B4C;}
	.st15{fill:#DB3029;}
	.st16{font-size:36px;}
</style>
<g id="Texts">
	<polygon id="blue_bg" class="st0" points="0.4,577.1 0.4,614.1 0.4,623.7 0.4,712.5 173.9,712.5 173.9,623.7 915.4,623.7 
		915.4,577.1 	"/>
	<path id="line_bg" class="st1" d="M916.9,0.3H0.4v100.4v476.4v2v43.1v2v43.1v2v43.1l0,0h579.8l0,0h333.2l0,0h3.5V0.3z M913.4,57.3
		v519.8H578.8l-0.6-0.3v0.3H444l-0.6-0.3v0.3H3.4V57.3H913.4z M913.4,579.2v43.1H580.2v-43.1H913.4z M445.5,622.3v-43.1h132.8v43.1
		H445.5z M578.2,624.3v43.1H445.5v-43.1H578.2z M310.7,622.3v-43.1h132.8v43.1H310.7z M443.5,624.3v43.1H310.7v-43.1H443.5z
		 M175.9,622.3v-43.1h132.8v43.1H175.9z M308.7,624.3v43.1H175.9v-43.1H308.7z M173.9,579.2v43.1H3.4v-43.1H173.9z M173.9,624.3
		v43.1H3.4v-43.1H173.9z M3.4,669.4h170.5v40.1H3.4V669.4z M175.9,669.4h132.8v40.1H175.9V669.4z M310.7,669.4h132.8v40.1H310.7
		V669.4z M445.5,669.4h132.8v40.1H445.5V669.4z M580.2,624.3h333.2v85.2H580.2V624.3z"/>
	<text id="title" transform="matrix(1 0 0 1 32.8483 35.8372)" class="st2 st3 st4">COVID-19 in West Virginia on</text>
	<text id="date" transform="matrix(1 0 0 1 278.4693 35.8372)" class="st2 st3 st4">April 27th, 2020</text>
	<text transform="matrix(1 0 0 1 39.7743 126.6515)" class="st2 st3 st5">State Confirmed Cases By County</text>
	<g>
		<text transform="matrix(1 0 0 1 39.7747 175.5021)" class="st6 st7 st8">Barbour  15</text>
		<text transform="matrix(1 0 0 1 39.7745 198.4365)" class="st6 st7 st8">Berkeley  13</text>
		<text transform="matrix(1 0 0 1 39.7745 221.3714)" class="st6 st7 st8">Boone  9</text>
		<text transform="matrix(1 0 0 1 39.7745 244.3056)" class="st6 st7 st8">Braxton  6</text>
		<text transform="matrix(1 0 0 1 39.7745 267.2405)" class="st6 st7 st8">Brooke  6</text>
		<text transform="matrix(1 0 0 1 39.7748 313.1095)" class="st6 st7 st8">Calhoun  10</text>
		<text transform="matrix(1 0 0 1 39.7748 336.0442)" class="st6 st7 st8">Clay  4</text>
		<text transform="matrix(1 0 0 1 39.7748 358.9786)" class="st6 st7 st8">Doddridge  3</text>
		<text id="Yuma_53_x09__8_" transform="matrix(1 0 0 1 39.7747 381.913)" class="st6 st7 st8">Fayette  9</text>
		<text transform="matrix(1 0 0 1 39.7746 427.7825)" class="st6 st7 st8">Grant  549</text>
		<text transform="matrix(1 0 0 1 39.7748 450.7173)" class="st6 st7 st8">Greenbrier  448</text>
		<text transform="matrix(1 0 0 1 39.7748 473.6526)" class="st6 st7 st8">Hampshire  263</text>
		<text transform="matrix(1 0 0 1 160.4536 244.3058)" class="st6 st7 st8">Jackson  18</text>
		<text transform="matrix(1 0 0 1 160.4536 267.2405)" class="st6 st7 st8">Jefferson  11</text>
		<text transform="matrix(1 0 0 1 160.4536 290.1752)" class="st6 st7 st8">Kanawha  18</text>
		<text transform="matrix(1 0 0 1 160.4538 313.1099)" class="st6 st7 st8">Lewis  11</text>
		<text transform="matrix(1 0 0 1 280.0546 404.8481)" class="st6 st7 st8">Preston  549</text>
		<text transform="matrix(1 0 0 1 160.4539 450.7182)" class="st6 st7 st8">McDowell  15</text>
		<text transform="matrix(1 0 0 1 160.4539 473.6525)" class="st6 st7 st8">Mercer  13</text>
		<text transform="matrix(1 0 0 1 280.0544 175.5021)" class="st6 st7 st8">Mineral  9</text>
		<text transform="matrix(1 0 0 1 280.0543 198.4368)" class="st6 st7 st8">Mingo  6</text>
		<text transform="matrix(1 0 0 1 280.0543 221.371)" class="st6 st7 st8">Monongalia  6</text>
		<text transform="matrix(1 0 0 1 280.0543 244.3056)" class="st6 st7 st8">Monroe  10</text>
		<text transform="matrix(1 0 0 1 280.0542 267.2404)" class="st6 st7 st8">Morgan  4</text>
		<text transform="matrix(1 0 0 1 160.4539 336.0444)" class="st6 st7 st8">Lincoln  11</text>
		<text id="Yuma_53_x09__7_" transform="matrix(1 0 0 1 160.4541 358.9788)" class="st6 st7 st8">Logan  9</text>
		<text transform="matrix(1 0 0 1 160.4541 381.9134)" class="st6 st7 st8">Marion  549</text>
		<text transform="matrix(1 0 0 1 160.4539 404.8481)" class="st6 st7 st8">Marshall  448</text>
		<text transform="matrix(1 0 0 1 160.4539 427.7836)" class="st6 st7 st8">Mason  10</text>
		<text transform="matrix(1 0 0 1 280.0546 290.1749)" class="st6 st7 st8">Nicholas  18</text>
		<text transform="matrix(1 0 0 1 280.0545 313.1096)" class="st6 st7 st8">Ohio  11</text>
		<text transform="matrix(1 0 0 1 280.0545 336.0445)" class="st6 st7 st8">Pendleton  18</text>
		<text transform="matrix(1 0 0 1 280.0545 358.9789)" class="st6 st7 st8">Pleasants  11</text>
		<text id="Yuma_53_x09__1_" transform="matrix(1 0 0 1 280.0547 381.9136)" class="st6 st7 st8">Pocahontas  9</text>
		<text transform="matrix(1 0 0 1 280.0545 473.6523)" class="st6 st7 st8">Randolph  15</text>
		<text transform="matrix(1 0 0 1 395.3347 175.5019)" class="st6 st7 st8">Ritchie  13</text>
		<text transform="matrix(1 0 0 1 395.3347 198.437)" class="st6 st7 st8">Roane  9</text>
		<text transform="matrix(1 0 0 1 395.3348 221.3716)" class="st6 st7 st8">Summers  6</text>
		<text transform="matrix(1 0 0 1 395.3347 244.3062)" class="st6 st7 st8">Taylor  6</text>
		<text transform="matrix(1 0 0 1 395.3347 267.2405)" class="st6 st7 st8">Tucker  10</text>
		<text transform="matrix(1 0 0 1 395.3347 290.1756)" class="st6 st7 st8">Tyler  4</text>
		<text transform="matrix(1 0 0 1 280.0544 427.7831)" class="st6 st7 st8">Putnam  10</text>
		<text transform="matrix(1 0 0 1 280.0545 450.7177)" class="st6 st7 st8">Raleigh  10</text>
		<text transform="matrix(1 0 0 1 395.3347 313.1104)" class="st6 st7 st8">Upshur  18</text>
		<text transform="matrix(1 0 0 1 395.3347 336.045)" class="st6 st7 st8">Wayne  11</text>
		<text transform="matrix(1 0 0 1 395.3347 358.9793)" class="st6 st7 st8">Webster  18</text>
		<text transform="matrix(1 0 0 1 395.3347 381.9144)" class="st6 st7 st8">Wetzel  11</text>
		<text id="Yuma_53_x09__2_" transform="matrix(1 0 0 1 395.3348 404.8488)" class="st6 st7 st8">Wirt   9</text>
		<text transform="matrix(1 0 0 1 395.3348 427.7828)" class="st6 st7 st8">Wood  549</text>
		<text transform="matrix(1 0 0 1 395.3347 450.7181)" class="st6 st7 st8">Wyoming  10</text>
		<text transform="matrix(1 0 0 1 39.7747 404.8477)" class="st6 st7 st8">Gilmer  10</text>
		<text transform="matrix(1 0 0 1 39.7749 290.175)" class="st6 st7 st8">Cabell  10</text>
		<text id="Yuma_53_x09__5_" transform="matrix(1 0 0 1 160.4537 175.5022)" class="st6 st7 st8">Hancock  9</text>
		<text transform="matrix(1 0 0 1 160.454 198.4365)" class="st6 st7 st8">Hardy  549</text>
		<text transform="matrix(1 0 0 1 160.4538 221.371)" class="st6 st7 st8">Harrison  448</text>
	</g>
</g>
<g id="TYPES_2_">
	<g>
		<circle id="_x34__2_" class="st9" cx="888.2" cy="-43.7" r="27.1"/>
		
			<text id="_x34__numbers_2_" transform="matrix(1 2.629919e-03 -2.629919e-03 1 862.8866 -37.7418)" class="st12 st7" style="font-size:16.1351px;">10,000</text>
	</g>
	<g>
		<circle id="_x33__2_" class="st9" cx="824" cy="-42.6" r="19.6"/>
		
			<text id="_x33__numbers_2_" transform="matrix(1 2.629927e-03 -2.629927e-03 1 806.1303 -37.764)" class="st12 st7" style="font-size:13.9838px;">1,000</text>
	</g>
	<g>
		<circle id="_x32__2_" class="st9" cx="770.8" cy="-41.7" r="13.3"/>
		
			<text id="_x32__numbers_2_" transform="matrix(1 2.629909e-03 -2.629909e-03 1 759.2684 -36.8703)" class="st12 st7" style="font-size:12.9081px;">100</text>
	</g>
	<g>
		<circle id="_x31__3_" class="st9" cx="687.8" cy="-40.6" r="7.7"/>
		
			<text id="_x31__numbers_3_" transform="matrix(1 2.629946e-03 -2.629946e-03 1 685.5339 -37.5126)" class="st12 st7" style="font-size:7.9112px;">1</text>
	</g>
	<g>
		<circle id="_x31__2_" class="st9" cx="726.6" cy="-40.6" r="10.3"/>
		
			<rect x="721.3" y="-45" transform="matrix(2.629838e-03 -1 1 2.629838e-03 764.7228 686.4681)" class="st10" width="10.3" height="9.7"/>
		
			<text id="_x31__numbers_2_" transform="matrix(1 2.629900e-03 -2.629900e-03 1 720.7214 -37.6422)" class="st12 st7" style="font-size:9.6811px;">10</text>
	</g>
</g>
<g id="Counties">
	<path id="kanawha" class="st11" d="M595.4,349.6l-3.2,3.6h-7.1l-7,16.7l-1.8,5.7l-1.2,7.7l7.8,10.2l2.9-4.1h9.3l0.5,0.3
		c7.9,4.3,10,5.7,10.5,6.6c0.9,0.6,4.9,2.8,8.3,4.4l0.7,0.4l3.2,10.2l3.3,2l6.9-32.3l-2.4-2.4l-6.8-16.1v-4.3l3.6-2.1v-0.7h-17.3
		l-7.2-5.9L595.4,349.6L595.4,349.6z"/>
	<path id="pendleton" class="st11" d="M758.6,310.8c-0.4,2.3-3.4,5.2-5.5,6.8l0.4,1.3c1.8-0.2,3.8-0.1,6.3,0.6
		c5.2,1.6,7.2,5.8,8.6,8.7c0.6,1.2,1.1,2.2,1.7,2.9c2.2,2.5,6.5,3,10.5,3l0,0c0.4-1.8,1-3.9,2-5.7l7.6-30.3l-4-2.6l-16.1-10
		l-0.5-1.5h-0.3v2.3l-9.1,6.9v5.1l2.8,3.2l-0.6,1.2C760.8,305.4,758.8,309.5,758.6,310.8z"/>
	<polygon id="roane" class="st11" points="630.7,350.1 630.7,341.5 626.2,336.8 619.6,320.5 615.8,317.6 615.7,317.8 606.1,321.8 
		603.3,316.7 599.7,316.7 599.6,328.8 601,328.8 601,346.7 607,351.6 626.7,351.6 626.7,352.2 	"/>
	<path id="cabell" class="st11" d="M534.8,383.9c-0.6,1-1.3,1.7-2,2.1l2.5,2.1l9.1,5.4l2.1,1.5l2.3-1.8l3-4l3.9-6.8l5.4-4.7
		l-5.4-9.5l-4.2-1.6l-3.8-2.9l-1.8-1.6c-1.4,0.8-2.9,1.3-4.2,1.7c-0.3,0.1-0.6,0.2-0.9,0.3v4.6c0,0.6,0.1,1.2,0.1,1.8
		c0.2,2.5,0.5,5.8-1,8.9C538.6,382.3,536.3,383.4,534.8,383.9z"/>
	<path id="mason" class="st11" d="M550.2,360.8l3.5,2.6l1.6,0.6v-12.2l9.1-0.6l11.9-7.7l-1.2-2.2l-10.6-12.7v-0.1
		c-5.2-1.1-6.1-6.6-6.6-9.7c-0.1-0.6-0.3-1.5-0.4-2c-0.6-0.4-1.5-0.8-2.3-1.1c-0.2,0.4-0.5,0.7-0.6,1c-0.8,1.4-1.4,2.1-1.6,3.5
		c-0.6,3.1-1.2,6.3-2,9.5l-0.2,17.3c0,0.6,0,1.2,0.1,1.8c0.2,3,0.3,7.2-2.1,10.6L550.2,360.8z"/>
	<polygon id="jefferson_1_" class="st11" points="886.6,219.1 881.4,212.3 881.3,212.2 872,228.4 884.4,234.6 	"/>
	<path id="randolph" class="st11" d="M715.4,346l13-6.8l6.1-7v-14.1l7.7-10.1l8.5,6.6c2-1.7,3.8-3.5,4-4.2c0.3-2,2.3-6,3.5-8.1
		l-1.9-2.2v-8.6l9.1-6.9v-0.4h-32.7l-3.8-3.6l-2.3,9.2l-10,4.4l-4.4,1.2v3.8l2.3,1.8v10l-2.8,6.9l-3.4,0.9l-8.5,4.6l4.5,3.1l8,15
		l-1.9,8.6L715.4,346z"/>
	<polygon id="nicholas" class="st11" points="668.7,348.7 660.9,352.6 659.1,358.3 654.6,363.5 650.2,368.3 647.1,370.2 
		634.1,382.6 634.2,383.1 642.2,383.1 645.1,379.8 650.7,379.8 655.2,384.1 659.9,392.7 673.5,392.7 690.3,376.5 690.3,370.7 
		678.9,366.8 671.1,360.3 671.1,353.5 	"/>
	<path id="mcdowell" class="st11" d="M588.1,473.4v0.3l-0.6,1.1c-0.1,0.3-0.4,1.2-0.4,1.7c0,0.2,0.2,0.6,1.9,2
		c0.5,0.4,1.1,0.8,1.8,1.3c3,2.1,6.5,4.6,8.4,7.7c2.2,0.6,4.1,1.5,5.8,2.2c3.2,1.4,5.5,2.4,8.7,1.9c3.6-0.6,4.7-0.7,6.3-2.2
		c1.2-1.1,2.4-2.5,3.6-3.9c0.9-1.1,1.9-2.2,3-3.2c0.5-0.5,0.8-0.8,1.1-1.2c1.7-1.8,3.5-3.5,5.9-4.1v-3l-1.7-0.1l-13.8-5h-8.9
		l-1.3,1.3h-14.3l-2.9-3l-1.1,0.6c0,0.2,0,0.3,0,0.5C589.8,470.7,588.7,472.4,588.1,473.4L588.1,473.4z"/>
	<polygon id="berkeley" class="st11" points="861.6,202.1 859.2,200.1 853.6,206.7 853.6,219.2 868.5,226.7 878.5,209.2 
		876.8,207.3 	"/>
	<polygon id="hardy" class="st11" points="792.1,292.4 806.5,292.4 807.7,284.6 816.6,273.1 824.4,269.2 824.4,261.3 827.5,254.5 
		826.8,254.1 824.8,257.4 807.9,257.1 794.4,253.8 792.8,256 792.8,277.8 795.7,279.2 795.7,289.4 	"/>
	<polygon id="morgan" class="st11" points="849.8,217.4 849.8,205.3 856.4,197.6 852.8,194.6 850.8,194.6 846,199.7 842.3,201.7 
		835.1,210 	"/>
	<polygon id="hampshire" class="st11" points="830.4,215.6 813.2,217.6 812,222 798.5,243.6 797,250.2 796.9,250.4 808.7,253.3 
		822.6,253.5 825.3,249.1 829.2,251.1 829.2,250.9 833.9,249.2 833.9,216.8 830.9,215 	"/>
	<polygon id="grant_1_" class="st11" points="766.4,250.1 762.9,256.1 773.5,267.7 773.4,274.3 772,279 773.2,283.2 787.1,291.6 
		791.9,287.6 791.9,281.6 788.9,280.2 788.9,254.8 790.3,252.9 774,249.8 769.8,245.7 	"/>
	<polygon id="mineral" class="st11" points="793.4,231.3 781.9,230.4 772.2,242.7 775.8,246.3 792.7,249.5 793.4,248.6 795.1,241.8 
		808.6,220.1 809.5,216.6 805.8,213.8 	"/>
	<path id="wetzel" class="st11" d="M635.3,237.4l22.6,10.1l5.1,1.2l9.6-24.2l-2.8-3.1l-12.8,2.2l-0.4-2.8l-14.8,3.9
		C640.3,229.4,637.9,233.4,635.3,237.4z"/>
	<polygon id="marshall" class="st11" points="656.3,217.1 652.8,190 648.7,191.3 644.6,193.6 642.5,220.7 	"/>
	<polygon id="ohio" class="st11" points="644.9,189 647.4,187.7 652.3,186.1 650.8,174 646.1,174 	"/>
	<path id="brooke" class="st11" d="M650.4,170.1l-3-24l-0.6,0.5c-0.1,0.7-0.1,1.5-0.2,2.1c-0.1,0.8-0.2,1.7-0.2,2.5
		c-0.1,3.1-0.1,6.5,0,9.7c0,1.7,0,3.3,0,5.1v4.2L650.4,170.1L650.4,170.1z"/>
	<polygon id="tucker" class="st11" points="745.8,260.8 743.6,257.3 736.7,257.3 729.3,262.4 729.2,275.5 734.3,280.3 768.4,280.3 
		767.9,279 769.7,273.4 769.7,269.3 760.8,259.6 752.4,273.7 750.4,260.8 	"/>
	<path id="pocahontas" class="st11" d="M701.9,364.6v10.8l0.7,1.4l3.2,7.2l3,3.2l4.9,2.4h7.7l5.5-2.4h2.7c0.6-1.4,1.4-2.7,2.2-4.2
		c2.6-4.2,4.1-9.6,5.5-14.8c0.6-1.9,1.1-3.9,1.7-5.8c0.6-1.7,1.1-3.4,1.8-5.2c1.8-5.3,3.7-10.1,3.2-14.9l-0.1-0.7
		c-0.6-6.3-1.6-15.8,4.1-20.5c0.5-0.4,1-0.7,1.7-1.1l-0.6-1.9l-6.2-4.8l-4.6,6v14.3l-7.6,8.7l-13.5,7.1l-10.8,9.3L701.9,364.6z"/>
	<polygon id="calhoun" class="st11" points="625.9,302 617.9,314.3 622.9,318.1 629.4,334.6 633.6,338.9 639.5,328.9 639.5,323.9 
		631.3,301.4 	"/>
	<polygon id="wirt" class="st11" points="590,305.9 598.5,312.9 605.6,312.9 607.8,316.9 613.1,314.7 622.3,300.5 608.6,288.1 	"/>
	<path id="greenbrier" class="st11" d="M695.9,372.7l-1.8-0.6v6.1L675,396.6h-13l10.9,19.7l13.8,12.8l23.6,0.2
		c-0.6-4.4,2.4-8.3,4-10.3c2-2.7,3-4.4,4.4-7.8c1.5-3.4,3-6.5,4.6-9.6l0.4-0.7c1.1-2.2,2-4.4,3-6.8c0.4-0.9,0.7-1.9,1.2-2.9h-0.2
		l-5.5,2.4h-9.3l-6.6-3.3l-3.9-4.2l-3.2-7.3L695.9,372.7z"/>
	<path id="wood_1_" class="st11" d="M601.6,275.6l-0.5-3.9l-0.3-0.7c-0.4,0-0.6,0-1-0.1l-3.6-0.7l-0.3-2c-1.1,1.3-2.6,3.1-4.2,5.5
		c-0.6,0.7-1,1.4-1.3,1.8c-1,1.4-1.9,2.7-2.9,4.1c-1.1,1.7-2.3,3.4-3.7,5.1c-0.8,1-1.7,1.9-2.6,2.9c-1.2,1.3-2.4,2.6-3,3.7
		c-0.6,1.4-1.8,6.1-1.9,8.1l2.9,1.1l7.2,3.7l20.6-19.7l2.8-5.4l-1.2-3.3L601.6,275.6L601.6,275.6z"/>
	<polygon id="clay" class="st11" points="638.1,338.8 634.6,344.6 634.6,352.4 626.7,356.6 626.7,358.4 623.1,360.5 623.1,361.9 
		629.4,376.6 632,379.3 644.9,367.1 647.9,365.2 651.7,360.9 655.6,356.3 656.4,354.2 652.8,352.9 	"/>
	<path id="jackson_1_" class="st11" d="M572.5,324c-0.2,1-0.6,2.2-1.8,3.1c-0.5,0.5-1,0.7-1.6,1l9.2,11l2,3.8l4.4,6.3h5.6l3.2-3.6
		h3.5v-13h-1.5l0.2-17l-8.2-6.7l-9.8-5c0.6,1.3,1.1,2.7,1.5,4.3c0.8,4.2,0.4,10.5-3.8,14.1C574.4,323.3,573.4,323.8,572.5,324z"/>
	<polygon id="preston" class="st11" points="718.3,241.1 720,254.3 727.3,259.1 735.6,253.5 745.7,253.5 748,257 749.7,257 
		742.2,209.1 723.8,212.2 723.8,222.8 718.3,234.3 	"/>
	<path id="pleasants" class="st11" d="M614.9,263.6c-1.2,0.6-2.5,1-3.7,1.5c-0.6,0.2-1.7,0.6-2,0.7c-0.1,0.2-0.2,0.4-0.3,0.6
		c-0.6,0.9-1.8,3-4.2,4.2l0.2,0.6l0.1,0.8h4.2l3-2.1l12.4-6.7l-3.7-3.8C619.4,260.6,617.6,262.1,614.9,263.6z"/>
	<polygon id="ritchie" class="st11" points="643.5,274.9 635.7,269.9 627.8,265.5 614.4,272.9 612.2,274.4 613.9,279.1 611,285.1 
		625.4,298.2 633,297.5 644.3,290.7 647.8,288.1 645.8,285.6 	"/>
	<path id="gilmer" class="st11" d="M652.1,289.7l-5.7,4.2l-11.3,6.7l8.2,23v0.4h4.2l4.1-3.6c1.6-1.6,3.5-3.5,4.1-4.2
		c0.3-0.7,1.3-2.3,4.3-6.7l0.4-0.5l4.8-1.8l1.8-1.3l-12.1-16.2H652.1L652.1,289.7L652.1,289.7z"/>
	<polygon id="upshur" class="st11" points="694.1,283.5 694.1,301.2 690.1,301.8 690.1,320.2 695.9,321.2 707.3,315.1 709,314.6 
		710.8,310.2 710.8,302.8 708.5,301.1 708.5,294.8 695.4,281.9 	"/>
	<polygon id="webster" class="st11" points="690.1,324.1 684.4,322.8 671.8,346.1 675,352.5 675,358.5 680.8,363.4 698.1,369.3 
		698.1,363.2 704,355.9 705.7,354.4 708.4,342.1 701.5,329.1 695.6,324.9 690.1,324 	"/>
	<path id="braxton" class="st11" d="M669.6,312.5l-1.1-3.1l-1.9,1.4l-4,1.4c-1.5,2.1-3,4.4-3.5,5.2c-0.2,0.7-0.9,1.8-5.2,5.7
		l-5.2,4.7h-5.4v2.1l-2.1,3.8l-1,1.7l14.7,14.2l2.7,0.9l0.2-0.6l10.4-5.3l13.4-24.4V317l-3.9-4.4L669.6,312.5L669.6,312.5
		L669.6,312.5z"/>
	<polygon id="barbour" class="st11" points="699.3,266.7 699.8,272 697.4,278.5 711,291.8 715.7,290.5 723.4,287 725.5,279.1 
		725.5,262.5 718.1,257.6 	"/>
	<polygon id="taylor_1_" class="st11" points="711,242.6 700.5,250.5 696.9,252.1 698.4,258.5 698.8,262.7 716.1,254.3 714.6,243 	
		"/>
	<path id="boone" class="st11" d="M602.8,398.6c-1-0.7-5.2-3.2-8.9-5.3h-6.4l-2.4,3.3l-4.1,4.9l-0.7,10l-4.6,7.1l-0.6,0.3
		c0,0-0.1,0-0.1,0.1l14.8,0.6l0.6,0.5c1.9,1.8,6.1,5.6,7.9,8.1l0.6-0.9l1.8,1.7l4.1,4.2l8.6-2.4l1.1-17.4l-2.9-9
		C605.1,400.5,603.4,399.3,602.8,398.6z"/>
	<path id="logan" class="st11" d="M570.4,421.3c-0.9,0.7-7.1,3.6-11.3,5.5v4.5l6.3,8.7l7.4,8.3l4.1,3.6l6.7-3l10.2,0.3l3-3.6
		l-1.9-3.3l1.2-4.8l5.4-3l-1.8-1.8c-0.4,0.1-0.7,0.2-1.1,0.2c-0.6,0-1.8-0.4-2.5-2c-0.5-0.9-4.1-4.6-7.3-7.6l-17.5-0.6V421
		C570.7,421,570.5,421.2,570.4,421.3z"/>
	<path id="wyoming" class="st11" d="M613.5,434.5l-8.2,2.3l-5.9,3.3l-0.5,1.7l2.6,4.3l-5,5.8v4.7l-2.7,2.3l-0.5,5.5l2.1,2.1h11.1
		l1.3-1.3l11.4,0.1l13.8,5h0.7v-1.8l1-0.6c0.5-0.3,1-0.7,1.1-1c0.1-1.6,2.1-4.1,3.8-6l-26.3-25.3v-1.1H613.5z"/>
	<polygon id="raleigh" class="st11" points="665.1,433.1 661.8,426.1 654,427.9 653.7,423.2 628.4,423.2 620.4,417.3 618.4,416 
		617.3,434.2 641.9,457.9 644.6,453.9 653.6,449.6 653.6,443.1 658.8,433.1 	"/>
	<path id="mercer" class="st11" d="M652.7,454.3l-5.4,2.7l-4.3,6.1c-1.7,1.8-3.1,3.9-3.3,4.5c-0.1,1.5-1.2,2.6-2.1,3.2v6.4
		c1.1,0.2,2.2,0.6,3.5,1.2c2.4,1.2,4.2,3.2,5.4,4.9c0.2,0.3,0.4,0.5,0.6,0.7c0.8-0.5,1.6-0.9,2-1.1c1.1-0.5,2.2-0.6,3.1-0.8
		c0.5-0.1,1.3-0.3,1.5-0.4s0.6-0.6,0.9-1c0.7-0.8,1.7-1.9,3-2.9c1.3-0.8,2.6-1.2,3.6-1.5c0.1,0,0.3-0.1,0.4-0.1
		c0.2-0.6,0.4-1.6,0.6-2.3c0.4-1.7,0.7-3.6,1.7-5.4c0.2-0.5,0.6-1.6,1-2.5c0.5-1.4,1-2.6,1.5-3.6l-11.3-9.1L652.7,454.3z"/>
	<path id="lncoln" class="st11" d="M566.9,383.6l-3.2-3l-5,4.4l-3.5,6.4l-3.5,4.6l-3,2.3v10.1l7.6,8.3l-1.2,1.3
		c-1,1-1.9,2.4-2.1,2.9c0,0.3-0.1,0.6-0.2,1.1l4.3,1.5c5-2.2,10.3-4.7,11-5.2c0.9-0.7,3.9-2.1,5.4-2.8l3.4-5.3l0.8-10.2l2.8-3.3
		l-8.6-11.3L566.9,383.6z"/>
	<path id="mingo" class="st11" d="M550.4,429.1l-5,2.8v6.9c0.6,0.5,1.7,1.1,2.4,1.5l1.4,0.9c1.4,1.1,2.5,2.3,3.4,3.4
		c0.7,0.8,1.5,1.7,2.2,2.2l0.5,0.4c0.3,0.3,0.6,0.5,0.7,0.6c0.5,0.3,0.9,0.7,1.5,1.2c1.7,1.2,3,3,3.9,4.9l0.4,0.5
		c1.2,1.5,2.1,2.7,3.1,3.8c0.3,0.2,0.6,0.3,1.3,0.5c0.8,0.3,1.8,0.6,3,1.1c2.2,1.1,4.2,2.1,6,2.5h4.3c0.1,0,0.3,0,0.6,0
		c2-0.2,5.4-0.5,7.7,1.8c0.3,0.2,0.5,0.5,0.6,0.7l1.1-0.6l0.6-6.8l2.5-2.2v-1.8l-8.5-0.3l-8.2,3.6l-6-5.4l-7.7-8.6l-7.1-9.9v-5.6
		l-3.5-1.2c-0.3,1-0.6,1.9-0.9,2.7L550.4,429.1z"/>
	<polygon id="putnam" class="st11" points="565.6,354.8 559,355.3 559,366.2 565,376.8 568.9,380.3 571.5,381.2 572.6,374.6 
		574.5,368.6 581.6,351.5 578.2,346.7 	"/>
	<path id="wayne" class="st11" d="M527.6,386.8l-0.9-0.2c-1.6-0.4-2.8-0.6-4.2-0.6h-0.6c-0.1,0-0.2-0.1-0.4-0.1l1.2,20.9
		c0,0,0.1,0,0.1,0.1l0.6,0.2l0.6,0.4c0.5,0.3,0.9,0.6,1.4,0.7c0.6,0.4,1.4,0.7,2.2,1.2c1.9,1,3.3,1.9,4.6,2.8l0.7,0.6
		c0.3,0.2,0.6,0.5,0.9,0.6c0.6,0.5,1.5,0.9,2.1,1.6c2.5,1.8,3.6,4.2,3.6,7.5c0,1.7-0.6,2.9-0.8,3.6v0.6l-0.6,1.1
		c-0.2,0.5,0,1.7,0.4,1.9l0.4,0.4c0.1,0.1,0.3,0.2,0.4,0.3c0.6,0.4,1.3,0.8,1.9,1.6v-2.5l5.6-3.1c0.8-2.4,1.7-5.2,1.8-5.8
		c0-1.2,0.9-2.7,1.9-4l-6.2-6.7v-11.3l-2.3-1.7l-9.1-5.7l-5.2-4.3h-0.1L527.6,386.8L527.6,386.8z"/>
	<polygon id="fayette" class="st11" points="649.2,383.7 646.8,383.7 643.9,386.9 631.3,386.9 625,415.9 629.7,419.3 657.3,419.3 
		657.6,423.1 661.5,422.2 662.3,419.9 668.7,416.6 651.9,386.2 	"/>
	<path id="summers" class="st11" d="M665.4,422.7l-0.5,1.1l5.1,10.8v5.3l-5.4,3.9L663,437h-1.8l-3.8,7.2v5.9l11,8.9
		c0.4-0.5,0.8-0.9,1.3-1.3c1.7-1.3,3.2-1.6,4.8-1.4l2.7-3.6l3.1-9.6l3.5-11.5l-12.7-11.7L665.4,422.7z"/>
	<path id="monroe_1_" class="st11" d="M712,433l-24.5-0.2l-3.5,11.3l-3.6,10.5l-2,2.8c0.8,0.5,1.6,0.9,2.1,1.3
		c0.7,0.5,1.6,1,2.2,1.3c0.1,0,0.2,0.1,0.3,0.1c0,0,0-0.1,0.1-0.1l0.5-0.8c2.3-4.1,4.3-5.2,6.9-6.3c0.7-0.3,1.5-0.6,2.5-1.2l0.9-0.6
		c4-2.4,5.3-2.7,10.1-2.4c3.4,0.2,3.4,0.2,4.9-2.3c0.6-1.1,1.5-1.9,2.1-2.7c0.3-0.3,0.6-0.7,0.7-0.8c0.3-0.5,0.3-0.5,0.4-1.1
		c0.1-0.6,0.2-1.2,0.5-2.2c0.3-1.2,0.7-2.3,1.1-3.3c0.1-0.3,0.3-0.6,0.4-0.8c-0.2-0.2-0.5-0.4-0.6-0.6
		C712.8,434.2,712.4,433.6,712,433z"/>
	<polygon id="monongalia" class="st11" points="676.3,225.9 686.3,223.1 693.6,223.1 707.8,236 709.4,236 711.4,238.8 714.4,239.1 
		714.4,233.3 719.9,221.9 719.9,212.9 674.3,220.7 677.1,223.8 	"/>
	<polygon id="marion" class="st11" points="683.4,247.5 694.4,249 698.7,247.1 707.7,240.2 707.6,239.9 706.4,239.9 692.1,227 
		686.6,227 674.5,230.4 668.7,245 	"/>
	<polygon id="harrison" class="st11" points="666.1,251.3 667.7,277.3 691.3,280.9 693.4,278.1 695.9,271.4 694.5,259.2 
		693.1,252.7 682.8,251.2 667.2,248.6 	"/>
	<path id="tyler" class="st11" d="M631.6,242.8c-2.2,3.1-4.2,6.1-5.9,9l-0.6,1c-0.6,1.1-1.2,2-1.8,3l5.7,5.8l8.7,4.8l3.4,2.1
		l6.6-7.3l3.9-5l3.2-6.2l-21.8-9.6C632.6,241.4,632.1,242.1,631.6,242.8z"/>
	<polygon id="lewis" class="st11" points="671.4,305.7 672.4,308.6 679.4,308.6 685.3,315.5 685.3,319.1 686.3,319.3 686.3,298.5 
		690.3,297.9 690.3,284.5 666.4,281 658.4,288 	"/>
	<polygon id="doddridge" class="st11" points="658.4,251.6 654.7,258.6 650.6,263.9 644.4,270.8 646.9,272.5 649.4,284 650.9,285.8 
		650.9,285.8 655.1,285.8 663.8,278.2 662.3,252.5 	"/>
</g>
<g id="balls">
	<circle id="jefferson_circle" class="st9" cx="879.9" cy="223.8" r="7.9"/>
	<circle id="berkeley_circle" class="st9" cx="864.1" cy="213" r="7.9"/>
	<circle id="morgan_circle" class="st9" cx="846.2" cy="204.7" r="7.9"/>
	<circle id="hampshire_circle" class="st9" cx="818.7" cy="234.6" r="7.9"/>
	<circle id="hardy_circle" class="st9" cx="803.6" cy="269.9" r="7.9"/>
	<circle id="mineral_circle" class="st9" cx="791.4" cy="233.1" r="7.9"/>
	<circle id="grant_circle" class="st9" cx="779.1" cy="267.7" r="7.9"/>
	<circle id="pendleton_circle" class="st9" cx="774.1" cy="308.7" r="7.9"/>
	<circle id="tucker_circle" class="st9" cx="748.9" cy="270.6" r="7.9"/>
	<circle id="barbour_circle" class="st9" cx="712.2" cy="273.5" r="7.9"/>
	<circle id="randolph_circle" class="st9" cx="728.7" cy="308.7" r="7.9"/>
	<circle id="upshur_circle" class="st9" cx="700.7" cy="304.4" r="7.9"/>
	<circle id="lewis_circle" class="st9" cx="676.2" cy="293.6" r="7.9"/>
	<circle id="harrison_circle" class="st9" cx="679.8" cy="264.8" r="7.9"/>
	<circle id="doddridge_circle" class="st9" cx="656" cy="269.1" r="7.9"/>
	<circle id="taylor_circle" class="st9" cx="706.4" cy="252.6" r="7.9"/>
	<circle id="preston_circle" class="st9" cx="733.1" cy="234.6" r="7.9"/>
	<circle id="marion_circle" class="st9" cx="687.7" cy="236.7" r="7.9"/>
	<circle id="monongalia_circle" class="st9" cx="701.4" cy="222.3" r="7.9"/>
	<circle id="brooke_circle" class="st9" cx="647.4" cy="158.3" r="7.9"/>
	<circle id="ohio_circle" class="st9" cx="647.4" cy="181.3" r="7.9"/>
	<circle id="marshall_circle" class="st9" cx="648.8" cy="205.1" r="7.9"/>
	<circle id="wetzel_circle" class="st9" cx="656" cy="234.6" r="7.9"/>
	<circle id="tyler_circle" class="st9" cx="638.7" cy="254" r="7.9"/>
	<circle id="pleasants_circle" class="st9" cx="615" cy="265.5" r="7.9"/>
	<circle id="ritchie_circle" class="st9" cx="628.7" cy="280.7" r="7.9"/>
	<circle id="gilmer_circle" class="st9" cx="650.3" cy="305.9" r="7.9"/>
	<circle id="wirt_circle" class="st9" cx="607.1" cy="303" r="7.9"/>
	<circle id="wood_circle" class="st9" cx="592.7" cy="285.7" r="7.9"/>
	<circle id="braxton_circle" class="st9" cx="661.1" cy="331.1" r="7.9"/>
	<circle id="calhoun_circle" class="st9" cx="629.9" cy="320.7" r="7.9"/>
	<circle id="roane_circle" class="st9" cx="614.3" cy="336.8" r="7.9"/>
	<circle id="clay_circle" class="st9" cx="638" cy="358.4" r="7.9"/>
	<circle id="webster_circle" class="st9" cx="689.1" cy="344.7" r="7.9"/>
	<circle id="pocahontas_circle" class="st9" cx="725.1" cy="362" r="7.9"/>
	<circle id="nicholas_circle" class="st9" cx="666.1" cy="374.3" r="7.9"/>
	<circle id="kanawha_circle" class="st9" cx="602.7" cy="376.4" r="7.9"/>
	<circle id="jackson_circle" class="st9" cx="586.2" cy="328.2" r="7.9"/>
	<circle id="mason_circle" class="st9" cx="559.5" cy="339" r="7.9"/>
	<circle id="putnam_circle" class="st9" cx="571.1" cy="359.9" r="7.9"/>
	<circle id="cabell_circle" class="st9" cx="547.3" cy="380.7" r="7.9"/>
	<circle id="wayne_circle" class="st9" cx="538.7" cy="408.1" r="7.9"/>
	<circle id="lncoln_circle" class="st9" cx="563.7" cy="401.6" r="7.9"/>
	<circle id="logan_circle" class="st9" cx="579.7" cy="434" r="7.9"/>
	<circle id="boone_circle" class="st9" cx="598.4" cy="410.3" r="7.9"/>
	<circle id="fayette_circle" class="st9" cx="643.8" cy="404.5" r="7.9"/>
	<circle id="greenbrier_circle" class="st9" cx="695.6" cy="407.4" r="7.9"/>
	<circle id="monroe_circle" class="st9" cx="694.9" cy="444.1" r="7.9"/>
	<circle id="summers_circle" class="st9" cx="669.9" cy="442.4" r="7.9"/>
	<circle id="raleigh_circle" class="st9" cx="639.5" cy="435.5" r="7.9"/>
	<circle id="wyoming_circle" class="st9" cx="614.3" cy="454.2" r="7.9"/>
	<circle id="mingo_circle" class="st9" cx="567.5" cy="452" r="7.9"/>
	<circle id="mercer_circle" class="st9" cx="651.7" cy="469.3" r="7.9"/>
	<circle id="mcdowell_circle" class="st9" cx="609.2" cy="478.7" r="7.9"/>
	<text id="jefferson_numbers" transform="matrix(1 2.629973e-03 -2.629973e-03 1 877.2001 225.5395)" class="st12 st7 st13">1</text>
	<text id="berkeley_numbers" transform="matrix(1 2.629973e-03 -2.629973e-03 1 861.3597 214.7397)" class="st12 st7 st13">1</text>
	<text id="morgan_numbers" transform="matrix(1 2.629973e-03 -2.629973e-03 1 843.4941 206.4385)" class="st12 st7 st13">1</text>
	<text id="hampshire_numbers" transform="matrix(1 2.629973e-03 -2.629973e-03 1 815.9996 236.3398)" class="st12 st7 st13">1</text>
	<text id="hardy_numbers" transform="matrix(1 2.629973e-03 -2.629973e-03 1 800.8801 271.6195)" class="st12 st7 st13">1</text>
	<text id="mineral_numbers" transform="matrix(1 2.629973e-03 -2.629973e-03 1 788.6396 234.8997)" class="st12 st7 st13">1</text>
	<text id="grant_numbers" transform="matrix(1 2.629973e-03 -2.629973e-03 1 776.4001 269.4595)" class="st12 st7 st13">1</text>
	<text id="pendleton_numbers" transform="matrix(1 2.629973e-03 -2.629973e-03 1 771.36 310.4995)" class="st12 st7 st13">1</text>
	<text id="tucker_numbers" transform="matrix(1 2.629973e-03 -2.629973e-03 1 746.16 272.3395)" class="st12 st7 st13">1</text>
	<text id="barbour_numbers" transform="matrix(1 2.629973e-03 -2.629973e-03 1 709.4401 275.2195)" class="st12 st7 st13">1</text>
	<text id="randolph_numbers" transform="matrix(1 2.629973e-03 -2.629973e-03 1 726.0001 310.4995)" class="st12 st7 st13">1</text>
	<text id="upshur_numbers" transform="matrix(1 2.629973e-03 -2.629973e-03 1 697.92 306.1795)" class="st12 st7 st13">1</text>
	<text id="lewis_numbers" transform="matrix(1 2.629973e-03 -2.629973e-03 1 673.4396 295.3797)" class="st12 st7 st13">1</text>
	<text id="harrison_numbers" transform="matrix(1 2.629973e-03 -2.629973e-03 1 677.0396 266.5797)" class="st12 st7 st13">1</text>
	<text id="doddridge_numbers" transform="matrix(1 2.629973e-03 -2.629973e-03 1 653.2797 270.8999)" class="st12 st7 st13">1</text>
	<text id="taylor_numbers" transform="matrix(1 2.629973e-03 -2.629973e-03 1 703.6797 254.3399)" class="st12 st7 st13">1</text>
	<text id="preston_numbers" transform="matrix(1 2.629973e-03 -2.629973e-03 1 730.3196 236.3399)" class="st12 st7 st13">1</text>
	<text id="marion_numbers" transform="matrix(1 2.629973e-03 -2.629973e-03 1 684.9595 238.4997)" class="st12 st7 st13">1</text>
	<text id="monongalia_numbers" transform="matrix(1 2.629973e-03 -2.629973e-03 1 698.6396 224.0999)" class="st12 st7 st13">1</text>
	<text id="brooke_numbers" transform="matrix(1 2.629973e-03 -2.629973e-03 1 644.6396 160.0197)" class="st12 st7 st13">1</text>
	<text id="ohio_numbers" transform="matrix(1 2.629973e-03 -2.629973e-03 1 644.6396 183.0597)" class="st12 st7 st13">1</text>
	<text id="marshall_numbers" transform="matrix(1 2.629973e-03 -2.629973e-03 1 646.0796 206.8197)" class="st12 st7 st13">1</text>
	<text id="wetzel_numbers" transform="matrix(1 2.629973e-03 -2.629973e-03 1 653.2797 236.3399)" class="st12 st7 st13">1</text>
	<text id="tyler_numbers" transform="matrix(1 2.629973e-03 -2.629973e-03 1 635.9996 255.7797)" class="st12 st7 st13">1</text>
	<text id="pleasants_numbers" transform="matrix(1 2.629973e-03 -2.629973e-03 1 612.2397 267.2997)" class="st12 st7 st13">1</text>
	<text id="ritchie_numbers" transform="matrix(1 2.629973e-03 -2.629973e-03 1 625.9197 282.4197)" class="st12 st7 st13">1</text>
	<text id="gilmer_numbers" transform="matrix(1 2.629973e-03 -2.629973e-03 1 647.5196 307.6197)" class="st12 st7 st13">1</text>
	<text id="wirt_numbers" transform="matrix(1 2.629973e-03 -2.629973e-03 1 604.3196 304.7399)" class="st12 st7 st13">1</text>
	<text id="wood_numbers" transform="matrix(1 2.629973e-03 -2.629973e-03 1 589.9197 287.4597)" class="st12 st7 st13">1</text>
	<text id="braxton_numbers" transform="matrix(1 2.629973e-03 -2.629973e-03 1 658.3196 332.8197)" class="st12 st7 st13">1</text>
	<text id="calhoun_numbers" transform="matrix(1 2.629973e-03 -2.629973e-03 1 627.1804 322.4429)" class="st12 st7 st13">1</text>
	<text id="roane_numbers" transform="matrix(1 2.629973e-03 -2.629973e-03 1 611.5196 338.5797)" class="st12 st7 st13">1</text>
	<text id="clay_numbers" transform="matrix(1 2.629973e-03 -2.629973e-03 1 635.2795 360.1797)" class="st12 st7 st13">1</text>
	<text id="webster_numbers" transform="matrix(1 2.629973e-03 -2.629973e-03 1 686.3997 346.4999)" class="st12 st7 st13">1</text>
	<text id="pocahontas_numbers" transform="matrix(1 2.629973e-03 -2.629973e-03 1 722.3995 363.7797)" class="st12 st7 st13">1</text>
	<text id="nicholas_numbers" transform="matrix(1 2.629973e-03 -2.629973e-03 1 663.3597 376.0197)" class="st12 st7 st13">1</text>
	<text id="kanawha_numbers" transform="matrix(1 2.629973e-03 -2.629973e-03 1 599.9996 378.1798)" class="st12 st7 st13">1</text>
	<text id="jackson_numbers" transform="matrix(1 2.629973e-03 -2.629973e-03 1 583.4396 329.9397)" class="st12 st7 st13">1</text>
	<text id="mason_numbers" transform="matrix(1 2.629973e-03 -2.629973e-03 1 556.7997 340.7397)" class="st12 st7 st13">1</text>
	<text id="putnam_numbers" transform="matrix(1 2.629973e-03 -2.629973e-03 1 568.3196 361.6197)" class="st12 st7 st13">1</text>
	<text id="cabell_numbers" transform="matrix(1 2.629973e-03 -2.629973e-03 1 544.5596 382.4997)" class="st12 st7 st13">1</text>
	<text id="wayne_numbers" transform="matrix(1 2.629973e-03 -2.629973e-03 1 535.9197 409.8599)" class="st12 st7 st13">1</text>
	<text id="lncoln_numbers" transform="matrix(1 2.629973e-03 -2.629973e-03 1 560.9595 403.3797)" class="st12 st7 st13">1</text>
	<text id="logan_numbers" transform="matrix(1 2.629973e-03 -2.629973e-03 1 576.9595 435.7797)" class="st12 st7 st13">1</text>
	<text id="boone_numbers" transform="matrix(1 2.629973e-03 -2.629973e-03 1 595.6797 412.0197)" class="st12 st7 st13">1</text>
	<text id="fayette_numbers" transform="matrix(1 2.629973e-03 -2.629973e-03 1 641.0397 406.2599)" class="st12 st7 st13">1</text>
	<text id="greenbrier_numbers" transform="matrix(1 2.629973e-03 -2.629973e-03 1 692.8796 409.1397)" class="st12 st7 st13">1</text>
	<text id="monroe_numbers" transform="matrix(1 2.629973e-03 -2.629973e-03 1 692.1597 445.8599)" class="st12 st7 st13">1</text>
	<text id="summers_numbers" transform="matrix(1 2.629973e-03 -2.629973e-03 1 667.1246 444.1324)" class="st12 st7 st13">1</text>
	<text id="raleigh_numbers" transform="matrix(1 2.629973e-03 -2.629973e-03 1 636.7195 437.2197)" class="st12 st7 st13">1</text>
	<text id="wyoming_numbers" transform="matrix(1 2.629973e-03 -2.629973e-03 1 611.5196 455.9397)" class="st12 st7 st13">1</text>
	<text id="mingo_numbers" transform="matrix(1 2.629973e-03 -2.629973e-03 1 564.7197 453.7799)" class="st12 st7 st13">1</text>
	<text id="mercer_numbers" transform="matrix(1 2.629973e-03 -2.629973e-03 1 648.9595 471.0597)" class="st12 st7 st13">1</text>
	<text id="mcdowell_numbers" transform="matrix(1 2.629973e-03 -2.629973e-03 1 606.4797 480.4197)" class="st12 st7 st13">1</text>
</g>
<g id="table_data">
	<text transform="matrix(1 0 0 1 22.5233 648.3823)" class="st2 st7 st8">Confirmed Cases</text>
	<text transform="matrix(1 0 0 1 22.5233 692.3141)" class="st2 st7 st8">Deaths</text>
	<text id="current_date" transform="matrix(1 0 0 1 206.0529 604.1003)" class="st2 st7 st8">6 Apr. 2020</text>
	<text id="previous_date" transform="matrix(1 0 0 1 340.8311 604.1003)" class="st2 st7 st8">5 Apr. 2020</text>
	<text id="growth_rate__x25_" transform="matrix(1 0 0 1 459.8992 604.1003)" class="st2 st7 st8">Growth Rate %</text>
	<text transform="matrix(1 0 0 1 675.1742 604.1003)" class="st2 st7 st8">Total Confirmed Cases</text>
	<text id="current_сases" transform="matrix(1 0 0 1 228.9085 652.1345)" class="st14 st7 st5">783</text>
	<text id="previous_deaths" transform="matrix(1 0 0 1 371.6216 696.614)" class="st14 st7 st5">14</text>
	<text id="current_deaths" transform="matrix(1 0 0 1 232.4288 695.6342)" class="st14 st7 st5">15</text>
	<text id="total_cases" transform="matrix(1 0 0 1 733.6235 681.2775)" class="st15 st7 st16">783</text>
	<text id="previous_сases" transform="matrix(1 0 0 1 363.7088 652.1345)" class="st14 st7 st5">673</text>
	<text id="cases_growth_rate" transform="matrix(1 0 0 1 493.6218 653.6708)" class="st14 st7 st5">16 %</text>
	<text id="death_growth_rate" transform="matrix(1 0 0 1 498.0211 698.1501)" class="st14 st7 st5">7 %</text>
</g>
</svg>
