<?xml version="1.0" encoding="utf-8"?>
<!-- Generator: Adobe Illustrator 24.1.2, SVG Export Plug-In . SVG Version: 6.00 Build 0)  -->
<svg version="1.1" id="Counties" xmlns="http://www.w3.org/2000/svg" xmlns:xlink="http://www.w3.org/1999/xlink" x="0px" y="0px"
	 viewBox="0 0 916.5 609.1" style="enable-background:new 0 0 916.5 609.1;" xml:space="preserve">
<style type="text/css">
	.st0{fill:#AEDBF5;}
	.st1{fill:#F5FBFE;}
	.st2{fill:#DDEEFA;}
	.st3{fill:#255078;}
	.st4{font-family:'Georgia';}
	.st5{font-size:18px;}
	.st6{font-size:16px;}
	.st7{fill:#4C4B4D;}
	.st8{font-family:'ArialMT';}
	.st9{font-size:14px;}
	.st10{fill:#CD483B;}
	.st11{fill:#FFFFFF;}
	.st12{font-size:22.7358px;}
	.st13{fill:#4C4B4C;}
	.st14{fill:#DB3029;}
	.st15{font-size:36px;}
	.st16{fill:none;}
</style>
<path id="New_London" class="st0" d="M755.4,293l-13.3-11.7l-12.3-25.6l-4.9-9.4v-4.2l0.1-0.1c19.3-13.6,20-15.3,20.4-16.5
	c0.5-1.1,4.5-9.2,8.3-16.6l0.1-0.1h0.6l9.6,11.9h26.6l30.1-13.7l4.9,18.4l1.4,49.4l12.4-0.4l-1,0.4c-4.5,1.9-9.2,3.7-13.7,5.5
	c-11.3,4.4-23.1,9-33.6,14.8c-11.4,6.2-22.8,9.1-35.5,12.1l-0.2,0.1L755.4,293L755.4,293L755.4,293z"/>
<path id="Middlesex" class="st0" d="M734.8,312.2c5.6-1.6,11.1-2.9,16.5-4.1H747v-11.2l-11.8-10.3l-15-30.5l-2.9-2.9l-7.4-9.6
	l-9.8-3.9h-3l-20.6,14.2h-5.1v10.9c0.9,2,3,6.4,3.6,9.7c0.2,0.2,0.8,0.5,1.3,0.6l1.7,0.2l1.2,1.4l6.1,7.6h14.6l15.9,18.5l5.2,5.3
	l3.6,7l-3.9,2C725.5,315.3,730.2,313.6,734.8,312.2z"/>
<path id="New_Haven" class="st0" d="M659.4,337.4c2.9-2,6.1-3.3,9.5-3.7c5.5-11.1,24.2-10.2,34.7-11.7c4.4-0.6,8.7-1.9,13.1-3.4
	l-3-5.8l-4-3.9L696,293.1h-14.9l-7.7-9.6c-2.8-0.8-6.1-2.9-7.1-7.1c-0.3-1.7-1.4-4.2-2.2-6.1h-15.4l-7.4-8.1h-18.4l-45.1,43.7h16.6
	v7.7l12,4.9L621,328h15.9l-4.9,24.3l-4.2,11.5l0.1,3c4.2-7.1,5.8-15.6,11-22.1c2.8-3.4,7.5-7.6,11.8-9
	C651,335.5,664.8,333.6,659.4,337.4z"/>
<path id="Fairfield" class="st0" d="M583.4,397.6c12.3-8.6,30-15.3,40.4-25.4l0,0l-4.4,0.2l-0.3-10l4.6-12.8l2.6-12.9h-7.8
	L602,325.9l-16.2-6.5v-4.9h-30.2l-6.1-4.4v85.4l-12.7,13.7l9.1,15c5.9-4.9,12.9-6.9,18.7-11.8C571.1,407,576.7,402.2,583.4,397.6z"
	/>
<polygon id="Windham" class="st0" points="768.1,212.3 788.7,212.3 818.2,198.9 813.9,182.9 797.2,125 754.5,134.8 756.4,142.1 
	743,149.5 743,155.6 751.1,173.6 760.8,188.4 760.8,203.2 "/>
<path id="Tolland" class="st0" d="M737.9,221.8c1.6-3.4,8-16.2,9.5-19l1.2-2.4h3.5V191l-8.7-13.5l-9-20v-13.1l11.9-6.6l-0.2-0.9
	l-55.7,12.9l7.4,16l9,21.6l15.5,36.1l3.2,5.9v2.2C731.1,227.2,736.5,223.1,737.9,221.8z"/>
<polygon id="Hartford" class="st0" points="645.4,253.3 652.8,261.5 662.7,261.5 662.7,245.2 673.9,245.2 694.5,230.9 701.9,230.9 
	715.5,236.3 716.4,237.6 716.4,231.5 714.2,227.1 698.5,190.7 689.6,169.2 681.5,151.8 599.1,170.8 599.1,178.7 606.6,178.7 
	606.6,172.7 628.2,172.7 625.6,216.9 616.2,229.2 621.7,238.4 625.7,249.5 625.7,253.3 "/>
<polygon id="litchfield" class="st0" points="558.5,305.7 569,305.7 569,302.4 616.9,255.8 616.9,250.4 613.7,241.9 605.7,228.6 
	617,213.7 618.9,181.5 615.3,181.5 615.3,187.4 590.4,187.4 590.4,172.9 522.3,188.6 548.2,298.3 "/>
<polygon id="blue_bg" class="st1" points="0,473.8 0,510.8 0,520.4 0,609.2 173.5,609.2 173.5,520.4 915,520.4 915,473.8 "/>
<path id="line_bg" class="st2" d="M916.5,0H0l0,0v474.4v2v42.9v2v42.9v2v42.9l0,0h579.8l0,0H913l0,0h3.5V0z M913,56.8v417.6H578.4
	l-0.6-0.3v0.3H443.6l-0.6-0.3v0.3H3V56.8H913z M913,476.4v42.9H579.8v-42.9H913z M445.1,519.4v-42.9h132.8v42.9H445.1z M577.8,521.4
	v42.9H445.1v-42.9H577.8z M310.3,519.4v-42.9h132.8v42.9H310.3z M443.1,521.4v42.9H310.3v-42.9H443.1z M175.5,519.4v-42.9h132.8
	v42.9H175.5z M308.3,521.4v42.9H175.5v-42.9H308.3z M173.5,476.4v42.9H3v-42.9H173.5z M173.5,521.4v42.9H3v-42.9H173.5z M3,566.3
	h170.5v39.9H3V566.3z M175.5,566.3h132.8v39.9H175.5V566.3z M310.3,566.3h132.8v39.9H310.3V566.3z M445.1,566.3h132.8v39.9H445.1
	V566.3z M579.8,521.4H913v84.8H579.8V521.4z"/>
<text id="title" transform="matrix(1 0 0 1 32.8483 35.8369)" class="st3 st4 st5">COVID-19 in Connecticut on</text>
<text id="date" transform="matrix(1 0 0 1 267.0382 35.8369)" class="st3 st4 st5">April 27th, 2020</text>
<text id="confirmed" transform="matrix(1 0 0 1 117.993 207.6707)" class="st3 st4 st6">State Confirmed Cases By County</text>
<g id="Texts">
	<text transform="matrix(1 0 0 1 117.9931 252.4771)" class="st7 st8 st9">litchfield 53</text>
	<text transform="matrix(1 0 0 1 117.9929 280.5254)" class="st7 st8 st9">Hartford 53</text>
	<text transform="matrix(1 0 0 1 117.993 310.1843)" class="st7 st8 st9">Tolland 53</text>
	<text transform="matrix(1 0 0 1 117.9929 338.2327)" class="st7 st8 st9">Windham 53</text>
	<text transform="matrix(1 0 0 1 241.8998 253.1321)" class="st7 st8 st9">Fairfield 53</text>
	<text transform="matrix(1 0 0 1 241.8997 281.1804)" class="st7 st8 st9">New Haven 53</text>
	<text transform="matrix(1 0 0 1 241.8997 310.8394)" class="st7 st8 st9">Middlesex 53</text>
	<text transform="matrix(1 0 0 1 241.8996 338.8877)" class="st7 st8 st9">New London 53</text>
</g>
<circle id="New_London_circle" class="st10" cx="780.6" cy="253.5" r="29.9"/>
<text id="New_London_numbers" transform="matrix(1 2.630000e-03 -2.630000e-03 1 753.6008 259.491)" class="st11 st8 st12">1000</text>
<circle id="Middlesex_circle" class="st10" cx="710.4" cy="273.5" r="29.9"/>
<text id="Middlesex_numbers" transform="matrix(1 2.630000e-03 -2.630000e-03 1 683.376 279.4949)" class="st11 st8 st12">1000</text>
<circle id="New_Haven_circle" class="st10" cx="647.2" cy="303.2" r="29.9"/>
<text id="New_Haven_numbers" transform="matrix(1 2.630000e-03 -2.630000e-03 1 620.1989 309.1536)" class="st11 st8 st12">1000</text>
<circle id="Fairfield_circle" class="st10" cx="581.6" cy="360.4" r="29.9"/>
<text id="Fairfield_numbers" transform="matrix(1 2.630000e-03 -2.630000e-03 1 554.5415 366.4283)" class="st11 st8 st12">1000</text>
<circle id="Windham_circle" class="st10" cx="788.3" cy="168.7" r="29.9"/>
<text id="Windham_numbers" transform="matrix(1 2.630000e-03 -2.630000e-03 1 761.3303 174.6551)" class="st11 st8 st12">1000</text>
<circle id="Tolland_circle" class="st10" cx="725.3" cy="181.7" r="29.9"/>
<text id="Tolland_numbers" transform="matrix(1 2.630000e-03 -2.630000e-03 1 698.3055 187.6475)" class="st11 st8 st12">1000</text>
<circle id="Hartford_circle" class="st10" cx="662.7" cy="200" r="29.9"/>
<text id="Hartford_numbers" transform="matrix(1 2.630000e-03 -2.630000e-03 1 635.7277 205.9849)" class="st11 st8 st12">1000</text>
<circle id="litchfield_circle" class="st10" cx="570.6" cy="227.4" r="29.9"/>
<text id="litchfield_numbers" transform="matrix(1 2.630000e-03 -2.630000e-03 1 543.5734 233.3924)" class="st11 st8 st12">1000</text>
<g id="table_data">
	<text transform="matrix(1 0 0 1 27.2319 548.6025)" class="st3 st8 st9">Confirmed Cases</text>
	<text transform="matrix(1 0 0 1 27.2319 592.5342)" class="st3 st8 st9">Deaths</text>
	<text id="current_date" transform="matrix(1 0 0 1 210.7615 504.3203)" class="st3 st8 st9">6 Apr. 2020</text>
	<text id="previous_date" transform="matrix(1 0 0 1 345.5397 504.3203)" class="st3 st8 st9">5 Apr. 2020</text>
	<text id="growth_rate__x25_" transform="matrix(1 0 0 1 464.608 504.3203)" class="st3 st8 st9">Growth Rate %</text>
	<text transform="matrix(1 0 0 1 679.8831 504.3203)" class="st3 st8 st9">Total Confirmed Cases</text>
	<text id="current_сases" transform="matrix(1 0 0 1 233.6171 552.3545)" class="st13 st8 st6">783</text>
	<text id="previous_deaths" transform="matrix(1 0 0 1 376.33 596.834)" class="st13 st8 st6">14</text>
	<text id="current_deaths" transform="matrix(1 0 0 1 237.1375 595.8542)" class="st13 st8 st6">15</text>
	<text id="total_cases" transform="matrix(1 0 0 1 720.5048 581.4977)" class="st14 st8 st15">783</text>
	<text id="previous_сases" transform="matrix(1 0 0 1 368.4174 552.3545)" class="st13 st8 st6">673</text>
	<text id="cases_growth_rate" transform="matrix(1 0 0 1 498.3307 553.8906)" class="st13 st8 st6">16 %</text>
	<text id="death_growth_rate" transform="matrix(1 0 0 1 502.73 598.37)" class="st13 st8 st6">7 %</text>
</g>
<g id="TYPES_1_">
	<g>
		<circle id="_x33__1_" class="st10" cx="802.4" cy="-62.3" r="25.8"/>
		
			<text id="_x33__numbers_1_" transform="matrix(1 2.629927e-03 -2.629927e-03 1 780.3249 -55.1838)" class="st11 st8" style="font-size:16.397px;">1,000</text>
	</g>
	<g>
		<circle id="_x32__1_" class="st10" cx="736.6" cy="-61.5" r="19.7"/>
		
			<text id="_x32__numbers_1_" transform="matrix(1 2.629909e-03 -2.629909e-03 1 720.5736 -54.0492)" class="st11 st8" style="font-size:17.7635px;">100</text>
	</g>
	<g>
		<circle id="_x31__2_" class="st10" cx="628.5" cy="-58.8" r="9.8"/>
		
			<text id="_x31__numbers_2_" transform="matrix(1 2.629955e-03 -2.629955e-03 1 624.7678 -55.1238)" class="st11 st8" style="font-size:11px;">1</text>
	</g>
	<g>
		<circle id="_x31__1_" class="st10" cx="677.7" cy="-58.8" r="13.1"/>
		
			<rect x="671" y="-64.4" transform="matrix(2.629865e-03 -1 1 2.629865e-03 734.0237 619.3876)" class="st16" width="13.1" height="12.3"/>
		
			<text id="_x31__numbers_1_" transform="matrix(1 2.629900e-03 -2.629900e-03 1 668.8747 -55.0288)" class="st11 st8" style="font-size:13.6642px;">50</text>
	</g>
	<g>
		<circle id="_x34__1_" class="st10" cx="876.5" cy="-58.8" r="32.7"/>
		
			<text id="_x34__numbers_1_" transform="matrix(1 2.629919e-03 -2.629919e-03 1 848.7828 -51.6031)" class="st11 st8" style="font-size:17.7635px;">25,000</text>
	</g>
</g>
</svg>
