<?xml version="1.0" encoding="utf-8"?>
<!-- Generator: Adobe Illustrator 24.1.2, SVG Export Plug-In . SVG Version: 6.00 Build 0)  -->
<svg version="1.1" id="Layer_1" xmlns="http://www.w3.org/2000/svg" xmlns:xlink="http://www.w3.org/1999/xlink" x="0px" y="0px"
	 viewBox="0 0 916.5 609.2" style="enable-background:new 0 0 916.5 609.2;" xml:space="preserve">
<style type="text/css">
	.st0{fill:#F5FBFE;}
	.st1{fill:#DDEEFA;}
	.st2{fill:#255078;}
	.st3{font-family:'Georgia';}
	.st4{font-size:18px;}
	.st5{font-size:16px;}
	.st6{fill:#4C4B4D;}
	.st7{font-family:'ArialMT';}
	.st8{font-size:14px;}
	.st9{fill:#ADDBF5;}
	.st10{fill:#CD483B;}
	.st11{fill:#FFFFFF;}
	.st12{font-size:10px;}
	.st13{fill:#4C4B4C;}
	.st14{fill:#DB3029;}
	.st15{font-size:36px;}
</style>
<g id="text">
	<polygon id="blue_bg" class="st0" points="0,473.8 0,510.8 0,520.4 0,609.2 173.5,609.2 173.5,520.4 915,520.4 915,473.8 	"/>
	<path id="line_bg" class="st1" d="M916.5,0H0l0,0v474.4v2v42.9v2v42.9v2v42.9l0,0h579.8l0,0H913l0,0h3.5V0z M913,56.8v417.6H578.4
		l-0.6-0.3v0.3H443.6l-0.6-0.3v0.3H3V56.8H913z M913,476.4v42.9H579.8v-42.9H913z M445.1,519.4v-42.9h132.8v42.9H445.1z
		 M577.8,521.4v42.9H445.1v-42.9H577.8z M310.3,519.4v-42.9h132.8v42.9H310.3z M443.1,521.4v42.9H310.3v-42.9H443.1z M175.5,519.4
		v-42.9h132.8v42.9H175.5z M308.3,521.4v42.9H175.5v-42.9H308.3z M173.5,476.4v42.9H3v-42.9H173.5z M173.5,521.4v42.9H3v-42.9H173.5
		z M3,566.3h170.5v39.9H3V566.3z M175.5,566.3h132.8v39.9H175.5V566.3z M310.3,566.3h132.8v39.9H310.3V566.3z M445.1,566.3h132.8
		v39.9H445.1V566.3z M579.8,521.4H913v84.8H579.8V521.4z"/>
	<text id="title" transform="matrix(1 0 0 1 32.8483 35.8372)" class="st2 st3 st4">COVID-19 in Hawaii on</text>
	<text id="date" transform="matrix(1 0 0 1 228.4693 35.8372)" class="st2 st3 st4">April 27th, 2020</text>
	<text id="confirmed" transform="matrix(1 0 0 1 95.7752 245.0913)" class="st2 st3 st5">State Confirmed Cases By County</text>
	<text transform="matrix(1 0 0 1 95.4443 281.4612)" class="st6 st7 st8">Kalawao 100</text>
	<text transform="matrix(1 0 0 1 95.4443 310.6289)" class="st6 st7 st8">Hawaii 100</text>
	<text transform="matrix(1 0 0 1 95.4443 339.7988)" class="st6 st7 st8">Honolulu  100</text>
	<text id="Yuma_53_x09_" transform="matrix(1 0 0 1 251.5558 281.4612)" class="st6 st7 st8">Kauai 100</text>
	<text transform="matrix(1 0 0 1 251.5558 310.6289)" class="st6 st7 st8">Maui 100</text>
</g>
<g id="Counties">
	<g id="Maui_100">
		<path id="_x34__Maui" class="st9" d="M703,215c-0.2-0.1-0.4-0.2-0.6-0.3c0,0-0.1,0-0.2-0.1c-0.4-0.2-0.6-0.2-0.9-0.2
			c-0.4,0-0.5-0.1-0.8-0.5c-0.1-0.1-0.2-0.2-0.3-0.4c-0.1-0.1-0.2-0.2-0.3-0.4c-0.3-0.3-0.7-0.3-1.1-0.3c-0.3,0-0.6,0-0.9,0.1
			c-0.3,0.1-0.5,0.1-0.8,0.1h-1c-0.2,0-0.4,0-0.6-0.1c-0.1-0.1-0.3-0.1-0.4-0.1c-0.4,0-0.7,0.2-1,0.4c-0.1,0-0.1,0.1-0.2,0.1
			c0,0-0.1,0-0.1,0.1c-0.1,0-0.2,0.1-0.3,0.1l0,0l0,0c-0.1,0-0.2,0.1-0.3,0.1s-0.2,0-0.3,0.1c-0.2,0-0.5,0.2-0.6,0.3
			s-0.2,0.2-0.4,0.2s-0.3,0-0.4,0c-0.1,0-0.3,0-0.5-0.1c-0.4-0.1-0.7-0.2-1.1-0.2c0,0-0.1,0-0.2,0c-0.3,0.1-0.5,0.2-0.8,0.2h-1.6
			c-0.2,0-0.4-0.1-0.5-0.1s-0.3-0.1-0.5-0.1c-0.1-0.1-0.3-0.1-0.4-0.2l0.5,0.5c0.1,0.1,0.2,0.2,0.4,0.3c0.1,0.1,0.3,0.2,0.4,0.3
			l0.3,0.3c0,0,0,0,0.1,0.1s0.1,0.1,0.1,0.1l0.1,0.1v0.1c0,0,0,0.1,0.1,0.1c0,0.1,0,0.2,0,0.3c0,0,0,0,0,0.1
			c-0.1,0.2-0.2,0.4-0.4,0.5c-0.1,0-0.1,0.1-0.2,0.1c-0.1,0-0.1,0-0.1,0h-0.1c-0.1,0-0.1,0-0.2,0c0,0-0.1,0-0.2,0
			c-0.1,0-0.2,0-0.2-0.1h-0.1c-0.1,0-0.2,0-0.3,0s-0.2,0-0.3,0.1s-0.2,0.1-0.2,0.2l-0.1,0.1l-0.1,0.1v0.1c0,0,0,0.1-0.1,0.1l0,0
			c0,0.1-0.1,0.2-0.2,0.1c0,0,0,0-0.1,0c0,0-0.1-0.1-0.1-0.2c-0.1-0.1-0.1-0.1-0.1-0.2c0-0.1-0.1-0.2-0.1-0.2l-0.1-0.1
			c0,0,0,0-0.1-0.1l-0.1-0.1c-0.1,0-0.1-0.1-0.1-0.1c-0.1-0.1,0-0.3,0-0.4c0-0.1,0.1-0.1,0.1-0.2c0-0.1-0.1-0.2-0.2-0.3l-0.1-0.1
			c-0.1-0.1-0.1-0.2-0.2-0.3c-0.1-0.1-0.1-0.2-0.2-0.3l-0.1-0.1c-0.1-0.1-0.1-0.2-0.2-0.3c-0.1-0.1-0.1-0.1-0.1-0.2
			c0,0-0.1-0.1-0.1-0.2c-0.1-0.1-0.2-0.2-0.2-0.3c0-0.2-0.1-0.3-0.2-0.4c-0.1-0.1-0.1-0.1-0.1-0.2c0-0.1-0.1-0.1-0.1-0.2
			c0,0-0.1-0.1-0.1-0.2c0-0.1-0.1-0.1-0.1-0.2l-0.1-0.2c0,0-0.1-0.1-0.2-0.1c-0.1,0-0.2,0-0.3,0h-0.1c-0.1,0-0.2,0-0.2,0
			c-0.1,0-0.1-0.1-0.1-0.1s0,0-0.1-0.1c0,0,0,0-0.1-0.1s-0.1-0.2-0.1-0.3c0-0.2,0-0.4,0-0.7v-0.1c-0.1,0.1-0.2,0.2-0.3,0.4
			s-0.2,0.3-0.3,0.4c-0.3,0.3-0.5,0.5-0.8,0.6c-0.3,0.2-0.5,0.3-0.7,0.3h-0.7c-0.2,0-0.5,0-0.7-0.1c-0.3,0-0.5-0.1-0.8-0.1
			s-0.5,0-0.8-0.1c-0.3,0-0.5-0.1-0.8-0.1c-0.6-0.1-1.1-0.3-1.6-0.5c-0.4-0.2-0.8-0.3-1.4-0.3c-0.2,0-0.5,0-0.7,0s-0.5,0-0.8,0
			c-0.4-0.1-0.7-0.2-1.1-0.2h-0.5c-0.4,0-0.8,0-1.2-0.1c-0.4,0-0.8-0.1-1.2-0.1c-0.1,0-0.4,0-0.5,0c-0.5,0-0.9,0-1.2-0.4
			c-0.1-0.2-0.2-0.4-0.3-0.6c-0.2-0.4-0.4-0.8-0.9-0.9c-0.2,0-0.4,0-0.6,0.1h-0.5c-0.1,0-0.2,0-0.4,0c-0.1,0-0.2,0-0.4,0
			c-0.3,0-0.7,0-0.9-0.2s-0.5-0.3-0.8-0.3c-0.2,0-0.5-0.1-0.7-0.1c-0.1,0-0.2,0-0.3,0c-0.4,0.2-0.2,0.6-0.1,0.9v0.1
			c0,0.2,0.1,0.3,0.2,0.5c0.1,0.1,0.1,0.3,0.2,0.4c0.1,0.2,0,0.4,0,0.5s-0.1,0.2-0.1,0.4c0,0.5,0,0.7-0.1,1.1
			c-0.1,0.4-0.2,0.6-0.5,0.9c-0.2,0.2-0.5,0.4-0.7,0.5c-0.1,0.1-0.2,0.1-0.3,0.2c-0.2,0.1-0.5,0.3-0.7,0.5c-0.1,0.1-0.3,0.3-0.4,0.5
			c-0.1,0.1-0.2,0.3-0.4,0.5c-0.1,0.1-0.2,0.3-0.3,0.4c-0.1,0.1-0.2,0.2-0.3,0.4c-0.1,0.4-0.2,0.6-0.3,0.9c-0.2,0.8-0.1,1.5,0.3,2.2
			c0,0,0.1,0.1,0.1,0.2c0.2,0.2,0.4,0.5,0.6,0.7c0.1,0,0.3,0.1,0.4,0.1s0.2,0.1,0.4,0.1s0.3,0,0.5,0c0.1,0,0.3,0,0.5,0
			c0.1,0,0.2,0,0.4,0h1.4c0.6,0,1.2-0.1,1.8-0.2c0.5-0.1,1.1-0.2,1.7-0.2h3.1c0.2,0,0.4,0,0.6,0c0.2,0,0.4,0,0.6,0s0.5,0,0.7,0h0.2
			c0.2-0.1,0.4-0.1,0.5-0.1h3.6c0.2,0,0.5,0,0.8,0s0.6,0,0.9,0c0.4,0,0.6,0,0.9,0c0.3,0,0.6,0.1,0.9,0.1c1.1,0.1,2.2,0.3,2.8,1.2
			c0.2,0.2,0.3,0.4,0.4,0.5c0.1,0.1,0.2,0.3,0.4,0.5c0.2,0.3,0.5,0.5,0.8,0.7c0.4,0.4,1,0.8,1.7,0.9c0.5,0,1,0,1.6-0.1
			c0.1-0.1,0.4-0.1,0.6-0.1c0.2,0,0.3-0.1,0.5-0.1c0.1,0,0.2-0.1,0.2-0.1c0.8,0,1.5,0.2,2.2,0.5c0.8,0.2,1.5,0.5,2.3,0.5
			c0.4,0.1,0.8,0.1,1.3,0.1c0.6,0,1.1,0,1.4-0.3c0.2-0.1,0.4-0.1,0.5-0.2c0.2-0.1,0.5-0.2,0.7-0.3c0.3-0.1,0.6-0.3,0.9-0.6l0.1-0.1
			c0.1-0.1,0.3-0.3,0.5-0.4c0,0,0.1,0,0.2,0s0.2,0,0.3,0s0.2,0,0.3,0l0,0c0.1,0,0.2,0,0.3,0c0.3,0,0.6-0.1,0.9-0.3
			c0.3-0.2,0.5-0.3,0.7-0.4c0.8-0.3,1.4-0.7,2-1.2c0,0,0.1-0.1,0.2-0.2c0.2-0.3,0.4-0.5,0.5-0.9c0.2-0.2,0.4-0.5,0.5-0.7
			c0.2-0.3,0.5-0.5,0.7-0.8c0.3-0.3,0.5-0.6,0.8-0.9c0.2-0.3,0.4-0.6,0.5-1c0.1-0.2,0.2-0.4,0.3-0.6
			C703.2,215.5,703.2,215.2,703,215z"/>
		<path id="_x33__Maui" class="st9" d="M685.5,251.3c-0.2,0-0.5,0-0.8,0c-0.1,0-0.2,0-0.3,0c-0.2,0-0.4,0-0.6,0c-0.2,0-0.5,0-0.8,0
			c-0.5,0-1.1,0-1.4-0.4c-0.3-0.3-0.7-0.8-0.7-1.3c0-0.3,0.2-0.6,0.3-0.9c0-0.1,0.1-0.2,0.1-0.3l0,0l0,0c0.1-0.1,0.2-0.2,0.3-0.4
			c0.1-0.1,0.1-0.2,0.2-0.3c0-0.1,0.1-0.3,0.2-0.4c0,0,0-0.1,0.1-0.2c0.1-0.3,0.3-0.5,0.2-0.8c0-0.3-0.3-0.5-0.5-0.7
			c0,0-0.1-0.1-0.2-0.2c-0.2-0.3-0.5-0.5-0.7-0.7c-0.3-0.2-0.6-0.4-0.8-0.7c0-0.1-0.1-0.2-0.1-0.3s0-0.1-0.1-0.2
			c0,0-0.1-0.1-0.2-0.2c-0.1-0.1-0.3-0.2-0.4-0.4c-0.2-0.3-0.3-0.6-0.4-0.9s-0.2-0.6-0.4-0.9c-0.5-0.6-1.3-0.8-2-1h-0.1
			c-1.2-0.4-1.9-1.5-1.8-3.2c0-1.1,0.4-1.4,1.2-1.9c0.9-0.6,2.1-0.7,3.1-0.7c0.4,0,0.8,0,1.2,0s0.7,0,1,0c2,0,3.5,0.5,5.3,1.3
			c1.6,0.7,3.5,1.8,5,2.9c1.4,1,2.3,2.3,3,3.3c1.1,1.5,1.4,2.5,0.3,4.3c-0.8,1.4-2.1,2-3.4,2.5h-0.1c-0.3,0.1-0.6,0.3-0.9,0.5
			c-0.3,0.2-0.7,0.4-1.1,0.5c-0.3,0.1-0.5,0.2-0.8,0.2c-0.4,0.1-0.8,0.2-1.2,0.5C687,251.2,686.3,251.3,685.5,251.3z"/>
		<path id="_x32__Maui" class="st9" d="M706.6,271.5c-0.1,0-0.3,0-0.3,0c-0.2,0-0.3-0.3-0.4-0.5c0-0.1-0.1-0.2-0.2-0.3
			c-0.4-0.8-0.5-1.4-0.5-2.1c0-0.5,0.2-1,0.7-1.4c0.1-0.2,0.3-0.3,0.5-0.5c0.3-0.4,0.7-0.9,1.3-1c0.2,0,0.3,0,0.5-0.1
			c0.3,0,0.6-0.1,0.9-0.2c0.5-0.2,0.9-0.4,1.3-0.7c0.3-0.2,0.5-0.4,0.6-0.5c0.2-0.2,0.5-0.4,0.7-0.5c0.1,0,0.2-0.1,0.2-0.1
			c0.3-0.2,0.5-0.4,0.8-0.5c0.1-0.1,0.2-0.2,0.4-0.3c0.2-0.2,0.5-0.4,0.8-0.5c0.2-0.1,0.4-0.1,0.6-0.1c0.1,0,0.2,0,0.3,0
			s0.2,0,0.3,0c0.3,0,0.7,0,1,0.1c0.1,0.1,0.2,0.1,0.3,0.2c0.2,0.1,0.3,0.2,0.5,0.3l0,0c0.1,0,0.3,0.1,0.5,0.1
			c0.1,0,0.2,0.1,0.3,0.1c0.5,0.4,1,0.9,1.1,1.6c0,0.3,0,0.6-0.4,0.9h-0.1c-0.3,0.2-0.5,0.3-0.6,0.7c-0.2,0.6,0.1,0.9,0.7,1.3
			c0.5,0.3,0.8,0.7,0.7,1.1c-0.1,0.9-1.9,1.5-2.6,1.7c-0.1,0-0.2,0.1-0.4,0.2c-0.1,0.1-0.3,0.2-0.5,0.2c-0.2,0.1-0.4,0.2-0.6,0.2
			s-0.5-0.1-0.7-0.2c-0.1-0.1-0.3-0.2-0.5-0.4c-0.3-0.3-0.5-0.5-0.9-0.5c-0.1,0-0.1,0-0.2,0c-0.3,0.1-0.5,0.4-0.7,0.5
			c-0.4,0.3-0.7,0.5-1.2,0.6s-1.1,0.4-1.8,0.5c-0.2,0-0.4,0-0.5,0.1c-0.4,0-0.7,0.1-1,0.2c-0.1,0-0.2,0-0.4,0
			C706.9,271.5,706.7,271.5,706.6,271.5z"/>
		<path id="_x31__Maui" class="st9" d="M730.1,264.9c-0.1,0-0.2,0-0.3,0c-1.6-0.1-3.2-0.3-4.2-1.7c-0.1-0.2-0.3-0.4-0.5-0.6
			c-0.4-0.4-0.7-0.7-0.8-1.1c-0.2-0.5,0-0.9,0.3-1.3c0.1-0.2,0.3-0.5,0.4-0.8c0.3-1.4-0.3-2.6-0.8-3.8c-0.1-0.3-0.2-0.5-0.3-0.8
			c-0.4-0.9-0.2-1.9,0-2.9c0.1-0.5,0.2-1.1,0.2-1.7c0-0.3,0-0.5,0-0.8c0-0.5,0-1.1,0-1.6c0-1-0.4-1.2-1.3-1.6h-0.1
			c-0.1,0-0.3-0.1-0.4-0.2c-0.4-0.2-0.7-0.4-1-0.4s-0.5,0.1-0.8,0.5c-0.5,0.5-1.3,1.3-2.1,1.3c-0.3,0-0.5,0-0.8-0.2
			c-0.3-0.1-0.5-0.2-0.8-0.4c-0.4-0.2-0.7-0.4-0.9-0.5l-0.1-0.1c-0.2-0.2-0.3-0.3-0.5-0.3c-0.3-0.1-0.5-0.1-0.7-0.1
			c-0.4-0.1-0.9-0.3-1.3-0.6c-0.1,0-0.1-0.1-0.2-0.2c0,0-0.1-0.1-0.2-0.2c-0.1,0-0.2-0.1-0.3-0.1s-0.1,0-0.3-0.1
			c-0.1,0-0.2-0.1-0.4-0.1c-0.1,0-0.2-0.1-0.4-0.1c-0.5-0.1-1.3-0.4-1.6-0.8c-0.1-0.1-0.2-0.2-0.3-0.4s-0.3-0.3-0.4-0.5
			c-0.1-0.1-0.3-0.1-0.4-0.2c-0.1-0.1-0.2-0.1-0.4-0.2c-0.1-0.1-0.2-0.2-0.3-0.3c-0.1-0.2-0.3-0.3-0.5-0.5c-0.1-0.1-0.2-0.2-0.4-0.3
			s-0.4-0.3-0.6-0.5c-0.5-0.6-0.8-1.4-0.8-2.1c0-0.5-0.1-0.9-0.5-1.4c0-0.1-0.1-0.2-0.1-0.2c0-0.1-0.1-0.1-0.1-0.2
			c-0.1-0.1-0.1-0.3-0.1-0.5c0,0,0-0.1-0.1-0.1c-0.1-0.1-0.2-0.3-0.2-0.4c-0.1-0.1-0.1-0.3-0.1-0.5s0-0.4-0.1-0.5
			c-0.1-0.5-0.2-1.1-0.1-1.7c0-0.3,0.3-0.6,0.7-0.9c0.1-0.1,0.2-0.2,0.3-0.3s0.3-0.3,0.4-0.5c0.1-0.2,0.1-0.4,0.1-0.6
			c0.4-1.1,1.2-2,1.9-2.9l0.3-0.4c0.2-0.3,0.7-0.8,1.2-1.1c0.1,0,0.2-0.1,0.3-0.1s0.1,0,0.2-0.1l0,0l0.9-0.3c0.3,0,0.6-0.2,0.9-0.4
			c0.1,0,0.2-0.1,0.3-0.2c0.1,0,0.3,0,0.5,0c0.1,0,0.3,0,0.5,0c0.1,0,0.3,0,0.4,0c0.4,0,0.7,0,1.1,0.3c0.3,0.1,0.6,0.3,0.9,0.5
			c0.1,0.1,0.2,0.1,0.4,0.2c0.3,0.1,0.5,0.5,0.7,0.7c0.1,0.2,0.3,0.4,0.4,0.5c0.2,0.1,0.3,0.3,0.5,0.4c0.4,0.3,0.7,0.6,1,0.9
			c0.2,0.4,0.5,0.7,0.6,1.1c0.2,0.3,0.3,0.6,0.5,0.9c0.5,0.7,0.9,1.4,1.4,2.1c0.4,0.5,0.8,1.1,1.2,1.6c1,1.5,2.1,2.8,3.8,2.8
			c0.2,0,0.4,0,0.6,0c1.4-0.3,2-1.4,2.7-2.4c0.1-0.2,0.2-0.3,0.3-0.5c0.1-0.1,0.2-0.3,0.2-0.4c0.2-0.4,0.4-0.7,0.9-0.9
			c0.3-0.1,0.6-0.1,1-0.1c0.2,0,0.5,0,0.7,0s0.4,0,0.6,0h0.1c0.8,0,1.7-0.3,2.4-0.5s1.5-0.4,2.3-0.5c0.2,0,0.4,0,0.5,0
			c1.5,0,3.1,0.4,4.3,1c0.5,0.3,1.2,0.8,1.7,1.3s0.8,1,1,1.6c0.4,0.7,0.7,1.4,1.3,1.9s1.4,0.5,2.3,0.6c0.6,0,1.2,0.1,1.8,0.4
			c0.9,0.4,1,0.9,1.1,1.5c0,0.3,0,0.5,0.2,0.9c0.2,0.5,0.9,0.6,1.6,0.7c0.2,0,0.4,0,0.5,0.1h0.3c0.9,0.1,1.3,0.2,2,0.9
			c0.7,0.6,1,0.7,1.7,0.7c0.2,0,0.5,0,0.8,0.1c3.1,0.5,4.7,1.8,5.1,4c0.4,2.3-1.3,5-4.9,8c-1.2,1-2.7,1.9-4.1,2.8l-0.5,0.3
			c-1.1,0.7-2.1,0.9-3.2,1c-0.4,0-0.8,0.1-1.2,0.2h-0.2c-0.4,0.1-0.6,0.1-0.9,0.1s-0.6,0-0.9-0.2c-0.2,0-0.4-0.1-0.5-0.2
			c-0.4-0.2-0.8-0.3-1.3-0.4c-0.2,0-0.4,0-0.5,0c-1.9,0-3,1-4.2,2.1c-0.7,0.6-1.4,1.3-2.4,1.8c-1.1,0.6-2.3,0.9-3.8,0.9
			c-0.2,0-0.5,0-0.7,0c-0.1,0-0.2,0-0.3,0c-0.7,0-1.3,0.1-1.9,0.2C731.4,264.8,730.8,264.9,730.1,264.9z"/>
	</g>
	<g id="Kauai_100">
		<path id="_x32__Kauai" class="st9" d="M479.5,154.6c-0.3,0-0.7-0.2-1-0.5c-0.1-0.1-0.3-0.2-0.4-0.2c-0.5-0.3-2.3-1.3-3.4-1.3
			c0,0-0.1,0-0.2,0c-0.3,0-0.5,0.1-0.8,0.3s-0.6,0.4-1,0.4c-0.8,0-1.4-0.1-1.9-0.4c-0.1,0-0.3-0.1-0.4-0.2c-0.7-0.4-1.2-0.6-1.9-0.6
			c-0.2,0-0.5,0-0.7,0.1c-0.1,0-0.2,0-0.4,0.1c-0.3,0.1-0.5,0.2-0.9,0.2c-0.2,0-0.4,0-0.5-0.1c-0.5-0.2-0.9-0.8-1.3-1.2
			c-0.2-0.2-0.3-0.4-0.5-0.5c-1.3-1.3-2.3-2.1-3.6-2.8c-0.7-0.5-1.5-0.7-2.3-0.9c-0.5-0.2-1-0.3-1.6-0.5c-1.2-0.5-2.2-1.4-3.1-2.2
			l0,0c-0.2-0.3-0.4-0.5-0.5-0.7c-0.3-0.5-0.5-0.8-1.1-1c-0.9-0.3-1.6-0.6-2.3-1c-0.1,0-0.2-0.1-0.3-0.1c-0.4-0.1-0.6-0.3-0.7-0.5
			s0-0.5,0.1-0.9c0.6-1.4,2.1-2.9,2.9-3.8c0.4-0.4,0.9-0.7,1.4-1c0.8-0.4,1.5-0.9,1.9-1.5c0.2-0.4,0.3-0.9,0.4-1.3
			c0.2-0.9,0.4-1.9,1.5-2.4c0.5-0.3,1.1-0.5,1.6-0.6c0.4-0.1,0.8-0.2,1.1-0.4c0.8-0.3,1.5-0.7,2.3-1l0.4-0.2
			c1.5-0.7,2.8-1.6,4.1-2.5c0.1-0.1,0.3-0.2,0.5-0.3c1-0.8,2.2-1.6,3.4-1.6c0.2,0,0.4,0,0.6,0.1c0.6,0.1,1.1,0.6,1.6,1
			c0.5,0.5,0.9,0.9,1.4,0.9c0.3,0,0.6-0.1,0.9-0.5c0.2-0.2,0.3-0.4,0.5-0.7c0.2-0.4,0.4-0.8,0.8-0.9c0.1-0.1,0.3-0.1,0.5-0.1
			c0.4,0,0.8,0.2,1.1,0.5c0.3,0.2,0.7,0.4,1,0.5c0.1,0,0.3,0,0.4,0c0.6,0,1.2-0.3,1.7-0.5c0.5-0.3,1.1-0.5,1.7-0.5
			c0.1,0,0.2,0,0.4,0c0.8,0.1,1.2,0.5,1.5,0.9c0.2,0.2,0.4,0.5,0.7,0.6c0.4,0.2,0.9,0.3,1.4,0.4s1,0.1,1.4,0.4
			c1.3,0.6,3,1.7,3.2,3.6c0,0.2,0,0.3,0,0.5c0.1,0.9,0.1,1.3,0.9,2c0.1,0.1,0.2,0.2,0.3,0.2c0.4,0.4,0.8,0.6,0.5,1.5
			c-0.1,0.4-0.5,0.7-0.8,1c-0.2,0.2-0.4,0.4-0.5,0.6c-0.3,0.5-0.5,1.2-0.7,1.7c-0.2,0.8-0.7,1.4-1.1,2c-0.3,0.4-0.6,0.8-0.9,1.3
			c-0.4,0.8-0.6,1.6-0.8,2.4c-0.1,0.7-0.3,1.4-0.6,2c-0.1,0.2-0.2,0.4-0.3,0.6c-0.3,0.5-0.5,1-0.5,1.5c0,0.3,0.2,0.5,0.3,0.7
			c0.2,0.4,0.5,0.7,0.3,1.3c-0.3,1.4-2,2.8-3.1,3.6c-0.5,0.4-1.1,0.6-1.6,0.9c-0.4,0.2-0.9,0.4-1.3,0.7c-0.2,0.1-0.4,0.4-0.6,0.6
			C480.2,154.2,479.9,154.5,479.5,154.6L479.5,154.6z"/>
		<path id="_x31__Kauai" class="st9" d="M418,162.5c-0.3,0-0.7-0.1-1.2-0.5c-0.5-0.3-2.2-1.4-2.9-2.6c-0.4-0.7-0.4-2.3-0.3-3.3
			c0.1-1.3,1.2-2.5,2.1-3.5l0,0c1-1.1,2-2.2,3.3-3c0.6-0.4,1.1-0.7,1.7-0.9c0.5-0.2,0.9-0.4,1.4-0.7c0.9-0.5,2.4-1.4,2.9-2.9
			c0.5-1.7,1.3-2.3,2.8-2.3c0.5,0,1.5,0,2.3,0.4c0.3,0.1,0.5,0.3,0.5,0.6c0.1,0.6-0.5,1.4-1,1.9l-0.1,0.2c-0.2,0.3-0.4,0.5-0.5,0.8
			c-0.9,1.2-1.7,2.3-1.3,3.7c0.1,0.3,0.3,0.5,0.4,0.8c0.4,0.5,0.7,1-0.3,1.7c-0.9,0.7-2,1-3.2,1.1c-0.6,0-1.4,0-2.1,0.3
			c-1,0.4-1.6,1.4-2.1,2.3c-0.1,0.2-0.2,0.4-0.3,0.5c-0.8,1.4-0.9,2.4-1.1,3.9v0.1C418.9,162,418.5,162.5,418,162.5z"/>
	</g>
	<path id="Honolulu__100" class="st9" d="M613.6,206.6c-0.4,0-0.5-0.3-0.6-0.5c0-0.1,0-0.2-0.1-0.2c-0.2-0.3-0.5-0.6-0.8-0.9
		c-0.2-0.2-0.4-0.4-0.5-0.6l-0.1-0.1c-0.2-0.2-0.4-0.4-0.6-0.4c-0.1,0-0.2,0-0.4,0c-0.1,0-0.2,0-0.3,0s-0.2,0-0.3,0
		c-0.7-0.1-1.4-0.5-1.6-1.1c-0.1-0.4-0.1-0.8-0.1-1.1c0-0.5-0.3-0.9-0.7-1s-0.7-0.1-1-0.1c-0.6,0-1,0.5-1.2,0.7
		c-0.2,0.3-0.4,0.5-0.8,0.7c-0.3,0.1-0.6,0.1-0.9,0.1c-0.2,0.1-0.4,0.2-0.6,0.2h-0.8c-0.3,0-0.4,0-0.6-0.1c-0.1,0-0.3-0.1-0.4-0.2
		c-0.1-0.1-0.3-0.1-0.4-0.2c-0.2,0-0.3-0.1-0.5-0.1s-0.5,0-0.7,0.2c-0.3,0.1-0.5,0.2-0.8,0.2c-0.1,0-0.2,0-0.4,0.1
		c-0.1,0-0.1,0-0.2,0c-0.1,0-0.1,0-0.2,0c-0.2,0-0.5,0-0.6-0.2c-0.1,0-0.1-0.2-0.2-0.3c-0.1-0.3-0.3-0.5-0.6-0.5c0,0-0.1,0-0.2,0
		c-0.4,0.1-0.6,0.3-1,0.5c-0.1,0-0.2,0.1-0.3,0.2c-0.5,0.2-0.7,0.5-1,0.8c-0.2,0.1-0.3,0.3-0.4,0.4c-0.3,0.3-0.5,0.6-0.9,0.6
		c-0.2,0-0.5,0-0.7,0c-0.6,0-1.3-0.1-1.8-0.2l0,0c-0.4,0-0.8-0.1-1-0.4c-0.2-0.1-0.4-0.3-0.5-0.5s-0.3-0.3-0.5-0.5
		c-0.3-0.2-0.5-0.5-0.9-0.7c-0.4-0.5-0.5-1-0.4-1.8c0-0.4,0.1-0.7,0.2-1.1c0-0.3,0.1-0.5,0.1-0.8c0.1-0.3,0.1-0.6,0.1-0.8
		c0-0.4-0.4-0.6-0.8-0.7c-0.2-0.1-0.4-0.1-0.5-0.2c-0.5-0.4-1.3-1.1-1.8-1.8L584,194c-0.5-0.6-1-1.2-1.4-1.9c-0.5-0.8-1-1.6-1.8-2.5
		c-0.2-0.3-0.5-0.5-0.8-0.7c-0.5-0.4-1-0.9-1.3-1.5c-0.2-0.5-0.2-1-0.2-1.5c0-0.4,0-0.8-0.1-1.2c-0.1-0.5-0.5-1-0.8-1.5
		c-0.1-0.2-0.3-0.5-0.5-0.7c-0.1-0.1-0.1-0.3-0.2-0.5c-0.2-0.4-0.4-0.9-0.7-1c-0.1-0.1-0.4-0.1-0.6-0.1c-0.5,0-0.9,0.2-1.1,0.5v0.1
		h-0.1c-0.3-0.2-0.4-0.4-0.4-0.7c0-0.5,0.4-1.1,0.9-1.4c0.7-0.4,1.5-0.5,2.2-0.5c0.2,0,0.5,0,0.7,0s0.4,0,0.6,0h0.1
		c1.5,0,2.8,0,4-0.3c0.2,0,0.5,0,0.7,0c0.7,0,1.3,0.2,2.1,0.4h0.1c0.3,0.1,0.5,0.1,0.7,0.1c0.4,0,0.5-0.2,1-0.5l0.1-0.1
		c0.5-0.4,1.2-0.9,1.7-1.5c0.5-0.5,1-0.9,1.5-1.4l0.4-0.3c0.8-0.7,1.4-1.5,2-2.4c0.8-1.2,1.7-2.3,3-3.1c0.2-0.1,0.4-0.2,0.5-0.3
		c0.4-0.2,0.8-0.4,1.1-0.6c0.1-0.1,0.3-0.3,0.5-0.5c0.4-0.4,0.7-0.9,1.2-0.9c0,0,0,0,0.1,0c0.8,0,1.8,0.8,2.5,1.5
		c0.2,0.2,0.5,0.4,0.7,0.6c1.2,0.9,1.8,1.9,2.3,3.3c0.3,0.9,0.9,1.8,1.6,2.5c0.4,0.5,0.7,0.9,1,1.5c0.2,0.3,0.4,0.6,0.5,0.9
		c0.6,1.1,1.2,2.2,2.2,2.8c0.3,0.2,0.6,0.4,1,0.5c0.5,0.2,0.9,0.4,1.2,0.6c0.3,0.3,0.5,0.5,0.5,0.7c0,0.3-0.3,0.5-0.6,0.7
		c-0.1,0.1-0.3,0.2-0.5,0.3c-0.9,0.9-1.4,2.9-0.6,3.9c0.4,0.5,0.9,0.9,1.4,1.3c0.7,0.6,1.4,1.2,1.9,2.1c0.2,0.4,0.7,1.5,1.2,1.5
		c0,0,0,0,0.1,0c0.5-0.1,0.3-1.2,0.2-1.8c0-0.2,0-0.3,0-0.4c0-0.5,0-0.9,0.2-1c0.1-0.1,0.2-0.1,0.3-0.1c0.2,0,0.5,0.1,0.8,0.3
		c0.6,0.4,0.8,0.9,1.1,1.4c0.1,0.2,0.2,0.4,0.3,0.6c0.5,0.8,1.1,1.3,1.8,1.7c0.1,0.1,0.2,0.2,0.3,0.3s0.3,0.3,0.5,0.4
		c0.1,0.1,0.3,0.1,0.5,0.1c0.3,0,0.5,0.1,0.8,0.3c0.9,0.7,0.7,1.7,0.5,2.7c-0.1,0.8-0.3,1.5,0.1,2c0.2,0.3,0.6,0.7,0.9,0.9
		c0.3,0.2,0.6,0.5,0.8,0.8c0.2,0.2,0.5,0.5,0.8,0.6c0.4,0.2,0.7,0.5,0.9,0.9c0.8,1.1-0.9,2.8-1.8,3.7c-0.1,0.1-0.2,0.2-0.3,0.3
		c-0.4,0.4-0.8,0.6-1.3,0.6s-0.9-0.2-1.4-0.4c-0.3-0.1-0.6-0.3-0.9-0.4c-0.7-0.2-1.5-0.3-2.3-0.3c-0.9,0-1.7,0.1-2.2,0.5
		c-0.2,0.1-0.3,0.2-0.4,0.3l-0.1,0.1c-0.4,0.2-0.6,0.2-1,0.2C614.4,206.6,614,206.6,613.6,206.6z"/>
	<path id="Hawaii_100" class="st9" d="M789.3,406.8c-0.5,0-0.6-0.6-0.7-1.1l-0.1-0.4c-0.2-0.6-0.3-1.4-0.6-1.9
		c-0.5-1.2-2-1.8-3.3-2.3c-0.4-0.1-0.7-0.3-1-0.4c-0.5-0.2-0.9-0.4-1.3-0.6c-0.9-0.4-1.7-0.7-2.6-1.2l-0.4-0.2
		c-0.8-0.5-1.4-0.8-2.3-1.1c-1.1-0.3-2.1-0.7-2.8-1.6c-0.3-0.4-0.5-0.8-0.7-1.2c-0.1-0.3-0.3-0.6-0.5-0.9c-0.4-0.5-0.9-1-1.3-1.4
		c-0.1-0.1-0.3-0.3-0.4-0.4c-1.1-1.1-1.9-2.7-2.1-4.3c-0.1-1.2,0.3-2.1,0.7-2.9c0.2-0.5,0.4-0.9,0.5-1.5c0.3-1.2,0.3-2.5,0.4-3.8
		c0-0.5,0-1.1,0.1-1.7c0.1-1.1,0.3-2.3,0.5-3.3c0.5-2.3,0.9-4.7,0.1-6.9c-0.2-0.6-0.5-1.2-0.8-1.8c-0.5-0.9-0.9-1.9-1.1-2.9
		c0-0.2-0.1-0.5-0.2-0.7c-0.2-0.6-0.3-1.2-0.4-1.9c0-0.2,0-0.4,0-0.5c0-0.4,0-0.7-0.2-1c-0.1-0.2-0.4-0.3-0.6-0.4
		c-0.3-0.1-0.6-0.3-0.8-0.6c-0.3-0.5-0.3-1.1-0.2-1.6c0-0.3,0-0.5,0-0.8c-0.3-2.6-1.1-5-2.7-7.6c-0.3-0.5-0.9-1-1.4-1.5
		c-0.7-0.7-1.4-1.4-1.7-2.3c-0.1-0.3-0.1-0.6-0.1-0.9c-0.1-0.6-0.1-1.1-0.5-1.6c-0.2-0.4-0.5-0.6-0.8-0.9c-0.3-0.4-0.7-0.7-0.9-1.2
		c-0.4-0.8-0.4-1.7-0.4-2.5c0-0.9,0-2-0.5-2.8c0,0-0.1,0-0.2-0.1c-0.1,0-0.3-0.1-0.4-0.2c-0.4-0.7-0.1-1.5,0.8-2.3
		c1.1-1,2.4-2.3,3.7-3.3c0.5-0.4,0.8-0.9,1.1-1.4c0.5-0.8,0.9-1.5,2.2-1.6c0.1,0,0.1,0,0.2,0c0.2,0,0.4,0,0.5,0c0.2,0,0.4,0,0.6,0
		c0.6,0,0.9-0.1,1.2-0.4c0.2-0.2,0.3-0.6,0.4-0.9c0.1-0.4,0.2-0.7,0.4-1c0.2-0.4,0.5-0.7,0.9-0.9c0.3-0.3,0.6-0.6,0.8-0.9
		s0.4-0.7,0.6-1c0.1-0.3,0.3-0.6,0.5-0.8c0.2-0.3,0.3-0.5,0.5-0.9c0.5-0.9,0.9-1.7,1.6-2.4l0.3-0.3c0.7-0.7,1.4-1.4,1.8-2.4
		c0.4-0.9,0.4-2.3,0.2-3.3c-0.2-0.9-1.6-2.4-2.4-2.8l0,0l0,0c-0.2-0.2-0.3-0.3-0.4-0.5c-0.1-0.1-0.3-0.2-0.4-0.3
		c-0.1-0.1-0.3-0.2-0.4-0.4l-0.6-0.6c0,0-0.1-0.1-0.2-0.2c-0.1-0.1-0.3-0.3-0.5-0.5c-0.2-0.4-0.2-0.8-0.2-1.2c0-0.2,0-0.4,0-0.6
		c-0.3-0.6-0.3-1.2-0.4-1.9c0-0.4,0-0.7-0.1-1.1s-0.3-0.8-0.5-1.2c-0.2-0.5-0.5-0.9-0.5-1.4c-0.1-0.6,0-1.3,0-1.9v-0.4
		c0-1.7,0.7-3.8,1.9-4.8c0.6-0.5,1.4-0.8,2.2-0.8c0.9,0,2,0.3,3.3,1c1.2,0.6,2.4,1.1,3.6,1.6c0.6,0.3,1.2,0.5,1.8,0.8
		c0.1,0,0.2,0.1,0.4,0.1c0.5,0.2,1,0.4,1.3,0.8c0.2,0.2,0.3,0.5,0.5,0.8c0.1,0.3,0.2,0.5,0.3,0.7c0.2,0.3,0.7,0.5,1.1,0.8
		c0.1,0,0.2,0.1,0.3,0.1c0.6,0.4,1.3,0.6,1.9,0.9c0.6,0.3,1.2,0.5,1.8,0.9c1,0.6,2,1.2,3,1.9c0.4,0.3,0.8,0.5,1.2,0.8l0.4,0.3
		c1,0.6,1.6,1,2.7,1c0.3,0,0.6,0,0.9-0.1c0.2,0,0.5-0.1,0.8-0.1c1.3,0,2.4,0.5,3.6,1.1c0.5,0.2,1,0.5,1.6,0.7
		c1.2,0.5,2.4,0.8,3.6,1.2c1.7,0.5,3.4,1,5.1,1.8c0.4,0.2,0.8,0.5,1.1,0.7c0.4,0.3,0.7,0.5,1.1,0.7c0.5,0.2,0.9,0.3,1.4,0.5
		c0.6,0.1,1.2,0.3,1.7,0.5c0.7,0.3,1,0.8,1.4,1.3c0.3,0.4,0.6,0.8,1,1.1c0.8,0.5,1.6,0.9,2.5,1.2c0.5,0.2,0.9,0.4,1.4,0.5
		c1.1,0.5,2.2,1.3,3.3,2c0.6,0.4,1.2,0.9,1.9,1.2c1.8,1.1,3.3,2.1,4.6,3.9c0.4,0.6,0.9,1.1,1.3,1.7c0.7,0.9,1.5,1.9,2,2.9
		c1,1.8,0.7,3.7,0.2,5.6c-0.4,1.4,0,3.5,0.6,4.8c0,0.1,0.1,0.2,0.1,0.3c0.1,0.3,0.2,0.6,0.5,0.8c0.1,0,0.2,0.1,0.4,0.1
		c0.5,0,0.9-0.4,1.2-0.8c0.1-0.2,0.3-0.5,0.4-0.8c0.4-0.9,0.9-1.9,1.8-1.9c0.1,0,0.2,0,0.4,0c0.5,0.1,1,1.1,1.4,2l0.1,0.2
		c0.5,0.9,0.7,1.2,1.4,1.8c0.8,0.6,0.9,0.9,0.9,1.9c0,0.4,0,0.8,0,1.1c0,1.6,0,3.3,0.7,4.8c0.5,1.2,1.7,1.8,2.8,2.4
		c0.2,0.1,0.5,0.3,0.7,0.4c0.7,0.4,1.4,0.9,1.9,1.4l0,0c0.1,0.1,0.3,0.3,0.5,0.5c0.4,0.4,0.9,0.8,1.2,0.9c0,0,0.1,0,0.2,0
		c0.4,0,0.7-0.3,1-0.5c0.4-0.3,0.7-0.5,1.1-0.5c0.7,0,1,0.6,1.3,1.1c0,0.1,0.1,0.2,0.1,0.3c0.3,0.5,0.5,0.8,0.9,1.1
		c0.2,0.1,0.3,0.3,0.5,0.5c1,1.1,1.6,3.2,0.8,4.6c-0.2,0.4-0.6,0.6-0.9,0.9c-0.1,0.1-0.3,0.2-0.4,0.3c-0.5,0.4-0.9,0.9-1.4,1.4
		c-0.1,0.2-0.3,0.4-0.5,0.6c-0.7,0.8-1.6,1.3-2.5,1.8c-0.5,0.3-0.9,0.5-1.4,0.8c-1,0.7-1.9,1.7-2.7,2.6c-0.3,0.3-0.5,0.7-0.9,1
		c-0.6,0.7-1.5,1.2-2.4,1.7c-0.6,0.4-1.2,0.7-1.7,1.1c-1.4,1.2-2.4,1.9-4.4,2.3c-1.2,0.2-1.9,0.8-2.7,1.5c-0.4,0.3-0.7,0.6-1.2,0.9
		c-2.4,1.7-6.2,2.3-9,2.3c-0.4,0-0.7,0-1,0c-0.8,0-1.1-0.3-1.5-0.6c-0.2-0.1-0.4-0.3-0.7-0.5c-0.3-0.1-0.6-0.2-1.2-0.2
		c-0.3,0-0.5,0-0.8,0c-0.2,0-0.4,0-0.5,0c-1.8,0-2.3,0.8-3.3,2.1v0.1c-1.7,2.3-4.4,4.6-6.8,5.6c-0.5,0.2-0.9,0.2-1.4,0.2
		c-0.2,0-0.5,0-0.7,0c-0.8,0.1-1.1,0.5-1.5,1.1c-0.1,0.2-0.3,0.5-0.4,0.7c-0.2,0.4-0.4,0.8-0.7,1.1c-0.5,0.5-1,0.5-1.6,0.5
		c-0.2,0-0.4,0-0.5,0c-2.1,0.2-4,2.9-5.3,4.6l-0.2,0.3c-0.6,0.8-0.8,1.8-0.9,2.8c-0.1,0.6-0.2,1.2-0.4,1.8c-1.1,3.1-3,5.9-5.2,7.6
		c-0.7,0.5-1.4,1-1.9,1.4c-0.3,0.2-0.6,0.5-0.9,0.8c-0.2,0.2-0.5,0.5-0.7,0.7C789.7,406.7,789.5,406.8,789.3,406.8z"/>
	<path id="Kalawao_100" class="st9" d="M682,207.6c0.1,0.1,0.2,0.2,0.2,0.3l0,0c0.2,0.2,0.3,0.4,0.4,0.6c0.1,0.2,0.2,0.4,0.3,0.6
		c0,0,0,0,0.1,0c0,0,0.1,0,0.1,0.1l0.1,0.1c0.1,0.1,0.2,0.2,0.3,0.3c0.1,0.2,0.2,0.4,0.2,0.5s0,0.2,0,0.3s0,0.1,0,0.2
		c0,0.1,0,0.1,0,0.2c-0.1,0.3,0.1,0.6,0.3,0.8c0.1,0.1,0.1,0.2,0.2,0.2c0,0.1,0.1,0.1,0.2,0.2c0.1,0.1,0.1,0.1,0.2,0.2
		c0.1,0.1,0.1,0.1,0.2,0.2l0.7,0.7l0.1,0.1l0,0c0.1,0,0.1,0.1,0.1,0.1l0.1,0.1l0.1,0.1l0.6,0.7c0.1,0.1,0.2,0.2,0.4,0.3
		c0.1,0.1,0.3,0.2,0.4,0.3l0.3,0.3c0,0,0,0,0.1,0.1l0.1,0.1l0.1,0.1v0.1c0,0,0,0.1,0.1,0.1c0,0.1,0,0.2,0,0.3c0,0,0,0,0,0.1
		c-0.1,0.2-0.2,0.4-0.4,0.5c-0.1,0-0.1,0.1-0.2,0.1c-0.1,0-0.1,0-0.1,0h-0.1c-0.1,0-0.1,0-0.2,0c0,0-0.1,0-0.2,0
		c-0.1,0-0.2,0-0.2-0.1h-0.1c-0.1,0-0.2,0-0.3,0s-0.2,0-0.3,0.1s-0.2,0.1-0.2,0.2l-0.1,0.1l-0.1,0.1v0.1c0,0,0,0.1-0.1,0.1l0,0
		c0,0.1-0.1,0.2-0.2,0.1c0,0,0,0-0.1,0c0,0-0.1-0.1-0.1-0.2l0,0c-0.1-0.1-0.1-0.1-0.1-0.2c0-0.1-0.1-0.2-0.1-0.2l-0.1-0.1
		c0,0,0,0-0.1-0.1l-0.1-0.1c-0.1,0-0.1-0.1-0.1-0.1c-0.1-0.1,0-0.3,0-0.4c0-0.1,0.1-0.1,0.1-0.2c0-0.1-0.1-0.2-0.2-0.3l-0.1-0.1
		c-0.1-0.1-0.1-0.2-0.2-0.3c-0.1-0.1-0.1-0.2-0.2-0.3l-0.1-0.1c-0.1-0.1-0.1-0.2-0.2-0.3c-0.1-0.1-0.1-0.1-0.1-0.2s-0.1-0.1-0.1-0.2
		c-0.1-0.1-0.2-0.2-0.2-0.3c0-0.2-0.1-0.3-0.2-0.4l0,0c-0.1-0.1-0.1-0.1-0.1-0.2c0-0.1-0.1-0.1-0.1-0.2c0,0-0.1-0.1-0.1-0.2
		c0-0.1-0.1-0.1-0.1-0.2l-0.1-0.2c0,0-0.1-0.1-0.2-0.1c-0.1,0-0.2,0-0.3,0h-0.1c-0.1,0-0.2,0-0.2,0c-0.1,0-0.1-0.1-0.1-0.1
		s0,0-0.1-0.1c0,0,0,0-0.1-0.1s-0.1-0.2-0.1-0.3c0-0.2,0-0.4,0-0.7c0-0.2,0-0.4-0.1-0.6l-0.1-0.1c0,0,0-0.1-0.1-0.1l-0.3-0.3
		c-0.1-0.1-0.1-0.1-0.2-0.1l0,0c-0.1-0.1-0.1-0.2-0.2-0.3c0-0.1,0-0.1-0.1-0.1c0,0,0,0-0.1-0.1h-0.1c-0.1,0-0.1,0-0.2-0.1
		c0,0,0,0-0.1,0c0,0,0,0-0.1,0l0,0l0,0c0,0,0,0-0.1,0l0,0c0,0,0,0-0.1,0s-0.2-0.1-0.3-0.1c0,0,0-0.1-0.1-0.1c0-0.1,0-0.1-0.1-0.1
		l-0.2-0.2c-0.1-0.1-0.1-0.1-0.2-0.1c-0.1,0-0.2-0.1-0.2-0.2c-0.1-0.1-0.1-0.2-0.1-0.3v-0.1v-0.1c0-0.1,0-0.2-0.1-0.3
		s-0.1-0.1-0.1-0.2c0,0,0,0,0-0.1s0-0.1,0-0.2c0-0.1,0.1-0.1,0.2-0.2c0.1,0,0.1,0,0.2-0.1c0.1,0,0.2-0.1,0.3-0.1s0.2,0,0.3,0
		s0.2,0,0.3,0s0.2,0,0.3,0s0.2,0,0.3-0.1h0.1c0.2,0,0.4,0.1,0.6,0.2c0.1,0,0.1,0.1,0.2,0.1c0.1,0,0.2,0.1,0.3,0.1c0,0,0,0,0.1,0l0,0
		c0,0,0,0,0.1,0.1c0,0,0,0,0.1,0.1c0,0,0,0,0.1,0c0,0,0.1,0,0.2,0c0,0,0,0,0.1,0s0.2,0,0.3,0.1c0.1,0,0.1,0.1,0.2,0.1
		c0,0,0.1,0,0.1,0.1C681.8,207.4,681.9,207.5,682,207.6z"/>
</g>
<g id="balls">
	<circle id="Kauai_circle" class="st10" cx="442.5" cy="140.7" r="11.9"/>
	<text id="Kauai_numbers" transform="matrix(1 2.630000e-03 -2.630000e-03 1 434.1737 144.3526)" class="st11 st7 st12">100</text>
	<circle id="Honolulu_circle" class="st10" cx="600.5" cy="187" r="11.9"/>
	<text id="Honolulu_numbers" transform="matrix(1 2.630000e-03 -2.630000e-03 1 592.1149 190.6851)" class="st11 st7 st12">100</text>
	<circle id="Maui_circle" class="st10" cx="702.7" cy="240.1" r="11.9"/>
	<text id="Maui_numbers" transform="matrix(1 2.630000e-03 -2.630000e-03 1 694.3292 243.7361)" class="st11 st7 st12">100</text>
	<circle id="Hawaii_circle" class="st10" cx="804.7" cy="348.2" r="11.9"/>
	<text id="Hawaii_numbers" transform="matrix(1 2.630000e-03 -2.630000e-03 1 796.3068 351.8819)" class="st11 st7 st12">100</text>
</g>
<g id="table_data">
	<text transform="matrix(1 0 0 1 27.0955 546.3889)" class="st2 st7 st8">Confirmed Cases</text>
	<text transform="matrix(1 0 0 1 27.0955 590.3206)" class="st2 st7 st8">Deaths</text>
	<text id="current_date" transform="matrix(1 0 0 1 210.6251 502.1067)" class="st2 st7 st8">6 Apr. 2020</text>
	<text id="previous_date" transform="matrix(1 0 0 1 345.4034 502.1067)" class="st2 st7 st8">5 Apr. 2020</text>
	<text id="growth_rate__x25_" transform="matrix(1 0 0 1 464.4716 502.1067)" class="st2 st7 st8">Growth Rate %</text>
	<text transform="matrix(1 0 0 1 679.7466 502.1067)" class="st2 st7 st8">Total Confirmed Cases</text>
	<text id="current_сases" transform="matrix(1 0 0 1 233.4807 550.1409)" class="st13 st7 st5">783</text>
	<text id="previous_deaths" transform="matrix(1 0 0 1 376.1937 594.6204)" class="st13 st7 st5">14</text>
	<text id="current_deaths" transform="matrix(1 0 0 1 237.001 593.6406)" class="st13 st7 st5">15</text>
	<text id="total_cases" transform="matrix(1 0 0 1 720.3683 579.2842)" class="st14 st7 st15">783</text>
	<text id="previous_сases" transform="matrix(1 0 0 1 368.281 550.1409)" class="st13 st7 st5">673</text>
	<text id="cases_growth_rate" transform="matrix(1 0 0 1 498.1942 551.6771)" class="st13 st7 st5">16 %</text>
	<text id="death_growth_rate" transform="matrix(1 0 0 1 502.5935 596.1564)" class="st13 st7 st5">7 %</text>
</g>
<g id="Types">
	<g>
		<circle id="_x31_" class="st10" cx="523.5" cy="-46.7" r="8.4"/>
		<text id="_x31__numbers" transform="matrix(1 2.630000e-03 -2.630000e-03 1 520.5711 -42.8575)" class="st11 st7 st12">1</text>
	</g>
	<g>
		<circle id="_x32_" class="st10" cx="599.8" cy="-45" r="10.1"/>
		<text id="_x32__numbers" transform="matrix(1 2.630000e-03 -2.630000e-03 1 594.207 -42.4044)" class="st11 st7 st12">10</text>
	</g>
	<g>
		<circle id="_x33_" class="st10" cx="679.3" cy="-47.7" r="13.9"/>
		
			<text id="_x33__numbers" transform="matrix(1 2.630000e-03 -2.630000e-03 1 669.2639 -44.5992)" class="st11 st7" style="font-size:12px;">100</text>
	</g>
	<g>
		<circle id="_x34_" class="st10" cx="773" cy="-47.7" r="18.4"/>
		<text id="_x34__numbers" transform="matrix(1 2.630000e-03 -2.630000e-03 1 761.2615 -44.0753)" class="st11 st7 st8">500</text>
	</g>
	<g>
		<circle id="_x35_" class="st10" cx="880.3" cy="-46.7" r="25"/>
		<text id="_x35__numbers" transform="matrix(1 2.630000e-03 -2.630000e-03 1 862.514 -42.5447)" class="st11 st7 st5">1500</text>
	</g>
</g>
</svg>
