<?xml version="1.0" encoding="utf-8"?>
<!-- Generator: Adobe Illustrator 24.1.2, SVG Export Plug-In . SVG Version: 6.00 Build 0)  -->
<svg version="1.1" id="Layer_1" xmlns="http://www.w3.org/2000/svg" xmlns:xlink="http://www.w3.org/1999/xlink" x="0px" y="0px"
	 viewBox="0 0 916.5 609.2" style="enable-background:new 0 0 916.5 609.2;" xml:space="preserve">
<style type="text/css">
	.st0{fill:#AEDBF5;}
	.st1{fill-rule:evenodd;clip-rule:evenodd;fill:#AEDBF5;}
	.st2{fill:#CD483B;}
	.st3{fill:#FFFFFF;}
	.st4{font-family:'ArialMT';}
	.st5{font-size:16px;}
	.st6{font-size:14px;}
	.st7{font-size:12px;}
	.st8{font-size:10px;}
	.st9{font-size:7.0557px;}
	.st10{fill:#F5FBFE;}
	.st11{fill:#DDEEFA;}
	.st12{fill:#255078;}
	.st13{font-family:'Georgia';}
	.st14{font-size:18px;}
	.st15{fill:#4C4B4D;}
	.st16{fill:#4C4B4C;}
	.st17{fill:#DB3029;}
	.st18{font-size:36px;}
	.st19{fill:none;}
</style>
<g id="Layer_1_1_">
	<path id="hampden" class="st0" d="M486.3,315.1l-3.2-3l3-1.8l0.5-25l3.9-4.8h3.4v9l7,5.7h23.5l10.7-3.1l18.7-8.3l0.3-0.2
		c2.9-1.8,4.5-2.8,5.4-3.5c1.3-0.6,5.4-2,8.6-3.1l0.2-0.1l8.1,9.2l6.5-1.4v4.2l2.5,4.6l-98.7,22.8L486.3,315.1z"/>
	<polygon id="berkshire" class="st0" points="440.9,324.6 440.9,227.8 465.1,225.4 469.1,238.1 477.4,247.9 477.4,269.2 
		473.1,269.2 473.1,283.1 481.3,286.1 480.9,307.3 474.2,311.2 481.1,317.5 441.4,326.7 	"/>
	<path id="hampshire" class="st0" d="M502.6,289.8l-3.6-3V275h-11.1l-4.9,6l-4.6-1.8v-5h4.3v-22.7l6.2,4h45.7v-3.1h14.6l6.7,6.6
		l8.4,8.7l1.4,4.2l-0.2,0.1c-6.2,2.2-8.7,3.1-9.6,4c-0.8,0.6-2.6,1.8-4.3,2.8l-18.4,8.2l-9.3,2.8L502.6,289.8
		C502.6,289.9,502.6,289.8,502.6,289.8z"/>
	<polygon id="franklin" class="st0" points="551.2,247.3 529.2,247.3 529.2,250.5 490.5,250.5 481.8,244.9 473.8,235.5 470.3,224.4 
		546.7,207.1 550,210.3 552,222.9 556.1,225 556.1,228.5 549.2,228.5 552.4,241.7 556,247.6 555.6,251.7 	"/>
	<path id="plymouth" class="st0" d="M748.2,308.1l-11.4-9.6h-8.1l-0.1-0.1c-1-1.7-2.5-4-3-5c-0.6-0.8-3.8-6.2-6.3-10.5l-1.6-2.6
		l-5.8-13.6l2.7-24.4l3.9-10l-0.8-0.3l0.6-0.2c1.3-0.3,1.8-1.7,2.2-3c0.3-1,0.6-1.8,1.3-2.2c1.7-1.2,4.2-1.8,7.8-1.8
		c0.5,0,1,0,1.4,0c5.9,0.2,8.3,2.6,11.9,6.1c0.5,0.5,1,1,1.6,1.6c5.6,5.3,9.1,11,13,17c1.4,2.2,2.8,4.5,4.4,6.8
		c1.8,2.7,3.8,5.4,5.7,8.1c4,5.6,8.1,11.4,11.4,17.4l0.2,0.5l-3-1.1l-7.4,19.8l-4.3,10.1l-0.2-0.1c-0.3-0.2-0.6-0.2-1-0.2
		c-0.6,0-1.4,0.2-2.2,0.6c-2.2,1-3.8,3.1-5.4,5.4c-1.2,1.7-2.4,3.5-4,4.7l-0.2,0.2L748.2,308.1z"/>
	<polygon id="middlesex" class="st0" points="646.3,261 636.2,240.1 636.2,238.8 644.4,229.9 644.4,222.7 639.9,222.7 638.5,203.4 
		627.8,199.8 618.5,199.7 611.1,195.2 599.4,197.6 595.9,196 647.4,184.4 663.7,184.4 667.8,187.2 673.4,187.2 679,193.7 
		684.8,193.7 692.5,201.9 696.9,207.7 696.6,208 681.8,221.8 681.8,228.5 673.8,228.5 665.3,235 672,242.6 672,246.4 668,255.7 
		658.8,261 	"/>
	<path id="norfolk" class="st0" d="M673,273.1l-4.9,1.1v-0.5l-6-1.9v-6.6l10-5.9l5.1-11.8v-6.8l-4.3-4.9l2.6-2h6.3v2.4l8.8,3.1
		l19.8-13.6l-1.5-2.2l0.3-0.2c2.8,3.7,5.3,6.5,7,7.8l1.2,0.9l-3.9-1.5l-4.1,10.3l-2.8,24.2l-10.6,2.2l-17.4,13.1L673,273.1z"/>
	<path id="bristol" class="st0" d="M732.8,346.9l-50.6-62.5l16.2-12.4l9.2-1.8l5.4,12.6l0.3,0.5c4.6,7.8,7.4,12.3,7.9,13.2
		c0.8,1.2,2.9,4.6,3.8,6.1l0.8,1.4h9.2l8.7,7.3l3.1,12.5l4-1l-1.3,0.7c-0.3,0.2-0.6,0.4-1,0.6c-3.3,1.8-4.6,2.6-5,8.1
		c-0.1,1.8,0,3.3,0.1,4.6c0.2,3.2,0.4,5.4-3.4,8.9c-2.6,2.5-6.1,3.8-9.4,5.2c-1.1,0.5-2.3,1-3.4,1.4l-1.4,0.6L732.8,346.9z"/>
	<path id="barnstable" class="st0" d="M751.4,357.4c-1.9-7,3.6-10.2,9.5-13.8c3.8-2.2,7.8-4.6,9.7-8.1c2.9-5.2,1-10.6-1.3-15.1
		c-0.6-1.2-1.1-2.6-1.5-3.9c-0.4-1.2-0.8-2.4-1.3-3.4l-0.2-0.5l3,1.3l4.7-11l6.8-18.2l0.2,0.4c1.7,3,3.1,5.1,8.5,6.2
		c1.8,0.4,4.6,0.6,7.6,0.6c3.4,0,6.3-0.2,8.2-0.8c0.8-0.2,1.8-0.8,2.8-1.5c1-0.6,2-1.3,3-1.7c1-0.4,2.2-0.6,3.4-0.9
		c1.3-0.2,2.6-0.5,3.8-1c4.2-1.9,9-5.7,11.9-8.3c7.4-6.9,4.5-20.1-0.5-26.9c-1.6-2.2-3.8-3.7-6-5.2c-1.3-0.9-2.5-1.7-3.6-2.6
		c-0.7-0.6-1.4-1.4-2.2-2.3c-2-2.2-4-4.6-7-4.6c-0.2,0-0.3,0-0.5,0c0.3,2.3-0.1,4.2-1,5.4c-0.8,0.9-1.9,1.4-3.3,1.4
		c-1.9,0-4.1-1-5.4-2.7c-1.4-1.8-2-3.9-1.5-6.2v-0.2h0.2c1.8-0.1,3.6-0.2,6-0.2c1.1,0,2.2,0,3.3,0s2.2,0,3.3,0h0.3
		c6.2,0,6.7,0.5,11,4.2l0.1,0.1c2.1,1.8,4.6,3.7,7.4,5.6c5,3.4,10.1,7,12.3,11.1c1.1,2.2,1,4.3,1,6.6c-0.1,1.7-0.1,3.4,0.3,5
		c0.6,2.3,1.7,4.4,2.8,6.5c0.7,1.4,1.5,2.9,2.2,4.3c3.2,8.2,2,13.4,0.4,20.6c-0.3,1.4-0.6,2.8-1,4.3v0.2h-0.2
		c-3.4-0.3-3.5-4.6-3.6-8.4c-0.1-1.7-0.1-3.3-0.4-4.3l0,0h-0.4c-1.4,0-7.6,3-17.2,8.1l-0.3,0.2c-5.1,2.7-9,3.4-13.8,4.2
		c-1.1,0.2-2.2,0.4-3.4,0.6c-11.2,2.2-21.6,12.8-27.5,21.9c-1.5,2.3-2.7,4.6-3.8,6.6c-0.6,1.1-1.2,2.2-1.8,3.4
		c-0.4,0.3-0.8,0.6-1.1,0.9c-2.4,1.8-5.8,4.2-7.6,8.6l-0.2,0.5c-0.2,0.2-0.3,0.6-0.4,0.8l-0.2,0.2c-0.2,0.3-0.4,0.7-0.6,1l-1,1
		c-4.1,4-8.7,8.5-13.1,9.8l-0.2,0.1L751.4,357.4z"/>
	<path id="suffolk" class="st0" d="M687.1,232.5v-8.4l13.3-12.4l1-1.1l0.2,0.3c1.2,2.7,3.4,6.4,6.1,10.2l0.1,0.2L690,233.5
		L687.1,232.5z"/>
	<polygon id="worcester" class="st0" points="587.8,287.5 587.8,278 577.9,280.2 571.1,272.5 568.8,265.2 560.4,256.5 561.5,246.2 
		557.4,240.1 555.9,233.7 561.4,233.7 561.4,221.8 556.8,219.4 555,207.7 552.9,205.7 589.9,197.4 592.1,200.1 598.7,203.1 
		610.1,200.7 617.1,204.9 626.4,204.9 633.5,207.3 635,227.9 639,227.9 631,236.8 631,241.3 643,266.3 656.9,266.3 656.9,275.7 
		659,276.4 590.3,292.2 	"/>
	<path id="essex" class="st0" d="M696.5,198.6l-9.4-10.1h-5.6l-5.6-6.6h-6.4l-4.6-3.1v-10.1l8-10.2l1.5-2.3h5.7l13.4-15.4l11.7-2.5
		l0.1,0.2c0.5,1.9,1,3.7,1.6,5.4c1.2,3,3.4,8.6,5.3,12.2c0.6,1.1,1.7,2.4,2.9,3.8c1.9,2.2,3.8,4.5,4.2,6.5c0.8,5.8-3.7,13.4-7.6,20
		c-1.9,3.2-3.7,6.2-4.7,8.7c-0.6,1.4-1.6,3-2.6,4.8c-1,1.6-2,3.2-2.6,4.6l-0.2,0.3L696.5,198.6z"/>
	<path id="dukes" class="st1" d="M757.9,379.7l-0.2-0.3l0.4-0.3l7.1-7.2l11.2-7.7l0.4-0.3l0.3,0.4l2,2.9l5.9-4.1l0.6-2.9l0.1-0.3
		l0.2-0.1l3.7-2.2l0.4-0.3l0.3,0.4l1.2,1.8l0.2,0.3l-0.1,0.2c-0.7,2.2-0.1,4,0.4,5.2l0.1,0.1c0,0.1,0.1,0.2,0.1,0.3s0.1,0.2,0.1,0.3
		c0.2,1,0.5,2,0.8,3.2c0.1,0.2,0.1,0.5,0.2,0.8l0.1,0.1c0.2,0.8,0.4,1.6,0.6,2.3c0.1,0.5,0.2,0.9,0.3,1.4l0.2,0.6
		c0.6,1.4,0.5,2.2,0.5,2.5l-0.1,0.3l-0.3,0.1c-2.5,1-4.2,2.3-5.3,4.3c-0.4,0.8-0.6,1.9-0.8,3.4v0.2l-0.3,0.2l-6.9,4.8l0.8,1.1
		l0.3,0.4l-0.4,0.3l-8.5,5.9l-0.4,0.3l-0.3-0.5l-6.8-9.8l-1.3,0.9l-0.4,0.3l-0.3-0.4L757.9,379.7z"/>
	<path id="nantucket" class="st0" d="M817.2,388.7l0.3-0.1c0.1,0,0.3-0.1,0.5-0.2c0.3,0,0.8,0,1.2,0.2c0.4,0.1,0.8,0.2,1.1,0.2
		c0.8,0,2.1-0.3,2.7-0.4c3.9-0.8,7.7-2.1,10.7-3.5c1.1-0.5,2.1-1.2,3.1-1.8c0.8-0.6,1.7-1.1,2.6-1.6l0.2-0.1
		c1.3-0.7,2.4-1.2,3.4-2.2c-0.2-0.5-0.1-0.8,0.1-1c0.9-0.9,4.9,0,8.2,0.9l0.5,0.1l-2.1,3.9L838,397.8l-3.3,4.2L817.2,388.7z"/>
</g>
<g id="Balls">
	<circle id="dukes_circle_1_" class="st2" cx="776.3" cy="377.7" r="8.4"/>
	
		<ellipse id="franklin_circle_1_" transform="matrix(0.5824 -0.8129 0.8129 0.5824 30.2875 517.7568)" class="st2" cx="519.1" cy="229.4" rx="10" ry="10"/>
	<circle id="barnstable_circle_1_" class="st2" cx="797.2" cy="296.7" r="13.9"/>
	<circle id="worcester_circle_1_" class="st2" cx="600.1" cy="233.6" r="18.4"/>
	<circle id="middlesex_circle_1_" class="st2" cx="657" cy="203.6" r="25"/>
	<circle id="suffolk_circle_1_" class="st2" cx="698.6" cy="222.7" r="25"/>
	<circle id="hampden_circle_1_" class="st2" cx="530.8" cy="304.6" r="18.4"/>
	<circle id="bristol_circle_1_" class="st2" cx="711.8" cy="304.6" r="18.4"/>
	<circle id="essex_circle_1_" class="st2" cx="696.9" cy="167.1" r="18.4"/>
	<circle id="plymouth_circle_1_" class="st2" cx="739.5" cy="267" r="18.4"/>
	
		<ellipse id="hampshire_circle_1_" transform="matrix(0.3162 -0.9487 0.9487 0.3162 98.7108 677.1527)" class="st2" cx="519.1" cy="270.1" rx="13.9" ry="13.9"/>
	<circle id="berkshire_circle_1_" class="st2" cx="461.1" cy="276.1" r="10.1"/>
	<circle id="nantucket_circle_1_" class="st2" cx="834.5" cy="389.7" r="8.4"/>
	<text id="middlesex_numbers_1_" transform="matrix(1 2.630000e-03 -2.630000e-03 1 639.156 207.7608)" class="st3 st4 st5">1500</text>
	<text id="suffolk_numbers_1_" transform="matrix(1 2.630000e-03 -2.630000e-03 1 680.8478 226.9161)" class="st3 st4 st5">1500</text>
	<text id="worcester_numbers_1_" transform="matrix(1 2.630000e-03 -2.630000e-03 1 588.4337 237.2452)" class="st3 st4 st6">500</text>
	<text id="hampden_numbers_1_" transform="matrix(1 2.630000e-03 -2.630000e-03 1 519.0837 309.0418)" class="st3 st4 st6">500</text>
	<text id="bristol_numbers_1_" transform="matrix(1 2.630000e-03 -2.630000e-03 1 700.152 308.2047)" class="st3 st4 st6">500</text>
	<text id="essex_numbers_1_" transform="matrix(1 2.630000e-03 -2.630000e-03 1 685.1976 170.7459)" class="st3 st4 st6">500</text>
	<text id="plymouth_numbers_1_" transform="matrix(1 2.630000e-03 -2.630000e-03 1 727.8336 270.6573)" class="st3 st4 st6">500</text>
	<text id="barnstable_numbers_1_" transform="matrix(1 2.630000e-03 -2.630000e-03 1 787.1562 299.8614)" class="st3 st4 st7">100</text>
	<text id="hampshire_numbers_1_" transform="matrix(1 2.630000e-03 -2.630000e-03 1 508.5259 273.8214)" class="st3 st4 st7">100</text>
	<text id="franklin_numbers_1_" transform="matrix(1 2.630000e-03 -2.630000e-03 1 513.4707 232.7857)" class="st3 st4 st8">60</text>
	<text id="berkshire_numbers_1_" transform="matrix(1 2.630000e-03 -2.630000e-03 1 455.4593 278.6641)" class="st3 st4 st8">60</text>
	<text id="dukes_numbers_1_" transform="matrix(1 2.630000e-03 -2.630000e-03 1 772.3371 379.5296)" class="st3 st4 st9">10</text>
	<text id="nantucket_numbers_1_" transform="matrix(1 2.630000e-03 -2.630000e-03 1 830.5372 391.5696)" class="st3 st4 st9">10</text>
	<circle id="norfolk_circle_1_" class="st2" cx="678.5" cy="265.6" r="18.4"/>
	<text id="norfolk_numbers_1_" transform="matrix(1 2.630000e-03 -2.630000e-03 1 666.8336 269.2571)" class="st3 st4 st6">500</text>
</g>
<g id="Texts">
	<polygon id="blue_bg" class="st10" points="0,473.8 0,510.8 0,520.4 0,609.2 173.5,609.2 173.5,520.4 915,520.4 915,473.8 	"/>
	<path id="line_bg" class="st11" d="M916.5,0H0l0,0v474.4v2v42.9v2v42.9v2v42.9l0,0h579.8l0,0H913l0,0h3.5V0z M913,56.8v417.6H578.4
		l-0.6-0.3v0.3H443.6l-0.6-0.3v0.3H3V56.8H913z M913,476.4v42.9H579.8v-42.9H913z M445.1,519.4v-42.9h132.8v42.9H445.1z
		 M577.8,521.4v42.9H445.1v-42.9H577.8z M310.3,519.4v-42.9h132.8v42.9H310.3z M443.1,521.4v42.9H310.3v-42.9H443.1z M175.5,519.4
		v-42.9h132.8v42.9H175.5z M308.3,521.4v42.9H175.5v-42.9H308.3z M173.5,476.4v42.9H3v-42.9H173.5z M173.5,521.4v42.9H3v-42.9H173.5
		z M3,566.3h170.5v39.9H3V566.3z M175.5,566.3h132.8v39.9H175.5V566.3z M310.3,566.3h132.8v39.9H310.3V566.3z M445.1,566.3h132.8
		v39.9H445.1V566.3z M579.8,521.4H913v84.8H579.8V521.4z"/>
	<text id="title" transform="matrix(1 0 0 1 32.8483 35.8372)" class="st12 st13 st14">COVID-19 in Massachusetts on</text>
	<text id="date" transform="matrix(1 0 0 1 287.4693 35.8372)" class="st12 st13 st14">April 27th, 2020</text>
	<text id="confirmed" transform="matrix(1 0 0 1 88.2503 161.6763)" class="st12 st13 st5">State Confirmed Cases By County</text>
	<text transform="matrix(1 0 0 1 88.2504 201.342)" class="st15 st4 st6">Middlesex 15,048</text>
	<text transform="matrix(1 0 0 1 88.2502 227.5574)" class="st15 st4 st6">Suffolk 13,606</text>
	<text transform="matrix(1 0 0 1 88.2502 253.7729)" class="st15 st4 st6">Essex 9,362</text>
	<text transform="matrix(1 0 0 1 88.2502 279.9875)" class="st15 st4 st6">Norfolk 6,187</text>
	<text transform="matrix(1 0 0 1 88.2502 306.2034)" class="st15 st4 st6">Worcester 6,129</text>
	<text transform="matrix(1 0 0 1 88.2502 332.4189)" class="st15 st4 st6">Plymouth 5,409</text>
	<text transform="matrix(1 0 0 1 88.2502 358.6335)" class="st15 st4 st6">Hampden 4,003</text>
	<text transform="matrix(1 0 0 1 88.2502 384.8501)" class="st15 st4 st6">Bristol 3,916</text>
	<text id="Yuma_53_x09__1_" transform="matrix(1 0 0 1 236.2104 201.3418)" class="st15 st4 st6">Barnstable 937</text>
	<text transform="matrix(1 0 0 1 236.2104 227.5569)" class="st15 st4 st6">Hampshire 549</text>
	<text transform="matrix(1 0 0 1 236.2101 253.7722)" class="st15 st4 st6">Berkshire 448</text>
	<text transform="matrix(1 0 0 1 236.2103 279.9868)" class="st15 st4 st6">Franklin 263</text>
	<text transform="matrix(1 0 0 1 236.2103 306.2026)" class="st15 st4 st6">Dukes 18</text>
	<text transform="matrix(1 0 0 1 236.2103 332.418)" class="st15 st4 st6">Nantucket 11</text>
</g>
<g id="table_data">
	<text transform="matrix(1 0 0 1 26.0948 545.8201)" class="st12 st4 st6">Confirmed Cases</text>
	<text transform="matrix(1 0 0 1 26.0948 589.7516)" class="st12 st4 st6">Deaths</text>
	<text id="current_date" transform="matrix(1 0 0 1 209.6245 501.5378)" class="st12 st4 st6">6 Apr. 2020</text>
	<text id="previous_date" transform="matrix(1 0 0 1 344.4027 501.5378)" class="st12 st4 st6">5 Apr. 2020</text>
	<text id="growth_rate__x25_" transform="matrix(1 0 0 1 463.4709 501.5378)" class="st12 st4 st6">Growth Rate %</text>
	<text transform="matrix(1 0 0 1 678.746 501.5378)" class="st12 st4 st6">Total Confirmed Cases</text>
	<text id="current_сases" transform="matrix(1 0 0 1 232.4801 549.572)" class="st16 st4 st5">783</text>
	<text id="previous_deaths" transform="matrix(1 0 0 1 375.193 594.0515)" class="st16 st4 st5">14</text>
	<text id="current_deaths" transform="matrix(1 0 0 1 236.0004 593.0718)" class="st16 st4 st5">15</text>
	<text id="total_cases" transform="matrix(1 0 0 1 719.3677 578.7151)" class="st17 st4 st18">783</text>
	<text id="previous_сases" transform="matrix(1 0 0 1 367.2804 549.572)" class="st16 st4 st5">673</text>
	<text id="cases_growth_rate" transform="matrix(1 0 0 1 497.1936 551.1082)" class="st16 st4 st5">16 %</text>
	<text id="death_growth_rate" transform="matrix(1 0 0 1 501.5929 595.5875)" class="st16 st4 st5">7 %</text>
</g>
<g id="TYPES_1_">
	<g>
		<circle id="_x33__1_" class="st2" cx="797.5" cy="-55.4" r="18.9"/>
		<text id="_x33__numbers_1_" transform="matrix(1 2.629936e-03 -2.629936e-03 1 781.3445 -50.256)" class="st3 st4 st7">1,000</text>
	</g>
	<g>
		<circle id="_x32__1_" class="st2" cx="749.3" cy="-54.8" r="14.4"/>
		
			<text id="_x32__numbers_1_" transform="matrix(1 2.629918e-03 -2.629918e-03 1 737.6165 -49.4254)" class="st3 st4" style="font-size:13px;">100</text>
	</g>
	<g>
		<circle id="_x31__2_" class="st2" cx="670.2" cy="-52.8" r="7.2"/>
		
			<text id="_x31__numbers_2_" transform="matrix(1 2.629964e-03 -2.629964e-03 1 665.0382 -49.2116)" class="st3 st4" style="font-size:9px;">10</text>
	</g>
	<g>
		<circle id="_x31__3_" class="st2" cx="638.2" cy="-52.5" r="6.2"/>
		
			<text id="_x31__numbers_3_" transform="matrix(1 2.629964e-03 -2.629964e-03 1 635.778 -48.8779)" class="st3 st4" style="font-size:9px;">9</text>
	</g>

	<g>
		<circle id="_x34__1_" class="st2" cx="851.7" cy="-52.8" r="23.9"/>
		
			<text id="_x34__numbers_1_" transform="matrix(1 2.629928e-03 -2.629928e-03 1 831.4447 -47.6353)" class="st3 st4" style="font-size:13px;">25,000</text>
	</g>
</g>
</svg>
