<?xml version="1.0" encoding="utf-8"?>
<!-- Generator: Adobe Illustrator 24.1.2, SVG Export Plug-In . SVG Version: 6.00 Build 0)  -->
<svg version="1.1" id="Layer_1" xmlns="http://www.w3.org/2000/svg" xmlns:xlink="http://www.w3.org/1999/xlink" x="0px" y="0px"
	 viewBox="0 0 916.5 609.2" style="enable-background:new 0 0 916.5 609.2;" xml:space="preserve">
<style type="text/css">
	.st0{fill:#F5FBFE;}
	.st1{fill:#DDEEFA;}
	.st2{fill:#255078;}
	.st3{font-family:'Georgia';}
	.st4{font-size:18px;}
	.st5{font-size:16px;}
	.st6{fill:#4C4B4D;}
	.st7{font-family:'ArialMT';}
	.st8{font-size:14px;}
	.st9{fill:#AED9F4;}
	.st10{fill:#CD483B;}
	.st11{fill:#FFFFFF;}
	.st12{font-size:7.0557px;}
	.st13{fill:#4C4B4C;}
	.st14{fill:#DB3029;}
	.st15{font-size:36px;}
	.st16{fill:none;}
</style>
<g id="Texts">
	<polygon id="blue_bg" class="st0" points="0,473.8 0,510.8 0,520.4 0,609.2 173.5,609.2 173.5,520.4 915,520.4 915,473.8 	"/>
	<path id="line_bg" class="st1" d="M916.5,0H0l0,0v474.4v2v42.9v2v42.9v2v42.9l0,0h579.8l0,0H913l0,0h3.5V0z M913,56.8v417.6H578.4
		l-0.6-0.3v0.3H443.6l-0.6-0.3v0.3H3V56.8H913z M913,476.4v42.9H579.8v-42.9H913z M445.1,519.4v-42.9h132.8v42.9H445.1z
		 M577.8,521.4v42.9H445.1v-42.9H577.8z M310.3,519.4v-42.9h132.8v42.9H310.3z M443.1,521.4v42.9H310.3v-42.9H443.1z M175.5,519.4
		v-42.9h132.8v42.9H175.5z M308.3,521.4v42.9H175.5v-42.9H308.3z M173.5,476.4v42.9H3v-42.9H173.5z M173.5,521.4v42.9H3v-42.9H173.5
		z M3,566.3h170.5v39.9H3V566.3z M175.5,566.3h132.8v39.9H175.5V566.3z M310.3,566.3h132.8v39.9H310.3V566.3z M445.1,566.3h132.8
		v39.9H445.1V566.3z M579.8,521.4H913v84.8H579.8V521.4z"/>
	<text id="title" transform="matrix(1 0 0 1 32.8483 35.8372)" class="st2 st3 st4">COVID-19 in South Carolina Counties on</text>
	<text id="date" transform="matrix(1 0 0 1 362.4693 35.8372)" class="st2 st3 st4">April 27th, 2020</text>
	<text id="confirmed" transform="matrix(1 0 0 1 32.8482 98.5938)" class="st2 st3 st5">State Confirmed Cases By County</text>
	<text transform="matrix(1 0 0 1 32.8481 130.4998)" class="st6 st7 st8">Abbeville  10</text>
	<text transform="matrix(1 0 0 1 32.8592 151.854)" class="st6 st7 st8">Aiken  10</text>
	<text transform="matrix(1 0 0 1 32.8592 173.2075)" class="st6 st7 st8">Allendale  10</text>
	<text transform="matrix(1 0 0 1 32.8377 194.5613)" class="st6 st7 st8">Anderson  10</text>
	<text transform="matrix(1 0 0 1 32.8377 215.915)" class="st6 st7 st8">Bamberg  10</text>
	<text transform="matrix(1 0 0 1 32.8377 237.2688)" class="st6 st7 st8">Barnwell  10</text>
	<text transform="matrix(1 0 0 1 32.8377 258.6223)" class="st6 st7 st8">Beaufort  10</text>
	<text transform="matrix(1 0 0 1 32.8377 279.9761)" class="st6 st7 st8">Berkeley  10</text>
	<text transform="matrix(1 0 0 1 32.8374 301.3291)" class="st6 st7 st8">Calhoun  10</text>
	<text transform="matrix(1 0 0 1 32.8377 322.6836)" class="st6 st7 st8">Charleston  10</text>
	<text transform="matrix(1 0 0 1 32.8374 344.0366)" class="st6 st7 st8">Cherokee  10</text>
	<text transform="matrix(1 0 0 1 32.8374 365.3911)" class="st6 st7 st8">Chester  10</text>
	<text transform="matrix(1 0 0 1 32.8374 386.7439)" class="st6 st7 st8">Chesterfield  10</text>
	<text transform="matrix(1 0 0 1 32.8376 408.0986)" class="st6 st7 st8">Clarendon  10</text>
	<text transform="matrix(1 0 0 1 32.8374 429.4523)" class="st6 st7 st8">Colleton  10</text>
	<text transform="matrix(1 0 0 1 32.8376 450.8053)" class="st6 st7 st8">Darlington  10</text>
	<text transform="matrix(1 0 0 1 199.9998 130.4995)" class="st6 st7 st8">Dillon  10</text>
	<text transform="matrix(1 0 0 1 199.9998 151.853)" class="st6 st7 st8">Dorchester  10</text>
	<text transform="matrix(1 0 0 1 199.9998 173.2068)" class="st6 st7 st8">Edgefield  10</text>
	<text transform="matrix(1 0 0 1 199.9998 194.5608)" class="st6 st7 st8">Fairfield  10</text>
	<text transform="matrix(1 0 0 1 199.9998 215.9143)" class="st6 st7 st8">Florence  10</text>
	<text transform="matrix(1 0 0 1 199.9998 237.2678)" class="st6 st7 st8">Georgetown  10</text>
	<text transform="matrix(1 0 0 1 199.9998 258.6216)" class="st6 st7 st8">Greenville  10</text>
	<text transform="matrix(1 0 0 1 199.9999 279.9751)" class="st6 st7 st8">Greenwood  10</text>
	<text transform="matrix(1 0 0 1 199.9998 301.3291)" class="st6 st7 st8">Hampton  10</text>
	<text transform="matrix(1 0 0 1 200.0001 322.6829)" class="st6 st7 st8">Horry  10</text>
	<text transform="matrix(1 0 0 1 200.0001 344.0364)" class="st6 st7 st8">Jasper  10</text>
	<text transform="matrix(1 0 0 1 200.0001 365.3901)" class="st6 st7 st8">Kershaw  10</text>
	<text transform="matrix(1 0 0 1 199.9999 386.7437)" class="st6 st7 st8">Lancaster  10</text>
	<text transform="matrix(1 0 0 1 199.9998 408.0969)" class="st6 st7 st8">Laurens  10</text>
	<text transform="matrix(1 0 0 1 200 429.4509)" class="st6 st7 st8">Lee  10</text>
	<text transform="matrix(1 0 0 1 200 450.8048)" class="st6 st7 st8">Lexington  10</text>
	<text transform="matrix(1 0 0 1 353.873 130.4995)" class="st6 st7 st8">McCormick  10</text>
	<text transform="matrix(1 0 0 1 353.873 151.8533)" class="st6 st7 st8">Marion  10</text>
	<text transform="matrix(1 0 0 1 353.873 173.2068)" class="st6 st7 st8">Marlboro  10</text>
	<text transform="matrix(1 0 0 1 353.873 194.5608)" class="st6 st7 st8">Newberry  10</text>
	<text transform="matrix(1 0 0 1 353.873 215.9143)" class="st6 st7 st8">Oconee  10</text>
	<text transform="matrix(1 0 0 1 353.873 237.2683)" class="st6 st7 st8">Orangeburg  10</text>
	<text transform="matrix(1 0 0 1 353.873 258.6221)" class="st6 st7 st8">Pickens  10</text>
	<text transform="matrix(1 0 0 1 353.873 279.9761)" class="st6 st7 st8">Richland  10</text>
	<text transform="matrix(1 0 0 1 353.8731 301.3296)" class="st6 st7 st8">Saluda  10</text>
	<text transform="matrix(1 0 0 1 353.8736 322.6836)" class="st6 st7 st8">Spartanburg  10</text>
	<text transform="matrix(1 0 0 1 353.8736 344.0374)" class="st6 st7 st8">Sumter  10</text>
	<text transform="matrix(1 0 0 1 353.8733 365.3911)" class="st6 st7 st8">Union  10</text>
	<text transform="matrix(1 0 0 1 353.8736 386.7451)" class="st6 st7 st8">Williamsburg  10</text>
	<text transform="matrix(1 0 0 1 353.8731 408.099)" class="st6 st7 st8">York  10</text>
</g>
<g id="Counties">
	<path id="york_1_" class="st9" d="M666.5,135.2l-27.8,1.4l-3,5.5v13.4l1.7,6.4l8.7,1.4l33.2-5.7c0.1-0.9,0-1.7-0.1-2
		c-0.4-0.6-1.9-1.9-2.7-2.5l-0.7-0.6l0.4-8.8L666.5,135.2z"/>
	<path id="abbeville" class="st9" d="M578.8,217.7c0.6-0.6,1.3-1.5,1.5-1.8c0.1-0.8,0.5-2.8,1.2-6.1l-1.8-1.7l-0.8-0.8l-3.1,5.6
		c-2,2.2-5.1,5.6-5.6,6.7c-0.7,1.4-2.9,2.9-6.4,5.3c-1.4,0.9-2.7,1.8-3.3,2.3c-1.3,1.1-2.1,3.5-2.3,4.3l-0.1,0.4l-1.2,1.3
		c0.2,0.3,0.4,0.7,0.7,1c0.9,1.3,1.7,2.7,2.5,4c1.3,2.2,2.5,4.2,3.9,5.7c0.2,0.2,0.4,0.4,0.7,0.6c0.7,0.6,1.4,1.1,2,1.7l3.1-4.1
		l4.7,2.9c1.3-1.2,3-2.5,4.4-2.6c0.7,0,1.3,0.2,1.8,0.7c0.3,0.2,1.4,0.5,2.6,0.6l0.9-3.7l4-5.2l-5-7.4l-1.3-2.3l-3.5-2.9v-4
		L578.8,217.7z"/>
	<path id="anderson" class="st9" d="M562.4,186.5c-0.2-0.8-1.2-3.1-1.8-4.5l-4.4,2.1l-5.4,3.6l-4.2,5.4l-6.7,4l-3.6,6.5
		c4.1,2.2,8,6.9,8.5,7.6c2.5,3.2,4.1,6.9,5.6,10.1l0.8,1.9c1.1,2.3,2.3,4.7,3.8,7.1l0.1-0.1c0.3-1.1,1.3-3.9,3.2-5.6
		c0.8-0.7,2.1-1.5,3.6-2.6c1.7-1.1,4.8-3.2,5.3-4c0.9-1.7,4.9-6.1,6.1-7.3l3.2-5.7l-5.1-2.1l-5.3-4l-0.1-0.6
		c-0.9-3.3-2.3-6.8-2.9-7.4c-2-1.4-1.1-3.3-0.8-4C562.3,186.8,562.4,186.6,562.4,186.5z"/>
	<path id="cherokee" class="st9" d="M634.8,136.8l-27.7,1.4c1.2,2.1,1.5,3,1.5,3.5c0.7,1.5,5.4,8.6,9.9,15l4.5,3.8l10.8,1.1
		l-1.5-5.8v-14.5L634.8,136.8z"/>
	<path id="greenville" class="st9" d="M585.6,178l-6.7-5.6l-1.2-22.6l-1.8-7.4l-5.9,0.8l-21.9,12.2h6.6l5.1,5.9l3.8,9.6v9.3
		c0.4,1.1,1.7,4.1,2.1,5.3c0.3,1.1-0.1,2.1-0.4,2.7c0,0.1-0.1,0.1-0.1,0.2c1.6,1.5,3,5.7,3.8,8.4l4.2,3.2l5.2,2.1l0.9,0.8l1.4-0.7
		l1.9-2.3l-2.1-3.9l2.3-6.7c-0.4-1.5-1.2-5.5,0.4-7.7C584,180.5,585,179.1,585.6,178z"/>
	<path id="florence" class="st9" d="M786.7,195.5c-1.4-0.8-4.6-2.8-6.2-3.8l-9,5.4l-1.2,1.9l-14,14.8v1.9l5.2,10.2l8.5,3.1l7.8,5.6
		H799l6.5-4.2l-2.9-4.2l-6.5-3.7L786,202.7l0.1-0.6C786.7,199.5,786.9,196.4,786.7,195.5z"/>
	<path id="beaufort" class="st9" d="M719.9,406.5c6-2.5,10.5-8.8,15-13.3c3.5-3.5,7-7.1,10.4-10.6c8.5-5.5,1.4-10.8,1.1-17.2
		l-0.6,1.5l-4.8-2l-23.7-12.7l-1.7,1.1v0.9l1.1,2.6l2.2,10.2l2.2,15.7l-10,9.5l-0.9,5.1c0.8,0.9,2.3,2.5,2.9,3
		c0.6,0.6,2.4,1.9,3.5,2.7l1.8,1.2h1.5v1l0.4,0.2l-0.4,0.6V406.5L719.9,406.5z"/>
	<polygon id="dorchester" class="st9" points="743.4,297 743,298 734.9,298 732.2,293.8 731.4,291.7 727.8,294.6 718.7,301.5 
		713.4,305.3 725.6,310.9 730.2,314.8 730.4,314.6 730.4,312.1 745.9,312.8 745.9,330.3 763.6,330.3 766,325.8 766,322.7 763.7,320 
		764.4,315.6 754,309.8 745.1,302.9 747.3,299.6 	"/>
	<path id="jasper" class="st9" d="M706.5,402.9c0.6,0.4,1.2,0.7,1.9,1.1h4.2c-0.7-0.5-1.4-1.1-1.7-1.4c-0.9-0.9-3.5-3.7-3.5-3.7
		l-0.6-0.6l1.4-7.8l9.6-9.1l-2-13.8l-2-9.1l-0.8,1.4l-7.7-1.2l-2.5-6.6h-3.4l-3.5,4.7l-8.6,9.7l-0.1,0.1c0.3,0.4,0.6,0.7,0.9,1.1
		c0.6,0.7,1.1,1.2,1.5,1.7c0.6,0.4,1.1,0.8,1.5,1.1c2,1.5,4.2,3,5.8,6.8c0.7,1.8,1.2,3.5,1.7,5.2c0.4,1.6,0.9,3.2,1.5,4.5
		c0.4,0.9,0.9,1.9,1.5,2.8c1.4,2.6,3.1,5.6,3.3,9.2c0.1,1.3-0.1,2.3-0.1,3.1C705.2,402.2,706,402.6,706.5,402.9z"/>
	<path id="marion" class="st9" d="M813,204.6l2.2-5.1l2-11.7h-10.3l-10.5,3.5l-2.8,1.5l-4,1.1c0.6,1.1,0.9,3.4-0.1,8.4l9.1,18
		l6.2,3.6l4.1,6c1.9,1.3,5.1,3.3,5.9,3.6c1.2,0.4,2,1.3,2.6,1.9l-2.2-4.3l-4.9-6.8l-2.9-8.1v-6.6L813,204.6z"/>
	<path id="lee" class="st9" d="M745.1,202l-4.1-4.5l-8.1-1.7l-0.7-0.9l-8.3,8.3v1.4l2.1,2.4l-5.1,8.4l21.8,11.6h2.8l2.8-1.1l4.8-6.8
		v-2l-5-2.5c-0.6-0.4-3.3-2-4.3-3.3c-1.2-1.6-0.2-3.5,1.4-4.9V202H745.1z"/>
	<path id="kershaw" class="st9" d="M728.9,191.9c-0.3-0.7-1.9-3.9-2.3-5.3c-0.6-0.9-4.3-4.7-7.5-7.7l-0.3-0.3l-1.1-3.7v2.7H711
		l-0.9,0.9l-0.1,0.9l2.6,3.7l-9.5,6.3h-5.9l-2.7-4l-6.1,7.4h-1.8l-0.1,1.4l3.2,5.9l4.6,7.5l-0.5,0.4v3.2l-1.7,2.8v1.4l9.5,7.5l1.9,2
		l2.1-2.3h3.1l6.2-6.8l2.3-0.9l4.4-7.4l-1.4-1.5v-4.1l9.1-9.2l-0.6-0.4L728.9,191.9z"/>
	<path id="barnwell" class="st9" d="M662.8,286.5l-2.7,4.1l-12.2,13.6l-6.7,10c2.7,1.6,5.5,3,8.7,4.3c0.3,0.1,0.6,0.3,0.9,0.4
		l2.8-1.7H677l1.5-1.1l0,0l-2.7-2.4v-22.9L662.8,286.5z"/>
	<path id="allendale" class="st9" d="M654.5,320.6l-0.3,0.2c4.7,2.8,7.4,6,10.4,10.7c3.9,5.9,6.2,12,8.1,17.9l6.2-5.5v-10.4l9.3-8.7
		l-6.7-6.5l-0.2-0.1l-3.3,2.4H654.5L654.5,320.6z"/>
	<polygon id="bamberg" class="st9" points="707.5,305.9 696.5,298.3 687.9,294.7 679.2,291.9 679.2,312.2 680.6,313.5 683.8,315.9 
		690.7,322.6 699.8,314 	"/>
	<path id="hampton" class="st9" d="M682.3,345.4l-8.5,7.5c0.4,1.5,0.9,3,1.2,4.5c0.5,1.9,1,3.7,1.5,5.6c1.7-0.2,3.5-0.4,5.3,0.1
		c1.1,0.2,1.9,0.7,2.7,1.1l0,0l8.6-9.7l4.4-5.9h7.4l2.6,6.9l3.5,0.6l1.2-2.1v-2.7l2-1.2l-23.7-23l-8.3,7.7L682.3,345.4L682.3,345.4z
		"/>
	<path id="edgefield" class="st9" d="M632.3,263.7v-2.2h-0.4l-4.3-2.3h-5.7l-5.7-11h-5.8l-2.7,3.3h-0.4l-7.7,4.1V272
		c0.2,0.1,0.4,0.3,0.6,0.4c1.1,0.7,2.3,1.6,3.4,2.7c1.4,1.2,2.4,2.7,3.3,3.9c0.8,1.1,1.6,2.2,2.4,2.9c0.6,0.6,1.7,0.9,3.1,1.2
		c0.7,0.2,1.6,0.4,2.5,0.7c2.2-2.8,4-4.4,5.3-5.1c-0.1-0.4-0.3-1.2-0.6-1.8l-0.5-1.1l8-7.2L632.3,263.7z"/>
	<path id="williamsburg" class="st9" d="M806.3,242.6l3.3-8.5c-0.6-0.4-1.2-0.8-1.7-1.1l-7.8,5.1h-23.2l-5.7-4.1l-10.3,31.3
		l10.3,2.5l0.3,0.3c2,1.9,4.6,4.1,5.2,4.4c0.2,0.1,1.1,0.4,4.5,4l6.1,2h3.5l13-25.2L806.3,242.6z"/>
	<path id="berkeley" class="st9" d="M791.5,281.9l-5.1-0.1l-7.2-2.4l-0.3-0.3c-1.4-1.5-3.2-3.3-3.7-3.6c-0.2-0.1-1-0.3-5.8-4.8
		l-9.7-2.3l-1.1,3.2l-7.7,4.6l-2,4.6l-4.3,12.8l7.4,5.1l-2.3,3.5l6.3,4.9l15.3,8.7l9.9,8l1.5,2.8l3.4-4.2c2.4-4.5,5-9.9,5.4-11.4
		c-0.2-0.7-0.1-2.3,1.4-6.1c0.9-2.3,2.2-5.2,3.5-6.2c0.9-0.7,6.2-6.7,11.2-12.6l-0.4-0.2L791.5,281.9z"/>
	<path id="charleston" class="st9" d="M810.6,287.8c-3,3.5-10.6,12.5-12.2,13.7c-1.1,0.9-3.5,7-3.6,8.7c0.4,0.9-0.1,3.1-5.8,13.9
		l-0.2,0.2l-6.6,8.3l-3.6-6.7l-9.3-7.5l-1.9-1.1l-0.2,1.5l2.2,2.4v5.3l-3.8,6.9h-19.7V344l1.4,2.1l5.5,6.6l2,6.5l1.5,1.7l-1.2,1.1
		c0.7-0.3,1.4-0.6,2.8-0.7c1.7-0.1,3,0.2,4.3-0.7c1.9-1.4,3.5-4.6,5.6-6.4c4.9-4.1,9.2-7.8,13-12.9c3.5-4.8,7.5-10.6,12.1-14.4
		c4.1-3.5,7.5-5.9,9.6-10.9c2-4.7,4.7-7.2,9.6-9.6c2.8-1.4,7.1-1.8,9.1-4.3c1.7-2.2,1.9-4.8,3.3-7.2c0.1-0.2,0.2-0.4,0.4-0.6
		l-6.6-2.6L810.6,287.8z"/>
	<path id="marlboro" class="st9" d="M786.4,161.6l-3.3-3l-15.1-7.5h-11.6h-0.1v2.5c5.7,13.5,7,16.9,7.3,18c0.4,0.5,1.9,1.9,3.5,3
		l4.6,2l5,8.2l0.8,3.5h1.7l6.7-23.5L786.4,161.6z"/>
	<path id="darlington" class="st9" d="M769,194.8l5.8-3.5l-1.3-5.7l-4.1-6.6l-4.1-1.8c-1.9-1.4-3.1-2.4-3.8-3.2l-5.2,2.6l-8.7,2.5
		l-13.2,13.3l0.2,0.2l8,1.7l5.7,6.2v7.4l-0.6,0.5c-0.4,0.3-0.9,0.8-1.1,1.1c0.7,0.6,2,1.5,2.9,2.1l3.4,1.7v-0.9l14.8-15.6L769,194.8
		z"/>
	<path id="sumter" class="st9" d="M750.4,228.7l-4.3,1.7h-4.3L718.4,218l-1.5,0.6l-4.8,5.1c0.7,3.8,3.5,17.9,3.5,20.6
		c0,0.7,0.2,1.2,0.4,1.2h2l-0.4,1.9l-1,5.9l7.1,7l3.2-9.2l4.9-5.6h4.2l6.2-4.4l3-2.8l12.4-12.2l-2.3-4.5L750.4,228.7z"/>
	<path id="chesterfield" class="st9" d="M753.1,154.2v-2.8l-26.4,2.7l-18.8,1.7l2.3,3.3l7.7,9.9v1.2h2.1l1.9,6.6
		c7.7,7.3,8,8.3,8.1,8.8c0.1,0.6,1.1,2.6,1.9,4.3l0.3,0.2l13.9-14l9.3-2.8l4.8-2.4c-1.1-2.8-4.1-10.1-6.9-16.6L753.1,154.2z"/>
	<polygon id="clarendon" class="st9" points="755.9,269.5 768.3,231.9 759.7,228.9 744.4,243.7 737.2,248.8 733.4,248.8 
		729.9,252.8 726.5,262.7 728.4,264.1 728.4,268.2 731,269.4 738,276.3 744.6,276.3 748.7,273.7 	"/>
	<path id="orangeburg" class="st9" d="M745.9,279.4l-0.3,0.2h-8.9l-7.8-7.6l-1.7-0.7l-6.6,8.3l-0.6-1.8c-1.9,0.8-5.4,1.5-7,1.8
		l-0.6,0.1l-8.1-4.9l-5.8-2.4l-8.9-4.4l-3.7-1.8l-2.5-2.2l-8.9,5l-8.4,12.1l-1.5,2.5l24.5,8l9.2,3.9l11.7,8.1l6.7-4.8l9-6.9l7.1-5.6
		l2.5,6.2l1.4,2.2h4l5.1-15L745.9,279.4z"/>
	<path id="colleton" class="st9" d="M751.8,361.1l-2-6.6l-5.1-6.2l-2.1-3.1V316l-8.8-0.4v0.3l-3.2,3.4l-7-5.7l-13.1-5.9l-8.2,8.8
		l-9.1,8.5l24.2,23.5l5.1,2.7l20.1,10.8l4.6,1.9c2.3-0.1,4.2-0.3,6.2-0.9L751.8,361.1z"/>
	<path id="horry" class="st9" d="M847.6,205.7l-7-5.6l-13-6.9l-5.5-5.5l-0.4-0.3l-1.2,1.1l-2.1,12.1l-2.6,6l-4.8,4.6v4.8l2.7,7
		l4.8,6.6l4.1,7.8l1.3,0.5l11.2,6.1l5.4,1.7l-0.5,1.6c1.5-3,3.1-5.9,4.9-9c4.2-7.4,10.4-14.4,17.6-19.5l-7.9-6.4L847.6,205.7z"/>
	<path id="georgetown" class="st9" d="M822.1,240.7l-6.4-2.4l-0.3-0.4c-0.2-0.3-1-1.1-1.7-1.4c-0.3-0.1-0.7-0.4-1.3-0.7l-3,7.8
		l-2.7,11l-12.6,24.5l14.5,3.8l11,5.9l7,2.8l-0.6,1.5c1.5-1.4,3.4-2.3,4.4-4.1c2.2-3.8,1.4-11.1,1.6-15.4c0.4-9.3,3.1-17.1,6.9-25
		l-5.6-1.8L822.1,240.7z"/>
	<path id="dillon" class="st9" d="M814.7,182.5l-13.3-10.3l-8.5-4.6l-3.6-3.3l-0.2,1l-6.7,23.7c1,0.6,2.5,1.5,3.8,2.3l6.3-1.7
		l2.7-1.4l11.4-3.8h10.8L814.7,182.5z"/>
	<polygon id="saluda" class="st9" points="635,258.2 637.3,255.8 638.4,252.7 641.1,246.6 643.2,237.8 644.2,236.5 640.5,236.5 
		629.5,228.4 623.7,228.4 619.7,232.1 617.3,235.8 615.2,239.7 612.6,241.7 611.8,244.9 618.3,244.9 624,255.9 628.5,255.9 
		632.7,258.2 	"/>
	<polygon id="fairfield" class="st9" points="657.3,214.7 657.5,214.5 673.8,214.5 680.9,208.5 688.5,208.5 690.1,207 686.9,201.7 
		683.2,194.9 683.5,191.1 683.5,186.7 646.4,189.3 646.4,195.4 648.6,198.3 652.4,204.4 656.5,211.6 	"/>
	<path id="chester" class="st9" d="M678.8,162.6l0.2-1.4c0-0.1,0-0.2,0.1-0.3l-32.9,5.7l-7.8-1.2l4.4,16.5l2.8,4.1l37.9-2.7v-2.5
		l-2.9-17.6L678.8,162.6z"/>
	<path id="newberry_1_" class="st9" d="M647.2,230.8l6-10.3l1.6-2.3l-1.4-5.6l-3.8-6.6l-3.6-5.9l-1.4-1.8l-5.7,5.1l-6.9-5.9h-2.9
		c-2.7,4.9-6.4,11.8-6.7,13c-0.4,1.2-1.5,3.2-2.7,5.1c-0.7,1.1-1.7,2.8-1.9,3.3c0,0.4,0,1.4-5.7,8l4.7,3.4l0.4-0.6l5-4.8h8.3l11,8.1
		h4.4L647.2,230.8z"/>
	<path id="oconee" class="st9" d="M526.6,205.2c1.2-1,2.9-2.4,5.5-2.7c0.4-0.1,0.7,0,1.1,0l3.8-6.7l-5.3-11.4l-8.1-19l-7,3.5
		l-0.4,0.1l0.1,9.5H513c-0.3,0.3-0.6,0.6-1.1,0.9c-0.9,0.7-1.7,1.3-2.3,1.7c-0.6,0.4-1,0.6-1.1,0.8c-0.3,0.4-0.4,0.8-0.6,1.2
		c-0.4,1-0.9,2.3-1.9,3.6c-0.4,0.5-0.8,1.1-1.2,1.5c-0.2,0.2-0.6,0.7-0.7,0.9c0,0.3,0.1,0.9,0.1,1.3c0.1,0.6,0.1,1.2,0.1,1.6
		c0,0.6,0,1.4,0.1,1.6c0.4,0.4,1.9,1.1,2.7,1.5c1.4,0.7,2.5,1.2,3.8,1.5c4.2,1.1,7,3.4,9.5,5.4l0.3,0.3c1.2,1.2,3.2,3.2,4.6,3.6
		C525.4,206.1,525.7,205.9,526.6,205.2z"/>
	<polygon id="pickens_1_" class="st9" points="553.2,158.9 542.1,158.9 537.3,161.6 531.2,161.6 526.4,164 534.5,183.1 539.4,193.6 
		544.4,190.6 548.8,185.1 554.7,181.2 560.2,178.5 560.2,171.6 556.8,162.9 	"/>
	<path id="greenwood" class="st9" d="M608.1,245.8l1.4-6l3-2.2l1.8-3.4l0.6-0.9l-6.2-4.4l-7.2-3.3l-7.8-4.1l-5.4-5.4l-4-3.6
		c-0.4,1.9-0.7,3.5-0.7,3.8s0,1.2-2,3.3v1.1l2.9,2.5l1.4,2.5l6.2,9.3l-5.1,6.6l-0.9,3.8l2,5.2l2.7-2.3h15.3L608.1,245.8z"/>
	<path id="laurens" class="st9" d="M616.8,214c0.9-1.5,2.1-3.5,2.3-4.3c0.5-1.9,5-10.1,6.9-13.5c-0.2-0.2-0.4-0.3-0.6-0.4
		c-1.2-0.3-15.5-4.4-16.1-4.5l-0.5-0.2c-3.2-2.3-7-4.9-8.4-5.6c-1.1,0.1-3-0.7-8.7-4.5l-3.1-1.2c-0.7,1.1-1.8,2.7-2.7,3.9
		c-0.6,0.9-0.2,3.6,0.2,5.3l0.1,0.5l-2.2,6.4l2.5,4.6l-3.8,4.6l-1,0.6l0.2,0.2l8.7,7.9l5.3,5.3l7.1,3.6l6.2,2.8
		c2.4-2.8,4.9-5.8,5.3-6.7C614.6,217.7,615.2,216.6,616.8,214z"/>
	<path id="mccormick" class="st9" d="M596.4,268.6v-15l3.9-2.1h-8.1l-5.3,4.7l-3.6-9.1c-1.4-0.1-3.4-0.4-4.6-1.2
		c-0.6,0.3-1.9,1.4-2.8,2.4l-0.9,1l-4.4-2.7l-1.4,1.9l-0.5,3.2c0.7,0.2,1.4,0.4,1.9,0.5c1.2,0.3,2.2,0.6,3,0.9
		c2.6,1,4.7,2.3,6.8,3.5c0.6,0.4,1.2,0.7,1.8,1.1c0.9,0.6,2.1,1,3.3,1.4c1.7,0.6,3.7,1.4,5.5,2.5c2.6,1.7,3.7,3.9,4.6,5.6
		C595.9,267.7,596.2,268.2,596.4,268.6z"/>
	<path id="union_1_" class="st9" d="M628.8,194.3h4.4l5.6,4.8l4.3-3.9v-6.9l-3.5-5.2l-4.8-18.1l-13-1.4l-3.6-3l-1.5,4.8l-1.2,18.9
		l-3.2,4.4c4.9,1.4,13,3.6,13.8,3.8C627.3,192.9,628.2,193.7,628.8,194.3z"/>
	<path id="spartanburg" class="st9" d="M593.4,178.2c2.3,1.5,5.2,3.3,6.4,3.8c1-0.2,3.1,0.7,9.6,5.4l3-4.2l1.2-18.5l2-6.6
		c-8.9-12.8-10.1-15.1-10.1-16c-0.2-0.6-0.9-1.9-1.8-3.4l-24.2,3.4l1.8,7.5l1.1,21.3l6.6,5.4L593.4,178.2z"/>
	<path id="richland" class="st9" d="M712.3,244.3c0-1.7-1.7-11.2-3.1-18.4h-2.1l-3.6,3.9l-4.3-4.6l-3-2.4l-7.4-5.7v-4l0.7-1.2H682
		l-7,6h-15.8L657,221l2.5,1.7l10.3,4.9l11,6.2l3.5,6.7v2.9l8.7,4.3l10.8,4.1l9.5,1.9l0.9-5.4C713.1,247.5,712.3,246.3,712.3,244.3z"
		/>
	<path id="calhoun" class="st9" d="M691.3,265l8.8,4.4l6.1,2.5l7.1,4.3c2.5-0.5,5.3-1.2,5.9-1.5c0.6-0.4,1.2-0.6,1.8-0.6l4.3-5.4
		v-2.4l-9.1-8.9l-0.1,0.2l-13.3-2.7l-11-4.3l-7.4-3.6v6.9h12.5l-9.3,8l-0.8,0.4l1.4,1.2L691.3,265z"/>
	<path id="aiken" class="st9" d="M669.4,266.9H656l-6.7-6.2l-4.4-7.4l-2.7-0.8l-0.6,1.4l-1.2,3.7l-3.9,3.9h-0.7v3.5l-6.1,6.1
		l-6.2,5.6c0.4,1.1,0.7,2.7,0.1,3.8c-0.4,0.7-1,1.2-1.8,1.3c-0.5,0.2-1.8,1.7-3.3,3.5c0.2,0.1,0.4,0.2,0.6,0.4
		c2.7,2,4.8,4.8,6.6,7.1c0.4,0.6,0.9,1.2,1.4,1.8c2,2.5,2.5,5.1,3,7.3c0.2,1.2,0.5,2.3,0.9,3.3c0.2,0.6,0.7,1,1.5,1.7
		c0.4,0.4,0.9,0.8,1.3,1.2c1.5,1.5,3.1,2.9,4.8,4.1l7-10.2l12.2-13.7l5.9-9.2l7.4-10.7L669.4,266.9z"/>
	<path id="lancaster_1_" class="st9" d="M707.3,161l-3.4-4.9l-19.4,1.8c-1.2-3.4-2.4-6.7-3.5-10.1l-1.5-1.3l-0.2,4.4
		c1.1,2.4,2.3,4.7,3.4,7.1c-0.1,0.7-0.1,1.5-0.2,2.3l1.1,0.4l3.3,19.9v8.8h0.1l8-9.6l4.1,6.2h3.2l5.8-3.8l-1.4-2l0.4-3.3l2.5-2.8
		h4.7v-4L707.3,161z"/>
	<polygon id="lexington" class="st9" points="673,266.1 685.6,259 687.7,257.2 680.9,257.2 680.9,241.2 678.3,236.1 668.2,230.5 
		664.7,228.9 657.8,225.5 655.2,223.8 650.2,232.4 648.5,235.6 647.8,237.4 646.3,239.3 644.3,247.8 643.5,249.5 646.9,250.5 
		652,258.8 657.3,263.5 671,263.5 	"/>
</g>
<g id="balls">
	<circle id="dillon_circle" class="st10" cx="795.9" cy="179.8" r="8.4"/>
	<circle id="marion_circle" class="st10" cx="799.9" cy="203.6" r="8.4"/>
	<circle id="horry_circle" class="st10" cx="836.8" cy="218" r="8.4"/>
	<circle id="georgetown_circle" class="st10" cx="817.4" cy="264" r="8.4"/>
	<circle id="williamsburg_circle" class="st10" cx="784.5" cy="255.6" r="8.4"/>
	<circle id="florence_circle" class="st10" cx="776.1" cy="215.2" r="8.4"/>
	<circle id="darlington_circle" class="st10" cx="754.6" cy="189.4" r="8.4"/>
	<circle id="marlboro_circle" class="st10" cx="774.4" cy="165.4" r="8.4"/>
	<circle id="lee_circle" class="st10" cx="734.9" cy="210.9" r="8.4"/>
	<circle id="chesterfield_circle" class="st10" cx="737.5" cy="166.5" r="8.4"/>
	<circle id="lancaster_circle" class="st10" cx="696.8" cy="168.9" r="8.4"/>
	<circle id="kershaw_circle" class="st10" cx="707.5" cy="201.8" r="8.4"/>
	<circle id="sumter_circle" class="st10" cx="725.6" cy="235.4" r="8.4"/>
	<circle id="clarendon_circle" class="st10" cx="747.4" cy="257.3" r="8.4"/>
	<circle id="berkeley_circle" class="st10" cx="771.4" cy="295.6" r="8.4"/>
	<circle id="dorchester_circle" class="st10" cx="745.9" cy="311" r="8.4"/>
	<circle id="charleston_circle" class="st10" cx="766" cy="342.2" r="8.4"/>
	<circle id="colleton_circle" class="st10" cx="723.3" cy="332.2" r="8.4"/>
	<circle id="beaufort_circle" class="st10" cx="734" cy="378" r="8.4"/>
	<circle id="jasper_circle" class="st10" cx="705.3" cy="369.8" r="8.4"/>
	<circle id="hampton_circle" class="st10" cx="690.7" cy="342.2" r="8.4"/>
	<circle id="allendale_circle" class="st10" cx="672.7" cy="330.3" r="8.4"/>
	<circle id="bamberg_circle" class="st10" cx="690.7" cy="307.3" r="8.4"/>
	<circle id="barnwell_circle" class="st10" cx="664.3" cy="304.6" r="8.4"/>
	<circle id="orangeburg_circle" class="st10" cx="699.1" cy="283.8" r="8.4"/>
	<circle id="calhoun_circle" class="st10" cx="707.5" cy="264" r="8.4"/>
	<circle id="richland_circle" class="st10" cx="690.1" cy="230.3" r="8.4"/>
	<circle id="lexington_circle" class="st10" cx="664.6" cy="245.9" r="8.4"/>
	<circle id="aiken_circle" class="st10" cx="643.1" cy="278.6" r="8.4"/>
	<circle id="edgefield_circle" class="st10" cx="612.3" cy="265.6" r="8.4"/>
	<circle id="saluda_circle" class="st10" cx="630.4" cy="242.4" r="8.4"/>
	<circle id="fairfield_circle" class="st10" cx="668.3" cy="199.9" r="8.4"/>
	<circle id="newberry_circle" class="st10" cx="634.4" cy="215.2" r="8.4"/>
	<circle id="chester_circle" class="st10" cx="660.9" cy="174.9" r="8.4"/>
	<circle id="york_circle" class="st10" cx="654.8" cy="149.2" r="8.4"/>
	<circle id="cherokee_circle" class="st10" cx="623" cy="148.2" r="8.4"/>
	<circle id="union_circle" class="st10" cx="626" cy="179.9" r="8.4"/>
	<circle id="spartanburg_circle" class="st10" cx="597.6" cy="158.9" r="8.4"/>
	<circle id="laurens_circle" class="st10" cx="603.8" cy="204.1" r="8.4"/>
	<circle id="greenwood_circle" class="st10" cx="597.6" cy="234" r="8.4"/>
	<circle id="mccormick_circle" class="st10" cx="584.5" cy="253.7" r="8.4"/>
	<circle id="abbeville_circle" class="st10" cx="572.6" cy="230.3" r="8.4"/>
	<circle id="greenville_circle" class="st10" cx="570.7" cy="172.6" r="8.4"/>
	<circle id="anderson_circle" class="st10" cx="556.9" cy="205.1" r="8.4"/>
	<circle id="pickens_circle" class="st10" cx="543.3" cy="172.6" r="8.4"/>
	<circle id="oconee_circle" class="st10" cx="520.5" cy="188.3" r="8.4"/>
	<text id="dillon_numbers" transform="matrix(1 2.629991e-03 -2.629991e-03 1 791.9744 181.6518)" class="st11 st7 st12">10</text>
	<text id="marion_numbers" transform="matrix(1 2.629991e-03 -2.629991e-03 1 795.9372 205.4556)" class="st11 st7 st12">10</text>
	<text id="horry_numbers" transform="matrix(1 2.629991e-03 -2.629991e-03 1 832.7872 219.8518)" class="st11 st7 st12">10</text>
	<text id="georgetown_numbers" transform="matrix(1 2.629991e-03 -2.629991e-03 1 813.4372 265.8037)" class="st11 st7 st12">10</text>
	<text id="williamsburg_numbers" transform="matrix(1 2.629991e-03 -2.629991e-03 1 780.5373 257.4038)" class="st11 st7 st12">10</text>
	<text id="florence_numbers" transform="matrix(1 2.629991e-03 -2.629991e-03 1 772.1373 217.1018)" class="st11 st7 st12">10</text>
	<text id="darlington_numbers" transform="matrix(1 2.629991e-03 -2.629991e-03 1 750.6372 191.2519)" class="st11 st7 st12">10</text>
	<text id="marlboro_numbers" transform="matrix(1 2.629991e-03 -2.629991e-03 1 770.4372 167.2519)" class="st11 st7 st12">10</text>
	<text id="lee_numbers" transform="matrix(1 2.629991e-03 -2.629991e-03 1 730.8872 212.802)" class="st11 st7 st12">10</text>
	<text id="chesterfield_numbers" transform="matrix(1 2.629991e-03 -2.629991e-03 1 733.5372 168.3518)" class="st11 st7 st12">10</text>
	<text id="lancaster_numbers" transform="matrix(1 2.629991e-03 -2.629991e-03 1 692.837 170.7305)" class="st11 st7 st12">10</text>
	<text id="kershaw_numbers" transform="matrix(1 2.629991e-03 -2.629991e-03 1 703.5372 203.6037)" class="st11 st7 st12">10</text>
	<text id="sumter_numbers" transform="matrix(1 2.629991e-03 -2.629991e-03 1 721.6871 237.2519)" class="st11 st7 st12">10</text>
	<text id="clarendon_numbers" transform="matrix(1 2.629991e-03 -2.629991e-03 1 743.4371 259.1018)" class="st11 st7 st12">10</text>
	<text id="berkeley_numbers" transform="matrix(1 2.629991e-03 -2.629991e-03 1 767.3872 297.4028)" class="st11 st7 st12">10</text>
	<text id="dorchester_numbers" transform="matrix(1 2.629991e-03 -2.629991e-03 1 741.9372 312.8518)" class="st11 st7 st12">10</text>
	<text id="charleston_numbers" transform="matrix(1 2.629991e-03 -2.629991e-03 1 762.0372 344.0518)" class="st11 st7 st12">10</text>
	<text id="colleton_numbers" transform="matrix(1 2.629991e-03 -2.629991e-03 1 719.3372 334.0037)" class="st11 st7 st12">10</text>
	<text id="beaufort_numbers" transform="matrix(1 2.629991e-03 -2.629991e-03 1 730.0872 379.9019)" class="st11 st7 st12">10</text>
	<text id="jasper_numbers" transform="matrix(1 2.629991e-03 -2.629991e-03 1 701.2872 371.6819)" class="st11 st7 st12">10</text>
	<text id="hampton_numbers" transform="matrix(1 2.629991e-03 -2.629991e-03 1 686.7371 344.0518)" class="st11 st7 st12">10</text>
	<text id="allendale_numbers" transform="matrix(1 2.629991e-03 -2.629991e-03 1 668.7244 332.1519)" class="st11 st7 st12">10</text>
	<text id="bamberg_numbers" transform="matrix(1 2.629991e-03 -2.629991e-03 1 686.7371 309.1018)" class="st11 st7 st12">10</text>
	<text id="barnwell_numbers" transform="matrix(1 2.629991e-03 -2.629991e-03 1 660.3243 306.4519)" class="st11 st7 st12">10</text>
	<text id="orangeburg_numbers" transform="matrix(1 2.629991e-03 -2.629991e-03 1 695.1371 285.6519)" class="st11 st7 st12">10</text>
	<text id="calhoun_numbers" transform="matrix(1 2.629991e-03 -2.629991e-03 1 703.5372 265.8518)" class="st11 st7 st12">10</text>
	<text id="richland_numbers" transform="matrix(1 2.629991e-03 -2.629991e-03 1 686.1371 232.1518)" class="st11 st7 st12">10</text>
	<text id="lexington_numbers" transform="matrix(1 2.629991e-03 -2.629991e-03 1 660.6372 247.7519)" class="st11 st7 st12">10</text>
	<text id="aiken_numbers" transform="matrix(1 2.629991e-03 -2.629991e-03 1 639.1371 280.4124)" class="st11 st7 st12">10</text>
	<text id="edgefield_numbers" transform="matrix(1 2.629991e-03 -2.629991e-03 1 608.3372 267.4519)" class="st11 st7 st12">10</text>
	<text id="saluda_numbers" transform="matrix(1 2.629991e-03 -2.629991e-03 1 626.4744 244.2519)" class="st11 st7 st12">10</text>
	<text id="fairfield_numbers" transform="matrix(1 2.629991e-03 -2.629991e-03 1 664.2872 201.7517)" class="st11 st7 st12">10</text>
	<text id="newberry_numbers" transform="matrix(1 2.629991e-03 -2.629991e-03 1 630.4372 217.1018)" class="st11 st7 st12">10</text>
	<text id="chester_numbers" transform="matrix(1 2.629991e-03 -2.629991e-03 1 656.9872 176.7519)" class="st11 st7 st12">10</text>
	<text id="york_numbers" transform="matrix(1 2.629991e-03 -2.629991e-03 1 650.8372 151.052)" class="st11 st7 st12">10</text>
	<text id="cherokee_numbers" transform="matrix(1 2.629991e-03 -2.629991e-03 1 619.0743 150.052)" class="st11 st7 st12">10</text>
	<text id="union_numbers" transform="matrix(1 2.629991e-03 -2.629991e-03 1 622.0372 181.7519)" class="st11 st7 st12">10</text>
	<text id="spartanburg_numbers" transform="matrix(1 2.629991e-03 -2.629991e-03 1 593.5872 160.7519)" class="st11 st7 st12">10</text>
	<text id="laurens_numbers" transform="matrix(1 2.629991e-03 -2.629991e-03 1 599.8872 205.9226)" class="st11 st7 st12">10</text>
	<text id="greenwood_numbers" transform="matrix(1 2.629991e-03 -2.629991e-03 1 593.5872 235.8518)" class="st11 st7 st12">10</text>
	<text id="mccormick_numbers" transform="matrix(1 2.629991e-03 -2.629991e-03 1 580.5372 255.552)" class="st11 st7 st12">10</text>
	<text id="abbeville_numbers" transform="matrix(1 2.629991e-03 -2.629991e-03 1 568.5873 232.1518)" class="st11 st7 st12">10</text>
	<text id="greenville_numbers" transform="matrix(1 2.629991e-03 -2.629991e-03 1 566.7372 174.5019)" class="st11 st7 st12">10</text>
	<text id="anderson_numbers" transform="matrix(1 2.629991e-03 -2.629991e-03 1 552.9373 206.9226)" class="st11 st7 st12">10</text>
	<text id="pickens_numbers_1_" transform="matrix(1 2.629991e-03 -2.629991e-03 1 539.3372 174.5019)" class="st11 st7 st12">10</text>
	<text id="oconee_numbers" transform="matrix(1 2.629991e-03 -2.629991e-03 1 516.5871 190.1518)" class="st11 st7 st12">10</text>
</g>
<g id="table_data">
	<text transform="matrix(1 0 0 1 26.1771 548.3888)" class="st2 st7 st8">Confirmed Cases</text>
	<text transform="matrix(1 0 0 1 26.1771 592.3203)" class="st2 st7 st8">Deaths</text>
	<text id="current_date" transform="matrix(1 0 0 1 209.7067 504.1066)" class="st2 st7 st8">6 Apr. 2020</text>
	<text id="previous_date" transform="matrix(1 0 0 1 344.4849 504.1066)" class="st2 st7 st8">5 Apr. 2020</text>
	<text id="growth_rate__x25_" transform="matrix(1 0 0 1 463.5532 504.1066)" class="st2 st7 st8">Growth Rate %</text>
	<text transform="matrix(1 0 0 1 678.8282 504.1066)" class="st2 st7 st8">Total Confirmed Cases</text>
	<text id="current_сases" transform="matrix(1 0 0 1 232.5623 552.1406)" class="st13 st7 st5">783</text>
	<text id="previous_deaths" transform="matrix(1 0 0 1 375.2753 596.6201)" class="st13 st7 st5">14</text>
	<text id="current_deaths" transform="matrix(1 0 0 1 236.0826 595.6405)" class="st13 st7 st5">15</text>
	<text id="total_cases" transform="matrix(1 0 0 1 719.45 581.2839)" class="st14 st7 st15">783</text>
	<text id="previous_сases" transform="matrix(1 0 0 1 367.3626 552.1406)" class="st13 st7 st5">673</text>
	<text id="cases_growth_rate" transform="matrix(1 0 0 1 497.2759 553.677)" class="st13 st7 st5">16 %</text>
	<text id="death_growth_rate" transform="matrix(1 0 0 1 501.6752 598.1562)" class="st13 st7 st5">7 %</text>
</g>
<g id="TYPES">
	<g>
		<circle id="_x34__1_" class="st10" cx="881.7" cy="-38" r="16.3"/>
		
			<text id="_x34__numbers_1_" transform="matrix(1 2.630000e-03 -2.630000e-03 1 865.8519 -34.2515)" class="st11 st7" style="font-size:10px;">10,000</text>
	</g>
	<g>
		<circle id="_x33_" class="st10" cx="837.1" cy="-36.7" r="14.3"/>
		
			<text id="_x33__numbers" transform="matrix(1 2.630000e-03 -2.630000e-03 1 824.7448 -32.8546)" class="st11 st7" style="font-size:10px;">1,000</text>
	</g>
	<g>
		<circle id="_x32__1_" class="st10" cx="796.5" cy="-37.2" r="10.4"/>
		
			<text id="_x32__numbers_1_" transform="matrix(1 2.630000e-03 -2.630000e-03 1 788.7572 -34.2693)" class="st11 st7" style="font-size:9px;">100</text>
	</g>
	<g>
		<circle id="_x31__1_" class="st10" cx="762.1" cy="-37.2" r="8"/>
		
			<rect x="758.1" y="-40.6" transform="matrix(2.629910e-03 -1 1 2.629910e-03 796.935 725.2906)" class="st16" width="8" height="7.5"/>
		
			<text id="_x31__numbers_1_" transform="matrix(1 2.630000e-03 -2.630000e-03 1 757.3263 -34.0106)" class="st11 st7" style="font-size:8px;">10</text>
	</g>
	<g>
		<circle id="_x31__2_" class="st10" cx="734.6" cy="-36.9" r="5.8"/>
		
			<rect x="730.5" y="-40.3" transform="matrix(2.629910e-03 -1 1 2.629910e-03 769.1787 698.0552)" class="st16" width="8" height="7.5"/>
		
			<text id="_x31__numbers_2_" transform="matrix(1 2.630000e-03 -2.630000e-03 1 732.0636 -34.0108)" class="st11 st7" style="font-size:8px;">1</text>
	</g>
</g>
</svg>
