<?xml version="1.0" encoding="utf-8"?>
<!-- Generator: Adobe Illustrator 24.1.2, SVG Export Plug-In . SVG Version: 6.00 Build 0)  -->
<svg version="1.1" id="Layer_1" xmlns="http://www.w3.org/2000/svg" xmlns:xlink="http://www.w3.org/1999/xlink" x="0px" y="0px"
	 viewBox="0 0 916.5 609.2" style="enable-background:new 0 0 916.5 609.2;" xml:space="preserve">
<style type="text/css">
	.st0{fill:#AEDBF5;}
	.st1{fill:#CD483B;}
	.st2{fill:#FFFFFF;}
	.st3{font-family:'ArialMT';}
	.st4{font-size:24.8867px;}
	.st5{font-size:12.8549px;}
	.st6{font-size:10.0901px;}
	.st7{font-size:6.3779px;}
	.st8{font-size:14px;}
	.st9{fill:#F5FBFE;}
	.st10{fill:#DDEEFA;}
	.st11{fill:#255078;}
	.st12{font-family:'Georgia';}
	.st13{font-size:18px;}
	.st14{font-size:16px;}
	.st15{fill:#4C4B4D;}
	.st16{fill:#4C4B4C;}
	.st17{fill:#DB3029;}
	.st18{font-size:36px;}
</style>
<g id="Counties_1_">
	<path id="Mohave_1_" class="st0" d="M561.2,243.6l-6-3.3h-0.5v-0.2c0.3-2.1-0.3-4.1-1.7-5.7c-1.1-1.3-2.1-1.8-2.8-2.2h-0.1v-0.1
		c0-0.1-0.1-0.3-0.1-0.4c-0.2-0.7-0.3-1.8-0.3-2.8c-0.1-1.3-0.1-2.6-0.4-3.9c-0.2-0.8-0.3-1.7-0.5-2.7c-0.3-1.5-0.5-3-1-4.5
		c-0.6-1.7-1.3-3.1-2.2-4.5c-0.6-1.1-1.2-2.1-1.6-3.1c-0.4-1.1-0.9-2.2-1.4-3.1c-0.8-1.6-1.5-3.1-1.9-4.8c-0.7-2.6-0.5-6.2,0.3-7.6
		c0.5-0.8,1-1.5,1.5-2.2c1.4-2,2.8-3.9,3.1-7.6l0.3-30.3l1-3l0.3-20.3l0.1-0.1c1.8-1.4,3.8-2.8,5.1-3c0.2,0,0.3,0,0.5,0
		c0.4,0,0.6,0.2,1.1,0.7c0.5,0.4,1.1,0.9,1.9,1.5c1.6,1,3.3,1.1,4.6,1.1c0.8,0,1.4,0.1,1.8,0.3c0.9,0.3,1.7,1.6,2.3,2.6
		c0.2,0.3,0.3,0.6,0.4,0.8v0.1c0.7,1.4,1.7,3.8,4.6,4.4c0.3,0.1,0.6,0.1,1,0.1c2.1,0,5.2-0.8,6.4-1.3c4.1-2.1,6.8-8.9,7.1-12.1
		c0.6-6.1,2.1-12.1,3.8-18.5c1.9-7.5,3.9-15.2,4.1-23.2v-0.3l0.3,0.1c8.1,1.8,30.7,6.4,65.1,12.7l0.3,0.1l-5.3,11.8l-3.6,9.2v12.3
		l-5.7,4.3l-5.9,1.4l-11.3,1.1l-8.1,3.6l-3.8,3.5l-1,3.5l-1.8,4.8l-5,20.5l-6.5,39.2L594,247l-21,2L561.2,243.6z"/>
	<polygon id="Graham_1_" class="st0" points="778.6,383.6 778.6,373 768.5,354.6 773.2,319.2 770.2,320.5 764,325.2 760.6,324.9 
		754.1,321.5 749.8,319.6 748.5,327.2 743.5,326.7 742.3,325.4 733.1,325.4 727.6,326.8 725.7,330.2 724.8,340.6 722.6,348.7 
		718.7,377.5 719,377.6 717.3,382.1 728.1,385.6 779.6,391.6 776.6,386.7 776.6,383.6 	"/>
	<path id="Navajo_1_" class="st0" d="M754.4,293.4l-4.1,24l3.3,1.4l2.5-9.9l2.9-17.5l12.2-76.8l3.8-17.3l-7.9-2l11.8-77.9
		c-11.5-1.8-22.6-3.4-33.3-5.1l-18.5,121.5l-6.9,39.4l-3.4,12.9L754.4,293.4z"/>
	<path id="Yuma_1_" class="st0" d="M500.6,340l2.7-6.5l4.5-6.5v3.4h9.2l7.6-5.7l0.5-7.5c0.3-0.8,0.6-1.5,0.8-2.3v-0.2l3.8,0.3l5,3
		l4.9-28.4l13.9,3.1l-0.1,0.4l-2.2,1.2v3l5.9,2.3c7.9,2,9.2,2.3,9.4,2.3c0.8,0.1,10.9,1.9,16.7,3h0.2l-9.6,49.3l-5.6,25.8L500.6,340
		z"/>
	<polygon id="Santa_Cruz_1_" class="st0" points="673.1,442.8 669.1,439.9 660.3,434.7 662.5,434.7 662.5,431.5 666.1,431.5 
		666.1,433.1 673.1,433.1 674.9,420.9 695,423.7 709.3,426.5 704.7,446.8 705.6,447.1 705.5,447.4 	"/>
	<path id="Apache_1_" class="st0" d="M761.2,323l-6-3.1l2.7-10.4l3-17.6l12.2-76.7l4.3-19.2l-8.1-2.1l11.5-76.4h0.2
		c13,1.9,26.3,3.8,39.4,5.7h0.2l-25.7,189l-8.1-2.6h-3.9l-5.6,3.6l-3.3,3.3l-4.9,2.2l-5.8,4.3L761.2,323L761.2,323z"/>
	<polygon id="Pinal_1_" class="st0" points="670.9,313.6 669.9,315.8 669.9,330.9 658.2,328.8 646.3,327 642.6,325 639,321.3 
		630.1,363.9 716.6,377.2 720.4,348.3 722.7,340.1 722.8,338.7 718.4,338.7 713.8,340.5 710.3,343.5 705.9,350.2 701.1,341.4 
		698.2,332.9 695.8,318.3 691.7,317.6 	"/>
	<polygon id="Yavapai_1_" class="st0" points="639,281.2 622.6,271.6 615.7,270.3 592.3,265.9 595.5,248.9 601.6,212.8 607.4,176.8 
		612.9,178.3 621.4,187.1 624.7,189.9 633.6,194.5 643,199.9 645.2,202.4 649.1,205.7 649.4,210.5 647.3,218.3 674.7,222.3 
		674.7,224.3 673.1,225.8 673.1,231.4 684.7,233.7 681.2,253 679.7,256 675.9,256 671.3,264.6 669,272.9 681.4,276.1 681.4,281.1 
		666.8,279.2 650.9,273.5 647.7,273.4 644.8,276.2 642.5,281.2 	"/>
	<polygon id="Cochise_1_" class="st0" points="706.4,447.6 711.3,425.9 716.6,383.9 727.6,387.4 783.9,394.2 775.3,457.4 	"/>
	<polygon id="Greenlee_1_" class="st0" points="782.2,392.2 778.6,386.1 778.6,385.6 780.6,385.6 780.6,372.5 770.5,354.2 
		775.5,317.8 778.5,314.7 783.6,311.4 786.5,311.4 794.8,314.1 784.1,392.4 	"/>
	<path id="Coconino_1_" class="st0" d="M675,226.6v3.1l12,2.4l-3.8,20.4l11.4,3l6.6,5l7.2,5.1l4.6,2.8l5.2,2.4l6.5-37.3l18.6-121.4
		c-32.6-5.1-60.8-10.1-83.7-14.2l-5.4,11.9l-3.4,8.8v12.9l-6.9,5.1l-6.5,1.6l-11.1,1.1l-7.5,3.4l-3,2.8l-1,3.1l-1.7,4.6l-5,20.4
		l-0.3,1.3l5.8,1.8l8.9,9.1l3.1,2.7l8.6,4.6l9.9,5.6l2.2,2.5l4.3,3.8l0.4,6l-1.6,5.9l27,4v4.5L675,226.6z"/>
	<path id="La_Paz_1_" class="st0" d="M530.1,313.4l-4.1-0.3v-0.2c0-0.5,0-0.9,0-1.3c0-1.5-0.6-2.8-1.7-3.5c-0.8-0.7-1.9-1-3.3-1
		c-1.3,0-2.7,0.3-3.8,0.6l-0.5,0.2l0.4-0.7c1.5-2.3,1.5-3.5,0.9-5.7v-12.4l0.1-0.1c0.7-0.6,2.3-1.5,3.3-2.1c2-1.1,3.9-2.2,4.9-3.4
		c3.6-4.3,5.1-9.9,6.6-14.9l0.3-1.3c0.4-1.3,0.6-2.7,0.8-4c0.3-1.9,0.7-3.8,1.3-5.1c0.3-0.7,0.9-1.3,1.6-2c1-1,2.1-2.2,2.8-3.8v-0.1
		h0.1c5.4-1.4,11.9-5.3,14-9.9l0.1-0.1h0.6l5.6,3.1l12.2,5.6l21-2l-10.1,54.4H583c-14.2-2.7-16.7-3.1-16.9-3.1
		c-0.6-0.1-5.2-1.2-8.9-2.2l-4.6-1.8v-0.9l1.9-1.1l0.7-2.9l-17.2-3.9l-4.8,27.8L530.1,313.4z"/>
	<polygon id="Pima_1_" class="st0" points="671.4,431.1 673.2,418.6 695.4,421.8 709.5,424.5 714.7,383.6 714.5,383.5 716,379.3 
		626.4,365.5 575.3,355.7 570,380.5 568.9,380.3 659.1,433.7 659.1,432.7 660.5,432.7 660.5,429.5 668,429.5 668,431.1 	"/>
	<path id="Gila_1_" class="st0" d="M702.9,340.8l-2.8-8.2l-2.4-14l0,0l-2.1-11.6l-1.7-3.1h-3.8l-4.3-8.6l-0.1-0.2
		c-0.3-0.3-0.9-1.3-1.4-2.3c-0.3-0.8-1-6.1-1.4-10.8v-7.3l-12-3.1l1.8-6.3l4-7.6h3.9l1.8-3.4l11.4,2.9l6.4,4.8l7.3,5.2l4.8,2.8
		l6,2.8l-3.9,14.7l37.8,7.4l-5.2,30.2l-2.3-0.3l-1.3-1.5h-10.2l-6.7,1.8l-2.5,4.4l-0.7,7.1h-5.2l-5.1,2.1l-4,3.3l-2.9,4.3
		L702.9,340.8z"/>
	<path id="Maricopa_1_" class="st0" d="M626.8,363.4l1.1,0.2l9.9-46.7l6.3,6.6l3,1.7l11.4,1.7l9.1,1.7v-13l1.9-4.1l25.7,4.9
		l-1.6-8.6l-0.9-1.7h-1.2l-0.9,3.6l-6.5-13.2c-0.3-0.3-1-1.4-1.5-2.5c-0.5-1-1.2-7.2-1.5-10.6l-15.1-2l-15.7-5.6h-2l-2.2,2.1
		l-2.7,5.6h-5.2l-16.7-9.8l-6.5-1.2l-23.1-4.3l-6.9,37.1l-9.6,48.5L626.8,363.4z"/>
</g>
<g id="Balls">
	<circle id="Maricopa_circle_2_" class="st1" cx="621.3" cy="305.1" r="35.2"/>
	<text id="Maricopa_numbers_2_" transform="matrix(1 0 0 1 589.6279 313.0806)" class="st2 st3 st4">3,457</text>
	<circle id="Pima_circle_2_" class="st1" cx="637.2" cy="390.6" r="35.2"/>
	<text id="Pima_numbers_2_" transform="matrix(1 0 0 1 605.5786 398.5311)" class="st2 st3 st4">1,164</text>
	<circle id="Yuma_circle_2_" class="st1" cx="553.3" cy="332.6" r="14.7"/>
	<text id="Yuma_numbers_2_" transform="matrix(1 2.630000e-03 -2.630000e-03 1 546.2226 336.1661)" class="st2 st3 st5">53</text>
	<circle id="Mohave_circle_2_" class="st1" cx="581.6" cy="181.3" r="14.7"/>
	<text id="Mohave_numbers_2_" transform="matrix(1 2.630000e-03 -2.630000e-03 1 574.4918 184.7816)" class="st2 st3 st5">96</text>
	<circle id="Yavapai_circle_2_" class="st1" cx="632.9" cy="239.3" r="14.7"/>
	<text id="Yavapai_numbers_2_" transform="matrix(1 2.630000e-03 -2.630000e-03 1 625.8657 242.8035)" class="st2 st3 st5">77</text>
	<circle id="Cochise_circle_2_" class="st1" cx="748" cy="421.3" r="14.7"/>
	<text id="Cochise_numbers_2_" transform="matrix(1 2.630000e-03 -2.630000e-03 1 740.8836 424.7814)" class="st2 st3 st5">36</text>
	<circle id="Santa_Cruz_circle_2_" class="st1" cx="687.7" cy="433.9" r="14.7"/>
	<text id="Santa_Cruz_numbers_2_" transform="matrix(1 2.630000e-03 -2.630000e-03 1 680.5797 437.4409)" class="st2 st3 st5">30</text>
	<circle id="Gila_circle_2_" class="st1" cx="713.9" cy="306.7" r="11.6"/>
	<text id="Gila_numbers_2_" transform="matrix(1 2.630000e-03 -2.630000e-03 1 708.3515 309.4708)" class="st2 st3 st6">11</text>
	<circle id="La_Paz_circle_2_" class="st1" cx="563.7" cy="274.3" r="7.3"/>
	<text id="La_Paz_numbers_2_" transform="matrix(1 2.630000e-03 -2.630000e-03 1 562.1439 276.1192)" class="st2 st3 st7">7</text>
	<circle id="Greenlee_circle_2_" class="st1" cx="780.5" cy="337.1" r="7.3"/>
	<text id="Greenlee_numbers_2_" transform="matrix(1 2.630000e-03 -2.630000e-03 1 778.9572 338.9141)" class="st2 st3 st7">2</text>
	<circle id="Graham_circle_2_" class="st1" cx="750.7" cy="356.1" r="7.3"/>
	<text id="Graham_numbers_2_" transform="matrix(1 2.630000e-03 -2.630000e-03 1 749.1621 357.9031)" class="st2 st3 st7">9</text>
	<circle id="Navajo_circle_2_" class="st1" cx="748.5" cy="225" r="14.7"/>
	<text id="Navajo_numbers_2_" transform="matrix(1 2.630000e-03 -2.630000e-03 1 737.4183 228.4852)" class="st2 st3 st5">628</text>
	<circle id="Apache_circle_2_" class="st1" cx="789.7" cy="225" r="14.7"/>
	<text id="Apache_numbers_2_" transform="matrix(1 2.630000e-03 -2.630000e-03 1 778.6041 228.4852)" class="st2 st3 st5">362</text>
	<circle id="Coconino_circle_2_" class="st1" cx="680.7" cy="170.3" r="14.7"/>
	<text id="Coconino_numbers_2_" transform="matrix(1 2.630000e-03 -2.630000e-03 1 669.5802 173.8082)" class="st2 st3 st5">425</text>
	<circle id="Pinal_circle" class="st1" cx="680.7" cy="347.4" r="18.4"/>
	<text id="Pinal_numbers" transform="matrix(1 2.630000e-03 -2.630000e-03 1 668.9684 350.9942)" class="st2 st3 st8">500</text>
</g>
<g id="Types">
	<g>
		<circle id="_x31_" class="st1" cx="312.8" cy="-63.1" r="8.4"/>
		<text id="_x31__numbers" transform="matrix(1 2.630000e-03 -2.630000e-03 1 308.8965 -61.2905)" class="st2 st3" style="font-size:7.0557px;">10</text>
	</g>
	<g>
		<circle id="_x32_" class="st1" cx="389.1" cy="-61.4" r="10.1"/>
		<text id="_x32__numbers" transform="matrix(1 2.630000e-03 -2.630000e-03 1 383.5325 -58.8373)" class="st2 st3" style="font-size:10px;">60</text>
	</g>
	<g>
		<circle id="_x33_" class="st1" cx="468.6" cy="-64.1" r="13.9"/>
		<text id="_x33__numbers" transform="matrix(1 2.630000e-03 -2.630000e-03 1 458.5894 -61.0322)" class="st2 st3" style="font-size:12px;">100</text>
	</g>
	<g>
		<circle id="_x34_" class="st1" cx="562.3" cy="-64.1" r="18.4"/>
		<text id="_x34__numbers" transform="matrix(1 2.630000e-03 -2.630000e-03 1 550.587 -60.5082)" class="st2 st3 st8">500</text>
	</g>
	<g>
		<circle id="_x35_" class="st1" cx="669.6" cy="-63.1" r="25"/>
		<text id="_x35__numbers" transform="matrix(1 2.630000e-03 -2.630000e-03 1 651.8395 -58.9777)" class="st2 st3 st14">1500</text>
	</g>
</g>
<g id="Texts_1_">
	<polygon id="blue_bg" class="st9" points="0,473.8 0,510.8 0,520.4 0,609.2 173.5,609.2 173.5,520.4 915,520.4 915,473.8 	"/>
	<path id="line_bg" class="st10" d="M916.5,0H0l0,0v474.4v2v42.9v2v42.9v2v42.9l0,0h579.8l0,0H913l0,0h3.5V0z M913,56.8v417.6H578.4
		l-0.6-0.3v0.3H443.6l-0.6-0.3v0.3H3V56.8H913z M913,476.4v42.9H579.8v-42.9H913z M445.1,519.4v-42.9h132.8v42.9H445.1z
		 M577.8,521.4v42.9H445.1v-42.9H577.8z M310.3,519.4v-42.9h132.8v42.9H310.3z M443.1,521.4v42.9H310.3v-42.9H443.1z M175.5,519.4
		v-42.9h132.8v42.9H175.5z M308.3,521.4v42.9H175.5v-42.9H308.3z M173.5,476.4v42.9H3v-42.9H173.5z M173.5,521.4v42.9H3v-42.9H173.5
		z M3,566.3h170.5v39.9H3V566.3z M175.5,566.3h132.8v39.9H175.5V566.3z M310.3,566.3h132.8v39.9H310.3V566.3z M445.1,566.3h132.8
		v39.9H445.1V566.3z M579.8,521.4H913v84.8H579.8V521.4z"/>
	<text id="title" transform="matrix(1 0 0 1 32.8483 35.8372)" class="st11 st12 st13">COVID-19 in Arizona on</text>
	<text id="date" transform="matrix(1 0 0 1 232.4693 35.8372)" class="st11 st12 st13">April 27th, 2020</text>
	<text id="confirmed" transform="matrix(1 0 0 1 113.89 155.2932)" class="st11 st12 st14">State Confirmed Cases By County</text>
	<text transform="matrix(1 0 0 1 113.559 191.6626)" class="st15 st3 st8">Maricopa 3,457</text>
	<text transform="matrix(1 0 0 1 113.559 220.8308)" class="st15 st3 st8">Pima 1,164</text>
	<text transform="matrix(1 0 0 1 113.559 250.0005)" class="st15 st3 st8">Navajo 628</text>
	<text transform="matrix(1 0 0 1 113.559 276.4829)" class="st15 st3 st8">Coconino 425</text>
	<text transform="matrix(1 0 0 1 113.5805 304.1802)" class="st15 st3 st8">Apache 362</text>
	<text transform="matrix(1 0 0 1 113.559 331.5203)" class="st15 st3 st8">Pinal 359</text>
	<text transform="matrix(1 0 0 1 113.559 359.688)" class="st15 st3 st8">Mohave 96</text>
	<text transform="matrix(1 0 0 1 113.559 388.8561)" class="st15 st3 st8">Yavapai 77</text>
	<text transform="matrix(1 0 0 1 269.6705 191.6626)" class="st15 st3 st8">Yuma 3</text>
	<text transform="matrix(1 0 0 1 269.6705 220.8308)" class="st15 st3 st8">Cochise 36</text>
	<text transform="matrix(1 0 0 1 269.6705 250.0005)" class="st15 st3 st8">Santa Cruz 30</text>
	<text transform="matrix(1 0 0 1 269.6705 276.4829)" class="st15 st3 st8">Gila 11</text>
	<text transform="matrix(1 0 0 1 269.692 304.1802)" class="st15 st3 st8">Graham 9</text>
	<text transform="matrix(1 0 0 1 269.6705 331.5203)" class="st15 st3 st8">La Paz 7</text>
	<text transform="matrix(1 0 0 1 269.6705 359.688)" class="st15 st3 st8">Greenlee 2</text>
</g>
<g id="table_data">
	<text transform="matrix(1 0 0 1 25.8574 547.7572)" class="st11 st3 st8">Confirmed Cases</text>
	<text transform="matrix(1 0 0 1 25.8574 591.6887)" class="st11 st3 st8">Deaths</text>
	<text id="current_date" transform="matrix(1 0 0 1 209.387 503.475)" class="st11 st3 st8">6 Apr. 2020</text>
	<text id="previous_date" transform="matrix(1 0 0 1 344.1652 503.475)" class="st11 st3 st8">5 Apr. 2020</text>
	<text id="growth_rate__x25_" transform="matrix(1 0 0 1 463.2333 503.475)" class="st11 st3 st8">Growth Rate %</text>
	<text transform="matrix(1 0 0 1 678.5084 503.475)" class="st11 st3 st8">Total Confirmed Cases</text>
	<text id="current_сases" transform="matrix(1 0 0 1 232.2426 551.5093)" class="st16 st3 st14">783</text>
	<text id="previous_deaths" transform="matrix(1 0 0 1 374.9557 595.9885)" class="st16 st3 st14">14</text>
	<text id="current_deaths" transform="matrix(1 0 0 1 235.7629 595.0089)" class="st16 st3 st14">15</text>
	<text id="total_cases" transform="matrix(1 0 0 1 719.1301 580.6523)" class="st17 st3 st18">783</text>
	<text id="previous_сases" transform="matrix(1 0 0 1 367.0429 551.5093)" class="st16 st3 st14">673</text>
	<text id="cases_growth_rate" transform="matrix(1 0 0 1 496.956 553.0454)" class="st16 st3 st14">16 %</text>
	<text id="death_growth_rate" transform="matrix(1 0 0 1 501.3553 597.5247)" class="st16 st3 st14">7 %</text>
</g>
</svg>
