<?xml version="1.0" encoding="utf-8"?>
<!-- Generator: Adobe Illustrator 24.1.2, SVG Export Plug-In . SVG Version: 6.00 Build 0)  -->
<svg version="1.1" id="Layer_1" xmlns="http://www.w3.org/2000/svg" xmlns:xlink="http://www.w3.org/1999/xlink" x="0px" y="0px"
	 viewBox="0 0 916.5 781.8" style="enable-background:new 0 0 916.5 781.8;" xml:space="preserve">
<style type="text/css">
	.st0{fill:#AEDBF5;}
	.st1{fill:#F5FBFE;}
	.st2{fill:#DDEEFA;}
	.st3{fill:#4C4B4D;}
	.st4{font-family:'ArialMT';}
	.st5{font-size:13px;}
	.st6{font-size:14px;}
	.st7{letter-spacing:1;}
	.st8{fill:#255078;}
	.st9{font-family:'Georgia';}
	.st10{font-size:16px;}
	.st11{font-size:18px;}
	.st12{fill:#CD483B;}
	.st13{fill:none;}
	.st14{fill:#4C4B4C;}
	.st15{fill:#DB3029;}
	.st16{font-size:36px;}
	.st17{fill:#FFFFFF;}
	.st18{font-size:10.3181px;}
</style>
<g id="Counties">
	<polygon id="kit_carson_1_" class="st0" points="847.1,366.1 799.3,363 803.3,328.1 856.1,331.8 854,367.9 	"/>
	<polygon id="cheyenne_1_" class="st0" points="795.8,392.1 799,365 846.7,368.2 853.9,370 852.3,397.4 	"/>
	<polygon id="washington_1_" class="st0" points="773.8,323.8 776.5,297 787.9,298.2 791.1,267.7 823.7,270.3 822.1,273.2 
		820.8,287.1 817.5,326.9 	"/>
	<path id="weld_1_" class="st0" d="M764,228.7l-3.4-0.4c-0.5-0.1-16.9-1.6-42.2-4.1l-4.5,43.3h-5.4l-2.1,5.1v7.3l-1.5,1.5v6.6
		l45.2,4.2l2.5-35.7l30.3,2.5l2-29.1L764,228.7L764,228.7z"/>
	<polygon id="morgan_1_" class="st0" points="755.2,259.1 752.8,292.4 785.8,295.6 788.8,267 783.6,261.6 	"/>
	<polygon id="phillips_1_" class="st0" points="831.5,268.9 833.4,249.6 860.8,251.9 859.6,271.2 	"/>
	<polygon id="logan_1_" class="st0" points="790.7,265.5 785.2,260 787.3,229.9 833.6,233 832.2,240.9 829.3,268.7 	"/>
	<polygon id="yuma_1_" class="st0" points="826.2,270.7 824.4,273.9 823.1,287.4 819.8,326.9 856,329.5 859.3,273.4 	"/>
	<polygon id="sedguick" class="st0" points="833.6,247.6 834.3,241.1 835.7,233.1 861.8,234.7 860.8,249.8 	"/>
	<polygon id="prowers_1_" class="st0" points="814.8,461.3 816.7,420.2 850.7,422.8 848.4,463.5 	"/>
	<path id="larimer_1_" class="st0" d="M669.5,254.2l6.3,12.8l19.8,2.3l9,1.7l2.5-6h4.8l4.2-41c-17.3-1.8-38.4-3.9-61.4-6.4
		L669.5,254.2z"/>
	<path id="jackson_1_" class="st0" d="M641.2,259.3l-16.3-6.7l0.4-7.4l-1.9-1.4l1.8-11.1l4.1-4.3v-3.5l-4.9-7.8l-3.5,1.4l-0.8-0.6
		v-4.1h0.2c10.1,1.2,20.8,2.3,31.5,3.5h0.1l14.7,36.5h-0.3l-5.6,5.6l-16.1,1.6L641.2,259.3z"/>
	<polygon id="crowley_1_" class="st0" points="755.7,424.3 747.5,421.1 749.3,397.7 776.1,399.9 774.4,415 774.3,415 774.3,421.2 
		768.7,424.3 	"/>
	<polygon id="lincoln_1_" class="st0" points="777.3,397.9 749.3,395.7 751.1,373.2 768.7,375.1 773.6,325.8 801.3,327.9 793,397.9 
			"/>
	<polygon id="kiowa_1_" class="st0" points="776.5,415.1 778.2,400 794.9,400 795.5,394.2 852.1,399.5 850.9,420.7 	"/>
	<polygon id="teller_1_" class="st0" points="687.4,380.7 685.3,376.8 681.6,376.5 685.7,350.5 698.8,350.5 697.3,362.1 
		697.3,367.4 701.1,374.4 701.1,383 	"/>
	<polygon id="eagle_1_" class="st0" points="593.5,320.5 638.4,324.5 631.6,289.2 601.9,286.7 601.8,287.3 599,285.9 	"/>
	<path id="baca_1_" class="st0" d="M845.8,505.7c-17.5-1.1-35.1-2.3-52.4-3.5h-0.2l4.1-40l51.1,3.4l-2.4,40.2h-0.2L845.8,505.7
		L845.8,505.7z"/>
	<polygon id="otero_1_" class="st0" points="743.2,456.5 747.3,423.2 755.3,426.4 769.2,426.4 776.4,422.4 776.4,417.2 779.6,417.4 
		775.5,458.6 	"/>
	<polygon id="pueblo_1_" class="st0" points="745.1,421.6 746.9,397.7 739.1,397.1 700.8,392.3 700.8,411.4 695.6,410.7 
		692.7,428.8 690.9,431.6 694.4,434.7 715.6,434.7 741.7,449.8 	"/>
	<polygon id="garfield_1_" class="st0" points="494.6,306.8 576.5,318.5 576.5,318.4 590.9,320.9 597.1,282.2 599.7,283.4 
		600.8,272.7 589.1,273.7 587,275.5 587,284.3 581,291.4 555.1,286.4 551.8,296.7 525.2,292 522.6,294.3 511.3,294.2 496.8,290.5 	
		"/>
	<polygon id="bent_1_" class="st0" points="777.5,458.8 781.6,417.6 814.6,420.1 812.8,461.2 	"/>
	<polygon id="alamosa_1_" class="st0" points="635.6,462 637.3,440 667.7,444.2 665.9,452.4 649.5,467.3 	"/>
	<path id="costila" class="st0" d="M677.3,492.2c-9.8-0.9-19.8-1.9-29.8-2.9h-0.4l3.5-5.8v-14.4l16.7-15.3l4.3-2.2l3.1-2.1h1.2
		l2.1,3.7l3.1,15.3L677.3,492.2L677.3,492.2z"/>
	<polygon id="rio_blanco_1_" class="st0" points="524.6,289.6 521.8,292 511.7,292 496.9,288.3 501.8,251.8 583.4,263.4 
		583.4,261.4 601.7,265.2 601.2,270.3 588.1,271.5 584.7,274.5 584.7,283.4 580.1,289 553.5,283.7 550.2,294.1 	"/>
	<polygon id="gilpin_1_" class="st0" points="677.7,301.8 675.2,298.9 672.2,296.5 672.2,292.6 685.2,294.1 684.2,303.5 	"/>
	<polygon id="custer_1_" class="st0" points="664.9,424.7 662.5,421.3 661.3,417.3 660.1,412 656.7,408.1 656.7,406 693.3,410.3 
		690.5,428 689.1,430.2 685.9,427.1 680.1,429.4 669.4,432.2 	"/>
	<polygon id="chaffee_1_" class="st0" points="627.6,388.7 624.2,377.4 624.2,368.8 626.1,355.9 618.5,351 617.1,349.5 619.8,347.6 
		636.9,350.2 636.7,350.5 641.1,357.1 644.5,359.4 645.9,358 648,360.7 648.9,364.3 650.7,366.4 650.7,369.8 649.2,371.7 
		646.2,373.8 648.8,377.4 649.9,378.3 649.9,385.1 644.1,389.9 	"/>
	<path id="fremont_1_" class="st0" d="M654.8,403.7l-3.8-3.2l-0.9-2c-0.6-1.7-1.3-2.9-1.8-3.3c-0.4-0.4-1.5-2.3-2.5-3.8l-0.1-0.2
		l6.3-5.1v-8.8l-1.5-1.3l-1.4-1.9l3.7,0.8v1.8l31.3,2.1l2.1,3.8l15.1,2.5v1.2l-1.8,0.8l-0.6,2.8h-0.2v19L654.8,403.7z"/>
	<polygon id="el_pasco" class="st0" points="701.4,388.6 701.1,389.9 739.3,394.6 747.1,395.2 750.1,355.8 708.4,350.7 701.1,350.7 
		699.6,362.3 699.6,366.8 703.4,373.8 703.4,387.7 	"/>
	<polygon id="pitkin_1_" class="st0" points="583,336.1 588.3,337.9 594.9,337.9 597.7,344.3 600.1,348.4 603.3,349.3 606.4,349.8 
		611.3,342.8 615.8,347.8 618.4,345.7 627.2,325.9 593.1,323.1 593,323.9 578.4,321.3 577.2,326.8 579.4,329.1 579.4,333 	"/>
	<path id="routt_1_" class="st0" d="M602.1,284.2l18.8,1.6l1.8-39.6l-1.9-1.5l2.1-13.1l4-4.1v-1.9l-3.5-5.6l-2.9,1.2l-2.8-2v-5.3
		c-6.8-0.8-13.6-1.5-20.5-2.4l-2.6,20.8l-7,7.7l-3.9,17.5v2l20.6,4.2L602.1,284.2z"/>
	<path id="moffat_1_" class="st0" d="M502.2,249.6l6.8-49.8h0.2c23.9,3.4,52.7,7,85.7,10.9h0.2l-2.5,20.2l-7,7.6l-4.1,18.2v2.1l0,0
		v2.2L502.2,249.6z"/>
	<polygon id="delta_1_" class="st0" points="522.1,361 523.9,351.1 544.2,338.2 561.2,338 567.1,332.8 569.9,333 568.3,339.9 
		564.9,367 	"/>
	<polygon id="douglas_1_" class="st0" points="717,349.2 722.2,322.3 703.2,321 687,348.2 708.5,348.2 	"/>
	<polygon id="jefferson_1_" class="st0" points="700.8,319.9 700.8,308.9 702.6,304.6 702.6,296.3 687.2,296.3 682,346.2 
		683.2,348.2 684.1,348.2 	"/>
	<path id="summit_1_" class="st0" d="M642.9,324.8l0.6,2h5.6l6.2-5.8l3.7-1.6v-1.8l1.9-2.3h1.4l0.2-2.1l0.6-1.1l-6.2-3.5
		c-1.7-0.2-3.4-0.4-4-0.2c-0.4,0.2-0.8,0.4-1.2,0.2c-0.4-0.1-1.4-0.4-2.9-4.2l-0.1-0.4v-6.5l-13.1-8.2l-1.4-0.1l6.7,35.3
		L642.9,324.8z"/>
	<polygon id="arapahoe_1_" class="st0" points="772.4,315.7 712.6,309.3 712.6,317.9 707.1,317.9 704.7,315.5 703.4,315.3 
		703.4,318.5 771.6,323.5 	"/>
	<path id="grand_1_" class="st0" d="M667.3,256l-5.5,5.5l-17.5,1.8l-4.1-1.9L625,255l-1.4,31l12.8,1.1l14.8,9.2v7.7
		c0.4,0.8,0.6,1.7,1,2.2c0.6-0.2,1.8-0.2,3.7,0v-2l6.8-4.3l4.2-1.2l3.1-2.3v-3.7h-0.2l3.7-24.2l-6.1-12.4h-0.1V256z"/>
	<polygon id="adams_1_" class="st0" points="774.2,297 705.1,290.5 705.1,296.3 705.1,303.6 712.6,303.6 712.6,306.7 772.6,313.1 	
		"/>
	<polygon id="gunnison_1_" class="st0" points="559.1,392.9 560.6,401.6 587.2,404.4 591.2,386 625.1,388.4 621.9,377.5 
		621.9,368.6 623.7,357.1 616.8,352.6 611.6,346.8 607.5,352.5 602.7,351.7 598.4,350.5 595.5,345.5 593.2,340.4 587.7,340.3 
		581.7,338.3 576.8,334.1 576.8,330.1 575.8,329 573.7,331.3 572.4,332.7 570.5,340.2 563.8,394.8 	"/>
	<polygon id="clear_creek_1_" class="st0" points="664.6,315.4 671.2,315.4 682.6,316.9 683.7,305.7 676.5,303.8 673.5,300.4 
		671.1,298.6 667.8,300.9 663.5,302.2 658.3,305.4 658.3,306.9 666.2,311.3 664.7,314.1 	"/>
	<polygon id="lake_1_" class="st0" points="620.9,345.7 629.7,325.9 641.1,326.9 641.2,327.5 639.1,328.7 639.6,346.8 638.4,348.4 	
		"/>
	<polygon id="denver_1_" class="st0" points="703.4,312.8 705.9,313.1 708.1,315.4 710.2,315.4 710.2,306 704.7,306 703.4,309.3 	
		"/>
	<polygon id="elbert_1_" class="st0" points="751.2,371.2 752.6,353.8 719.3,349.7 724.6,322.3 771.5,325.6 766.9,372.8 	"/>
	<polygon id="park_1_" class="st0" points="654.7,374.7 654.7,373.2 651.3,372.4 652.8,370.6 652.8,365.6 650.8,363.3 650,359.8 
		646.2,354.9 644.2,356.8 642.6,355.7 639.3,350.5 641.6,347.5 641.2,330 642.8,329.1 649.9,329.1 656.1,323.1 661,321 661,318.6 
		661.8,317.7 671.1,317.7 682.6,319.2 679.7,346.7 681.9,350.5 683.6,350.5 679.4,376.4 	"/>
	<polygon id="huerfano_1_" class="st0" points="683.3,468.5 680.1,452.7 677.1,447.4 674.1,447.4 670.7,449.8 668.3,451 
		670.1,442.5 669.9,442.5 669.9,434.3 680.8,431.4 685.5,429.6 687.9,431.9 687.9,431.9 693.5,437 715,437 726.1,443.4 725.1,444.2 
		716.9,452.3 703.7,468.9 694,471 682.4,474.2 	"/>
	<path id="saguache_1_" class="st0" d="M608.7,433.9l2.2-6.5h-6.8l-5.8-6.3l-6.8-4.7H589v-10.6l3.8-17.5l50.8,3.5l0.1,0.1
		c1.5,2.6,2.6,4.3,3.1,4.7c0.4,0.4,0.8,1.5,1.2,2.5l1.2,2.5l4.7,4l0.6,0.1v3.1l3.7,4.1l1,4.9l1.3,4.3l2.6,3.7l4.7,7.8v8.4
		L608.7,433.9z"/>
	<path id="archuleta_1_" class="st0" d="M602.9,484.5c-16.2-1.8-32.7-3.7-49-5.8h-0.2l3.9-24.9l18.9,2.2l22.4,4.1v13.7l4.4,10.7
		L602.9,484.5L602.9,484.5z"/>
	<path id="ls_plata" class="st0" d="M551.5,478.6c-12-1.4-24.2-2.9-35.9-4.5c-2.7-0.4-8.4-1.1-8.4-1.1l5.3-9.3l3.8-5.7l6.2-8.1
		l8.8-13.2h2.4l24.4,1.5l-6.3,40.5L551.5,478.6z"/>
	<path id="montezuma_1_" class="st0" d="M504.7,472.6c-10.9-1.4-21.5-2.9-32.1-4.3h-0.2l4.7-34.4l2.2-1.4l3.5-4l28.2,7l17.8,0.8
		l-8,12.1l-6.2,8.1l-3.9,5.8l-5.7,10.1L504.7,472.6z"/>
	<polygon id="dolores_1_" class="st0" points="530.5,434.5 511.3,433.7 482,426.3 478.1,431 477.9,431.1 477.5,431.3 480.2,411.2 
		519.9,417 521.6,421.2 535.4,421.2 537.8,424.9 539.3,425.7 538.6,427.6 534.1,431.6 532.8,434.5 	"/>
	<polygon id="rio_grande_1_" class="st0" points="600.1,458.2 598.7,458 604.6,429.4 608,429.4 606.8,432.9 606.7,435.6 
		635.2,439.7 633.4,461.6 	"/>
	<polygon id="mineral_1_" class="st0" points="578.1,454.3 580.1,449.2 580.1,428.9 581.8,422.2 583.7,419.3 585.6,418.9 
		585.6,420.9 589.2,420.9 589.2,418.5 591,418.5 597,422.6 602.7,428.7 596.7,457.6 	"/>
	<polygon id="hinsdale_1_" class="st0" points="557.9,451.8 560,438.2 560.1,438.2 560.1,424.3 558.2,424.3 558.2,409.6 
		560.1,409.6 560.5,403.9 587.1,406.7 587.1,416.4 582.3,417.5 580,421.2 578,428.5 578,448.8 576,453.9 	"/>
	<path id="las_animas_1_" class="st0" d="M790.9,502c-36.7-2.7-74.1-5.9-111-9.5h-0.2l2.5-15.9l12.4-3.5l10.3-2.3l13.6-17.1l7.8-7.8
		l1.9-1.3l13.4,7.8l-0.6,6.1l54.2,3.7l-4.1,39.9L790.9,502z"/>
	<polygon id="ouray_1_" class="st0" points="548.3,418 548.3,413.3 541,409.7 539.1,399.7 540.9,399.9 541.2,393.8 535,392.1 
		531.1,389 531.1,386.7 536,386.7 556.3,390.2 558.5,402.8 558.1,407.4 556.2,407.4 556.2,413.2 553.1,413.2 549.3,418.5 	"/>
	<path id="conejos_1_" class="st0" d="M644.8,488.9c-13-1.4-26.1-2.7-39-4.2h-0.1l-4.7-11.4v-13l33.2,3.3l14.5,5.7v13.6l-3.7,6.2
		L644.8,488.9L644.8,488.9z"/>
	<polygon id="mesa_1_" class="st0" points="517.5,372.6 521.8,349.7 543.6,335.9 560.3,335.7 566.3,330.4 570.8,330.8 571.6,329.8 
		574.7,326.6 576,320.9 494.2,309.3 486.3,367.6 	"/>
	<polygon id="montrose_1_" class="st0" points="483.1,389.6 485.8,369.9 519.3,375.2 521.6,363.1 564.6,369.2 561.9,391.6 
		558.4,390.2 558.1,388.4 536.2,384.6 529.2,384.6 529.2,390 534.1,394.1 539,395.2 538.9,397.5 	"/>
	<polygon id="san_miguel_1_" class="st0" points="539.3,423.4 536.6,419.1 523,419.1 521.4,415.2 480.5,409.1 482.8,391.8 
		536.9,399.4 539.2,411 546.3,414.6 546.3,418.2 540.3,424 	"/>
	<polygon id="san_juan_1_" class="st0" points="535,434.6 535.9,432.8 540.3,428.8 541.4,425.9 547.5,419.9 549.9,421.2 
		554.2,415.3 556.2,415.3 556.2,426.4 558,426.4 558,435.9 	"/>
	<path id="broomfield" class="st0" d="M700.3,291.6c0,0.7,0.1,1.4,0.1,2.1h2.2v-2.9C701.8,291.1,701.1,291.4,700.3,291.6z"/>
	<path id="boulder" class="st0" d="M695.1,271.8l-19.2-2.3l-3.2,20.9l14.9,1.7l-0.2,1.7h11.5c-0.1-1.1-0.2-2.2-0.3-3.4
		c1.3-0.4,2.7-0.8,4-1.3v-1.4v-7.4l1.4-1.5v-5.4L695.1,271.8z"/>
</g>
<g id="TEXT">
	<polygon id="blue_bg_1_" class="st1" points="0,646.5 0,683.5 0,693.1 0,781.9 173.5,781.9 173.5,693.1 915,693.1 915,646.5 	"/>
	<path id="line_bg_1_" class="st2" d="M916.5,0H0l0,0v647.1v2V692v2v42.9v2v42.9l0,0h579.8l0,0H913l0,0h3.5V0z M913,56.8v590.3
		H578.4l-0.6-0.3v0.3H443.6l-0.6-0.3v0.3H3V56.8H913z M913,649.1V692H579.8v-42.9H913z M445.1,692.1v-42.9h132.8v42.9H445.1z
		 M577.8,694.1V737H445.1v-42.9H577.8z M310.3,692.1v-42.9h132.8v42.9H310.3z M443.1,694.1V737H310.3v-42.9H443.1z M175.5,692.1
		v-42.9h132.8v42.9H175.5z M308.3,694.1V737H175.5v-42.9H308.3z M173.5,649.1V692H3v-42.9H173.5z M173.5,694.1V737H3v-42.9H173.5z
		 M3,739h170.5v39.9H3V739z M175.5,739h132.8v39.9H175.5V739z M310.3,739h132.8v39.9H310.3V739z M445.1,739h132.8v39.9H445.1V739z
		 M579.8,694.1H913v84.8H579.8V694.1z"/>
	<text transform="matrix(1 0 0 1 32.8482 152.1692)" class="st3 st4 st5">Adams 2,698</text>
	<text transform="matrix(1 0 0 1 32.8481 173.6604)" class="st3 st4 st5">Alamosa 2,305</text>
	<text transform="matrix(1 0 0 1 32.8483 195.1516)" class="st3 st4 st5">Arapahoe 2,294</text>
	<text transform="matrix(1 0 0 1 32.8483 216.6426)" class="st3 st4 st5">Archuleta 1,724</text>
	<text transform="matrix(1 0 0 1 32.8483 238.1343)" class="st3 st4 st5">Baca 1,353</text>
	<text transform="matrix(1 0 0 1 32.8483 259.6252)" class="st3 st4 st5">Bent 1,331</text>
	<text transform="matrix(1 0 0 1 32.8481 281.116)" class="st3 st4 st5">Boulder 883</text>
	<text transform="matrix(1 0 0 1 32.8481 302.6069)" class="st3 st4 st5">Broomfield 679</text>
	<text transform="matrix(1 0 0 1 32.8481 324.0979)" class="st3 st4 st5">Chaffee 480</text>
	<text transform="matrix(1 0 0 1 32.8481 346.447)" class="st3 st4 st6">Cheyenne 379</text>
	<text transform="matrix(1 0 0 1 32.8481 368.2632)" class="st3 st4 st5">Clear Creek 324</text>
	<text transform="matrix(1 0 0 1 32.8481 389.7548)" class="st3 st4 st5">Conejos 318</text>
	<text transform="matrix(1 0 0 1 32.8481 411.2468)" class="st3 st4 st5">Costilla 311</text>
	<text transform="matrix(1 0 0 1 32.8481 432.7373)" class="st3 st4 st5">Crowley 274</text>
	<text transform="matrix(1 0 0 1 32.8481 454.2284)" class="st3 st4 st5">Custer 243</text>
	<text transform="matrix(1 0 0 1 32.8481 475.7202)" class="st3 st4 st5">Delta 183</text>
	<text transform="matrix(1 0 0 1 32.8481 497.2112)" class="st3 st4 st5">Denver 172</text>
	<text transform="matrix(1 0 0 1 32.8481 541.0515)" class="st3 st4 st6">Douglas 170</text>
	<text transform="matrix(1 0 0 1 32.8481 518.7031)" class="st3 st4 st5">Dolores 168</text>
	<text transform="matrix(1 0 0 1 32.8481 562.8679)" class="st3 st4 st5">Eagle 166</text>
	<text transform="matrix(1 0 0 1 32.8481 584.3589)" class="st3 st4 st5">El Paso 159</text>
	<text transform="matrix(1 0 0 1 32.8482 605.8499)" class="st3 st4 st5">Elbert 156</text>
	<text transform="matrix(1 0 0 1 175.5218 153.0266)" class="st3 st4 st6">Fremont 149</text>
	<text transform="matrix(1 0 0 1 175.5001 174.5889)" class="st3 st4 st6">Garfield 143</text>
	<text transform="matrix(1 0 0 1 175.5216 196.1504)" class="st3 st4 st6">Gilpin 142</text>
	<text transform="matrix(1 0 0 1 175.4998 217.7124)" class="st3 st4 st6">Grand 140</text>
	<text transform="matrix(1 0 0 1 175.5216 239.2739)" class="st3 st4 st6">Gunnison 123</text>
	<text transform="matrix(1 0 0 1 249.7498 239.2739)" class="st3 st4 st6 st7"> </text>
	<text transform="matrix(1 0 0 1 175.5001 260.8362)" class="st3 st4 st6">Hinsdale 122</text>
	<text transform="matrix(1 0 0 1 175.5001 282.3977)" class="st3 st4 st6">Huerfano 109</text>
	<text transform="matrix(1 0 0 1 175.5001 303.9597)" class="st3 st4 st6">Jackson 100</text>
	<text transform="matrix(1 0 0 1 175.5001 325.522)" class="st3 st4 st6">Jefferson 99</text>
	<text transform="matrix(1 0 0 1 175.5001 347.0835)" class="st3 st4 st6">Kiowa 89</text>
	<text transform="matrix(1 0 0 1 175.5001 368.6453)" class="st3 st4 st6">Kit Carson 76</text>
	<text transform="matrix(1 0 0 1 175.5001 390.2068)" class="st3 st4 st6">La Plata 75</text>
	<text transform="matrix(1 0 0 1 175.5001 411.7679)" class="st3 st4 st6">Lake 69</text>
	<text transform="matrix(1 0 0 1 175.5001 433.33)" class="st3 st4 st6">Larimer 64</text>
	<text transform="matrix(1 0 0 1 175.5001 454.8911)" class="st3 st4 st6">Las Animas 63</text>
	<text transform="matrix(1 0 0 1 175.5001 476.4534)" class="st3 st4 st6">Lincoln 58</text>
	<text transform="matrix(1 0 0 1 175.5001 498.0154)" class="st3 st4 st6">Logan 50</text>
	<text transform="matrix(1 0 0 1 175.5001 519.5764)" class="st3 st4 st6">Mesa 48</text>
	<text transform="matrix(1 0 0 1 175.5001 541.1387)" class="st3 st4 st6">Mineral 43</text>
	<text transform="matrix(1 0 0 1 175.5001 562.7017)" class="st3 st4 st6">Moffat 40</text>
	<text transform="matrix(1 0 0 1 175.5001 584.2637)" class="st3 st4 st6">Montezuma 40</text>
	<text transform="matrix(1 0 0 1 175.5002 605.8259)" class="st3 st4 st6">Montrose 38</text>
	<text transform="matrix(1 0 0 1 321.2754 153.0269)" class="st3 st4 st6">Morgan 36</text>
	<text transform="matrix(1 0 0 1 321.2968 174.5745)" class="st3 st4 st6">Otero 34</text>
	<text transform="matrix(1 0 0 1 321.2754 196.1218)" class="st3 st4 st6">Ouray 32</text>
	<text transform="matrix(1 0 0 1 321.2754 217.6692)" class="st3 st4 st6">Park 31</text>
	<text transform="matrix(1 0 0 1 321.2754 239.217)" class="st3 st4 st6">Phillips 31</text>
	<text transform="matrix(1 0 0 1 321.2754 260.7644)" class="st3 st4 st6">Pitkin 30</text>
	<text transform="matrix(1 0 0 1 321.2754 282.312)" class="st3 st4 st6">Prowers 28</text>
	<text transform="matrix(1 0 0 1 321.2754 303.8594)" class="st3 st4 st6">Pueblo 27</text>
	<text transform="matrix(1 0 0 1 321.2754 325.407)" class="st3 st4 st6">Rio Blanco 26</text>
	<text transform="matrix(1 0 0 1 321.2754 346.9553)" class="st3 st4 st6">Rio Grande 25</text>
	<text transform="matrix(1 0 0 1 321.2754 368.5022)" class="st3 st4 st6">Routt 24</text>
	<text transform="matrix(1 0 0 1 321.2754 390.0496)" class="st3 st4 st6">Saguache 24</text>
	<text transform="matrix(1 0 0 1 321.2754 411.598)" class="st3 st4 st6">San Juan 22</text>
	<text transform="matrix(1 0 0 1 321.2754 433.1449)" class="st3 st4 st6">San Miguel 21</text>
	<text transform="matrix(1 0 0 1 321.2754 454.6929)" class="st3 st4 st6">Sedgwick 20</text>
	<text transform="matrix(1 0 0 1 321.2754 476.2397)" class="st3 st4 st6">Summit 19</text>
	<text transform="matrix(1 0 0 1 321.2754 497.7878)" class="st3 st4 st6">Teller 19</text>
	<text transform="matrix(1 0 0 1 321.2754 519.3357)" class="st3 st4 st6">Washington 18</text>
	<text transform="matrix(1 0 0 1 321.2754 540.8826)" class="st3 st4 st6">Weld 17</text>
	<text transform="matrix(1 0 0 1 321.2754 562.4304)" class="st3 st4 st6">Yuma 17</text>
	<text id="confirmed" transform="matrix(1 0 0 1 32.8483 109.2515)" class="st8 st9 st10">State Confirmed Cases By County</text>
	<text id="title_1_" transform="matrix(1 0 0 1 32.8483 35.8369)" class="st8 st9 st11">COVID-19 in Colorado on</text>
	<text id="date_1_" transform="matrix(1 0 0 1 244.7495 35.8369)" class="st8 st9 st11">April 27th, 2020</text>
	<g id="types">
		<g>
			<circle id="_x34__1_" class="st12" cx="879.6" cy="-49.6" r="17"/>
			
				<text id="_x34__numbers_1_" transform="matrix(1 2.629946e-03 -2.629946e-03 1 866.0509 -46.0912)" class="st17 st4" style="font-size:11px;">2,800</text>
		</g>
		<g>
			<circle id="_x33__1_" class="st12" cx="831.8" cy="-47.1" r="12.8"/>
			
				<text id="_x33__numbers_1_" transform="matrix(1 2.629954e-03 -2.629954e-03 1 822.7574 -44.1082)" class="st17 st4" style="font-size:11px;">510</text>
		</g>
		<g>
			<circle id="_x32__1_" class="st12" cx="792.7" cy="-47.1" r="10.4"/>
			<text id="_x32__numbers_1_" transform="matrix(1 2.629936e-03 -2.629936e-03 1 787.0492 -43.2497)" class="st17 st4 st18">99</text>
		</g>
		<g>
			<circle id="_x31__2_" class="st12" cx="728.2" cy="-47.1" r="6"/>
			
				<text id="_x31__numbers_2_" transform="matrix(1 2.629982e-03 -2.629982e-03 1 724.4271 -44.7464)" class="st17 st4" style="font-size:7px;">10</text>
		</g>
		<g>
			<circle id="_x31__1_" class="st12" cx="758.3" cy="-47.1" r="8"/>
			
				<rect x="754.2" y="-50.4" transform="matrix(2.629838e-03 -1 1 2.629838e-03 802.902 711.6798)" class="st13" width="8" height="7.5"/>
			
				<text id="_x31__numbers_1_" transform="matrix(1 2.629927e-03 -2.629927e-03 1 753.5251 -43.8506)" class="st17 st4" style="font-size:9px;">20</text>
		</g>
	</g>
</g>
<g id="table_data">
	<text transform="matrix(1 0 0 1 21.1055 720.1846)" class="st8 st4 st6">Confirmed Cases</text>
	<text transform="matrix(1 0 0 1 21.1055 764.1161)" class="st8 st4 st6">Deaths</text>
	<text id="current_date" transform="matrix(1 0 0 1 204.6351 675.9023)" class="st8 st4 st6">6 Apr. 2020</text>
	<text id="previous_date" transform="matrix(1 0 0 1 339.4133 675.9023)" class="st8 st4 st6">5 Apr. 2020</text>
	<text id="growth_rate__x25_" transform="matrix(1 0 0 1 458.4815 675.9023)" class="st8 st4 st6">Growth Rate %</text>
	<text transform="matrix(1 0 0 1 673.7565 675.9023)" class="st8 st4 st6">Total Confirmed Cases</text>
	<text id="current_сases" transform="matrix(1 0 0 1 227.4907 723.9365)" class="st14 st4 st10">783</text>
	<text id="previous_deaths" transform="matrix(1 0 0 1 370.2038 768.416)" class="st14 st4 st10">14</text>
	<text id="current_deaths" transform="matrix(1 0 0 1 231.011 767.4363)" class="st14 st4 st10">15</text>
	<text id="total_cases" transform="matrix(1 0 0 1 714.3782 753.0797)" class="st15 st4 st16">783</text>
	<text id="previous_сases" transform="matrix(1 0 0 1 362.291 723.9365)" class="st14 st4 st10">673</text>
	<text id="cases_growth_rate" transform="matrix(1 0 0 1 492.2042 725.4727)" class="st14 st4 st10">16 %</text>
	<text id="death_growth_rate" transform="matrix(1 0 0 1 496.6035 769.952)" class="st14 st4 st10">7 %</text>
</g>
<g id="BALLS_1_">
	<circle id="baca_circles" class="st12" cx="822.7" cy="484.7" r="10.4"/>
	<text id="baca_numbers" transform="matrix(1 2.630000e-03 -2.630000e-03 1 817.0073 487.5532)" class="st17 st4 st18">60</text>
	<circle id="las_animas_circles" class="st12" cx="742" cy="479.8" r="10.4"/>
	<text id="las_animas_numbers" transform="matrix(1 2.630000e-03 -2.630000e-03 1 736.3584 482.6171)" class="st17 st4 st18">60</text>
	<circle id="prowers_circles" class="st12" cx="833.1" cy="442.2" r="10.4"/>
	<text id="prowers_numbers" transform="matrix(1 2.630000e-03 -2.630000e-03 1 827.4058 444.9932)" class="st17 st4 st18">60</text>
	<circle id="bent_circles" class="st12" cx="795.8" cy="439.9" r="10.4"/>
	<text id="bent_numbers" transform="matrix(1 2.630000e-03 -2.630000e-03 1 790.1824 442.7134)" class="st17 st4 st18">60</text>
	<circle id="otero_circles" class="st12" cx="761.9" cy="442.2" r="10.4"/>
	<text id="otero_numbers" transform="matrix(1 2.630000e-03 -2.630000e-03 1 756.2529 445.0463)" class="st17 st4 st18">60</text>
	<circle id="kiowa_circles" class="st12" cx="815.8" cy="407.9" r="10.4"/>
	<text id="kiowa_numbers" transform="matrix(1 2.630000e-03 -2.630000e-03 1 810.1628 410.6597)" class="st17 st4 st18">60</text>
	<circle id="crowley_circles" class="st12" cx="760.8" cy="411.4" r="10.4"/>
	<text id="crowley_numbers" transform="matrix(1 2.630000e-03 -2.630000e-03 1 755.1904 414.2047)" class="st17 st4 st18">60</text>
	<circle id="huerfano_circles" class="st12" cx="696.5" cy="451.5" r="10.4"/>
	<text id="huerfano_numbers" transform="matrix(1 2.630000e-03 -2.630000e-03 1 690.8789 454.3345)" class="st17 st4 st18">60</text>
	<circle id="pueblo_circles" class="st12" cx="722" cy="417.7" r="10.4"/>
	<text id="pueblo_numbers" transform="matrix(1 2.630000e-03 -2.630000e-03 1 716.3835 420.4612)" class="st17 st4 st18">60</text>
	<circle id="costila_circles" class="st12" cx="665.7" cy="472.7" r="10.4"/>
	<text id="costila_numbers" transform="matrix(1 2.630000e-03 -2.630000e-03 1 660.0854 475.5098)" class="st17 st4 st18">60</text>
	<circle id="conejos_circles" class="st12" cx="626.2" cy="475.2" r="10.4"/>
	<text id="conejos_numbers" transform="matrix(1 2.630000e-03 -2.630000e-03 1 620.5105 477.9697)" class="st17 st4 st18">60</text>
	<circle id="custer_circles" class="st12" cx="677" cy="418.3" r="10.4"/>
	<text id="custer_numbers" transform="matrix(1 2.630000e-03 -2.630000e-03 1 671.311 421.1547)" class="st17 st4 st18">60</text>
	<circle id="alamosa_circles" class="st12" cx="648.8" cy="453" r="10.4"/>
	<text id="alamosa_numbers" transform="matrix(1 2.630000e-03 -2.630000e-03 1 643.1748 455.7786)" class="st17 st4 st18">60</text>
	<circle id="rio_grande_circles" class="st12" cx="617.7" cy="448.5" r="10.4"/>
	<text id="rio_grande_numbers" transform="matrix(1 2.630000e-03 -2.630000e-03 1 612.0073 451.3461)" class="st17 st4 st18">60</text>
	<circle id="mineral_circles" class="st12" cx="589.8" cy="437.3" r="10.4"/>
	<text id="mineral_numbers" transform="matrix(1 2.630000e-03 -2.630000e-03 1 584.1589 440.0932)" class="st17 st4 st18">60</text>
	<circle id="archuleta_circles" class="st12" cx="578.2" cy="467.8" r="10.4"/>
	<text id="archuleta_numbers" transform="matrix(1 2.630000e-03 -2.630000e-03 1 572.563 470.6429)" class="st17 st4 st18">60</text>
	<circle id="ls_plata_circles" class="st12" cx="537.6" cy="457.1" r="10.4"/>
	<text id="ls_plata_numbers" transform="matrix(1 2.630000e-03 -2.630000e-03 1 531.9014 459.9108)" class="st17 st4 st18">60</text>
	<circle id="hinsdale_circles" class="st12" cx="569.7" cy="428.7" r="10.4"/>
	<text id="hinsdale_numbers" transform="matrix(1 2.630000e-03 -2.630000e-03 1 564.0826 431.4838)" class="st17 st4 st18">60</text>
	<circle id="montezuma_circles" class="st12" cx="498.6" cy="451.7" r="10.4"/>
	<text id="montezuma_numbers" transform="matrix(1 2.630000e-03 -2.630000e-03 1 492.9172 454.5174)" class="st17 st4 st18">60</text>
	<circle id="san_juan_circles" class="st12" cx="549.3" cy="427.3" r="10.4"/>
	<text id="san_juan_numbers" transform="matrix(1 2.630000e-03 -2.630000e-03 1 543.641 430.0687)" class="st17 st4 st18">60</text>
	
		<ellipse id="dolores_circles" transform="matrix(0.4641 -0.8858 0.8858 0.4641 -102.7588 679.5269)" class="st12" cx="510.2" cy="424.7" rx="10.4" ry="10.4"/>
	<text id="dolores_numbers" transform="matrix(1 2.630000e-03 -2.630000e-03 1 504.5673 427.5076)" class="st17 st4 st18">60</text>
	<circle id="saguache_circles" class="st12" cx="629.1" cy="415.6" r="10.4"/>
	<text id="saguache_numbers" transform="matrix(1 2.630000e-03 -2.630000e-03 1 623.4382 418.4018)" class="st17 st4 st18">60</text>
	
		<ellipse id="san_miguel_circles" transform="matrix(0.4641 -0.8858 0.8858 0.4641 -81.3872 673.2514)" class="st12" cx="515.7" cy="403.9" rx="10.4" ry="10.4"/>
	<text id="san_miguel_numbers" transform="matrix(1 2.630000e-03 -2.630000e-03 1 510.0052 406.7415)" class="st17 st4 st18">60</text>
	<circle id="fremont_circles" class="st12" cx="673.5" cy="392.4" r="10.4"/>
	<text id="fremont_numbers" transform="matrix(1 2.630000e-03 -2.630000e-03 1 667.8188 395.1754)" class="st17 st4 st18">60</text>
	<circle id="ouray_circles" class="st12" cx="548.7" cy="399.9" r="10.4"/>
	<text id="ouray_numbers" transform="matrix(1 2.630000e-03 -2.630000e-03 1 543.0664 402.7134)" class="st17 st4 st18">60</text>
	<circle id="montrose_circles" class="st12" cx="523.7" cy="380.6" r="10.4"/>
	<text id="montrose_numbers" transform="matrix(1 2.630000e-03 -2.630000e-03 1 518.0878 383.431)" class="st17 st4 st18">60</text>
	<circle id="gunnison_circles" class="st12" cx="591.5" cy="369" r="10.4"/>
	<text id="gunnison_numbers" transform="matrix(1 2.630000e-03 -2.630000e-03 1 585.855 371.836)" class="st17 st4 st18">60</text>
	<circle id="chaffee_circles" class="st12" cx="635.6" cy="371.1" r="10.4"/>
	<text id="chaffee_numbers" transform="matrix(1 2.630000e-03 -2.630000e-03 1 629.957 373.8995)" class="st17 st4 st18">60</text>
	<circle id="teller_circles" class="st12" cx="691.1" cy="366.6" r="10.4"/>
	<text id="teller_numbers" transform="matrix(1 2.630000e-03 -2.630000e-03 1 685.4209 369.3892)" class="st17 st4 st18">60</text>
	<circle id="el_pasco_circles" class="st12" cx="725.4" cy="372.6" r="10.4"/>
	<text id="el_pasco_numbers" transform="matrix(1 2.630000e-03 -2.630000e-03 1 719.7148 375.3809)" class="st17 st4 st18">60</text>
	<circle id="cheyenne_circles" class="st12" cx="823.8" cy="381.1" r="10.4"/>
	<text id="cheyenne_numbers" transform="matrix(1 2.630000e-03 -2.630000e-03 1 818.1707 383.9559)" class="st17 st4 st18">60</text>
	<circle id="kit_carson_circles" class="st12" cx="828.1" cy="346.8" r="10.4"/>
	<text id="kit_carson_numbers" transform="matrix(1 2.630000e-03 -2.630000e-03 1 822.4827 349.649)" class="st17 st4 st18">60</text>
	<circle id="lincoln_circles" class="st12" cx="783.4" cy="368.2" r="10.4"/>
	<text id="lincoln_numbers" transform="matrix(1 2.630000e-03 -2.630000e-03 1 777.7859 371.0374)" class="st17 st4 st18">60</text>
	<circle id="elbert_circles" class="st12" cx="750.1" cy="340" r="10.4"/>
	<text id="elbert_numbers" transform="matrix(1 2.630000e-03 -2.630000e-03 1 744.4106 342.7962)" class="st17 st4 st18">60</text>
	<circle id="douglas_circles" class="st12" cx="707.7" cy="334.3" r="10.4"/>
	<text id="douglas_numbers" transform="matrix(1 2.630000e-03 -2.630000e-03 1 702.0198 337.0794)" class="st17 st4 st18">60</text>
	<circle id="park_circles" class="st12" cx="664.1" cy="346.2" r="10.4"/>
	<text id="park_numbers" transform="matrix(1 2.630000e-03 -2.630000e-03 1 658.4497 349.0565)" class="st17 st4 st18">60</text>
	<circle id="lake_circles" class="st12" cx="631.4" cy="336.5" r="10.4"/>
	<text id="lake_numbers" transform="matrix(1 2.630000e-03 -2.630000e-03 1 625.7173 339.3419)" class="st17 st4 st18">60</text>
	<circle id="pitkin_circles" class="st12" cx="603.7" cy="334" r="10.4"/>
	<text id="pitkin_numbers" transform="matrix(1 2.630000e-03 -2.630000e-03 1 597.9993 336.783)" class="st17 st4 st18">60</text>
	<circle id="delta_circles" class="st12" cx="551.2" cy="350.7" r="10.4"/>
	<text id="delta_numbers" transform="matrix(1 2.630000e-03 -2.630000e-03 1 545.5608 353.4903)" class="st17 st4 st18">60</text>
	
		<ellipse id="mesa_circles" transform="matrix(0.4641 -0.8858 0.8858 0.4641 -17.4977 636.6531)" class="st12" cx="517.4" cy="332.8" rx="10.4" ry="10.4"/>
	<text id="mesa_numbers" transform="matrix(1 2.630000e-03 -2.630000e-03 1 511.783 335.5909)" class="st17 st4 st18">60</text>
	<circle id="arapahoe_circles" class="st12" cx="738.3" cy="316.1" r="10.4"/>
	<text id="arapahoe_numbers" transform="matrix(1 2.630000e-03 -2.630000e-03 1 732.6746 318.8602)" class="st17 st4 st18">60</text>
	<circle id="denver_circles" class="st12" cx="707.5" cy="311.2" r="10.4"/>
	<text id="denver_numbers" transform="matrix(1 2.630000e-03 -2.630000e-03 1 701.8655 314.0008)" class="st17 st4 st18">60</text>
	<circle id="jefferson_circles" class="st12" cx="691.5" cy="317.8" r="10.4"/>
	<text id="jefferson_numbers" transform="matrix(1 2.630000e-03 -2.630000e-03 1 685.8374 320.6273)" class="st17 st4 st18">60</text>
	<circle id="adams_circles" class="st12" cx="738.9" cy="301.7" r="10.4"/>
	<text id="adams_numbers" transform="matrix(1 2.630000e-03 -2.630000e-03 1 733.2585 304.5247)" class="st17 st4 st18">60</text>
	<circle id="washington_circles" class="st12" cx="802.1" cy="301.7" r="10.4"/>
	<text id="washington_numbers" transform="matrix(1 2.630000e-03 -2.630000e-03 1 796.4202 304.5247)" class="st17 st4 st18">60</text>
	<circle id="yuma_circles" class="st12" cx="840.6" cy="300.7" r="10.4"/>
	<text id="yuma_numbers" transform="matrix(1 2.630000e-03 -2.630000e-03 1 834.937 303.4734)" class="st17 st4 st18">60</text>
	<circle id="gilpin_circles" class="st12" cx="679.3" cy="297.7" r="10.4"/>
	<text id="gilpin_numbers" transform="matrix(1 2.630000e-03 -2.630000e-03 1 673.6814 300.5235)" class="st17 st4 st18">60</text>
	<circle id="clear_creek_circles" class="st12" cx="673.3" cy="308" r="10.4"/>
	<text id="clear_creek_numbers" transform="matrix(1 2.630000e-03 -2.630000e-03 1 667.6597 310.7972)" class="st17 st4 st18">60</text>
	<circle id="summit_circles" class="st12" cx="647" cy="312.7" r="10.4"/>
	<text id="summit_numbers" transform="matrix(1 2.630000e-03 -2.630000e-03 1 641.3564 315.5252)" class="st17 st4 st18">60</text>
	<circle id="eagle_circles" class="st12" cx="616" cy="305.2" r="10.4"/>
	<text id="eagle_numbers" transform="matrix(1 2.630000e-03 -2.630000e-03 1 610.3079 307.994)" class="st17 st4 st18">60</text>
	<circle id="boulder_circles" class="st12" cx="688.4" cy="281.2" r="10.4"/>
	<text id="boulder_numbers" transform="matrix(1 2.630000e-03 -2.630000e-03 1 682.7417 284.0157)" class="st17 st4 st18">60</text>
	<circle id="grand_circles" class="st12" cx="652.1" cy="277.8" r="10.4"/>
	<text id="grand_numbers" transform="matrix(1 2.630000e-03 -2.630000e-03 1 646.4832 280.5809)" class="st17 st4 st18">60</text>
	<circle id="garfield_circles" class="st12" cx="565.7" cy="304.3" r="10.4"/>
	<text id="garfield_numbers" transform="matrix(1 2.630000e-03 -2.630000e-03 1 560.0111 307.0933)" class="st17 st4 st18">60</text>
	<circle id="rio_blanco_circles" class="st12" cx="542.3" cy="273.5" r="10.4"/>
	<text id="rio_blanco_numbers" transform="matrix(1 2.630000e-03 -2.630000e-03 1 536.6777 276.3492)" class="st17 st4 st18">60</text>
	<circle id="morgan_circles" class="st12" cx="770.8" cy="277.4" r="10.4"/>
	<text id="morgan_numbers" transform="matrix(1 2.630000e-03 -2.630000e-03 1 765.1575 280.1905)" class="st17 st4 st18">60</text>
	<circle id="phillips_circles" class="st12" cx="846.2" cy="260.7" r="10.4"/>
	<text id="phillips_numbers" transform="matrix(1 2.630000e-03 -2.630000e-03 1 840.5725 263.545)" class="st17 st4 st18">60</text>
	<circle id="sedguick_circles" class="st12" cx="848.5" cy="239.9" r="10.4"/>
	<text id="sedguick_numbers" transform="matrix(1 2.630000e-03 -2.630000e-03 1 842.8044 242.7225)" class="st17 st4 st18">60</text>
	<circle id="logan_circles" class="st12" cx="809.9" cy="249.2" r="10.4"/>
	<text id="logan_numbers" transform="matrix(1 2.630000e-03 -2.630000e-03 1 804.238 251.9671)" class="st17 st4 st18">60</text>
	<circle id="weld_circles" class="st12" cx="738" cy="258.3" r="10.4"/>
	<text id="weld_numbers" transform="matrix(1 2.630000e-03 -2.630000e-03 1 732.3843 261.0809)" class="st17 st4 st18">60</text>
	<circle id="larimer_circles" class="st12" cx="691.3" cy="245.4" r="10.4"/>
	<text id="larimer_numbers" transform="matrix(1 2.630000e-03 -2.630000e-03 1 685.6831 248.2161)" class="st17 st4 st18">60</text>
	<circle id="jackson_circles" class="st12" cx="643.1" cy="239.6" r="10.4"/>
	<text id="jackson_numbers" transform="matrix(1 2.630000e-03 -2.630000e-03 1 637.4446 242.4261)" class="st17 st4 st18">60</text>
	<circle id="routt_circles" class="st12" cx="607.5" cy="247.2" r="10.4"/>
	<text id="routt_numbers" transform="matrix(1 2.630000e-03 -2.630000e-03 1 601.8462 249.9642)" class="st17 st4 st18">60</text>
	<circle id="moffat_circles" class="st12" cx="548.2" cy="232.9" r="10.4"/>
	<text id="moffat_numbers" transform="matrix(1 2.630000e-03 -2.630000e-03 1 542.5475 235.7254)" class="st17 st4 st18">60</text>
</g>
</svg>
