<?xml version="1.0" encoding="utf-8"?>
<!-- Generator: Adobe Illustrator 24.1.2, SVG Export Plug-In . SVG Version: 6.00 Build 0)  -->
<svg version="1.1" id="Layer_1" xmlns="http://www.w3.org/2000/svg" xmlns:xlink="http://www.w3.org/1999/xlink" x="0px" y="0px"
	 viewBox="0 0 916.5 807.6" style="enable-background:new 0 0 916.5 807.6;" xml:space="preserve">
<style type="text/css">
	.st0{fill:#F5FBFE;}
	.st1{fill:#DDEEFA;}
	.st2{fill:#255078;}
	.st3{font-family:'Georgia';}
	.st4{font-size:18px;}
	.st5{font-size:16px;}
	.st6{fill:#4C4B4D;}
	.st7{font-family:'ArialMT';}
	.st8{font-size:14px;}
	.st9{fill:#CD483B;}
	.st10{fill:none;}
	.st11{fill:#AED9F4;}
	.st12{fill:#4C4B4C;}
	.st13{fill:#DB3029;}
	.st14{font-size:36px;}
	.st15{fill:#FFFFFF;}
	.st16{font-size:10.3181px;}
</style>
<g id="Texts">
	<polygon id="blue_bg" class="st0" points="0,672.1 0,709.1 0,718.7 0,807.5 173.5,807.5 173.5,718.7 915,718.7 915,672.1 	"/>
	<path id="line_bg" class="st1" d="M916.5,0H0v199.6v473.5v2V718v2v42.9v2v42.9l0,0h579.8l0,0H913l0,0h3.5V0z M913,56.7v616.4H578.4
		l-0.6-0.3v0.3H443.6l-0.6-0.3v0.3H3V56.7H913z M913,674.7v42.9H579.8v-42.9H913z M445.1,717.7v-42.9h132.8v42.9H445.1z
		 M577.8,719.7v42.9H445.1v-42.9H577.8z M310.3,717.7v-42.9h132.8v42.9H310.3z M443.1,719.7v42.9H310.3v-42.9H443.1z M175.5,717.7
		v-42.9h132.8v42.9H175.5z M308.3,719.7v42.9H175.5v-42.9H308.3z M173.5,674.7v42.9H3v-42.9H173.5z M173.5,719.7v42.9H3v-42.9H173.5
		z M3,764.6h170.5v39.9H3V764.6z M175.5,764.6h132.8v39.9H175.5V764.6z M310.3,764.6h132.8v39.9H310.3V764.6z M445.1,764.6h132.8
		v39.9H445.1V764.6z M579.8,719.7H913v84.9H579.8V719.7z"/>
	<text id="title" transform="matrix(1 0 0 1 32.8483 35.8372)" class="st2 st3 st4">COVID-19 in Iowa on</text>
	<text id="date" transform="matrix(1 0 0 1 210.4693 35.8372)" class="st2 st3 st4">April 27th, 2020</text>
	<text id="confirmed" transform="matrix(1 0 0 1 24.848 109.1328)" class="st2 st3 st5">State Confirmed Cases By County</text>
	<text transform="matrix(1 0 0 1 24.8701 173.0537)" class="st6 st7 st8">Adams  10</text>
	<text transform="matrix(1 0 0 1 24.8486 191.2085)" class="st6 st7 st8">Allamakee  10</text>
	<text transform="matrix(1 0 0 1 24.8486 209.3633)" class="st6 st7 st8">Appanoose  10</text>
	<text transform="matrix(1 0 0 1 24.8486 227.5183)" class="st6 st7 st8">Audubon  10</text>
	<text transform="matrix(1 0 0 1 24.8486 245.6726)" class="st6 st7 st8">Benton  10</text>
	<text transform="matrix(1 0 0 1 24.8486 263.8276)" class="st6 st7 st8">Black Hawk  10</text>
	<text transform="matrix(1 0 0 1 24.8486 281.9824)" class="st6 st7 st8">Boone  10</text>
	<text transform="matrix(1 0 0 1 24.8698 154.8994)" class="st6 st7 st8">Adair  10</text>
	<text transform="matrix(1 0 0 1 24.8486 318.2915)" class="st6 st7 st8">Buchanan  10</text>
	<text transform="matrix(1 0 0 1 24.8483 336.4463)" class="st6 st7 st8">Buena Vista  10</text>
	<text transform="matrix(1 0 0 1 24.8483 300.1367)" class="st6 st7 st8">Bremer  10</text>
	<text transform="matrix(1 0 0 1 24.8483 354.6006)" class="st6 st7 st8">Butler  10</text>
	<text transform="matrix(1 0 0 1 24.8483 372.7556)" class="st6 st7 st8">Calhoun  10</text>
	<text transform="matrix(1 0 0 1 24.8485 390.9098)" class="st6 st7 st8">Carroll  10</text>
	<text transform="matrix(1 0 0 1 24.8483 409.0647)" class="st6 st7 st8">Cass  10</text>
	<text transform="matrix(1 0 0 1 24.8485 427.2197)" class="st6 st7 st8">Cedar  10</text>
	<text transform="matrix(1 0 0 1 24.8482 463.5284)" class="st6 st7 st8">Cherokee  10</text>
	<text transform="matrix(1 0 0 1 24.8482 481.684)" class="st6 st7 st8">Chickasaw  10</text>
	<text transform="matrix(1 0 0 1 24.8482 499.8387)" class="st6 st7 st8">Clarke  10</text>
	<text transform="matrix(1 0 0 1 24.8482 517.9927)" class="st6 st7 st8">Clay  10</text>
	<text transform="matrix(1 0 0 1 24.8482 536.1472)" class="st6 st7 st8">Clayton  10</text>
	<text transform="matrix(1 0 0 1 24.8486 445.374)" class="st6 st7 st8">Cerro Gordo  10</text>
	<text transform="matrix(1 0 0 1 24.8485 554.3026)" class="st6 st7 st8">Clinton  10</text>
	<text transform="matrix(1 0 0 1 24.8486 572.4574)" class="st6 st7 st8">Crawford  10</text>
	<text transform="matrix(1 0 0 1 152.3312 154.8994)" class="st6 st7 st8">Davis  10</text>
	<text transform="matrix(1 0 0 1 152.3312 173.0537)" class="st6 st7 st8">Decatur  10</text>
	<text transform="matrix(1 0 0 1 152.331 191.1692)" class="st6 st7 st8">Delaware  10</text>
	<text transform="matrix(1 0 0 1 152.3308 209.3235)" class="st6 st7 st8">Des Moines10</text>
	<text transform="matrix(1 0 0 1 152.3307 227.478)" class="st6 st7 st8">Dickinson  10</text>
	<text transform="matrix(1 0 0 1 24.8483 590.6116)" class="st6 st7 st8">Dallas  10</text>
	<text transform="matrix(1 0 0 1 152.3308 245.6323)" class="st6 st7 st8">Dubuque  10</text>
	<text transform="matrix(1 0 0 1 152.3313 281.9248)" class="st6 st7 st8">Fayette  10</text>
	<text transform="matrix(1 0 0 1 152.331 300.0857)" class="st6 st7 st8">Floyd  10</text>
	<text transform="matrix(1 0 0 1 152.3313 318.2478)" class="st6 st7 st8">Franklin  10</text>
	<text transform="matrix(1 0 0 1 152.3309 263.7637)" class="st6 st7 st8">Emmet  10</text>
	<text transform="matrix(1 0 0 1 152.331 336.4092)" class="st6 st7 st8">Fremont  10</text>
	<text transform="matrix(1 0 0 1 152.3311 354.5696)" class="st6 st7 st8">Greene  10</text>
	<text transform="matrix(1 0 0 1 152.3311 390.8918)" class="st6 st7 st8">Guthrie  10</text>
	<text transform="matrix(1 0 0 1 152.3311 409.052)" class="st6 st7 st8">Hamilton  10</text>
	<text transform="matrix(1 0 0 1 152.3311 427.2137)" class="st6 st7 st8">Hancock  10</text>
	<text transform="matrix(1 0 0 1 152.3311 445.3746)" class="st6 st7 st8">Hardin  10</text>
	<text transform="matrix(1 0 0 1 152.331 463.5352)" class="st6 st7 st8">Harrison  10</text>
	<text transform="matrix(1 0 0 1 152.331 372.7305)" class="st6 st7 st8">Grundy  10</text>
	<text transform="matrix(1 0 0 1 152.331 483.1598)" class="st6 st7 st8">Henry  10</text>
	<text transform="matrix(1 0 0 1 152.3311 501.3206)" class="st6 st7 st8">Howard  10</text>
	<text transform="matrix(1 0 0 1 152.3313 519.4812)" class="st6 st7 st8">Humboldt  10</text>
	<text transform="matrix(1 0 0 1 152.3309 537.6423)" class="st6 st7 st8">Ida  10</text>
	<text transform="matrix(1 0 0 1 152.3313 555.8031)" class="st6 st7 st8">Iowa  10</text>
	<text transform="matrix(1 0 0 1 152.3313 573.964)" class="st6 st7 st8">Jackson  10</text>
	<text transform="matrix(1 0 0 1 152.3313 590.5228)" class="st6 st7 st8">Jasper  10</text>
	<text transform="matrix(1 0 0 1 279.2134 173.0603)" class="st6 st7 st8">Jefferson  10</text>
	<text transform="matrix(1 0 0 1 279.2134 191.2285)" class="st6 st7 st8">Johnson  10</text>
	<text transform="matrix(1 0 0 1 279.2135 227.4978)" class="st6 st7 st8">Keokuk  10</text>
	<text transform="matrix(1 0 0 1 279.2135 245.6582)" class="st6 st7 st8">Kossuth  10</text>
	<text transform="matrix(1 0 0 1 279.214 263.7976)" class="st6 st7 st8">Lee  10</text>
	<text transform="matrix(1 0 0 1 279.2134 209.3899)" class="st6 st7 st8">Jones  10</text>
	<text transform="matrix(1 0 0 1 279.214 281.959)" class="st6 st7 st8">Linn  10</text>
	<text transform="matrix(1 0 0 1 279.214 300.1199)" class="st6 st7 st8">Louisa  10</text>
	<text transform="matrix(1 0 0 1 279.214 318.2803)" class="st6 st7 st8">Lucas  10</text>
	<text transform="matrix(1 0 0 1 279.214 336.4419)" class="st6 st7 st8">Lyon  10</text>
	<text transform="matrix(1 0 0 1 279.214 354.6023)" class="st6 st7 st8">Madison  10</text>
	<text transform="matrix(1 0 0 1 279.214 372.7627)" class="st6 st7 st8">Mahaska  10</text>
	<text transform="matrix(1 0 0 1 279.214 390.9242)" class="st6 st7 st8">Marion  10</text>
	<text transform="matrix(1 0 0 1 279.214 427.2461)" class="st6 st7 st8">Mills  10</text>
	<text transform="matrix(1 0 0 1 279.214 445.4075)" class="st6 st7 st8">Mitchell  10</text>
	<text transform="matrix(1 0 0 1 279.2138 463.5682)" class="st6 st7 st8">Monona  10</text>
	<text transform="matrix(1 0 0 1 279.214 409.085)" class="st6 st7 st8">Marshall  10</text>
	<text transform="matrix(1 0 0 1 279.2138 481.7286)" class="st6 st7 st8">Monroe  10</text>
	<text transform="matrix(1 0 0 1 279.2138 499.8889)" class="st6 st7 st8">Montgomery  10</text>
	<text transform="matrix(1 0 0 1 279.2137 518.0503)" class="st6 st7 st8">Muscatine  10</text>
	<text transform="matrix(1 0 0 1 279.2137 536.2101)" class="st6 st7 st8">O&apos;Brien  10</text>
	<text transform="matrix(1 0 0 1 279.2137 554.3623)" class="st6 st7 st8">Osceola  10</text>
	<text transform="matrix(1 0 0 1 279.2137 572.5144)" class="st6 st7 st8">Page  10</text>
	<text transform="matrix(1 0 0 1 279.2137 590.6667)" class="st6 st7 st8">Palo Alto  10</text>
	<text transform="matrix(1 0 0 1 405.5376 154.8994)" class="st6 st7 st8">Plymouth  10</text>
	<text transform="matrix(1 0 0 1 405.5376 173.0515)" class="st6 st7 st8">Pocahontas  10</text>
	<text transform="matrix(1 0 0 1 405.5379 191.1692)" class="st6 st7 st8">Polk  10</text>
	<text transform="matrix(1 0 0 1 405.5376 209.3213)" class="st6 st7 st8">Pottawattamie  10</text>
	<text transform="matrix(1 0 0 1 405.5378 227.4734)" class="st6 st7 st8">Poweshiek  10</text>
	<text transform="matrix(1 0 0 1 405.5378 245.6262)" class="st6 st7 st8">Ringgold  10</text>
	<text transform="matrix(1 0 0 1 405.5376 263.7788)" class="st6 st7 st8">Sac  10</text>
	<text transform="matrix(1 0 0 1 405.5379 281.9314)" class="st6 st7 st8">Scott  10</text>
	<text transform="matrix(1 0 0 1 405.5375 300.084)" class="st6 st7 st8">Shelby  10</text>
	<text transform="matrix(1 0 0 1 405.5375 318.2361)" class="st6 st7 st8">Sioux  10</text>
	<text transform="matrix(1 0 0 1 405.5375 336.3884)" class="st6 st7 st8">Story  10</text>
	<text transform="matrix(1 0 0 1 405.5375 372.6929)" class="st6 st7 st8">Taylor  10</text>
	<text transform="matrix(1 0 0 1 405.5375 390.8459)" class="st6 st7 st8">Union  10</text>
	<text transform="matrix(1 0 0 1 405.5375 408.9987)" class="st6 st7 st8">Van Buren  10</text>
	<text transform="matrix(1 0 0 1 405.5378 354.5405)" class="st6 st7 st8">Tama  10</text>
	<text transform="matrix(1 0 0 1 405.5379 427.1509)" class="st6 st7 st8">Wapello  10</text>
	<text transform="matrix(1 0 0 1 405.5379 445.3031)" class="st6 st7 st8">Warren  10</text>
	<text transform="matrix(1 0 0 1 405.5379 463.4557)" class="st6 st7 st8">Washington  10</text>
	<text transform="matrix(1 0 0 1 405.5379 481.6083)" class="st6 st7 st8">Wayne  10</text>
	<text transform="matrix(1 0 0 1 405.5379 499.7601)" class="st6 st7 st8">Webster  10</text>
	<text transform="matrix(1 0 0 1 405.5379 517.9127)" class="st6 st7 st8">Winnebago  10</text>
	<text transform="matrix(1 0 0 1 405.5379 536.0658)" class="st6 st7 st8">Winneshiek  10</text>
	<text transform="matrix(1 0 0 1 405.5375 572.3701)" class="st6 st7 st8">Worth  10</text>
	<text transform="matrix(1 0 0 1 279.2139 154.8994)" class="st6 st7 st8">Wright  10</text>
	<text transform="matrix(1 0 0 1 405.5378 554.2184)" class="st6 st7 st8">Woodbury  10</text>
</g>
<g id="types">
	<g>
		<circle id="_x34__1_" class="st9" cx="906.5" cy="-39.2" r="17"/>
		
			<text id="_x34__numbers_1_" transform="matrix(1 2.629946e-03 -2.629946e-03 1 891.9509 -35.7023)" class="st15 st7" style="font-size:12px;">2,800</text>
	</g>
	<g>
		<circle id="_x33__1_" class="st9" cx="858.7" cy="-36.7" r="12.8"/>
		
			<text id="_x33__numbers_1_" transform="matrix(1 2.629954e-03 -2.629954e-03 1 848.6574 -32.7193)" class="st15 st7" style="font-size:12px;">510</text>
	</g>
	<g>
		<circle id="_x32__1_" class="st9" cx="819.6" cy="-36.7" r="10.4"/>
		
			<text id="_x32__numbers_1_" transform="matrix(1 2.629936e-03 -2.629936e-03 1 813.9492 -32.8608)" class="st15 st7" style="font-size:10px;">99</text>
	</g>
	<g>
		<circle id="_x31__2_" class="st9" cx="755.1" cy="-36.7" r="6"/>
		
			<text id="_x31__numbers_2_" transform="matrix(1 2.629982e-03 -2.629982e-03 1 751.3271 -34.3575)" class="st15 st7" style="font-size:6px;">10</text>
	</g>
	<g>
		<circle id="_x31__1_" class="st9" cx="785.2" cy="-36.7" r="8"/>
		
			<rect x="781.1" y="-40" transform="matrix(2.629847e-03 -1 1 2.629847e-03 819.3354 748.9272)" class="st10" width="8" height="7.5"/>
		
			<text id="_x31__numbers_1_" transform="matrix(1 2.629927e-03 -2.629927e-03 1 780.4252 -34.4617)" class="st15 st7" style="font-size:8px;">20</text>
	</g>
</g>
<g id="counties">
	<path id="taylor_1_" class="st11" d="M647.7,494.1l-24.9,0.6v19c7.9-0.1,16.3-0.2,24.9-0.5V494.1z"/>
	<path id="fremont" class="st11" d="M592,513.7v-18.5l-23.3,0.5v12.7l2.9,4.7C576.8,513.5,583.8,513.6,592,513.7z"/>
	<polygon id="mills" class="st11" points="568.7,481.8 568.7,492.7 592,492.3 592,472.5 565.8,472.7 	"/>
	<polygon id="pottawattamie" class="st11" points="561.5,463.7 564.6,469.7 605.7,469.3 605.7,445.2 561.5,445.2 	"/>
	<path id="davis" class="st11" d="M764.5,509.6c10-0.4,19.2-0.7,27.1-1.1V503h-2.2v-12.3l-24.9,0.9L764.5,509.6L764.5,509.6z"/>
	<polygon id="wapello" class="st11" points="764.5,488.6 789.4,487.7 789.4,468 785.4,468 785.4,470.8 778.7,470.8 777.2,470.8 
		764.5,470.8 	"/>
	<polygon id="linn" class="st11" points="808.7,388.1 811.3,388.1 811.3,405.6 836.9,404.4 835.9,373 808.7,374.5 	"/>
	<polygon id="keokuk" class="st11" points="781.9,440.2 776.5,440.2 776.1,452.4 778.7,452.4 778.7,467.7 782.4,467.7 782.4,465 
		803.1,465 803.1,440.2 783.4,440.2 	"/>
	<polygon id="clarke_1_" class="st11" points="678.5,490.5 703.5,490 703.5,471.4 678.5,471.6 	"/>
	<polygon id="delaware" class="st11" points="823.2,343.5 825.1,370.5 849.7,369.2 847,342.5 	"/>
	<polygon id="lucas" class="st11" points="706.5,489.9 733.6,489.4 733.6,482.1 731.4,482.1 731.4,471.1 706.5,471.4 	"/>
	<polygon id="monroe" class="st11" points="734.3,479.1 736.5,479.1 736.5,489.3 761.5,488.7 761.5,470.8 734.3,471 	"/>
	<polygon id="calhoun" class="st11" points="622.8,356.4 624.8,383.5 649.7,383.5 647.8,356.4 	"/>
	<polygon id="jones_1_" class="st11" points="839.7,397.8 863.5,397.8 863.5,392.4 863.5,391.1 863.5,371.5 838.9,372.8 	"/>
	<polygon id="pocahontas" class="st11" points="647.7,327.9 620.8,327.9 622.6,353.3 647.7,353.3 	"/>
	<path id="jackson" class="st11" d="M888.2,363.4H881v7.1l-14.5,0.8v19.4l39.1-5.4v-0.1c-1.2-3.5-6.4-7.6-9.7-10.1l-1-0.8
		c-2-1.5-3.9-3-5.3-5.7c-0.9-1.7-1.1-3.3-1.3-4.6C888.2,363.8,888.2,363.6,888.2,363.4z"/>
	<path id="lee_1_" class="st11" d="M823,495.6l-0.2,11.6h0.8l0.9,0.4c0,0,2,0.9,3.1,1.9c2.3,2.1,3.4,4.8,4.4,7.2
		c0.6,1.6,1.3,3,2,3.9c1.1,1.3,3.6,2.7,5.1,3.1c0.3-1.7,0.5-4.8,0.6-6.2c0.1-1.5,0.1-2.7,0.2-3.5c0.7-4.6,1.6-10.3,9.8-12
		c0.5-0.1,0.9-0.2,1.3-0.2l-10.1-5.8H823V495.6L823,495.6z"/>
	<polygon id="henry" class="st11" points="839.1,472.8 837.1,472.8 831.9,468 820.3,468 820.3,475.2 822.8,475.2 823,486.4 
		823,486.4 823,487.9 823,492.6 838.4,492.6 838.4,482.6 840.8,482.6 840.6,474.3 	"/>
	<polygon id="johnson" class="st11" points="811.3,408.6 811.3,421.1 813.6,421.1 813.6,434.6 832.2,434.6 832.2,440.1 834.2,442.1 
		838.1,442.1 837,407.4 	"/>
	<path id="muscatine" class="st11" d="M841.4,448.3l11.6-0.2c0.9-2,2.2-3.9,4-6.1c3.1-3.7,7.9-6.1,13-7.9l-3.1-5.7l-26.1,3
		L841.4,448.3z"/>
	<path id="scott" class="st11" d="M895,421.4c0.6-2.4,1.7-4.5,2.9-6.4l-0.1-0.2h-28.5l-0.2,11.7l3.6,6.7c2.8-0.8,5.5-1.5,8.3-2.1
		C889.1,429.4,893.7,427.3,895,421.4z"/>
	<path id="louisa" class="st11" d="M838.2,445.2H834v20.7l4.3,3.9h2.1l2.3,2.5h10.5l2.7-2.5l6.1,0.1c-0.1-1.7-0.2-3.1-0.6-4.3
		c-0.4-1.2-1.1-1.7-3-2.8c-1.8-1.1-4.1-2.4-5.6-5.2c-1-2-1.3-4.1-0.9-6.3l-13.5,0.2L838.2,445.2z"/>
	<polygon id="washington" class="st11" points="808.9,440.2 806.2,440.2 806.2,465 830.9,465 830.9,443.1 829.2,441.3 829.2,437.6 
		808.9,437.6 	"/>
	<polygon id="jefferson" class="st11" points="792.5,487.5 819.9,486.4 819.9,478.2 817.3,478.2 817.3,468 792.5,468 	"/>
	<path id="page" class="st11" d="M595.1,513.8c7.4,0,15.7,0,24.7-0.1v-18.9l-24.7,0.5V513.8z"/>
	<path id="wayne" class="st11" d="M706.5,503.4h2.3v8.1c8.4-0.2,16.7-0.6,24.7-0.9v-18.3l-27,0.6V503.4z"/>
	<polygon id="montgomery" class="st11" points="595.1,492.2 619.8,491.6 619.8,472.1 595.1,472.4 	"/>
	<path id="van_buren" class="st11" d="M792.5,500h2.2v8.4c11.9-0.5,20.7-0.9,25.1-1l0.3-13.3v-4.6l-27.5,1.1L792.5,500L792.5,500z"
		/>
	<polygon id="cass" class="st11" points="608.7,469.2 634,469 634,445.2 608.7,445.2 	"/>
	<polygon id="carroll" class="st11" points="611.3,411.4 636.2,411.5 636.2,386.5 611.3,386.5 	"/>
	<polygon id="madison" class="st11" points="690.3,442.7 678.5,442.7 678.5,445.2 664.6,445.2 664.6,468.8 690.3,468.4 	"/>
	<polygon id="union_1_" class="st11" points="650.7,491 675.6,490.5 675.6,471.7 650.7,471.9 	"/>
	<polygon id="webster" class="st11" points="675.6,349.4 650.8,349.4 650.8,354.8 652.7,383.5 656.6,383.5 656.6,381.3 677.9,381.3 
		677.9,363.4 675.5,363.4 	"/>
	<polygon id="chickasaw" class="st11" points="763.5,322.2 789.4,321.5 789.4,298.8 762.9,298.2 	"/>
	<polygon id="bremer" class="st11" points="789.4,342 789.4,324.5 763.6,325.2 764.1,344.7 	"/>
	<polygon id="benton" class="st11" points="780.9,390.4 783.4,390.4 783.4,406.9 808.2,405.7 808.2,391.1 805.7,391.1 805.7,374.6 
		794.6,375.2 794.6,375.2 780.9,375.2 	"/>
	<polygon id="tama" class="st11" points="753,381.3 753,408.9 780.4,407.1 780.4,393.4 777.8,393.4 777.8,375.2 763.4,375.2 	"/>
	<polygon id="boone" class="st11" points="666.8,396.1 669.4,396.1 669.4,411.6 694.4,411.8 694.4,384.3 666.8,384.3 	"/>
	<polygon id="polk" class="st11" points="690.3,429.8 693.2,429.8 693.2,439.7 706.5,439.7 706.5,442.1 717.6,442.1 717.6,441.2 
		717.5,427.6 715.2,427.6 715.2,414.3 706.3,414.8 690.3,414.8 	"/>
	<polygon id="mahaska" class="st11" points="749.3,442.7 748.3,442.7 748.3,453 750.9,453 750.9,467.9 761.5,467.8 761.5,467.7 
		775.7,467.7 775.7,455.5 772.9,455.5 773.5,440.2 752.1,440.2 	"/>
	<polygon id="poweshiek" class="st11" points="752.8,422.2 755.3,422.2 755.3,436.1 773.4,436.1 774.8,436.1 780.2,436.1 
		780.2,409.1 752.8,410.9 	"/>
	<polygon id="story_1_" class="st11" points="697.4,411.8 706.2,411.9 722,410.8 722,384.3 697.4,384.3 	"/>
	<polygon id="black_hawk" class="st11" points="789.4,345.1 764.1,347.8 764.4,361.3 766.9,361.3 766.9,372.3 777.8,372.3 
		779.4,372.3 791.6,372.3 791.6,352.8 789.4,352.8 	"/>
	<polygon id="humboldt" class="st11" points="675.6,327.5 661.4,327.9 650.8,327.9 650.8,346.4 675.6,346.4 	"/>
	<polygon id="o_x27_brien" class="st11" points="564.7,324.9 589.6,324.9 589.7,297.9 564.7,297.9 	"/>
	<polygon id="kossuth" class="st11" points="673.1,277.9 648.4,278.3 648.4,296.4 648.4,297.9 648.4,310.1 650.8,310.1 650.8,324.9 
		661.3,324.9 675.7,324.5 675.9,287.9 673.1,287.9 	"/>
	<polygon id="crawford" class="st11" points="608.3,386.5 575.8,386.5 575.8,411.2 608.3,411.3 	"/>
	<polygon id="harrison" class="st11" points="549.6,424.4 560.5,442.1 582.4,442.1 582.4,437.8 580.2,437.8 580.2,414.2 
		549.6,414.1 	"/>
	<polygon id="monona" class="st11" points="548.8,411 572.8,411.2 572.8,386.5 541.2,386.5 	"/>
	<polygon id="cherokee_1_" class="st11" points="564.7,353.3 570.1,353.3 571.6,353.3 589.4,353.3 589.6,327.9 564.7,327.9 	"/>
	<polygon id="ida" class="st11" points="575.8,383.5 594.1,383.5 594.1,363.4 589.3,363.4 589.3,356.4 571.6,356.4 571.6,360.7 
		575.8,360.7 	"/>
	<polygon id="emmet" class="st11" points="620.6,294.9 645.4,294.9 645.4,278.4 620.6,278.9 	"/>
	<polygon id="shelby" class="st11" points="583.1,414.2 583.1,434.7 585.4,434.7 585.4,442.1 612.8,442.1 612.8,435.5 608.3,435.5 
		608.3,414.4 	"/>
	<polygon id="sac" class="st11" points="609.8,383.5 611.3,383.5 621.7,383.5 619.8,356.4 592.4,356.4 592.4,360.3 597.1,360.3 
		597.1,383.5 	"/>
	<polygon id="clay" class="st11" points="592.6,324.9 617.6,324.9 617.6,297.9 592.7,297.9 	"/>
	<polygon id="osceola" class="st11" points="564.7,294.9 589.7,294.9 589.8,279.5 564.7,280 	"/>
	<polygon id="marshall" class="st11" points="749.9,381.9 746.3,382.1 746.3,384.3 725,384.3 725,410.6 749.9,409 	"/>
	<polygon id="jasper" class="st11" points="718.2,424.5 720.4,424.5 720.5,439.7 748.1,439.7 750.9,437.1 752.5,437.1 752.5,426.2 
		749.9,426.2 749.9,412.1 718.2,414.1 	"/>
	<polygon id="buchanan" class="st11" points="792.3,349.8 794.6,349.8 794.6,372.2 822.1,370.7 820.2,343.6 792.3,344.8 	"/>
	<polygon id="clayton_1_" class="st11" points="820.8,308.5 823,340.5 853.4,339.2 848.4,338.4 848.4,330.4 841.2,319.3 
		841.2,307.3 	"/>
	<polygon id="fayette_1_" class="st11" points="792.3,310.2 792.3,341.8 820,340.6 817.7,308.7 	"/>
	<path id="appanoose" class="st11" d="M761.5,491.8l-24.9,0.6v18.2c8.6-0.3,17.1-0.6,24.9-0.9V491.8z"/>
	<polygon id="cedar" class="st11" points="839.8,400.8 840.7,428.5 866.2,425.5 866.5,407.3 863.5,407.3 863.5,400.8 	"/>
	<polygon id="guthrie" class="st11" points="630.8,414.3 630.8,430.6 635.8,433.5 635.8,441.9 660.4,441.9 660.4,435.2 658.2,435.2 
		658.2,414.4 	"/>
	<path id="clinton" class="st11" d="M905.8,388.3l-39.3,5.4v10.6h3l-0.1,7.5h30.2l0.3,0.6c0.5-0.6,0.9-1.1,1.3-1.7
		c2.2-2.6,4.2-5.1,4.6-7.7c0.1-0.6-0.1-1.4-0.4-2.6c-0.3-1.2-0.6-2.5-0.7-4.1c-0.1-2.1,0.3-4.1,0.7-5.8
		C905.6,389.7,905.7,389,905.8,388.3z"/>
	<polygon id="audubon" class="st11" points="634,442.1 634,435.4 629,432.5 629,414.5 611.3,414.4 611.3,432.5 615.8,432.5 
		615.8,442.1 	"/>
	<path id="decatur_1_" class="st11" d="M678.5,493.4v18.9c9-0.2,18.2-0.6,27.3-0.8v-5.2h-2.3V493L678.5,493.4z"/>
	<polygon id="dickinson" class="st11" points="592.9,279.4 592.8,294.9 617.6,294.9 617.6,279 	"/>
	<polygon id="adams" class="st11" points="622.7,491.6 647.7,491.1 647.7,471.9 622.7,472.1 	"/>
	<polygon id="adair" class="st11" points="661.6,445.2 637,445.2 637,469 661.6,468.8 	"/>
	<path id="des_moines" class="st11" d="M841.4,492.6h0.2l11.4,6.6c-0.1-0.8-0.1-1.7,0-2.7c0.5-5.2,1.9-8.3,5.7-12.1l1-1
		c2.6-2.6,2.6-2.7,2.4-6.1c-0.1-1.2-0.1-2.4-0.1-3.7c0-0.2,0-0.4,0-0.6l-5-0.1l-2.7,2.5h-10.8l0.2,10.4h-2.4L841.4,492.6
		L841.4,492.6z"/>
	<path id="ringgold" class="st11" d="M675.6,493.5l-24.8,0.6v19c8.1-0.2,16.4-0.4,24.8-0.6V493.5z"/>
	<polygon id="dallas" class="st11" points="661.8,414.6 661.8,432.4 664,432.4 664,442.1 675,442.1 675,439.7 689.7,439.7 
		689.7,432.8 686.7,432.8 686.7,414.8 	"/>
	<polygon id="warren" class="st11" points="693.2,442.7 693.2,468.4 717.6,468.2 717.6,445.2 703.5,445.2 703.5,442.7 	"/>
	<polygon id="buena_vista" class="st11" points="592.4,353.3 619.6,353.3 617.7,327.9 592.6,327.9 	"/>
	<polygon id="palo_alto" class="st11" points="620.6,297.9 620.6,324.9 647.7,324.9 647.7,313.1 645.4,313.1 645.4,297.9 	"/>
	<polygon id="greene" class="st11" points="659.6,384.3 659.6,386.5 639.2,386.5 639.2,411.5 666.3,411.6 666.3,399.1 663.8,399.1 
		663.8,384.3 	"/>
	<polygon id="iowa" class="st11" points="783.4,409.9 783.4,437.1 805.9,437.1 805.9,434.6 810.5,434.6 810.5,424 808.2,424 
		808.2,408.8 	"/>
	<polygon id="marion" class="st11" points="720.6,442.7 720.6,443.6 720.6,445.2 720.6,468.2 747.9,467.9 747.9,456 745.4,456 
		745.4,442.7 	"/>
	<path id="dubuque" class="st11" d="M870.9,342.8c-0.3-0.3-0.7-0.7-1-1l-11.7-1.9v2.1l-8.1,0.3l2.8,26.6l25.1-1.3v-7.2h8.4
		c-2-1.9-5.3-4.1-6.5-4.2l-4.9,0.6l0.6-5C875.9,348.1,874.3,346.4,870.9,342.8z"/>
	<polygon id="franklin" class="st11" points="706.5,352.5 733.2,351.8 731.7,335.7 731.7,326 706.6,326.7 	"/>
	<polygon id="cerro_gordo" class="st11" points="720.3,296.1 720.3,297.9 706.7,297.9 706.6,323.7 731.7,323.1 731.7,296.1 	"/>
	<polygon id="allamakee" class="st11" points="818.4,275 820.6,305.5 841.2,304.3 841.2,299.3 846.3,292.7 846.3,289.3 836.1,281.2 
		836.1,274.6 	"/>
	<polygon id="butler" class="st11" points="734.7,335.6 736.2,351.7 761.2,351 760.5,325.3 734.7,326 	"/>
	<polygon id="hardin" class="st11" points="706.4,361 711.2,381.3 722,381.3 723.5,381.3 735.8,381.3 733.4,354.8 706.4,355.5 	"/>
	<polygon id="floyd_1_" class="st11" points="734.7,323 760.4,322.3 759.9,298.2 748.9,298 748.9,300.7 734.7,300.7 	"/>
	<polygon id="mitchell" class="st11" points="759.8,295.2 759.3,276.2 734.7,276.7 734.7,297.7 745.8,297.7 745.8,294.8 	"/>
	<polygon id="worth" class="st11" points="706.7,294.9 717.2,294.9 717.2,293.1 731.7,293.1 731.7,276.7 706.8,277.2 	"/>
	<polygon id="lyon" class="st11" points="522.7,291.5 524.5,294.6 524.9,294.9 561.8,294.9 561.8,280.1 527.3,280.7 522.5,281.9 	
		"/>
	<polygon id="sioux" class="st11" points="531.8,301.4 528.5,324.9 561.8,324.9 561.8,297.9 528.1,297.9 	"/>
	<path id="plymouth" class="st11" d="M526.8,330.4c0,1-0.4,2.4-5,9.6l6.2,7.1l2.5,6.1l31.4,0.2V328h-34.1
		C527.3,329,526.9,330,526.8,330.4z"/>
	<polygon id="woodbury" class="st11" points="561.8,356.4 531.7,356.2 533.1,359.7 540.4,383.5 572.8,383.5 572.8,363.7 
		568.6,363.7 568.6,356.4 563.3,356.4 	"/>
	<polygon id="winneshiek" class="st11" points="790.3,283.9 792.3,283.9 792.3,307.2 817.6,305.7 815.5,275.1 790.3,275.6 	"/>
	<polygon id="hancock_1_" class="st11" points="703.7,297.9 678.8,297.9 678.7,324.5 703.6,323.8 	"/>
	<polygon id="wright" class="st11" points="678.5,353.3 703.5,352.6 703.5,326.8 678.7,327.5 	"/>
	<polygon id="winnebago" class="st11" points="676.1,284.9 678.9,284.9 678.9,294.9 703.7,294.9 703.8,277.2 676.1,277.8 	"/>
	<polygon id="howard" class="st11" points="762.8,295.2 789.4,295.8 789.4,286.9 787.3,286.9 787.3,275.7 762.3,276.1 	"/>
	<polygon id="hamilton" class="st11" points="704.4,361.4 704.4,355.9 679.4,356.5 679.4,360.7 681.8,360.7 681.8,381.5 
		709.1,381.5 704.4,361.5 	"/>
	<polygon id="grundy" class="st11" points="761.3,354 736.5,354.7 738.8,381.3 743.3,381.3 743.3,379.1 751,378.9 762.6,372.3 
		763.9,372.3 763.9,364.4 761.5,364.4 	"/>
</g>
<g id="table_data">
	<text transform="matrix(1 0 0 1 21.15 746.3602)" class="st2 st7 st8">Confirmed Cases</text>
	<text transform="matrix(1 0 0 1 21.15 790.2919)" class="st2 st7 st8">Deaths</text>
	<text id="current_date" transform="matrix(1 0 0 1 204.6796 702.078)" class="st2 st7 st8">6 Apr. 2020</text>
	<text id="previous_date" transform="matrix(1 0 0 1 339.4578 702.078)" class="st2 st7 st8">5 Apr. 2020</text>
	<text id="growth_rate__x25_" transform="matrix(1 0 0 1 458.526 702.078)" class="st2 st7 st8">Growth Rate %</text>
	<text transform="matrix(1 0 0 1 673.801 702.078)" class="st2 st7 st8">Total Confirmed Cases</text>
	<text id="current_сases" transform="matrix(1 0 0 1 227.5352 750.1122)" class="st12 st7 st5">783</text>
	<text id="previous_deaths" transform="matrix(1 0 0 1 370.2483 794.5917)" class="st12 st7 st5">14</text>
	<text id="current_deaths" transform="matrix(1 0 0 1 231.0555 793.6118)" class="st12 st7 st5">15</text>
	<text id="total_cases" transform="matrix(1 0 0 1 732.2503 779.2554)" class="st13 st7 st14">783</text>
	<text id="previous_сases" transform="matrix(1 0 0 1 362.3355 750.1122)" class="st12 st7 st5">673</text>
	<text id="cases_growth_rate" transform="matrix(1 0 0 1 492.2487 751.6484)" class="st12 st7 st5">16 %</text>
	<text id="death_growth_rate" transform="matrix(1 0 0 1 496.6479 796.1277)" class="st12 st7 st5">7 %</text>
</g>
<g id="balls">
	<circle id="lee_circle" class="st9" cx="834" cy="505.5" r="10.4"/>
	<text id="lee_numbers" transform="matrix(1 2.629936e-03 -2.629936e-03 1 828.3671 508.3151)" class="st15 st7 st16">60</text>
	<circle id="van_buren_circle" class="st9" cx="807.3" cy="498.1" r="10.4"/>
	<text id="van_buren_numbers" transform="matrix(1 2.629936e-03 -2.629936e-03 1 801.67 500.9691)" class="st15 st7 st16">60</text>
	<circle id="davis_circle" class="st9" cx="776.5" cy="500.2" r="10.4"/>
	<text id="davis_numbers" transform="matrix(1 2.629936e-03 -2.629936e-03 1 770.8726 503.004)" class="st15 st7 st16">60</text>
	<circle id="appanoose_circle" class="st9" cx="748.5" cy="500.9" r="10.4"/>
	<text id="appanoose_numbers" transform="matrix(1 2.629936e-03 -2.629936e-03 1 742.9393 503.7081)" class="st15 st7 st16">60</text>
	<circle id="wayne_circle" class="st9" cx="720.6" cy="501.8" r="10.4"/>
	<text id="wayne_numbers" transform="matrix(1 2.629936e-03 -2.629936e-03 1 714.996 504.5969)" class="st15 st7 st16">60</text>
	<circle id="decatur_circle" class="st9" cx="690.5" cy="502.2" r="10.4"/>
	<text id="decatur_numbers" transform="matrix(1 2.629936e-03 -2.629936e-03 1 684.8589 505.0875)" class="st15 st7 st16">60</text>
	<circle id="ringgold_circle" class="st9" cx="662.5" cy="503.1" r="10.4"/>
	<text id="ringgold_numbers" transform="matrix(1 2.629936e-03 -2.629936e-03 1 656.8923 505.9485)" class="st15 st7 st16">60</text>
	<circle id="taylor_circle" class="st9" cx="634.6" cy="503.6" r="10.4"/>
	<text id="taylor_numbers" transform="matrix(1 2.629936e-03 -2.629936e-03 1 629.0337 506.4207)" class="st15 st7 st16">60</text>
	<circle id="page_circle" class="st9" cx="606.8" cy="504.1" r="10.4"/>
	<text id="page_numbers" transform="matrix(1 2.629936e-03 -2.629936e-03 1 601.1478 506.9373)" class="st15 st7 st16">60</text>
	<circle id="fremont_circle" class="st9" cx="580.8" cy="504" r="10.4"/>
	<text id="fremont_numbers" transform="matrix(1 2.629936e-03 -2.629936e-03 1 575.2367 506.7944)" class="st15 st7 st16">60</text>
	<circle id="des_moines_circle" class="st9" cx="852.3" cy="483.5" r="10.4"/>
	<text id="des_moines_numbers" transform="matrix(1 2.629936e-03 -2.629936e-03 1 846.7337 486.3799)" class="st15 st7 st16">60</text>
	<circle id="henry_circle" class="st9" cx="830.9" cy="479.8" r="10.4"/>
	<text id="henry_numbers" transform="matrix(1 2.629936e-03 -2.629936e-03 1 825.2671 482.591)" class="st15 st7 st16">60</text>
	<circle id="jefferson_circle" class="st9" cx="804.9" cy="476.8" r="10.4"/>
	<text id="jefferson_numbers" transform="matrix(1 2.629936e-03 -2.629936e-03 1 799.2559 479.593)" class="st15 st7 st16">60</text>
	<circle id="wapello_circle" class="st9" cx="776.4" cy="478.7" r="10.4"/>
	<text id="wapello_numbers" transform="matrix(1 2.629936e-03 -2.629936e-03 1 770.783 481.5505)" class="st15 st7 st16">60</text>
	<circle id="monroe_circle" class="st9" cx="749.2" cy="480.1" r="10.4"/>
	<text id="monroe_numbers" transform="matrix(1 2.629936e-03 -2.629936e-03 1 743.5478 482.9373)" class="st15 st7 st16">60</text>
	<circle id="lucas_circle" class="st9" cx="719.5" cy="480.3" r="10.4"/>
	<text id="lucas_numbers" transform="matrix(1 2.629936e-03 -2.629936e-03 1 713.9152 483.1596)" class="st15 st7 st16">60</text>
	<circle id="clarke_circle" class="st9" cx="690.9" cy="480" r="10.4"/>
	<text id="clarke_numbers" transform="matrix(1 2.629936e-03 -2.629936e-03 1 685.3337 482.8207)" class="st15 st7 st16">60</text>
	<circle id="union_circle" class="st9" cx="662.4" cy="480.2" r="10.4"/>
	<text id="union_numbers" transform="matrix(1 2.629936e-03 -2.629936e-03 1 656.8393 483.0429)" class="st15 st7 st16">60</text>
	<circle id="adams_circle" class="st9" cx="635.1" cy="480.6" r="10.4"/>
	<text id="adams_numbers" transform="matrix(1 2.629936e-03 -2.629936e-03 1 629.506 483.4874)" class="st15 st7 st16">60</text>
	<circle id="montgomery_circle" class="st9" cx="606.8" cy="481.7" r="10.4"/>
	<text id="montgomery_numbers" transform="matrix(1 2.629936e-03 -2.629936e-03 1 601.1782 484.4929)" class="st15 st7 st16">60</text>
	<circle id="mills_circle" class="st9" cx="579.3" cy="481.7" r="10.4"/>
	<text id="mills_numbers" transform="matrix(1 2.629936e-03 -2.629936e-03 1 573.7115 484.4929)" class="st15 st7 st16">60</text>
	<circle id="louisa_circle" class="st9" cx="845.8" cy="461" r="10.4"/>
	<text id="louisa_numbers" transform="matrix(1 2.629936e-03 -2.629936e-03 1 840.1823 463.8596)" class="st15 st7 st16">60</text>
	<circle id="washington_circle" class="st9" cx="818.3" cy="451.4" r="10.4"/>
	<text id="washington_numbers" transform="matrix(1 2.629936e-03 -2.629936e-03 1 812.6948 454.2081)" class="st15 st7 st16">60</text>
	<circle id="keokuk_circle" class="st9" cx="790.7" cy="451.8" r="10.4"/>
	<text id="keokuk_numbers" transform="matrix(1 2.629936e-03 -2.629936e-03 1 785.1115 454.6318)" class="st15 st7 st16">60</text>
	<circle id="mahaska_circle" class="st9" cx="761.8" cy="453.7" r="10.4"/>
	<text id="mahaska_numbers" transform="matrix(1 2.629936e-03 -2.629936e-03 1 756.2004 456.5414)" class="st15 st7 st16">60</text>
	<circle id="marion_circle" class="st9" cx="732.4" cy="455.3" r="10.4"/>
	<text id="marion_numbers" transform="matrix(1 2.629936e-03 -2.629936e-03 1 726.7671 458.1041)" class="st15 st7 st16">60</text>
	<circle id="warren_circle" class="st9" cx="705.8" cy="456.5" r="10.4"/>
	<text id="warren_numbers" transform="matrix(1 2.629936e-03 -2.629936e-03 1 700.1974 459.2945)" class="st15 st7 st16">60</text>
	<circle id="madison_circle" class="st9" cx="677.4" cy="456.2" r="10.4"/>
	<text id="madison_numbers" transform="matrix(1 2.629936e-03 -2.629936e-03 1 671.8226 458.9929)" class="st15 st7 st16">60</text>
	<circle id="adair_circle" class="st9" cx="649.5" cy="456.2" r="10.4"/>
	<text id="adair_numbers" transform="matrix(1 2.629936e-03 -2.629936e-03 1 643.856 458.9929)" class="st15 st7 st16">60</text>
	<circle id="cass_circle" class="st9" cx="621.1" cy="456.8" r="10.4"/>
	<text id="cass_numbers" transform="matrix(1 2.629936e-03 -2.629936e-03 1 615.4615 459.6596)" class="st15 st7 st16">60</text>
	<circle id="pottawattamie_circle" class="st9" cx="583.8" cy="456.9" r="10.4"/>
	<text id="pottawattamie_numbers" transform="matrix(1 2.629936e-03 -2.629936e-03 1 578.1559 459.7707)" class="st15 st7 st16">60</text>
	<circle id="muscatine_circle" class="st9" cx="852.3" cy="437.6" r="10.4"/>
	<text id="muscatine_numbers" transform="matrix(1 2.629936e-03 -2.629936e-03 1 846.7042 440.4151)" class="st15 st7 st16">60</text>
	<circle id="scott_circle" class="st9" cx="882" cy="422.3" r="10.4"/>
	<text id="scott_numbers" transform="matrix(1 2.629936e-03 -2.629936e-03 1 876.393 425.0969)" class="st15 st7 st16">60</text>
	<circle id="clinton_circle" class="st9" cx="886.4" cy="400.6" r="10.4"/>
	<text id="clinton_numbers" transform="matrix(1 2.629936e-03 -2.629936e-03 1 880.8115 403.4485)" class="st15 st7 st16">60</text>
	<circle id="cedar_circle" class="st9" cx="853.1" cy="412.8" r="10.4"/>
	<text id="cedar_numbers" transform="matrix(1 2.629936e-03 -2.629936e-03 1 847.517 415.6596)" class="st15 st7 st16">60</text>
	<circle id="johnson_circle" class="st9" cx="825" cy="421.1" r="10.4"/>
	<text id="johnson_numbers" transform="matrix(1 2.629936e-03 -2.629936e-03 1 819.3533 423.9858)" class="st15 st7 st16">60</text>
	<circle id="iowa_circle" class="st9" cx="795.7" cy="423.1" r="10.4"/>
	<text id="iowa_numbers" transform="matrix(1 2.629936e-03 -2.629936e-03 1 790.1448 425.9858)" class="st15 st7 st16">60</text>
	<circle id="poweshiek_circle" class="st9" cx="767.1" cy="422.7" r="10.4"/>
	<text id="poweshiek_numbers" transform="matrix(1 2.629936e-03 -2.629936e-03 1 761.517 425.5414)" class="st15 st7 st16">60</text>
	<circle id="jasper_circle" class="st9" cx="735.5" cy="425.7" r="10.4"/>
	<text id="jasper_numbers" transform="matrix(1 2.629936e-03 -2.629936e-03 1 729.9085 428.5485)" class="st15 st7 st16">60</text>
	<circle id="polk_circle" class="st9" cx="704.9" cy="427.5" r="10.4"/>
	<text id="polk_numbers" transform="matrix(1 2.629936e-03 -2.629936e-03 1 699.2642 430.3262)" class="st15 st7 st16">60</text>
	<circle id="dallas_circle" class="st9" cx="674.5" cy="427.5" r="10.4"/>
	<text id="dallas_numbers" transform="matrix(1 2.629936e-03 -2.629936e-03 1 668.892 430.3262)" class="st15 st7 st16">60</text>
	<circle id="guthrie_circle" class="st9" cx="645.7" cy="427.7" r="10.4"/>
	<text id="guthrie_numbers" transform="matrix(1 2.629936e-03 -2.629936e-03 1 640.0837 430.5485)" class="st15 st7 st16">60</text>
	<circle id="audubon_circle" class="st9" cx="620.9" cy="428.2" r="10.4"/>
	<text id="audubon_numbers" transform="matrix(1 2.629936e-03 -2.629936e-03 1 615.2919 430.9929)" class="st15 st7 st16">60</text>
	<circle id="shelby_circle" class="st9" cx="595.3" cy="428.1" r="10.4"/>
	<text id="shelby_numbers" transform="matrix(1 2.629936e-03 -2.629936e-03 1 589.6974 430.9393)" class="st15 st7 st16">60</text>
	<circle id="harrison_circle" class="st9" cx="566.8" cy="426.8" r="10.4"/>
	<text id="harrison_numbers" transform="matrix(1 2.629936e-03 -2.629936e-03 1 561.1863 429.6596)" class="st15 st7 st16">60</text>
	<circle id="jackson_circle" class="st9" cx="881.8" cy="378.5" r="10.4"/>
	<text id="jackson_numbers" transform="matrix(1 2.629936e-03 -2.629936e-03 1 876.2012 381.3504)" class="st15 st7 st16">60</text>
	<circle id="jones_circle" class="st9" cx="851.4" cy="383.9" r="10.4"/>
	<text id="jones_numbers" transform="matrix(1 2.629936e-03 -2.629936e-03 1 845.8456 386.7374)" class="st15 st7 st16">60</text>
	<circle id="linn_circle" class="st9" cx="823.4" cy="389.5" r="10.4"/>
	<text id="linn_numbers" transform="matrix(1 2.629936e-03 -2.629936e-03 1 817.8456 392.3428)" class="st15 st7 st16">60</text>
	<circle id="benton_circle" class="st9" cx="794.6" cy="389.6" r="10.4"/>
	<text id="benton_numbers" transform="matrix(1 2.629936e-03 -2.629936e-03 1 789.016 392.4429)" class="st15 st7 st16">60</text>
	<circle id="tama_circle" class="st9" cx="766.1" cy="392.9" r="10.4"/>
	<text id="tama_numbers" transform="matrix(1 2.629936e-03 -2.629936e-03 1 760.4641 395.7264)" class="st15 st7 st16">60</text>
	<circle id="marshall_circle" class="st9" cx="737.4" cy="396.7" r="10.4"/>
	<text id="marshall_numbers" transform="matrix(1 2.629936e-03 -2.629936e-03 1 731.7956 399.491)" class="st15 st7 st16">60</text>
	<circle id="story_circle" class="st9" cx="709.6" cy="397.8" r="10.4"/>
	<text id="story_numbers" transform="matrix(1 2.629936e-03 -2.629936e-03 1 703.99 400.6763)" class="st15 st7 st16">60</text>
	<circle id="boone_circle" class="st9" cx="681.1" cy="396.7" r="10.4"/>
	<text id="boone_numbers" transform="matrix(1 2.629936e-03 -2.629936e-03 1 675.5327 399.5452)" class="st15 st7 st16">60</text>
	<circle id="greene_circle" class="st9" cx="651.7" cy="397.3" r="10.4"/>
	<text id="greene_numbers" transform="matrix(1 2.629936e-03 -2.629936e-03 1 646.1085 400.1837)" class="st15 st7 st16">60</text>
	<circle id="carroll_circle" class="st9" cx="623.4" cy="397.6" r="10.4"/>
	<text id="carroll_numbers" transform="matrix(1 2.629936e-03 -2.629936e-03 1 617.803 400.4798)" class="st15 st7 st16">60</text>
	<circle id="crawford_circle" class="st9" cx="591.3" cy="398.2" r="10.4"/>
	<text id="crawford_numbers" transform="matrix(1 2.629936e-03 -2.629936e-03 1 585.7086 400.9949)" class="st15 st7 st16">60</text>
	<circle id="monona_circle" class="st9" cx="558.8" cy="397.8" r="10.4"/>
	<text id="monona_numbers" transform="matrix(1 2.629936e-03 -2.629936e-03 1 553.2382 400.6763)" class="st15 st7 st16">60</text>
	<circle id="dubuque_circle" class="st9" cx="863.9" cy="354.2" r="10.4"/>
	<text id="dubuque_numbers" transform="matrix(1 2.629936e-03 -2.629936e-03 1 858.2641 357.0396)" class="st15 st7 st16">60</text>
	<circle id="delaware_circle" class="st9" cx="836.5" cy="356.2" r="10.4"/>
	<text id="delaware_numbers" transform="matrix(1 2.629936e-03 -2.629936e-03 1 830.8918 359.0396)" class="st15 st7 st16">60</text>
	<circle id="buchanan_circle" class="st9" cx="807.7" cy="356.7" r="10.4"/>
	<text id="buchanan_numbers" transform="matrix(1 2.629936e-03 -2.629936e-03 1 802.1307 359.5391)" class="st15 st7 st16">60</text>
	<circle id="black_hawk_circle" class="st9" cx="778" cy="359.2" r="10.4"/>
	<text id="black_hawk_numbers" transform="matrix(1 2.629936e-03 -2.629936e-03 1 772.3918 362.0115)" class="st15 st7 st16">60</text>
	<circle id="grundy_circle" class="st9" cx="748.6" cy="365.9" r="10.4"/>
	<text id="grundy_numbers" transform="matrix(1 2.629936e-03 -2.629936e-03 1 742.9697 368.723)" class="st15 st7 st16">60</text>
	<circle id="hardin_circle" class="st9" cx="720.6" cy="367.9" r="10.4"/>
	<text id="hardin_numbers" transform="matrix(1 2.629936e-03 -2.629936e-03 1 715.0307 370.723)" class="st15 st7 st16">60</text>
	<circle id="hamilton_circle" class="st9" cx="693.4" cy="368.1" r="10.4"/>
	<text id="hamilton_numbers" transform="matrix(1 2.629936e-03 -2.629936e-03 1 687.7919 370.9615)" class="st15 st7 st16">60</text>
	<circle id="webster_circle" class="st9" cx="663.7" cy="365.2" r="10.4"/>
	<text id="webster_numbers" transform="matrix(1 2.629936e-03 -2.629936e-03 1 658.1085 368.0281)" class="st15 st7 st16">60</text>
	<circle id="calhoun_circle" class="st9" cx="637.2" cy="369.3" r="10.4"/>
	<text id="calhoun_numbers" transform="matrix(1 2.629936e-03 -2.629936e-03 1 631.6307 372.1392)" class="st15 st7 st16">60</text>
	<circle id="sac_circle" class="st9" cx="609.9" cy="369.7" r="10.4"/>
	<text id="sac_numbers" transform="matrix(1 2.629936e-03 -2.629936e-03 1 604.2863 372.5838)" class="st15 st7 st16">60</text>
	<circle id="ida_circle" class="st9" cx="584.4" cy="370.2" r="10.4"/>
	<text id="ida_numbers" transform="matrix(1 2.629936e-03 -2.629936e-03 1 578.8418 373.0281)" class="st15 st7 st16">60</text>
	<circle id="woodbury_circle" class="st9" cx="554.9" cy="370.2" r="10.4"/>
	<text id="woodbury_numbers" transform="matrix(1 2.629936e-03 -2.629936e-03 1 549.2493 373.0281)" class="st15 st7 st16">60</text>
	<circle id="bremer_circle" class="st9" cx="775.9" cy="333.6" r="10.4"/>
	<text id="bremer_numbers" transform="matrix(1 2.629936e-03 -2.629936e-03 1 770.3196 336.3948)" class="st15 st7 st16">60</text>
	<circle id="butler_circle" class="st9" cx="748.2" cy="338.4" r="10.4"/>
	<text id="butler_numbers" transform="matrix(1 2.629936e-03 -2.629936e-03 1 742.603 341.2393)" class="st15 st7 st16">60</text>
	<circle id="franklin_circle" class="st9" cx="719" cy="339.3" r="10.4"/>
	<text id="franklin_numbers" transform="matrix(1 2.629936e-03 -2.629936e-03 1 713.4307 342.0948)" class="st15 st7 st16">60</text>
	<circle id="wright_circle" class="st9" cx="691" cy="340.4" r="10.4"/>
	<text id="wright_numbers" transform="matrix(1 2.629936e-03 -2.629936e-03 1 685.3807 343.2562)" class="st15 st7 st16">60</text>
	<circle id="humboldt_circle" class="st9" cx="663" cy="337.1" r="10.4"/>
	<text id="humboldt_numbers" transform="matrix(1 2.629936e-03 -2.629936e-03 1 657.3585 339.9503)" class="st15 st7 st16">60</text>
	<circle id="pocahontas_circle" class="st9" cx="634.5" cy="339.8" r="10.4"/>
	<text id="pocahontas_numbers" transform="matrix(1 2.629936e-03 -2.629936e-03 1 628.8752 342.6268)" class="st15 st7 st16">60</text>
	<circle id="buena_vista_circle" class="st9" cx="605.7" cy="339.8" r="10.4"/>
	<text id="buena_vista_numbers" transform="matrix(1 2.629936e-03 -2.629936e-03 1 600.0974 342.617)" class="st15 st7 st16">60</text>
	<circle id="cherokee_circle" class="st9" cx="576.5" cy="339.5" r="10.4"/>
	<text id="cherokee_numbers" transform="matrix(1 2.629936e-03 -2.629936e-03 1 570.8974 342.3504)" class="st15 st7 st16">60</text>
	<circle id="plymouth_circle" class="st9" cx="546.6" cy="339.9" r="10.4"/>
	<text id="plymouth_numbers" transform="matrix(1 2.629936e-03 -2.629936e-03 1 540.9863 342.7615)" class="st15 st7 st16">60</text>
	<circle id="clayton_circle" class="st9" cx="833.6" cy="324.9" r="10.4"/>
	<text id="clayton_numbers" transform="matrix(1 2.629936e-03 -2.629936e-03 1 827.9974 327.6949)" class="st15 st7 st16">60</text>
	<circle id="fayette_circle" class="st9" cx="806" cy="324.9" r="10.4"/>
	<text id="fayette_numbers" transform="matrix(1 2.629936e-03 -2.629936e-03 1 800.4085 327.6949)" class="st15 st7 st16">60</text>
	<circle id="chickasaw_circle" class="st9" cx="775.6" cy="309.5" r="10.4"/>
	<text id="chickasaw_numbers" transform="matrix(1 2.629936e-03 -2.629936e-03 1 770.0197 312.3616)" class="st15 st7 st16">60</text>
	<circle id="floyd_circle" class="st9" cx="747.6" cy="311.2" r="10.4"/>
	<text id="floyd_numbers" transform="matrix(1 2.629936e-03 -2.629936e-03 1 741.9474 314.0391)" class="st15 st7 st16">60</text>
	<circle id="cerro_gordo_circle" class="st9" cx="719.8" cy="310.2" r="10.4"/>
	<text id="cerro_gordo_numbers" transform="matrix(1 2.629936e-03 -2.629936e-03 1 714.1696 313.0281)" class="st15 st7 st16">60</text>
	<circle id="hancock_circle" class="st9" cx="691.3" cy="311.3" r="10.4"/>
	<text id="hancock_numbers" transform="matrix(1 2.629936e-03 -2.629936e-03 1 685.6474 314.1392)" class="st15 st7 st16">60</text>
	<circle id="palo_alto_circle" class="st9" cx="633" cy="311.6" r="10.4"/>
	<text id="palo_alto_numbers" transform="matrix(1 2.629936e-03 -2.629936e-03 1 627.3974 314.4642)" class="st15 st7 st16">60</text>
	<circle id="clay_circle" class="st9" cx="605.2" cy="310.5" r="10.4"/>
	<text id="clay_numbers" transform="matrix(1 2.629936e-03 -2.629936e-03 1 599.6418 313.3392)" class="st15 st7 st16">60</text>
	<circle id="o_x27_brien_circle" class="st9" cx="577.6" cy="311.3" r="10.4"/>
	<text id="o_x27_brien_numbers" transform="matrix(1 2.629936e-03 -2.629936e-03 1 572.0197 314.1392)" class="st15 st7 st16">60</text>
	<circle id="sioux_circle" class="st9" cx="546.6" cy="311.3" r="10.4"/>
	<text id="sioux_numbers" transform="matrix(1 2.629936e-03 -2.629936e-03 1 540.9974 314.1282)" class="st15 st7 st16">60</text>
	<circle id="allamakee_circle" class="st9" cx="830.8" cy="290.9" r="10.4"/>
	<text id="allamakee_numbers" transform="matrix(1 2.629936e-03 -2.629936e-03 1 825.2085 293.7171)" class="st15 st7 st16">60</text>
	<circle id="winneshiek_circle" class="st9" cx="804.7" cy="291.1" r="10.4"/>
	<text id="winneshiek_numbers" transform="matrix(1 2.629936e-03 -2.629936e-03 1 799.1363 293.8939)" class="st15 st7 st16">60</text>
	<circle id="howard_circle" class="st9" cx="775.7" cy="284.3" r="10.4"/>
	<text id="howard_numbers" transform="matrix(1 2.629936e-03 -2.629936e-03 1 770.0974 287.1116)" class="st15 st7 st16">60</text>
	<circle id="mitchell_circle" class="st9" cx="746.7" cy="284.1" r="10.4"/>
	<text id="mitchell_numbers" transform="matrix(1 2.629936e-03 -2.629936e-03 1 741.1252 287.9615)" class="st15 st7 st16">60</text>
	<circle id="worth_circle" class="st9" cx="719.3" cy="283.4" r="10.4"/>
	<text id="worth_numbers" transform="matrix(1 2.629936e-03 -2.629936e-03 1 713.653 286.2225)" class="st15 st7 st16">60</text>
	<circle id="winnebago_circle" class="st9" cx="691.1" cy="284.7" r="10.4"/>
	<text id="winnebago_numbers" transform="matrix(1 2.629936e-03 -2.629936e-03 1 685.5197 287.5557)" class="st15 st7 st16">60</text>
	<circle id="kossuth_circle" class="st9" cx="662.5" cy="301" r="10.4"/>
	<text id="kossuth_numbers" transform="matrix(1 2.629936e-03 -2.629936e-03 1 656.853 303.8282)" class="st15 st7 st16">60</text>
	<circle id="emmet_circle" class="st9" cx="633.5" cy="285" r="10.4"/>
	<text id="emmet_numbers" transform="matrix(1 2.629936e-03 -2.629936e-03 1 627.903 287.7891)" class="st15 st7 st16">60</text>
	<circle id="dickinson_circle" class="st9" cx="605.2" cy="286.9" r="10.4"/>
	<text id="dickinson_numbers" transform="matrix(1 2.629936e-03 -2.629936e-03 1 599.6418 289.7049)" class="st15 st7 st16">60</text>
	<circle id="osceola_circle" class="st9" cx="577.7" cy="286.1" r="10.4"/>
	<text id="osceola_numbers" transform="matrix(1 2.629936e-03 -2.629936e-03 1 572.0974 288.8892)" class="st15 st7 st16">60</text>
	<circle id="lyon_circle" class="st9" cx="543.9" cy="286.9" r="10.4"/>
	<text id="lyon_numbers" transform="matrix(1 2.629936e-03 -2.629936e-03 1 538.2604 289.7791)" class="st15 st7 st16">60</text>
</g>
</svg>
