<?xml version="1.0" encoding="utf-8"?>
<!-- Generator: Adobe Illustrator 24.1.2, SVG Export Plug-In . SVG Version: 6.00 Build 0)  -->
<svg version="1.1" id="all" xmlns="http://www.w3.org/2000/svg" xmlns:xlink="http://www.w3.org/1999/xlink" x="0px" y="0px"
	 viewBox="0 0 916.5 781.8" style="enable-background:new 0 0 916.5 781.8;" xml:space="preserve">
<style type="text/css">
	.st0{fill:#F5FBFE;}
	.st1{fill:#DDEEFA;}
	.st2{fill:#4C4B4D;}
	.st3{font-family:'ArialMT';}
	.st4{font-size:13px;}
	.st5{font-size:14px;}
	.st6{letter-spacing:3;}
	.st7{fill:#255078;}
	.st8{font-family:'Georgia';}
	.st9{font-size:16px;}
	.st10{font-size:18px;}
	.st11{fill:#4C4B4C;}
	.st12{fill:#DB3029;}
	.st13{font-size:36px;}
	.st14{fill:#CD483B;}
	.st15{fill:none;}
	.st16{fill:#AED9F4;}
	.st17{fill:#FFFFFF;}
	.st18{font-size:10.3181px;}
</style>
<polygon id="blue_bg_1_" class="st0" points="0,646.5 0,683.5 0,693.1 0,781.9 173.5,781.9 173.5,693.1 915,693.1 915,646.5 "/>
<path id="line_bg_1_" class="st1" d="M916.5,0H0l0,0v647.1v2V692v2v42.9v2v42.9l0,0h579.8l0,0H913l0,0h3.5V0z M913,56.8v590.3H578.4
	l-0.6-0.3v0.3H443.6l-0.6-0.3v0.3H3V56.8H913z M913,649.1V692H579.8v-42.9H913z M445.1,692.1v-42.9h132.8v42.9H445.1z M577.8,694.1
	V737H445.1v-42.9H577.8z M310.3,692.1v-42.9h132.8v42.9H310.3z M443.1,694.1V737H310.3v-42.9H443.1z M175.5,692.1v-42.9h132.8v42.9
	H175.5z M308.3,694.1V737H175.5v-42.9H308.3z M173.5,649.1V692H3v-42.9H173.5z M173.5,694.1V737H3v-42.9H173.5z M3,739h170.5v39.9H3
	V739z M175.5,739h132.8v39.9H175.5V739z M310.3,739h132.8v39.9H310.3V739z M445.1,739h132.8v39.9H445.1V739z M579.8,694.1H913v84.8
	H579.8V694.1z"/>
<text transform="matrix(1 0 0 1 32.8482 122.1692)" class="st2 st3 st4">Albany  2,698</text>
<text transform="matrix(1 0 0 1 32.8481 146.3921)" class="st2 st3 st4">Allegany  2,305</text>
<text transform="matrix(1 0 0 1 32.8483 170.615)" class="st2 st3 st4">Bronx 2,294</text>
<text transform="matrix(1 0 0 1 32.8483 194.8376)" class="st2 st3 st4">Broome 1,724</text>
<text transform="matrix(1 0 0 1 32.8483 219.0603)" class="st2 st3 st4">Cattaraugus 1,353</text>
<text transform="matrix(1 0 0 1 32.8483 243.2837)" class="st2 st3 st4">Cayuga  1,331</text>
<text transform="matrix(1 0 0 1 32.8481 267.506)" class="st2 st3 st4">Chautauqua 883</text>
<text transform="matrix(1 0 0 1 32.8481 291.7289)" class="st2 st3 st4">Chemung 679</text>
<text transform="matrix(1 0 0 1 32.8481 315.9523)" class="st2 st3 st4">Chenango 480</text>
<text transform="matrix(1 0 0 1 32.8481 340.4408)" class="st2 st3 st5">Clinton 379</text>
<text transform="matrix(1 0 0 1 32.8481 364.3978)" class="st2 st3 st4">Columbia 324</text>
<text transform="matrix(1 0 0 1 32.8481 388.6207)" class="st2 st3 st4">Cortland 318</text>
<text transform="matrix(1 0 0 1 32.8481 412.8434)" class="st2 st3 st4">Delaware 311</text>
<text transform="matrix(1 0 0 1 32.8481 437.0665)" class="st2 st3 st4">Dutchess 274</text>
<text transform="matrix(1 0 0 1 32.8481 461.2893)" class="st2 st3 st4">Erie 243</text>
<text transform="matrix(1 0 0 1 32.8481 485.5118)" class="st2 st3 st4">Essex 183</text>
<text transform="matrix(1 0 0 1 32.8481 509.7354)" class="st2 st3 st4">Franklin 172</text>
<text transform="matrix(1 0 0 1 32.8481 558.4468)" class="st2 st3 st5">Genesee 170</text>
<text transform="matrix(1 0 0 1 32.8481 533.958)" class="st2 st3 st4">Fulton 168</text>
<text transform="matrix(1 0 0 1 32.8481 582.4036)" class="st2 st3 st4">Greene 166</text>
<text transform="matrix(1 0 0 1 32.8481 606.6262)" class="st2 st3 st4">Hamilton 159</text>
<text transform="matrix(1 0 0 1 32.8482 630.8499)" class="st2 st3 st4">Herkimer 156</text>
<text transform="matrix(1 0 0 1 175.5218 122.1694)" class="st2 st3 st5">Jefferson 149</text>
<text transform="matrix(1 0 0 1 175.5001 146.3921)" class="st2 st3 st5">Kings 143</text>
<text transform="matrix(1 0 0 1 175.5216 170.6151)" class="st2 st3 st5">Lewis 142</text>
<text transform="matrix(1 0 0 1 175.4998 194.838)" class="st2 st3 st5">Livingston 140</text>
<text transform="matrix(1 0 0 1 175.5216 219.0609)" class="st2 st3 st5">Madison 123</text>
<text transform="matrix(1 0 0 1 249.7498 239.2739)" class="st2 st3 st5 st6"> </text>
<text transform="matrix(1 0 0 1 175.5001 243.2841)" class="st2 st3 st5">Monroe 122</text>
<text transform="matrix(1 0 0 1 175.5001 267.5068)" class="st2 st3 st5">Montgomery 109</text>
<text transform="matrix(1 0 0 1 175.5001 291.7292)" class="st2 st3 st5">Nassau 100</text>
<text transform="matrix(1 0 0 1 175.5001 315.9524)" class="st2 st3 st5">New York 99</text>
<text transform="matrix(1 0 0 1 175.5001 340.1752)" class="st2 st3 st5">Niagara 89</text>
<text transform="matrix(1 0 0 1 175.5001 364.3978)" class="st2 st3 st5">Oneida 76</text>
<text transform="matrix(1 0 0 1 175.5001 388.6207)" class="st2 st3 st5">Onondaga 75</text>
<text transform="matrix(1 0 0 1 175.5001 412.8442)" class="st2 st3 st5">Ontario 69</text>
<text transform="matrix(1 0 0 1 175.5001 437.0665)" class="st2 st3 st5">Orange 64</text>
<text transform="matrix(1 0 0 1 175.5001 461.2896)" class="st2 st3 st5">Orleans 63</text>
<text transform="matrix(1 0 0 1 175.5001 485.5127)" class="st2 st3 st5">Oswego 58</text>
<text transform="matrix(1 0 0 1 175.5001 509.735)" class="st2 st3 st5">Otsego 50</text>
<text transform="matrix(1 0 0 1 175.5001 533.9584)" class="st2 st3 st5">Putnam 48</text>
<text transform="matrix(1 0 0 1 175.5001 558.181)" class="st2 st3 st5">Queens 43</text>
<text transform="matrix(1 0 0 1 175.5001 582.4039)" class="st2 st3 st5">Rensselaer 40</text>
<text transform="matrix(1 0 0 1 175.5001 606.6268)" class="st2 st3 st5">Richmond 40</text>
<text transform="matrix(1 0 0 1 175.5002 630.8496)" class="st2 st3 st5">Rockland 38</text>
<text transform="matrix(1 0 0 1 321.2753 122.1692)" class="st2 st3 st5">St. Lawrence 36</text>
<text transform="matrix(1 0 0 1 321.2968 146.3918)" class="st2 st3 st5">Saratoga 34</text>
<text transform="matrix(1 0 0 1 321.2753 170.6144)" class="st2 st3 st5">Schenectady 32</text>
<text transform="matrix(1 0 0 1 321.2753 194.8378)" class="st2 st3 st5">Schoharie 31</text>
<text transform="matrix(1 0 0 1 321.2753 219.0607)" class="st2 st3 st5">Schuyler 31</text>
<text transform="matrix(1 0 0 1 321.2753 243.283)" class="st2 st3 st5">Seneca 30</text>
<text transform="matrix(1 0 0 1 321.2753 267.5061)" class="st2 st3 st5">Steuben 28</text>
<text transform="matrix(1 0 0 1 321.2753 291.729)" class="st2 st3 st5">Suffolk 27</text>
<text transform="matrix(1 0 0 1 321.2753 315.9515)" class="st2 st3 st5">Sullivan 26</text>
<text transform="matrix(1 0 0 1 321.2753 340.1749)" class="st2 st3 st5">Tioga 25</text>
<text transform="matrix(1 0 0 1 321.2753 364.3978)" class="st2 st3 st5">Tompkins 24</text>
<text transform="matrix(1 0 0 1 321.2753 388.6202)" class="st2 st3 st5">Ulster 24</text>
<text transform="matrix(1 0 0 1 321.2753 412.8436)" class="st2 st3 st5">Warren 22</text>
<text transform="matrix(1 0 0 1 321.2753 437.0662)" class="st2 st3 st5">Washington 21</text>
<text transform="matrix(1 0 0 1 321.2753 461.2891)" class="st2 st3 st5">Wayne 20</text>
<text transform="matrix(1 0 0 1 321.2753 485.5118)" class="st2 st3 st5">Westchester 19</text>
<text transform="matrix(1 0 0 1 321.2753 509.7345)" class="st2 st3 st5">Wyoming 19</text>
<text transform="matrix(1 0 0 1 321.2753 533.9574)" class="st2 st3 st5">Yates 18</text>
<text id="confirmed" transform="matrix(1 0 0 1 32.8483 91.2512)" class="st7 st8 st9">State Confirmed Cases By County</text>
<text id="title_1_" transform="matrix(1 0 0 1 32.8483 35.8369)" class="st7 st8 st10">COVID-19 in New York on</text>
<text id="date_1_" transform="matrix(1 0 0 1 251.7495 35.8369)" class="st7 st8 st10">April 27th, 2020</text>
<g id="table_data">
	<text transform="matrix(1 0 0 1 23.0454 721.1666)" class="st7 st3 st5">Confirmed Cases</text>
	<text transform="matrix(1 0 0 1 23.0454 765.0983)" class="st7 st3 st5">Deaths</text>
	<text id="current_date" transform="matrix(1 0 0 1 206.5751 676.8844)" class="st7 st3 st5">6 Apr. 2020</text>
	<text id="previous_date" transform="matrix(1 0 0 1 341.3533 676.8844)" class="st7 st3 st5">5 Apr. 2020</text>
	<text id="growth_rate__x25_" transform="matrix(1 0 0 1 460.4216 676.8844)" class="st7 st3 st5">Growth Rate %</text>
	<text transform="matrix(1 0 0 1 675.6966 676.8844)" class="st7 st3 st5">Total Confirmed Cases</text>
	<text id="current_сases" transform="matrix(1 0 0 1 229.4307 724.9186)" class="st11 st3 st9">783</text>
	<text id="previous_deaths" transform="matrix(1 0 0 1 372.1436 769.3981)" class="st11 st3 st9">14</text>
	<text id="current_deaths" transform="matrix(1 0 0 1 232.951 768.4183)" class="st11 st3 st9">15</text>
	<text id="total_cases" transform="matrix(1 0 0 1 716.3183 754.0618)" class="st12 st3 st13">783</text>
	<text id="previous_сases" transform="matrix(1 0 0 1 364.231 724.9186)" class="st11 st3 st9">673</text>
	<text id="cases_growth_rate" transform="matrix(1 0 0 1 494.1442 726.4548)" class="st11 st3 st9">16 %</text>
	<text id="death_growth_rate" transform="matrix(1 0 0 1 498.5435 770.9341)" class="st11 st3 st9">7 %</text>
</g>
<g id="TYPES_1_">
	<g>
		<circle id="_x33__1_" class="st14" cx="850.1" cy="-57.5" r="11.2"/>
		
			<text id="_x33__numbers_1_" transform="matrix(1 2.629927e-03 -2.629927e-03 1 840.5452 -55.523)" class="st17 st3" style="font-size:7px;">1,000</text>
	</g>
	<g>
		<circle id="_x32__1_" class="st14" cx="816.1" cy="-57.8" r="7.8"/>
		
			<text id="_x32__numbers_1_" transform="matrix(1 2.629909e-03 -2.629909e-03 1 809.1979 -54.9406)" class="st17 st3" style="font-size:7px;">100</text>
	</g>
	<g>
		<circle id="_x31__2_" class="st14" cx="762" cy="-56.7" r="5"/>
		
			<text id="_x31__numbers_2_" transform="matrix(1 2.629955e-03 -2.629955e-03 1 758.3326 -54.0901)" class="st17 st3" style="font-size:6px;">10</text>
	</g>
	<g>
		<circle id="_x31__1_" class="st14" cx="787.2" cy="-56.7" r="6.7"/>
		
			<rect x="783.8" y="-59.6" transform="matrix(2.629874e-03 -1 1 2.629874e-03 841.4916 730.8105)" class="st15" width="6.7" height="6.3"/>
		
			<text id="_x31__numbers_1_" transform="matrix(1 2.629900e-03 -2.629900e-03 1 783.3829 -54.7424)" class="st17 st3" style="font-size:6px;">50</text>
	</g>
	<g>
		<circle id="_x34__1_" class="st14" cx="886.2" cy="-55.7" r="13.7"/>
		
			<text id="_x34__numbers_1_" transform="matrix(1 2.629919e-03 -2.629919e-03 1 874.9567 -52.9854)" class="st17 st3" style="font-size:7px;">25,000</text>
	</g>
</g>
<g id="counties">
	<path id="Chemung" class="st16" d="M604.5,401.9l-2.7,2.3l4.7,13.4c5.6-1.2,11.3-2.3,17.1-3.5l-1.9-13.6l-3.2,2.2l-3.8,4.4l-3.1-6
		L604.5,401.9z"/>
	<path id="Steuben" class="st16" d="M569.8,389.2l-9.7,9.3l5.4,27.2c12.3-2.4,25.2-4.9,38.4-7.6l-4.6-13.1h-3.4l-4.4,3.7v-5.9
		c-2.4-1.3-2.5-2.2-2.6-2.6c0-0.5,0.1-0.9,0.4-1.2c0.2-0.9,0.1-4.4-0.2-7.6H586l-1.6-6.6l-11,2.5L569.8,389.2z"/>
	<polygon id="Oneida" class="st16" points="642,323.2 644.4,323.2 644.4,328.7 644.8,328.7 647.1,326.9 651,326.9 654.3,328.1 
		660.4,331.4 664.4,342.8 669.1,344.9 673.1,344.9 675.6,342.5 677.7,342.5 678.9,342.5 679.6,342.5 679.6,337.6 677.2,337.6 
		677,328.1 681.4,318.2 681.4,314.7 674.6,291.9 674,291.9 657.5,309.2 649.7,309.2 649.7,307.1 647.1,307.2 647.1,307.3 642,307.3 
			"/>
	<polygon id="Yates" class="st16" points="575.6,372.7 575.6,384.3 586.4,381.8 588.1,388.8 590.1,388.8 599.9,384.3 600.6,384.1 
		591.7,371.9 591.7,371.7 	"/>
	<polygon id="Fulton" class="st16" points="702.4,309.2 702.4,324.4 709.1,324.4 708,326.9 713.5,326.9 716.6,324.5 723.2,322.3 
		733,320 728.4,306.5 713.9,309 713.9,311.2 703.4,311.2 703.4,309.2 	"/>
	<polygon id="Columbia_1_" class="st16" points="760.7,377.3 760.7,379.9 763.6,381 771.2,384.4 778.4,384.5 776.2,375.1 
		776.2,350.4 766.4,353.4 761.6,355.4 761.6,359.8 763.8,359.8 763.8,370.9 	"/>
	<polygon id="Rensselaer" class="st16" points="761.6,318.8 760.7,319.4 760.7,324 761.8,324 761.6,352.5 765.5,350.9 776.2,347.6 
		776.2,316.9 769.2,318.8 	"/>
	<path id="Ulster" class="st16" d="M719.7,397.1l1.7,1.5l9.7,1.5l5.5,4.3l-0.3,0.9c0,0-0.3,1,0,2.2c0.4,1.5-1.2,3.6-3.1,5.4l4.4,1.2
		l6,3l1.8,2.4h3l1.5-2.6h4.5v2.1l8.6-0.4l1.5-1.1l-0.7-5.5l-3.1-10.9l-1.4-2v-0.5c0.3-3.1,0.4-6.9,0.2-7.9c-0.7-0.8-1.3-2-1.4-2.1
		l-0.1-0.3v-6.8l-2.9-2.1h-1.5c-0.8,2.2-1.5,4.7-1.5,5.4c0,0.5-0.2,0.9-0.5,1.3c-0.4,0.3-1.4,1.3-9.4,0.3v1.7h-5.3l-4.8-4.5h-1.9
		l-2.7,3.9L719.7,397.1z"/>
	<path id="Sullivan" class="st16" d="M704.6,412.2l12.8,21.2h9.2l0.2,0.2l0.2-0.2l3.4-2.6l0.5,0.1c2.2,0.3,4.5,0.4,5,0.2
		c0.6-0.4,1.8-1.2,2.6-1.6v-3.2l2.8-2.8l2-2.7l-1.2-1.6l-5.3-2.7l-8.8-2.2l1.9-1.6c2.1-1.8,4-3.9,4.1-4.6c-0.3-1-0.2-1.9-0.2-2.6
		l-3.6-2.9l-9.8-1.5L718,399L704.6,412.2z"/>
	<polygon id="Schenectady" class="st16" points="741.2,325.8 740,325.8 740,328.7 732.8,335.3 736.7,337.9 749.7,331.5 749.7,330.1 
		742.8,327 	"/>
	<polygon id="Albany" class="st16" points="738.8,362 740.3,361 749.5,357.6 759,353.6 759.2,330.9 758.3,331.2 758.3,333.6 
		751.3,333.6 738.8,339.8 	"/>
	<polygon id="Schoharie" class="st16" points="714.1,360.9 715.4,360.9 728.8,369 736.2,363.8 736.2,340.7 730.5,336.9 723.1,340 
		711.5,341.4 711.9,347.6 717.2,357.4 714.1,357.4 	"/>
	<path id="Greene" class="st16" d="M727.7,380.9h1.1h0.7h3.6l4.8,4.5h1.7v-2.1l1.5,0.2c3.2,0.5,7.1,0.8,8.5,0.6
		c0.3-1.9,1.5-5.3,1.9-6.5l0.3-0.8h4.2l2,1.5v-1.6l3.1-6.4v-7.9h-2.2v-6l-8.6,3.6l-9.1,3.3l-2.5,1.8l0,0l-0.6,0.4l-4.1,2.9l-4,2.8
		l0.4,6.1h-2.8L727.7,380.9L727.7,380.9z"/>
	<polygon id="Seneca" class="st16" points="591.7,362.2 591.7,364 594.3,364 594.3,371 603.2,383.3 609.5,381.3 609.5,377.1 
		604.5,368.6 601.7,349.3 600.9,349.7 593.3,353.4 592.5,353.4 594.3,356.6 594.3,362.2 	"/>
	<path id="Ontario" class="st16" d="M562,376.4l2.7,4.3h1.6l0.3,0.2c1.1,0.7,2.5,1.5,2.8,1.6c0.7,0.2,1.3,0.8,1.1,3.4l2.1-1l0.3-0.1
		v-14.6l18.7-1.1v-2.5H589v-7h2.6v-2.3l-2.2-3.9H587l-1,2.4l-6.5-1.6v-0.8h-7l-3.2,1.7v0.1l-5.2,1.8v0.2l2.7,2.2l-2.1,4h-2.4
		c0.1,0.9,0.1,1.9,0.1,2.5c0.2,0.1,0.4,0.2,0.6,0.3l1.6,0.5l-2.4,3.9L562,376.4z"/>
	<path id="Oswego" class="st16" d="M617.2,307.8c-1.8,1.2-3.6,0.6-5.5,1.5c-1.5,0.7-2.5,2.7-3.5,3.8c-1.8,2-3.9,3.6-5.9,5.3l1.3-0.1
		l0.4,7.4l3.2,2.7l3,0.5l1.5,1.8l13.2-5.6h4l10.1,4.2l2.9-0.3v-3.2h-2.4v-21.1h4.1l-3.6-11.1c-1.9,0.5-5.4,1.2-12.2,2.2l-6.9,3.7
		l-0.6-1.1c0.5,1.3,0.8,2.6,0.6,3.9C620.3,304.3,618.9,306.6,617.2,307.8"/>
	<path id="Erie" class="st16" d="M493.1,389.1c-4.8,3.7-7.4,7.3-8.9,13l0.9-0.9l3.4,3.4l4.6,2.3l5.8,3.6l4.4-2.8l9.7-5.2l5.5-4.2
		h1.4l-2.5-9.1l-3.6-4.5v-1.3l-2.1-20.5l-28.1,5.7c0.1,0.3,0.3,0.6,0.5,0.9c2.5,3.8,7.9,3.2,10.2,7.6c1,1.9,2.2,4.6,2.3,6.7
		C496.7,387.1,495.1,387.6,493.1,389.1"/>
	<path id="Livingston" class="st16" d="M547.7,363.5v2h-3.8l-1.7,3.4v4.8c1.3,4.8,2,7.5,2,8.1c0,0.2,0.4,1.2,0.7,2
		c1,3,1.3,3.9,1,4.6c-0.1,0.2-0.3,0.9-3.3,4.2l-0.7,4l4.7-0.2l2.2-1.1h4.6l5,1.3l9.5-9.1c0.2-1.1,0.2-2.2,0.2-2.8
		c-0.7-0.4-1.8-1-2.4-1.4h-2.4l-3.9-6.2l0.2-7.1l1.2-1.9c-0.5-0.4-1-0.9-1-1.7c0-0.3-0.1-1.7-0.1-2.9h-0.5l-2.2,2h-5.7v-2
		L547.7,363.5L547.7,363.5z"/>
	<path id="Lewis" class="st16" d="M640.8,289.7c0.6,0.7,1,1.2,1.1,1.7l0,0l4.3,13.1l6.1-0.2v2.2h4.1l16.5-17.3h0.9l-7.3-21.6
		c-0.2-0.4-0.7-1.8-0.7-2.6c-0.1-0.5-1-4.3-2-7.9l-15.1-3.9l-1.2,5.2v1.4l2.4,3.1v5.8l-1.4,1.7l-8.4,7.8c0.6,7.3,0.3,9.6-0.1,10.5
		C640.2,289,640.6,289.4,640.8,289.7"/>
	<polygon id="Hamilton" class="st16" points="693.9,293.3 693.6,298.8 691.9,301.3 691.9,305 694.8,305.1 699,306.6 706,306.6 
		706,308.6 711.3,308.6 711.3,306.8 727.9,304 727.9,301.3 725.1,300.1 725.1,295.3 720.2,284.5 715.3,271.4 723.9,268.1 
		723.3,265.8 718.6,265.9 717.3,267.8 708.3,261.5 706.6,256.6 709.1,256.6 709.1,252 708.1,250 708.1,246.9 699.3,248.5 
		696.3,250.3 696.3,250.4 682.1,257.2 	"/>
	<path id="Essex" class="st16" d="M710.2,259.2l0.2,0.7l6.2,4.3l0.6-0.8l8-0.3l1.2,4.1l29.2-11.1l-9.1-18.5l1.6-11.7l0.3-8
		l-1.5-10.3l-1.9-2l-0.3,0.5l1.7,1.9l-1.2,0.8c-2.4,1.6-5.2,3.5-5.7,4c-0.8,1.2-4.7,4.4-5.6,4.7c-0.6,0.2-2.4,0.2-5.4,0.1L722,221
		l-8.7,4.8l3.2,10.8l2.1,4.3v3.2l-7.6,2.2v3.1l1,2v7.8H710.2z"/>
	<polygon id="Rockland" class="st16" points="772.5,445.7 769.6,442.5 769.6,438.4 762.6,448.3 776.6,452.8 776,452.2 776,448 	"/>
	<path id="Orange" class="st16" d="M769.1,435.5l-1.1-2.3l-2.5-1.6v-6.9l-0.6-4.3l-1,0.7l-12.1,0.5v-2.3h-0.4l-1.5,2.6h-4.5L743,425
		l-2.1,2.1v3.7l-0.7,0.4c-0.6,0.4-2.4,1.4-3.1,1.9c-0.8,0.6-2.9,0.7-6.3,0.3l-2.2,1.7l3.6,2.8l19.3,8.7l8.2,0.9l8.2-11.7
		L769.1,435.5z"/>
	<path id="Dutchess" class="st16" d="M775,420.8c0.5-0.2,6-2.5,9.4-3.9l1.5-0.5l-6.9-29.3l-8.4-0.1l-8-3.5l-1.9-0.8v5
		c0.2,0.5,0.6,1.1,0.9,1.4c0.4,0.4,1.1,1.1,0.4,9.3l1.2,1.8l3.2,11.4l1.6,11.8h1.2C770.5,422.8,774.4,421,775,420.8"/>
	<path id="Tioga" class="st16" d="M626.1,413.6c6.3-1.3,12.6-2.7,18.9-4l0.1-4.5h-1.6l-0.4-3l0.7-3.6h2.2l-0.6-3.8l-3.7-3.7
		c-0.7-0.7-0.8-2-0.7-3.2l-5.5-0.3l-11.4,11.2L626.1,413.6z"/>
	<path id="Allegany" class="st16" d="M552.8,397.8h-3.5l-2.2,1.1l-6.8,0.2l-10.7,1.7l6.3,30.4c8.6-1.6,17.6-3.3,27-5.1l-5.4-27.1
		L552.8,397.8z"/>
	<polygon id="Warren" class="st16" points="718.6,272.9 722.6,283.5 727.1,293.4 729.7,292.7 736.3,289.3 739.4,289.3 744.4,295.8 
		747.6,301.1 748,301.1 752.7,295.6 754.4,294.4 751.3,289.5 749.7,275.9 751.9,271 753.4,269.4 753.3,269.4 753.3,264.6 
		754.2,262.7 753.5,259.6 	"/>
	<polygon id="Saratoga" class="st16" points="730.5,304.9 735.9,320.3 737.5,322.5 739,323.2 742,323.2 744.2,324.8 752.3,328.4 
		752.3,331 755.7,331 755.7,329.1 759.2,328.2 759.2,326.6 758.1,326.6 758.1,318 759.8,316.8 759.2,306.5 755.5,296.8 754.3,297.6 
		749.2,303.7 746.1,303.7 742.2,297.3 738.1,291.9 736.9,291.9 730.5,295.1 727.7,295.9 727.7,298.4 730.5,299.6 	"/>
	<polygon id="Montgomery" class="st16" points="702.4,327.8 707,336.3 710.5,338.9 722.6,337.4 730,334.3 737.4,327.6 737.4,325.3 
		735.8,324.6 734.2,322.4 723.9,324.8 717.6,326.9 714.5,329.5 704,329.5 705.1,327 702.4,327 	"/>
	<polygon id="Cortland" class="st16" points="636,384.9 642.2,385.3 643.7,384.7 652.6,381.1 652.6,378 649.8,363.8 649.1,361.7 
		649.1,361.7 647.4,356.1 630.5,363 	"/>
	<polygon id="Washington" class="st16" points="753.9,272.6 752.4,276.3 753.8,288.6 757.8,295.1 757.7,295.2 761.8,306.2 
		762.4,316.2 769,316.2 775.9,314.3 765.7,275.7 760,274.8 755.4,271.1 	"/>
	<polygon id="Madison" class="st16" points="640,332.4 645.5,340.6 649.1,352.6 649.1,352.6 650.8,358.4 666.7,353.1 675.4,350.8 
		677.6,350.8 677.6,345.1 676.6,345.1 674.2,347.5 668.6,347.5 662.3,344.7 658.3,333.2 653.1,330.4 650.4,329.5 648,329.5 
		645.8,331.2 640,331.8 	"/>
	<polygon id="Chenango" class="st16" points="675.6,353.4 667.4,355.6 651.6,360.9 652.3,363.2 655.2,377.8 655.2,381.6 657,384.2 
		658.6,387.6 659.9,391.5 662.1,391.5 663.2,390.2 667.2,390.2 669.6,392.6 677.6,392.6 679.2,391.4 677.4,388.3 677.6,353.4 	"/>
	<path id="Broome" class="st16" d="M678.5,395.2h-10l-2.4-2.4h-1.7l-1.1,1.3H658l-1.8-5.5l-1.4-3.1l-1.3-1.8l-9.3,3.7l-0.5,0.2
		c-0.1,0.8-0.1,1.5,0,1.8l4.2,4.2l1.2,7.6H646l-0.2,1.1v0.3h1.9l-0.1,6.5c11.1-2.4,22.3-4.9,33.3-7.5l0.4-0.1h2.2v-1.2l-3.9-5.9
		L678.5,395.2z"/>
	<polygon id="Delaware" class="st16" points="680,387.6 682.6,392 681.7,392.7 686.2,399.4 686.2,401.4 689.6,401.4 695.4,409.2 
		702.7,408.9 703.3,409.9 717.6,395.6 725.4,385.9 727,383.5 725.1,383.5 725.1,374.8 727.8,374.8 727.6,371.3 714.6,363.5 
		709.7,363.5 705.4,364.9 689.1,382 685.2,383 680,384.2 	"/>
	<polygon id="Otsego" class="st16" points="700,342.8 694.9,343.1 688.1,338.8 682.2,344.3 682.2,345.1 680.2,345.1 680.1,381.6 
		684.6,380.5 687.7,379.6 704,362.6 709.5,360.9 711.5,360.9 711.5,354.8 712.8,354.8 709.3,348.3 708.9,340.9 705.6,338.5 
		700,338.5 	"/>
	<path id="Monroe" class="st16" d="M534.5,337.6l-0.4,7.1h1.8l0.5,9.3l1.6,3.5l2.9,2.9l2.7,2.5h1.5v-2h8.8v2h2.2l2.2-2h1.3h1.4h2.3
		l0.4-0.8l-2.1-1.8l0.4-3.3l4.9-1.7v-2h-1.5l-0.5-9.8l-3.1-2.3l0.8-1c-0.7,0.4-1.3,0.8-2.1,1.1c-3.4,1.3-6.7-0.4-9.8-1.6
		c-3.8-1.5-8-0.8-12-0.7c-1.9,0.1-3.7,0.2-5.5,0.4L534.5,337.6z"/>
	<path id="St._Lawrence" class="st16" d="M633.1,244.3c0.7,0.2,3.7,1.1,4.3,1.3c0.7,0.2,6.3,2.8,8,3.6l2.8,1.3l16.9,4.3l15.1,0.4
		l13-6.2l-17.4-56.5h-4.7v-4.6c-4.4,0.8-8.2,1.6-11.5,5.1c-3.2,3.4-6.2,7.2-9.5,10.7c-3.6,3.7-7.4,6.6-10.1,11
		c-2.5,4.1-4.7,8-7.4,12c-2.4,3.6-3.6,8.4-6.2,12.3c-0.3,0.4-0.5,0.7-0.8,1.1L633.1,244.3z"/>
	<path id="Jefferson" class="st16" d="M606.6,272.2c0.4,0.2,1.7,0.2,2.3,0.5c1,0.4,1.9,1.4,2.8,2c2.1,1.2,4.5,0.9,6.7,1.9
		c0.1,3.9-1.8,5.5-3,8.7c-0.8,2.2,1.1,6,2.4,8.5c0.6,1.1,1.2,2.2,1.8,3.4l7.5-3.9c4.4-0.7,9.3-1.5,11.6-2c-0.8-1-1.5-1.9-1.4-3
		c0-0.4,0.2-0.7,0.4-0.9c0.3-1.1,0.1-5.8-0.3-9.6l-0.1-0.6l9.3-8.6l0.7-0.8v-3.9l-2.4-3.1v-2.7l1.3-5.6l-1.9-1
		c-3.4-1.6-7.3-3.3-7.8-3.5c-0.7-0.2-4.4-1.3-4.4-1.3l-0.3-0.1l-7.9-4.4l0.6-1.2c-2.8,3.3-6.4,5.8-9.4,9c-3.1,3.3-7.2,5.7-9.2,9.9
		c-1.2,2.5-2.3,6.6-1.7,9.3C604.8,271.2,605.1,271.4,606.6,272.2"/>
	<path id="Franklin" class="st16" d="M673.7,189.9h4.1l17.8,57.8l3-1.8l9.8-1.8l7.3-2.1v-0.7l-1.9-4.1l-3.8-12.9l9.3-5.1l-2-2.9
		v-9.6l-11.6-25.1l1.2-0.5c-2.3,0.5-4.5,1.1-6.8,1.4c-2.8,0.4-6,0.6-8.8,1.1c-6.2,1.2-12.6,2.8-18.8,3.9h1.3L673.7,189.9
		L673.7,189.9L673.7,189.9z"/>
	<path id="Cayuga" class="st16" d="M598.7,324.2l5.5,23.8h-0.1l2.9,19.7l4.4,7.5l18.3-4.7l-2.4-9.7l-4.6-2.9l-1.8,1.9l-3.6-0.7
		l-4.1-8.8l-3.2-17.5l-1.2-1.5l-2.7-0.4l-4.7-3.9l-0.4-7.4c-0.8,0.8-1.5,1.6-2.2,2.6c-0.5,0.7-1,1.5-1.5,2.2L598.7,324.2z"/>
	<path id="Clinton" class="st16" d="M719.8,206.3v9.3l1.7,2.5l6.1-3.2h0.3c2,0.1,4.4,0.1,4.9,0c0.6-0.3,3.7-3,4.2-3.6
		c0.1-0.2,0.4-0.8,5.2-4l-1-1.1l1.6-2.6l-2.5-2.5l-4.1-17.7v-10.8l-27.9,8.3c-0.1,0-0.2,0-0.3,0.1L719.8,206.3z"/>
	<path id="Chautauqua" class="st16" d="M461.3,429.3v15.2c5.8-1,17.7-3,33.7-5.8l-5.9-25.8l-1.9-5.8l-3.6-3.6c-2,4.4-6.9,4.1-10,7.8
		c-0.7,0.8-1.4,1.8-2,2.7c-0.5,1-0.4,2.3-1,3.2c-1.3,2-4.2,2.8-6.1,4.5s30.7-33.3,29-31.4c-0.9,1-1.6,1.5-2.3,1.9L461.3,429.3z"/>
	<path id="Niagara" class="st16" d="M481.9,363.3c0.7,1.2,0.9,2.8,1.3,4.2l-0.3-1.3l28.5-5.8l-0.4-3.5l-0.2-1.8l-3.3-13.9l1.3-0.3
		c-1.8,0.1-3.6,0.2-5.5,0.9c-5,1.9-9.5,3.7-14.4,5.6c-2.5,1-4.3,2.2-6.5,3.6c-2.7,1.8-3.3,2.7-2.6,5.8
		C480.3,359.1,480.8,361.3,481.9,363.3"/>
	<path id="Wayne" class="st16" d="M567.5,340.2l0.4,8.6h1.6v3.3l2.6-1.3h10.2v1.4l2.3,0.6l0.8-2h7.4l8.5-4.2l-4.8-20.8
		c-0.7,0.8-1.4,1.6-2.2,2.3c-0.9,0.7-2.1,0.9-3,1.5c-0.8,0.6-1.4,1.8-2.1,2.2c-3.7,2.1-10-0.1-14.3,0.9c-2.1,0.5-4.3,1.6-6.4,2.1
		c-1.8,0.5-3.2,1.6-4.6,2.7L567.5,340.2z"/>
	<path id="Orleans" class="st16" d="M513.4,354.7l0.2,1.8l20.3-3.3l-0.3-6h-2.1l0.5-9.6c-3.6,0.3-7.1,0.7-10.8,1
		c-2.7,0.3-5.2,1.5-7.9,1.9c-1.1,0.2-2.1,0.2-3.1,0.2L513.4,354.7z"/>
	<path id="Westchester" class="st16" d="M786.6,462.5v1.3c0.3-1.7,0.9-3.4,1.3-5c0.3-1.5,0.9-2.9,1.8-4.2l-3,1.8l-6-9.8l5.5-5.9
		v-9.3h-2.9l-6.9,4.1l-4.1,1.6v4.3l2.1,2.3l4.3,2.8v4.6l1.8,2.2l-0.2,0.5l0.8,0.3v8.3h5.5L786.6,462.5L786.6,462.5z"/>
	<path id="New_York" class="st16" d="M776.7,475.9l1.1,3.1l0.5-0.6c0.7-0.4,1.5-0.9,1.6-1.1c0.2-0.6,1.1-2.8,1.8-4
		c0.1-0.2,0.3-0.4,0.5-0.7v-2.9l-1.4-0.2L776.7,475.9z"/>
	<path id="Nassau" class="st16" d="M805.9,475.3l-3.3-8.1l-2.6-9.1c0,0.1-0.1,0.1-0.1,0.2c-1.5,1.5-3.6,2.7-5.2,4.2
		c-1,0.9-3.2,3.6-5.1,5h1.3v5.3l2.1,6.4l1.3,3l-1.2,0.5c1.6-0.3,3.2-0.5,4.7-1c3.4-1.1,6.8-2,10.2-3L805.9,475.3z"/>
	<path id="Suffolk" class="st16" d="M860.5,429.5c-5-2-5.7,3.1-8.7,6.2c-3.5,3.6-7.7,5.6-12.2,7.8c-4,1.9-7.8,4-11.9,5.4
		c-3.4,1.1-6.3,3.3-9.6,4.7c-2.1,0.9-5,1.2-7.3,0.6c-2.5-0.7-4.1-2.9-6.8-1.2c-1.2,0.7-2.1,2.4-3,3.8l1.2-0.4l2.9,9.9l3.2,7.9
		l2.1,3.5l-1.1,0.6c0.8-0.3,1.7-0.5,2.5-0.8c4-1.5,8.7-3.1,12.2-5.5c8.6-6,16.1-14.7,25.7-19.1c4.5-2.1,9.4-5.2,12.4-9
		c1.5-1.9,3.1-3.6,4.6-5.6c1.8-2.4,3.4-2.7,6.2-3.3C872.5,432.7,862.6,430.3,860.5,429.5"/>
	<path id="Queens_1_" class="st16" d="M788,469c-0.9,1.3-3.5,4.8-4,5.6c-0.3,0.5-0.6,1.1-0.9,1.8l3.1,3.7v5.9
		c1.9-0.5,2.9-2.1,4.9-2.8c0.2-0.1,0.5-0.1,0.7-0.2l-1.3-2.9l-2.3-7.1v-4.7L788,469z"/>
	<path id="Putnam" class="st16" d="M782.6,428.8h3.5V419l-0.8,0.2c-1.4,0.6-8.8,3.7-9.4,4c-0.4,0.1-3.3,1.4-5.8,2.6l-0.3,0.1h-1.6
		v4.2l1.9,1.3l1.5,3.2l3.8-1.4L782.6,428.8z"/>
	<path id="Richmond" class="st16" d="M776.4,479.3l-0.9,1.1l-2.1,1l0.1,2.7l-3.5,0.1c0.1,1.3,0,2.7,0.1,4
		C774.5,488.8,775.2,482.7,776.4,479.3"/>
	<polygon id="Genesee" class="st16" points="535.8,358.8 534.5,355.8 513.8,359.1 514.2,362.5 514.2,362.5 515.4,375.2 539.6,370.4 
		539.6,368.3 541.5,364.5 539.1,362.3 	"/>
	<path id="Cattaraugus" class="st16" d="M497.6,438.2c10.4-1.8,22.5-4,35.8-6.5l-6.3-30.7h-7.7l-5.1,3.8l-9.7,5.2l-5.7,3.6l-7.1-4.4
		l-1.4-0.7l1.2,3.6L497.6,438.2z"/>
	<path id="Wyoming" class="st16" d="M539.7,374.2v-0.3v-0.8l-24,4.8l0.6,6.2l3.4,4.3l2.9,10.3h5.5l11.1-1.8l1-5.4l0.3-0.3
		c1.2-1.2,2.5-2.8,2.9-3.4c-0.1-0.6-0.7-2.2-0.9-3c-0.6-1.8-0.8-2.4-0.8-2.8C541.5,381.3,540.6,377.5,539.7,374.2"/>
	<polygon id="Tompkins" class="st16" points="612.1,382.1 614.6,395.7 616.2,396.8 616.5,396.7 618.6,399.5 621.8,397.3 
		633.5,385.8 630.3,373 612.1,377.8 	"/>
	<path id="Herkimer" class="st16" d="M666.6,257.4c1.2,4.6,1.8,7.2,1.8,7.7c0,0.2,0.3,1,0.6,1.7l7.5,22.3l7.5,25.5v4.2l-4.4,9.9
		l0.2,6.4h2.5v5.8l5.6-5.2l7.7,4.9l1.9-0.1V336h6.4l-4-7.4v-18.8l-5.7-2.2h-4.9v-7.1l1.8-2.6l0.2-4.3l-11.7-35.8L666.6,257.4z"/>
	<polygon id="Onondaga" class="st16" points="619.2,356.9 620,357.1 622.2,354.6 629.5,359.2 629.8,360.5 646.7,353.6 643,341.5 
		637.4,333.2 637.4,331.4 628.4,327.7 625.4,327.7 612.7,333.1 615.8,349.7 	"/>
	<polygon id="Kings" class="st16" points="776.4,486 783.8,486 783.8,480.7 782.1,478.7 778,480.7 	"/>
	<path id="Bronx" class="st16" d="M786.3,465.6c0-0.1,0-0.3,0.1-0.4h-4.2v2l2.6,0.4v1.4c0.5-0.7,1-1.3,1.1-1.5l0.5-2.3"/>
	<path id="Schuyler" class="st16" d="M617,400.5l-2-2.8l-2.7-0.4l-2.5-13.4l-9.1,2.7l-9,4.2c0.5,5.6,0.3,8,0,9
		c0.4,0.3,1,0.6,1.6,0.9l0.8,0.4v2l0.9-0.7h4.8l3.7-3l8.6-0.9h0.1l2.8,4.6L617,400.5z"/>
</g>
<g id="balls">
	<circle id="Suffolk_circles" class="st14" cx="834.1" cy="451.9" r="10.4"/>
	<text id="Suffolk_numbers" transform="matrix(1 2.630000e-03 -2.630000e-03 1 828.4305 454.7148)" class="st17 st3 st18">60</text>
	<circle id="Nassau_circles" class="st14" cx="798" cy="470.9" r="10.4"/>
	<text id="Nassau_numbers" transform="matrix(1 2.630000e-03 -2.630000e-03 1 792.3351 473.6779)" class="st17 st3 st18">60</text>
	<circle id="Queens_circles" class="st14" cx="786.9" cy="479.3" r="10.4"/>
	<text id="Queens_numbers" transform="matrix(1 2.630000e-03 -2.630000e-03 1 781.2247 482.1076)" class="st17 st3 st18">60</text>
	<circle id="Kings_circles" class="st14" cx="778.7" cy="483.4" r="10.4"/>
	<text id="Kings_numbers" transform="matrix(1 2.630000e-03 -2.630000e-03 1 773.0452 486.2187)" class="st17 st3 st18">60</text>
	<circle id="Richmond_circles" class="st14" cx="770.7" cy="482.1" r="10.4"/>
	<text id="Richmond_numbers" transform="matrix(1 2.630000e-03 -2.630000e-03 1 765.092 484.9525)" class="st17 st3 st18">60</text>
	<circle id="New_York_circles" class="st14" cx="777.1" cy="471.1" r="10.4"/>
	<text id="New_York_numbers" transform="matrix(1 2.630000e-03 -2.630000e-03 1 771.4413 473.9001)" class="st17 st3 st18">60</text>
	<circle id="Bronx_circles" class="st14" cx="783.1" cy="462.2" r="10.4"/>
	<text id="Bronx_numbers" transform="matrix(1 2.630000e-03 -2.630000e-03 1 777.4462 464.989)" class="st17 st3 st18">60</text>
	<circle id="Westchester_circles" class="st14" cx="780.6" cy="446.5" r="10.4"/>
	<text id="Westchester_numbers" transform="matrix(1 2.630000e-03 -2.630000e-03 1 774.9462 449.2963)" class="st17 st3 st18">60</text>
	<circle id="Rockland_circles" class="st14" cx="768.1" cy="445.8" r="10.4"/>
	<text id="Rockland_numbers" transform="matrix(1 2.630000e-03 -2.630000e-03 1 762.4973 448.5778)" class="st17 st3 st18">60</text>
	<circle id="Putnam_circles" class="st14" cx="776.4" cy="425.7" r="10.4"/>
	<text id="Putnam_numbers" transform="matrix(1 2.630000e-03 -2.630000e-03 1 770.7617 428.545)" class="st17 st3 st18">60</text>
	<circle id="Orange_circles" class="st14" cx="753" cy="433.5" r="10.4"/>
	<text id="Orange_numbers" transform="matrix(1 2.630000e-03 -2.630000e-03 1 747.3425 436.2817)" class="st17 st3 st18">60</text>
	<circle id="Dutchess_circles" class="st14" cx="774.1" cy="402.1" r="10.4"/>
	<text id="Dutchess_numbers" transform="matrix(1 2.630000e-03 -2.630000e-03 1 768.4277 404.9112)" class="st17 st3 st18">60</text>
	<circle id="Ulster_circles" class="st14" cx="747.3" cy="400.5" r="10.4"/>
	<text id="Ulster_numbers" transform="matrix(1 2.630000e-03 -2.630000e-03 1 741.6881 403.3187)" class="st17 st3 st18">60</text>
	<circle id="Sullivan_circles" class="st14" cx="721.5" cy="416.5" r="10.4"/>
	<text id="Sullivan_numbers" transform="matrix(1 2.630000e-03 -2.630000e-03 1 715.861 419.3223)" class="st17 st3 st18">60</text>
	<circle id="Columbia_circles" class="st14" cx="770.2" cy="367.1" r="10.4"/>
	<text id="Columbia_numbers" transform="matrix(1 2.630000e-03 -2.630000e-03 1 764.5759 369.8858)" class="st17 st3 st18">60</text>
	<circle id="Greene_circles" class="st14" cx="745.6" cy="371.5" r="10.4"/>
	<text id="Greene_numbers" transform="matrix(1 2.630000e-03 -2.630000e-03 1 739.9277 374.3558)" class="st17 st3 st18">60</text>
	<circle id="Delaware_circles" class="st14" cx="705" cy="385.3" r="10.4"/>
	<text id="Delaware_numbers" transform="matrix(1 2.630000e-03 -2.630000e-03 1 699.3018 388.1151)" class="st17 st3 st18">60</text>
	<circle id="Broome_circles" class="st14" cx="660.2" cy="398.3" r="10.4"/>
	<text id="Broome_numbers" transform="matrix(1 2.630000e-03 -2.630000e-03 1 654.564 401.0613)" class="st17 st3 st18">60</text>
	<circle id="Chenango_circles" class="st14" cx="666" cy="372.8" r="10.4"/>
	<text id="Chenango_numbers" transform="matrix(1 2.630000e-03 -2.630000e-03 1 660.3573 375.565)" class="st17 st3 st18">60</text>
	<circle id="Tioga_circles" class="st14" cx="635" cy="400.2" r="10.4"/>
	<text id="Tioga_numbers" transform="matrix(1 2.630000e-03 -2.630000e-03 1 629.3314 403.0223)" class="st17 st3 st18">60</text>
	<circle id="Cortland_circles" class="st14" cx="642.6" cy="370.7" r="10.4"/>
	<text id="Cortland_numbers" transform="matrix(1 2.630000e-03 -2.630000e-03 1 636.9425 373.4669)" class="st17 st3 st18">60</text>
	<circle id="Tompkins_circles" class="st14" cx="621.7" cy="385.1" r="10.4"/>
	<text id="Tompkins_numbers" transform="matrix(1 2.630000e-03 -2.630000e-03 1 616.0751 387.9334)" class="st17 st3 st18">60</text>
	<circle id="Chemung_circles" class="st14" cx="613.9" cy="409.8" r="10.4"/>
	<text id="Chemung_numbers" transform="matrix(1 2.630000e-03 -2.630000e-03 1 608.2277 412.5814)" class="st17 st3 st18">60</text>
	<circle id="Schuyler_circles" class="st14" cx="604.7" cy="392.1" r="10.4"/>
	<text id="Schuyler_numbers" transform="matrix(1 2.630000e-03 -2.630000e-03 1 599.0351 394.9151)" class="st17 st3 st18">60</text>
	<circle id="Steuben_circles" class="st14" cx="577.1" cy="407.2" r="10.4"/>
	<text id="Steuben_numbers" transform="matrix(1 2.630000e-03 -2.630000e-03 1 571.4314 410.0038)" class="st17 st3 st18">60</text>
	<circle id="Allegany_circles" class="st14" cx="545.9" cy="413.4" r="10.4"/>
	<text id="Allegany_numbers" transform="matrix(1 2.630000e-03 -2.630000e-03 1 540.2195 416.2001)" class="st17 st3 st18">60</text>
	<circle id="Yates_circles" class="st14" cx="587.3" cy="379.2" r="10.4"/>
	<text id="Yates_numbers" transform="matrix(1 2.630000e-03 -2.630000e-03 1 581.6881 382.0076)" class="st17 st3 st18">60</text>
	<circle id="Ontario_circles" class="st14" cx="573.8" cy="363.2" r="10.4"/>
	<text id="Ontario_numbers" transform="matrix(1 2.630000e-03 -2.630000e-03 1 568.1388 366.0113)" class="st17 st3 st18">60</text>
	<circle id="Livingston_circles" class="st14" cx="553" cy="380.8" r="10.4"/>
	<text id="Livingston_numbers" transform="matrix(1 2.630000e-03 -2.630000e-03 1 547.3351 383.6451)" class="st17 st3 st18">60</text>
	<circle id="Wyoming_circles" class="st14" cx="529.4" cy="385.9" r="10.4"/>
	<text id="Wyoming_numbers" transform="matrix(1 2.630000e-03 -2.630000e-03 1 523.795 388.7076)" class="st17 st3 st18">60</text>
	
		<ellipse id="Cattaraugus_circles" transform="matrix(0.1602 -0.9871 0.9871 0.1602 15.4793 858.3937)" class="st14" cx="512.2" cy="420.1" rx="10.4" ry="10.4"/>
	<text id="Cattaraugus_numbers" transform="matrix(1 2.630000e-03 -2.630000e-03 1 506.5462 422.9075)" class="st17 st3 st18">60</text>
	<circle id="Genesee_circles" class="st14" cx="526.2" cy="364.5" r="10.4"/>
	<text id="Genesee_numbers" transform="matrix(1 2.630000e-03 -2.630000e-03 1 520.5184 367.3038)" class="st17 st3 st18">60</text>
	<circle id="Chautauqua_circles" class="st14" cx="477.1" cy="428.2" r="10.4"/>
	<text id="Chautauqua_numbers" transform="matrix(1 2.630000e-03 -2.630000e-03 1 471.4659 431.0038)" class="st17 st3 st18">60</text>
	<circle id="Erie_circles" class="st14" cx="502.9" cy="385.3" r="10.4"/>
	<text id="Erie_numbers" transform="matrix(1 2.630000e-03 -2.630000e-03 1 497.2437 388.1151)" class="st17 st3 st18">60</text>
	<circle id="Niagara_circles" class="st14" cx="495.5" cy="352.9" r="10.4"/>
	<text id="Niagara_numbers" transform="matrix(1 2.630000e-03 -2.630000e-03 1 489.8156 355.7186)" class="st17 st3 st18">60</text>
	
		<ellipse id="Orleans_circles" transform="matrix(0.1602 -0.9871 0.9871 0.1602 96.8821 805.4713)" class="st14" cx="521.8" cy="345.8" rx="10.4" ry="10.4"/>
	<text id="Orleans_numbers" transform="matrix(1 2.630000e-03 -2.630000e-03 1 516.1036 348.6187)" class="st17 st3 st18">60</text>
	<circle id="Monroe_circles" class="st14" cx="549.4" cy="350" r="10.4"/>
	<text id="Monroe_numbers" transform="matrix(1 2.630000e-03 -2.630000e-03 1 543.7622 352.7964)" class="st17 st3 st18">60</text>
	<circle id="Wayne_circles" class="st14" cx="584.1" cy="340.4" r="10.4"/>
	<text id="Wayne_numbers" transform="matrix(1 2.630000e-03 -2.630000e-03 1 578.4314 343.191)" class="st17 st3 st18">60</text>
	<circle id="Cayuga_circles" class="st14" cx="612.5" cy="359.7" r="10.4"/>
	<text id="Cayuga_numbers" transform="matrix(1 2.630000e-03 -2.630000e-03 1 606.8734 362.5093)" class="st17 st3 st18">60</text>
	<circle id="Onondaga_circles" class="st14" cx="627.7" cy="343.7" r="10.4"/>
	<text id="Onondaga_numbers" transform="matrix(1 2.630000e-03 -2.630000e-03 1 622.0463 346.5076)" class="st17 st3 st18">60</text>
	<circle id="Madison_circles" class="st14" cx="655.8" cy="344" r="10.4"/>
	<text id="Madison_numbers" transform="matrix(1 2.630000e-03 -2.630000e-03 1 650.1117 346.8038)" class="st17 st3 st18">60</text>
	<circle id="Otsego_circles" class="st14" cx="694.4" cy="356.3" r="10.4"/>
	<text id="Otsego_numbers" transform="matrix(1 2.630000e-03 -2.630000e-03 1 688.735 359.0909)" class="st17 st3 st18">60</text>
	<circle id="Schoharie_circles" class="st14" cx="726.2" cy="351.8" r="10.4"/>
	<text id="Schoharie_numbers" transform="matrix(1 2.630000e-03 -2.630000e-03 1 720.5703 354.6214)" class="st17 st3 st18">60</text>
	<circle id="Albany_circles" class="st14" cx="749.7" cy="346.8" r="10.4"/>
	<text id="Albany_numbers" transform="matrix(1 2.630000e-03 -2.630000e-03 1 744.0585 349.6382)" class="st17 st3 st18">60</text>
	<circle id="Rensselaer_circles" class="st14" cx="769" cy="334.6" r="10.4"/>
	<text id="Rensselaer_numbers" transform="matrix(1 2.630000e-03 -2.630000e-03 1 763.3073 337.4022)" class="st17 st3 st18">60</text>
	<circle id="Schenectady_circles" class="st14" cx="740.2" cy="330.1" r="10.4"/>
	<text id="Schenectady_numbers" transform="matrix(1 2.630000e-03 -2.630000e-03 1 734.5709 332.941)" class="st17 st3 st18">60</text>
	<circle id="Montgomery_circles" class="st14" cx="720.5" cy="329.2" r="10.4"/>
	<text id="Montgomery_numbers" transform="matrix(1 2.630000e-03 -2.630000e-03 1 714.8425 332.0132)" class="st17 st3 st18">60</text>
	<circle id="Oneida_circles" class="st14" cx="665" cy="319.3" r="10.4"/>
	<text id="Oneida_numbers" transform="matrix(1 2.630000e-03 -2.630000e-03 1 659.3092 322.0926)" class="st17 st3 st18">60</text>
	<circle id="Oswego_circles" class="st14" cx="624.7" cy="312.4" r="10.4"/>
	<text id="Oswego_numbers" transform="matrix(1 2.630000e-03 -2.630000e-03 1 619.0425 315.1983)" class="st17 st3 st18">60</text>
	<circle id="Fulton_circles" class="st14" cx="715.9" cy="315.8" r="10.4"/>
	<text id="Fulton_numbers" transform="matrix(1 2.630000e-03 -2.630000e-03 1 710.2722 318.5909)" class="st17 st3 st18">60</text>
	<circle id="Saratoga_circles" class="st14" cx="745.9" cy="312.7" r="10.4"/>
	<text id="Saratoga_numbers" transform="matrix(1 2.630000e-03 -2.630000e-03 1 740.2067 315.4947)" class="st17 st3 st18">60</text>
	<circle id="Washington_circles" class="st14" cx="765.1" cy="293.7" r="10.4"/>
	<text id="Washington_numbers" transform="matrix(1 2.630000e-03 -2.630000e-03 1 759.4659 296.5262)" class="st17 st3 st18">60</text>
	<circle id="Warren_circles" class="st14" cx="737.9" cy="278.3" r="10.4"/>
	<text id="Warren_numbers" transform="matrix(1 2.630000e-03 -2.630000e-03 1 732.261 281.1153)" class="st17 st3 st18">60</text>
	<circle id="Herkimer_circles" class="st14" cx="691" cy="315.5" r="10.4"/>
	<text id="Herkimer_numbers" transform="matrix(1 2.630000e-03 -2.630000e-03 1 685.3462 318.2945)" class="st17 st3 st18">60</text>
	<circle id="Hamilton_circles" class="st14" cx="705" cy="282.4" r="10.4"/>
	<text id="Hamilton_numbers" transform="matrix(1 2.630000e-03 -2.630000e-03 1 699.3326 285.2054)" class="st17 st3 st18">60</text>
	<circle id="Lewis_circles" class="st14" cx="656.3" cy="283.2" r="10.4"/>
	<text id="Lewis_numbers" transform="matrix(1 2.630000e-03 -2.630000e-03 1 650.6948 285.9622)" class="st17 st3 st18">60</text>
	<circle id="Jefferson_circles" class="st14" cx="627.4" cy="267.2" r="10.4"/>
	<text id="Jefferson_numbers" transform="matrix(1 2.630000e-03 -2.630000e-03 1 621.7326 269.993)" class="st17 st3 st18">60</text>
	<circle id="St._Lawrence_circles" class="st14" cx="662" cy="228.2" r="10.4"/>
	<text id="St._Lawrence_numbers" transform="matrix(1 2.630000e-03 -2.630000e-03 1 656.3462 231.0318)" class="st17 st3 st18">60</text>
	<circle id="Essex_circles" class="st14" cx="732.8" cy="242.8" r="10.4"/>
	<text id="Essex_numbers" transform="matrix(1 2.630000e-03 -2.630000e-03 1 727.1326 245.5928)" class="st17 st3 st18">60</text>
	<circle id="Franklin_circles" class="st14" cx="701.1" cy="211.1" r="10.4"/>
	<text id="Franklin_numbers" transform="matrix(1 2.630000e-03 -2.630000e-03 1 695.4326 213.9427)" class="st17 st3 st18">60</text>
	<circle id="Clinton_circles" class="st14" cx="727.6" cy="195.3" r="10.4"/>
	<text id="Clinton_numbers" transform="matrix(1 2.630000e-03 -2.630000e-03 1 721.9326 198.1429)" class="st17 st3 st18">60</text>
</g>
</svg>
